<svg version="1.1" xmlns="http://www.w3.org/2000/svg" xmlns:xlink="http://www.w3.org/1999/xlink" width="310.61805" height="278.61757" viewBox="0,0,310.61805,278.61757"><g transform="translate(-84.69101,-14.67326)"><g data-paper-data="{&quot;isPaintingLayer&quot;:true}" stroke-miterlimit="10" stroke-dasharray="" stroke-dashoffset="0" style="mix-blend-mode: normal"><path d="M89.00895,289.09294v-226.48663h301.98219v226.48663z" fill="#b993ff" fill-rule="nonzero" stroke="none" stroke-width="0" stroke-linecap="butt" stroke-linejoin="miter"/><path d="M392.80907,281.56757c0,5.09342 -4.1309,9.22325 -9.22325,9.22325h-287.17263c-5.09342,0 -9.22217,-4.1309 -9.22217,-9.22325v-211.43697c0,-5.09342 4.12876,-9.22216 9.22217,-9.22216h287.17155c5.09557,0 9.22325,4.12875 9.22325,9.22216v211.43698z" fill="none" fill-rule="nonzero" stroke="#333333" stroke-width="5" stroke-linecap="butt" stroke-linejoin="miter"/><text transform="translate(102.85234,41.5799) scale(0.62332,0.62332)" font-size="40" xml:space="preserve" fill="#ffffff" fill-rule="nonzero" stroke="none" stroke-width="1" stroke-linecap="butt" stroke-linejoin="miter" stroke-miterlimit="10" stroke-dasharray="" stroke-dashoffset="0" font-family="Sans Serif" font-weight="normal" text-anchor="start" style="mix-blend-mode: normal"><tspan x="0" dy="0">広告募集中！</tspan></text><text transform="translate(102.85234,55.93985) scale(0.26064,0.26064)" font-size="40" xml:space="preserve" fill="#cccccc" fill-rule="nonzero" stroke="none" stroke-width="1" stroke-linecap="butt" stroke-linejoin="miter" stroke-miterlimit="10" stroke-dasharray="" stroke-dashoffset="0" font-family="Sans Serif" font-weight="normal" text-anchor="start" style="mix-blend-mode: normal"><tspan x="0" dy="0">by Masaabu-YT</tspan></text><text transform="translate(104.25502,124.38446) rotate(-6.85264) scale(0.53878,0.53878)" font-size="40" xml:space="preserve" fill="#ffffff" fill-rule="nonzero" stroke="#ffffff" stroke-width="1" stroke-linecap="butt" stroke-linejoin="miter" stroke-miterlimit="10" stroke-dasharray="" stroke-dashoffset="0" font-family="Sans Serif" font-weight="normal" text-anchor="start" style="mix-blend-mode: normal"><tspan x="0" dy="0">あなたのプロジェクトを</tspan></text><text transform="translate(126.56961,153.083) rotate(-6.85244) scale(0.57802,0.57802)" font-size="40" xml:space="preserve" fill="#ffffff" fill-rule="nonzero" stroke="#ffffff" stroke-width="4" stroke-linecap="butt" stroke-linejoin="miter" stroke-miterlimit="10" stroke-dasharray="" stroke-dashoffset="0" font-family="Sans Serif" font-weight="normal" text-anchor="start" style="mix-blend-mode: normal"><tspan x="0" dy="0">みんなへ宣伝！</tspan></text><text transform="translate(126.56901,153.08297) rotate(-6.85244) scale(0.57802,0.57802)" font-size="40" xml:space="preserve" fill="#ff7e7e" fill-rule="nonzero" stroke="#ff7e7e" stroke-width="1" stroke-linecap="butt" stroke-linejoin="miter" stroke-miterlimit="10" stroke-dasharray="" stroke-dashoffset="0" font-family="Sans Serif" font-weight="normal" text-anchor="start" style="mix-blend-mode: normal"><tspan x="0" dy="0">みんなへ宣伝！</tspan></text><text transform="translate(105.04108,269.38675) scale(0.72872,0.72872)" font-size="40" xml:space="preserve" fill="#ffffff" fill-rule="nonzero" stroke="#ffffff" stroke-width="4" stroke-linecap="butt" stroke-linejoin="miter" stroke-miterlimit="10" stroke-dasharray="" stroke-dashoffset="0" font-family="Sans Serif" font-weight="normal" text-anchor="start" style="mix-blend-mode: normal"><tspan x="0" dy="0">↓ 無料で申し込み！↓</tspan></text><text transform="translate(105.04108,269.38672) scale(0.72872,0.72872)" font-size="40" xml:space="preserve" fill="#df7c26" fill-rule="nonzero" stroke="none" stroke-width="1" stroke-linecap="butt" stroke-linejoin="miter" stroke-miterlimit="10" stroke-dasharray="" stroke-dashoffset="0" font-family="Sans Serif" font-weight="normal" text-anchor="start" style="mix-blend-mode: normal"><tspan x="0" dy="0">↓ 無料で申し込み！↓</tspan></text><g fill-rule="nonzero" stroke-linejoin="miter"><path d="M351.34897,220.52907c0.25455,1.57783 -0.81873,3.06361 -2.39623,3.31811l-100.8371,16.26781c-1.57783,0.25455 -3.06328,-0.81878 -3.31777,-2.39628l-13.15707,-81.55494c-0.25455,-1.57783 0.81812,-3.06317 2.39595,-3.31772l100.83678,-16.26776c1.5785,-0.25466 3.06351,0.81806 3.31806,2.39589l13.15706,81.55495z" fill="#6d6f73" stroke="#333333" stroke-width="2.5" stroke-linecap="butt"/><path d="M250.9539,156.54575c0.15709,0.97374 -0.50526,1.89066 -1.47879,2.04772l-6.62385,1.06861c-0.97374,0.15709 -1.89045,-0.5053 -2.04751,-1.47883l-0.27022,-1.67493c-0.15709,-0.97374 0.50489,-1.89039 1.47862,-2.04748l6.62364,-1.06857c0.97414,-0.15715 1.89059,0.50485 2.04769,1.47858l0.27022,1.67494z" fill="#bfb130" stroke="none" stroke-width="1" stroke-linecap="butt"/><path d="M327.9815,144.63395c0.18698,1.15903 -0.60141,2.25045 -1.7602,2.4374l-2.28431,0.36852c-1.15904,0.18698 -2.25021,-0.60145 -2.43715,-1.76025l-0.32163,-1.99367c-0.18698,-1.15903 0.60096,-2.25013 1.76,-2.43711l2.28406,-0.36848c1.15952,-0.18706 2.25037,0.60093 2.43736,1.75996l0.32163,1.99367z" fill="#494a4d" stroke="none" stroke-width="1" stroke-linecap="butt"/><path d="M339.25486,212.94503c0.22951,1.42263 -0.73819,2.76227 -2.16052,2.99173l-80.20948,12.94c-1.42263,0.22951 -2.76196,-0.73825 -2.99142,-2.16057l-9.52735,-59.05594c-0.22951,-1.42263 0.73764,-2.76186 2.16027,-2.99137l80.20918,-12.93995c1.42323,-0.2296 2.76216,0.73759 2.99167,2.16022l9.52735,59.05593z" fill="#a1efff" stroke="#333333" stroke-width="5" stroke-linecap="butt"/><path d="M339.25486,212.94503c0.22951,1.42263 -0.73819,2.76227 -2.16052,2.99173l-80.20948,12.94c-1.42263,0.22951 -2.76196,-0.73825 -2.99142,-2.16057c0,0 -2.34905,-14.5608 -3.72858,-23.11186c-0.28656,-1.77627 2.21205,-14.90872 6.69527,-16.72982c6.74523,-2.73993 13.57792,9.50798 25.02747,8.79717c7.96332,-0.49437 23.83897,-30.29001 31.06574,-31.60425c13.28406,-2.41581 22.18719,23.37651 22.73582,26.7773c1.34039,8.30846 3.5654,22.10035 3.5654,22.10035z" fill="#33c23a" stroke="#33c23a" stroke-width="3.5" stroke-linecap="butt"/><path d="M339.25486,212.94503c0.22951,1.42263 -0.73819,2.76227 -2.16052,2.99173l-80.20948,12.94c-1.42263,0.22951 -2.76196,-0.73825 -2.99142,-2.16057l-9.52735,-59.05594c-0.22951,-1.42263 0.73764,-2.76186 2.16027,-2.99137l80.20918,-12.93995c1.42323,-0.2296 2.76216,0.73759 2.99167,2.16022l9.52735,59.05593z" fill="none" stroke="#333333" stroke-width="5" stroke-linecap="butt"/><path d="M256.8357,154.19961l50.8354,-7.98842" fill="none" stroke="#ffffff" stroke-width="3" stroke-linecap="round"/></g><g fill-rule="evenodd" stroke-width="1"><path d="M193.08123,155.03232c0.23084,-0.22379 0.68545,-0.21677 0.8377,0.1179l4.00652,8.96433c0,0 6.37107,3.08929 8.56976,5.67681c3.69374,4.30716 4.50747,8.2375 4.50747,8.2375c0,0 6.56548,0.69617 8.5375,5.5014c1.97202,4.80523 -0.14428,14.98669 -16.03477,21.26475c-15.89049,6.27806 -29.9559,4.24163 -38.02182,-4.61056c-8.06594,-8.85218 -0.43787,-22.58629 -0.83497,-21.78789l-4.72967,-15.35934c-0.15223,-0.33467 0.23786,-0.67844 0.6209,-0.56759l11.88618,4.97603c0,0 3.6722,-2.21691 7.7618,-3.1506c2.42331,-0.62714 4.56036,-0.83897 6.642,-0.85925z" fill="#ffab19" stroke="#001026" stroke-linecap="butt" stroke-linejoin="miter"/><path d="M210.80412,178.42808c0,0 6.34166,0.46532 8.3137,5.27055c1.97202,4.80523 -0.57574,14.6127 -16.30697,20.77081c-20.41653,8.28938 -32.82524,-2.48389 -28.65959,-12.86099c4.14952,-10.46479 15.70313,-4.33958 22.97305,-6.221c6.23366,-1.60014 5.9188,-7.25424 13.67981,-6.95937z" fill="#ffffff" stroke="none" stroke-linecap="butt" stroke-linejoin="miter"/><path d="M184.90523,192.8941c-0.06454,-0.3508 0.23784,-0.67844 0.60477,-0.65529c1.77921,0.30735 6.77313,0.83929 12.09962,0.22205c4.78416,-0.60813 7.54216,-1.3875 8.80922,-1.89262c0.42236,-0.16836 0.85381,0.2056 0.75909,0.67637c-0.35368,2.51309 -2.47618,9.70359 -11.7814,10.87149c-8.14197,0.5912 -9.96382,-4.87632 -10.49131,-9.222z" fill="#ffffff" stroke="#001026" stroke-linecap="round" stroke-linejoin="round"/><path d="M227.11827,176.42411c-3.50876,4.09086 -9.80697,5.34021 -9.80697,5.34021" fill="none" stroke="#001026" stroke-linecap="round" stroke-linejoin="round"/><path d="M227.78515,186.45617c-5.44438,1.45494 -9.17119,0.41787 -9.17119,0.41787" fill="none" stroke="#001026" stroke-linecap="round" stroke-linejoin="round"/><path d="M196.35406,183.17183c1.84171,-0.33882 3.8033,-0.51839 4.00394,0.07939c0.31357,1.21167 -0.55017,3.90925 -1.9372,4.25508c-1.54631,0.4658 -5.63303,-1.04904 -5.89117,-2.45222c-0.2813,-1.03625 2.07046,-1.55957 3.82443,-1.88224z" fill="#001026" stroke="#001026" stroke-linecap="round" stroke-linejoin="round"/><path d="M156.64738,189.11661c0,0 7.99389,1.06807 11.56352,3.22204" fill="none" stroke="#001026" stroke-linecap="round" stroke-linejoin="round"/><path d="M169.03868,195.35973c-3.49679,2.18464 -10.16398,2.41387 -10.16398,2.41387" fill="none" stroke="#001026" stroke-linecap="round" stroke-linejoin="round"/><g><path d="M204.81488,171.00718c3.26929,3.47857 4.17985,7.93511 2.01467,9.96544c-2.16516,2.03033 -6.53815,0.93081 -9.89514,-2.53163c-3.26929,-3.47857 -4.17987,-7.9351 -2.01469,-9.96545c2.14903,-2.11802 6.62587,-0.94695 9.89516,2.53162z" fill="#ffffff" stroke="#001026" stroke-linecap="round" stroke-linejoin="round"/><path d="M205.38372,176.07058c0.17747,0.96469 -0.37889,1.88306 -1.25589,2.0444c-0.877,0.16134 -1.72379,-0.49889 -1.90126,-1.46358c-0.17747,-0.96469 0.3789,-1.88306 1.2559,-2.0444c0.877,-0.16134 1.72378,0.49889 1.90126,1.46358" fill="#001026" stroke="none" stroke-linecap="butt" stroke-linejoin="miter"/></g><g><path d="M183.51724,177.46401c3.34086,3.37474 4.03668,8.14277 1.97535,10.24466c-2.58753,2.19869 -6.67219,1.68082 -10.01304,-1.69392c-3.42858,-3.35861 -4.52358,-8.32521 -2.15987,-10.75474c2.3476,-2.51723 6.85668,-1.17073 10.19757,2.204z" fill="#ffffff" stroke="#001026" stroke-linecap="round" stroke-linejoin="round"/><path d="M183.92679,182.64735c0.17747,0.96469 -0.3789,1.88306 -1.2559,2.0444c-0.877,0.16134 -1.72378,-0.49889 -1.90126,-1.46358c-0.17747,-0.96469 0.3789,-1.88306 1.2559,-2.0444c0.89313,-0.07364 1.72378,0.49889 1.90126,1.46358" fill="#001026" stroke="none" stroke-linecap="butt" stroke-linejoin="miter"/></g></g><g fill-rule="evenodd" stroke-width="1"><path d="M146.41701,178.34675c0.21564,-0.27336 0.7046,-0.3311 0.91609,0.00625l5.58772,9.04659c0,0 7.28206,2.40102 10.01362,4.86263c4.58322,4.0927 6.02104,8.19451 6.02104,8.19451c0,0 7.14708,-0.19557 9.9538,4.67898c2.80672,4.87455 1.99724,16.1068 -14.15741,25.12729c-16.15464,9.0205 -31.5443,8.85448 -41.47309,0.51118c-9.92882,-8.34328 -3.71341,-24.18029 -4.02498,-23.2663l-7.28224,-15.80688c-0.21146,-0.33736 0.15788,-0.76237 0.58495,-0.69839l13.47268,3.63419c0,0 3.62324,-2.90687 7.87876,-4.49632c2.51102,-1.02113 4.77442,-1.55538 7.00585,-1.87608z" fill="#195aff" stroke="#001026" stroke-linecap="butt" stroke-linejoin="miter"/><path d="M168.79966,200.91374c0,0 6.87369,-0.41121 9.68043,4.46334c2.80672,4.87455 1.48043,15.76733 -14.52051,24.6362c-20.72387,11.8293 -35.58992,2.04763 -32.60884,-9.68891c2.95116,-11.82834 16.23191,-6.9129 23.76496,-9.97631c6.46117,-2.61268 5.31128,-8.63634 13.68395,-9.43432z" fill="#ffffff" stroke="none" stroke-linecap="butt" stroke-linejoin="miter"/><path d="M143.07822,220.16006c-0.11965,-0.36727 0.15786,-0.76237 0.55504,-0.7902c1.95386,0.0744 7.39052,-0.07177 13.0191,-1.49917c5.04779,-1.33975 7.89619,-2.57235 9.18367,-3.29647c0.42917,-0.24137 0.94597,0.09808 0.9119,0.61698c-0.01875,2.74823 -1.26438,10.771 -11.0845,13.36082c-8.65434,1.80376 -11.39499,-3.80323 -12.58521,-8.39195z" fill="#ffffff" stroke="#001026" stroke-linecap="round" stroke-linejoin="round"/><path d="M186.0228,196.42004c-3.1787,4.89482 -9.75953,7.14024 -9.75953,7.14024" fill="none" stroke="#001026" stroke-linecap="round" stroke-linejoin="round"/><path d="M188.17921,207.09226c-5.63484,2.34349 -9.78396,1.76552 -9.78396,1.76552" fill="none" stroke="#001026" stroke-linecap="round" stroke-linejoin="round"/><path d="M153.97078,208.08051c1.92816,-0.62814 4.00786,-1.10258 4.30906,-0.48976c0.51057,1.25552 -0.02915,4.27503 -1.46827,4.84541c-1.59286,0.72202 -6.1969,-0.31708 -6.67548,-1.78614c-0.45074,-1.07188 1.99839,-1.97129 3.83469,-2.56951z" fill="#001026" stroke="#001026" stroke-linecap="round" stroke-linejoin="round"/><path d="M112.20498,220.16331c0,0 8.73367,-0.00151 12.87448,1.79787" fill="none" stroke="#001026" stroke-linecap="round" stroke-linejoin="round"/><path d="M126.40179,225.08501c-3.43958,2.84705 -10.56296,4.0505 -10.56296,4.0505" fill="none" stroke="#001026" stroke-linecap="round" stroke-linejoin="round"/><g><path d="M161.30541,193.80851c4.00865,3.26428 5.62596,7.91698 3.5935,10.40717c-2.03244,2.49019 -6.88411,1.93798 -10.98457,-1.29639c-4.00865,-3.26428 -5.62598,-7.91696 -3.59353,-10.40719c2.00253,-2.582 6.97595,-1.96789 10.98459,1.29638z" fill="#ffffff" stroke="#001026" stroke-linecap="round" stroke-linejoin="round"/><path d="M162.64308,199.16167c0.32902,1.00997 -0.13628,2.0756 -1.05444,2.37472c-0.91816,0.29912 -1.92188,-0.28795 -2.2509,-1.29792c-0.32902,-1.00997 0.13629,-2.0756 1.05445,-2.37472c0.91816,-0.29912 1.92188,0.28795 2.2509,1.29792" fill="#001026" stroke="none" stroke-linecap="butt" stroke-linejoin="miter"/></g><g><path d="M139.37263,203.79736c4.07055,3.14255 5.50211,8.16043 3.5914,10.71252c-2.46161,2.73156 -6.92027,2.76225 -10.99083,-0.38031c-4.16239,-3.11264 -6.05093,-8.28633 -3.8627,-11.23352c2.15834,-3.039 7.19156,-2.24124 11.26213,0.9013z" fill="#ffffff" stroke="#001026" stroke-linecap="round" stroke-linejoin="round"/><path d="M140.55656,209.30213c0.32902,1.00997 -0.13629,2.0756 -1.05445,2.37472c-0.91816,0.29912 -1.92188,-0.28795 -2.2509,-1.29792c-0.32902,-1.00997 0.13629,-2.0756 1.05445,-2.37472c0.94807,-0.2073 1.92188,0.28795 2.2509,1.29792" fill="#001026" stroke="none" stroke-linecap="butt" stroke-linejoin="miter"/></g></g></g></g></svg>