<svg version="1.1" xmlns="http://www.w3.org/2000/svg" xmlns:xlink="http://www.w3.org/1999/xlink" width="37.94988" height="40.7299" viewBox="0,0,37.94988,40.7299"><g transform="translate(-234.11535,-158.11209)"><g data-paper-data="{&quot;isPaintingLayer&quot;:true}" fill-rule="nonzero" stroke-miterlimit="10" stroke-dasharray="" stroke-dashoffset="0" style="mix-blend-mode: normal"><path d="M247.59134,194.62488c0,-0.51423 0.14424,-1.25292 0.94216,-1.41966c1.15118,-0.24149 2.46831,0.92419 2.82654,1.26716c-0.02649,0.13648 0.42146,2.89026 0.42146,3.12901c0,0.8072 -0.21572,0.83919 -0.29945,0.85245c-0.78821,0.11474 -2.88878,-2.09411 -3.85296,-3.37924c-0.01326,-0.06975 -0.03776,-0.22499 -0.03776,-0.44972v0z" fill="#ffc93e" stroke="#603813" stroke-width="0.65" stroke-linecap="butt" stroke-linejoin="miter"/><path d="M244.39956,198.48357c-0.57143,-0.61996 -0.65293,-2.30007 -0.65293,-3.01476c0,-0.30326 0.01549,-0.50496 0.01624,-0.51121l0.00102,-0.01552c0,0 -0.00178,-0.06474 -0.00178,-0.08848c0,-1.34591 1.23917,-1.81312 1.44916,-1.88335c0.71744,0.00874 1.95759,0.34821 2.25357,0.86044c0.03,0.05147 0.05799,0.11647 0.05799,0.1997c0,0.07303 -0.02174,0.1615 -0.08372,0.26825c-0.02875,0.04898 -0.53823,1.25292 -0.96919,2.1761l-0.30796,0.8537c-0.23049,0.74592 -0.59321,1.49238 -0.98795,1.49238c-0.31196,0.00049 -0.56521,-0.10999 -0.77445,-0.33724v0z" fill="#ffc93e" stroke="#603813" stroke-width="0.65" stroke-linecap="butt" stroke-linejoin="miter"/><path d="M260.5611,188.72631l-0.55718,-0.98316c-0.6102,-1.06267 -1.31517,-2.03562 -1.93686,-2.89207c-0.79921,-1.10314 -1.49464,-2.24456 -1.72487,-3.051c-0.08301,-0.29048 -0.04299,-0.5677 0.07649,-0.72095c0.01149,-0.04126 0.13199,-0.10698 0.21696,-0.1245c1.02393,-0.22123 5.26237,2.21209 6.3198,3.51274c1.54912,1.90487 2.16856,4.57692 1.82311,5.9228c-0.14175,0.54995 -0.45873,0.93968 -0.91768,1.12518c-1.17318,0.47394 -1.94485,-0.38148 -3.29977,-2.78905v0z" fill="#ffc93e" stroke="#603813" stroke-width="0.65" stroke-linecap="butt" stroke-linejoin="miter"/><path d="M243.87686,169.94823c1.50466,-0.81771 -0.04823,-3.89649 -1.55063,-6.87473c-0.82118,-1.6284 -2.28556,-4.37868 -1.80962,-4.63641c0.92069,-0.49896 5.31911,4.69165 7.10224,6.78373l1.81761,2.07037c0,0 1.29941,1.59411 2.29381,2.64556c0.01752,0.01824 0.95769,-0.12774 1.60716,-0.66748c0.52945,-0.4417 0.45944,-0.93591 0.62795,-1.97533c0.15472,-0.95494 0.32274,-2.68306 0.83519,-2.6918c0.77193,-0.01175 1.27941,3.17 1.47712,4.34865l0.10924,0.63047c0.25924,1.40187 1.61164,5.61683 1.66963,5.79555c0.0185,0.04349 0.04902,0.1 0.04902,0.1l0.01123,0.02276l0.01549,0.01899c2.08838,2.59006 3.64149,5.73055 3.64149,8.67284c0,6.23054 -5.46159,10.61645 -12.77205,10.61645c-1.3559,0 -2.68203,-0.18999 -3.9417,-0.56348l-0.06775,-0.01948c0,0 -1.97733,-0.16625 -4.50691,3.15877c-0.50744,0.66744 -0.46223,1.28966 -1.17741,1.09816c-0.23848,-0.06375 -0.41373,-0.239 -0.55669,-0.55722c-0.34199,-0.75893 -0.08953,-2.55705 0.32846,-3.70597l0.06576,-0.18049l-0.15099,-0.11948c-0.037,-0.02951 -4.13971,-3.01901 -4.55416,-7.30296c-0.36124,-3.73419 1.52513,-5.86029 2.30783,-7.02873l0.44971,-0.74894c0.56769,-1.38115 -0.50074,-3.302 -1.44366,-4.99687c-0.56295,-1.01191 -1.47165,-2.48854 -1.26641,-2.83554c0.22774,-0.38446 1.04168,0.02475 1.86361,0.41674c0.66646,0.31848 1.30767,0.76843 1.75286,0.47169c0.46298,-0.30823 0.15924,-1.08241 -0.26146,-2.15409c-0.39572,-1.00642 -1.14493,-2.59628 -0.8572,-3.25249c0.07924,-0.18049 0.21825,-0.30725 0.42496,-0.38747c0.76447,-0.29598 1.85736,0.99169 2.74206,1.99885c1.07917,1.22967 2.30308,2.62306 3.72421,1.84937v0z" fill="#ffc93e" stroke="#603813" stroke-width="0.65" stroke-linecap="round" stroke-linejoin="round"/><g stroke="none" stroke-width="0.65" stroke-linecap="butt" stroke-linejoin="miter"><path d="M245.13852,184.64761v0c0,-1.12439 0.91143,-2.03634 2.03612,-2.03683c1.12417,0 2.03558,0.91244 2.03558,2.03683c0,1.12367 -0.91119,2.03487 -2.03558,2.03487c-1.12443,0 -2.03612,-0.91119 -2.03612,-2.03487z" fill="#ffffff"/><path d="M247.44861,183.15971c0.3952,0 0.75343,0.16052 1.01267,0.41999c0.25947,0.25924 0.41995,0.61744 0.41995,1.01266c0,0.39523 -0.16048,0.75347 -0.41995,1.01267c-0.25924,0.2595 -0.61748,0.41999 -1.01267,0.41999c-0.39523,0 -0.75346,-0.16049 -1.01267,-0.41999c-0.2595,-0.25921 -0.41998,-0.61744 -0.41998,-1.01267c0,-0.39523 0.16048,-0.75342 0.41998,-1.01266c0.25921,-0.25947 0.61744,-0.41999 1.01267,-0.41999z" fill="#603813"/></g><g stroke="none" stroke-width="0.65" stroke-linecap="butt" stroke-linejoin="miter"><path d="M254.94578,184.64761v0c0,-1.12439 0.91142,-2.03634 2.03634,-2.03683c1.12417,0 2.03562,0.91244 2.03562,2.03683c0,1.12367 -0.91195,2.03487 -2.03562,2.03487c-1.12492,0 -2.03634,-0.91119 -2.03634,-2.03487z" fill="#ffffff"/><path d="M255.82298,184.59237v0c0,-0.79095 0.64095,-1.43265 1.43239,-1.43265c0.79092,0 1.43261,0.64196 1.43261,1.43265c0,0.79171 -0.6417,1.43213 -1.43261,1.43213c-0.79145,0 -1.43239,-0.64095 -1.43239,-1.43213z" fill="#603813"/></g><path d="M250.40865,193.42098c-0.23481,0.43585 -0.65572,0.70828 -1.21876,0.789c-1.37682,0.19688 -3.96441,-0.71191 -5.68811,-2.45948c-1.17717,-1.1934 -3.13159,-5.67296 -2.80013,-6.66621c0.0275,-0.08199 0.10535,-0.19506 0.14846,-0.20155c0.16481,-0.10275 0.44419,-0.11147 0.7239,0.00285c0.77657,0.31675 1.83567,1.13288 2.84355,2.04861c0.78586,0.71161 1.67355,1.51821 2.66401,2.24041l0.91405,0.662c2.2459,1.60952 3.01333,2.47115 2.41304,3.58437v0z" fill="#ffc93e" stroke="#603813" stroke-width="0.65" stroke-linecap="butt" stroke-linejoin="miter"/><path d="M253.97087,191.0549c0,0 -1.85314,0.00147 -3.15079,-1.11067" fill="none" stroke="#603813" stroke-width="0.65" stroke-linecap="round" stroke-linejoin="round"/><g stroke="none" stroke-width="1" stroke-linecap="butt" stroke-linejoin="miter"><g><path d="M263.88938,190.29698c-5.02985,0.21549 -8.60085,0.73983 -8.20839,-1.65395c0.39246,-2.39378 7.00683,-3.07404 9.91176,-3.40406c2.90493,-0.33002 6.63829,0.57467 6.46678,2.82471c-0.12462,1.20062 -6.49354,2.16148 -8.17016,2.23331z" fill="#bb7e4b"/><path d="M260.99362,185.94732c-0.75022,0.91576 -1.16661,2.05461 -1.16661,2.05461c-0.30399,-0.79599 -0.22731,-1.3742 -0.03828,-1.79907c0.39027,-0.11552 0.78587,-0.1842 1.20489,-0.25554z" fill="#f2c083"/><path d="M262.91671,187.62717c-0.36681,-0.93123 -0.18098,-1.59302 0.07832,-2.02588c0.41902,-0.07134 0.84071,-0.11924 1.21554,-0.16183c-0.84392,0.9264 -1.29386,2.18771 -1.29386,2.18771z" fill="#f2c083"/><path d="M265.83761,187.43771c-0.40621,-1.06913 -0.12933,-1.765 0.17949,-2.17975c0.35141,-0.03992 0.73156,-0.03565 1.11171,-0.03139c-0.8205,0.92374 -1.29386,2.18771 -1.2912,2.21114z" fill="#f2c083"/></g><g fill="none" font-family="sans-serif" font-weight="normal" font-size="12" text-anchor="start"/></g></g></g></svg>