<svg version="1.1" xmlns="http://www.w3.org/2000/svg" xmlns:xlink="http://www.w3.org/1999/xlink" width="30.79619" height="34.86245" viewBox="0,0,30.79619,34.86245"><defs><radialGradient cx="268.2628" cy="175.00653" r="2.42629" gradientUnits="userSpaceOnUse" id="color-1"><stop offset="0" stop-color="#ff6666"/><stop offset="1" stop-color="#ff6666" stop-opacity="0"/></radialGradient><radialGradient cx="253.90122" cy="169.89857" r="2.49981" gradientUnits="userSpaceOnUse" id="color-2"><stop offset="0" stop-color="#ff6666"/><stop offset="1" stop-color="#ff6666" stop-opacity="0"/></radialGradient></defs><g transform="translate(-250.17696,-151.00711)"><g data-paper-data="{&quot;isPaintingLayer&quot;:true}" stroke-miterlimit="10" stroke-dasharray="" stroke-dashoffset="0" style="mix-blend-mode: normal"><path d="M262.294,179.7298v0c-0.06961,0.1893 -0.13833,0.31248 -0.17111,0.36713c-1.21027,0.78389 -3.66392,1.99388 -4.29234,1.65308c-0.06642,-0.0371 -0.23823,-0.13087 0.0118,-0.81083c0.07396,-0.20111 1.30429,-2.38205 1.32425,-2.50522c0.408,-0.17794 1.87858,-0.75188 2.77349,-0.19188c0.62049,0.38762 0.51318,1.05454 0.3539,1.48771z" data-paper-data="{&quot;index&quot;:null}" fill="#ffc93e" fill-rule="nonzero" stroke="#603813" stroke-width="0.65" stroke-linecap="butt" stroke-linejoin="miter"/><path d="M263.78738,183.9689v0c-0.24665,0.12661 -0.49419,0.14123 -0.75683,0.04418c-0.33252,-0.12228 -0.40684,-0.86341 -0.36994,-1.56315l0.00502,-0.81452c-0.07707,-0.91115 -0.13331,-2.08312 -0.14235,-2.13329c-0.01914,-0.10912 -0.01005,-0.19037 0.01257,-0.25189c0.02578,-0.07011 0.06949,-0.1162 0.1107,-0.15026c0.40799,-0.33981 1.5578,-0.24161 2.16486,-0.02675c0.15513,0.1242 1.05425,0.9016 0.63734,2.03535c-0.00736,0.02 -0.02891,0.07399 -0.02891,0.07399l-0.00395,0.01339c-0.00131,0.00549 -0.05074,0.1802 -0.14467,0.43565c-0.22138,0.60203 -0.81046,1.99205 -1.48385,2.33728z" data-paper-data="{&quot;index&quot;:null}" fill="#ffc93e" fill-rule="nonzero" stroke="#603813" stroke-width="0.65" stroke-linecap="butt" stroke-linejoin="miter"/><path d="M254.38229,173.04866v0c-1.36411,2.07055 -2.10866,2.788 -3.1293,2.29009c-0.39927,-0.19487 -0.65862,-0.56369 -0.75104,-1.06496c-0.22486,-1.22666 0.49736,-3.58013 2.0038,-5.18842c1.02832,-1.09816 4.97571,-3.01087 5.87858,-2.74857c0.07497,0.02102 0.17874,0.08741 0.18644,0.12507c0.09736,0.1447 0.11579,0.39542 0.02326,0.65028c-0.25671,0.70757 -0.95095,1.68589 -1.7357,2.62341c-0.61034,0.72779 -1.30254,1.55467 -1.91553,2.46782l-0.56053,0.84529z" data-paper-data="{&quot;index&quot;:null}" fill="#ffc93e" fill-rule="nonzero" stroke="#603813" stroke-width="0.65" stroke-linecap="butt" stroke-linejoin="miter"/><path d="M273.06668,160.09361v0c0.95745,1.09194 2.42004,0.2973 3.71,-0.40425c1.05721,-0.57435 2.37669,-1.32052 2.92897,-0.8344c0.14927,0.13161 0.22711,0.28144 0.23795,0.45803c0.03911,0.6419 -1.08447,1.74906 -1.72956,2.47426c-0.68634,0.77243 -1.18201,1.33049 -0.88749,1.73354c0.2831,0.38787 0.96261,0.20746 1.62266,0.14562c0.81378,-0.0756 1.62617,-0.16818 1.69892,0.22622c0.0654,0.35587 -1.15745,1.31826 -1.94511,1.99628c-1.31928,1.13563 -2.81428,2.42273 -2.7639,3.76201l0.14684,0.77018c0.29739,1.2267 1.22783,3.60197 -0.23316,6.63562c-1.67609,3.48028 -6.05809,4.72769 -6.0984,4.74109l-0.1642,0.05387l-0.00052,0.1724c-0.00378,1.09728 -0.3481,2.69016 -0.87126,3.22353c-0.219,0.22377 -0.4209,0.31712 -0.64154,0.29694c-0.66176,-0.06022 -0.43094,-0.57035 -0.65165,-1.28976c-1.10089,-3.58444 -2.81802,-4.05688 -2.81802,-4.05688l-0.06311,-0.00458c-1.1768,-0.07557 -2.35273,-0.32631 -3.49489,-0.74631c-6.15808,-2.26445 -9.40017,-7.65076 -7.47023,-12.89915c0.91139,-2.47849 3.19246,-4.64284 5.75393,-6.17773l0.01893,-0.0112l0.01651,-0.0157c0,0 0.04321,-0.03814 0.07227,-0.06905c0.10421,-0.13259 2.54903,-3.26421 3.20164,-4.3648l0.28732,-0.49724c0.53164,-0.93161 1.94469,-3.45462 2.5913,-3.20561c0.42897,0.1661 0.0352,1.67385 -0.13027,2.52618c-0.18002,0.92777 -0.39208,1.32238 -0.08291,1.85846c0.37991,0.65583 1.12665,1.07003 1.14706,1.06009c1.16334,-0.57769 2.75171,-1.51801 2.75171,-1.51801l2.1724,-1.18099c2.15008,-1.20996 7.46298,-4.21992 8.08398,-3.51442c0.32108,0.36453 -1.76437,2.22767 -2.96051,3.34502c-2.18809,2.04339 -4.44987,4.15582 -3.43569,5.31071z" data-paper-data="{&quot;index&quot;:null}" fill="#ffc93e" fill-rule="nonzero" stroke="#603813" stroke-width="0.65" stroke-linecap="round" stroke-linejoin="round"/><g data-paper-data="{&quot;index&quot;:null}" fill-rule="nonzero" stroke="none" stroke-width="0.65" stroke-linecap="butt" stroke-linejoin="miter"><path d="M265.10521,173.16847c-0.94714,-0.34829 -1.43246,-1.3981 -1.08439,-2.34464c0.34828,-0.94715 1.39866,-1.43344 2.34562,-1.08522c0.94725,0.34879 1.43252,1.39931 1.08424,2.34645v0c-0.34807,0.94655 -1.39829,1.4317 -2.34547,1.0834z" fill="#ffffff"/><path d="M266.68857,170.78361c0.1383,0.29875 0.16253,0.65019 0.0401,0.98312c-0.12243,0.33293 -0.36858,0.58498 -0.66746,0.72295c-0.29873,0.1383 -0.6502,0.16252 -0.98313,0.0401c-0.3329,-0.12241 -0.58495,-0.36857 -0.72294,-0.66746c-0.13828,-0.29871 -0.1625,-0.65019 -0.04007,-0.98312c0.12242,-0.33292 0.36856,-0.58494 0.66743,-0.72294c0.29874,-0.13826 0.65023,-0.16252 0.98313,-0.04011c0.33293,0.12242 0.58497,0.36861 0.72295,0.66746z" fill="#603813"/></g><g data-paper-data="{&quot;index&quot;:null}" fill-rule="nonzero" stroke="none" stroke-width="0.65" stroke-linecap="butt" stroke-linejoin="miter"><path d="M256.84373,170.13054c-0.94654,-0.34806 -1.43249,-1.39811 -1.08442,-2.34465c0.34829,-0.94715 1.3987,-1.43343 2.34565,-1.08521c0.94744,0.34886 1.43271,1.39938 1.08443,2.34652v0c-0.34807,0.94655 -1.39806,1.43179 -2.34566,1.08334z" fill="#ffffff"/><path d="M256.81737,169.49164c-0.66623,-0.24499 -1.00841,-0.98323 -0.76317,-1.65014c0.24492,-0.66605 0.98431,-1.00805 1.65055,-0.76306c0.66668,0.24516 1.00783,0.98424 0.76283,1.65051v0c-0.24507,0.66646 -0.98352,1.00784 -1.65021,0.76268z" fill="#603813"/></g><path d="M261.02407,174.78685c-1.43759,0.53487 -2.99815,-0.04038 -2.99815,-0.04038" data-paper-data="{&quot;index&quot;:null}" fill="none" fill-rule="nonzero" stroke="#603813" stroke-width="0.65" stroke-linecap="round" stroke-linejoin="round"/><path d="M254.85698,176.00971c0.06214,-0.12886 0.17604,-0.20243 0.17604,-0.20243c1.27069,-0.78714 2.89422,-0.39092 4.24453,-0.05601c2.2958,0.56941 5.25384,0.95992 7.6013,0.75081c2.45923,0.01054 4.74633,0.2875 7.21944,0.12724c0.61613,-0.03993 2.41044,-0.80848 2.87899,-0.45194c0.52368,0.39849 0.26374,1.44168 0.21601,1.9683c-0.69572,2.72525 -3.54795,4.194 -6.39424,3.95965c-1.09407,-0.09008 -2.04241,-0.99413 -3.09338,-1.24686c-3.98814,-0.34325 -8.00611,-1.5261 -11.82094,-2.60025c-0.7148,-0.65752 -1.15717,-1.18997 -1.08993,-2.20097z" fill="#b8c0cc" fill-rule="nonzero" stroke="none" stroke-width="0.5" stroke-linecap="butt" stroke-linejoin="miter"/><path d="M269.75333,183.02716v0c-0.96062,-0.60477 -0.74144,-1.6169 0.30273,-3.86626l0.4219,-0.92088c0.45502,-1.00167 0.79246,-2.0239 1.09229,-2.92695c0.38317,-1.16058 0.85035,-2.26594 1.31727,-2.85635c0.16809,-0.21284 0.39022,-0.3294 0.56438,-0.32188c0.03656,-0.01397 0.14732,0.04 0.20501,0.09193c0.69759,0.62974 1.14848,4.99296 0.75565,6.44526c-0.57518,2.12663 -2.19577,3.97934 -3.35851,4.43346c-0.47558,0.18555 -0.92477,0.15855 -1.3007,-0.07833z" data-paper-data="{&quot;index&quot;:null}" fill="#ffc93e" fill-rule="nonzero" stroke="#603813" stroke-width="0.65" stroke-linecap="butt" stroke-linejoin="miter"/><g><g data-paper-data="{&quot;index&quot;:null}" fill-rule="evenodd" stroke-width="0.5"><path d="" fill="#ffab19" stroke="#001026" stroke-linecap="butt" stroke-linejoin="miter"/><path d="" fill="#ffffff" stroke="none" stroke-linecap="butt" stroke-linejoin="miter"/><path d="" fill="#ffffff" stroke="#001026" stroke-linecap="round" stroke-linejoin="round"/><path d="" fill="#001026" stroke="#001026" stroke-linecap="round" stroke-linejoin="round"/><path d="" fill="none" stroke="#001026" stroke-linecap="round" stroke-linejoin="round"/><path d="" fill="none" stroke="#001026" stroke-linecap="round" stroke-linejoin="round"/><g><path d="" fill="#ffffff" stroke="#001026" stroke-linecap="round" stroke-linejoin="round"/><path d="" fill="#001026" stroke="none" stroke-linecap="butt" stroke-linejoin="miter"/></g><g><path d="" fill="#ffffff" stroke="#001026" stroke-linecap="round" stroke-linejoin="round"/><path d="" fill="#001026" stroke="none" stroke-linecap="butt" stroke-linejoin="miter"/></g></g><path d="M267.87278,177.40127c-1.32257,-0.2154 -2.22012,-1.46219 -2.00471,-2.78476c0.2154,-1.32257 1.46219,-2.22012 2.78476,-2.00471c1.32257,0.2154 2.22012,1.46219 2.00471,2.78476c-0.2154,1.32257 -1.46219,2.22012 -2.78476,2.00471z" data-paper-data="{&quot;index&quot;:null}" fill="url(#color-1)" fill-rule="nonzero" stroke="none" stroke-width="NaN" stroke-linecap="butt" stroke-linejoin="miter"/><path d="M253.49938,172.36587c-1.36266,-0.22193 -2.28739,-1.5065 -2.06546,-2.86915c0.22193,-1.36266 1.5065,-2.28739 2.86915,-2.06546c1.36266,0.22193 2.28739,1.5065 2.06546,2.86915c-0.22193,1.36266 -1.5065,2.28739 -2.86915,2.06546z" data-paper-data="{&quot;index&quot;:null}" fill="url(#color-2)" fill-rule="nonzero" stroke="none" stroke-width="0" stroke-linecap="butt" stroke-linejoin="miter"/></g></g></g></svg>