<svg version="1.1" xmlns="http://www.w3.org/2000/svg" xmlns:xlink="http://www.w3.org/1999/xlink" width="382.45234" height="233.00154" viewBox="0,0,382.45234,233.00154"><defs><linearGradient x1="239.69595" y1="53.48968" x2="239.69595" y2="161.57963" gradientUnits="userSpaceOnUse" id="color-1"><stop offset="0" stop-color="#804219" stop-opacity="0.74902"/><stop offset="1" stop-color="#49250e" stop-opacity="0.74902"/></linearGradient><linearGradient x1="371.25464" y1="243.75152" x2="372.02606" y2="266.06827" gradientUnits="userSpaceOnUse" id="color-2"><stop offset="0" stop-color="#c2c2c2"/><stop offset="1" stop-color="#808080"/></linearGradient></defs><g transform="translate(-48.46977,-53.48968)"><g data-paper-data="{&quot;isPaintingLayer&quot;:true}" fill-rule="nonzero" stroke="none" stroke-linecap="butt" stroke-linejoin="miter" stroke-miterlimit="10" stroke-dasharray="" stroke-dashoffset="0" style="mix-blend-mode: normal"><path d="M48.66787,93.21473c-0.19809,-0.3818 -0.19809,-0.7708 -0.19809,-0.7708l0.01231,-0.66075c-0.00588,-0.05773 -0.01713,-0.21493 0.00767,-0.41175l0.00043,-0.02315c1.6746,-9.76941 8.78435,-21.21544 17.44556,-26.25127c3.05209,-1.77455 6.78827,-2.48628 10.05318,-3.83943c2.60122,0 4.85443,-1.34945 7.45204,-1.71424c4.86548,-0.68328 9.87332,-1.06618 14.76136,-1.70365c7.42758,-0.96867 15.58777,-0.00896 23.08821,-0.00896c15.53836,0 31.07681,-0.0165 46.61516,0.00229c8.90703,-0.99338 17.94445,0.35762 26.80607,-0.55937c7.63351,-0.78991 15.36682,-0.575 23.0882,-0.575c14.92389,0 29.56937,0.56604 44.43396,0.56604c10.56604,0 21.13207,0 31.69811,0c4.46792,0 9.16235,0.42687 13.6037,-0.02257c1.59958,-0.16187 3.18479,-0.53815 4.79253,-0.54347c10.87943,0 21.62095,-0.9109 32.42345,-1.693c3.7484,-0.27138 7.36922,-1.13348 11.16145,-1.13719c7.74848,0 16.4078,-1.03007 24.04122,0.30709c2.18872,0.3834 4.13319,1.10995 6.40547,1.39998c5.14319,0.65646 10.08951,0.68486 15.06924,2.34672c6.10956,2.48442 12.21992,4.22462 17.44022,8.47614c2.27189,1.85028 3.09462,4.55583 4.77015,6.77225c2.6401,3.49237 4.98758,7.69758 6.41803,11.9649c1.00801,2.63375 0.99732,6.46065 0.65756,9.28952c-0.13077,1.08881 0.27184,2.64355 -0.65906,3.22324c-2.97888,1.85498 -5.00132,23.53036 -5.00132,27.34281c0,8.68041 -0.28302,17.34189 -0.28302,26.03774c-0.01419,1.3356 -0.34318,2.65081 -0.5931,3.96291c-0.18975,0.99614 0.35881,2.47655 -0.00357,3.41416c-0.44385,1.14839 -0.77963,2.76403 -1.95374,3.13453c-1.44999,0.45756 -4.42116,-3.21917 -5.05372,-4.37355c-2.69419,-4.91679 -3.17358,-10.20289 -3.59965,-15.65436c-0.0556,-0.71141 -0.22037,-1.49134 -0.35409,-2.27038c-0.51469,1.18284 -1.08908,2.27878 -1.63308,2.45347c-1.96741,0.6318 -4.7846,-2.47234 -5.50188,-3.86817c-2.2221,-4.32419 -2.09801,-9.6482 -2.69013,-14.33537c-1.09625,-7.77227 -0.77517,-15.70794 -1.97476,-23.44844c-0.80253,1.74885 -2.24297,2.66649 -4.82409,1.39648c-1.0956,-0.53907 -2.3139,-0.99569 -3.12876,-1.90505c-0.90224,-1.00688 -0.63952,-2.65077 -1.24196,-3.8611c-1.31476,-2.64138 -3.4245,-4.79333 -5.22412,-7.11825c-0.78872,-1.01895 -1.1227,-2.3471 -1.93871,-3.34432c-0.73339,-0.89625 -1.89323,-1.39074 -2.58959,-2.31605c-0.2428,-0.32263 -0.17475,-0.87469 -0.51095,-1.09832c-0.76318,-0.50764 -1.82216,-0.30402 -2.67319,-0.64443c-2.38491,-0.38385 -4.80466,-0.81218 -7.16236,-1.09109c-2.99464,-0.35426 -5.74171,0.31002 -8.52855,-1.35641c-2.717,-1.62466 -5.47167,-4.53234 -7.84311,-6.66495c-1.19283,-1.07269 -0.83569,-1.66713 -2.35187,-2.25161c-1.26391,-0.48723 -1.73933,-0.00441 -3.02017,0.09368c-3.25491,0.24929 -6.72753,0.54772 -9.93617,0.56825c-3.82849,0.47856 -7.73781,0.10717 -11.54917,0.56164c-4.31185,0.51415 -8.46186,1.153 -12.80894,1.42053c-3.05498,0.18801 -5.96415,1.17774 -9.0076,1.41185c-3.86915,0.29762 -7.95507,0.10495 -11.80221,-0.27977c-3.76058,0.00432 -8.36476,0.69753 -12.05235,-0.01751c-4.95975,-0.96171 -9.68365,-2.38957 -14.68476,-3.10834c-5.00098,-0.71875 -9.39029,-3.09871 -14.50893,-3.09871c-15.20173,0 -30.24528,1.74211 -45.40909,1.68988c-3.93276,0.83675 -7.80172,0.52246 -11.77089,0.92321c-11.80996,1.19242 -23.75115,0.78313 -35.65021,0.78313c-14.61706,0 -29.01628,-1.13208 -43.58491,-1.13208c-6.50847,0 -13.3946,-0.16792 -19.73276,1.37086c-1.73183,0.42046 -2.9817,1.56678 -4.62911,2.20635c-4.46357,1.73287 -8.53794,2.31188 -11.14433,6.73227c-3.79447,6.31418 -2.14311,14.65876 -7.59473,20.11079c-2.42614,2.42632 -4.64749,3.01215 -7.65994,1.40463c-0.63174,-0.33711 -1.49671,-0.38959 -1.91706,-0.96928c-1.84794,-2.54847 0.49083,-6.29768 -1.14588,-8.79099c-0.28969,-1.23337 -1.72275,1.453 -1.91952,2.08791c-0.94138,3.03764 -2.36387,6.12058 -2.77116,9.36683c-0.73602,5.86625 0.15393,12.12335 -0.27363,18.02888c-0.02927,0.40432 0.07939,4.07913 -0.10907,4.41257c-0.59809,1.05822 -1.73972,1.69807 -2.60959,2.54711c-1.92581,-0.18197 -3.69662,0.02319 -5.21425,-1.49444c-1.91136,-1.91136 -2.1318,-6.48574 -2.13746,-8.98519c-0.01795,-7.92898 0.83186,-16.49393 -0.08492,-24.41788z" fill="url(#color-1)" stroke-width="0.5"/><path d="M413.60515,265.04188l15.51353,-46.17235l0.4732,-5.72334l-23.43354,67.05235z" fill="#542c11" stroke-width="0"/><path d="M326.96515,261.32188l23.43353,-67.05235l79.1932,18.87666l-23.43353,67.05235z" fill="#804219" stroke-width="0"/><path d="M314.73093,286.49121l14.16927,-39.14815l87.62237,13.03531l-9.0602,25.92471z" fill="#ed2f2f" stroke-width="0"/><path d="M322.93375,253.4243l0.03857,-0.18059l-0.00638,-0.18455l0.07467,-0.34961l0.02587,-0.05282l0.00248,-0.05876l0.3791,-1.28352l0.29681,-1.1935l0.09264,-0.17421l0.05089,-0.19063l0.24498,-0.44225l0.1723,-0.18464l0.02228,-0.10647l0.18449,-0.11511l0.14836,-0.15899l0.10877,-0.00144l0.21426,-0.13369l0.60058,-0.19427l0.20874,-0.01419l0.2011,-0.05773l0.43853,-0.01516l0.01703,-0.01565l1.02187,-0.55586l0.03381,-0.00875l0.02676,-0.02244l1.5358,-0.74714l0.04466,-0.00942l0.03665,-0.02719l1.36848,-0.56785l0.26527,-0.03964l0.2578,-0.074l1.64642,-0.05691l0.21407,0.04572l0.21888,0.00261l0.79373,0.20852l0.19037,-0.13482l0.06337,-0.02467l0.03288,-0.0213l0.0136,0.00321l1.60225,-0.62372l0.097,-0.01231l0.08637,-0.04583l1.67907,-0.41605l0.09542,0.0002l0.08922,-0.03385l2.97925,-0.35227l0.13506,0.01729l0.13389,-0.02479l2.69524,0.16711l0.20347,0.06448l0.21235,0.02152l0.87852,0.31666l0.64198,0.43071l0.01021,0.05834l0.05452,0.02314l0.09747,0.25686l2.45823,-0.98645l0.23133,-0.03181l0.222,-0.0724l4.8466,-0.34105l0.13022,0.02299l0.13092,-0.01857l3.74407,0.39112l0.26979,0.09819l0.27862,0.06929l2.29792,1.22192l0.01255,0.01132l0.03137,-0.00046l0.25775,0.26113l0.2725,0.24569l0.00095,0.03135l0.01187,0.01203l0.25096,0.42452l0.22652,-0.06427l0.2123,-0.103l1.98105,-0.41551l0.13053,0.00499l0.12556,-0.03604l1.81972,-0.0629l0.2008,0.04289l0.20532,-0.00134l2.15848,0.52468l0.02165,-0.00672l0.34374,0.19041l0.34793,0.18266l0.00628,0.02178l0.42259,0.39435l0.14676,-0.08618l0.0005,-0.00123l0.00488,-0.00193l0.15154,-0.08899l0.28561,-0.08399l0.27682,-0.10953l0.17422,-0.0231l0.00504,-0.00148l0.00115,0.00066l3.3604,-0.4455l0.11123,0.01264l0.10901,-0.02548l1.73606,0.02675l0.16959,0.04518l0.1755,0.00053l2.71321,0.68703l0.00979,0.00526l0.02766,-0.00738l0.31692,0.1925l0.32665,0.17548l0.00767,0.02758l0.0095,0.00577l0.14074,0.14228l0.27415,-0.14387l0.25915,-0.06295l0.24848,-0.09683l5.6145,-0.71462l0.21247,0.02527l0.21316,-0.01856l3.57675,0.57042l0.23097,0.09851l0.24339,0.06177l1.06081,0.57063l0.09785,0.08907l0.07786,0.00734l0.18076,0.22809l0.21521,0.19592l0.002,0.07818l0.08218,0.1037l0.24189,0.53425l6.14835,-2.3633l0.01465,-0.01805l0.379,-0.0312l0.37745,-0.04627l0.01801,0.0147l2.95633,0.48572l0.27165,0.11737l0.11409,-0.01184l0.14701,0.12464l0.17693,0.07644l0.04001,0.1075l0.22571,0.19138l0.41643,0.58017l2.5194,-0.22009l0.17321,0.02757l0.17452,-0.01745l3.83671,0.56143l0.24926,0.10254l0.26041,0.06952l0.84673,0.46904l1.4363,0.11562l0.13185,0.04447l0.13913,0.00264l1.07484,0.29048l0.01943,-0.00603l0.03975,0.02202l0.00446,0.0012l0.31576,0.17617l0.31629,0.17521l0.00337,0.00315l0.03969,0.02214l0.00514,0.01968l0.75864,0.70795l0.02197,0.0339l0.03426,0.0214l0.80983,0.83958l0.11394,0.1979l0.09226,0.04857l0.06393,0.22271l0.11561,0.2008l-0.01579,0.05405l0.07656,0.00915l0.16582,0.06317l0.00441,0.00094l0.0006,0.00096l1.47026,0.56008l0.02225,-0.00397l0.31815,0.23208l0.32301,0.22526l0.00349,0.02233l0.61345,0.73485l0.05348,0.11053l0.08626,0.08739l0.48959,0.82818l0.01177,0.00538l0.0123,0.03533l0.03921,0.06633l0.09409,0.31656l0.10858,0.31189l0.00693,0.07674l0.01066,0.03586l-0.0064,0.01124l0.11728,1.29882l0.00725,0.0085l-0.00343,0.03381l0.00829,0.0918l-0.05008,0.32065l-0.03271,0.32288l-0.03126,0.08671l-0.00524,0.03357l-0.00916,0.00639l-0.23085,0.64046l0.00354,0.01344l-0.02039,0.0333l-0.0233,0.06463l-0.18582,0.27696l-0.17413,0.28445l-0.04901,0.04815l-0.02175,0.03242l-0.01369,0.0024l-0.53563,0.52618l0.0104,0.30095l-0.13132,0.61482l0.00684,0.06593l-0.02797,0.03299l-0.00903,0.04229l-0.05638,0.03485l-0.40658,0.47952l-0.76191,0.54688l-0.0561,0.02225l-0.02368,0.04497l-0.32477,0.09322l-0.31408,0.12457l-0.04622,-0.02114l-0.05801,0.01665l-1.11534,0.03855l-0.01369,0.00982l-0.04235,-0.00789l-0.04177,0.00144l-0.33706,-0.07199l-0.33883,-0.0631l-0.03801,-0.01739l-0.04213,-0.009l-0.00804,-0.01301l-0.10845,0.03113l-0.51992,0.01797l-0.2894,-0.06181l-0.10955,0.03398l-0.1686,-0.09339l-0.18849,-0.04026l-0.06031,-0.09756l-0.19846,-0.10994l-0.82263,0.48631l-0.0101,0.01919l-0.38683,0.11104l-0.38577,0.11466l-0.01884,-0.01073l-0.99148,0.03427l-0.50402,-0.10765l-0.09951,0.01595l-0.0685,-0.05183l-0.084,-0.01794l-0.05299,-0.08572l-0.41099,-0.31099l-0.0355,-0.04407l-0.15192,0.04361l-1.78509,0.0617l-0.08421,0.07739l-0.00256,0.01169l-0.03036,0.01856l-0.0629,0.0578l-0.2873,0.15628l-0.27904,0.17058l-0.08151,0.02555l-0.03126,0.017l-0.0114,-0.00363l-2.36482,0.74117l-0.20215,0.01189l-0.19464,0.05587l-1.12649,0.03894l-0.06782,-0.01449l-0.06812,0.01302l-0.95618,-0.0537l-0.24426,-0.07585l-0.25278,-0.03895l-1.14447,-0.48098l-0.06601,-0.04944l-0.07968,-0.02127l-0.44225,-0.24498l-0.19593,-0.18284l-0.10857,-0.02409l-0.00362,-0.00596l-0.17096,0.07886l-2.24101,0.42449l-0.11583,-0.0067l-0.11152,0.03201l-1.38646,0.04793l-0.19593,-0.04185l-0.20033,0.00266l-0.92075,-0.21724l-0.16508,0.04739l-2.25299,0.07788l-0.06782,-0.01449l-0.06812,0.01302l-0.95618,-0.0537l-0.08511,-0.02643l-0.08889,0.00641l-1.6584,-0.2897l-0.09573,-0.04251l-0.06632,0.01699l-0.2623,-0.16293l-0.11672,-0.05184l-0.34296,0.03834l-0.05829,-0.00784l-0.05653,0.01623l-0.95319,0.03295l-0.21018,-0.04489l-0.21492,-0.0014l-1.48809,-0.38235l-0.13822,-0.07488l-0.1536,-0.03345l-0.41241,-0.20401l-0.47312,0.21422l-0.28674,0.05223l-0.28014,0.08041l-0.86653,0.02995l-0.06225,-0.0133l-0.06243,0.01242l-2.08567,-0.10142l-0.20431,-0.06176l-0.21262,-0.01868l-1.14147,-0.39433l-0.20558,-0.13398l-0.22454,-0.09898l-0.33056,-0.25664l-0.49924,0.15l-0.19356,0.00908l-0.18625,0.05346l-0.60657,0.02097l-0.03754,-0.00802l-0.03738,0.00874l-1.57254,-0.02423l-0.00447,0.00321l-0.01918,-0.00357l-0.13988,-0.00216l-0.29789,-0.07937l-0.30307,-0.05644l-0.12721,-0.0582l-0.01885,-0.00502l-0.00265,-0.00482l-0.38019,-0.17395l-0.2312,-0.18471l-0.11318,-0.0186l-0.10903,-0.15893l-0.0226,-0.01805l-0.16722,0.0176l-1.48209,-0.20904l-0.12238,-0.04961l-0.13174,-0.00914l-0.28149,-0.09148l-0.08986,0.07332l-0.59759,0.28093l-0.19882,0.03916l-0.18544,0.08172l-1.89739,0.32586l-0.10289,-0.00772l-0.09918,0.02847l-1.12649,0.03894l-0.19437,-0.04151l-0.09071,0.03598l-0.07752,-0.03547l-0.35165,0.05309l-0.00222,-0.00021l-0.04497,0.00672l-0.01624,-0.01256l-1.93459,-0.18463l-0.59475,-0.05355l-0.0148,0.00805l-0.04105,-0.01308l-0.04163,-0.00375l-0.32552,-0.11324l-0.32839,-0.10464l-0.03556,-0.02197l-0.04069,-0.01416l-0.00701,-0.01532l-1.24649,-0.77016l-0.06772,-0.06951l-0.37645,0.0635l-0.10064,-0.00785l-0.09703,0.02785l-1.38646,0.04793l-0.09663,-0.02064l-0.0977,0.01475l-2.00202,-0.19107l-0.12076,-0.04273l-0.12807,-0.00243l-0.29199,-0.07891l-1.07747,-0.0759l-0.21408,-0.06983l-0.22342,-0.02816l-1.23112,-0.47799l-0.00773,-0.00547l-0.10952,0.04343l-0.01626,0.00217l-0.01353,0.00928l-1.28483,0.4782l-0.23963,0.02679l-0.23177,0.06653l-3.46614,0.11981l-0.13734,-0.02933l-0.13982,0.01321l-1.39544,-0.21204l-0.15302,-0.06394l-0.16454,-0.02074l-1.23112,-0.47799l-0.11332,-0.0801l-0.13222,-0.04213l-0.31764,-0.19626l-1.333,0.23104l-0.17809,-0.01309l-0.17569,0.03194l-0.86953,-0.0567l-0.25905,-0.08301l-0.12515,-0.02331l-0.38903,0.04897l-2.09394,0.7079l-0.21818,0.01772l-0.2104,0.06039l-3.46614,0.11981l-0.23581,-0.05037l-0.24091,-0.01018l-1.05182,-0.31067l-0.24007,-0.14136l-0.25493,-0.11238l-0.18935,-0.14701l-0.68544,0.07662l-1.84649,0.55048l-0.06881,0.00308l-0.06218,0.02963l-1.55078,0.31388l-0.12524,-0.00567l-0.1205,0.03459l-0.9965,0.03445l-0.24918,0.23372l-0.00654,0.02213l-0.34326,0.17737l-0.33751,0.18808l-0.02206,-0.00678l-0.84454,0.19948l-0.04925,-0.00064l-0.03505,0.02987l-0.34349,-0.0348l-0.34522,-0.0045l-0.03143,-0.03366l-0.04901,-0.00497l-0.43926,-0.15833l-0.01279,-0.00858l-0.03028,0.00485l-0.29339,-0.222l-0.30553,-0.20498l-0.00528,-0.03021l-0.01228,-0.00929l-0.17835,-0.22143l-0.00815,-0.00222l-0.01324,-0.02433l-0.0722,-0.08965l-0.13278,-0.28719l-0.15119,-0.27794l-0.02884,-0.11144l-0.01162,-0.02514l0.00308,-0.00786l-0.03379,-0.13058l-0.06975,-0.02816l-0.02259,-0.00482l-0.00354,-0.00572l-0.64561,-0.26062l-0.62529,-0.45461l-0.02298,-0.16856l-0.14274,-0.09255l-0.14515,-0.75933l0.0537,-0.95618l0.05172,-0.16655l0.00736,-0.17424l0.233,-0.78887l0.09542,-0.16205l0.0541,-0.18011l0.51266,-0.86151z" fill="url(#color-2)" stroke-width="0.5"/></g></g></svg>