<svg version="1.1" xmlns="http://www.w3.org/2000/svg" xmlns:xlink="http://www.w3.org/1999/xlink" width="712.11121" height="516.27709" viewBox="0,0,712.11121,516.27709"><defs><radialGradient cx="587.20925" cy="329.13255" r="4.90196" gradientUnits="userSpaceOnUse" id="color-1"><stop offset="0" stop-color="#ffffff" stop-opacity="0.74902"/><stop offset="1" stop-color="#ffffff" stop-opacity="0"/></radialGradient><radialGradient cx="205.51045" cy="276.45678" r="4.90196" gradientUnits="userSpaceOnUse" id="color-2"><stop offset="0" stop-color="#ffffff" stop-opacity="0.74902"/><stop offset="1" stop-color="#ffffff" stop-opacity="0"/></radialGradient><radialGradient cx="362.01034" cy="393.92379" r="4.90196" gradientUnits="userSpaceOnUse" id="color-3"><stop offset="0" stop-color="#ffffff" stop-opacity="0.74902"/><stop offset="1" stop-color="#ffffff" stop-opacity="0"/></radialGradient><radialGradient cx="549.75518" cy="310.10037" r="4.90196" gradientUnits="userSpaceOnUse" id="color-4"><stop offset="0" stop-color="#ffffff" stop-opacity="0.74902"/><stop offset="1" stop-color="#ffffff" stop-opacity="0"/></radialGradient><radialGradient cx="340.77996" cy="305.1984" r="4.90197" gradientUnits="userSpaceOnUse" id="color-5"><stop offset="0" stop-color="#ffffff" stop-opacity="0.74902"/><stop offset="1" stop-color="#ffffff" stop-opacity="0"/></radialGradient><radialGradient cx="260.09151" cy="431.45342" r="4.90197" gradientUnits="userSpaceOnUse" id="color-6"><stop offset="0" stop-color="#ffffff" stop-opacity="0.74902"/><stop offset="1" stop-color="#ffffff" stop-opacity="0"/></radialGradient><radialGradient cx="433.91495" cy="395.74706" r="4.90197" gradientUnits="userSpaceOnUse" id="color-7"><stop offset="0" stop-color="#ffffff" stop-opacity="0.74902"/><stop offset="1" stop-color="#ffffff" stop-opacity="0"/></radialGradient><radialGradient cx="486.24431" cy="195.2713" r="4.90198" gradientUnits="userSpaceOnUse" id="color-8"><stop offset="0" stop-color="#ffffff" stop-opacity="0.74902"/><stop offset="1" stop-color="#ffffff" stop-opacity="0"/></radialGradient><radialGradient cx="418.63022" cy="267.37464" r="4.9025" gradientUnits="userSpaceOnUse" id="color-9"><stop offset="0" stop-color="#ffffff" stop-opacity="0.74902"/><stop offset="1" stop-color="#ffffff" stop-opacity="0"/></radialGradient><radialGradient cx="254.2547" cy="216.5995" r="4.9025" gradientUnits="userSpaceOnUse" id="color-10"><stop offset="0" stop-color="#ffffff" stop-opacity="0.74902"/><stop offset="1" stop-color="#ffffff" stop-opacity="0"/></radialGradient><radialGradient cx="321.68876" cy="367.28392" r="4.9025" gradientUnits="userSpaceOnUse" id="color-11"><stop offset="0" stop-color="#ffffff" stop-opacity="0.74902"/><stop offset="1" stop-color="#ffffff" stop-opacity="0"/></radialGradient><radialGradient cx="524.58178" cy="400.58415" r="4.9025" gradientUnits="userSpaceOnUse" id="color-12"><stop offset="0" stop-color="#ffffff" stop-opacity="0.74902"/><stop offset="1" stop-color="#ffffff" stop-opacity="0"/></radialGradient><radialGradient cx="365.02052" cy="256.69478" r="4.9031" gradientUnits="userSpaceOnUse" id="color-13"><stop offset="0" stop-color="#ffffff" stop-opacity="0.74902"/><stop offset="1" stop-color="#ffffff" stop-opacity="0"/></radialGradient><radialGradient cx="215.93417" cy="342.54752" r="4.9031" gradientUnits="userSpaceOnUse" id="color-14"><stop offset="0" stop-color="#ffffff" stop-opacity="0.74902"/><stop offset="1" stop-color="#ffffff" stop-opacity="0"/></radialGradient><radialGradient cx="429.01299" cy="342.54753" r="4.9031" gradientUnits="userSpaceOnUse" id="color-15"><stop offset="0" stop-color="#ffffff" stop-opacity="0.74902"/><stop offset="1" stop-color="#ffffff" stop-opacity="0"/></radialGradient><radialGradient cx="534.72601" cy="269.75432" r="4.9031" gradientUnits="userSpaceOnUse" id="color-16"><stop offset="0" stop-color="#ffffff" stop-opacity="0.74902"/><stop offset="1" stop-color="#ffffff" stop-opacity="0"/></radialGradient><radialGradient cx="335.87798" cy="183.49246" r="4.90197" gradientUnits="userSpaceOnUse" id="color-17"><stop offset="0" stop-color="#ffffff" stop-opacity="0.74902"/><stop offset="1" stop-color="#ffffff" stop-opacity="0"/></radialGradient><radialGradient cx="75.90655" cy="242.65122" r="4.90196" gradientUnits="userSpaceOnUse" id="color-18"><stop offset="0" stop-color="#ffffff" stop-opacity="0.74902"/><stop offset="1" stop-color="#ffffff" stop-opacity="0"/></radialGradient><radialGradient cx="4.90201" cy="390.84505" r="4.90202" gradientUnits="userSpaceOnUse" id="color-19"><stop offset="0" stop-color="#ffffff" stop-opacity="0.74902"/><stop offset="1" stop-color="#ffffff" stop-opacity="0"/></radialGradient><radialGradient cx="152.69944" cy="234.79313" r="4.90293" gradientUnits="userSpaceOnUse" id="color-20"><stop offset="0" stop-color="#ffffff" stop-opacity="0.74902"/><stop offset="1" stop-color="#ffffff" stop-opacity="0"/></radialGradient><radialGradient cx="36.54402" cy="296.75512" r="4.90267" gradientUnits="userSpaceOnUse" id="color-21"><stop offset="0" stop-color="#ffffff" stop-opacity="0.74902"/><stop offset="1" stop-color="#ffffff" stop-opacity="0"/></radialGradient><radialGradient cx="134.08827" cy="380.60411" r="4.90196" gradientUnits="userSpaceOnUse" id="color-22"><stop offset="0" stop-color="#ffffff" stop-opacity="0.74902"/><stop offset="1" stop-color="#ffffff" stop-opacity="0"/></radialGradient><radialGradient cx="129.1863" cy="309.30542" r="4.90196" gradientUnits="userSpaceOnUse" id="color-23"><stop offset="0" stop-color="#ffffff" stop-opacity="0.74902"/><stop offset="1" stop-color="#ffffff" stop-opacity="0"/></radialGradient><radialGradient cx="93.76667" cy="353.96425" r="4.9025" gradientUnits="userSpaceOnUse" id="color-24"><stop offset="0" stop-color="#ffffff" stop-opacity="0.74902"/><stop offset="1" stop-color="#ffffff" stop-opacity="0"/></radialGradient><radialGradient cx="360.85691" cy="147.88535" r="4.90196" gradientUnits="userSpaceOnUse" id="color-25"><stop offset="0" stop-color="#ffffff" stop-opacity="0.74902"/><stop offset="1" stop-color="#ffffff" stop-opacity="0"/></radialGradient><radialGradient cx="225.58741" cy="176.62697" r="4.90197" gradientUnits="userSpaceOnUse" id="color-26"><stop offset="0" stop-color="#ffffff" stop-opacity="0.74902"/><stop offset="1" stop-color="#ffffff" stop-opacity="0"/></radialGradient><radialGradient cx="80.12305" cy="66.69987" r="4.90198" gradientUnits="userSpaceOnUse" id="color-27"><stop offset="0" stop-color="#ffffff" stop-opacity="0.74902"/><stop offset="1" stop-color="#ffffff" stop-opacity="0"/></radialGradient><radialGradient cx="147.73714" cy="138.80321" r="4.9025" gradientUnits="userSpaceOnUse" id="color-28"><stop offset="0" stop-color="#ffffff" stop-opacity="0.74902"/><stop offset="1" stop-color="#ffffff" stop-opacity="0"/></radialGradient><radialGradient cx="312.11266" cy="88.02807" r="4.9025" gradientUnits="userSpaceOnUse" id="color-29"><stop offset="0" stop-color="#ffffff" stop-opacity="0.74902"/><stop offset="1" stop-color="#ffffff" stop-opacity="0"/></radialGradient><radialGradient cx="201.34684" cy="128.12335" r="4.9031" gradientUnits="userSpaceOnUse" id="color-30"><stop offset="0" stop-color="#ffffff" stop-opacity="0.74902"/><stop offset="1" stop-color="#ffffff" stop-opacity="0"/></radialGradient><radialGradient cx="31.64135" cy="141.18289" r="4.9031" gradientUnits="userSpaceOnUse" id="color-31"><stop offset="0" stop-color="#ffffff" stop-opacity="0.74902"/><stop offset="1" stop-color="#ffffff" stop-opacity="0"/></radialGradient><radialGradient cx="230.48939" cy="54.92103" r="4.90197" gradientUnits="userSpaceOnUse" id="color-32"><stop offset="0" stop-color="#ffffff" stop-opacity="0.74902"/><stop offset="1" stop-color="#ffffff" stop-opacity="0"/></radialGradient><radialGradient cx="490.46081" cy="114.0798" r="4.90196" gradientUnits="userSpaceOnUse" id="color-33"><stop offset="0" stop-color="#ffffff" stop-opacity="0.74902"/><stop offset="1" stop-color="#ffffff" stop-opacity="0"/></radialGradient><radialGradient cx="413.66793" cy="106.2217" r="4.90293" gradientUnits="userSpaceOnUse" id="color-34"><stop offset="0" stop-color="#ffffff" stop-opacity="0.74902"/><stop offset="1" stop-color="#ffffff" stop-opacity="0"/></radialGradient><radialGradient cx="529.82333" cy="168.18369" r="4.90267" gradientUnits="userSpaceOnUse" id="color-35"><stop offset="0" stop-color="#ffffff" stop-opacity="0.74902"/><stop offset="1" stop-color="#ffffff" stop-opacity="0"/></radialGradient><radialGradient cx="-38.77389" cy="188.8408" r="4.90196" gradientUnits="userSpaceOnUse" id="color-36"><stop offset="0" stop-color="#ffffff" stop-opacity="0.74902"/><stop offset="1" stop-color="#ffffff" stop-opacity="0"/></radialGradient><radialGradient cx="9.97036" cy="248.69808" r="4.9025" gradientUnits="userSpaceOnUse" id="color-37"><stop offset="0" stop-color="#ffffff" stop-opacity="0.74902"/><stop offset="1" stop-color="#ffffff" stop-opacity="0"/></radialGradient><radialGradient cx="-28.35017" cy="122.75006" r="4.9031" gradientUnits="userSpaceOnUse" id="color-38"><stop offset="0" stop-color="#ffffff" stop-opacity="0.74902"/><stop offset="1" stop-color="#ffffff" stop-opacity="0"/></radialGradient><radialGradient cx="-91.5849" cy="230.50446" r="4.90293" gradientUnits="userSpaceOnUse" id="color-39"><stop offset="0" stop-color="#ffffff" stop-opacity="0.74902"/><stop offset="1" stop-color="#ffffff" stop-opacity="0"/></radialGradient><radialGradient cx="-110.19607" cy="84.69348" r="4.90196" gradientUnits="userSpaceOnUse" id="color-40"><stop offset="0" stop-color="#ffffff" stop-opacity="0.74902"/><stop offset="1" stop-color="#ffffff" stop-opacity="0"/></radialGradient><radialGradient cx="-115.09804" cy="155.99217" r="4.90196" gradientUnits="userSpaceOnUse" id="color-41"><stop offset="0" stop-color="#ffffff" stop-opacity="0.74902"/><stop offset="1" stop-color="#ffffff" stop-opacity="0"/></radialGradient><radialGradient cx="-18.69693" cy="288.67062" r="4.90197" gradientUnits="userSpaceOnUse" id="color-42"><stop offset="0" stop-color="#ffffff" stop-opacity="0.74902"/><stop offset="1" stop-color="#ffffff" stop-opacity="0"/></radialGradient><radialGradient cx="-96.5472" cy="326.49438" r="4.9025" gradientUnits="userSpaceOnUse" id="color-43"><stop offset="0" stop-color="#ffffff" stop-opacity="0.74902"/><stop offset="1" stop-color="#ffffff" stop-opacity="0"/></radialGradient><radialGradient cx="-42.9375" cy="337.17424" r="4.9031" gradientUnits="userSpaceOnUse" id="color-44"><stop offset="0" stop-color="#ffffff" stop-opacity="0.74902"/><stop offset="1" stop-color="#ffffff" stop-opacity="0"/></radialGradient><radialGradient cx="-13.79496" cy="410.37656" r="4.90197" gradientUnits="userSpaceOnUse" id="color-45"><stop offset="0" stop-color="#ffffff" stop-opacity="0.74902"/><stop offset="1" stop-color="#ffffff" stop-opacity="0"/></radialGradient><radialGradient cx="285.21097" cy="17.94459" r="4.90196" gradientUnits="userSpaceOnUse" id="color-46"><stop offset="0" stop-color="#ffffff" stop-opacity="0.74902"/><stop offset="1" stop-color="#ffffff" stop-opacity="0"/></radialGradient><radialGradient cx="-59.03376" cy="51.58818" r="4.90196" gradientUnits="userSpaceOnUse" id="color-47"><stop offset="0" stop-color="#ffffff" stop-opacity="0.74902"/><stop offset="1" stop-color="#ffffff" stop-opacity="0"/></radialGradient><radialGradient cx="149.94147" cy="46.68621" r="4.90197" gradientUnits="userSpaceOnUse" id="color-48"><stop offset="0" stop-color="#ffffff" stop-opacity="0.74902"/><stop offset="1" stop-color="#ffffff" stop-opacity="0"/></radialGradient><radialGradient cx="4.47711" cy="-63.24089" r="4.90198" gradientUnits="userSpaceOnUse" id="color-49"><stop offset="0" stop-color="#ffffff" stop-opacity="0.74902"/><stop offset="1" stop-color="#ffffff" stop-opacity="0"/></radialGradient><radialGradient cx="72.0912" cy="8.86245" r="4.9025" gradientUnits="userSpaceOnUse" id="color-50"><stop offset="0" stop-color="#ffffff" stop-opacity="0.74902"/><stop offset="1" stop-color="#ffffff" stop-opacity="0"/></radialGradient><radialGradient cx="236.46672" cy="-41.91269" r="4.9025" gradientUnits="userSpaceOnUse" id="color-51"><stop offset="0" stop-color="#ffffff" stop-opacity="0.74902"/><stop offset="1" stop-color="#ffffff" stop-opacity="0"/></radialGradient><radialGradient cx="125.7009" cy="-1.81741" r="4.9031" gradientUnits="userSpaceOnUse" id="color-52"><stop offset="0" stop-color="#ffffff" stop-opacity="0.74902"/><stop offset="1" stop-color="#ffffff" stop-opacity="0"/></radialGradient><radialGradient cx="-44.00459" cy="11.24213" r="4.9031" gradientUnits="userSpaceOnUse" id="color-53"><stop offset="0" stop-color="#ffffff" stop-opacity="0.74902"/><stop offset="1" stop-color="#ffffff" stop-opacity="0"/></radialGradient><radialGradient cx="154.84345" cy="-75.01973" r="4.90197" gradientUnits="userSpaceOnUse" id="color-54"><stop offset="0" stop-color="#ffffff" stop-opacity="0.74902"/><stop offset="1" stop-color="#ffffff" stop-opacity="0"/></radialGradient><radialGradient cx="414.81487" cy="-15.86097" r="4.90196" gradientUnits="userSpaceOnUse" id="color-55"><stop offset="0" stop-color="#ffffff" stop-opacity="0.74902"/><stop offset="1" stop-color="#ffffff" stop-opacity="0"/></radialGradient><radialGradient cx="338.02199" cy="-23.71906" r="4.90293" gradientUnits="userSpaceOnUse" id="color-56"><stop offset="0" stop-color="#ffffff" stop-opacity="0.74902"/><stop offset="1" stop-color="#ffffff" stop-opacity="0"/></radialGradient><radialGradient cx="454.1774" cy="38.24293" r="4.90267" gradientUnits="userSpaceOnUse" id="color-57"><stop offset="0" stop-color="#ffffff" stop-opacity="0.74902"/><stop offset="1" stop-color="#ffffff" stop-opacity="0"/></radialGradient><radialGradient cx="361.53513" cy="50.79323" r="4.90195" gradientUnits="userSpaceOnUse" id="color-58"><stop offset="0" stop-color="#ffffff" stop-opacity="0.74902"/><stop offset="1" stop-color="#ffffff" stop-opacity="0"/></radialGradient><radialGradient cx="529.49531" cy="-69.67138" r="4.90196" gradientUnits="userSpaceOnUse" id="color-59"><stop offset="0" stop-color="#ffffff" stop-opacity="0.74902"/><stop offset="1" stop-color="#ffffff" stop-opacity="0"/></radialGradient><radialGradient cx="480.75106" cy="-9.8141" r="4.9025" gradientUnits="userSpaceOnUse" id="color-60"><stop offset="0" stop-color="#ffffff" stop-opacity="0.74902"/><stop offset="1" stop-color="#ffffff" stop-opacity="0"/></radialGradient><radialGradient cx="582.30632" cy="-28.00772" r="4.90293" gradientUnits="userSpaceOnUse" id="color-61"><stop offset="0" stop-color="#ffffff" stop-opacity="0.74902"/><stop offset="1" stop-color="#ffffff" stop-opacity="0"/></radialGradient><radialGradient cx="509.41836" cy="30.15844" r="4.90197" gradientUnits="userSpaceOnUse" id="color-62"><stop offset="0" stop-color="#ffffff" stop-opacity="0.74902"/><stop offset="1" stop-color="#ffffff" stop-opacity="0"/></radialGradient></defs><g transform="translate(120,79.9217)"><g data-paper-data="{&quot;isPaintingLayer&quot;:true}" fill-rule="nonzero" stroke="none" stroke-width="0" stroke-linecap="butt" stroke-linejoin="miter" stroke-miterlimit="10" stroke-dasharray="" stroke-dashoffset="0" style="mix-blend-mode: normal"><path d="M582.30729,329.13255c0,-2.70728 2.19468,-4.90196 4.90196,-4.90196c2.70728,0 4.90196,2.19468 4.90196,4.90196c0,2.70728 -2.19468,4.90196 -4.90196,4.90196c-2.70728,0 -4.90196,-2.19468 -4.90196,-4.90196z" fill="url(#color-1)"/><path d="M200.60849,276.45678c0,-2.70728 2.19468,-4.90196 4.90196,-4.90196c2.70728,0 4.90196,2.19468 4.90196,4.90196c0,2.70728 -2.19468,4.90196 -4.90196,4.90196c-2.70728,0 -4.90196,-2.19468 -4.90196,-4.90196z" fill="url(#color-2)"/><path d="M357.10838,393.92379c0,-2.70728 2.19468,-4.90196 4.90196,-4.90196c2.70728,0 4.90196,2.19468 4.90196,4.90196c0,2.70728 -2.19468,4.90196 -4.90196,4.90196c-2.70728,0 -4.90196,-2.19468 -4.90196,-4.90196z" fill="url(#color-3)"/><path d="M544.85322,310.10037c0,-2.70728 2.19468,-4.90196 4.90196,-4.90196c2.70728,0 4.90196,2.19468 4.90196,4.90196c0,2.70728 -2.19468,4.90196 -4.90196,4.90196c-2.70728,0 -4.90196,-2.19468 -4.90196,-4.90196z" fill="url(#color-4)"/><path d="M337.4432,308.78938c-1.98325,-1.84284 -2.09707,-4.9445 -0.25423,-6.92774c1.84284,-1.98325 4.9445,-2.09707 6.92774,-0.25423c1.98325,1.84284 2.09707,4.9445 0.25423,6.92775c-1.84284,1.98325 -4.9445,2.09706 -6.92775,0.25423z" fill="url(#color-5)"/><path d="M256.75475,435.0444c-1.98325,-1.84284 -2.09707,-4.9445 -0.25423,-6.92774c1.84284,-1.98325 4.9445,-2.09707 6.92774,-0.25423c1.98325,1.84284 2.09707,4.9445 0.25423,6.92774c-1.84284,1.98325 -4.9445,2.09707 -6.92774,0.25423z" fill="url(#color-6)"/><path d="M430.57819,399.33804c-1.98325,-1.84284 -2.09707,-4.9445 -0.25423,-6.92774c1.84284,-1.98325 4.9445,-2.09707 6.92774,-0.25423c1.98325,1.84284 2.09707,4.9445 0.25423,6.92775c-1.84284,1.98325 -4.9445,2.09706 -6.92775,0.25423z" fill="url(#color-7)"/><path d="M482.90755,198.86228c-1.98325,-1.84284 -2.09707,-4.9445 -0.25423,-6.92774c1.84284,-1.98325 4.9445,-2.09707 6.92775,-0.25423c1.98325,1.84284 2.09707,4.9445 0.25423,6.92775c-1.84284,1.98325 -4.9445,2.09706 -6.92775,0.25423z" fill="url(#color-8)"/><path d="M414.53691,264.67761c1.48953,-2.26068 4.52966,-2.88582 6.79033,-1.39629c2.26068,1.48953 2.88582,4.52966 1.39629,6.79033c-1.48953,2.26068 -4.52966,2.88582 -6.79033,1.3963c-2.26068,-1.48953 -2.88582,-4.52967 -1.39629,-6.79034z" fill="url(#color-9)"/><path d="M250.16139,213.90248c1.48953,-2.26068 4.52966,-2.88582 6.79033,-1.39629c2.26068,1.48953 2.88582,4.52966 1.39629,6.79033c-1.48953,2.26068 -4.52966,2.88582 -6.79033,1.39629c-2.26068,-1.48953 -2.88582,-4.52966 -1.39629,-6.79033z" fill="url(#color-10)"/><path d="M317.59545,364.58689c1.48953,-2.26068 4.52966,-2.88582 6.79033,-1.39629c2.26068,1.48953 2.88582,4.52966 1.39629,6.79033c-1.48953,2.26068 -4.52966,2.88582 -6.79033,1.3963c-2.26068,-1.48953 -2.88582,-4.52967 -1.39629,-6.79034z" fill="url(#color-11)"/><path d="M520.48847,397.88712c1.48953,-2.26068 4.52966,-2.88582 6.79033,-1.39629c2.26068,1.48953 2.88582,4.52966 1.3963,6.79033c-1.48953,2.26068 -4.52967,2.88582 -6.79034,1.3963c-2.26068,-1.48953 -2.88582,-4.52967 -1.39629,-6.79034z" fill="url(#color-12)"/><path d="M360.25846,257.85753c-0.64217,-2.63002 0.96929,-5.28264 3.59931,-5.92481c2.63002,-0.64217 5.28264,0.96929 5.92481,3.59931c0.64217,2.63002 -0.96929,5.28264 -3.59931,5.92481c-2.63002,0.64217 -5.28263,-0.9693 -5.9248,-3.59931z" fill="url(#color-13)"/><path d="M211.17211,343.71027c-0.64217,-2.63002 0.96929,-5.28264 3.59931,-5.92481c2.63002,-0.64217 5.28264,0.96929 5.92481,3.59931c0.64217,2.63002 -0.96929,5.28264 -3.59931,5.92481c-2.63002,0.64217 -5.28264,-0.96929 -5.92481,-3.59931z" fill="url(#color-14)"/><path d="M424.25093,343.71027c-0.64217,-2.63002 0.96929,-5.28263 3.59931,-5.9248c2.63002,-0.64217 5.28264,0.96929 5.92481,3.59931c0.64217,2.63002 -0.96929,5.28264 -3.5993,5.92481c-2.63002,0.64217 -5.28264,-0.9693 -5.92481,-3.59932z" fill="url(#color-15)"/><path d="M529.96395,270.91707c-0.64217,-2.63002 0.96929,-5.28264 3.59931,-5.92481c2.63002,-0.64217 5.28264,0.96929 5.92481,3.59931c0.64217,2.63002 -0.9693,5.28264 -3.59932,5.92481c-2.63002,0.64217 -5.28263,-0.9693 -5.9248,-3.59931z" fill="url(#color-16)"/><path d="M332.54122,187.08344c-1.98325,-1.84284 -2.09707,-4.9445 -0.25423,-6.92774c1.84284,-1.98325 4.9445,-2.09707 6.92774,-0.25423c1.98325,1.84284 2.09707,4.9445 0.25423,6.92775c-1.84284,1.98325 -4.9445,2.09706 -6.92775,0.25423z" fill="url(#color-17)"/><path d="M72.44035,239.18501c1.91433,-1.91433 5.01808,-1.91433 6.93241,0c1.91433,1.91433 1.91434,5.01808 0,6.93241c-1.91433,1.91433 -5.01809,1.91433 -6.93242,0c-1.91433,-1.91433 -1.91433,-5.01808 0,-6.93241z" fill="url(#color-18)"/><path d="M0.00336,391.02481c-0.09928,-2.70545 2.01344,-4.97915 4.71889,-5.07842c2.70545,-0.09928 4.97914,2.01344 5.07842,4.71889c0.09928,2.70545 -2.01344,4.97915 -4.71889,5.07842c-2.70545,0.09928 -4.97914,-2.01344 -5.07842,-4.71889z" fill="url(#color-19)"/><path d="M151.71211,229.99163c2.6518,-0.54528 5.24354,1.16237 5.78882,3.81417c0.54528,2.6518 -1.16237,5.24354 -3.81417,5.78882c-2.6518,0.54528 -5.24354,-1.16237 -5.78882,-3.81417c-0.54528,-2.6518 1.16237,-5.24354 3.81417,-5.78882z" fill="url(#color-20)"/><path d="M32.35455,294.21002c1.40562,-2.31378 4.42078,-3.04999 6.73457,-1.64437c2.31378,1.40562 3.04999,4.42078 1.64437,6.73457c-1.40562,2.31378 -4.42078,3.04999 -6.73457,1.64437c-2.31378,-1.40562 -3.04999,-4.42078 -1.64437,-6.73457z" fill="url(#color-21)"/><path d="M129.18631,380.60411c0,-2.70727 2.19468,-4.90196 4.90195,-4.90196c2.70727,0 4.90196,2.19468 4.90196,4.90196c0,2.70727 -2.19468,4.90195 -4.90196,4.90195c-2.70727,0 -4.90195,-2.19468 -4.90195,-4.90195z" fill="url(#color-22)"/><path d="M124.28434,309.30542c0,-2.70727 2.19468,-4.90196 4.90195,-4.90196c2.70727,0 4.90196,2.19468 4.90196,4.90196c0,2.70727 -2.19468,4.90195 -4.90196,4.90195c-2.70727,0 -4.90195,-2.19468 -4.90195,-4.90195z" fill="url(#color-23)"/><path d="M89.67336,351.26722c1.48953,-2.26067 4.52966,-2.88582 6.79033,-1.39629c2.26067,1.48953 2.88582,4.52965 1.39629,6.79033c-1.48953,2.26067 -4.52966,2.88582 -6.79034,1.3963c-2.26067,-1.48953 -2.88582,-4.52967 -1.39629,-6.79034z" fill="url(#color-24)"/><path d="M360.85691,152.78731c-2.70728,0 -4.90196,-2.19468 -4.90196,-4.90196c0,-2.70728 2.19468,-4.90196 4.90196,-4.90196c2.70728,0 4.90196,2.19468 4.90196,4.90196c0,2.70728 -2.19468,4.90196 -4.90196,4.90196z" data-paper-data="{&quot;index&quot;:null}" fill="url(#color-25)"/><path d="M228.92417,180.21796c-1.98325,1.84283 -5.08491,1.72902 -6.92775,-0.25423c-1.84284,-1.98325 -1.72902,-5.08491 0.25423,-6.92775c1.98324,-1.84284 5.0849,-1.72902 6.92774,0.25423c1.84284,1.98324 1.72902,5.0849 -0.25423,6.92774z" data-paper-data="{&quot;index&quot;:null}" fill="url(#color-26)"/><path d="M83.45981,70.29086c-1.98325,1.84283 -5.08491,1.72902 -6.92775,-0.25423c-1.84284,-1.98325 -1.72902,-5.08491 0.25423,-6.92775c1.98325,-1.84284 5.08491,-1.72902 6.92775,0.25423c1.84284,1.98324 1.72902,5.0849 -0.25423,6.92774z" data-paper-data="{&quot;index&quot;:null}" fill="url(#color-27)"/><path d="M150.43416,142.89652c-2.26067,1.48952 -5.3008,0.86438 -6.79033,-1.3963c-1.48953,-2.26067 -0.86439,-5.3008 1.39629,-6.79033c2.26067,-1.48953 5.3008,-0.86439 6.79033,1.39629c1.48953,2.26067 0.86439,5.30081 -1.39629,6.79034z" data-paper-data="{&quot;index&quot;:null}" fill="url(#color-28)"/><path d="M314.80968,92.12138c-2.26067,1.48953 -5.3008,0.86439 -6.79033,-1.39629c-1.48953,-2.26067 -0.86439,-5.3008 1.39629,-6.79033c2.26067,-1.48953 5.3008,-0.86439 6.79033,1.39629c1.48953,2.26067 0.86439,5.3008 -1.39629,6.79033z" data-paper-data="{&quot;index&quot;:null}" fill="url(#color-29)"/><path d="M206.10889,129.2861c-0.64217,2.63001 -3.29478,4.24148 -5.9248,3.59931c-2.63002,-0.64217 -4.24148,-3.29479 -3.59931,-5.92481c0.64217,-2.63002 3.29479,-4.24148 5.92481,-3.59931c2.63002,0.64217 4.24148,3.29479 3.59931,5.92481z" data-paper-data="{&quot;index&quot;:null}" fill="url(#color-30)"/><path d="M30.47861,145.94495c-2.63002,-0.64217 -4.24149,-3.29479 -3.59932,-5.92481c0.64217,-2.63002 3.29479,-4.24148 5.92481,-3.59931c2.63002,0.64217 4.24148,3.29479 3.59931,5.92481c-0.64217,2.63001 -3.29478,4.24148 -5.9248,3.59931z" data-paper-data="{&quot;index&quot;:null}" fill="url(#color-31)"/><path d="M233.82615,58.51202c-1.98325,1.84283 -5.08491,1.72902 -6.92775,-0.25423c-1.84284,-1.98325 -1.72902,-5.08491 0.25423,-6.92775c1.98324,-1.84284 5.0849,-1.72902 6.92774,0.25423c1.84284,1.98324 1.72902,5.0849 -0.25423,6.92774z" data-paper-data="{&quot;index&quot;:null}" fill="url(#color-32)"/><path d="M493.92702,110.61359c1.91433,1.91433 1.91433,5.01808 0,6.93241c-1.91433,1.91433 -5.01809,1.91433 -6.93242,0c-1.91434,-1.91433 -1.91433,-5.01808 0,-6.93241c1.91433,-1.91433 5.01808,-1.91433 6.93241,0z" data-paper-data="{&quot;index&quot;:null}" fill="url(#color-33)"/><path d="M418.46942,107.20902c-0.54528,2.6518 -3.13702,4.35945 -5.78882,3.81417c-2.6518,-0.54528 -4.35945,-3.13702 -3.81417,-5.78882c0.54528,-2.6518 3.13702,-4.35945 5.78882,-3.81417c2.6518,0.54528 4.35945,3.13702 3.81417,5.78882z" data-paper-data="{&quot;index&quot;:null}" fill="url(#color-34)"/><path d="M532.36843,172.37316c-2.31379,1.40562 -5.32895,0.66941 -6.73457,-1.64437c-1.40562,-2.31379 -0.66941,-5.32895 1.64437,-6.73457c2.31379,-1.40562 5.32895,-0.66941 6.73457,1.64437c1.40562,2.31379 0.66941,5.32895 -1.64437,6.73457z" data-paper-data="{&quot;index&quot;:null}" fill="url(#color-35)"/><path d="M-38.77389,183.93884c2.70728,0 4.90196,2.19468 4.90196,4.90196c0,2.70728 -2.19468,4.90196 -4.90196,4.90196c-2.70728,0 -4.90196,-2.19468 -4.90196,-4.90196c0,-2.70728 2.19468,-4.90196 4.90196,-4.90196z" data-paper-data="{&quot;index&quot;:null}" fill="url(#color-36)"/><path d="M7.27334,244.60477c2.26067,-1.48953 5.3008,-0.86439 6.79033,1.39629c1.48953,2.26067 0.86439,5.3008 -1.39629,6.79033c-2.26067,1.48953 -5.3008,0.86439 -6.79033,-1.39629c-1.48953,-2.26067 -0.86439,-5.3008 1.39629,-6.79033z" data-paper-data="{&quot;index&quot;:null}" fill="url(#color-37)"/><path d="M-27.18742,117.988c2.63002,0.64217 4.24148,3.29479 3.59931,5.92481c-0.64217,2.63002 -3.29479,4.24148 -5.92481,3.59931c-2.63002,-0.64217 -4.24148,-3.29479 -3.59931,-5.92481c0.64217,-2.63002 3.29479,-4.24148 5.92481,-3.59931z" data-paper-data="{&quot;index&quot;:null}" fill="url(#color-38)"/><path d="M-96.3864,229.51713c0.54528,-2.6518 3.13702,-4.35945 5.78882,-3.81417c2.6518,0.54528 4.35945,3.13702 3.81417,5.78882c-0.54528,2.6518 -3.13702,4.35945 -5.78882,3.81417c-2.6518,-0.54528 -4.35945,-3.13702 -3.81417,-5.78882z" data-paper-data="{&quot;index&quot;:null}" fill="url(#color-39)"/><path d="M-110.19608,79.79152c2.70728,0 4.90196,2.19468 4.90196,4.90195c0,2.70728 -2.19469,4.90196 -4.90196,4.90196c-2.70727,0 -4.90195,-2.19469 -4.90195,-4.90196c0,-2.70727 2.19468,-4.90195 4.90195,-4.90195z" data-paper-data="{&quot;index&quot;:null}" fill="url(#color-40)"/><path d="M-115.09805,151.09021c2.70728,0 4.90196,2.19468 4.90196,4.90195c0,2.70728 -2.19469,4.90196 -4.90196,4.90196c-2.70727,0 -4.90195,-2.19469 -4.90195,-4.90196c0,-2.70727 2.19468,-4.90195 4.90195,-4.90195z" data-paper-data="{&quot;index&quot;:null}" fill="url(#color-41)"/><path d="M-15.36018,285.07963c1.98325,1.84284 2.09707,4.9445 0.25423,6.92774c-1.84284,1.98325 -4.9445,2.09707 -6.92774,0.25423c-1.98325,-1.84284 -2.09707,-4.9445 -0.25423,-6.92775c1.84284,-1.98325 4.9445,-2.09706 6.92775,-0.25423z" data-paper-data="{&quot;index&quot;:null}" fill="url(#color-42)"/><path d="M-92.45389,329.1914c-1.48953,2.26068 -4.52966,2.88582 -6.79033,1.39629c-2.26068,-1.48953 -2.88582,-4.52966 -1.39629,-6.79033c1.48953,-2.26068 4.52966,-2.88582 6.79033,-1.3963c2.26068,1.48953 2.88582,4.52967 1.39629,6.79034z" data-paper-data="{&quot;index&quot;:null}" fill="url(#color-43)"/><path d="M-38.17544,336.01148c0.64217,2.63002 -0.96929,5.28264 -3.59931,5.92481c-2.63002,0.64217 -5.28264,-0.96929 -5.92481,-3.59931c-0.64217,-2.63002 0.96929,-5.28264 3.59931,-5.92481c2.63002,-0.64217 5.28263,0.9693 5.9248,3.59931z" data-paper-data="{&quot;index&quot;:null}" fill="url(#color-44)"/><path d="M-10.4582,406.78557c1.98325,1.84284 2.09707,4.9445 0.25423,6.92774c-1.84284,1.98325 -4.9445,2.09707 -6.92774,0.25423c-1.98325,-1.84284 -2.09707,-4.9445 -0.25423,-6.92775c1.84284,-1.98325 4.9445,-2.09706 6.92775,-0.25423z" data-paper-data="{&quot;index&quot;:null}" fill="url(#color-45)"/><path d="M285.21097,22.84655c-2.70728,0 -4.90196,-2.19468 -4.90196,-4.90196c0,-2.70728 2.19468,-4.90196 4.90196,-4.90196c2.70728,0 4.90196,2.19468 4.90196,4.90196c0,2.70728 -2.19468,4.90196 -4.90196,4.90196z" data-paper-data="{&quot;index&quot;:null}" fill="url(#color-46)"/><path d="M-59.03376,56.49014c-2.70728,0 -4.90196,-2.19468 -4.90196,-4.90196c0,-2.70728 2.19468,-4.90196 4.90196,-4.90196c2.70728,0 4.90196,2.19468 4.90196,4.90196c0,2.70728 -2.19468,4.90196 -4.90196,4.90196z" data-paper-data="{&quot;index&quot;:null}" fill="url(#color-47)"/><path d="M153.27823,50.2772c-1.98325,1.84283 -5.08491,1.72902 -6.92775,-0.25423c-1.84284,-1.98325 -1.72902,-5.08491 0.25423,-6.92775c1.98324,-1.84284 5.0849,-1.72902 6.92774,0.25423c1.84284,1.98324 1.72902,5.0849 -0.25423,6.92774z" data-paper-data="{&quot;index&quot;:null}" fill="url(#color-48)"/><path d="M7.81387,-59.6499c-1.98325,1.84283 -5.08491,1.72902 -6.92775,-0.25423c-1.84284,-1.98325 -1.72902,-5.08491 0.25423,-6.92775c1.98325,-1.84284 5.08491,-1.72902 6.92775,0.25423c1.84284,1.98324 1.72902,5.0849 -0.25423,6.92774z" data-paper-data="{&quot;index&quot;:null}" fill="url(#color-49)"/><path d="M74.78822,12.95576c-2.26067,1.48952 -5.3008,0.86438 -6.79033,-1.3963c-1.48953,-2.26067 -0.86439,-5.3008 1.39629,-6.79033c2.26067,-1.48953 5.3008,-0.86439 6.79033,1.39629c1.48953,2.26067 0.86439,5.30081 -1.39629,6.79034z" data-paper-data="{&quot;index&quot;:null}" fill="url(#color-50)"/><path d="M239.16374,-37.81938c-2.26067,1.48953 -5.3008,0.86439 -6.79033,-1.39629c-1.48953,-2.26067 -0.86439,-5.3008 1.39629,-6.79033c2.26067,-1.48953 5.3008,-0.86439 6.79033,1.39629c1.48953,2.26067 0.86439,5.3008 -1.39629,6.79033z" data-paper-data="{&quot;index&quot;:null}" fill="url(#color-51)"/><path d="M130.46295,-0.65466c-0.64217,2.63001 -3.29478,4.24148 -5.9248,3.59931c-2.63002,-0.64217 -4.24148,-3.29479 -3.59931,-5.92481c0.64217,-2.63002 3.29479,-4.24148 5.92481,-3.59931c2.63002,0.64217 4.24148,3.29479 3.59931,5.92481z" data-paper-data="{&quot;index&quot;:null}" fill="url(#color-52)"/><path d="M-45.16733,16.00419c-2.63002,-0.64217 -4.24149,-3.29479 -3.59932,-5.92481c0.64217,-2.63002 3.29479,-4.24148 5.92481,-3.59931c2.63002,0.64217 4.24148,3.29479 3.59931,5.92481c-0.64217,2.63001 -3.29478,4.24148 -5.9248,3.59931z" data-paper-data="{&quot;index&quot;:null}" fill="url(#color-53)"/><path d="M158.18021,-71.42874c-1.98325,1.84283 -5.08491,1.72902 -6.92775,-0.25423c-1.84284,-1.98325 -1.72902,-5.08491 0.25423,-6.92775c1.98324,-1.84284 5.0849,-1.72902 6.92774,0.25423c1.84284,1.98324 1.72902,5.0849 -0.25423,6.92774z" data-paper-data="{&quot;index&quot;:null}" fill="url(#color-54)"/><path d="M418.28108,-19.32718c1.91433,1.91433 1.91433,5.01808 0,6.93241c-1.91433,1.91433 -5.01809,1.91433 -6.93242,0c-1.91434,-1.91433 -1.91433,-5.01808 0,-6.93241c1.91433,-1.91433 5.01808,-1.91433 6.93241,0z" data-paper-data="{&quot;index&quot;:null}" fill="url(#color-55)"/><path d="M342.82348,-22.73174c-0.54528,2.6518 -3.13702,4.35945 -5.78882,3.81417c-2.6518,-0.54528 -4.35945,-3.13702 -3.81417,-5.78882c0.54528,-2.6518 3.13702,-4.35945 5.78882,-3.81417c2.6518,0.54528 4.35945,3.13702 3.81417,5.78882z" data-paper-data="{&quot;index&quot;:null}" fill="url(#color-56)"/><path d="M456.7225,42.4324c-2.31379,1.40562 -5.32895,0.66941 -6.73457,-1.64437c-1.40562,-2.31379 -0.66941,-5.32895 1.64437,-6.73457c2.31379,-1.40562 5.32895,-0.66941 6.73457,1.64437c1.40562,2.31379 0.66941,5.32895 -1.64437,6.73457z" data-paper-data="{&quot;index&quot;:null}" fill="url(#color-57)"/><path d="M361.53513,55.69518c-2.70728,0 -4.90196,-2.19468 -4.90196,-4.90195c0,-2.70728 2.19469,-4.90196 4.90196,-4.90196c2.70727,0 4.90195,2.19469 4.90195,4.90196c0,2.70727 -2.19468,4.90195 -4.90195,4.90195z" data-paper-data="{&quot;index&quot;:null}" fill="url(#color-58)"/><path d="M534.39727,-69.67138c0,2.70728 -2.19468,4.90196 -4.90196,4.90196c-2.70728,0 -4.90196,-2.19468 -4.90196,-4.90196c0,-2.70728 2.19468,-4.90196 4.90196,-4.90196c2.70728,0 4.90196,2.19468 4.90196,4.90196z" data-paper-data="{&quot;index&quot;:null}" fill="url(#color-59)"/><path d="M484.84437,-7.11708c-1.48953,2.26068 -4.52966,2.88582 -6.79033,1.39629c-2.26068,-1.48953 -2.88582,-4.52966 -1.39629,-6.79033c1.48953,-2.26068 4.52966,-2.88582 6.79033,-1.39629c2.26068,1.48953 2.88582,4.52966 1.39629,6.79033z" data-paper-data="{&quot;index&quot;:null}" fill="url(#color-60)"/><path d="M583.29365,-23.20623c-2.6518,0.54528 -5.24354,-1.16237 -5.78882,-3.81417c-0.54528,-2.6518 1.16237,-5.24354 3.81417,-5.78882c2.6518,-0.54528 5.24354,1.16237 5.78882,3.81417c0.54528,2.6518 -1.16237,5.24354 -3.81417,5.78882z" data-paper-data="{&quot;index&quot;:null}" fill="url(#color-61)"/><path d="M506.08159,26.56744c1.98325,-1.84283 5.08491,-1.72902 6.92775,0.25423c1.84284,1.98325 1.72902,5.08491 -0.25423,6.92775c-1.98324,1.84284 -5.0849,1.72902 -6.92774,-0.25423c-1.84284,-1.98324 -1.72902,-5.0849 0.25423,-6.92774z" data-paper-data="{&quot;index&quot;:null}" fill="url(#color-62)"/></g></g></svg>