<svg version="1.1" xmlns="http://www.w3.org/2000/svg" xmlns:xlink="http://www.w3.org/1999/xlink" width="92.21921" height="62.49176" viewBox="0,0,92.21921,62.49176"><g transform="translate(-193.89043,-148.75412)"><g data-paper-data="{&quot;isPaintingLayer&quot;:true}" stroke-miterlimit="10" stroke-dasharray="" stroke-dashoffset="0" style="mix-blend-mode: normal"><path d="M194.89044,210.24588v-60.49176h90.21921v60.49176z" data-paper-data="{&quot;index&quot;:null}" fill="#ffd5ad" fill-rule="nonzero" stroke="#666666" stroke-width="2" stroke-linecap="butt" stroke-linejoin="miter"/><g data-paper-data="{&quot;index&quot;:null}" fill-rule="evenodd" stroke-width="0.5"><g><path d="M219.24411,192.73881c1.19431,0.21076 3.47754,-1.12405 3.79369,-0.94842c0.28101,0.14051 0.87815,0.45665 0.03512,1.65096c-0.84303,1.1943 -3.26678,1.44019 -3.54779,1.44019c-1.08893,0.03512 -2.42374,0.03513 -3.89907,-0.45665c-4.28545,-1.40507 -4.32058,-6.00666 -2.95064,-6.74432c1.33482,-0.73766 1.93197,2.1076 3.86394,3.82881c0.84304,0.77279 1.86172,1.05381 2.70476,1.22944z" fill="#ffab19" stroke="#001026" stroke-linecap="round" stroke-linejoin="round"/><path d="M212.88619,187.75083c0.70253,-0.14051 0.87816,0.38639 1.44019,1.1943c0.56203,0.94842 1.65096,2.28323 1.65096,2.28323c0,0 -1.29968,-0.31615 -2.03734,0.28101c-0.59715,0.45665 -0.45665,1.22944 -0.3864,1.47533c-0.45665,-0.45665 -1.01867,-1.08892 -1.36994,-2.31836c-0.35127,-1.22944 0,-2.70476 0.70253,-2.91552z" fill="#ffffff" stroke="none" stroke-linecap="butt" stroke-linejoin="miter"/></g><path d="M228.55271,188.83976c0.03512,-0.98355 1.22943,-1.22943 1.82659,-0.70253c0.17563,0.14051 2.31836,2.66963 3.02089,2.03734c0.84303,-0.73766 2.00222,-2.17785 3.26678,-1.01867c1.26456,1.15918 -1.12406,3.12627 -2.14273,3.65317c-2.42374,1.08892 -4.39084,-0.98355 -4.81236,-1.54558c-0.42152,-0.56203 -1.15918,-1.51045 -1.15918,-2.42374z" fill="#ffab19" stroke="#001026" stroke-linecap="round" stroke-linejoin="round"/><g><path d="M230.41441,196.32173c0.73765,0.6674 2.35348,2.03735 2.35348,2.03735c0,0 5.02311,-0.87816 5.02311,1.65096c0,1.51045 -2.52911,1.86172 -5.9364,1.54558c-0.21076,-0.03512 -0.42153,-0.10538 -0.59715,-0.24589c-0.77278,-0.6674 -2.98577,-2.6345 -4.39083,-4.00444c-2.07247,-2.03735 -3.79369,-3.37216 -3.79369,-3.37216c-2.98577,-2.91552 -0.56203,-4.14495 0.3864,-5.83103c0.87816,-1.44019 1.26456,-1.15918 3.37216,-0.73766c1.19431,0.17563 1.89684,0.28101 2.66963,0.24589c1.15918,-0.03513 0.94843,1.65095 0.63228,2.52912c0,0 -0.49177,1.29969 -0.94841,1.96709c-0.56203,0.80791 -0.98355,1.3348 -1.40507,1.65095z" fill="#ffab19" stroke="#001026" stroke-linecap="round" stroke-linejoin="round"/><path d="M229.32548,191.40401c-0.77278,1.5807 -1.86171,2.31836 -1.86171,2.31836c0,0 -0.5269,-0.42153 -1.08892,-0.94842c-0.70253,-0.63228 -1.40507,-1.15919 -0.70253,-2.24811c0.63228,-0.84304 1.22944,-1.96709 2.81014,-0.94842c1.51045,0.94842 0.84303,1.82659 0.84303,1.82659z" fill="#ffffff" stroke="none" stroke-linecap="butt" stroke-linejoin="miter"/></g><path d="M222.15965,190.84196c0.77278,0.98355 1.96709,2.21299 0.45665,3.23166c-2.07247,1.15918 -3.79369,-2.35348 -4.14495,-3.58292c-0.31614,-1.08893 0.59716,-1.79146 1.36995,-2.38862c1.51045,-1.08892 2.77501,-2.07247 4.18008,-1.54558c1.75634,0.63228 0.49178,2.03734 -0.3864,2.66963c-0.5269,0.3864 -1.0538,0.80791 -1.4402,1.0538c-0.10538,0.17563 -0.1405,0.3864 -0.03512,0.56203z" fill="#ffab19" stroke="#001026" stroke-linecap="round" stroke-linejoin="round"/><g><path d="M233.22453,167.16659c0.10538,-0.07026 0.28102,-0.03513 0.31614,0.10538l0.91329,3.75855c0,0 2.24811,1.65096 2.91552,2.81014c1.12406,1.93196 1.15918,3.51266 1.15918,3.51266c0,0 2.494,0.73767 2.91552,2.73989c0.42152,2.00221 -1.12405,5.79589 -7.72787,7.09558c-6.60382,1.29969 -11.90795,-0.49178 -14.40194,-4.49621c-2.49399,-4.00444 1.4402,-8.78166 1.22944,-8.50065l-0.73766,-6.28768c-0.03512,-0.14051 0.14051,-0.2459 0.28102,-0.17564l4.25033,2.77501c0,0 1.58071,-0.59715 3.23166,-0.6674c0.98355,-0.07025 1.82659,0 2.6345,0.14051z" fill="#ffab19" stroke="#001026" stroke-linecap="butt" stroke-linejoin="miter"/><path d="M232.62738,179.21503c2.52913,-0.17563 2.81014,-2.38861 5.79591,-1.72121c0,0 2.42374,0.63228 2.84526,2.6345c0.42153,2.00222 -1.26455,5.62027 -7.79812,6.88483c-8.50066,1.75634 -12.54023,-3.3019 -10.18674,-7.02533c2.35349,-3.75855 6.39306,-0.56203 9.3437,-0.77278z" fill="#ffffff" stroke="none" stroke-linecap="butt" stroke-linejoin="miter"/><path d="M227.35838,181.25239c0,-0.14051 0.1405,-0.24589 0.28101,-0.21077c0.6674,0.24589 2.56425,0.80791 4.67185,0.94842c1.89684,0.10538 3.02089,0 3.54779,-0.10538c0.17564,-0.03512 0.31615,0.14051 0.24589,0.31614c-0.31614,0.94842 -1.65095,3.58292 -5.33925,3.37216c-3.19652,-0.35127 -3.51267,-2.59937 -3.40729,-4.32058z" fill="#ffffff" stroke="#001026" stroke-linecap="round" stroke-linejoin="round"/><path d="M244.8866,177.88022c-1.65096,1.33481 -4.18008,1.36994 -4.18008,1.36994" fill="none" stroke="#001026" stroke-linecap="round" stroke-linejoin="round"/><path d="M244.42994,181.81441c-2.21298,0.17564 -3.58292,-0.49177 -3.58292,-0.49177" fill="none" stroke="#001026" stroke-linecap="round" stroke-linejoin="round"/><path d="M232.48688,178.30175c0.73766,0 1.51046,0.07025 1.54558,0.31614c0.03512,0.49178 -0.49178,1.47533 -1.0538,1.51045c-0.63228,0.07026 -2.1076,-0.80791 -2.1076,-1.36994c-0.03513,-0.42153 0.91329,-0.45665 1.61583,-0.45665z" fill="#001026" stroke="#001026" stroke-linecap="round" stroke-linejoin="round"/><path d="M216.67986,177.77484c0,0 3.02089,0.98355 4.25033,2.07247" fill="none" stroke="#001026" stroke-linecap="round" stroke-linejoin="round"/><path d="M221.03559,181.07675c-1.51045,0.59715 -4.10982,0.21076 -4.10982,0.21076" fill="none" stroke="#001026" stroke-linecap="round" stroke-linejoin="round"/><g><path d="M236.63183,174.19192c1.01867,1.5807 1.05381,3.37215 0.07026,4.00444c-0.98355,0.63228 -2.59938,-0.10538 -3.65318,-1.68608c-1.01867,-1.5807 -1.0538,-3.37215 -0.07025,-4.00444c0.98354,-0.6674 2.6345,0.10538 3.65317,1.68608z" fill="#ffffff" stroke="#001026" stroke-linecap="round" stroke-linejoin="round"/><path d="M236.49133,176.19414c0,0.38639 -0.28102,0.70253 -0.63228,0.70253c-0.35128,0 -0.63228,-0.31614 -0.63228,-0.70253c0,-0.3864 0.28102,-0.70253 0.63228,-0.70253c0.35128,0 0.63228,0.31614 0.63228,0.70253" fill="#001026" stroke="none" stroke-linecap="butt" stroke-linejoin="miter"/></g><g><path d="M224.12673,173.59477c1.08892,-0.80791 2.73988,0.03513 3.79368,1.58071c1.0538,1.54557 0.98355,3.44241 0.03513,4.10982c-1.15918,0.6674 -2.70476,0.17563 -3.75856,-1.36995c-1.08892,-1.54558 -1.15917,-3.5478 -0.07025,-4.32058z" fill="#ffffff" stroke="#001026" stroke-linecap="round" stroke-linejoin="round"/><path d="M227.70965,177.21282c0,0.38639 -0.28102,0.70253 -0.63228,0.70253c-0.35128,0 -0.63228,-0.31614 -0.63228,-0.70253c0,-0.38639 0.28102,-0.70253 0.63228,-0.70253c0.35128,0.03512 0.63228,0.31613 0.63228,0.70253" fill="#001026" stroke="none" stroke-linecap="butt" stroke-linejoin="miter"/></g></g></g><path d="M195.90989,209.32838v-3.6523h88.18031v3.6523z" fill="#c0c0c0" fill-rule="nonzero" stroke="none" stroke-width="0" stroke-linecap="butt" stroke-linejoin="miter"/><path d="M228.92161,193.01734v12.65874h-33.0117v-12.65874z" fill="#ccab3e" fill-rule="nonzero" stroke="none" stroke-width="0" stroke-linecap="butt" stroke-linejoin="miter"/><path d="M284.09013,193.01734v12.65874h-33.0117v-12.65874z" data-paper-data="{&quot;index&quot;:null}" fill="#ccab3e" fill-rule="nonzero" stroke="none" stroke-width="0" stroke-linecap="butt" stroke-linejoin="miter"/><path d="M195.9099,193.01734v-8.6359h33.0117v8.6359z" fill="#e3c684" fill-rule="nonzero" stroke="none" stroke-width="0" stroke-linecap="butt" stroke-linejoin="miter"/><path d="M251.07846,193.01734v-8.6359h33.0117v8.6359z" data-paper-data="{&quot;index&quot;:null}" fill="#e3c684" fill-rule="nonzero" stroke="none" stroke-width="0" stroke-linecap="butt" stroke-linejoin="miter"/><g fill-rule="nonzero" stroke="none" stroke-linecap="butt" stroke-linejoin="miter"><path d="M213.1859,188.15883c-0.04591,-0.97759 1.0343,-1.58081 1.72066,-1.43304c0.13585,0.02925 0.41871,0.23003 0.41036,0.06696c-0.07763,-1.5155 -0.11591,-3.60945 1.27635,-4.43304c0.99073,-0.58606 1.695,0.14574 2.35498,0.78242c0.2347,0.22641 0.39448,-0.56231 0.65519,-0.74459c0.5359,-0.37468 1.09044,-0.48471 1.69902,-0.56015c1.14855,-0.14237 2.07167,2.06604 2.87656,2.8489c0.69063,0.67173 3.04205,-1.06475 3.8363,0.57967c2.29237,4.74617 -6.89691,5.0625 -8.23296,5.0625c-0.09272,0.72038 -0.61855,1.27232 -1.25334,1.27232c-0.36044,0 -0.68575,-0.17794 -0.91659,-0.46363c-1.51999,-0.79516 -4.39891,-2.39013 -4.42653,-2.97833z" fill="#32ad26" stroke-width="0.5"/><path d="M228.24682,188.47513c0,1.91118 -3.4018,3.46049 -7.59814,3.46049c-4.19634,0 -7.59813,-1.54931 -7.59813,-3.46049c0,-1.91118 15.19627,-1.91118 15.19627,0z" fill="#a17d09" stroke-width="0"/></g><g fill-rule="nonzero" stroke="none" stroke-linecap="butt" stroke-linejoin="miter"><path d="M206.55869,191.33293c-0.29698,-0.0889 -0.68696,-0.73782 -1.00084,-1.58123c-0.61951,0.31255 -1.67946,0.84416 -2.51574,0.94827c-0.17005,0.06322 -0.35902,0.09724 -0.56824,0.09724c-0.05706,0 -0.11256,-0.00691 -0.16647,-0.02027c-0.11785,0.08352 -0.26059,0.15448 -0.43061,0.21116c-1.41351,0.47117 -5.97878,-5.05825 -4.44564,-5.93433c0.26092,-0.44211 0.74219,-0.73869 1.29272,-0.73869c0.76632,0 1.39844,0.57466 1.4889,1.31655c0.29438,0.30637 0.60094,0.64764 0.89523,1.00601c0.10102,-0.8322 0.36411,-1.5301 0.80975,-1.78476c0.26092,-0.44211 0.74219,-0.7387 1.29273,-0.7387c0.82843,0 1.5,0.67157 1.5,1.5c0,0.41124 -0.16549,0.78382 -0.4335,1.05479c0.01,0.0736 0.01904,0.14771 0.02711,0.22216c0.24738,-0.16328 0.50198,-0.32072 0.75847,-0.47007c0.08162,-0.46894 0.27037,-0.84114 0.60519,-1.03247c0.26092,-0.44211 0.74219,-0.7387 1.29273,-0.7387c0.4312,0 0.8199,0.18195 1.09352,0.47325c0.20985,-0.04565 0.3895,-0.0656 0.52973,-0.05593c0.19754,-0.09577 0.41926,-0.14947 0.65353,-0.14947c0.82843,0 1.5,0.67157 1.5,1.5c0,0.59821 -0.35018,1.11463 -0.85673,1.35546c-0.37687,0.33718 -0.94416,0.60715 -1.57584,0.85934c-0.1388,1.60116 -0.80441,2.98223 -1.746,2.70038z" fill="#ce650c" stroke-width="0.5"/><path d="M211.64705,188.47513c0,1.91118 -3.4018,3.46049 -7.59813,3.46049c-4.19634,0 -7.59814,-1.54931 -7.59814,-3.46049c0,-1.91118 15.19627,-1.91118 15.19627,0z" fill="#a17d09" stroke-width="0"/></g><g fill-rule="nonzero" stroke="none" stroke-linecap="butt" stroke-linejoin="miter"><g stroke-width="0.5"><path d="M263.68433,189.41001c-0.25948,-0.06836 -0.62514,-0.32611 -1.0099,-0.69191c-0.0988,0.2423 -0.30548,0.52262 -0.65074,0.84999c-0.15691,0.14878 -0.75378,0.57034 -0.92594,0.6173c-0.90561,0.24698 -2.37897,-0.45523 -3.4424,-1.38957c0.00039,0.01666 0.00059,0.03356 0.00059,0.05068c0,4.86788 -9.14389,-2.6901 -5.13647,-4.98005c0.26093,-0.44211 0.74219,-0.7387 1.29272,-0.7387c0.82843,0 1.5,0.67157 1.5,1.5c0,0.23601 -0.05451,0.45929 -0.15162,0.65794c0.09563,0.42406 0.14254,0.85759 0.15162,1.25861c0.01553,0.68638 0.66597,0.77534 1.27763,0.97669c-0.13996,-0.2638 -0.22236,-0.52236 -0.22934,-0.76256c-0.01068,-0.36788 -0.18669,-3.34501 0.95354,-3.32075c0.21299,-0.11611 0.45725,-0.18209 0.71691,-0.18209c0.82843,0 1.5,0.67157 1.5,1.5c0,0.32361 -0.10248,0.62328 -0.27675,0.86834c0.05137,0.23805 0.08683,0.47762 0.1063,0.71445c0.03739,0.45502 1.20639,0.65481 2.16023,0.99577c-0.72295,-1.09355 -1.11141,-2.30248 -0.26545,-2.78589c0.26093,-0.44211 0.74219,-0.7387 1.29272,-0.7387c0.82843,0 1.5,0.67157 1.5,1.5c0,0.07038 -0.00485,0.13964 -0.01423,0.20744c1.28412,1.91385 2.37806,4.61152 -0.34943,3.89301z" fill="#5058e8"/><path d="M252.44005,184.2016c0,-0.82843 0.67157,-1.5 1.5,-1.5c0.82843,0 1.5,0.67157 1.5,1.5c0,0.82843 -0.67157,1.5 -1.5,1.5c-0.82843,0 -1.5,-0.67157 -1.5,-1.5z" fill="#50c046"/><path d="M256.70138,184.24422c0,-0.82843 0.67157,-1.5 1.5,-1.5c0.82843,0 1.5,0.67157 1.5,1.5c0,0.82843 -0.67157,1.5 -1.5,1.5c-0.82843,0 -1.5,-0.67157 -1.5,-1.5z" fill="#50c046"/><path d="M261.17582,184.24422c0,-0.82843 0.67157,-1.5 1.5,-1.5c0.82843,0 1.5,0.67157 1.5,1.5c0,0.82843 -0.67157,1.5 -1.5,1.5c-0.82843,0 -1.5,-0.67157 -1.5,-1.5z" fill="#50c046"/></g><g fill="#a17d09" stroke-width="0"><path d="M266.81557,188.47512c0,1.91117 -3.4018,3.46049 -7.59813,3.46049c-4.19633,0 -7.59814,-1.54931 -7.59814,-3.46049c0,-1.91117 15.19627,-1.91117 15.19627,0z"/></g></g><g fill-rule="nonzero" stroke="none" stroke-linecap="butt" stroke-linejoin="miter"><g stroke-width="0.5"><path d="M280.73314,185.13236c0.13006,-0.03679 2.56858,1.38287 2.33452,2.00289c-0.0198,0.62997 0.38161,1.28983 -0.18352,1.49233c-0.65708,0.65644 -1.53089,1.31867 -2.38306,1.86817c-0.87421,-0.59749 -1.83913,-1.05865 -2.85133,-1.37042c-0.62485,-0.19757 -1.27625,-0.33542 -1.94748,-0.40686c-1.39971,-0.15857 -2.83476,-0.03943 -4.2035,0.38798c-0.48283,-0.46231 -0.84018,-0.82479 -0.989,-0.9601c-0.43109,-0.39193 -2.15223,-1.80933 -2.01624,-2.30796c-0.03102,-0.12016 -0.04752,-0.24617 -0.04752,-0.37602c0,-0.82843 0.67158,-1.5 1.5,-1.5c0.55966,-0.43331 1.67665,1.09462 2.02312,1.43993c0.24827,0.24744 1.21603,0.89763 2.30133,1.72326c0.81775,-1.9037 1.87583,-3.64915 2.08662,-3.7696c0.26092,-0.44211 0.74219,-0.7387 1.29272,-0.7387c0.82843,0 1.5,0.67157 1.5,1.5c0,0.40391 -0.15964,0.77052 -0.41927,1.0402c-0.05476,0.99558 -0.39392,2.12611 -0.87401,3.1831c1.38588,-1.15404 2.8247,-3.19351 2.8766,-3.20819z" fill="#e4ffe3"/><path d="M267.85907,183.23139c0.25843,-0.23952 1.09206,-0.70592 1.3125,-0.75c3.75322,-0.75064 -0.03274,6.34012 -1.61728,3.56718c-0.44211,-0.26092 -0.7387,-0.74219 -0.7387,-1.29272c0,-0.61169 0.36614,-1.13787 0.89121,-1.37132c0.04869,-0.05294 0.09934,-0.10408 0.15227,-0.15314z" fill="#32ad26"/><path d="M279.94874,181.20149c0.64062,0.64062 0.97774,1.37325 0.42859,2.06484c-2.37413,2.98999 -5.5717,-1.6694 -4.06099,-2.53267c0.26093,-0.44211 0.74219,-0.7387 1.29273,-0.7387c0.4376,0 0.83143,0.18738 1.10564,0.48629c0.45407,0.18182 0.8945,0.38068 1.23404,0.72023z" fill="#32ad26"/><path d="M284.02259,187.10886c0.11057,1.99025 -5.20857,1.7679 -3.66422,-2.093l0.00846,-0.03384c0.15159,-0.66798 0.74897,-1.16664 1.46283,-1.16664c0.80943,0 1.46911,0.64112 1.49894,1.44326c0.39328,0.58898 0.66262,1.28555 0.69399,1.85022z" fill="#32ad26"/></g><g fill="#a17d09" stroke-width="0"><path d="M283.41535,188.47512c0,1.91117 -3.4018,3.46049 -7.59814,3.46049c-4.19634,0 -7.59814,-1.54931 -7.59814,-3.46049c0,-1.91117 15.19627,-1.91117 15.19627,0z"/></g></g><g data-paper-data="{&quot;index&quot;:null}" fill-rule="evenodd" stroke-linejoin="miter"><g fill="none" stroke="#ffffff" stroke-width="2.52" stroke-linecap="round"><path d=""/><path d=""/></g><g fill="none" stroke="#cc48cc" stroke-width="1.512" stroke-linecap="round"><path d=""/><path d=""/><path d=""/><path d=""/><path d=""/><path d=""/><path d=""/><path d=""/><path d=""/><path d=""/><path d=""/><path d=""/><path d=""/><path d=""/><path d=""/><path d=""/><path d=""/><path d=""/><path d=""/><path d=""/><path d=""/></g><path d="" fill="none" stroke="#5e154d" stroke-width="1.512" stroke-linecap="butt"/><g stroke="#4b4b4b" stroke-width="1.512" stroke-linecap="round"><path d="M283.43052,151.35646v12.32065c0,0.20623 -0.01296,0.40943 -0.03811,0.60885c-0.29954,2.37492 -2.32819,4.2118 -4.78624,4.2118c-2.66455,0 -4.82445,-2.15831 -4.82445,-4.82065v-12.32065z" fill="#84d78c"/><path d="M273.61372,151.35646v12.32065c0.17055,1.82182 -0.70587,3.58315 -2.26247,4.54694c-1.5567,0.96369 -3.52527,0.96369 -5.08197,0c-1.5567,-0.96379 -2.43312,-2.72513 -2.26247,-4.54694v-12.32065z" fill="#00a712"/><path d="M264.00689,151.35646v12.32065c0,2.66235 -2.16001,4.82065 -4.82445,4.82065c-2.66445,0 -4.82445,-2.15831 -4.82445,-4.82065v-12.32065z" fill="#84d78c"/><path d="M254.35799,151.35646v12.32065c0.17055,1.82182 -0.70587,3.58315 -2.26247,4.54694c-1.5566,0.96369 -3.52517,0.96369 -5.08187,0c-1.5567,-0.96379 -2.43312,-2.72513 -2.26247,-4.54694v-12.32065z" fill="#00a712"/><path d="M244.75117,151.35646v12.32065c0,2.66235 -2.16001,4.82065 -4.82445,4.82065c-2.66455,0 -4.82445,-2.15831 -4.82445,-4.82065v-12.32065z" fill="#84d78c"/><path d="M235.10213,151.35646v12.32065c0,2.66235 -2.16001,4.82065 -4.82445,4.82065c-2.66455,0 -4.82435,-2.15831 -4.82435,-4.82065v-12.32065z" fill="#00a712"/><path d="M225.45336,151.35646v12.32065c0.17055,1.82182 -0.70587,3.58315 -2.26257,4.54694c-1.5566,0.96369 -3.52517,0.96369 -5.08187,0c-1.5567,-0.96379 -2.43312,-2.72513 -2.26247,-4.54694v-12.32065z" fill="#84d78c"/><path d="M215.8463,151.35646v12.32065c0,2.66235 -2.16001,4.82065 -4.82445,4.82065c-2.66455,0 -4.82435,-2.15831 -4.82435,-4.82065v-12.32065z" fill="#00a712"/><path d="M206.19753,151.35646v12.32065c0.17055,1.82182 -0.70587,3.58315 -2.26257,4.54694c-1.5567,0.96369 -3.52517,0.96369 -5.08187,0c-1.5567,-0.96379 -2.43312,-2.72513 -2.26257,-4.54694v-12.32065z" fill="#84d78c"/></g><path d="" fill="#5e154d" stroke="#5e154d" stroke-width="2.016" stroke-linecap="round"/></g></g></g></svg>