<svg version="1.1" xmlns="http://www.w3.org/2000/svg" xmlns:xlink="http://www.w3.org/1999/xlink" width="110.59434" height="110.59434" viewBox="0,0,110.59434,110.59434"><g transform="translate(-184.70283,-124.70283)"><g data-paper-data="{&quot;isPaintingLayer&quot;:true}" stroke-miterlimit="10" stroke-dasharray="" stroke-dashoffset="0" style="mix-blend-mode: normal"><g fill-rule="evenodd" stroke-width="0.55"><path d="M234.22276,187.89234c0.30385,0.15193 0.94955,0.49376 0.03799,1.78515c-0.91156,1.29138 -3.53232,1.55726 -3.83617,1.55726c-1.17744,0.03798 -2.62075,0.03797 -4.21599,-0.49377c-4.63379,-1.51927 -4.67177,-6.4949 -3.19047,-7.29253c1.44331,-0.79763 2.089,2.27892 4.17801,4.14004c0.91156,0.8356 2.01304,1.13944 2.9246,1.32935c1.29138,0.22788 3.7602,-1.21541 4.10204,-1.0255z" fill="#ffab19" stroke="#001026" stroke-linecap="round" stroke-linejoin="round"/><path d="M224.80326,184.81581c0.60771,1.02551 1.78515,2.46882 1.78515,2.46882c0,0 -1.40533,-0.34184 -2.20295,0.30386c-0.64569,0.49376 -0.49376,1.32936 -0.4178,1.59524c-0.49376,-0.49376 -1.10147,-1.17744 -1.48129,-2.50681c-0.37982,-1.32937 0,-2.9246 0.75963,-3.15249c0.75964,-0.15193 0.94955,0.41779 1.55726,1.29138z" fill="#ffffff" stroke="none" stroke-linecap="butt" stroke-linejoin="miter"/></g><path d="M236.12186,191.84246c-0.68367,0.45578 -3.03856,2.12699 -6.03912,3.07653l-0.15193,0.03798c-0.15193,0.03798 -0.22788,0.22789 -0.15192,0.37982c0.64569,0.91156 1.82313,2.73469 -0.26588,3.38038c-2.01304,0.64569 -5.77324,-4.70975 -4.178,-6.11508c0.72165,-0.53175 1.36735,-0.26587 1.70918,-0.11395c0.18991,0.07596 0.37982,0.07597 0.56973,0.03799c0.45578,-0.15193 1.29138,-0.45578 1.93707,-0.79762c1.63322,-0.8356 2.01304,-1.17744 2.77267,-1.74717c0.75964,-0.56973 2.50681,-1.97505 3.91214,-0.75964c1.21542,1.02551 0.53175,2.16496 -0.11395,2.62075z" fill="#ffab19" fill-rule="evenodd" stroke="#001026" stroke-width="0.55" stroke-linecap="round" stroke-linejoin="round"/><path d="M242.16098,183.94223c0.18991,0.15193 2.5068,2.88662 3.26644,2.20295c0.91156,-0.79763 2.16497,-2.35488 3.53232,-1.10148c1.36735,1.2534 -1.21542,3.38038 -2.31689,3.95011c-2.62075,1.17744 -4.74774,-1.06349 -5.20352,-1.6712c-0.45578,-0.60771 -1.2534,-1.63322 -1.2534,-2.62075c0.03798,-1.06349 1.32937,-1.32936 1.97506,-0.75964z" fill="#ffab19" fill-rule="evenodd" stroke="#001026" stroke-width="0.55" stroke-linecap="round" stroke-linejoin="round"/><g fill-rule="evenodd" stroke-width="0.55"><path d="M242.19895,192.79201c0.79763,0.72165 2.54479,2.20294 2.54479,2.20294c0,0 5.43141,-0.94953 5.43141,1.78516c0,1.63322 -2.7347,2.01303 -6.41894,1.67119c-0.22788,-0.03798 -0.45578,-0.11395 -0.64569,-0.26587c-0.8356,-0.72165 -3.22845,-2.84864 -4.74773,-4.32993c-2.24093,-2.20295 -4.10205,-3.64626 -4.10205,-3.64626c-3.22846,-3.15249 -0.60771,-4.48186 0.4178,-6.30499c0.94955,-1.55725 1.36735,-1.2534 3.64626,-0.79762c1.29138,0.18991 2.05102,0.30386 2.88662,0.26587c1.2534,-0.03798 1.02551,1.78516 0.68367,2.7347c0,0 -0.53175,1.40533 -1.02551,2.12698c-0.60771,0.87358 -1.06349,1.44331 -1.51928,1.78515z" fill="#ffab19" stroke="#001026" stroke-linecap="round" stroke-linejoin="round"/><path d="M239.00848,189.98134c0,0 -0.56973,-0.45578 -1.17744,-1.02551c-0.75964,-0.68367 -1.51927,-1.25341 -0.75964,-2.43084c0.68367,-0.91156 1.32937,-2.12698 3.03855,-1.02551c1.63322,1.02551 0.91156,1.97505 0.91156,1.97505c-0.8356,1.70918 -2.01304,2.50681 -2.01304,2.50681z" fill="#ffffff" stroke="none" stroke-linecap="butt" stroke-linejoin="miter"/></g><path d="M233.27321,186.86683c0.8356,1.06349 2.12699,2.39286 0.49377,3.49433c-2.24093,1.2534 -4.10205,-2.54479 -4.48186,-3.87416c-0.34184,-1.17744 0.64569,-1.93707 1.48129,-2.58276c1.63322,-1.17744 3.00057,-2.24093 4.51985,-1.67121c1.89909,0.68367 0.53175,2.20296 -0.4178,2.88663c-0.56973,0.4178 -1.13946,0.87358 -1.55726,1.13945c-0.11395,0.18991 -0.15193,0.4178 -0.03798,0.60771z" fill="#ffab19" fill-rule="evenodd" stroke="#001026" stroke-width="0.55" stroke-linecap="round" stroke-linejoin="round"/><g fill-rule="evenodd" stroke-width="0.55"><path d="M245.2375,161.26704c0.11395,-0.07596 0.30385,-0.03798 0.34184,0.11395l0.98753,4.06406c0,0 2.43085,1.78515 3.1525,3.03855c1.21542,2.089 1.2534,3.79819 1.2534,3.79819c0,0 2.69672,0.79762 3.1525,2.96258c0.45578,2.16496 -1.21543,6.26702 -8.35602,7.67235c-7.14059,1.40533 -12.87585,-0.53175 -15.57256,-4.86168c-2.69672,-4.32993 1.55724,-9.49547 1.32936,-9.19161l-0.79762,-6.79875c-0.03798,-0.15193 0.15193,-0.26588 0.30385,-0.18992l4.5958,3.00057c0,0 1.70919,-0.64569 3.49434,-0.72165c1.06349,-0.07596 1.97506,0 2.84865,0.15193z" fill="#ffab19" stroke="#001026" stroke-linecap="butt" stroke-linejoin="miter"/><path d="M250.85882,172.43372c0,0 2.62075,0.68367 3.07654,2.84863c0.45578,2.16496 -1.36735,6.0771 -8.43198,7.44445c-9.19162,1.89909 -13.55954,-3.5703 -11.01475,-7.59638c2.54479,-4.06406 6.91271,-0.60771 10.10318,-0.83559c2.73469,-0.18991 3.03854,-2.58276 6.26701,-1.86111z" fill="#ffffff" stroke="none" stroke-linecap="butt" stroke-linejoin="miter"/><path d="M238.89454,176.49778c0,-0.15193 0.15192,-0.26588 0.30385,-0.2279c0.72165,0.26587 2.77268,0.87358 5.05159,1.02551c2.05102,0.11395 3.26645,0.00001 3.83617,-0.11394c0.18991,-0.03798 0.34183,0.15193 0.26587,0.34184c-0.34184,1.02551 -1.78514,3.87414 -5.77324,3.64626c-3.45635,-0.37982 -3.79818,-2.81065 -3.68424,-4.67177z" fill="#ffffff" stroke="#001026" stroke-linecap="round" stroke-linejoin="round"/><path d="M257.84749,172.85152c-1.78514,1.44331 -4.51984,1.48129 -4.51984,1.48129" fill="none" stroke="#001026" stroke-linecap="round" stroke-linejoin="round"/><path d="M257.35371,177.10549c-2.39286,0.18991 -3.87415,-0.53175 -3.87415,-0.53175" fill="none" stroke="#001026" stroke-linecap="round" stroke-linejoin="round"/><path d="M244.43989,173.30731c0.79763,0 1.63321,0.07595 1.67119,0.34183c0.03798,0.53175 -0.53175,1.59524 -1.13945,1.63322c-0.68367,0.07596 -2.27891,-0.87358 -2.27891,-1.48129c-0.03798,-0.45578 0.98754,-0.49376 1.74717,-0.49376z" fill="#001026" stroke="#001026" stroke-linecap="round" stroke-linejoin="round"/><path d="M227.34804,172.73757c0,0 3.26644,1.0635 4.59581,2.24093" fill="none" stroke="#001026" stroke-linecap="round" stroke-linejoin="round"/><path d="M232.05779,176.30787c-1.63322,0.64569 -4.44387,0.22789 -4.44387,0.22789" fill="none" stroke="#001026" stroke-linecap="round" stroke-linejoin="round"/><g><path d="M248.92175,168.86342c1.10147,1.70918 1.13946,3.64626 0.07596,4.32993c-1.06349,0.68367 -2.81066,-0.11395 -3.95011,-1.82313c-1.10147,-1.70918 -1.13947,-3.64626 -0.07597,-4.32994c1.06349,-0.72165 2.84865,0.11395 3.95012,1.82313z" fill="#ffffff" stroke="#001026" stroke-linecap="round" stroke-linejoin="round"/><path d="M248.76982,171.02839c0,0.4178 -0.30385,0.75964 -0.68367,0.75964c-0.37982,0 -0.68367,-0.34184 -0.68367,-0.75964c0,-0.4178 0.30385,-0.75964 0.68367,-0.75964c0.37982,0 0.68367,0.34184 0.68367,0.75964" fill="#001026" stroke="none" stroke-linecap="butt" stroke-linejoin="miter"/></g><g><path d="M239.50225,169.92692c1.13945,1.6712 1.06348,3.72222 0.03797,4.44387c-1.2534,0.72165 -2.92461,0.18991 -4.06406,-1.48129c-1.17744,-1.6712 -1.25339,-3.83617 -0.07596,-4.67177c1.17744,-0.87358 2.96259,0.03799 4.10205,1.70919z" fill="#ffffff" stroke="#001026" stroke-linecap="round" stroke-linejoin="round"/><path d="M239.27435,172.12986c0,0.4178 -0.30385,0.75964 -0.68367,0.75964c-0.37982,0 -0.68367,-0.34184 -0.68367,-0.75964c0,-0.4178 0.30385,-0.75964 0.68367,-0.75964c0.37982,0.03798 0.68367,0.34184 0.68367,0.75964" fill="#001026" stroke="none" stroke-linecap="butt" stroke-linejoin="miter"/></g></g><path d="M184.70283,235.29717v-110.59434h110.59434v110.59434z" fill="none" fill-rule="nonzero" stroke="none" stroke-width="0" stroke-linecap="butt" stroke-linejoin="miter"/></g></g></svg>