<svg version="1.1" xmlns="http://www.w3.org/2000/svg" xmlns:xlink="http://www.w3.org/1999/xlink" width="374.9944" height="220.16249" viewBox="0,0,374.9944,220.16249"><g transform="translate(-52.59518,-59.62499)"><g data-paper-data="{&quot;isPaintingLayer&quot;:true}" fill-rule="nonzero" stroke-width="1" stroke-linecap="butt" stroke-linejoin="miter" stroke-miterlimit="10" stroke-dasharray="" stroke-dashoffset="0" style="mix-blend-mode: normal"><path d="M52.59519,76.51683v-14.18787c0,-1.33052 1.08266,-2.41365 2.41365,-2.41365h127.12293c1.331,0 2.41364,1.08311 2.41364,2.41365v14.18787c0,1.33192 -1.08265,2.41412 -2.41364,2.41412h-127.12247c-1.331,0 -2.41412,-1.0822 -2.41412,-2.41412z" fill-opacity="0.50196" fill="#303133" stroke="none"/><text transform="translate(57.3538,73.13223) scale(0.30909,0.30909)" font-size="40" xml:space="preserve" fill="#ffffff" fill-rule="nonzero" stroke="#ffffff" stroke-width="1" stroke-linecap="butt" stroke-linejoin="miter" stroke-miterlimit="10" stroke-dasharray="" stroke-dashoffset="0" font-family="Sans Serif" font-weight="normal" text-anchor="start" style="mix-blend-mode: normal"><tspan x="0" dy="0">ビルハブ &gt; 編集</tspan></text><path d="M52.59519,178.07945v-90.91149c0,-1.33052 1.08266,-2.41365 2.41365,-2.41365h370.1671c1.331,0 2.41364,1.08311 2.41364,2.41365v90.91149c0,1.33192 -1.08265,2.41412 -2.41364,2.41412h-370.16664c-1.331,0 -2.41412,-1.0822 -2.41412,-2.41412z" fill-opacity="0.50196" fill="#303133" stroke="none"/><text transform="translate(57.3538,97.97123) scale(0.30909,0.30909)" font-size="40" xml:space="preserve" fill="#ffffff" fill-rule="nonzero" stroke="#ffffff" stroke-width="1" stroke-linecap="butt" stroke-linejoin="miter" stroke-miterlimit="10" stroke-dasharray="" stroke-dashoffset="0" font-family="Sans Serif" font-weight="normal" text-anchor="start" style="mix-blend-mode: normal"><tspan x="0" dy="0">デコレーション</tspan></text><path d="M52.59519,277.37336v-90.91149c0,-1.33052 1.08266,-2.41365 2.41365,-2.41365h370.16709c1.331,0 2.41364,1.08311 2.41364,2.41365v90.91149c0,1.33192 -1.08265,2.41412 -2.41364,2.41412h-370.16663c-1.331,0 -2.41412,-1.0822 -2.41412,-2.41412z" fill-opacity="0.50196" fill="#303133" stroke="none"/><text transform="translate(57.3538,197.26514) scale(0.30909,0.30909)" font-size="40" xml:space="preserve" fill="#ffffff" fill-rule="nonzero" stroke="#ffffff" stroke-width="1" stroke-linecap="butt" stroke-linejoin="miter" stroke-miterlimit="10" stroke-dasharray="" stroke-dashoffset="0" font-family="Sans Serif" font-weight="normal" text-anchor="start" style="mix-blend-mode: normal"><tspan x="0" dy="0">カラー</tspan></text></g></g></svg>