<svg version="1.1" xmlns="http://www.w3.org/2000/svg" xmlns:xlink="http://www.w3.org/1999/xlink" width="108.81671" height="242.34696" viewBox="0,0,108.81671,242.34696"><g transform="translate(-46.24834,-35.35201)"><g data-paper-data="{&quot;isPaintingLayer&quot;:true}" fill-rule="nonzero" stroke-linejoin="miter" stroke-miterlimit="10" stroke-dasharray="" stroke-dashoffset="0" style="mix-blend-mode: normal"><g stroke="none" stroke-width="1" stroke-linecap="butt"><path d="M151.1802,179.81311h-101.43788c-1.92674,0 -3.49398,-1.56657 -3.49398,-3.49466v-25.63733c0,-1.92607 1.56724,-3.49398 3.49398,-3.49398h101.43856c1.92674,0 3.49398,1.56792 3.49398,3.49398v25.63733c0,1.92809 -1.56792,3.49466 -3.49466,3.49466z" fill-opacity="0.50196" fill="#646666"/><text transform="translate(73.64838,169.72742) scale(0.5,0.5)" font-size="40" xml:space="preserve" fill="#ffffff" fill-rule="nonzero" stroke="none" stroke-width="1" stroke-linecap="butt" stroke-linejoin="miter" stroke-miterlimit="10" stroke-dasharray="" stroke-dashoffset="0" font-family="Sans Serif" font-weight="normal" text-anchor="start" style="mix-blend-mode: normal"><tspan x="0" dy="0">ショップ</tspan></text></g><g><path d="M58.02838,158.67181h11.3199l-0.70065,5.58331" fill="none" stroke="#ffffff" stroke-width="1.5" stroke-linecap="round"/><path d="M68.58194,164.45218l-9.41501,0.9853l-2.01437,-8.25455" fill="none" stroke="#ffffff" stroke-width="1.5" stroke-linecap="round"/><path d="M69.69841,167.82407l-10.49776,0.19706l0.05366,-2.49607" fill="none" stroke="#ffffff" stroke-width="1.5" stroke-linecap="round"/><path d="M59.83689,169.24809c0,-0.67878 0.55026,-1.22904 1.22905,-1.22904c0.67878,0 1.22905,0.55026 1.22905,1.22904c0,0.67878 -0.55026,1.22905 -1.22905,1.22905c-0.67878,0 -1.22905,-0.55026 -1.22905,-1.22905z" fill="#ffffff" stroke="none" stroke-width="0.5" stroke-linecap="butt"/><path d="M66.30337,169.15969c0,-0.67878 0.55026,-1.22904 1.22905,-1.22904c0.67878,0 1.22904,0.55026 1.22904,1.22904c0,0.67878 -0.55026,1.22905 -1.22904,1.22905c-0.67878,0 -1.22905,-0.55026 -1.22905,-1.22905z" fill="#ffffff" stroke="none" stroke-width="0.5" stroke-linecap="butt"/><path d="M68.00555,161.46028l-8.92763,0.53227" fill="none" stroke="#ffffff" stroke-width="1.5" stroke-linecap="round"/><path d="M61.2604,159.41587l0.91938,5.15335" fill="none" stroke="#ffffff" stroke-width="1.5" stroke-linecap="round"/><path d="M65.90505,164.25512l-0.91938,-5.15335" fill="none" stroke="#ffffff" stroke-width="1.5" stroke-linecap="round"/></g><g stroke="none" stroke-width="1" stroke-linecap="butt"><path d="M151.1802,142.53473h-101.43788c-1.92674,0 -3.49398,-1.56657 -3.49398,-3.49466v-25.63733c0,-1.92607 1.56724,-3.49398 3.49398,-3.49398h101.43856c1.92674,0 3.49398,1.56792 3.49398,3.49398v25.63733c0,1.92809 -1.56792,3.49466 -3.49466,3.49466z" fill-opacity="0.50196" fill="#646666"/><text transform="translate(73.64838,132.44905) scale(0.5,0.5)" font-size="40" xml:space="preserve" fill="#ffffff" fill-rule="nonzero" stroke="none" stroke-width="1" stroke-linecap="butt" stroke-linejoin="miter" stroke-miterlimit="10" stroke-dasharray="" stroke-dashoffset="0" font-family="Sans Serif" font-weight="normal" text-anchor="start" style="mix-blend-mode: normal"><tspan x="0" dy="0">ビルハブ</tspan></text></g><g><path d="M63.56996,131.62196h-4.86346c-0.73338,0 -1.32993,-0.59629 -1.32993,-1.33019v-9.23508c0,-0.73313 0.59655,-1.32993 1.32993,-1.32993h4.86372c0.73338,0 1.32993,0.5968 1.32993,1.32993v9.23508c0,0.7339 -0.59681,1.33019 -1.33019,1.33019z" fill="#ffffff" stroke="#878d8d" stroke-width="0.5" stroke-linecap="butt"/><path d="M68.17159,131.66855h-3.60566c-0.73338,0 -1.32993,-0.59629 -1.32993,-1.33019v-6.48655c0,-0.73313 0.59655,-1.32993 1.32993,-1.32993h3.60592c0.73338,0 1.32993,0.5968 1.32993,1.32993v6.48655c0,0.7339 -0.59681,1.33019 -1.33019,1.33019z" fill="#ffffff" stroke="#878d8d" stroke-width="0.5" stroke-linecap="butt"/><path d="M70.09707,131.62196h-12.72051" fill="none" stroke="#ffffff" stroke-width="2" stroke-linecap="round"/><path d="M58.73222,122.16673h4.1694" fill="none" stroke="#878d8d" stroke-width="0.5" stroke-linecap="round"/><path d="M58.73222,123.50861h3.45054" fill="none" stroke="#878d8d" stroke-width="0.5" stroke-linecap="round"/><path d="M61.32012,124.85048h-2.5879" fill="none" stroke="#878d8d" stroke-width="0.5" stroke-linecap="round"/><path d="M64.64362,124.37124h3.45054" fill="none" stroke="#878d8d" stroke-width="0.5" stroke-linecap="round"/><path d="M67.08775,125.71312h-2.44413" fill="none" stroke="#878d8d" stroke-width="0.5" stroke-linecap="round"/><path d="M67.32737,127.05499h-2.68375" fill="none" stroke="#878d8d" stroke-width="0.5" stroke-linecap="round"/></g><g stroke="none" stroke-width="1" stroke-linecap="butt"><path d="M151.1802,105.25636h-101.43788c-1.92674,0 -3.49398,-1.56657 -3.49398,-3.49466v-25.63733c0,-1.92607 1.56724,-3.49398 3.49398,-3.49398h101.43856c1.92674,0 3.49398,1.56792 3.49398,3.49398v25.63733c0,1.92809 -1.56792,3.49466 -3.49466,3.49466z" fill-opacity="0.50196" fill="#646666"/><text transform="translate(73.64838,95.17068) scale(0.5,0.5)" font-size="40" xml:space="preserve" fill="#ffffff" fill-rule="nonzero" stroke="none" stroke-width="1" stroke-linecap="butt" stroke-linejoin="miter" stroke-miterlimit="10" stroke-dasharray="" stroke-dashoffset="0" font-family="Sans Serif" font-weight="normal" text-anchor="start" style="mix-blend-mode: normal"><tspan x="0" dy="0">イベント</tspan></text></g><path d="M68.93221,83.89082l-4.31809,5.89618l-3.14943,-1.47581l-3.83301,5.07091" fill="none" stroke="#ffffff" stroke-width="2" stroke-linecap="round"/><path d="M68.80655,93.3821h-11.17487v-8.30565" fill="none" stroke="#ffffff" stroke-width="2" stroke-linecap="round"/><path d="M151.1802,217.09149h-101.43788c-1.92674,0 -3.49398,-1.56657 -3.49398,-3.49466v-25.63733c0,-1.92607 1.56724,-3.49398 3.49398,-3.49398h101.43856c1.92674,0 3.49398,1.56792 3.49398,3.49398v25.63733c0,1.92809 -1.56792,3.49466 -3.49466,3.49466z" fill-opacity="0.50196" fill="#646666" stroke="none" stroke-width="1" stroke-linecap="butt"/><text transform="translate(73.64838,207.00581) scale(0.33263,0.5)" font-size="40" xml:space="preserve" fill="#ffffff" fill-rule="nonzero" stroke="#ffffff" stroke-width="0.5" stroke-linecap="butt" stroke-linejoin="miter" stroke-miterlimit="10" stroke-dasharray="" stroke-dashoffset="0" font-family="Sans Serif" font-weight="normal" text-anchor="start" style="mix-blend-mode: normal"><tspan x="0" dy="0">プロフィール</tspan></text><g stroke="none" stroke-width="1" stroke-linecap="butt"><path d="M151.1802,67.97798h-101.43788c-1.92674,0 -3.49398,-1.56657 -3.49398,-3.49466v-25.63733c0,-1.92607 1.56724,-3.49398 3.49398,-3.49398h101.43856c1.92674,0 3.49398,1.56792 3.49398,3.49398v25.63733c0,1.92809 -1.56792,3.49466 -3.49466,3.49466z" fill-opacity="0.50196" fill="#646666"/><text transform="translate(73.64838,57.66499) scale(0.5,0.5)" font-size="40" xml:space="preserve" fill="#ffffff" fill-rule="nonzero" stroke="none" stroke-width="1" stroke-linecap="butt" stroke-linejoin="miter" stroke-miterlimit="10" stroke-dasharray="" stroke-dashoffset="0" font-family="Sans Serif" font-weight="normal" text-anchor="start" style="mix-blend-mode: normal"><tspan x="0" dy="0">ホーム</tspan></text></g><g stroke="none" stroke-width="1" stroke-linecap="butt"><path d="M151.1802,277.69897h-101.43788c-1.92674,0 -3.49398,-1.56657 -3.49398,-3.49466v-25.63733c0,-1.92607 1.56724,-3.49398 3.49398,-3.49398h101.43856c1.92674,0 3.49398,1.56792 3.49398,3.49398v25.63733c0,1.92809 -1.56792,3.49466 -3.49466,3.49466z" fill-opacity="0.50196" fill="#646666"/><text transform="translate(73.64838,267.61329) scale(0.5,0.5)" font-size="40" xml:space="preserve" fill="#ffffff" fill-rule="nonzero" stroke="none" stroke-width="1" stroke-linecap="butt" stroke-linejoin="miter" stroke-miterlimit="10" stroke-dasharray="" stroke-dashoffset="0" font-family="Sans Serif" font-weight="normal" text-anchor="start" style="mix-blend-mode: normal"><tspan x="0" dy="0">閉じる</tspan></text></g><g fill="none" stroke="#ffffff" stroke-width="2.5" stroke-linecap="round"><path d="M57.46389,255.11306l12.54584,12.54584"/><path d="M70.00973,255.11307l-12.54584,12.54584"/></g><path d="M70.80779,51.87509h-2.42573v6.86087h-3.30597v-3.75123h-2.67878v3.75123h-3.30573v-6.86087h-2.42573l7.07109,-7.28108z" fill="#ffffff" stroke="none" stroke-width="1" stroke-linecap="butt"/><g fill="#ffffff" stroke="none" stroke-width="0" stroke-linecap="butt"><path d="M57.86383,204.99203c0,-2.99504 2.62942,-5.42299 5.87298,-5.42299c3.24356,0 5.87298,2.42796 5.87298,5.42299c0,2.99504 -11.74596,2.99504 -11.74596,0z"/><path d="M60.94128,196.06607c0,-1.54393 1.25161,-2.79554 2.79554,-2.79554c1.54393,0 2.79554,1.25161 2.79554,2.79554c0,1.54393 -1.25161,2.79554 -2.79554,2.79554c-1.54393,0 -2.79554,-1.25161 -2.79554,-2.79554z"/></g></g></g></svg>