<svg version="1.1" xmlns="http://www.w3.org/2000/svg" xmlns:xlink="http://www.w3.org/1999/xlink" width="92.21921" height="62.49176" viewBox="0,0,92.21921,62.49176"><g transform="translate(-193.89043,-148.75412)"><g data-paper-data="{&quot;isPaintingLayer&quot;:true}" fill-rule="nonzero" stroke-linejoin="miter" stroke-miterlimit="10" stroke-dasharray="" stroke-dashoffset="0" style="mix-blend-mode: normal"><g data-paper-data="{&quot;index&quot;:null}"><path d="M260.53011,167.66197v24.66h-10.67327l-13.36625,-24.66h24.03951" fill-opacity="0.75294" fill="#b4e0d7" stroke="none" stroke-width="1" stroke-linecap="butt"/><path d="M236.56754,167.66197l13.36625,24.66h-7.18167l-13.36625,-24.66h7.18167" fill-opacity="0.74902" fill="#d4fff5" stroke="none" stroke-width="1" stroke-linecap="butt"/><path d="M225.38697,167.66197l13.31633,24.66h-4.03947l-13.36625,-24.66h4.08938" fill-opacity="0.74902" fill="#d4fff5" stroke="none" stroke-width="1" stroke-linecap="butt"/><path d="M229.38587,167.66197l13.36625,24.66h-4.08938l-13.31633,-24.66h4.03947" fill-opacity="0.75294" fill="#b4e0d7" stroke="none" stroke-width="1" stroke-linecap="butt"/><path d="M219.7675,167.66197h1.64597l13.36625,24.66h-15.01222v-24.66" fill-opacity="0.75294" fill="#b4e0d7" stroke="none" stroke-width="1" stroke-linecap="butt"/><g stroke="#5e154d" stroke-width="1.512" stroke-linecap="round"><path d="" fill="#5e154d"/><path d="M260.60702,167.66197v24.66h-40.996v-24.66h40.996" fill="none"/></g></g><path d="M194.89043,210.24588v-60.49176h90.21921v60.49176zM260.04988,192.00975l-0.04237,-24.03691l-40.02825,0.04429l-0.00558,23.98578z" fill="#d8ccb8" stroke="#666666" stroke-width="2" stroke-linecap="butt"/><path d="M195.90989,209.32838v-3.6523h88.18031v3.6523z" fill="#c0c0c0" stroke="none" stroke-width="0" stroke-linecap="butt"/></g></g></svg>