<svg version="1.1" xmlns="http://www.w3.org/2000/svg" xmlns:xlink="http://www.w3.org/1999/xlink" width="92.21921" height="62.49176" viewBox="0,0,92.21921,62.49176"><g transform="translate(-193.89041,-148.75412)"><g data-paper-data="{&quot;isPaintingLayer&quot;:true}" stroke-miterlimit="10" stroke-dasharray="" stroke-dashoffset="0" style="mix-blend-mode: normal"><path d="M194.89042,210.24588v-60.49176h90.21921v60.49176z" fill="#ffd8e3" fill-rule="nonzero" stroke="#666666" stroke-width="2" stroke-linecap="butt" stroke-linejoin="miter"/><g fill-rule="evenodd" stroke-width="0.5"><path d="M220.83792,163.57983c0.11688,-0.07792 0.31167,-0.03896 0.35063,0.11688l1.01295,4.16867c0,0 2.49341,1.8311 3.23364,3.11676c1.2467,2.14278 1.28566,3.89596 1.28566,3.89596c0,0 2.76613,0.81815 3.23364,3.03884c0.46751,2.2207 -1.2467,6.42833 -8.5711,7.86983c-7.3244,1.44151 -13.20729,-0.54543 -15.97342,-4.98682c-2.76613,-4.44139 1.59734,-9.73989 1.36359,-9.42821l-0.81815,-6.97376c-0.03896,-0.15584 0.15584,-0.27272 0.31168,-0.19479l4.71411,3.0778c0,0 1.75317,-0.66231 3.58427,-0.74023c1.09087,-0.07792 2.0259,0 2.92197,0.15584z" fill="#ffab19" stroke="#001026" stroke-linecap="butt" stroke-linejoin="miter"/><path d="M226.60394,175.03394c0,0 2.6882,0.70127 3.15572,2.92197c0.46751,2.2207 -1.40254,6.23353 -8.64902,7.63608c-9.42821,1.94798 -13.90856,-3.6622 -11.29827,-7.79191c2.61029,-4.16867 7.09064,-0.62336 10.36324,-0.85711c2.80509,-0.1948 3.11677,-2.64925 6.42833,-1.90902z" fill="#ffffff" stroke="none" stroke-linecap="butt" stroke-linejoin="miter"/><path d="M214.33168,179.20261c0,-0.15584 0.15583,-0.27272 0.31168,-0.23376c0.74023,0.27272 2.84405,0.89606 5.18162,1.05191c2.10381,0.11688 3.35052,0 3.93491,-0.11688c0.1948,-0.03896 0.35064,0.15584 0.27272,0.35064c-0.35064,1.05191 -1.8311,3.97387 -5.92185,3.74012c-3.54532,-0.3896 -3.89596,-2.883 -3.77908,-4.79202z" fill="#ffffff" stroke="#001026" stroke-linecap="round" stroke-linejoin="round"/><path d="M233.77249,175.46249c-1.8311,1.48047 -4.63619,1.51942 -4.63619,1.51942" fill="none" stroke="#001026" stroke-linecap="round" stroke-linejoin="round"/><path d="M233.26602,179.82596c-2.45445,0.1948 -3.97387,-0.54544 -3.97387,-0.54544" fill="none" stroke="#001026" stroke-linecap="round" stroke-linejoin="round"/><path d="M220.01977,175.93001c0.81815,0 1.67526,0.07792 1.71422,0.35064c0.03896,0.54543 -0.54543,1.6363 -1.16879,1.67526c-0.70127,0.07792 -2.33757,-0.89606 -2.33757,-1.51942c-0.03896,-0.46751 1.01295,-0.50647 1.79214,-0.50647z" fill="#001026" stroke="#001026" stroke-linecap="round" stroke-linejoin="round"/><path d="M202.48797,175.34561c0,0 3.35052,1.09087 4.71411,2.29862" fill="none" stroke="#001026" stroke-linecap="round" stroke-linejoin="round"/><path d="M207.31896,179.00781c-1.67526,0.66231 -4.55827,0.23376 -4.55827,0.23376" fill="none" stroke="#001026" stroke-linecap="round" stroke-linejoin="round"/><g><path d="M224.617,171.37174c1.12983,1.75318 1.16878,3.74012 0.07792,4.44139c-1.09087,0.70127 -2.88301,-0.11688 -4.05179,-1.87006c-1.12983,-1.75318 -1.16878,-3.74012 -0.07791,-4.44138c1.09087,-0.74023 2.92197,0.11688 4.05179,1.87006z" fill="#ffffff" stroke="#001026" stroke-linecap="round" stroke-linejoin="round"/><path d="M224.46116,173.59243c0,0.42855 -0.31168,0.77919 -0.70128,0.77919c-0.3896,0 -0.70127,-0.35064 -0.70127,-0.77919c0,-0.42855 0.31167,-0.77919 0.70127,-0.77919c0.3896,0 0.70128,0.35064 0.70128,0.77919" fill="#001026" stroke="none" stroke-linecap="butt" stroke-linejoin="miter"/></g><g><path d="M214.95503,172.46261c1.16879,1.71422 1.09086,3.81804 0.03895,4.55827c-1.28566,0.74023 -2.99988,0.1948 -4.16867,-1.51942c-1.20774,-1.71422 -1.28566,-3.93491 -0.07792,-4.79202c1.20774,-0.89607 3.03885,0.03896 4.20764,1.75318z" fill="#ffffff" stroke="#001026" stroke-linecap="round" stroke-linejoin="round"/><path d="M214.72127,174.72226c0,0.42855 -0.31168,0.77919 -0.70127,0.77919c-0.3896,0 -0.70127,-0.35064 -0.70127,-0.77919c0,-0.42855 0.31168,-0.7792 0.70127,-0.7792c0.3896,0.03896 0.70127,0.35064 0.70127,0.7792" fill="#001026" stroke="none" stroke-linecap="butt" stroke-linejoin="miter"/></g></g><path d="M195.90999,209.32838v-3.6523h88.18031v3.6523z" fill="#c0c0c0" fill-rule="nonzero" stroke="none" stroke-width="0" stroke-linecap="butt" stroke-linejoin="miter"/><g data-paper-data="{&quot;index&quot;:null}" fill-rule="evenodd" stroke-linejoin="miter"><path d="" fill="#d974e8" stroke="#5e154d" stroke-width="0.6" stroke-linecap="butt"/><g><path d="" fill="#8b49d4" stroke="#5e154d" stroke-width="0.6" stroke-linecap="butt"/><path d="" fill="#8b49d4" stroke="#5e154d" stroke-width="0.6" stroke-linecap="butt"/><path d="" fill="none" stroke="#ffffff" stroke-width="0.6" stroke-linecap="butt"/><path d="" fill="none" stroke="#5e154d" stroke-width="1.2" stroke-linecap="round"/><path d="" fill="none" stroke="#5e154d" stroke-width="1.2" stroke-linecap="round"/><path d="" fill="none" stroke="#5e154d" stroke-width="1.2" stroke-linecap="round"/></g></g><path d="" fill="#da53d6" fill-rule="evenodd" stroke="none" stroke-width="1" stroke-linecap="butt" stroke-linejoin="miter"/><path d="" data-paper-data="{&quot;index&quot;:null}" fill="#5e154d" fill-rule="evenodd" stroke="#5e154d" stroke-width="1.512" stroke-linecap="round" stroke-linejoin="round"/><path d="" data-paper-data="{&quot;index&quot;:null}" fill="#5e154d" fill-rule="evenodd" stroke="#5e154d" stroke-width="1.512" stroke-linecap="round" stroke-linejoin="round"/><g data-paper-data="{&quot;index&quot;:null}" fill-rule="evenodd" stroke-linecap="butt"><path d="" fill="#b3e0d7" stroke="none" stroke-width="1" stroke-linejoin="miter"/><path d="" fill="#b3e0d7" stroke="none" stroke-width="1" stroke-linejoin="miter"/><path d="" fill="#d4fff5" stroke="none" stroke-width="1" stroke-linejoin="miter"/><path d="" fill="none" stroke="#5e154d" stroke-width="1.512" stroke-linejoin="round"/></g><g data-paper-data="{&quot;index&quot;:null}" fill-rule="evenodd"><path d="" fill="#b3e0d7" stroke="none" stroke-width="1" stroke-linecap="butt" stroke-linejoin="miter"/><path d="" fill="#d4fff5" stroke="none" stroke-width="1" stroke-linecap="butt" stroke-linejoin="miter"/><path d="" fill="#d4fff5" stroke="none" stroke-width="1" stroke-linecap="butt" stroke-linejoin="miter"/><path d="" fill="#b3e0d7" stroke="none" stroke-width="1" stroke-linecap="butt" stroke-linejoin="miter"/><g stroke="#5e154d" stroke-width="1.512" stroke-linecap="round" stroke-linejoin="round"><path d="" fill="#996cd4"/><path d="" fill="#5e154d"/><path d="" fill="#5e154d"/><path d="" fill="none"/></g></g><g data-paper-data="{&quot;index&quot;:null}" fill-rule="evenodd" stroke-linecap="butt"><path d="" fill="#fc9fe4" stroke="#5e154d" stroke-width="1.512" stroke-linejoin="round"/><path d="" fill="#b3e0d7" stroke="none" stroke-width="1" stroke-linejoin="miter"/><path d="" fill="#d4fff5" stroke="none" stroke-width="1" stroke-linejoin="miter"/><path d="" fill="#b3e0d7" stroke="none" stroke-width="1" stroke-linejoin="miter"/><path d="" fill="#d4fff5" stroke="none" stroke-width="1" stroke-linejoin="miter"/><path d="" fill="#b3e0d7" stroke="none" stroke-width="1" stroke-linejoin="miter"/><path d="" fill="none" stroke="#d974e8" stroke-width="1.512" stroke-linejoin="round"/></g><g data-paper-data="{&quot;index&quot;:null}" fill-rule="evenodd" stroke-linejoin="miter"><g stroke-linecap="butt"><path d="" fill="#f7c1d8" stroke="#5e154d" stroke-width="2.016"/><path d="" fill="none" stroke="#fc9fe4" stroke-width="1.512"/><path d="" fill="#8b49d4" stroke="#5e154d" stroke-width="2.016"/><path d="" fill="none" stroke="#000000" stroke-width="2.016"/><path d="" fill="none" stroke="#000000" stroke-width="2.016"/><path d="" fill="none" stroke="#000000" stroke-width="2.016"/></g><path d="" fill="#d974e8" stroke="#5e154d" stroke-width="2.016" stroke-linecap="butt"/><path d="" fill="#fdbb38" stroke="#5e154d" stroke-width="1.512" stroke-linecap="butt"/><path d="" fill="#fdbb38" stroke="#5e154d" stroke-width="1.512" stroke-linecap="butt"/><path d="" fill="none" stroke="#ffffff" stroke-width="1.512" stroke-linecap="round"/></g><g data-paper-data="{&quot;index&quot;:null}" fill-rule="evenodd" stroke-linejoin="miter"><g fill="none" stroke="#ffffff" stroke-width="2.52" stroke-linecap="round"><path d=""/><path d=""/></g><g fill="none" stroke="#cc48cc" stroke-width="1.512" stroke-linecap="round"><path d=""/><path d=""/><path d=""/><path d=""/><path d=""/><path d=""/><path d=""/><path d=""/><path d=""/><path d=""/><path d=""/><path d=""/><path d=""/><path d=""/><path d=""/><path d=""/><path d=""/><path d=""/><path d=""/><path d=""/><path d=""/></g><path d="" fill="none" stroke="#5e154d" stroke-width="1.512" stroke-linecap="butt"/><g stroke="#4b4b4b" stroke-width="1.512" stroke-linecap="round"><path d="M283.41051,151.35646v4.82065c0,2.66235 -2.15991,4.82065 -4.82435,4.82065c-2.66455,0 -4.82445,-2.15831 -4.82445,-4.82065v-4.82065z" fill="#ffffff"/><path d="M273.59371,151.35646v4.82065c0.17055,1.82182 -0.70587,3.58315 -2.26247,4.54694c-1.5567,0.96369 -3.52527,0.96369 -5.08197,0c-1.5567,-0.96379 -2.43312,-2.72513 -2.26247,-4.54694v-4.82065z" fill="#00a712"/><path d="M263.9869,151.35646v4.82065c0,2.66235 -2.16001,4.82065 -4.82445,4.82065c-2.66445,0 -4.82445,-2.15831 -4.82445,-4.82065v-4.82065z" fill="#ffffff"/><path d="M254.33799,151.35646v4.82065c0.17055,1.82182 -0.70587,3.58315 -2.26247,4.54694c-1.5566,0.96369 -3.52517,0.96369 -5.08187,0c-1.5567,-0.96379 -2.43312,-2.72513 -2.26247,-4.54694v-4.82065z" fill="#00a712"/><path d="M244.73117,151.35646v4.82065c0,2.66235 -2.16001,4.82065 -4.82445,4.82065c-2.66455,0 -4.82445,-2.15831 -4.82445,-4.82065v-4.82065z" fill="#ffffff"/><path d="M235.08212,151.35646v4.82065c0,2.66235 -2.16001,4.82065 -4.82445,4.82065c-2.66455,0 -4.82435,-2.15831 -4.82435,-4.82065v-4.82065z" fill="#00a712"/><path d="M225.43336,151.35646v4.82065c0.17055,1.82182 -0.70587,3.58315 -2.26257,4.54694c-1.5566,0.96369 -3.52517,0.96369 -5.08187,0c-1.5567,-0.96379 -2.43312,-2.72513 -2.26247,-4.54694v-4.82065z" fill="#ffffff"/><path d="M215.82629,151.35646v4.82065c0,2.66235 -2.16001,4.82065 -4.82445,4.82065c-2.66455,0 -4.82435,-2.15831 -4.82435,-4.82065v-4.82065z" fill="#00a712"/><path d="M206.17753,151.35646v4.82065c0.17055,1.82182 -0.70587,3.58315 -2.26257,4.54694c-1.5567,0.96369 -3.52517,0.96369 -5.08187,0c-1.5567,-0.96379 -2.43312,-2.72513 -2.26257,-4.54694v-4.82065z" fill="#ffffff"/></g><path d="" fill="#5e154d" stroke="#5e154d" stroke-width="2.016" stroke-linecap="round"/></g><path d="" data-paper-data="{&quot;index&quot;:null}" fill="#c5a2fc" fill-rule="evenodd" stroke="#c5a2fc" stroke-width="1.008" stroke-linecap="butt" stroke-linejoin="miter"/><path d="" data-paper-data="{&quot;index&quot;:null}" fill="#ffffff" fill-rule="evenodd" stroke="#8b49d4" stroke-width="1.512" stroke-linecap="round" stroke-linejoin="round"/><path d="" data-paper-data="{&quot;index&quot;:null}" fill="#5e154d" fill-rule="evenodd" stroke="#5e154d" stroke-width="2.016" stroke-linecap="round" stroke-linejoin="round"/><path d="" data-paper-data="{&quot;index&quot;:null}" fill="#c5a2fc" fill-rule="evenodd" stroke="#c5a2fc" stroke-width="1.008" stroke-linecap="butt" stroke-linejoin="miter"/><path d="" data-paper-data="{&quot;index&quot;:null}" fill="#ffffff" fill-rule="evenodd" stroke="#8b49d4" stroke-width="1.512" stroke-linecap="round" stroke-linejoin="round"/><g data-paper-data="{&quot;index&quot;:null}" fill-rule="evenodd" stroke-linejoin="miter"><path d="" fill="#fde982" stroke="#e89f1f" stroke-width="1.512" stroke-linecap="butt"/><path d="" fill="none" stroke="#ffffff" stroke-width="1.512" stroke-linecap="round"/><g stroke="#fdbb38"><path d="" fill="none" stroke-width="2.016" stroke-linecap="round"/><path d="" fill="none" stroke-width="2.1" stroke-linecap="butt"/><path d="" fill="none" stroke-width="1.512" stroke-linecap="butt"/><path d="" fill="#fdbb38" stroke-width="1.512" stroke-linecap="butt"/><path d="" fill="none" stroke-width="1.512" stroke-linecap="butt"/><path d="" fill="none" stroke-width="1.512" stroke-linecap="butt"/><path d="" fill="none" stroke-width="1.512" stroke-linecap="butt"/><path d="" fill="none" stroke-width="1.512" stroke-linecap="butt"/><path d="" fill="none" stroke-width="1.512" stroke-linecap="butt"/><path d="" fill="none" stroke-width="1.512" stroke-linecap="butt"/><path d="" fill="#fdbb38" stroke-width="1.512" stroke-linecap="butt"/><path d="" fill="#fdbb38" stroke-width="1.512" stroke-linecap="butt"/><path d="" fill="#fdbb38" stroke-width="1.512" stroke-linecap="butt"/><path d="" fill="#fdbb38" stroke-width="1.512" stroke-linecap="butt"/><path d="" fill="#fdbb38" stroke-width="1.512" stroke-linecap="butt"/><path d="" fill="none" stroke-width="1.512" stroke-linecap="butt"/><path d="" fill="none" stroke-width="1.512" stroke-linecap="butt"/><path d="" fill="none" stroke-width="1.512" stroke-linecap="butt"/><path d="" fill="none" stroke-width="1.512" stroke-linecap="butt"/><path d="" fill="none" stroke-width="1.512" stroke-linecap="butt"/><path d="" fill="none" stroke-width="1.512" stroke-linecap="butt"/></g></g><path d="" data-paper-data="{&quot;index&quot;:null}" fill="#ffffff" fill-rule="evenodd" stroke="#fc9fe4" stroke-width="1.512" stroke-linecap="round" stroke-linejoin="round"/><g data-paper-data="{&quot;index&quot;:null}" fill-rule="evenodd" stroke-linecap="butt" stroke-linejoin="miter"><path d="" fill="#43c3d7" stroke="#43c3d7" stroke-width="1.218"/><g><path d="" fill="#ea3681" stroke="#ea3681" stroke-width="1.512"/><path d="" fill="none" stroke="#ffffff" stroke-width="1.218"/><path d="" fill="none" stroke="#ffffff" stroke-width="1.218"/><path d="" fill="none" stroke="#ffffff" stroke-width="1.218"/><path d="" fill="none" stroke="#ffffff" stroke-width="1.218"/><path d="" fill="none" stroke="#ffffff" stroke-width="1.218"/><path d="" fill="none" stroke="#ffffff" stroke-width="1.218"/></g></g><path d="" data-paper-data="{&quot;index&quot;:null}" fill="#ffffff" fill-rule="evenodd" stroke="#fc9fe4" stroke-width="1.512" stroke-linecap="round" stroke-linejoin="round"/><g data-paper-data="{&quot;index&quot;:null}" fill-rule="evenodd"><g fill="#ffffff" stroke="none" stroke-width="1" stroke-linecap="butt" stroke-linejoin="miter"><path d=""/><path d=""/><path d=""/></g><path d="" fill="#f7c1d8" stroke="none" stroke-width="1" stroke-linecap="butt" stroke-linejoin="miter"/><path d="" fill="#ea3681" stroke="none" stroke-width="1" stroke-linecap="butt" stroke-linejoin="miter"/><path d="" fill="none" stroke="#663c1d" stroke-width="1.008" stroke-linecap="round" stroke-linejoin="round"/><path d="" fill="none" stroke="#663c1d" stroke-width="1.008" stroke-linecap="round" stroke-linejoin="round"/><path d="" fill="none" stroke="#663c1d" stroke-width="1.008" stroke-linecap="round" stroke-linejoin="round"/></g><g data-paper-data="{&quot;index&quot;:null}" fill-rule="evenodd"><g fill="#ffffff" stroke="none" stroke-width="1" stroke-linecap="butt" stroke-linejoin="miter"><path d=""/><path d=""/><path d=""/></g><path d="" fill="#fde982" stroke="none" stroke-width="1" stroke-linecap="butt" stroke-linejoin="miter"/><path d="" fill="#fdbb38" stroke="none" stroke-width="1" stroke-linecap="butt" stroke-linejoin="miter"/><path d="" fill="none" stroke="#663c1d" stroke-width="1.008" stroke-linecap="round" stroke-linejoin="round"/><path d="" fill="none" stroke="#663c1d" stroke-width="1.008" stroke-linecap="round" stroke-linejoin="round"/><path d="" fill="none" stroke="#663c1d" stroke-width="1.008" stroke-linecap="round" stroke-linejoin="round"/></g><path d="M195.91678,204.63542v-20.16667h41.33333v20.16667z" fill="#8d6547" fill-rule="nonzero" stroke="#666666" stroke-width="0" stroke-linecap="butt" stroke-linejoin="miter"/><path d="M273.68503,204.83036v-39.57143h9.50352v39.57143z" fill="#b28059" fill-rule="nonzero" stroke="#b28059" stroke-width="2" stroke-linecap="butt" stroke-linejoin="miter"/><path d="M237.21435,204.66369v-39.57143h10.18738v39.57143z" fill="#b28059" fill-rule="nonzero" stroke="#b28059" stroke-width="2" stroke-linecap="butt" stroke-linejoin="miter"/></g></g></svg>