<svg version="1.1" xmlns="http://www.w3.org/2000/svg" xmlns:xlink="http://www.w3.org/1999/xlink" width="92.21921" height="62.49176" viewBox="0,0,92.21921,62.49176"><defs><linearGradient x1="200.93094" y1="174.00762" x2="205.17861" y2="173.03703" gradientUnits="userSpaceOnUse" id="color-1"><stop offset="0" stop-color="#94cde6"/><stop offset="1" stop-color="#94cde6" stop-opacity="0"/></linearGradient></defs><g transform="translate(-193.89043,-148.64014)"><g data-paper-data="{&quot;isPaintingLayer&quot;:true}" fill-rule="nonzero" stroke-linejoin="miter" stroke-miterlimit="10" stroke-dasharray="" stroke-dashoffset="0" style="mix-blend-mode: normal"><path d="M194.89044,210.1319v-60.49176h90.21921v60.49176zM262.25667,184.52738l-0.16253,-24.27899l-40.35894,-0.09475l-0.09475,24.02171z" fill="#e3f3db" stroke="#666666" stroke-width="2" stroke-linecap="butt"/><g data-paper-data="{&quot;index&quot;:null}"><path d="M262.53665,160.05757v24.66h-10.67327l-13.36625,-24.66h24.03951" fill-opacity="0.75294" fill="#b4e0d7" stroke="none" stroke-width="1" stroke-linecap="butt"/><path d="M238.49714,160.05757l13.36625,24.66h-7.18167l-13.36625,-24.66h7.18167" fill-opacity="0.74902" fill="#d4fff5" stroke="none" stroke-width="1" stroke-linecap="butt"/><path d="M227.3166,160.05757l13.31633,24.66h-4.03947l-13.36625,-24.66h4.08938" fill-opacity="0.74902" fill="#d4fff5" stroke="none" stroke-width="1" stroke-linecap="butt"/><path d="M231.31547,160.05757l13.36625,24.66h-4.08938l-13.31633,-24.66h4.03947" fill-opacity="0.75294" fill="#b4e0d7" stroke="none" stroke-width="1" stroke-linecap="butt"/><path d="M221.6971,160.05757h1.64597l13.36625,24.66h-15.01222v-24.66" fill-opacity="0.75294" fill="#b4e0d7" stroke="none" stroke-width="1" stroke-linecap="butt"/><g stroke-width="1.512" stroke-linecap="round"><path d="" fill="#5e154d" stroke="#5e154d"/><path d="M262.53665,160.05757v24.66h-40.996v-24.66h40.996" fill="none" stroke="#666666"/></g></g><path d="M195.90994,209.32837v-3.6523h88.18031v3.6523z" fill="#c0c0c0" stroke="none" stroke-width="0" stroke-linecap="butt"/><path d="M264.21432,205.83036v-44.57143h20v44.57143z" fill="#b28059" stroke="none" stroke-width="0" stroke-linecap="butt"/><path d="M227.46547,204.95625v-14.1l13.7,0.4l-0.3,-20.2l0.5,33.9" fill="none" stroke="#8d6547" stroke-width="2.5" stroke-linecap="round"/><path d="M239.06547,189.20625c0,0.35898 -2.73107,0.65 -6.1,0.65c-3.36893,0 -6.1,-0.29102 -6.1,-0.65c0,-0.35898 2.73107,-0.65 6.1,-0.65c3.36893,0 6.1,0.29102 6.1,0.65z" fill="#4c4c4c" stroke="#666666" stroke-width="2" stroke-linecap="butt"/><path d="M196.93353,204.35625v-22.9h22.8l-10.1,22.9z" fill="none" stroke="#b28059" stroke-width="2.5" stroke-linecap="butt"/><g><path d="M210.22938,179.3125h-9.11111l-2,-9.22222" fill="none" stroke="#818181" stroke-width="2" stroke-linecap="round"/><path d="M201.94131,178.42937l-2.02072,-8.8435l2.19539,-0.50164c0.74921,0.92786 1.66093,1.71904 2.69189,2.33028l1.3811,6.04428z" fill="url(#color-1)" stroke="none" stroke-width="0" stroke-linecap="butt"/></g></g></g></svg>