<svg version="1.1" xmlns="http://www.w3.org/2000/svg" xmlns:xlink="http://www.w3.org/1999/xlink" width="39.56166" height="14.27542" viewBox="0,0,39.56166,14.27542"><g transform="translate(-240.55017,-173.24322)"><g data-paper-data="{&quot;isPaintingLayer&quot;:true}" fill-rule="evenodd" stroke-width="0.5" stroke-miterlimit="10" stroke-dasharray="" stroke-dashoffset="0" style="mix-blend-mode: normal"><g><path d="M251.98507,173.45125c0.07098,-0.04732 0.18996,-0.02366 0.21362,0.07098l0.6172,2.5405c0,0 1.51971,1.11612 1.97062,1.89964c0.75986,1.30609 0.78351,2.37489 0.78351,2.37489c0,0 1.68602,0.49892 1.97062,1.85233c0.2846,1.35341 -0.75986,3.91826 -5.22436,4.79641c-4.4645,0.87815 -8.05016,-0.33261 -9.73617,-3.03942c-1.68601,-2.70681 0.97487,-5.9362 0.83222,-5.74623l-0.49822,-4.25018c-0.02366,-0.09533 0.09533,-0.16631 0.18996,-0.11899l2.87312,1.87598c0,0 1.0688,-0.40359 2.18493,-0.4509c0.66522,-0.04731 1.23511,0 1.78065,0.09533z" fill="#ffab19" stroke="#001026" stroke-linecap="butt" stroke-linejoin="miter"/><g fill="#ffffff" stroke-linecap="butt"><path d="M255.49905,180.4326c0,0 1.63869,0.42724 1.92329,1.78065c0.2846,1.3534 -0.85519,3.79928 -5.27167,4.65447c-5.74623,1.1871 -8.4774,-2.23225 -6.88671,-4.7491c1.59068,-2.5405 4.32185,-0.37993 6.31613,-0.52257c1.70968,-0.11899 1.89964,-1.61505 3.91827,-1.16344z" stroke="none" stroke-linejoin="miter"/><path d="M248.01949,182.9731c0,-0.09533 0.09533,-0.1663 0.18997,-0.14264c0.45091,0.1663 1.73333,0.54623 3.15841,0.64086c1.28243,0.07098 2.04228,0 2.39855,-0.07097c0.11899,-0.02366 0.21362,0.09533 0.16631,0.21362c-0.21362,0.64087 -1.11612,2.42221 -3.60931,2.27957c-2.16058,-0.23728 -2.37489,-1.757 -2.30322,-2.92044z" stroke="#001026" stroke-linejoin="round"/></g><path d="M259.86892,180.69354c-1.11612,0.9025 -2.8258,0.92616 -2.8258,0.92616M259.55996,183.35303c-1.49605,0.11899 -2.42221,-0.33261 -2.42221,-0.33261" fill="none" stroke="#001026" stroke-linecap="round" stroke-linejoin="round"/><path d="M251.48615,180.97883c0.49891,0 1.02079,0.04732 1.04515,0.21362c0.02366,0.33261 -0.33261,0.99713 -0.71254,1.02079c-0.42724,0.04731 -1.42507,-0.54623 -1.42507,-0.92616c-0.02366,-0.28529 0.61721,-0.30895 1.09247,-0.30895z" fill="#001026" stroke="#001026" stroke-linecap="butt" stroke-linejoin="round"/><path d="M240.80017,180.62256c0,0 2.04228,0.66522 2.87311,1.40072M243.74495,182.85481c-1.0208,0.40359 -2.77848,0.14265 -2.77848,0.14265" fill="none" stroke="#001026" stroke-linecap="round" stroke-linejoin="round"/><path d="M254.28829,178.20035c0.68888,1.0688 0.71254,2.27956 0.04732,2.70681c-0.66522,0.42724 -1.75699,-0.07098 -2.46953,-1.13979c-0.68888,-1.0688 -0.71254,-2.27956 -0.04732,-2.70681c0.66522,-0.4509 1.78065,0.07098 2.46953,1.13979z" fill="#ffffff" stroke="#001026" stroke-linecap="butt" stroke-linejoin="round"/><path d="M254.19296,179.55376c0,0.26094 -0.18997,0.47526 -0.42724,0.47526c-0.23728,0 -0.42724,-0.21362 -0.42724,-0.47526c0,-0.26163 0.18997,-0.47526 0.42724,-0.47526c0.23728,0 0.42724,0.21363 0.42724,0.47526" fill="#001026" stroke="none" stroke-linecap="butt" stroke-linejoin="miter"/><path d="M248.39941,178.86557c0.71254,1.04515 0.66523,2.32688 0.02366,2.77848c-0.78351,0.45091 -1.82867,0.11899 -2.54051,-0.92616c-0.73619,-1.04515 -0.78351,-2.39855 -0.04731,-2.92043c0.73619,-0.54623 1.85232,0.02366 2.56486,1.0688z" fill="#ffffff" stroke="#001026" stroke-linecap="butt" stroke-linejoin="round"/><path d="M248.25677,180.24264c0,0.26094 -0.18997,0.47526 -0.42724,0.47526c-0.23728,0 -0.42724,-0.21362 -0.42724,-0.47526c0,-0.26163 0.18997,-0.47526 0.42724,-0.47526c0.24518,0.02154 0.43184,0.22919 0.42724,0.47526" fill="#001026" stroke="none" stroke-linecap="butt" stroke-linejoin="miter"/></g><g><path d="M271.97798,173.45125c0.07098,-0.04731 0.18997,-0.02365 0.21363,0.07098l0.6172,2.5405c0,0 1.51971,1.11612 1.97061,1.89963c0.75986,1.30609 0.78352,2.3749 0.78352,2.3749c0,0 1.68601,0.49892 1.97061,1.85233c0.2846,1.35341 -0.75986,3.91826 -5.22436,4.79641c-4.4645,0.87815 -8.05016,-0.33261 -9.73617,-3.03942c-1.68601,-2.70681 0.97487,-5.9362 0.83223,-5.74623l-0.49822,-4.25018c-0.02366,-0.09533 0.09533,-0.1663 0.18997,-0.11899l2.87311,1.87598c0,0 1.0688,-0.40359 2.18493,-0.4509c0.66522,-0.04731 1.23512,0 1.78065,0.09533z" fill="#ffab19" stroke="#001026" stroke-linecap="butt" stroke-linejoin="miter"/><g fill="#ffffff" stroke-linecap="butt"><path d="M275.49196,180.4326c0,0 1.63869,0.42724 1.92329,1.78065c0.2846,1.35341 -0.85519,3.79928 -5.27167,4.65446c-5.74623,1.1871 -8.47739,-2.23225 -6.88671,-4.74909c1.59068,-2.5405 4.32185,-0.37993 6.31613,-0.52258c1.70968,-0.11899 1.89964,-1.61505 3.91826,-1.16344z" stroke="none" stroke-linejoin="miter"/><path d="M268.0124,182.9731c0,-0.09533 0.09533,-0.1663 0.18997,-0.14264c0.45091,0.1663 1.73333,0.54623 3.15841,0.64086c1.28243,0.07098 2.04228,0 2.39855,-0.07098c0.11899,-0.02366 0.21362,0.09534 0.16631,0.21363c-0.21362,0.64086 -1.11612,2.42221 -3.60931,2.27956c-2.16058,-0.23728 -2.37489,-1.75699 -2.30322,-2.92043z" stroke="#001026" stroke-linejoin="round"/></g><path d="M279.86183,180.69354c-1.11612,0.9025 -2.8258,0.92616 -2.8258,0.92616M279.55287,183.35303c-1.49605,0.11899 -2.42221,-0.33261 -2.42221,-0.33261" fill="none" stroke="#001026" stroke-linecap="round" stroke-linejoin="round"/><path d="M271.47906,180.97883c0.49891,0 1.0208,0.04732 1.04515,0.21362c0.02366,0.33261 -0.33261,0.99713 -0.71254,1.02079c-0.42724,0.04731 -1.42508,-0.54623 -1.42508,-0.92616c-0.02366,-0.28529 0.61721,-0.30895 1.09247,-0.30895z" fill="#001026" stroke="#001026" stroke-linecap="butt" stroke-linejoin="round"/><path d="M260.79308,180.62257c0,0 2.04228,0.66522 2.87311,1.40072M263.73786,182.85481c-1.02079,0.40358 -2.77848,0.14265 -2.77848,0.14265" fill="none" stroke="#001026" stroke-linecap="round" stroke-linejoin="round"/><path d="M274.2812,178.20035c0.68888,1.0688 0.71254,2.27957 0.04732,2.70681c-0.66522,0.42724 -1.75699,-0.07098 -2.46953,-1.13979c-0.68888,-1.0688 -0.71254,-2.27956 -0.04732,-2.70681c0.66522,-0.45091 1.78065,0.07098 2.46953,1.13978z" fill="#ffffff" stroke="#001026" stroke-linecap="butt" stroke-linejoin="round"/><path d="M274.18587,179.55376c0,0.26094 -0.18997,0.47526 -0.42724,0.47526c-0.23728,0 -0.42724,-0.21362 -0.42724,-0.47526c0,-0.26164 0.18997,-0.47526 0.42724,-0.47526c0.23728,0 0.42724,0.21362 0.42724,0.47526" fill="#001026" stroke="none" stroke-linecap="butt" stroke-linejoin="miter"/><path d="M268.39232,178.86558c0.71254,1.04515 0.66523,2.32688 0.02366,2.77848c-0.78351,0.45091 -1.82867,0.11899 -2.5405,-0.92616c-0.73619,-1.04515 -0.78351,-2.39855 -0.04731,-2.92043c0.73619,-0.54623 1.85232,0.02365 2.56486,1.0688z" fill="#ffffff" stroke="#001026" stroke-linecap="butt" stroke-linejoin="round"/><path d="M268.24968,180.24264c0,0.26094 -0.18997,0.47526 -0.42724,0.47526c-0.23728,0 -0.42725,-0.21362 -0.42725,-0.47526c0,-0.26164 0.18997,-0.47526 0.42725,-0.47526c0.24518,0.02154 0.43184,0.22919 0.42724,0.47526" fill="#001026" stroke="none" stroke-linecap="butt" stroke-linejoin="miter"/></g></g></g></svg>