<svg version="1.1" xmlns="http://www.w3.org/2000/svg" xmlns:xlink="http://www.w3.org/1999/xlink" width="364.35979" height="180.16516" viewBox="0,0,364.35979,180.16516"><g transform="translate(-57.91248,-83.81398)"><g data-paper-data="{&quot;isPaintingLayer&quot;:true}" fill-rule="nonzero" stroke-linejoin="miter" stroke-miterlimit="10" stroke-dasharray="" stroke-dashoffset="0" style="mix-blend-mode: normal"><path d="M146.33365,100.05583v-12.88787c0,-1.33052 1.08266,-2.41365 2.41365,-2.41365h51.42292c1.331,0 2.41364,1.08311 2.41364,2.41365v12.88787c0,1.33192 -1.08265,2.41412 -2.41364,2.41412h-51.42246c-1.331,0 -2.41412,-1.0822 -2.41412,-2.41412z" fill-opacity="0.50196" fill="#303133" stroke="none" stroke-width="1" stroke-linecap="butt"/><g fill="none" stroke="#ffffff" stroke-width="2.5" stroke-linecap="round"><path d="M162.77606,98.83713l-10.45,-10.45"/><path d="M162.77606,88.38713l-10.45,10.45"/></g><text transform="translate(169.16439,97.32121) scale(0.30909,0.30909)" font-size="40" xml:space="preserve" fill="#ffffff" fill-rule="nonzero" stroke="#ffffff" stroke-width="1" stroke-linecap="butt" stroke-linejoin="miter" stroke-miterlimit="10" stroke-dasharray="" stroke-dashoffset="0" font-family="Sans Serif" font-weight="normal" text-anchor="start" style="mix-blend-mode: normal"><tspan x="0" dy="0">なし</tspan></text><path d="M60.32661,119.7116h10.86659c1.33052,0 2.41365,1.08266 2.41365,2.41365v40.14632c0,1.331 -1.08311,2.41364 -2.41365,2.41364h-10.86659c-1.33192,0 -2.41412,-1.08265 -2.41412,-2.41364v-40.14586c0,-1.331 1.0822,-2.41412 2.41412,-2.41412z" fill-opacity="0.50196" fill="#303133" stroke="none" stroke-width="1" stroke-linecap="butt"/><path d="M68.88646,135.15366v14.0895l-8.21863,-7.04475z" fill="#ffffff" stroke="none" stroke-width="0" stroke-linecap="butt"/><path d="M419.85815,119.71159c1.33192,0 2.41412,1.08312 2.41412,2.41412v40.14587c0,1.33099 -1.0822,2.41364 -2.41412,2.41364h-10.86659c-1.33054,0 -2.41365,-1.08264 -2.41365,-2.41364v-40.14633c0,-1.33099 1.08313,-2.41365 2.41365,-2.41365h10.86659z" data-paper-data="{&quot;index&quot;:null}" fill-opacity="0.50196" fill="#303133" stroke="none" stroke-width="1" stroke-linecap="butt"/><path d="M419.51694,142.19841l-8.21864,7.04475v-14.0895z" data-paper-data="{&quot;index&quot;:null}" fill="#ffffff" stroke="none" stroke-width="0" stroke-linecap="butt"/><path d="M60.3266,219.00552h10.86659c1.33052,0 2.41365,1.08266 2.41365,2.41365v40.14633c0,1.331 -1.08311,2.41364 -2.41365,2.41364h-10.86659c-1.33192,0 -2.41412,-1.08265 -2.41412,-2.41364v-40.14587c0,-1.331 1.0822,-2.41412 2.41412,-2.41412z" fill-opacity="0.50196" fill="#303133" stroke="none" stroke-width="1" stroke-linecap="butt"/><path d="M68.88645,234.44758v14.0895l-8.21864,-7.04475z" fill="#ffffff" stroke="none" stroke-width="0" stroke-linecap="butt"/><path d="M419.85813,219.00551c1.33192,0 2.41412,1.08312 2.41412,2.41412v40.14587c0,1.33099 -1.0822,2.41364 -2.41412,2.41364h-10.86659c-1.33054,0 -2.41365,-1.08264 -2.41365,-2.41364v-40.14633c0,-1.33099 1.08313,-2.41365 2.41365,-2.41365h10.86659z" data-paper-data="{&quot;index&quot;:null}" fill-opacity="0.50196" fill="#303133" stroke="none" stroke-width="1" stroke-linecap="butt"/><path d="M419.51692,241.49233l-8.21864,7.04475v-14.0895z" data-paper-data="{&quot;index&quot;:null}" fill="#ffffff" stroke="none" stroke-width="0" stroke-linecap="butt"/><path d="M96.87925,199.34974v-12.88787c0,-1.33052 1.08266,-2.41365 2.41365,-2.41365h51.42292c1.331,0 2.41364,1.08311 2.41364,2.41365v12.88787c0,1.33192 -1.08265,2.41412 -2.41364,2.41412h-51.42246c-1.331,0 -2.41412,-1.0822 -2.41412,-2.41412z" fill-opacity="0.50196" fill="#303133" stroke="none" stroke-width="1" stroke-linecap="butt"/><g fill="none" stroke="#ffffff" stroke-width="2.5" stroke-linecap="round"><path d="M113.32166,198.13104l-10.45,-10.45"/><path d="M113.32166,187.68104l-10.45,10.45"/></g><text transform="translate(119.70999,196.61512) scale(0.30909,0.30909)" font-size="40" xml:space="preserve" fill="#ffffff" fill-rule="nonzero" stroke="#ffffff" stroke-width="1" stroke-linecap="butt" stroke-linejoin="miter" stroke-miterlimit="10" stroke-dasharray="" stroke-dashoffset="0" font-family="Sans Serif" font-weight="normal" text-anchor="start" style="mix-blend-mode: normal"><tspan x="0" dy="0">なし</tspan></text></g></g></svg>