<svg version="1.1" xmlns="http://www.w3.org/2000/svg" xmlns:xlink="http://www.w3.org/1999/xlink" width="92.21921" height="62.49176" viewBox="0,0,92.21921,62.49176"><defs><linearGradient x1="240.00016" y1="149.75412" x2="240.00016" y2="210.24588" gradientUnits="userSpaceOnUse" id="color-1"><stop offset="0" stop-color="#dbdac8"/><stop offset="1" stop-color="#99958d"/></linearGradient></defs><g transform="translate(-193.89055,-148.75412)"><g data-paper-data="{&quot;isPaintingLayer&quot;:true}" fill-rule="nonzero" stroke-linejoin="miter" stroke-miterlimit="10" stroke-dasharray="" stroke-dashoffset="0" style="mix-blend-mode: normal"><path d="M194.89056,210.24588v-60.49176h90.21921v60.49176z" fill="url(#color-1)" stroke="#666666" stroke-width="2" stroke-linecap="butt"/><path d="M253.2595,175.42243h10.10959" fill="none" stroke="#57541f" stroke-width="2" stroke-linecap="round"/><path d="M257.08027,201.09785l6.44216,-13.00411" fill="none" stroke="#57541f" stroke-width="2" stroke-linecap="round"/><path d="M263.02048,188.80893l-6.06575,-16.31479" fill="none" stroke="#7a762c" stroke-width="2" stroke-linecap="round"/><path d="M256.95471,194.94439l6.66114,2.06622" fill="none" stroke="#7a762c" stroke-width="2" stroke-linecap="round"/><path d="M256.11807,183.78899l7.18129,-3.2769" fill="none" stroke="#a5a03b" stroke-width="2" stroke-linecap="round"/><path d="M254.44476,185.74118l7.73906,15.82674" fill="none" stroke="#a5a03b" stroke-width="2" stroke-linecap="round"/><g stroke-linecap="butt"><path d="M195.91,205.6761v-38.51385h30.52236v38.51385z" fill="#c5b7ac" stroke="#666666" stroke-width="2"/><path d="M198.08551,202.41942v-32.00048h7.45888v32.00048z" fill="#89807a" stroke="none" stroke-width="0"/><path d="M207.44566,202.41942v-32.00048h7.45888v32.00048z" data-paper-data="{&quot;index&quot;:null}" fill="#89807a" stroke="none" stroke-width="0"/><path d="M216.80583,202.41941v-32.00048h7.45888v32.00048z" data-paper-data="{&quot;index&quot;:null}" fill="#89807a" stroke="none" stroke-width="0"/></g><g stroke-linecap="butt"><path d="M226.43236,205.6761v-38.51385h30.52236v38.51385z" fill="#c5b7ac" stroke="#666666" stroke-width="2"/><path d="M228.60786,202.41943v-32.00048h7.45888v32.00048z" fill="#89807a" stroke="none" stroke-width="0"/><path d="M237.96802,202.41943v-32.00048h7.45888v32.00048z" data-paper-data="{&quot;index&quot;:null}" fill="#89807a" stroke="none" stroke-width="0"/><path d="M247.32819,202.41941v-32.00047h7.45888v32.00047z" data-paper-data="{&quot;index&quot;:null}" fill="#89807a" stroke="none" stroke-width="0"/></g><path d="M262.40621,204.99436v-40.49383h19.4574v40.49383z" fill="#373737" stroke="#666666" stroke-width="2" stroke-linecap="butt"/><path d="M195.91,209.3284v-3.6523h88.18031v3.6523z" fill="#c0c0c0" stroke="none" stroke-width="0" stroke-linecap="butt"/><path d="M194.89056,165.81363v-16.05951h19.4574v16.05951z" fill="#c8baa2" stroke="#666666" stroke-width="2" stroke-linecap="butt"/><path d="M201.19833,163.91345l2.20258,-5.10229l-2.7804,-0.85094l7.40487,-6.30591l-2.15954,5.057l2.75211,0.88343z" fill="#fffa9f" stroke="none" stroke-width="0" stroke-linecap="butt"/><path d="M277.8014,150.88054v12.61955" fill="none" stroke="#666666" stroke-width="3.5" stroke-linecap="round"/><path d="M272.5723,163.50009v-12.61955" fill="none" stroke="#666666" stroke-width="3.5" stroke-linecap="round"/><path d="M267.3432,163.50009v-12.61955" fill="none" stroke="#666666" stroke-width="3.5" stroke-linecap="round"/></g></g></svg>