<svg version="1.1" xmlns="http://www.w3.org/2000/svg" xmlns:xlink="http://www.w3.org/1999/xlink" width="92.21921" height="62.49176" viewBox="0,0,92.21921,62.49176"><g transform="translate(-193.89042,-148.75413)"><g data-paper-data="{&quot;isPaintingLayer&quot;:true}" fill-rule="nonzero" stroke-linejoin="miter" stroke-miterlimit="10" stroke-dasharray="" stroke-dashoffset="0" style="mix-blend-mode: normal"><path d="M198.81197,207.34685v-54.69369h82.3761v54.69369z" fill="none" stroke="#c99355" stroke-width="6" stroke-linecap="butt"/><path d="M194.89043,210.24589v-15.45093h90.21921v15.45093z" fill-opacity="0.50196" fill="#f2f6fa" stroke="#666666" stroke-width="2" stroke-linecap="butt"/><path d="M195.9099,209.32839v-3.6523h88.18031v3.6523z" fill="#c0c0c0" stroke="none" stroke-width="0" stroke-linecap="butt"/><g fill="none" stroke="#bf7736" stroke-width="2" stroke-linecap="round"><g><path d="M212.78578,189.19957l0.04123,15.46358"/><path d="M219.58087,189.21979l-13.5811,0.06677"/></g><g><path d="M221.78569,204.67404v-9.72273"/><path d="M225.69296,183.04778l0.18173,11.35833h-7.6328"/></g><g data-paper-data="{&quot;index&quot;:null}"><path d="M203.44714,194.9513v9.72273"/><path d="M206.99095,194.40611h-7.6328l0.18173,-11.35833"/></g></g><g data-paper-data="{&quot;index&quot;:null}" fill="none" stroke="#bf7736" stroke-width="2" stroke-linecap="round"><g><path d="M267.21432,189.19957l-0.04123,15.46358"/><path d="M260.41924,189.21979l13.5811,0.06677"/></g><g><path d="M258.21441,194.95131v9.72273"/><path d="M261.7582,194.40611h-7.6328l0.18173,-11.35833"/></g><g data-paper-data="{&quot;index&quot;:null}"><path d="M276.55296,194.9513v9.72273"/><path d="M280.4602,183.04778l0.18173,11.35833h-7.6328"/></g></g><path d="M194.89043,210.24589v-60.49176h90.21921v60.49176z" fill-opacity="0.14118" fill="#b8c9e6" stroke="#666666" stroke-width="2" stroke-linecap="butt"/></g></g></svg>