<svg version="1.1" xmlns="http://www.w3.org/2000/svg" xmlns:xlink="http://www.w3.org/1999/xlink" width="92.21924" height="62.51154" viewBox="0,0,92.21924,62.51154"><g transform="translate(-193.89039,-148.73434)"><g data-paper-data="{&quot;isPaintingLayer&quot;:true}" fill-rule="nonzero" stroke-linejoin="miter" stroke-miterlimit="10" stroke-dasharray="" stroke-dashoffset="0" style="mix-blend-mode: normal"><path d="M194.8904,210.24588v-60.49176h90.21921v60.49176z" fill="#dcf9fb" stroke="#666666" stroke-width="2" stroke-linecap="butt"/><path d="M195.90989,209.32838v-3.6523h88.18031v3.6523z" fill="#c0c0c0" stroke="none" stroke-width="0" stroke-linecap="butt"/><path d="M194.89043,166.89435v-17.14023h90.21921v17.14023z" fill="#ff0000" stroke="#666666" stroke-width="2" stroke-linecap="butt"/><text transform="translate(204.6401,162.42397) scale(0.31632,0.31632)" font-size="40" xml:space="preserve" fill="#fffafa" fill-rule="nonzero" stroke="none" stroke-width="1" stroke-linecap="butt" stroke-linejoin="miter" stroke-miterlimit="10" stroke-dasharray="" stroke-dashoffset="0" font-family="Sans Serif" font-weight="normal" text-anchor="start" style="mix-blend-mode: normal"><tspan x="0" dy="0">カラオケ Cat</tspan></text><g data-paper-data="{&quot;index&quot;:null}"><path d="M224.3401,173.58742v20.32675h-6.08498l-7.62028,-20.32675h13.70525" fill-opacity="0.75294" fill="#b4e0d7" stroke="none" stroke-width="1" stroke-linecap="butt"/><path d="M210.63487,173.58742l7.62028,20.32675h-4.09437l-7.62028,-20.32675h4.09437" fill-opacity="0.74902" fill="#d4fff5" stroke="none" stroke-width="1" stroke-linecap="butt"/><path d="M204.24277,173.58742l7.59182,20.32675h-2.30296l-7.62028,-20.32675h2.33141" fill-opacity="0.74902" fill="#d4fff5" stroke="none" stroke-width="1" stroke-linecap="butt"/><path d="M206.54051,173.58742l7.62028,20.32675h-2.33141l-7.59182,-20.32675h2.30296" fill-opacity="0.75294" fill="#b4e0d7" stroke="none" stroke-width="1" stroke-linecap="butt"/><path d="M200.96773,173.58742h0.93839l7.62028,20.32675h-8.55867v-20.32675" fill-opacity="0.75294" fill="#b4e0d7" stroke="none" stroke-width="1" stroke-linecap="butt"/><g stroke-width="1.512" stroke-linecap="round"><path d="" fill="#5e154d" stroke="#5e154d"/><path d="M224.3401,173.58742v20.32675h-23.37238v-20.32675h23.37238" fill="none" stroke="#666666"/></g></g><g><path d="M238.4139,204.5625v-36.8h18v36.8z" fill="#5a390b" stroke="#666666" stroke-width="2" stroke-linecap="butt"/><path d="M252.81389,187.1625h-3.8" fill="none" stroke="#666666" stroke-width="2" stroke-linecap="round"/><g data-paper-data="{&quot;index&quot;:null}"><path d="M252.82736,173.07v9.42598h-1.31767l-3.97075,-9.42598h5.28842" fill-opacity="0.75294" fill="#b4e0d7" stroke="none" stroke-width="1" stroke-linecap="butt"/><path d="M247.53893,173.07l3.97075,9.42598h-2.13349l-3.97075,-9.42598h2.13349" fill-opacity="0.74902" fill="#d4fff5" stroke="none" stroke-width="1" stroke-linecap="butt"/><path d="M244.20815,173.07l3.95593,9.42598h-1.20002l-3.97075,-9.42598h1.21484" fill-opacity="0.74902" fill="#d4fff5" stroke="none" stroke-width="1" stroke-linecap="butt"/><path d="M245.40545,173.07l3.97075,9.42598h-1.21484l-3.95593,-9.42598h1.20002" fill-opacity="0.75294" fill="#b4e0d7" stroke="none" stroke-width="1" stroke-linecap="butt"/><path d="M242.50162,173.07h0.48898l3.97075,9.42598h-4.45973v-9.42598" fill-opacity="0.75294" fill="#b4e0d7" stroke="none" stroke-width="1" stroke-linecap="butt"/><g stroke-width="1.512" stroke-linecap="round"><path d="" fill="#5e154d" stroke="#5e154d"/><path d="M252.82736,173.07v9.42598h-10.32574v-9.42598h10.32574" fill="none" stroke="#666666"/></g></g></g><g data-paper-data="{&quot;index&quot;:null}"><path d="M255.78023,204.5625v-36.8h18v36.8z" fill="#5a390b" stroke="#666666" stroke-width="2" stroke-linecap="butt"/><path d="M259.38023,187.1625h3.8" fill="none" stroke="#666666" stroke-width="2" stroke-linecap="round"/><g data-paper-data="{&quot;index&quot;:null}"><path d="M259.36677,173.07h5.28842l-3.97075,9.42598h-1.31767v-9.42598" fill-opacity="0.75294" fill="#b4e0d7" stroke="none" stroke-width="1" stroke-linecap="butt"/><path d="M264.6552,173.07h2.13349l-3.97075,9.42598h-2.13349l3.97075,-9.42598" fill-opacity="0.74902" fill="#d4fff5" stroke="none" stroke-width="1" stroke-linecap="butt"/><path d="M267.98598,173.07h1.21484l-3.97075,9.42598h-1.20002l3.95593,-9.42598" fill-opacity="0.74902" fill="#d4fff5" stroke="none" stroke-width="1" stroke-linecap="butt"/><path d="M266.78869,173.07h1.20002l-3.95593,9.42598h-1.21484l3.97075,-9.42598" fill-opacity="0.75294" fill="#b4e0d7" stroke="none" stroke-width="1" stroke-linecap="butt"/><path d="M269.69252,173.07v9.42598h-4.45973l3.97075,-9.42598h0.48898" fill-opacity="0.75294" fill="#b4e0d7" stroke="none" stroke-width="1" stroke-linecap="butt"/><g stroke-width="1.512" stroke-linecap="round"><path d="" fill="#5e154d" stroke="#5e154d"/><path d="M259.36677,173.07h10.32574v9.42598h-10.32574v-9.42598" fill="none" stroke="#666666"/></g></g></g></g></g></svg>