<svg version="1.1" xmlns="http://www.w3.org/2000/svg" xmlns:xlink="http://www.w3.org/1999/xlink" width="405.61589" height="215.88055" viewBox="0,0,405.61589,215.88055"><defs><linearGradient x1="297.86579" y1="68.51601" x2="297.86579" y2="89.71067" gradientUnits="userSpaceOnUse" id="color-1"><stop offset="0" stop-color="#b5b5c0"/><stop offset="1" stop-color="#b5b5c0" stop-opacity="0"/></linearGradient><linearGradient x1="297.86579" y1="246.11041" x2="297.86579" y2="224.91577" gradientUnits="userSpaceOnUse" id="color-2"><stop offset="0" stop-color="#b5b5c0"/><stop offset="1" stop-color="#b5b5c0" stop-opacity="0"/></linearGradient></defs><g transform="translate(-52.67421,-56.39407)"><g data-paper-data="{&quot;isPaintingLayer&quot;:true}" fill-rule="nonzero" stroke-linejoin="miter" stroke-miterlimit="10" stroke-dasharray="" stroke-dashoffset="0" style="mix-blend-mode: normal"><g stroke="none" stroke-width="0" stroke-linecap="butt"><path d="M416.55738,56.39407v12.41412h-237.38318v-12.41412z" fill="#b5b5c0"/><path d="M416.55738,68.51601v21.19465h-237.38318v-21.19465z" fill="url(#color-1)"/></g><g data-paper-data="{&quot;index&quot;:null}" stroke="none" stroke-width="0" stroke-linecap="butt"><path d="M179.1742,250.20132v-4.38312h237.38318v4.38312z" fill="#b5b5c0"/><path d="M179.1742,246.11041v-21.19464h237.38318v21.19464z" fill="url(#color-2)"/></g><path d="M179.17423,266.10695v-200.48293c0,-3.39925 2.76601,-6.16647 6.16646,-6.16647h225.05025c3.40048,0 6.16644,2.76716 6.16644,6.16647v200.48293c0,3.40283 -2.76599,6.16767 -6.16644,6.16767h-225.04907c-3.40048,0 -6.16766,-2.76484 -6.16766,-6.16767z" fill-opacity="0.14902" fill="#171a1a" stroke="none" stroke-width="1" stroke-linecap="butt"/><path d="M179.17423,266.10695v-15.58129c0,-3.39926 2.76601,-6.16647 6.16646,-6.16647h225.05025c3.40048,0 6.16644,2.76717 6.16644,6.16647v15.58129c0,3.40283 -2.76599,6.16767 -6.16644,6.16767h-225.04907c-3.40048,0 -6.16766,-2.76484 -6.16766,-6.16767z" fill="#6d6773" stroke="none" stroke-width="1" stroke-linecap="butt"/><path d="M423.01948,64.86522v176.2036" fill="none" stroke="#766c80" stroke-width="8.5" stroke-linecap="round"/><path d="M372.86988,262.74654v-8.86051c0,-3.39926 2.76601,-6.16647 6.16646,-6.16647h27.51778c3.40048,0 6.16644,2.76716 6.16644,6.16647v8.86051c0,3.40283 -2.76599,6.16767 -6.16644,6.16767h-27.51661c-3.40048,0 -6.16766,-2.76484 -6.16766,-6.16767z" fill="#b9a3cc" stroke="none" stroke-width="1" stroke-linecap="butt"/><path d="M52.67422,266.10695v-200.48293c0,-3.39925 2.76601,-6.16647 6.16647,-6.16647h107.55025c3.40048,0 6.16644,2.76716 6.16644,6.16647v200.48293c0,3.40283 -2.76599,6.16767 -6.16644,6.16767h-107.54907c-3.40048,0 -6.16766,-2.76484 -6.16766,-6.16767z" fill-opacity="0.14902" fill="#171a1a" stroke="none" stroke-width="1" stroke-linecap="butt"/><path d="M386.66335,258.3169l-2.18525,-6.25239l16.63423,6.25239l-16.63423,6.2524z" fill="#ffffff" stroke="#ffffff" stroke-width="0.5" stroke-linecap="butt"/><path d="M388.80586,258.3169h-7.65958" fill="none" stroke="#b9a3cc" stroke-width="1.5" stroke-linecap="round"/><path d="M66.51081,264.16026v-12.367c0,-3.39926 2.76601,-6.16647 6.16646,-6.16647h79.87709c3.40048,0 6.16644,2.76717 6.16644,6.16647v12.367c0,3.40283 -2.76599,6.16767 -6.16644,6.16767h-79.87591c-3.40048,0 -6.16766,-2.76484 -6.16766,-6.16767z" fill-opacity="0.30196" fill="#6d6773" stroke="none" stroke-width="1" stroke-linecap="butt"/><path d="M56.60253,67.36544c0,-3.40283 2.76718,-6.16767 6.16766,-6.16767h99.69242c3.40045,0 6.16644,2.76484 6.16644,6.16767v12.367c0,3.3993 -2.76596,6.16647 -6.16644,6.16647h-99.6936c-3.40045,0 -6.16646,-2.76721 -6.16646,-6.16647v-12.367z" data-paper-data="{&quot;index&quot;:null}" fill="#6d6773" stroke="none" stroke-width="1" stroke-linecap="butt"/><text transform="translate(68.15663,76.67454) scale(0.27096,0.27096)" font-size="40" xml:space="preserve" fill="#ffffff" fill-rule="nonzero" stroke="none" stroke-width="1" stroke-linecap="butt" stroke-linejoin="miter" stroke-miterlimit="10" stroke-dasharray="" stroke-dashoffset="0" font-family="Sans Serif" font-weight="normal" text-anchor="start" style="mix-blend-mode: normal"><tspan x="0" dy="0">/7</tspan></text><text transform="translate(445.95667,96.10262) scale(0.28794,0.28794)" font-size="40" xml:space="preserve" fill="#808080" fill-rule="nonzero" stroke="none" stroke-width="1" stroke-linecap="butt" stroke-linejoin="miter" stroke-miterlimit="10" stroke-dasharray="" stroke-dashoffset="0" font-family="Sans Serif" font-weight="normal" text-anchor="start" style="mix-blend-mode: normal"><tspan x="0" dy="0">←</tspan><tspan x="0" dy="46.150000000000006px">ス</tspan><tspan x="0" dy="46.150000000000006px">ク</tspan><tspan x="0" dy="46.150000000000006px">ロ</tspan><tspan x="0" dy="46.150000000000006px">｜</tspan><tspan x="0" dy="46.150000000000006px">ル</tspan><tspan x="0" dy="46.150000000000006px">バ</tspan><tspan x="0" dy="46.150000000000006px">グ</tspan><tspan x="0" dy="46.150000000000006px">り</tspan><tspan x="0" dy="46.150000000000006px">ま</tspan><tspan x="0" dy="46.150000000000006px">す</tspan></text></g></g></svg>