<svg version="1.1" xmlns="http://www.w3.org/2000/svg" xmlns:xlink="http://www.w3.org/1999/xlink" width="157.05548" height="67.21368" viewBox="0,0,157.05548,67.21368"><g transform="translate(-170.15832,-165.29575)"><g data-paper-data="{&quot;isPaintingLayer&quot;:true}" stroke-miterlimit="10" stroke-dasharray="" stroke-dashoffset="0" style="mix-blend-mode: normal"><path d="M313.60104,189.39684c0,-0.74352 0.60453,-1.34856 1.34857,-1.34856h9.66588c0.74326,0 1.34831,0.60478 1.34831,1.3483v9.57928c0,0.74352 -0.60505,1.3483 -1.34831,1.3483h-9.66588c-0.74403,0 -1.34857,-0.60479 -1.34857,-1.3483z" data-paper-data="{&quot;index&quot;:null}" fill="none" fill-rule="nonzero" stroke="#ff6666" stroke-width="2.5" stroke-linecap="butt" stroke-linejoin="miter"/><text transform="translate(170.34593,181.49275) scale(0.37522,0.37522)" font-size="40" xml:space="preserve" fill="#ffffff" fill-rule="nonzero" stroke="none" stroke-width="1" stroke-linecap="butt" stroke-linejoin="miter" stroke-miterlimit="10" stroke-dasharray="" stroke-dashoffset="0" font-family="Sans Serif" font-weight="normal" text-anchor="start" style="mix-blend-mode: normal"><tspan x="0" dy="0">雪山</tspan></text><g fill-rule="evenodd" stroke-width="0.3"><path d="M186.98293,218.72681c0.07028,-0.04685 0.18742,-0.02343 0.21085,0.07028l0.6091,2.50672c0,0 1.49936,1.10108 1.94448,1.87419c0.74967,1.2885 0.7731,2.34273 0.7731,2.34273c0,0 1.66335,0.49198 1.94448,1.82733c0.28113,1.33535 -0.74969,3.86551 -5.15402,4.73233c-4.40433,0.86681 -7.94186,-0.32798 -9.60519,-2.99869c-1.66334,-2.67072 0.96051,-5.85683 0.81995,-5.66941l-0.49197,-4.19348c-0.02343,-0.09371 0.09371,-0.16399 0.18742,-0.11714l2.8347,1.85076c0,0 1.05423,-0.39827 2.15532,-0.44512c0.65596,-0.04685 1.21822,0.00001 1.75705,0.09372z" fill="#ffab19" stroke="#001026" stroke-linecap="butt" stroke-linejoin="miter"/><path d="M190.45018,225.61445c0,0 1.61648,0.42169 1.89762,1.75705c0.28113,1.33535 -0.84338,3.74837 -5.20086,4.59176c-5.66941,1.17137 -8.36356,-2.20217 -6.79393,-4.68547c1.56963,-2.50672 4.26377,-0.37484 6.23166,-0.51539c1.68677,-0.11713 1.87419,-1.59305 3.86552,-1.14794z" fill="#ffffff" stroke="none" stroke-linecap="butt" stroke-linejoin="miter"/><path d="M183.07057,228.12116c0,-0.09371 0.09371,-0.16399 0.18742,-0.14057c0.44511,0.16398 1.71019,0.53883 3.11584,0.63254c1.26507,0.07028 2.01475,0 2.36615,-0.07029c0.11713,-0.02343 0.21084,0.09372 0.16398,0.21085c-0.21085,0.63254 -1.10107,2.38958 -3.56095,2.24902c-2.13189,-0.23427 -2.34273,-1.73362 -2.27245,-2.88156z" fill="#ffffff" stroke="#001026" stroke-linecap="round" stroke-linejoin="round"/><path d="M194.7608,225.87214c-1.10108,0.89024 -2.78785,0.91366 -2.78785,0.91366" fill="none" stroke="#001026" stroke-linecap="round" stroke-linejoin="round"/><path d="M194.45624,228.49601c-1.47592,0.11713 -2.38959,-0.32798 -2.38959,-0.32798" fill="none" stroke="#001026" stroke-linecap="round" stroke-linejoin="round"/><path d="M186.49096,226.15327c0.49198,0 1.00738,0.04685 1.0308,0.21084c0.02343,0.32798 -0.32799,0.98395 -0.70282,1.00737c-0.42169,0.04685 -1.40563,-0.53883 -1.40563,-0.91366c-0.02343,-0.28113 0.60912,-0.30455 1.07766,-0.30455z" fill="#001026" stroke="#001026" stroke-linecap="round" stroke-linejoin="round"/><path d="M175.94866,225.80186c0,0 2.01475,0.65596 2.83471,1.38221" fill="none" stroke="#001026" stroke-linecap="round" stroke-linejoin="round"/><path d="M178.85365,228.00403c-1.00737,0.39827 -2.74098,0.14056 -2.74098,0.14056" fill="none" stroke="#001026" stroke-linecap="round" stroke-linejoin="round"/><g><path d="M189.25538,223.41228c0.67939,1.05423 0.70282,2.24902 0.04685,2.67072c-0.65596,0.42169 -1.73363,-0.07028 -2.43644,-1.12452c-0.67939,-1.05423 -0.70283,-2.24902 -0.04686,-2.67072c0.65596,-0.44511 1.75706,0.07028 2.43645,1.12452z" fill="#ffffff" stroke="#001026" stroke-linecap="round" stroke-linejoin="round"/><path d="M189.16168,224.74763c0,0.2577 -0.18742,0.46855 -0.42169,0.46855c-0.23427,0 -0.42169,-0.21085 -0.42169,-0.46855c0,-0.2577 0.18742,-0.46855 0.42169,-0.46855c0.23427,0 0.42169,0.21085 0.42169,0.46855" fill="#001026" stroke="none" stroke-linecap="butt" stroke-linejoin="miter"/></g><g><path d="M183.44542,224.06825c0.70281,1.0308 0.65596,2.29587 0.02342,2.74099c-0.7731,0.44511 -1.80391,0.11713 -2.50672,-0.91366c-0.72625,-1.0308 -0.7731,-2.36615 -0.04685,-2.88156c0.72625,-0.53883 1.82734,0.02343 2.53016,1.05423z" fill="#ffffff" stroke="#001026" stroke-linecap="round" stroke-linejoin="round"/><path d="M183.30484,225.42702c0,0.2577 -0.18742,0.46855 -0.42169,0.46855c-0.23427,0 -0.42169,-0.21085 -0.42169,-0.46855c0,-0.2577 0.18742,-0.46855 0.42169,-0.46855c0.23427,0.02343 0.42169,0.21085 0.42169,0.46855" fill="#001026" stroke="none" stroke-linecap="butt" stroke-linejoin="miter"/></g></g><text transform="translate(236.60865,182.78957) scale(0.21854,0.21854)" font-size="40" xml:space="preserve" fill="#cccccc" fill-rule="nonzero" stroke="none" stroke-width="1" stroke-linecap="butt" stroke-linejoin="miter" stroke-miterlimit="10" stroke-dasharray="" stroke-dashoffset="0" font-family="Sans Serif" font-weight="normal" text-anchor="start" style="mix-blend-mode: normal"><tspan x="0" dy="0">(2/4)</tspan></text></g></g></svg>