<svg version="1.1" xmlns="http://www.w3.org/2000/svg" xmlns:xlink="http://www.w3.org/1999/xlink" width="26.32867" height="36.74921" viewBox="0,0,26.32867,36.74921"><g transform="translate(-258.65309,-162.70416)"><g data-paper-data="{&quot;isPaintingLayer&quot;:true}" fill-rule="nonzero" stroke-miterlimit="10" stroke-dasharray="" stroke-dashoffset="0" style="mix-blend-mode: normal"><g fill="none" stroke-linejoin="miter"><g data-paper-data="{&quot;index&quot;:null}"><g stroke="none" stroke-width="1" stroke-linecap="butt" font-family="sans-serif" font-weight="normal" font-size="12" text-anchor="start"/><g stroke="none" stroke-width="1" stroke-linecap="butt" font-family="sans-serif" font-weight="normal" font-size="12" text-anchor="start"/><g data-paper-data="{&quot;index&quot;:null}" stroke="#bf7736" stroke-width="2" stroke-linecap="round"><path d="M274.78825,196.46079v-8.28219"/><path d="M283.1073,179.18749c0,0 -1.92884,2.47825 -2.75868,3.87617c-0.88972,1.4988 -1.16842,3.16349 -2.94194,4.30569c-1.77352,1.14221 -3.26265,0.5399 -5.57031,1.17647c-2.30766,0.63657 -7.12132,3 -7.12132,3"/></g></g><g data-paper-data="{&quot;index&quot;:null}"><g stroke="none" stroke-width="1" stroke-linecap="butt" font-family="sans-serif" font-weight="normal" font-size="12" text-anchor="start"/><g stroke="none" stroke-width="1" stroke-linecap="butt" font-family="sans-serif" font-weight="normal" font-size="12" text-anchor="start"/><g data-paper-data="{&quot;index&quot;:null}" stroke="#99a3b2" stroke-width="2" stroke-linecap="round"><path d="M282.81318,178.7169c0,0 -1.92884,2.47824 -2.75868,3.87616c-0.88972,1.4988 -1.1096,3.22231 -2.88312,4.36452c-1.77352,1.14221 -3.32147,0.48107 -5.62913,1.11765c-2.30766,0.63657 -7.12132,3 -7.12132,3"/></g></g></g><path d="M272.41013,199.45338v-3.6523c0,0 1.39484,0 2.15947,0c0.86613,0 2.77084,0 2.77084,0v3.6523z" data-paper-data="{&quot;index&quot;:null}" fill="#c0c0c0" stroke="none" stroke-width="0" stroke-linecap="butt" stroke-linejoin="miter"/><path d="M267.09097,184.53662v0c-0.08186,0.14167 -0.15384,0.2306 -0.18761,0.26974c-1.0759,0.45893 -3.20461,1.08624 -3.65969,0.72682c-0.04795,-0.03886 -0.17229,-0.1376 0.12173,-0.64644c0.08696,-0.1505 1.37238,-1.72328 1.40539,-1.81896c0.35075,-0.08572 1.60563,-0.3408 2.24335,0.23074c0.44226,0.39574 0.26413,0.91394 0.07683,1.2381z" data-paper-data="{&quot;index&quot;:null}" fill="#ffc93e" stroke="#603813" stroke-width="0.5" stroke-linecap="butt" stroke-linejoin="miter"/><path d="M267.69752,188.13165v0c-0.21467,0.06704 -0.41456,0.04444 -0.61104,-0.06949c-0.24884,-0.14378 -0.2056,-0.74645 -0.0792,-1.30062l0.11682,-0.65033c0.06459,-0.73893 0.18194,-1.68345 0.18166,-1.72479c-0.00019,-0.08987 0.01833,-0.15356 0.04493,-0.19959c0.03032,-0.05247 0.07164,-0.08325 0.10929,-0.10477c0.37316,-0.21509 1.27857,0.02262 1.73402,0.27843c0.10679,0.12076 0.71777,0.86663 0.22754,1.71507c-0.00865,0.01497 -0.03335,0.05513 -0.03335,0.05513l-0.00501,0.01016c-0.0018,0.00421 -0.06551,0.137 -0.17597,0.32817c-0.26032,0.45053 -0.92366,1.47996 -1.50969,1.66263z" data-paper-data="{&quot;index&quot;:null}" fill="#ffc93e" stroke="#603813" stroke-width="0.5" stroke-linecap="butt" stroke-linejoin="miter"/><path d="M262.05867,178.24559v0c-1.12006,1.67061 -1.7287,2.24771 -2.55334,1.83714c-0.3226,-0.16068 -0.53055,-0.46155 -0.60224,-0.86877c-0.17437,-0.99649 0.42686,-2.9008 1.65936,-4.19551c0.84132,-0.88405 4.0558,-2.40973 4.78644,-2.19105c0.06068,0.01754 0.14441,0.07208 0.15041,0.10268c0.07803,0.11801 0.09134,0.3215 0.01461,0.52763c-0.21287,0.57228 -0.7824,1.3613 -1.42509,2.11664c-0.49984,0.58636 -1.06674,1.25256 -1.56994,1.98925l-0.46021,0.68199z" data-paper-data="{&quot;index&quot;:null}" fill="#ffc93e" stroke="#603813" stroke-width="0.5" stroke-linecap="butt" stroke-linejoin="miter"/><path d="M278.42071,170.33383v0c0.61405,1.00535 1.89311,0.57278 3.02129,0.19069c0.92455,-0.31265 2.08251,-0.72631 2.45661,-0.26128c0.10109,0.12586 0.14255,0.2564 0.12676,0.39904c-0.05764,0.51847 -1.10902,1.2478 -1.72505,1.73809c-0.65555,0.52233 -1.12901,0.89973 -0.94942,1.26267c0.17256,0.34922 0.74065,0.29913 1.27678,0.34111c0.66091,0.05228 1.32305,0.09078 1.32658,0.41609c0.00299,0.2935 -1.10769,0.89336 -1.83114,1.3262c-1.21174,0.72497 -2.58491,1.54668 -2.73011,2.62411l0.0107,0.63592c0.06781,1.02165 0.48254,3.049 -1.10532,5.2714c-1.82164,2.54957 -5.49682,2.93973 -5.53089,2.94486l-0.1387,0.02032l-0.02429,0.13773c-0.15499,0.87651 -0.65079,2.10197 -1.1428,2.45582c-0.20603,0.14853 -0.38034,0.19517 -0.55389,0.14849c-0.52059,-0.13978 -0.26545,-0.51555 -0.34223,-1.12112c-0.3835,-3.01741 -1.69053,-3.63283 -1.69053,-3.63283l-0.0498,-0.0124c-0.93011,-0.22338 -1.83529,-0.58664 -2.69002,-1.08051c-4.60839,-2.66276 -6.45377,-7.41689 -4.18436,-11.34451c1.0717,-1.85477 3.19464,-3.26878 5.45452,-4.14084l0.01668,-0.00633l0.01537,-0.01026c0,0 0.03982,-0.02451 0.06733,-0.04518c0.10165,-0.09154 2.48944,-2.25598 3.16347,-3.04527l0.2985,-0.35765c0.55394,-0.67099 2.03277,-2.49187 2.5151,-2.20329c0.31986,0.19216 -0.20368,1.34274 -0.45397,2.00107c-0.27237,0.71661 -0.49652,1.00265 -0.32364,1.47394c0.21282,0.57681 0.75232,1.01128 0.77,1.00616c1.00983,-0.30062 2.4096,-0.83222 2.4096,-0.83222l1.8999,-0.64308c1.88607,-0.66933 6.54939,-2.33932 6.94803,-1.68944c0.20615,0.33582 -1.71873,1.53617 -2.82952,2.26358c-2.03188,1.3302 -4.13221,2.70539 -3.48154,3.76891z" data-paper-data="{&quot;index&quot;:null}" fill="#ffc93e" stroke="#603813" stroke-width="0.5" stroke-linecap="round" stroke-linejoin="round"/><g data-paper-data="{&quot;index&quot;:null}" stroke="none" stroke-width="0.5" stroke-linecap="butt" stroke-linejoin="miter"><path d="M270.24658,179.68164c-0.7088,-0.40955 -0.9513,-1.31584 -0.54202,-2.02419c0.40955,-0.7088 1.31643,-0.95201 2.02509,-0.54255c0.70881,0.40997 0.95119,1.31682 0.54164,2.02562v0c-0.40929,0.70835 -1.31589,0.95067 -2.02472,0.54111z" fill="#ffffff"/><path d="M271.84239,177.99477c0.06916,0.25794 0.03986,0.54219 -0.1041,0.79134c-0.14396,0.24915 -0.3756,0.41652 -0.6336,0.4854c-0.25792,0.06917 -0.5422,0.03986 -0.79135,-0.1041c-0.24912,-0.14394 -0.41649,-0.3756 -0.48539,-0.63361c-0.06915,-0.2579 -0.03983,-0.54219 0.10412,-0.79133c0.14395,-0.24914 0.37559,-0.41649 0.63358,-0.4854c0.25793,-0.06914 0.54222,-0.03985 0.79135,0.1041c0.24915,0.14396 0.4165,0.37563 0.48539,0.63361z" fill="#603813"/></g><g data-paper-data="{&quot;index&quot;:null}" stroke="none" stroke-width="0.5" stroke-linecap="butt" stroke-linejoin="miter"><path d="M264.0641,176.10938c-0.70834,-0.40928 -0.95133,-1.31586 -0.54204,-2.0242c0.40955,-0.7088 1.31646,-0.952 2.02511,-0.54253c0.70895,0.41005 0.95133,1.3169 0.54178,2.0257v0c-0.40929,0.70835 -1.31572,0.95077 -2.02485,0.54103z" fill="#ffffff"/><path d="M264.13151,175.59507c-0.49858,-0.28808 -0.66983,-0.92552 -0.38146,-1.4246c0.288,-0.49844 0.92634,-0.66939 1.42492,-0.38131c0.49891,0.28827 0.66922,0.92625 0.38113,1.42485v0c-0.28818,0.49875 -0.92568,0.66934 -1.42459,0.38106z" fill="#603813"/></g><path d="M272.83088,188.09509v0c-0.68589,-0.61436 -0.37287,-1.39392 0.76826,-3.05059l0.46271,-0.679c0.50019,-0.73909 0.90916,-1.51063 1.27182,-2.19198c0.46436,-0.87595 0.98839,-1.69632 1.44213,-2.10492c0.16338,-0.14733 0.35689,-0.2103 0.49513,-0.18059c0.03114,-0.00619 0.11236,0.05204 0.15143,0.10142c0.47215,0.59853 0.23892,4.1491 -0.27287,5.25702c-0.74939,1.62236 -2.29748,2.8834 -3.28912,3.08831c-0.40557,0.08366 -0.7611,0.00093 -1.02949,-0.23966z" data-paper-data="{&quot;index&quot;:null}" fill="#ffc93e" stroke="#603813" stroke-width="0.5" stroke-linecap="butt" stroke-linejoin="miter"/><path d="M266.76049,180.40998c-1.2231,0.22842 -2.39075,-0.44749 -2.39075,-0.44749" data-paper-data="{&quot;index&quot;:null}" fill="none" stroke="#603813" stroke-width="0.5" stroke-linecap="round" stroke-linejoin="round"/></g></g></svg>