<svg version="1.1" xmlns="http://www.w3.org/2000/svg" xmlns:xlink="http://www.w3.org/1999/xlink" width="480" height="697.58933" viewBox="0,0,480,697.58933"><g transform="translate(0,179.98881)"><g data-paper-data="{&quot;isPaintingLayer&quot;:true}" fill-rule="nonzero" stroke-linecap="butt" stroke-linejoin="miter" stroke-miterlimit="10" stroke-dasharray="" stroke-dashoffset="0" style="mix-blend-mode: normal"><path d="M0,360.01119v-540h480v540z" fill-opacity="0.6" fill="#333333" stroke="none" stroke-width="NaN"/><path d="M362.33101,496.39631c0,11.69291 -9.50718,21.20421 -21.20826,21.20421h-202.24953c-11.68886,0 -21.20422,-9.51122 -21.20422,-21.20421v-236.39292c0,-11.69296 9.51531,-21.20421 21.20422,-21.20421h202.24953c11.7011,0 21.20826,9.51535 21.20826,21.20828z" fill="#8c858a" stroke="none" stroke-width="1"/><text transform="translate(201.94075,272.22745) scale(0.63427,0.63427)" font-size="40" xml:space="preserve" fill="#ffffff" fill-rule="nonzero" stroke="#ffffff" stroke-width="1" stroke-linecap="butt" stroke-linejoin="miter" stroke-miterlimit="10" stroke-dasharray="" stroke-dashoffset="0" font-family="&quot;ヒラギノ角ゴ Pro W3&quot;, &quot;Hiragino Kaku Gothic Pro&quot;, Osaka, &quot;メイリオ&quot;, Meiryo, &quot;ＭＳ Ｐゴシック&quot;, &quot;MS PGothic&quot;" font-weight="normal" text-anchor="start" style="mix-blend-mode: normal"><tspan x="0" dy="0">成功！</tspan></text><g stroke-width="1"><path d="M303.08783,334.55426c0,2.38835 -1.94188,4.33107 -4.33189,4.33107h-117.5127c-2.38751,0 -4.33108,-1.94271 -4.33108,-4.33107v-28.49834c0,-2.38835 1.94356,-4.33107 4.33108,-4.33107h117.51271c2.39002,0 4.33189,1.94355 4.33189,4.3319z" fill="#736f72" stroke="none"/><text transform="translate(226.78,325.87981) scale(0.46456,0.46456)" font-size="40" xml:space="preserve" fill="#ffffff" fill-rule="nonzero" stroke="#ffffff" stroke-width="1" stroke-linecap="butt" stroke-linejoin="miter" stroke-miterlimit="10" stroke-dasharray="" stroke-dashoffset="0" font-family="&quot;ヒラギノ角ゴ Pro W3&quot;, &quot;Hiragino Kaku Gothic Pro&quot;, Osaka, &quot;メイリオ&quot;, Meiryo, &quot;ＭＳ Ｐゴシック&quot;, &quot;MS PGothic&quot;" font-weight="normal" text-anchor="start" style="mix-blend-mode: normal"><tspan x="0" dy="0">OK</tspan></text></g></g></g></svg>