<svg version="1.1" xmlns="http://www.w3.org/2000/svg" xmlns:xlink="http://www.w3.org/1999/xlink" width="367.08049" height="340.67819" viewBox="0,0,367.08049,340.67819"><g transform="translate(-58.77376,-59.33899)"><g data-paper-data="{&quot;isPaintingLayer&quot;:true}" fill-rule="nonzero" stroke-linejoin="miter" stroke-miterlimit="10" stroke-dasharray="" stroke-dashoffset="0" style="mix-blend-mode: normal"><path d="M79.6447,87.37278h-12.13601c-3.98967,0 -7.23493,-3.24387 -7.23493,-7.23633v-12.06254c0,-3.98827 3.24526,-7.23492 7.23494,-7.23492h12.13741c3.98967,0 7.23493,3.24666 7.23493,7.23492v12.06255c0,3.99246 -3.24666,7.23633 -7.23634,7.23633z" fill="#737880" stroke="#737880" stroke-width="3" stroke-linecap="butt"/><path d="M81.50836,77.71014c-0.39392,1.10542 -1.03337,2.14294 -1.91834,3.02791c-3.18979,3.18979 -8.36146,3.18979 -11.55124,0c-3.18979,-3.18979 -3.18979,-8.36146 0,-11.55125c3.18979,-3.18979 8.36146,-3.18979 11.55125,0" fill="none" stroke="#ffffff" stroke-width="2.5" stroke-linecap="butt"/><path d="M79.76901,65.08138l0.209,4.89847l-4.92815,-0.21027" fill="none" stroke="#ffffff" stroke-width="2.5" stroke-linecap="round"/><path d="M288.32493,87.37277h-172.63879c-3.98967,0 -7.23493,-3.24387 -7.23493,-7.23633v-12.06254c0,-3.98827 3.24526,-7.23492 7.23494,-7.23492h172.64019c3.98967,0 7.23493,3.24666 7.23493,7.23492v12.06255c0,3.99246 -3.24666,7.23633 -7.23634,7.23633z" fill-opacity="0.50196" fill="#616366" stroke="#737880" stroke-width="2.5" stroke-linecap="butt"/><path d="M127.82215,87.37278h-12.13601c-3.98967,0 -7.23493,-3.24387 -7.23493,-7.23633v-12.06254c0,-3.98827 3.24526,-7.23492 7.23494,-7.23492h12.13741c3.98967,0 7.23493,3.24666 7.23493,7.23492v12.06255c0,3.99246 -3.24666,7.23633 -7.23634,7.23633z" fill="#737880" stroke="none" stroke-width="1" stroke-linecap="butt"/><g fill="none" stroke="#ffffff" stroke-width="2.5"><path d="M118.89718,71.05c0,-3.26597 2.64759,-5.91355 5.91355,-5.91355c3.26597,0 5.91355,2.64759 5.91355,5.91355c0,3.26597 -2.64759,5.91355 -5.91355,5.91355c-3.26597,0 -5.91355,-2.64759 -5.91355,-5.91355z" stroke-linecap="butt"/><path d="M120.58205,75.27868l-7.79664,7.79664" stroke-linecap="round"/></g><text transform="translate(148.37644,78.7027) scale(0.38307,0.38307)" font-size="40" xml:space="preserve" fill="#cccccc" fill-rule="nonzero" stroke="none" stroke-width="1" stroke-linecap="butt" stroke-linejoin="miter" stroke-miterlimit="10" stroke-dasharray="" stroke-dashoffset="0" font-family="Sans Serif" font-weight="normal" text-anchor="start" style="mix-blend-mode: normal"><tspan x="0" dy="0">ユーザーを検索</tspan></text><path d="M169.32788,400.01717h-78.1707c-3.98967,0 -7.23493,-3.24387 -7.23493,-7.23633v-14.43336c0,-3.98827 3.24526,-7.23492 7.23494,-7.23492h78.1721c3.98967,0 7.23493,3.24666 7.23493,7.23492v14.43337c0,3.99246 -3.24666,7.23633 -7.23634,7.23633z" fill="#60bf69" stroke="none" stroke-width="0" stroke-linecap="butt"/><text transform="translate(110.24323,391.33362) scale(0.5,0.5)" font-size="40" xml:space="preserve" fill="#f2f7ff" fill-rule="nonzero" stroke="none" stroke-width="1" stroke-linecap="butt" stroke-linejoin="miter" stroke-miterlimit="10" stroke-dasharray="" stroke-dashoffset="0" font-family="Sans Serif" font-weight="normal" text-anchor="start" style="mix-blend-mode: normal"><tspan x="0" dy="0">見る</tspan></text><path d="M59.06179,247.05426v-30.43019h107.04906v30.43019z" fill-opacity="0.00392" fill="#ffffff" stroke="#000000" stroke-width="0" stroke-linecap="butt"/><path d="M188.93349,247.05426v-30.43019h107.04906v30.43019z" fill-opacity="0.00392" fill="#ffffff" stroke="#000000" stroke-width="0" stroke-linecap="butt"/><path d="M318.80519,247.05426v-30.43019h107.04906v30.43019z" fill-opacity="0.00392" fill="#ffffff" stroke="#000000" stroke-width="0" stroke-linecap="butt"/><text transform="translate(89.58844,238.47261) scale(0.57495,0.57495)" font-size="40" xml:space="preserve" fill="#e6efff" fill-rule="nonzero" stroke="#b5b5c0" stroke-width="0" stroke-linecap="butt" stroke-linejoin="miter" stroke-miterlimit="10" stroke-dasharray="" stroke-dashoffset="0" font-family="Sans Serif" font-weight="normal" text-anchor="start" style="mix-blend-mode: normal"><tspan x="0" dy="0">見る</tspan></text><text transform="translate(219.46022,238.47258) scale(0.57495,0.57495)" font-size="40" xml:space="preserve" fill="#e6efff" fill-rule="nonzero" stroke="#b5b5c0" stroke-width="0" stroke-linecap="butt" stroke-linejoin="miter" stroke-miterlimit="10" stroke-dasharray="" stroke-dashoffset="0" font-family="Sans Serif" font-weight="normal" text-anchor="start" style="mix-blend-mode: normal"><tspan x="0" dy="0">見る</tspan></text><text transform="translate(349.33192,238.47258) scale(0.57495,0.57495)" font-size="40" xml:space="preserve" fill="#e6efff" fill-rule="nonzero" stroke="#b5b5c0" stroke-width="0" stroke-linecap="butt" stroke-linejoin="miter" stroke-miterlimit="10" stroke-dasharray="" stroke-dashoffset="0" font-family="Sans Serif" font-weight="normal" text-anchor="start" style="mix-blend-mode: normal"><tspan x="0" dy="0">見る</tspan></text></g></g></svg>