<svg version="1.1" xmlns="http://www.w3.org/2000/svg" xmlns:xlink="http://www.w3.org/1999/xlink" width="92.21921" height="62.49176" viewBox="0,0,92.21921,62.49176"><defs><linearGradient x1="240.00009" y1="149.67222" x2="240.00009" y2="210.16398" gradientUnits="userSpaceOnUse" id="color-1"><stop offset="0" stop-color="#c8d9db"/><stop offset="1" stop-color="#6c6f66"/></linearGradient><radialGradient cx="235.14054" cy="185.74486" r="12.82618" gradientUnits="userSpaceOnUse" id="color-2"><stop offset="0" stop-color="#9b968a"/><stop offset="1" stop-color="#b2ab9e"/></radialGradient><radialGradient cx="252.96437" cy="185.74486" r="12.82618" gradientUnits="userSpaceOnUse" id="color-3"><stop offset="0" stop-color="#9b968a"/><stop offset="1" stop-color="#b2ab9e"/></radialGradient><radialGradient cx="217.3167" cy="185.74486" r="12.82618" gradientUnits="userSpaceOnUse" id="color-4"><stop offset="0" stop-color="#9b968a"/><stop offset="1" stop-color="#b2ab9e"/></radialGradient></defs><g transform="translate(-193.89048,-148.67221)"><g data-paper-data="{&quot;isPaintingLayer&quot;:true}" fill-rule="nonzero" stroke-linejoin="miter" stroke-miterlimit="10" stroke-dasharray="" stroke-dashoffset="0" style="mix-blend-mode: normal"><path d="M194.89049,210.16398v-60.49176h90.21921v60.49176z" fill="url(#color-1)" stroke="#666666" stroke-width="2" stroke-linecap="butt"/><path d="M262.14417,202.47995h4.7504" fill="none" stroke="#5f5f5f" stroke-width="2" stroke-linecap="round"/><path d="M262.14417,200.02284h4.7504" fill="none" stroke="#5e4a4a" stroke-width="2" stroke-linecap="round"/><path d="M278.13249,149.67222v32.44242h0.001c0,4.752 -3.854,8.605 -8.605,8.605h-28.10948" fill="none" stroke="#666666" stroke-width="6.5" stroke-linecap="butt"/><path d="M200.11892,207.50224v-13.68651h-0.001c0,-4.752 3.854,-8.605 8.605,-8.605h28.10948" data-paper-data="{&quot;index&quot;:null}" fill="none" stroke="#666666" stroke-width="6.5" stroke-linecap="butt"/><path d="M268.53164,149.67222v13.11319h0.001c0,4.752 -3.854,8.605 -8.605,8.605h-28.10948" fill="none" stroke="#666666" stroke-width="6.5" stroke-linecap="butt"/><g stroke="#5f5f5f" stroke-width="2" stroke-linecap="butt"><path d="M226.22863,205.67609v-39.86246h17.82384v39.86246z" fill="url(#color-2)"/><path d="M244.05246,205.67609v-39.86246h17.82384v39.86246z" fill="url(#color-3)"/><path d="M208.40479,205.67609v-39.86246h17.82384v39.86246z" fill="url(#color-4)"/></g><path d="M267.30409,205.67609v-10.23795h9.1732v10.23795z" fill="#9b968a" stroke="#5f5f5f" stroke-width="2" stroke-linecap="butt"/><path d="M276.47729,205.67609v-13.8417h5.72085v13.8417z" fill="#6b8994" stroke="#5f5f5f" stroke-width="2" stroke-linecap="butt"/><path d="M195.90996,209.32839v-3.6523h88.18031v3.6523z" fill="#c0c0c0" stroke="none" stroke-width="0" stroke-linecap="butt"/><path d="M194.89049,165.81363v-16.05951h19.4574v16.05951z" fill="#c8baa2" stroke="#666666" stroke-width="2" stroke-linecap="butt"/><path d="M200.20685,159.50111c0,-2.43687 4.41234,-7.8468 4.41234,-7.8468c0,0 4.41234,5.40994 4.41234,7.8468c0,2.43687 -1.97547,4.41234 -4.41234,4.41234c-2.43687,0 -4.41234,-1.97547 -4.41234,-4.41234z" fill="#b0f0ff" stroke="none" stroke-width="0" stroke-linecap="butt"/><path d="M263.36095,202.47995c0,-0.63977 0.51864,-1.15841 1.15841,-1.15841c0.63977,0 1.15841,0.51864 1.15841,1.15841c0,0.63977 -0.51864,1.15841 -1.15841,1.15841c-0.63977,0 -1.15841,-0.51864 -1.15841,-1.15841z" fill="#b2b2b2" stroke="none" stroke-width="2" stroke-linecap="butt"/></g></g></svg>