<svg version="1.1" xmlns="http://www.w3.org/2000/svg" xmlns:xlink="http://www.w3.org/1999/xlink" width="30.06073" height="51.80603" viewBox="0,0,30.06073,51.80603"><g transform="translate(-205.20683,-145.69393)"><g data-paper-data="{&quot;isPaintingLayer&quot;:true}" fill-rule="nonzero" stroke-miterlimit="10" stroke-dasharray="" stroke-dashoffset="0" style="mix-blend-mode: normal"><path d="M220.76012,182.20672c0,-0.51423 0.14424,-1.25292 0.94216,-1.41966c1.15118,-0.24149 2.46831,0.92419 2.82654,1.26716c-0.02649,0.13648 0.42146,2.89026 0.42146,3.12901c0,0.8072 -0.21572,0.83919 -0.29945,0.85245c-0.78821,0.11474 -2.88878,-2.09411 -3.85296,-3.37924c-0.01326,-0.06975 -0.03776,-0.22499 -0.03776,-0.44972v0z" fill="#ffc93e" stroke="#603813" stroke-width="0.65" stroke-linecap="butt" stroke-linejoin="miter"/><path d="M217.56834,186.06541c-0.57143,-0.61996 -0.65293,-2.30007 -0.65293,-3.01476c0,-0.30326 0.01549,-0.50496 0.01624,-0.51121l0.00102,-0.01552c0,0 -0.00178,-0.06474 -0.00178,-0.08848c0,-1.34591 1.23917,-1.81312 1.44916,-1.88335c0.71744,0.00874 1.95759,0.34821 2.25357,0.86044c0.03,0.05147 0.05799,0.11647 0.05799,0.1997c0,0.07303 -0.02174,0.1615 -0.08372,0.26825c-0.02875,0.04898 -0.53823,1.25292 -0.96919,2.1761l-0.30796,0.8537c-0.23049,0.74592 -0.59321,1.49238 -0.98795,1.49238c-0.31196,0.00049 -0.56521,-0.10999 -0.77445,-0.33724v0z" fill="#ffc93e" stroke="#603813" stroke-width="0.65" stroke-linecap="butt" stroke-linejoin="miter"/><path d="M217.04564,157.53007c1.50466,-0.81771 -0.04823,-3.89649 -1.55063,-6.87473c-0.82118,-1.6284 -2.28556,-4.37868 -1.80962,-4.63641c0.92069,-0.49896 5.31911,4.69165 7.10224,6.78373l1.81761,2.07037c0,0 1.29941,1.59411 2.29381,2.64556c0.01752,0.01824 0.95769,-0.12774 1.60716,-0.66748c0.52945,-0.4417 0.45944,-0.93591 0.62795,-1.97533c0.15472,-0.95494 0.32274,-2.68306 0.83519,-2.6918c0.77193,-0.01175 1.27941,3.17 1.47712,4.34865l0.10924,0.63047c0.25924,1.40187 1.61164,5.61683 1.66963,5.79555c0.0185,0.04349 0.04902,0.1 0.04902,0.1l0.01123,0.02276l0.01549,0.01899c2.08838,2.59006 3.64149,5.73055 3.64149,8.67284c0,6.23054 -5.46159,10.61645 -12.77205,10.61645c-1.3559,0 -2.68203,-0.18999 -3.9417,-0.56348l-0.06775,-0.01948c0,0 -1.97733,-0.16625 -4.50691,3.15877c-0.50744,0.66744 -0.46223,1.28966 -1.17741,1.09816c-0.23848,-0.06375 -0.41373,-0.239 -0.55669,-0.55722c-0.34199,-0.75893 -0.08953,-2.55705 0.32846,-3.70597l0.06576,-0.18049l-0.15099,-0.11948c-0.037,-0.02951 -4.13971,-3.01901 -4.55416,-7.30296c-0.36124,-3.73419 1.52513,-5.86029 2.30783,-7.02873l0.44971,-0.74894c0.56769,-1.38115 -0.50074,-3.302 -1.44366,-4.99687c-0.56295,-1.01191 -1.47165,-2.48854 -1.26641,-2.83554c0.22774,-0.38446 1.04168,0.02475 1.86361,0.41674c0.66646,0.31848 1.30767,0.76843 1.75286,0.47169c0.46298,-0.30823 0.15924,-1.08241 -0.26146,-2.15409c-0.39572,-1.00642 -1.14493,-2.59628 -0.8572,-3.25249c0.07924,-0.18049 0.21825,-0.30725 0.42496,-0.38747c0.76447,-0.29598 1.85736,0.99169 2.74206,1.99885c1.07917,1.22967 2.30308,2.62306 3.72421,1.84937v0z" fill="#ffc93e" stroke="#603813" stroke-width="0.65" stroke-linecap="round" stroke-linejoin="round"/><g stroke="none" stroke-width="0.65" stroke-linecap="butt" stroke-linejoin="miter"><path d="M227.43114,168.52333v0c0,-1.12439 0.91142,-2.03634 2.03634,-2.03683c1.12417,0 2.03562,0.91244 2.03562,2.03683c0,1.12367 -0.91195,2.03487 -2.03562,2.03487c-1.12492,0 -2.03634,-0.91119 -2.03634,-2.03487z" fill="#ffffff"/><path d="M228.30834,168.46809v0c0,-0.79095 0.64095,-1.43265 1.43239,-1.43265c0.79092,0 1.43261,0.64196 1.43261,1.43265c0,0.79171 -0.6417,1.43213 -1.43261,1.43213c-0.79145,0 -1.43239,-0.64095 -1.43239,-1.43213z" fill="#603813"/></g><path d="M230.86791,182.86045c-0.31614,0.381 -0.78251,0.56509 -1.3504,0.5332c-1.38861,-0.07846 -3.7462,-1.47963 -5.09149,-3.53276c-0.91875,-1.40208 -1.95153,-6.17907 -1.43073,-7.08747c0.04313,-0.07496 0.14174,-0.17046 0.18529,-0.16833c0.18184,-0.06824 0.45744,-0.02169 0.70913,0.14553c0.69887,0.46365 1.57626,1.47259 2.38379,2.56907c0.63012,0.8526 1.34133,1.81839 2.16995,2.72171l0.76557,0.82924c1.88444,2.02076 2.46692,3.0168 1.65891,3.9898v0z" fill="#ffc93e" stroke="#603813" stroke-width="0.65" stroke-linecap="butt" stroke-linejoin="miter"/><path d="M233.7537,174.98319c0,0 -1.85314,0.00147 -3.15079,-1.11067" fill="none" stroke="#603813" stroke-width="0.65" stroke-linecap="round" stroke-linejoin="round"/><path d="M214.58442,183.2963v12.95366" fill="none" stroke="#8d6547" stroke-width="2.5" stroke-linecap="round" stroke-linejoin="miter"/><path d="M207.20684,184.06837h14.66938" fill="none" stroke="#000000" stroke-width="4" stroke-linecap="round" stroke-linejoin="miter"/></g></g></svg>