<svg version="1.1" xmlns="http://www.w3.org/2000/svg" xmlns:xlink="http://www.w3.org/1999/xlink" width="92.21921" height="62.49176" viewBox="0,0,92.21921,62.49176"><g transform="translate(-193.8904,-148.75412)"><g data-paper-data="{&quot;isPaintingLayer&quot;:true}" fill-rule="nonzero" stroke-linecap="butt" stroke-linejoin="miter" stroke-miterlimit="10" stroke-dasharray="" stroke-dashoffset="0" style="mix-blend-mode: normal"><path d="M194.89041,210.24588v-60.49176h90.21921v60.49176z" fill="#191919" stroke="#666666" stroke-width="2"/><path d="M220.42549,167.83585l-24.70175,-17.00504h88.55254l-24.86534,17.00504z" fill="#2e2e2e" stroke="#666666" stroke-width="0"/><path d="M220.75001,187.04451v-19h38.39394v19z" fill="#ffffff" stroke="#666666" stroke-width="0.5"/><g stroke="#666666" stroke-width="0"><path d="M251.86106,191.27652v10.68842c0,1.30382 -1.0601,2.36438 -2.36483,2.36438h-6.83414c-1.30337,0 -2.36437,-1.06056 -2.36437,-2.36438v-10.68888c0,-1.30382 1.061,-2.36437 2.36437,-2.36437h6.83414c1.30473,0 2.36483,1.06102 2.36483,2.36483z" fill="#67001d"/><path d="M265.40101,191.40601v10.68842c0,1.30382 -1.06009,2.36438 -2.36483,2.36438h-6.83414c-1.30337,0 -2.36438,-1.06056 -2.36438,-2.36438v-10.68888c0,-1.30382 1.06101,-2.36437 2.36438,-2.36437h6.83414c1.30473,0 2.36483,1.06101 2.36483,2.36483z" fill="#67001d"/><path d="M239.77773,191.35986v10.68842c0,1.30382 -1.0601,2.36438 -2.36483,2.36438h-6.83414c-1.30337,0 -2.36437,-1.06056 -2.36437,-2.36438v-10.68888c0,-1.30382 1.061,-2.36437 2.36437,-2.36437h6.83414c1.30473,0 2.36483,1.06102 2.36483,2.36483z" fill="#67001d"/><path d="M226.16234,191.40601v10.68842c0,1.30382 -1.0601,2.36438 -2.36483,2.36438h-6.83414c-1.30337,0 -2.36437,-1.06056 -2.36437,-2.36438v-10.68888c0,-1.30382 1.061,-2.36437 2.36437,-2.36437h6.83414c1.30473,0 2.36483,1.06102 2.36483,2.36483z" fill="#67001d"/><path d="M220.95672,188.84564v14.70933c0,1.79431 -1.4589,3.25384 -3.25446,3.25384h-9.40509c-1.79368,0 -3.25383,-1.45954 -3.25383,-3.25384v-14.70996c0,-1.79431 1.46015,-3.25383 3.25383,-3.25383h9.40509c1.79556,0 3.25446,1.46016 3.25446,3.25446z" fill="#7f0024"/><path d="M238.95671,188.84564v14.70933c0,1.79431 -1.4589,3.25385 -3.25447,3.25385h-9.40509c-1.79368,0 -3.25383,-1.45954 -3.25383,-3.25385v-14.70995c0,-1.79431 1.46015,-3.25384 3.25383,-3.25384h9.40509c1.79556,0 3.25447,1.46015 3.25447,3.25446z" fill="#7f0024"/><path d="M256.9567,188.84564v14.70933c0,1.79431 -1.45889,3.25385 -3.25447,3.25385h-9.40509c-1.79368,0 -3.25383,-1.45954 -3.25383,-3.25385v-14.70995c0,-1.79431 1.46015,-3.25384 3.25383,-3.25384h9.40509c1.79556,0 3.25447,1.46015 3.25447,3.25446z" fill="#7f0024"/><path d="M274.95669,188.84564v14.70933c0,1.79431 -1.45889,3.25384 -3.25446,3.25384h-9.40509c-1.79368,0 -3.25383,-1.45953 -3.25383,-3.25384v-14.70996c0,-1.79431 1.46015,-3.25384 3.25383,-3.25384h9.40509c1.79556,0 3.25446,1.46016 3.25446,3.25447z" fill="#7f0024"/></g><path d="M195.9099,209.32838v-3.6523h88.18031v3.6523z" fill="#c0c0c0" stroke="none" stroke-width="0"/></g></g></svg>