<svg version="1.1" xmlns="http://www.w3.org/2000/svg" xmlns:xlink="http://www.w3.org/1999/xlink" width="38.6375" height="15.54445" viewBox="0,0,38.6375,15.54445"><g transform="translate(-240.69293,-173.14148)"><g data-paper-data="{&quot;isPaintingLayer&quot;:true}" stroke-width="0.5" stroke-miterlimit="10" stroke-dasharray="" stroke-dashoffset="0" style="mix-blend-mode: normal"><g><path d="M252.12783,173.34949c0.07098,-0.04732 0.18996,-0.02366 0.21362,0.07098l0.6172,2.5405c0,0 1.51971,1.11612 1.97062,1.89964c0.75986,1.30609 0.78351,2.37489 0.78351,2.37489c0,0 1.68602,0.49892 1.97062,1.85233c0.2846,1.35341 -0.75986,3.91826 -5.22436,4.79641c-4.4645,0.87815 -8.05016,-0.33261 -9.73617,-3.03942c-1.68601,-2.70681 0.97487,-5.9362 0.83222,-5.74623l-0.49822,-4.25018c-0.02366,-0.09533 0.09533,-0.16631 0.18996,-0.11899l2.87312,1.87598c0,0 1.0688,-0.40359 2.18493,-0.4509c0.66522,-0.04731 1.23511,0 1.78065,0.09533z" fill="#ffab19" fill-rule="evenodd" stroke="#001026" stroke-linecap="butt" stroke-linejoin="miter"/><g fill="#ffffff" fill-rule="evenodd" stroke="none" stroke-linecap="butt" stroke-linejoin="miter"><path d="M255.64181,180.33084c0,0 1.63869,0.42724 1.92329,1.78065c0.2846,1.3534 -0.85519,3.79928 -5.27167,4.65447c-5.74623,1.1871 -8.4774,-2.23225 -6.88671,-4.7491c1.59068,-2.5405 4.32185,-0.37993 6.31613,-0.52257c1.70968,-0.11899 1.89964,-1.61505 3.91827,-1.16344z"/></g><path d="M260.01168,180.59178c-1.11612,0.9025 -2.8258,0.92616 -2.8258,0.92616M259.70272,183.25127c-1.49605,0.11899 -2.42221,-0.33261 -2.42221,-0.33261" fill="none" fill-rule="evenodd" stroke="#001026" stroke-linecap="round" stroke-linejoin="round"/><path d="M251.62891,180.87707c0.49891,0 1.02079,0.04732 1.04515,0.21362c0.02366,0.33261 -0.33261,0.99713 -0.71254,1.02079c-0.42724,0.04731 -1.42507,-0.54623 -1.42507,-0.92616c-0.02366,-0.28529 0.61721,-0.30895 1.09247,-0.30895z" fill="#001026" fill-rule="evenodd" stroke="#001026" stroke-linecap="butt" stroke-linejoin="round"/><path d="M240.94293,180.5208c0,0 2.04228,0.66522 2.87311,1.40072M243.88771,182.75305c-1.0208,0.40359 -2.77848,0.14265 -2.77848,0.14265" fill="none" fill-rule="evenodd" stroke="#001026" stroke-linecap="round" stroke-linejoin="round"/><path d="M254.43105,178.09859c0.68888,1.0688 0.71254,2.27956 0.04732,2.70681c-0.66522,0.42724 -1.75699,-0.07098 -2.46953,-1.13979c-0.68888,-1.0688 -0.71254,-2.27956 -0.04732,-2.70681c0.66522,-0.4509 1.78065,0.07098 2.46953,1.13979z" fill="#ffffff" fill-rule="evenodd" stroke="#001026" stroke-linecap="butt" stroke-linejoin="round"/><path d="M254.33572,179.452c0,0.26094 -0.18997,0.47526 -0.42724,0.47526c-0.23728,0 -0.42724,-0.21362 -0.42724,-0.47526c0,-0.26163 0.18997,-0.47526 0.42724,-0.47526c0.23728,0 0.42724,0.21363 0.42724,0.47526" fill="#001026" fill-rule="evenodd" stroke="none" stroke-linecap="butt" stroke-linejoin="miter"/><path d="M248.54217,178.76381c0.71254,1.04515 0.66523,2.32688 0.02366,2.77848c-0.78351,0.45091 -1.82867,0.11899 -2.54051,-0.92616c-0.73619,-1.04515 -0.78351,-2.39855 -0.04731,-2.92043c0.73619,-0.54623 1.85232,0.02366 2.56486,1.0688z" fill="#ffffff" fill-rule="evenodd" stroke="#001026" stroke-linecap="butt" stroke-linejoin="round"/><path d="M248.39953,180.14088c0,0.26094 -0.18997,0.47526 -0.42724,0.47526c-0.23728,0 -0.42724,-0.21362 -0.42724,-0.47526c0,-0.26163 0.18997,-0.47526 0.42724,-0.47526c0.24518,0.02154 0.43184,0.22919 0.42724,0.47526" fill="#001026" fill-rule="evenodd" stroke="none" stroke-linecap="butt" stroke-linejoin="miter"/><path d="M250.26213,184.34968c0,0 0.28947,-0.74991 0.67174,-0.9291c0.42437,-0.19891 1.76138,-0.21142 1.76138,-0.21142" fill="none" fill-rule="nonzero" stroke="#001026" stroke-linecap="round" stroke-linejoin="miter"/><path d="M245.88704,176.49493h1.38226" fill="none" fill-rule="nonzero" stroke="#001026" stroke-linecap="round" stroke-linejoin="miter"/><path d="M250.6643,177.61042c0,0 -0.09404,-0.56066 0.04096,-0.81565c0.1536,-0.29013 0.83204,-0.83335 0.83204,-0.83335" fill="none" fill-rule="nonzero" stroke="#001026" stroke-linecap="round" stroke-linejoin="miter"/><path d="M257.66978,184.09736c0.99115,0.30166 1.81551,1.67787 1.56418,2.68322c-0.05055,0.20219 -0.22006,0.39512 -0.32156,0.58238c-0.63782,1.17669 -2.33376,1.07187 -3.44873,1.06972c-0.47,-0.0009 -0.69464,0.06058 -1.0599,-0.13422c-0.24081,-0.12843 -0.2005,-0.57149 -0.18243,-0.77155c0.00976,-0.10798 0.23128,-0.25494 0.13155,-0.29747c-0.22533,-0.0961 -0.38474,-0.20453 -0.40692,-0.46745c-0.01443,-0.1711 0.02464,-0.31472 0.0929,-0.46763c0.00429,-0.00961 0.01548,-0.03116 0.00495,-0.03117c-0.12447,-0.00009 -0.30936,-0.11692 -0.35179,-0.21099c-0.09118,-0.20213 -0.03933,-0.41271 -0.03933,-0.6132c0,-0.08364 0.14353,-0.21654 0.06405,-0.2426c-0.46942,-0.15388 -2.37463,-0.06285 -2.08059,-0.88618c0.09355,-0.26194 1.6185,-0.26884 1.84868,-0.27451c0.59544,-0.01465 1.18713,-0.22022 1.78608,-0.24763c0.35286,-0.01615 0.75056,-0.03283 0.7556,-0.0612c0.06377,-0.35885 -0.02408,-0.74705 0.03059,-1.11072c0.07773,-0.51707 0.76419,-1.10427 1.21606,-0.60327c0.24283,0.26923 0.14866,0.69859 0.15183,1.01632c0.00233,0.23391 0.18467,0.6163 0.24477,0.8567z" fill="#ffab19" fill-rule="nonzero" stroke="#001026" stroke-linecap="butt" stroke-linejoin="miter"/></g><g><path d="M271.19658,173.34949c0.07098,-0.04732 0.18996,-0.02366 0.21362,0.07098l0.6172,2.5405c0,0 1.51971,1.11612 1.97062,1.89964c0.75986,1.30609 0.78351,2.37489 0.78351,2.37489c0,0 1.68602,0.49892 1.97062,1.85233c0.2846,1.35341 -0.75986,3.91826 -5.22436,4.79641c-4.4645,0.87815 -8.05016,-0.33261 -9.73617,-3.03942c-1.68601,-2.70681 0.97487,-5.9362 0.83222,-5.74623l-0.49822,-4.25018c-0.02366,-0.09533 0.09533,-0.16631 0.18996,-0.11899l2.87312,1.87598c0,0 1.0688,-0.40359 2.18493,-0.4509c0.66522,-0.04731 1.23511,0 1.78065,0.09533z" fill="#ffab19" fill-rule="evenodd" stroke="#001026" stroke-linecap="butt" stroke-linejoin="miter"/><g fill="#ffffff" fill-rule="evenodd" stroke="none" stroke-linecap="butt" stroke-linejoin="miter"><path d="M274.71056,180.33084c0,0 1.63869,0.42724 1.92329,1.78065c0.2846,1.3534 -0.85519,3.79928 -5.27167,4.65447c-5.74623,1.1871 -8.4774,-2.23225 -6.88671,-4.7491c1.59068,-2.5405 4.32185,-0.37993 6.31613,-0.52257c1.70968,-0.11899 1.89964,-1.61505 3.91827,-1.16344z"/></g><path d="M279.08043,180.59178c-1.11612,0.9025 -2.8258,0.92616 -2.8258,0.92616M278.77147,183.25127c-1.49605,0.11899 -2.42221,-0.33261 -2.42221,-0.33261" fill="none" fill-rule="evenodd" stroke="#001026" stroke-linecap="round" stroke-linejoin="round"/><path d="M270.69766,180.87707c0.49891,0 1.02079,0.04732 1.04515,0.21362c0.02366,0.33261 -0.33261,0.99713 -0.71254,1.02079c-0.42724,0.04731 -1.42507,-0.54623 -1.42507,-0.92616c-0.02366,-0.28529 0.61721,-0.30895 1.09247,-0.30895z" fill="#001026" fill-rule="evenodd" stroke="#001026" stroke-linecap="butt" stroke-linejoin="round"/><path d="M260.01168,180.5208c0,0 2.04228,0.66522 2.87311,1.40072M262.95646,182.75305c-1.0208,0.40359 -2.77848,0.14265 -2.77848,0.14265" fill="none" fill-rule="evenodd" stroke="#001026" stroke-linecap="round" stroke-linejoin="round"/><path d="M273.4998,178.09859c0.68888,1.0688 0.71254,2.27956 0.04732,2.70681c-0.66522,0.42724 -1.75699,-0.07098 -2.46953,-1.13979c-0.68888,-1.0688 -0.71254,-2.27956 -0.04732,-2.70681c0.66522,-0.4509 1.78065,0.07098 2.46953,1.13979z" fill="#ffffff" fill-rule="evenodd" stroke="#001026" stroke-linecap="butt" stroke-linejoin="round"/><path d="M273.40447,179.452c0,0.26094 -0.18997,0.47526 -0.42724,0.47526c-0.23728,0 -0.42724,-0.21362 -0.42724,-0.47526c0,-0.26163 0.18997,-0.47526 0.42724,-0.47526c0.23728,0 0.42724,0.21363 0.42724,0.47526" fill="#001026" fill-rule="evenodd" stroke="none" stroke-linecap="butt" stroke-linejoin="miter"/><path d="M267.61092,178.76381c0.71254,1.04515 0.66523,2.32688 0.02366,2.77848c-0.78351,0.45091 -1.82867,0.11899 -2.54051,-0.92616c-0.73619,-1.04515 -0.78351,-2.39855 -0.04731,-2.92043c0.73619,-0.54623 1.85232,0.02366 2.56486,1.0688z" fill="#ffffff" fill-rule="evenodd" stroke="#001026" stroke-linecap="butt" stroke-linejoin="round"/><path d="M267.46828,180.14088c0,0.26094 -0.18997,0.47526 -0.42724,0.47526c-0.23728,0 -0.42724,-0.21362 -0.42724,-0.47526c0,-0.26163 0.18997,-0.47526 0.42724,-0.47526c0.24518,0.02154 0.43184,0.22919 0.42724,0.47526" fill="#001026" fill-rule="evenodd" stroke="none" stroke-linecap="butt" stroke-linejoin="miter"/><path d="M269.33088,184.34967c0,0 0.28947,-0.74991 0.67174,-0.9291c0.42437,-0.19891 1.76138,-0.21142 1.76138,-0.21142" fill="none" fill-rule="nonzero" stroke="#001026" stroke-linecap="round" stroke-linejoin="miter"/><path d="M266.33805,176.49492h-1.38226" fill="none" fill-rule="nonzero" stroke="#001026" stroke-linecap="round" stroke-linejoin="miter"/><path d="M269.73305,177.61042c0,0 -0.09404,-0.56066 0.04096,-0.81565c0.15359,-0.29013 0.83204,-0.83335 0.83204,-0.83335" fill="none" fill-rule="nonzero" stroke="#001026" stroke-linecap="round" stroke-linejoin="miter"/><path d="M276.73853,184.09736c0.99115,0.30166 1.81551,1.67787 1.56418,2.68322c-0.05055,0.20219 -0.22006,0.39512 -0.32156,0.58238c-0.63782,1.17669 -2.33376,1.07187 -3.44873,1.06972c-0.47,-0.0009 -0.69464,0.06058 -1.0599,-0.13422c-0.24081,-0.12843 -0.2005,-0.57149 -0.18243,-0.77155c0.00976,-0.10798 0.23128,-0.25494 0.13155,-0.29747c-0.22533,-0.0961 -0.38474,-0.20453 -0.40692,-0.46745c-0.01443,-0.1711 0.02464,-0.31472 0.0929,-0.46763c0.00429,-0.00961 0.01548,-0.03116 0.00495,-0.03117c-0.12447,-0.00009 -0.30936,-0.11692 -0.35179,-0.21099c-0.09118,-0.20213 -0.03933,-0.41271 -0.03933,-0.6132c0,-0.08364 0.14353,-0.21654 0.06405,-0.2426c-0.46942,-0.15388 -2.37463,-0.06285 -2.08059,-0.88618c0.09355,-0.26194 1.6185,-0.26884 1.84868,-0.27451c0.59544,-0.01465 1.18713,-0.22022 1.78608,-0.24763c0.35286,-0.01615 0.75056,-0.03283 0.7556,-0.0612c0.06377,-0.35885 -0.02408,-0.74705 0.03059,-1.11072c0.07773,-0.51707 0.76419,-1.10427 1.21606,-0.60327c0.24283,0.26923 0.14866,0.69859 0.15183,1.01632c0.00233,0.23391 0.18467,0.6163 0.24477,0.8567z" fill="#ffab19" fill-rule="nonzero" stroke="#001026" stroke-linecap="butt" stroke-linejoin="miter"/></g></g></g></svg>