<svg viewBox="0,0,629.32019,456.254" height="456.254" width="629.32019" xmlns:xlink="http://www.w3.org/1999/xlink" xmlns="http://www.w3.org/2000/svg" version="1.1"><defs><radialGradient id="color-1" gradientUnits="userSpaceOnUse" r="4.33205" cy="315.62691" cx="540.81121"><stop stop-opacity="0.74902" stop-color="#ffffff" offset="0"></stop><stop stop-opacity="0.2" stop-color="#ffffff" offset="1"></stop></radialGradient><radialGradient id="color-2" gradientUnits="userSpaceOnUse" r="4.33205" cy="269.07529" cx="203.48937"><stop stop-opacity="0.74902" stop-color="#ffffff" offset="0"></stop><stop stop-opacity="0.2" stop-color="#ffffff" offset="1"></stop></radialGradient><radialGradient id="color-3" gradientUnits="userSpaceOnUse" r="4.33205" cy="372.88543" cx="341.79441"><stop stop-opacity="0.74902" stop-color="#ffffff" offset="0"></stop><stop stop-opacity="0.2" stop-color="#ffffff" offset="1"></stop></radialGradient><radialGradient id="color-4" gradientUnits="userSpaceOnUse" r="4.33205" cy="298.80743" cx="507.71173"><stop stop-opacity="0.74902" stop-color="#ffffff" offset="0"></stop><stop stop-opacity="0.2" stop-color="#ffffff" offset="1"></stop></radialGradient><radialGradient id="color-5" gradientUnits="userSpaceOnUse" r="4.33206" cy="294.47537" cx="323.03211"><stop stop-opacity="0.74902" stop-color="#ffffff" offset="0"></stop><stop stop-opacity="0.2" stop-color="#ffffff" offset="1"></stop></radialGradient><radialGradient id="color-6" gradientUnits="userSpaceOnUse" r="4.33206" cy="406.05181" cx="251.72476"><stop stop-opacity="0.74902" stop-color="#ffffff" offset="0"></stop><stop stop-opacity="0.2" stop-color="#ffffff" offset="1"></stop></radialGradient><radialGradient id="color-7" gradientUnits="userSpaceOnUse" r="4.33206" cy="374.49672" cx="405.33925"><stop stop-opacity="0.74902" stop-color="#ffffff" offset="0"></stop><stop stop-opacity="0.2" stop-color="#ffffff" offset="1"></stop></radialGradient><radialGradient id="color-8" gradientUnits="userSpaceOnUse" r="4.33207" cy="197.32855" cx="451.58471"><stop stop-opacity="0.74902" stop-color="#ffffff" offset="0"></stop><stop stop-opacity="0.2" stop-color="#ffffff" offset="1"></stop></radialGradient><radialGradient id="color-9" gradientUnits="userSpaceOnUse" r="4.33253" cy="261.04906" cx="391.83155"><stop stop-opacity="0.74902" stop-color="#ffffff" offset="0"></stop><stop stop-opacity="0.2" stop-color="#ffffff" offset="1"></stop></radialGradient><radialGradient id="color-10" gradientUnits="userSpaceOnUse" r="4.33253" cy="216.1771" cx="246.56651"><stop stop-opacity="0.74902" stop-color="#ffffff" offset="0"></stop><stop stop-opacity="0.2" stop-color="#ffffff" offset="1"></stop></radialGradient><radialGradient id="color-11" gradientUnits="userSpaceOnUse" r="4.33253" cy="349.34275" cx="306.1606"><stop stop-opacity="0.74902" stop-color="#ffffff" offset="0"></stop><stop stop-opacity="0.2" stop-color="#ffffff" offset="1"></stop></radialGradient><radialGradient id="color-12" gradientUnits="userSpaceOnUse" r="4.33253" cy="378.77145" cx="485.46506"><stop stop-opacity="0.74902" stop-color="#ffffff" offset="0"></stop><stop stop-opacity="0.2" stop-color="#ffffff" offset="1"></stop></radialGradient><radialGradient id="color-13" gradientUnits="userSpaceOnUse" r="4.33306" cy="251.61085" cx="344.45459"><stop stop-opacity="0.74902" stop-color="#ffffff" offset="0"></stop><stop stop-opacity="0.2" stop-color="#ffffff" offset="1"></stop></radialGradient><radialGradient id="color-14" gradientUnits="userSpaceOnUse" r="4.33306" cy="327.48223" cx="212.70121"><stop stop-opacity="0.74902" stop-color="#ffffff" offset="0"></stop><stop stop-opacity="0.2" stop-color="#ffffff" offset="1"></stop></radialGradient><radialGradient id="color-15" gradientUnits="userSpaceOnUse" r="4.33306" cy="327.48224" cx="401.00718"><stop stop-opacity="0.74902" stop-color="#ffffff" offset="0"></stop><stop stop-opacity="0.2" stop-color="#ffffff" offset="1"></stop></radialGradient><radialGradient id="color-16" gradientUnits="userSpaceOnUse" r="4.33306" cy="263.15207" cx="494.42984"><stop stop-opacity="0.74902" stop-color="#ffffff" offset="0"></stop><stop stop-opacity="0.2" stop-color="#ffffff" offset="1"></stop></radialGradient><radialGradient id="color-17" gradientUnits="userSpaceOnUse" r="4.33206" cy="186.91913" cx="318.70009"><stop stop-opacity="0.74902" stop-color="#ffffff" offset="0"></stop><stop stop-opacity="0.2" stop-color="#ffffff" offset="1"></stop></radialGradient><radialGradient id="color-18" gradientUnits="userSpaceOnUse" r="4.33205" cy="239.20002" cx="88.95338"><stop stop-opacity="0.74902" stop-color="#ffffff" offset="0"></stop><stop stop-opacity="0.2" stop-color="#ffffff" offset="1"></stop></radialGradient><radialGradient id="color-19" gradientUnits="userSpaceOnUse" r="4.3321" cy="370.16463" cx="26.20392"><stop stop-opacity="0.74902" stop-color="#ffffff" offset="0"></stop><stop stop-opacity="0.2" stop-color="#ffffff" offset="1"></stop></radialGradient><radialGradient id="color-20" gradientUnits="userSpaceOnUse" r="4.33291" cy="232.25552" cx="156.81814"><stop stop-opacity="0.74902" stop-color="#ffffff" offset="0"></stop><stop stop-opacity="0.2" stop-color="#ffffff" offset="1"></stop></radialGradient><radialGradient id="color-21" gradientUnits="userSpaceOnUse" r="4.33268" cy="287.01372" cx="54.16719"><stop stop-opacity="0.74902" stop-color="#ffffff" offset="0"></stop><stop stop-opacity="0.2" stop-color="#ffffff" offset="1"></stop></radialGradient><radialGradient id="color-22" gradientUnits="userSpaceOnUse" r="4.33205" cy="361.11431" cx="140.37079"><stop stop-opacity="0.74902" stop-color="#ffffff" offset="0"></stop><stop stop-opacity="0.2" stop-color="#ffffff" offset="1"></stop></radialGradient><radialGradient id="color-23" gradientUnits="userSpaceOnUse" r="4.33205" cy="298.1049" cx="136.03868"><stop stop-opacity="0.74902" stop-color="#ffffff" offset="0"></stop><stop stop-opacity="0.2" stop-color="#ffffff" offset="1"></stop></radialGradient><radialGradient id="color-24" gradientUnits="userSpaceOnUse" r="4.33253" cy="337.57164" cx="104.73706"><stop stop-opacity="0.74902" stop-color="#ffffff" offset="0"></stop><stop stop-opacity="0.2" stop-color="#ffffff" offset="1"></stop></radialGradient><radialGradient id="color-25" gradientUnits="userSpaceOnUse" r="4.33205" cy="155.45176" cx="340.77504"><stop stop-opacity="0.74902" stop-color="#ffffff" offset="0"></stop><stop stop-opacity="0.2" stop-color="#ffffff" offset="1"></stop></radialGradient><radialGradient id="color-26" gradientUnits="userSpaceOnUse" r="4.33206" cy="180.85184" cx="221.23215"><stop stop-opacity="0.74902" stop-color="#ffffff" offset="0"></stop><stop stop-opacity="0.2" stop-color="#ffffff" offset="1"></stop></radialGradient><radialGradient id="color-27" gradientUnits="userSpaceOnUse" r="4.33207" cy="83.70501" cx="92.67967"><stop stop-opacity="0.74902" stop-color="#ffffff" offset="0"></stop><stop stop-opacity="0.2" stop-color="#ffffff" offset="1"></stop></radialGradient><radialGradient id="color-28" gradientUnits="userSpaceOnUse" r="4.33253" cy="147.4255" cx="152.43275"><stop stop-opacity="0.74902" stop-color="#ffffff" offset="0"></stop><stop stop-opacity="0.2" stop-color="#ffffff" offset="1"></stop></radialGradient><radialGradient id="color-29" gradientUnits="userSpaceOnUse" r="4.33253" cy="102.55357" cx="297.69775"><stop stop-opacity="0.74902" stop-color="#ffffff" offset="0"></stop><stop stop-opacity="0.2" stop-color="#ffffff" offset="1"></stop></radialGradient><radialGradient id="color-30" gradientUnits="userSpaceOnUse" r="4.33306" cy="137.98731" cx="199.80984"><stop stop-opacity="0.74902" stop-color="#ffffff" offset="0"></stop><stop stop-opacity="0.2" stop-color="#ffffff" offset="1"></stop></radialGradient><radialGradient id="color-31" gradientUnits="userSpaceOnUse" r="4.33306" cy="149.52853" cx="49.83452"><stop stop-opacity="0.74902" stop-color="#ffffff" offset="0"></stop><stop stop-opacity="0.2" stop-color="#ffffff" offset="1"></stop></radialGradient><radialGradient id="color-32" gradientUnits="userSpaceOnUse" r="4.33206" cy="73.2956" cx="225.56421"><stop stop-opacity="0.74902" stop-color="#ffffff" offset="0"></stop><stop stop-opacity="0.2" stop-color="#ffffff" offset="1"></stop></radialGradient><radialGradient id="color-33" gradientUnits="userSpaceOnUse" r="4.33205" cy="271.01705" cx="478.39679"><stop stop-opacity="0.74902" stop-color="#ffffff" offset="0"></stop><stop stop-opacity="0.2" stop-color="#ffffff" offset="1"></stop></radialGradient><radialGradient id="color-34" gradientUnits="userSpaceOnUse" r="4.33291" cy="118.63198" cx="387.4462"><stop stop-opacity="0.74902" stop-color="#ffffff" offset="0"></stop><stop stop-opacity="0.2" stop-color="#ffffff" offset="1"></stop></radialGradient><radialGradient id="color-35" gradientUnits="userSpaceOnUse" r="4.33268" cy="173.39018" cx="490.09718"><stop stop-opacity="0.74902" stop-color="#ffffff" offset="0"></stop><stop stop-opacity="0.2" stop-color="#ffffff" offset="1"></stop></radialGradient><radialGradient id="color-36" gradientUnits="userSpaceOnUse" r="4.33205" cy="191.64567" cx="-12.39416"><stop stop-opacity="0.74902" stop-color="#ffffff" offset="0"></stop><stop stop-opacity="0.2" stop-color="#ffffff" offset="1"></stop></radialGradient><radialGradient id="color-37" gradientUnits="userSpaceOnUse" r="4.33253" cy="244.54386" cx="30.68302"><stop stop-opacity="0.74902" stop-color="#ffffff" offset="0"></stop><stop stop-opacity="0.2" stop-color="#ffffff" offset="1"></stop></radialGradient><radialGradient id="color-38" gradientUnits="userSpaceOnUse" r="4.33306" cy="133.23872" cx="-3.18231"><stop stop-opacity="0.74902" stop-color="#ffffff" offset="0"></stop><stop stop-opacity="0.2" stop-color="#ffffff" offset="1"></stop></radialGradient><radialGradient id="color-39" gradientUnits="userSpaceOnUse" r="4.33291" cy="228.46545" cx="-59.06529"><stop stop-opacity="0.74902" stop-color="#ffffff" offset="0"></stop><stop stop-opacity="0.2" stop-color="#ffffff" offset="1"></stop></radialGradient><radialGradient id="color-40" gradientUnits="userSpaceOnUse" r="4.33205" cy="99.60666" cx="-75.51278"><stop stop-opacity="0.74902" stop-color="#ffffff" offset="0"></stop><stop stop-opacity="0.2" stop-color="#ffffff" offset="1"></stop></radialGradient><radialGradient id="color-41" gradientUnits="userSpaceOnUse" r="4.33205" cy="162.61607" cx="-79.84485"><stop stop-opacity="0.74902" stop-color="#ffffff" offset="0"></stop><stop stop-opacity="0.2" stop-color="#ffffff" offset="1"></stop></radialGradient><radialGradient id="color-42" gradientUnits="userSpaceOnUse" r="4.33206" cy="279.86914" cx="5.34863"><stop stop-opacity="0.74902" stop-color="#ffffff" offset="0"></stop><stop stop-opacity="0.2" stop-color="#ffffff" offset="1"></stop></radialGradient><radialGradient id="color-43" gradientUnits="userSpaceOnUse" r="4.33253" cy="313.29544" cx="-63.45066"><stop stop-opacity="0.74902" stop-color="#ffffff" offset="0"></stop><stop stop-opacity="0.2" stop-color="#ffffff" offset="1"></stop></radialGradient><radialGradient id="color-44" gradientUnits="userSpaceOnUse" r="4.33306" cy="322.73366" cx="-16.07378"><stop stop-opacity="0.74902" stop-color="#ffffff" offset="0"></stop><stop stop-opacity="0.2" stop-color="#ffffff" offset="1"></stop></radialGradient><radialGradient id="color-45" gradientUnits="userSpaceOnUse" r="4.33206" cy="387.42538" cx="9.68062"><stop stop-opacity="0.74902" stop-color="#ffffff" offset="0"></stop><stop stop-opacity="0.2" stop-color="#ffffff" offset="1"></stop></radialGradient><radialGradient id="color-46" gradientUnits="userSpaceOnUse" r="4.33205" cy="40.61809" cx="273.92368"><stop stop-opacity="0.74902" stop-color="#ffffff" offset="0"></stop><stop stop-opacity="0.2" stop-color="#ffffff" offset="1"></stop></radialGradient><radialGradient id="color-47" gradientUnits="userSpaceOnUse" r="4.33205" cy="70.35022" cx="-30.29859"><stop stop-opacity="0.74902" stop-color="#ffffff" offset="0"></stop><stop stop-opacity="0.2" stop-color="#ffffff" offset="1"></stop></radialGradient><radialGradient id="color-48" gradientUnits="userSpaceOnUse" r="4.33206" cy="66.01817" cx="154.38082"><stop stop-opacity="0.74902" stop-color="#ffffff" offset="0"></stop><stop stop-opacity="0.2" stop-color="#ffffff" offset="1"></stop></radialGradient><radialGradient id="color-49" gradientUnits="userSpaceOnUse" r="4.33207" cy="-31.12866" cx="25.82842"><stop stop-opacity="0.74902" stop-color="#ffffff" offset="0"></stop><stop stop-opacity="0.2" stop-color="#ffffff" offset="1"></stop></radialGradient><radialGradient id="color-50" gradientUnits="userSpaceOnUse" r="4.33253" cy="32.59185" cx="85.5816"><stop stop-opacity="0.74902" stop-color="#ffffff" offset="0"></stop><stop stop-opacity="0.2" stop-color="#ffffff" offset="1"></stop></radialGradient><radialGradient id="color-51" gradientUnits="userSpaceOnUse" r="4.33253" cy="-12.2801" cx="230.84659"><stop stop-opacity="0.74902" stop-color="#ffffff" offset="0"></stop><stop stop-opacity="0.2" stop-color="#ffffff" offset="1"></stop></radialGradient><radialGradient id="color-52" gradientUnits="userSpaceOnUse" r="4.33306" cy="23.15365" cx="132.95854"><stop stop-opacity="0.74902" stop-color="#ffffff" offset="0"></stop><stop stop-opacity="0.2" stop-color="#ffffff" offset="1"></stop></radialGradient><radialGradient id="color-53" gradientUnits="userSpaceOnUse" r="4.33306" cy="34.69487" cx="-17.01681"><stop stop-opacity="0.74902" stop-color="#ffffff" offset="0"></stop><stop stop-opacity="0.2" stop-color="#ffffff" offset="1"></stop></radialGradient><radialGradient id="color-54" gradientUnits="userSpaceOnUse" r="4.33206" cy="-41.53807" cx="158.71293"><stop stop-opacity="0.74902" stop-color="#ffffff" offset="0"></stop><stop stop-opacity="0.2" stop-color="#ffffff" offset="1"></stop></radialGradient><radialGradient id="color-55" gradientUnits="userSpaceOnUse" r="4.33205" cy="10.74281" cx="388.45977"><stop stop-opacity="0.74902" stop-color="#ffffff" offset="0"></stop><stop stop-opacity="0.2" stop-color="#ffffff" offset="1"></stop></radialGradient><radialGradient id="color-56" gradientUnits="userSpaceOnUse" r="4.33291" cy="3.79831" cx="320.59479"><stop stop-opacity="0.74902" stop-color="#ffffff" offset="0"></stop><stop stop-opacity="0.2" stop-color="#ffffff" offset="1"></stop></radialGradient><radialGradient id="color-57" gradientUnits="userSpaceOnUse" r="4.33268" cy="58.55652" cx="423.24597"><stop stop-opacity="0.74902" stop-color="#ffffff" offset="0"></stop><stop stop-opacity="0.2" stop-color="#ffffff" offset="1"></stop></radialGradient><radialGradient id="color-58" gradientUnits="userSpaceOnUse" r="4.33204" cy="69.6477" cx="341.37439"><stop stop-opacity="0.74902" stop-color="#ffffff" offset="0"></stop><stop stop-opacity="0.2" stop-color="#ffffff" offset="1"></stop></radialGradient><radialGradient id="color-59" gradientUnits="userSpaceOnUse" r="4.33205" cy="-36.81153" cx="489.80729"><stop stop-opacity="0.74902" stop-color="#ffffff" offset="0"></stop><stop stop-opacity="0.2" stop-color="#ffffff" offset="1"></stop></radialGradient><radialGradient id="color-60" gradientUnits="userSpaceOnUse" r="4.33253" cy="16.08666" cx="446.73015"><stop stop-opacity="0.74902" stop-color="#ffffff" offset="0"></stop><stop stop-opacity="0.2" stop-color="#ffffff" offset="1"></stop></radialGradient><radialGradient id="color-61" gradientUnits="userSpaceOnUse" r="4.33291" cy="0.00826" cx="536.47831"><stop stop-opacity="0.74902" stop-color="#ffffff" offset="0"></stop><stop stop-opacity="0.2" stop-color="#ffffff" offset="1"></stop></radialGradient><radialGradient id="color-62" gradientUnits="userSpaceOnUse" r="4.33206" cy="51.41194" cx="472.06453"><stop stop-opacity="0.74902" stop-color="#ffffff" offset="0"></stop><stop stop-opacity="0.2" stop-color="#ffffff" offset="1"></stop></radialGradient></defs><g transform="translate(84.17689,45.87013)"><g style="mix-blend-mode: normal" stroke-dashoffset="0" stroke-dasharray="" stroke-miterlimit="10" stroke-linejoin="miter" stroke-linecap="butt" stroke-width="0" stroke="none" fill-rule="nonzero" data-paper-data="{&quot;isPaintingLayer&quot;:true}"><g><path fill="url(#color-1)" d="M536.47921,315.62691c0,-2.39253 1.93952,-4.33205 4.33205,-4.33205c2.39253,0 4.33205,1.93952 4.33205,4.33205c0,2.39253 -1.93952,4.33205 -4.33205,4.33205c-2.39253,0 -4.33205,-1.93952 -4.33205,-4.33205z"></path><path fill="url(#color-2)" d="M199.15729,269.07529c0,-2.39253 1.93952,-4.33205 4.33205,-4.33205c2.39253,0 4.33205,1.93952 4.33205,4.33205c0,2.39253 -1.93952,4.33205 -4.33205,4.33205c-2.39253,0 -4.33205,-1.93952 -4.33205,-4.33205z"></path><path fill="url(#color-3)" d="M337.46232,372.88543c0,-2.39253 1.93952,-4.33205 4.33205,-4.33205c2.39253,0 4.33205,1.93952 4.33205,4.33205c0,2.39253 -1.93952,4.33205 -4.33205,4.33205c-2.39253,0 -4.33205,-1.93952 -4.33205,-4.33205z"></path><path fill="url(#color-4)" d="M503.37969,298.80743c0,-2.39253 1.93952,-4.33205 4.33205,-4.33205c2.39253,0 4.33205,1.93952 4.33205,4.33205c0,2.39253 -1.93952,4.33205 -4.33205,4.33205c-2.39253,0 -4.33205,-1.93952 -4.33205,-4.33205z"></path><path fill="url(#color-5)" d="M320.08333,297.64886c-1.75267,-1.62859 -1.85326,-4.36965 -0.22467,-6.12231c1.62859,-1.75267 4.36965,-1.85326 6.12231,-0.22467c1.75267,1.62859 1.85326,4.36965 0.22467,6.12232c-1.62859,1.75267 -4.36965,1.85325 -6.12232,0.22467z"></path><path fill="url(#color-6)" d="M248.77593,409.2253c-1.75267,-1.62859 -1.85326,-4.36965 -0.22467,-6.12231c1.62859,-1.75267 4.36965,-1.85326 6.12231,-0.22467c1.75267,1.62859 1.85326,4.36965 0.22467,6.12231c-1.62859,1.75267 -4.36965,1.85326 -6.12231,0.22467z"></path><path fill="url(#color-7)" d="M402.39042,377.67021c-1.75267,-1.62859 -1.85326,-4.36965 -0.22467,-6.12231c1.62859,-1.75267 4.36965,-1.85326 6.12231,-0.22467c1.75267,1.62859 1.85326,4.36965 0.22467,6.12232c-1.62859,1.75267 -4.36965,1.85325 -6.12232,0.22467z"></path><path fill="url(#color-8)" d="M448.6359,200.50204c-1.75267,-1.62859 -1.85326,-4.36965 -0.22467,-6.12231c1.62859,-1.75267 4.36965,-1.85326 6.12232,-0.22467c1.75267,1.62859 1.85326,4.36965 0.22467,6.12232c-1.62859,1.75267 -4.36965,1.85325 -6.12232,0.22467z"></path><path fill="url(#color-9)" d="M388.21413,258.66559c1.31636,-1.99785 4.00304,-2.55031 6.00088,-1.23396c1.99785,1.31636 2.55031,4.00304 1.23396,6.00088c-1.31636,1.99785 -4.00304,2.55031 -6.00088,1.23396c-1.99785,-1.31636 -2.55031,-4.00304 -1.23396,-6.00089z"></path><path fill="url(#color-10)" d="M242.94912,213.79364c1.31636,-1.99785 4.00304,-2.55031 6.00088,-1.23396c1.99785,1.31636 2.55031,4.00304 1.23396,6.00088c-1.31636,1.99785 -4.00304,2.55031 -6.00088,1.23396c-1.99785,-1.31636 -2.55031,-4.00304 -1.23396,-6.00088z"></path><path fill="url(#color-11)" d="M302.54305,346.95928c1.31636,-1.99785 4.00304,-2.55031 6.00088,-1.23396c1.99785,1.31636 2.55031,4.00304 1.23396,6.00088c-1.31636,1.99785 -4.00304,2.55031 -6.00088,1.23396c-1.99785,-1.31636 -2.55031,-4.00304 -1.23396,-6.00089z"></path><path fill="url(#color-12)" d="M481.84763,376.38798c1.31636,-1.99785 4.00304,-2.55031 6.00088,-1.23396c1.99785,1.31636 2.55031,4.00304 1.23396,6.00088c-1.31636,1.99785 -4.00304,2.55031 -6.00089,1.23396c-1.99785,-1.31636 -2.55031,-4.00304 -1.23396,-6.00089z"></path><path fill="url(#color-13)" d="M340.24617,252.63842c-0.56751,-2.32425 0.8566,-4.66847 3.18085,-5.23598c2.32425,-0.56751 4.66847,0.8566 5.23598,3.18085c0.56751,2.32425 -0.8566,4.66847 -3.18085,5.23598c-2.32425,0.56751 -4.66846,-0.85661 -5.23597,-3.18085z"></path><path fill="url(#color-14)" d="M208.49279,328.5098c-0.56751,-2.32425 0.8566,-4.66847 3.18085,-5.23598c2.32425,-0.56751 4.66847,0.8566 5.23598,3.18085c0.56751,2.32425 -0.8566,4.66847 -3.18085,5.23598c-2.32425,0.56751 -4.66847,-0.8566 -5.23598,-3.18085z"></path><path fill="url(#color-15)" d="M396.79879,328.5098c-0.56751,-2.32425 0.8566,-4.66846 3.18085,-5.23597c2.32425,-0.56751 4.66847,0.8566 5.23598,3.18085c0.56751,2.32425 -0.8566,4.66847 -3.18084,5.23598c-2.32425,0.56751 -4.66847,-0.85661 -5.23598,-3.18086z"></path><path fill="url(#color-16)" d="M490.22146,264.17964c-0.56751,-2.32425 0.8566,-4.66847 3.18085,-5.23598c2.32425,-0.56751 4.66847,0.8566 5.23598,3.18085c0.56751,2.32425 -0.85661,4.66847 -3.18086,5.23598c-2.32425,0.56751 -4.66846,-0.85661 -5.23597,-3.18085z"></path><path fill="url(#color-17)" d="M315.75122,190.09262c-1.75267,-1.62859 -1.85326,-4.36965 -0.22467,-6.12231c1.62859,-1.75267 4.36965,-1.85326 6.12231,-0.22467c1.75267,1.62859 1.85326,4.36965 0.22467,6.12232c-1.62859,1.75267 -4.36965,1.85325 -6.12232,0.22467z"></path><path fill="url(#color-18)" d="M85.89016,236.13679c1.69177,-1.69177 4.43467,-1.69177 6.12644,0c1.69177,1.69177 1.69178,4.43467 0,6.12644c-1.69177,1.69177 -4.43468,1.69177 -6.12645,0c-1.69177,-1.69177 -1.69177,-4.43467 0,-6.12644z"></path><path fill="url(#color-19)" d="M21.8748,370.32349c-0.08774,-2.39091 1.77935,-4.40027 4.17027,-4.488c2.39091,-0.08774 4.40026,1.77935 4.488,4.17027c0.08774,2.39091 -1.77935,4.40027 -4.17027,4.488c-2.39091,0.08774 -4.40026,-1.77935 -4.488,-4.17027z"></path><path fill="url(#color-20)" d="M155.94565,228.01225c2.3435,-0.48188 4.63392,1.02723 5.1158,3.37073c0.48188,2.3435 -1.02723,4.63392 -3.37073,5.1158c-2.3435,0.48188 -4.63392,-1.02723 -5.1158,-3.37073c-0.48188,-2.3435 1.02723,-4.63392 3.37073,-5.1158z"></path><path fill="url(#color-21)" d="M50.4648,284.76452c1.2422,-2.04478 3.90681,-2.69539 5.9516,-1.45319c2.04478,1.2422 2.69539,3.90681 1.45319,5.9516c-1.2422,2.04478 -3.90681,2.69539 -5.9516,1.45319c-2.04478,-1.2422 -2.69539,-3.90681 -1.45319,-5.9516z"></path><path fill="url(#color-22)" d="M136.03868,361.11431c0,-2.39252 1.93952,-4.33205 4.33204,-4.33205c2.39252,0 4.33205,1.93952 4.33205,4.33205c0,2.39252 -1.93952,4.33204 -4.33205,4.33204c-2.39252,0 -4.33204,-1.93952 -4.33204,-4.33204z"></path><path fill="url(#color-23)" d="M131.70666,298.1049c0,-2.39252 1.93952,-4.33205 4.33204,-4.33205c2.39252,0 4.33205,1.93952 4.33205,4.33205c0,2.39252 -1.93952,4.33204 -4.33205,4.33204c-2.39252,0 -4.33204,-1.93952 -4.33204,-4.33204z"></path><path fill="url(#color-24)" d="M101.11965,335.18817c1.31636,-1.99784 4.00304,-2.55031 6.00088,-1.23396c1.99784,1.31636 2.55031,4.00303 1.23396,6.00088c-1.31636,1.99784 -4.00304,2.55031 -6.00089,1.23396c-1.99784,-1.31636 -2.55031,-4.00304 -1.23396,-6.00089z"></path><path fill="url(#color-25)" data-paper-data="{&quot;index&quot;:null}" d="M340.77504,159.78381c-2.39253,0 -4.33205,-1.93952 -4.33205,-4.33205c0,-2.39253 1.93952,-4.33205 4.33205,-4.33205c2.39253,0 4.33205,1.93952 4.33205,4.33205c0,2.39253 -1.93952,4.33205 -4.33205,4.33205z"></path><path fill="url(#color-26)" data-paper-data="{&quot;index&quot;:null}" d="M224.18097,184.02533c-1.75267,1.62858 -4.49373,1.528 -6.12232,-0.22467c-1.62859,-1.75267 -1.528,-4.49373 0.22467,-6.12232c1.75267,-1.62859 4.49372,-1.528 6.12231,0.22467c1.62859,1.75267 1.528,4.49372 -0.22467,6.12231z"></path><path fill="url(#color-27)" data-paper-data="{&quot;index&quot;:null}" d="M95.62849,86.87851c-1.75267,1.62858 -4.49373,1.528 -6.12232,-0.22467c-1.62859,-1.75267 -1.528,-4.49373 0.22467,-6.12232c1.75267,-1.62859 4.49373,-1.528 6.12232,0.22467c1.62859,1.75267 1.528,4.49372 -0.22467,6.12231z"></path><path fill="url(#color-28)" data-paper-data="{&quot;index&quot;:null}" d="M154.81626,151.04293c-1.99784,1.31635 -4.68452,0.76389 -6.00088,-1.23396c-1.31636,-1.99784 -0.76389,-4.68452 1.23396,-6.00088c1.99784,-1.31636 4.68452,-0.76389 6.00088,1.23396c1.31636,1.99784 0.76389,4.68453 -1.23396,6.00089z"></path><path fill="url(#color-29)" data-paper-data="{&quot;index&quot;:null}" d="M300.08119,106.17098c-1.99784,1.31636 -4.68452,0.76389 -6.00088,-1.23396c-1.31636,-1.99784 -0.76389,-4.68452 1.23396,-6.00088c1.99784,-1.31636 4.68452,-0.76389 6.00088,1.23396c1.31636,1.99784 0.76389,4.68452 -1.23396,6.00088z"></path><path fill="url(#color-30)" data-paper-data="{&quot;index&quot;:null}" d="M204.01823,139.01486c-0.56751,2.32424 -2.91172,3.74836 -5.23597,3.18085c-2.32425,-0.56751 -3.74836,-2.91173 -3.18085,-5.23598c0.56751,-2.32425 2.91173,-3.74836 5.23598,-3.18085c2.32425,0.56751 3.74836,2.91173 3.18085,5.23598z"></path><path fill="url(#color-31)" data-paper-data="{&quot;index&quot;:null}" d="M48.80696,153.73695c-2.32425,-0.56751 -3.74837,-2.91173 -3.18086,-5.23598c0.56751,-2.32425 2.91173,-3.74836 5.23598,-3.18085c2.32425,0.56751 3.74836,2.91173 3.18085,5.23598c-0.56751,2.32424 -2.91172,3.74836 -5.23597,3.18085z"></path><path fill="url(#color-32)" data-paper-data="{&quot;index&quot;:null}" d="M228.51304,76.46909c-1.75267,1.62858 -4.49373,1.528 -6.12232,-0.22467c-1.62859,-1.75267 -1.528,-4.49373 0.22467,-6.12232c1.75267,-1.62859 4.49372,-1.528 6.12231,0.22467c1.62859,1.75267 1.528,4.49372 -0.22467,6.12231z"></path><path fill="url(#color-33)" data-paper-data="{&quot;index&quot;:null}" d="M481.46001,267.95382c1.69177,1.69177 1.69177,4.43467 0,6.12644c-1.69177,1.69177 -4.43468,1.69177 -6.12645,0c-1.69178,-1.69177 -1.69177,-4.43467 0,-6.12644c1.69177,-1.69177 4.43467,-1.69177 6.12644,0z"></path><path fill="url(#color-34)" data-paper-data="{&quot;index&quot;:null}" d="M391.68944,119.50451c-0.48188,2.3435 -2.77231,3.85261 -5.1158,3.37073c-2.3435,-0.48188 -3.85261,-2.77231 -3.37073,-5.1158c0.48188,-2.3435 2.77231,-3.85261 5.1158,-3.37073c2.3435,0.48188 3.85261,2.77231 3.37073,5.1158z"></path><path fill="url(#color-35)" data-paper-data="{&quot;index&quot;:null}" d="M492.34641,177.09258c-2.04479,1.2422 -4.7094,0.59158 -5.9516,-1.45319c-1.2422,-2.04479 -0.59158,-4.7094 1.45319,-5.9516c2.04479,-1.2422 4.7094,-0.59158 5.9516,1.45319c1.2422,2.04479 0.59158,4.7094 -1.45319,5.9516z"></path><path fill="url(#color-36)" data-paper-data="{&quot;index&quot;:null}" d="M-12.39416,187.31362c2.39253,0 4.33205,1.93952 4.33205,4.33205c0,2.39253 -1.93952,4.33205 -4.33205,4.33205c-2.39253,0 -4.33205,-1.93952 -4.33205,-4.33205c0,-2.39253 1.93952,-4.33205 4.33205,-4.33205z"></path><path fill="url(#color-37)" data-paper-data="{&quot;index&quot;:null}" d="M28.29956,240.92644c1.99784,-1.31636 4.68452,-0.76389 6.00088,1.23396c1.31636,1.99784 0.76389,4.68452 -1.23396,6.00088c-1.99784,1.31636 -4.68452,0.76389 -6.00088,-1.23396c-1.31636,-1.99784 -0.76389,-4.68452 1.23396,-6.00088z"></path><path fill="url(#color-38)" data-paper-data="{&quot;index&quot;:null}" d="M-2.15483,129.03031c2.32425,0.56751 3.74836,2.91173 3.18085,5.23598c-0.56751,2.32425 -2.91173,3.74836 -5.23598,3.18085c-2.32425,-0.56751 -3.74836,-2.91173 -3.18085,-5.23598c0.56751,-2.32425 2.91173,-3.74836 5.23598,-3.18085z"></path><path fill="url(#color-39)" data-paper-data="{&quot;index&quot;:null}" d="M-63.30856,227.59291c0.48188,-2.3435 2.77231,-3.85261 5.1158,-3.37073c2.3435,0.48188 3.85261,2.77231 3.37073,5.1158c-0.48188,2.3435 -2.77231,3.85261 -5.1158,3.37073c-2.3435,-0.48188 -3.85261,-2.77231 -3.37073,-5.1158z"></path><path fill="url(#color-40)" data-paper-data="{&quot;index&quot;:null}" d="M-75.51278,95.27461c2.39253,0 4.33205,1.93952 4.33205,4.33204c0,2.39253 -1.93953,4.33205 -4.33205,4.33205c-2.39252,0 -4.33204,-1.93953 -4.33204,-4.33205c0,-2.39252 1.93952,-4.33204 4.33204,-4.33204z"></path><path fill="url(#color-41)" data-paper-data="{&quot;index&quot;:null}" d="M-79.84485,158.28401c2.39253,0 4.33205,1.93952 4.33205,4.33204c0,2.39253 -1.93953,4.33205 -4.33205,4.33205c-2.39252,0 -4.33204,-1.93953 -4.33204,-4.33205c0,-2.39252 1.93952,-4.33204 4.33204,-4.33204z"></path><path fill="url(#color-42)" data-paper-data="{&quot;index&quot;:null}" d="M8.29736,276.69564c1.75267,1.62859 1.85326,4.36965 0.22467,6.12231c-1.62859,1.75267 -4.36965,1.85326 -6.12231,0.22467c-1.75267,-1.62859 -1.85326,-4.36965 -0.22467,-6.12232c1.62859,-1.75267 4.36965,-1.85325 6.12232,-0.22467z"></path><path fill="url(#color-43)" data-paper-data="{&quot;index&quot;:null}" d="M-59.83325,315.67891c-1.31636,1.99785 -4.00304,2.55031 -6.00088,1.23396c-1.99785,-1.31636 -2.55031,-4.00304 -1.23396,-6.00088c1.31636,-1.99785 4.00304,-2.55031 6.00088,-1.23396c1.99785,1.31636 2.55031,4.00304 1.23396,6.00089z"></path><path fill="url(#color-44)" data-paper-data="{&quot;index&quot;:null}" d="M-11.86528,321.70608c0.56751,2.32425 -0.8566,4.66847 -3.18085,5.23598c-2.32425,0.56751 -4.66847,-0.8566 -5.23598,-3.18085c-0.56751,-2.32425 0.8566,-4.66847 3.18085,-5.23598c2.32425,-0.56751 4.66846,0.85661 5.23597,3.18085z"></path><path fill="url(#color-45)" data-paper-data="{&quot;index&quot;:null}" d="M12.62951,384.25188c1.75267,1.62859 1.85326,4.36965 0.22467,6.12231c-1.62859,1.75267 -4.36965,1.85326 -6.12231,0.22467c-1.75267,-1.62859 -1.85326,-4.36965 -0.22467,-6.12232c1.62859,-1.75267 4.36965,-1.85325 6.12232,-0.22467z"></path><path fill="url(#color-46)" data-paper-data="{&quot;index&quot;:null}" d="M273.92368,44.95014c-2.39253,0 -4.33205,-1.93952 -4.33205,-4.33205c0,-2.39253 1.93952,-4.33205 4.33205,-4.33205c2.39253,0 4.33205,1.93952 4.33205,4.33205c0,2.39253 -1.93952,4.33205 -4.33205,4.33205z"></path><path fill="url(#color-47)" data-paper-data="{&quot;index&quot;:null}" d="M-30.29859,74.68228c-2.39253,0 -4.33205,-1.93952 -4.33205,-4.33205c0,-2.39253 1.93952,-4.33205 4.33205,-4.33205c2.39253,0 4.33205,1.93952 4.33205,4.33205c0,2.39253 -1.93952,4.33205 -4.33205,4.33205z"></path><path fill="url(#color-48)" data-paper-data="{&quot;index&quot;:null}" d="M157.32969,69.19166c-1.75267,1.62858 -4.49373,1.528 -6.12232,-0.22467c-1.62859,-1.75267 -1.528,-4.49373 0.22467,-6.12232c1.75267,-1.62859 4.49372,-1.528 6.12231,0.22467c1.62859,1.75267 1.528,4.49372 -0.22467,6.12231z"></path><path fill="url(#color-49)" data-paper-data="{&quot;index&quot;:null}" d="M28.77725,-27.95516c-1.75267,1.62858 -4.49373,1.528 -6.12232,-0.22467c-1.62859,-1.75267 -1.528,-4.49373 0.22467,-6.12232c1.75267,-1.62859 4.49373,-1.528 6.12232,0.22467c1.62859,1.75267 1.528,4.49372 -0.22467,6.12231z"></path><path fill="url(#color-50)" data-paper-data="{&quot;index&quot;:null}" d="M87.96508,36.20927c-1.99784,1.31635 -4.68452,0.76389 -6.00088,-1.23396c-1.31636,-1.99784 -0.76389,-4.68452 1.23396,-6.00088c1.99784,-1.31636 4.68452,-0.76389 6.00088,1.23396c1.31636,1.99784 0.76389,4.68453 -1.23396,6.00089z"></path><path fill="url(#color-51)" data-paper-data="{&quot;index&quot;:null}" d="M233.23008,-8.66269c-1.99784,1.31636 -4.68452,0.76389 -6.00088,-1.23396c-1.31636,-1.99784 -0.76389,-4.68452 1.23396,-6.00088c1.99784,-1.31636 4.68452,-0.76389 6.00088,1.23396c1.31636,1.99784 0.76389,4.68452 -1.23396,6.00088z"></path><path fill="url(#color-52)" data-paper-data="{&quot;index&quot;:null}" d="M137.16691,24.18121c-0.56751,2.32424 -2.91172,3.74836 -5.23597,3.18085c-2.32425,-0.56751 -3.74836,-2.91173 -3.18085,-5.23598c0.56751,-2.32425 2.91173,-3.74836 5.23598,-3.18085c2.32425,0.56751 3.74836,2.91173 3.18085,5.23598z"></path><path fill="url(#color-53)" data-paper-data="{&quot;index&quot;:null}" d="M-18.04431,38.90328c-2.32425,-0.56751 -3.74837,-2.91173 -3.18086,-5.23598c0.56751,-2.32425 2.91173,-3.74836 5.23598,-3.18085c2.32425,0.56751 3.74836,2.91173 3.18085,5.23598c-0.56751,2.32424 -2.91172,3.74836 -5.23597,3.18085z"></path><path fill="url(#color-54)" data-paper-data="{&quot;index&quot;:null}" d="M161.66171,-38.36457c-1.75267,1.62858 -4.49373,1.528 -6.12232,-0.22467c-1.62859,-1.75267 -1.528,-4.49373 0.22467,-6.12232c1.75267,-1.62859 4.49372,-1.528 6.12231,0.22467c1.62859,1.75267 1.528,4.49372 -0.22467,6.12231z"></path><path fill="url(#color-55)" data-paper-data="{&quot;index&quot;:null}" d="M391.52299,7.67959c1.69177,1.69177 1.69177,4.43467 0,6.12644c-1.69177,1.69177 -4.43468,1.69177 -6.12645,0c-1.69178,-1.69177 -1.69177,-4.43467 0,-6.12644c1.69177,-1.69177 4.43467,-1.69177 6.12644,0z"></path><path fill="url(#color-56)" data-paper-data="{&quot;index&quot;:null}" d="M324.83808,4.67084c-0.48188,2.3435 -2.77231,3.85261 -5.1158,3.37073c-2.3435,-0.48188 -3.85261,-2.77231 -3.37073,-5.1158c0.48188,-2.3435 2.77231,-3.85261 5.1158,-3.37073c2.3435,0.48188 3.85261,2.77231 3.37073,5.1158z"></path><path fill="url(#color-57)" data-paper-data="{&quot;index&quot;:null}" d="M425.49518,62.25891c-2.04479,1.2422 -4.7094,0.59158 -5.9516,-1.45319c-1.2422,-2.04479 -0.59158,-4.7094 1.45319,-5.9516c2.04479,-1.2422 4.7094,-0.59158 5.9516,1.45319c1.2422,2.04479 0.59158,4.7094 -1.45319,5.9516z"></path><path fill="url(#color-58)" data-paper-data="{&quot;index&quot;:null}" d="M341.37439,73.97974c-2.39253,0 -4.33205,-1.93952 -4.33205,-4.33204c0,-2.39253 1.93953,-4.33205 4.33205,-4.33205c2.39252,0 4.33204,1.93953 4.33204,4.33205c0,2.39252 -1.93952,4.33204 -4.33204,4.33204z"></path><path fill="url(#color-59)" data-paper-data="{&quot;index&quot;:null}" d="M494.13933,-36.81153c0,2.39253 -1.93952,4.33205 -4.33205,4.33205c-2.39253,0 -4.33205,-1.93952 -4.33205,-4.33205c0,-2.39253 1.93952,-4.33205 4.33205,-4.33205c2.39253,0 4.33205,1.93952 4.33205,4.33205z"></path><path fill="url(#color-60)" data-paper-data="{&quot;index&quot;:null}" d="M450.34754,18.47012c-1.31636,1.99785 -4.00304,2.55031 -6.00088,1.23396c-1.99785,-1.31636 -2.55031,-4.00304 -1.23396,-6.00088c1.31636,-1.99785 4.00304,-2.55031 6.00088,-1.23396c1.99785,1.31636 2.55031,4.00304 1.23396,6.00088z"></path><path fill="url(#color-61)" data-paper-data="{&quot;index&quot;:null}" d="M537.35083,4.25152c-2.3435,0.48188 -4.63392,-1.02723 -5.1158,-3.37073c-0.48188,-2.3435 1.02723,-4.63392 3.37073,-5.1158c2.3435,-0.48188 4.63392,1.02723 5.1158,3.37073c0.48188,2.3435 -1.02723,4.63392 -3.37073,5.1158z"></path><path fill="url(#color-62)" data-paper-data="{&quot;index&quot;:null}" d="M469.11569,48.23843c1.75267,-1.62858 4.49373,-1.528 6.12232,0.22467c1.62859,1.75267 1.528,4.49373 -0.22467,6.12232c-1.75267,1.62859 -4.49372,1.528 -6.12231,-0.22467c-1.62859,-1.75267 -1.528,-4.49372 0.22467,-6.12231z"></path></g></g></g></svg>