<svg version="1.1" xmlns="http://www.w3.org/2000/svg" xmlns:xlink="http://www.w3.org/1999/xlink" width="29.19527" height="14.21774" viewBox="0,0,29.19527,14.21774"><g transform="translate(-242.61273,-173.38616)"><g data-paper-data="{&quot;isPaintingLayer&quot;:true}" fill-rule="nonzero" stroke="none" stroke-width="0.5" stroke-linecap="butt" stroke-linejoin="miter" stroke-miterlimit="10" stroke-dasharray="" stroke-dashoffset="0" style="mix-blend-mode: normal"><g><path d="M247.96647,181.01609c-0.36461,-1.06158 -2.74039,-1.28912 -3.63533,-1.82608c-0.05976,-0.03586 -0.25721,-0.24903 -0.46861,-0.52764c-0.24959,1.14263 -0.50669,2.31124 -0.54184,3.45643c-0.01695,0.55237 -0.00198,1.16381 0.08134,1.71474c0.24907,1.64683 2.88491,3.27876 4.87101,3.36091c-0.0029,-0.01197 -0.00516,-0.02419 -0.00674,-0.03662c-0.45629,-1.56964 0.40327,-4.09464 -0.29982,-6.14174zM244.74681,178.66049c1.09868,0.98788 2.97333,0.61597 3.82041,2.02777c1.10049,1.83414 0.08274,4.44711 0.3581,6.37458c0.00274,0.01718 0.00415,0.0348 0.00415,0.05275c0,0.01477 -0.00096,0.0293 -0.00283,0.04357c0.1214,-0.01985 0.23824,-0.04758 0.34959,-0.08366c0.52663,-0.17065 1.03655,-0.64176 1.51037,-0.92606c0.72243,-0.43346 2.08119,-0.90805 2.41408,-1.73523c1.10487,-2.74545 -0.56368,-5.75478 -1.40049,-8.49679c-0.61611,0.81206 -1.47308,1.66414 -1.76982,1.91044c-0.09753,0.08095 -0.5757,0.50121 -0.91192,0.62651c-0.31558,0.98842 -3.76546,1.02863 -4.16067,0.09001c-0.16589,-0.39398 0.48754,-1.35915 0.76404,-0.87527c0.09812,0.05792 0.16395,0.16473 0.16395,0.28692c0,0.04384 -0.00847,0.08569 -0.02387,0.12402c0.11866,0.58325 3.57079,0.70424 2.58491,-0.61196c-0.57856,-0.77241 -3.06167,-0.08845 -4.27511,0.01902c0.1805,0.3783 0.28358,0.91123 0.57511,1.17336zM252.86529,177.25096c0.02237,0.09194 0.06355,0.17833 0.0908,0.26895c0.55255,1.83731 2.01354,4.51492 1.17543,6.50541c-1.57939,3.75106 -6.98038,4.60397 -10.04501,2.31837c-2.02962,-1.5137 -1.53285,-4.81458 -1.01936,-6.97769c0.06131,-0.25828 0.12393,-0.99119 0.26434,-1.57138c-0.07309,-0.17287 -0.11271,-0.33271 -0.0958,-0.45866c-0.09033,-0.04726 -0.10564,-0.2104 -0.00569,-0.54135c0.46686,-1.54585 4.93878,-3.38871 6.30551,-3.40729c0.80821,-0.01098 2.66202,0.03465 2.93031,1.10783c0.03723,0.1489 -0.01651,0.35358 -0.13048,0.58931c0.29971,0.49061 0.44905,1.83408 0.52994,2.16649zM251.44378,174.35516c-1.70703,-0.8131 -4.52259,0.14947 -5.99642,1.19641c-0.02927,0.02079 -0.05551,0.06653 -0.08285,0.09214c-0.01999,0.01872 -0.51756,0.55716 -1.03476,1.02436c1.51119,-0.56108 4.6134,-0.71452 4.87059,0.944c0.8303,-0.65136 2.93115,-2.92933 2.24344,-3.2569z" fill="#000000"/><path d="M248.2775,187.177c0.00158,0.01243 0.00378,0.02468 0.00669,0.03664c-1.9861,-0.08214 -4.65386,-1.72541 -4.90292,-3.37224c-0.08332,-0.55093 -0.09863,-1.17713 -0.08168,-1.7295c0.03515,-1.1452 0.3042,-2.32712 0.55379,-3.46975c0.21139,0.2786 0.40991,0.49132 0.46967,0.52719c0.89494,0.53697 3.29547,0.77051 3.66008,1.83209c0.7031,2.0471 -0.16192,4.60594 0.29437,6.17558z" data-paper-data="{&quot;noHover&quot;:false,&quot;origItem&quot;:[&quot;Path&quot;,{&quot;applyMatrix&quot;:true,&quot;segments&quot;:[[[88.12714,440.83609],[3.16786,9.2234],[-1.64278,-4.78305]],[[71.74781,432.60851],[4.03223,2.41934],[-0.26928,-0.16157]],[[69.63646,430.2312],[0.95246,1.25527],[-1.12456,5.14821]],[[67.19513,445.80449],[0.15838,-5.1598],[-0.07639,2.48872]],[[67.56162,453.53038],[-0.37541,-2.48224],[1.12218,7.41995]],[[89.5084,468.67326],[-8.94852,-0.37012],[-0.01309,-0.05391]],[[89.47804,468.50828],[0.00709,0.05601],[-2.05586,-7.07216]]],&quot;closed&quot;:true}]}" fill="#a8a8a8"/><path d="M244.1549,177.47263c1.21344,-0.10747 3.71107,-0.79901 4.28963,-0.0266c0.98588,1.3162 -2.44939,1.23404 -2.56805,0.65079c0.0154,-0.03833 -0.0049,-0.11399 -0.0049,-0.15783c0,-0.12219 -0.03762,-0.19473 -0.13574,-0.25265c-0.2765,-0.48388 -0.96156,0.45058 -0.79566,0.84456c0.39521,0.93861 3.86449,0.88976 4.18008,-0.09865c0.33622,-0.1253 0.81923,-0.54461 0.91676,-0.62557c0.29674,-0.2463 1.15735,-1.09688 1.77346,-1.90894c0.83681,2.74201 2.51359,5.78329 1.40872,8.52875c-0.33289,0.82718 -1.70162,1.30999 -2.42405,1.74345c-0.47383,0.28429 -0.99064,0.75705 -1.51727,0.9277c-0.11135,0.03608 -0.22959,0.06387 -0.35099,0.08372c0.00186,-0.01426 0.00235,-0.07318 0.00235,-0.08795c0,-0.01795 -0.0014,-0.03557 -0.00414,-0.05275c-0.27536,-1.92747 0.75005,-4.49734 -0.35044,-6.33148c-0.84709,-1.4118 -2.71097,-1.04811 -3.80965,-2.03598c-0.29153,-0.26213 -0.42961,-0.82227 -0.61011,-1.20057z" data-paper-data="{&quot;noHover&quot;:false,&quot;origItem&quot;:[&quot;Path&quot;,{&quot;applyMatrix&quot;:true,&quot;segments&quot;:[[[73.62069,430.22272],[-1.31352,-1.18105],[4.9502,4.45096]],[[90.83392,439.35904],[-3.81661,-6.36101],[4.95833,8.26389]],[[92.44735,468.0803],[-1.24063,-8.68438],[0.01232,0.07741]],[[92.46608,468.31798],[0,-0.08088],[0,0.06653]],[[92.45335,468.51427],[0.0084,-0.06424],[0.54698,-0.08944]],[[94.02847,468.13732],[-0.5017,0.16256],[2.37278,-0.76885]],[[100.83359,463.96491],[-2.13487,1.28092],[3.25497,-1.95298]],[[111.71045,456.14666],[-1.49985,3.72694],[4.97806,-12.36989]],[[105.40041,417.86361],[3.77032,12.35438],[-2.77591,3.6588]],[[97.4263,426.47127],[1.33698,-1.10973],[-0.43943,0.36474]],[[93.31756,429.29407],[1.51486,-0.56454],[-1.4219,4.4534]],[[74.5713,429.69964],[1.78063,4.229],[-0.74743,-1.77514]],[[78.01373,425.75604],[-1.2458,-2.18014],[0.44211,0.26093]],[[78.75243,427.04877],[0,-0.55053],[0,0.19752]],[[78.64488,427.60759],[0.06938,-0.17271],[0.53463,2.62786]],[[90.2914,424.85031],[4.44199,5.93028],[-2.60676,-3.48016]],[[71.02951,424.93602],[5.46726,-0.48424],[0.81326,1.70444]]],&quot;closed&quot;:true}]}" fill="#a8a8a8"/><path d="M249.21306,177.63025c-0.25719,-1.65851 -3.39375,-1.51828 -4.90494,-0.9572c0.5172,-0.4672 1.01426,-1.01223 1.03425,-1.03095c0.02734,-0.02561 0.05365,-0.07221 0.08292,-0.093c1.47383,-1.04693 4.3319,-2.01569 6.03892,-1.20259c0.68771,0.32757 -1.42086,2.63238 -2.25115,3.28374z" data-paper-data="{&quot;noHover&quot;:false,&quot;origItem&quot;:[&quot;Path&quot;,{&quot;applyMatrix&quot;:true,&quot;segments&quot;:[[[103.79448,410.82466],[3.09853,1.4759],[-7.69115,-3.66348]],[[76.77706,416.21519],[6.64049,-4.71707],[-0.13188,0.09368]],[[76.40378,416.63035],[0.12319,-0.11539],[-0.09005,0.08435]],[[71.74159,421.24567],[2.33027,-2.10502],[6.80881,-2.52802]],[[93.68648,425.49893],[-1.1588,-7.47259],[3.74096,-2.93476]]],&quot;closed&quot;:true}]}" fill="#a8a8a8"/><path d="M249.06385,180.61865c0.03097,-0.08273 0.06264,-0.16023 0.09489,-0.23277c0.84674,-1.9039 2.10821,-0.38976 2.32111,-0.30266c0.30358,0.1242 1.11156,-0.54159 1.37413,-0.27902c0.69392,0.69392 -1.1788,0.9578 -1.51651,0.94486c-0.45048,-0.01726 -0.25006,-0.45598 -0.5478,-0.58122c-0.30782,-0.12948 -1.20063,1.01071 -1.46245,0.77645z" fill="#0002ff"/><path d="M249.48574,181.95183c0.05929,-0.10376 0.13599,-0.21214 0.223,-0.31435c0.4092,-0.48065 1.04652,-0.82452 1.17414,0.09354c0.03551,0.25541 0.46125,-0.23274 0.70222,-0.32456c0.39117,-0.14905 1.37911,-0.47035 1.39236,0.12738c0.0076,0.34279 -2.08745,1.00326 -2.26265,0.98925c-0.39953,-0.03197 -0.29906,-0.55152 -0.58985,-0.33641c-0.06925,0.05122 -0.17166,0.09734 -0.25566,0.09807c-0.06472,0.00056 -0.18943,0.00678 -0.21959,-0.04601z" fill="#ff0000"/></g><g><path d="M265.3893,181.01609c-0.36461,-1.06158 -2.74039,-1.28912 -3.63533,-1.82608c-0.05976,-0.03586 -0.25721,-0.24903 -0.4686,-0.52764c-0.24959,1.14263 -0.50669,2.31124 -0.54184,3.45643c-0.01695,0.55237 -0.00198,1.16381 0.08134,1.71474c0.24907,1.64683 2.88491,3.27876 4.87101,3.36091c-0.0029,-0.01197 -0.00516,-0.02419 -0.00674,-0.03662c-0.45629,-1.56964 0.40327,-4.09464 -0.29983,-6.14174zM262.16964,178.66049c1.09868,0.98788 2.97333,0.61597 3.82041,2.02777c1.10049,1.83414 0.08274,4.44711 0.35809,6.37458c0.00274,0.01718 0.00416,0.0348 0.00416,0.05275c0,0.01477 -0.00096,0.0293 -0.00283,0.04357c0.1214,-0.01985 0.23824,-0.04758 0.34959,-0.08366c0.52663,-0.17065 1.03655,-0.64176 1.51037,-0.92606c0.72243,-0.43346 2.08119,-0.90805 2.41408,-1.73523c1.10487,-2.74545 -0.56368,-5.75478 -1.40049,-8.49679c-0.61611,0.81206 -1.47308,1.66414 -1.76982,1.91044c-0.09753,0.08095 -0.5757,0.50121 -0.91192,0.62651c-0.31558,0.98842 -3.76546,1.02863 -4.16066,0.09001c-0.16589,-0.39398 0.48754,-1.35915 0.76404,-0.87527c0.09812,0.05792 0.16395,0.16473 0.16395,0.28692c0,0.04384 -0.00847,0.08569 -0.02387,0.12402c0.11866,0.58325 3.57079,0.70424 2.5849,-0.61196c-0.57856,-0.77241 -3.06167,-0.08845 -4.27511,0.01902c0.1805,0.3783 0.28358,0.91123 0.57511,1.17336zM270.28812,177.25096c0.02237,0.09194 0.06356,0.17833 0.09081,0.26895c0.55255,1.83731 2.01354,4.51492 1.17543,6.50541c-1.57939,3.75106 -6.98038,4.60397 -10.04501,2.31837c-2.02962,-1.5137 -1.53286,-4.81458 -1.01936,-6.97769c0.06131,-0.25828 0.12394,-0.99119 0.26435,-1.57138c-0.07309,-0.17287 -0.11271,-0.33271 -0.0958,-0.45866c-0.09033,-0.04726 -0.10564,-0.2104 -0.00569,-0.54135c0.46686,-1.54585 4.93878,-3.38871 6.30551,-3.40729c0.80821,-0.01098 2.66202,0.03465 2.93031,1.10783c0.03723,0.1489 -0.01651,0.35358 -0.13048,0.58931c0.29971,0.49061 0.44905,1.83408 0.52993,2.16649zM268.86661,174.35516c-1.70703,-0.8131 -4.52259,0.14947 -5.99642,1.19641c-0.02927,0.02079 -0.05551,0.06653 -0.08285,0.09214c-0.01999,0.01872 -0.51756,0.55716 -1.03476,1.02436c1.51119,-0.56108 4.6134,-0.71452 4.87059,0.944c0.8303,-0.65136 2.93114,-2.92933 2.24343,-3.2569z" fill="#000000"/><path d="M265.70033,187.177c0.00158,0.01243 0.00379,0.02468 0.00669,0.03664c-1.9861,-0.08214 -4.65386,-1.72541 -4.90292,-3.37224c-0.08332,-0.55093 -0.09863,-1.17713 -0.08168,-1.7295c0.03515,-1.1452 0.30419,-2.32712 0.55378,-3.46975c0.21139,0.2786 0.40991,0.49132 0.46968,0.52719c0.89494,0.53697 3.29547,0.77051 3.66008,1.83209c0.7031,2.0471 -0.16192,4.60594 0.29437,6.17558z" data-paper-data="{&quot;noHover&quot;:false,&quot;origItem&quot;:[&quot;Path&quot;,{&quot;applyMatrix&quot;:true,&quot;segments&quot;:[[[88.12714,440.83609],[3.16786,9.2234],[-1.64278,-4.78305]],[[71.74781,432.60851],[4.03223,2.41934],[-0.26928,-0.16157]],[[69.63646,430.2312],[0.95246,1.25527],[-1.12456,5.14821]],[[67.19513,445.80449],[0.15838,-5.1598],[-0.07639,2.48872]],[[67.56162,453.53038],[-0.37541,-2.48224],[1.12218,7.41995]],[[89.5084,468.67326],[-8.94852,-0.37012],[-0.01309,-0.05391]],[[89.47804,468.50828],[0.00709,0.05601],[-2.05586,-7.07216]]],&quot;closed&quot;:true}]}" fill="#a8a8a8"/><path d="M261.57773,177.47263c1.21344,-0.10747 3.71107,-0.79901 4.28963,-0.0266c0.98588,1.3162 -2.44939,1.23404 -2.56805,0.65079c0.0154,-0.03833 -0.0049,-0.11399 -0.0049,-0.15783c0,-0.12219 -0.03762,-0.19473 -0.13574,-0.25265c-0.2765,-0.48388 -0.96156,0.45058 -0.79566,0.84456c0.39521,0.93861 3.86449,0.88976 4.18008,-0.09865c0.33622,-0.1253 0.81923,-0.54461 0.91676,-0.62557c0.29674,-0.2463 1.15735,-1.09688 1.77346,-1.90894c0.83681,2.74201 2.51359,5.78329 1.40872,8.52875c-0.33289,0.82718 -1.70163,1.30999 -2.42406,1.74345c-0.47383,0.28429 -0.99063,0.75705 -1.51726,0.9277c-0.11135,0.03608 -0.22959,0.06387 -0.35099,0.08372c0.00186,-0.01426 0.00235,-0.07318 0.00235,-0.08795c0,-0.01795 -0.00141,-0.03557 -0.00414,-0.05275c-0.27536,-1.92747 0.75005,-4.49734 -0.35044,-6.33148c-0.84709,-1.4118 -2.71097,-1.04811 -3.80965,-2.03598c-0.29153,-0.26213 -0.42961,-0.82227 -0.61011,-1.20057z" data-paper-data="{&quot;noHover&quot;:false,&quot;origItem&quot;:[&quot;Path&quot;,{&quot;applyMatrix&quot;:true,&quot;segments&quot;:[[[73.62069,430.22272],[-1.31352,-1.18105],[4.9502,4.45096]],[[90.83392,439.35904],[-3.81661,-6.36101],[4.95833,8.26389]],[[92.44735,468.0803],[-1.24063,-8.68438],[0.01232,0.07741]],[[92.46608,468.31798],[0,-0.08088],[0,0.06653]],[[92.45335,468.51427],[0.0084,-0.06424],[0.54698,-0.08944]],[[94.02847,468.13732],[-0.5017,0.16256],[2.37278,-0.76885]],[[100.83359,463.96491],[-2.13487,1.28092],[3.25497,-1.95298]],[[111.71045,456.14666],[-1.49985,3.72694],[4.97806,-12.36989]],[[105.40041,417.86361],[3.77032,12.35438],[-2.77591,3.6588]],[[97.4263,426.47127],[1.33698,-1.10973],[-0.43943,0.36474]],[[93.31756,429.29407],[1.51486,-0.56454],[-1.4219,4.4534]],[[74.5713,429.69964],[1.78063,4.229],[-0.74743,-1.77514]],[[78.01373,425.75604],[-1.2458,-2.18014],[0.44211,0.26093]],[[78.75243,427.04877],[0,-0.55053],[0,0.19752]],[[78.64488,427.60759],[0.06938,-0.17271],[0.53463,2.62786]],[[90.2914,424.85031],[4.44199,5.93028],[-2.60676,-3.48016]],[[71.02951,424.93602],[5.46726,-0.48424],[0.81326,1.70444]]],&quot;closed&quot;:true}]}" fill="#a8a8a8"/><path d="M266.63589,177.63025c-0.25719,-1.65851 -3.39375,-1.51828 -4.90494,-0.9572c0.5172,-0.4672 1.01426,-1.01223 1.03425,-1.03095c0.02734,-0.02561 0.05366,-0.07221 0.08293,-0.093c1.47383,-1.04693 4.3319,-2.01569 6.03892,-1.20259c0.68771,0.32757 -1.42086,2.63238 -2.25116,3.28374z" data-paper-data="{&quot;noHover&quot;:false,&quot;origItem&quot;:[&quot;Path&quot;,{&quot;applyMatrix&quot;:true,&quot;segments&quot;:[[[103.79448,410.82466],[3.09853,1.4759],[-7.69115,-3.66348]],[[76.77706,416.21519],[6.64049,-4.71707],[-0.13188,0.09368]],[[76.40378,416.63035],[0.12319,-0.11539],[-0.09005,0.08435]],[[71.74159,421.24567],[2.33027,-2.10502],[6.80881,-2.52802]],[[93.68648,425.49893],[-1.1588,-7.47259],[3.74096,-2.93476]]],&quot;closed&quot;:true}]}" fill="#a8a8a8"/><path d="M266.48668,180.61865c0.03097,-0.08273 0.06264,-0.16023 0.0949,-0.23277c0.84674,-1.9039 2.10821,-0.38976 2.32111,-0.30266c0.30358,0.1242 1.11156,-0.54159 1.37413,-0.27902c0.69392,0.69392 -1.1788,0.9578 -1.51651,0.94486c-0.45048,-0.01726 -0.25006,-0.45598 -0.54781,-0.58122c-0.30782,-0.12948 -1.20062,1.01071 -1.46244,0.77645z" fill="#0002ff"/><path d="M266.90857,181.95183c0.05929,-0.10376 0.13598,-0.21214 0.22299,-0.31435c0.4092,-0.48065 1.04653,-0.82452 1.17414,0.09354c0.03551,0.25541 0.46125,-0.23274 0.70222,-0.32456c0.39117,-0.14905 1.37911,-0.47035 1.39236,0.12738c0.0076,0.34279 -2.08745,1.00326 -2.26265,0.98925c-0.39953,-0.03197 -0.29906,-0.55152 -0.58985,-0.33641c-0.06925,0.05122 -0.17166,0.09734 -0.25566,0.09807c-0.06472,0.00056 -0.18943,0.00678 -0.21959,-0.04601z" fill="#ff0000"/></g></g></g></svg>