<svg version="1.1" xmlns="http://www.w3.org/2000/svg" xmlns:xlink="http://www.w3.org/1999/xlink" width="92.21922" height="62.49176" viewBox="0,0,92.21922,62.49176"><defs><linearGradient x1="240.00014" y1="149.67224" x2="240.00014" y2="210.164" gradientUnits="userSpaceOnUse" id="color-1"><stop offset="0" stop-color="#dbdac8"/><stop offset="1" stop-color="#99958d"/></linearGradient></defs><g transform="translate(-193.89053,-148.67224)"><g data-paper-data="{&quot;isPaintingLayer&quot;:true}" fill-rule="nonzero" stroke-linejoin="miter" stroke-miterlimit="10" stroke-dasharray="" stroke-dashoffset="0" style="mix-blend-mode: normal"><path d="M194.89054,210.164v-60.49176h90.21921v60.49176z" fill="url(#color-1)" stroke="#666666" stroke-width="2" stroke-linecap="butt"/><path d="M255.04874,198.78539l7.78103,-6.38219" fill="none" stroke="#a5a03b" stroke-width="2" stroke-linecap="round"/><path d="M255.04874,176.2673l10.62242,17.9226" fill="none" stroke="#57541f" stroke-width="2" stroke-linecap="round"/><path d="M266.2394,182.69321l-11.93382,6.60076" fill="none" stroke="#7a762c" stroke-width="2" stroke-linecap="round"/><path d="M262.40621,204.99436v-32.78886h19.14654v32.78886z" fill="#373737" stroke="#666666" stroke-width="2" stroke-linecap="butt"/><g stroke-linecap="butt"><path d="M212.09219,204.99436v-31.57749h44.81217v31.57749z" fill="#c5b7ac" stroke="#666666" stroke-width="2"/><path d="M216.69722,202.32421v-26.23718h15.78874v26.23718z" fill="#89807a" stroke="none" stroke-width="0"/><path d="M236.51054,202.32421v-26.23718h15.78874v26.23718z" data-paper-data="{&quot;index&quot;:null}" fill="#89807a" stroke="none" stroke-width="0"/></g><path d="M195.90998,209.3284v-3.6523h88.18031v3.6523z" fill="#c0c0c0" stroke="none" stroke-width="0" stroke-linecap="butt"/><path d="M194.89054,165.81363v-16.05951h19.4574v16.05951z" fill="#c8baa2" stroke="#666666" stroke-width="2" stroke-linecap="butt"/><path d="M201.19831,163.91345l2.20258,-5.10229l-2.7804,-0.85094l7.40487,-6.30591l-2.15954,5.057l2.75211,0.88343z" fill="#fffa9f" stroke="none" stroke-width="0" stroke-linecap="butt"/><path d="M277.1584,150.60165l0.04849,21.01466" fill="none" stroke="#666666" stroke-width="2" stroke-linecap="round"/><path d="M273.0721,172.01232l-0.65474,-22.24733" fill="none" stroke="#666666" stroke-width="2" stroke-linecap="round"/></g></g></svg>