<svg version="1.1" xmlns="http://www.w3.org/2000/svg" xmlns:xlink="http://www.w3.org/1999/xlink" width="92.21921" height="62.49176" viewBox="0,0,92.21921,62.49176"><defs><radialGradient cx="222.87505" cy="178.97656" r="8.9375" gradientUnits="userSpaceOnUse" id="color-1"><stop offset="0" stop-color="#ffffff"/><stop offset="1" stop-color="#ffffff" stop-opacity="0"/></radialGradient><radialGradient cx="257.68754" cy="178.85156" r="12.25" gradientUnits="userSpaceOnUse" id="color-2"><stop offset="0" stop-color="#ffffff"/><stop offset="1" stop-color="#ffffff" stop-opacity="0"/></radialGradient><radialGradient cx="232.43755" cy="159.22656" r="10.375" gradientUnits="userSpaceOnUse" id="color-3"><stop offset="0" stop-color="#ffffff"/><stop offset="1" stop-color="#ffffff" stop-opacity="0"/></radialGradient><radialGradient cx="237.93755" cy="163.10156" r="10.375" gradientUnits="userSpaceOnUse" id="color-4"><stop offset="0" stop-color="#ffffff"/><stop offset="1" stop-color="#ffffff" stop-opacity="0"/></radialGradient><radialGradient cx="259.93754" cy="164.85156" r="10.375" gradientUnits="userSpaceOnUse" id="color-5"><stop offset="0" stop-color="#ffffff"/><stop offset="1" stop-color="#ffffff" stop-opacity="0"/></radialGradient></defs><g transform="translate(-193.80442,-148.75412)"><g data-paper-data="{&quot;isPaintingLayer&quot;:true}" fill-rule="nonzero" stroke-linecap="butt" stroke-linejoin="miter" stroke-miterlimit="10" stroke-dasharray="" stroke-dashoffset="0" style="mix-blend-mode: normal"><path d="M194.80443,210.24588v-36.84295h90.21921v36.84295z" fill="#b37b47" stroke="#666666" stroke-width="2"/><path d="M194.80443,157.07798v-7.32386h90.21921v7.32386z" fill="#b37b47" stroke="#666666" stroke-width="2"/><path d="M264.46217,197.92155c-10.9193,2.42651 -22.57412,1.47561 -33.74178,1.32159c-4.87829,-0.06728 -9.89267,0.27308 -14.67075,-0.67902c-2.87211,-0.57231 -6.43859,-1.10998 -8.44032,-3.44532c-4.92585,-5.74682 6.26395,-10.58561 9.87079,-11.50716c5.11394,-1.30662 10.71636,-0.61349 15.90964,-0.39838c9.14041,0.3786 18.62209,1.12546 27.53883,3.24763c6.24621,1.48658 13.23576,8.20273 3.67686,11.38903z" fill="#00fdff" stroke="none" stroke-width="0.5"/><path d="M278.49279,200.15087c-0.24286,0.41149 -0.60024,0.74735 -1.02829,0.96371c0.02375,0.18434 0.02259,0.37256 -0.00914,0.56548c-0.28247,1.71738 -2.05229,2.89583 -3.47747,3.89486c-1.42536,0.99916 -4.95943,1.00034 -6.58386,1.14928c-4.77411,0.43774 -9.73394,0.28113 -14.4382,1.07556c-9.19076,0.61712 -18.3574,0.88286 -27.57129,0.88286c-5.4966,0 -12.07781,0.23696 -17.39037,-1.40444c-7.90815,-2.44334 -9.19675,-9.66419 -6.37943,-16.49924c0.76764,-0.82875 1.3581,-1.87397 2.25061,-2.55016c-0.00712,-0.02233 -0.01413,-0.04469 -0.02103,-0.06707c-0.94414,-3.06159 0.14018,-6.62138 3.33041,-4.97449c0.0424,0.02189 0.08448,0.0486 0.12619,0.07983c0.16379,-0.22049 0.35445,-0.42717 0.57367,-0.61659c1.85153,-1.59983 9.84802,-4.60543 12.42991,-3.95996c0.15309,0.03827 0.30311,0.08286 0.44978,0.13335c1.25495,-1.2649 3.02779,-1.95361 4.81824,-1.25398c0.77726,0.30372 2.90344,2.39242 3.82443,1.71158c5.57785,-4.12339 10.5857,-3.948 16.4845,0.72587c0.71227,0.56436 1.49911,-1.06418 2.35129,-1.37978c1.97855,-0.73276 4.43595,-0.60488 6.38302,0.20474c2.00505,0.83373 2.93882,3.66836 4.6267,4.40454c0.0018,0.00078 1.52381,-1.52772 1.92598,-1.70029c1.64415,-0.70551 3.44389,-0.80184 5.07339,0.00485c4.14959,2.05426 6.25636,5.21499 8.12486,9.37584c0.13498,0.30058 0.33479,0.82548 0.50915,1.42475c1.77619,1.21452 5.82801,6.54544 3.61695,7.8089zM261.71344,190.05919c-6.89105,-1.78022 -13.90359,-3.06068 -20.82339,-4.61671c-4.69259,-1.05521 -13.60229,-0.82819 -18.7581,0.94081c-1.32276,0.45385 -6.43178,2.36975 -8.71756,2.33617c0.84349,1.17201 1.20904,2.68668 1.36587,4.22037c1.10341,-0.32295 2.3492,-0.34993 3.75461,0.02507c1.05685,0.28199 4.21567,4.31718 5.7489,3.82994c2.65234,-0.84287 4.24205,-3.3405 7.17771,-4.07296c2.98264,-0.74418 4.23179,-0.81194 7.08327,0.68665c0.81327,0.42741 1.53114,2.25926 2.21278,1.64327c1.63669,-1.47906 3.19478,-4.78126 4.6779,-6.45256c4.74666,-0.50311 6.99902,0.06461 11.04185,2.7568c1.70335,1.13429 3.43919,2.34654 4.67929,3.97447c0.29052,0.38137 -0.33124,1.46134 0.1472,1.43071c0.51336,-0.03287 0.24191,-1.00872 0.46924,-1.47018c0.56071,-1.13816 1.40867,-2.51478 2.49899,-3.50425c-0.87919,-0.80822 -1.74274,-1.51683 -2.55858,-1.7276z" fill="#666666" stroke="none" stroke-width="0.5"/><path d="M217.30554,190.60417c-0.69016,-0.55213 -0.08221,-2.00251 -0.73839,-3.15007c-0.79251,-1.38598 -2.74095,-2.48312 -2.07411,-3.0166c1.21898,-0.97518 1.08616,-0.62625 2.9375,0.125c0.94976,0.3854 2.50008,3.69276 2.45563,4.56502c-0.04904,0.96237 -1.78135,2.11608 -2.58063,1.47665z" fill="#00fdff" stroke="none" stroke-width="NaN"/><path d="M195.90992,209.32838v-3.6523h88.18031v3.6523z" fill="#c0c0c0" stroke="none" stroke-width="0"/><path d="M216.08612,182.99535l-0.51642,4.47567c0,0 -4.50607,-0.76279 -5.39834,0.42691c-0.6884,0.91786 -3.819,2.1595 -4.40277,0.70917c-0.08386,-0.20835 -0.49236,-3.16342 1.74142,-4.33389c2.87691,-1.50746 8.57611,-1.27786 8.57611,-1.27786z" fill="#7f7f7f" stroke="none" stroke-width="0"/><path d="M204.57907,190.58204c0,-2.08631 2.10695,-3.7776 4.70599,-3.7776c2.59905,0 4.70599,1.69129 4.70599,3.7776c0,2.08631 -2.10695,3.7776 -4.70599,3.7776c-2.59905,0 -4.70599,-1.69129 -4.70599,-3.7776z" fill="#666666" stroke="none" stroke-width="0"/><path d="M231.81255,178.97656c0,4.62538 -4.00146,8.375 -8.9375,8.375c-4.93604,0 -8.9375,-3.74962 -8.9375,-8.375c0,-4.62538 4.00146,-8.375 8.9375,-8.375c4.93604,0 8.9375,3.74962 8.9375,8.375z" fill="url(#color-1)" stroke="#b28059" stroke-width="0"/><path d="M269.93754,178.85156c0,4.62538 -5.48451,8.375 -12.25,8.375c-6.76549,0 -12.25,-3.74962 -12.25,-8.375c0,-4.62538 5.48451,-8.375 12.25,-8.375c6.76549,0 12.25,3.74962 12.25,8.375z" fill="url(#color-2)" stroke="#b28059" stroke-width="0"/><path d="M242.81255,159.22656c0,4.62538 -4.64504,8.375 -10.375,8.375c-5.72996,0 -10.375,-3.74962 -10.375,-8.375c0,-4.62538 4.64504,-8.375 10.375,-8.375c5.72996,0 10.375,3.74962 10.375,8.375z" fill="url(#color-3)" stroke="#b28059" stroke-width="0"/><path d="M248.31255,163.10156c0,4.62538 -4.64505,8.375 -10.375,8.375c-5.72995,0 -10.375,-3.74962 -10.375,-8.375c0,-4.62538 4.64505,-8.375 10.375,-8.375c5.72995,0 10.375,3.74962 10.375,8.375z" fill="url(#color-4)" stroke="#b28059" stroke-width="0"/><path d="M270.31254,164.85156c0,4.62538 -4.64504,8.375 -10.375,8.375c-5.72995,0 -10.375,-3.74962 -10.375,-8.375c0,-4.62538 4.64505,-8.375 10.375,-8.375c5.72996,0 10.375,3.74962 10.375,8.375z" fill="url(#color-5)" stroke="#b28059" stroke-width="0"/><path d="M194.80443,210.24588v-60.49176h90.21921v60.49176z" fill="none" stroke="#666666" stroke-width="2"/></g></g></svg>