<svg version="1.1" xmlns="http://www.w3.org/2000/svg" xmlns:xlink="http://www.w3.org/1999/xlink" width="131.17946" height="127.37512" viewBox="0,0,131.17946,127.37512"><g transform="translate(-174.41027,-180)"><g data-paper-data="{&quot;isPaintingLayer&quot;:true}" fill-rule="nonzero" stroke-linejoin="miter" stroke-miterlimit="10" stroke-dasharray="" stroke-dashoffset="0" style="mix-blend-mode: normal"><path d="M184.20026,307.37512c-5.39865,0 -9.78999,-4.38945 -9.78999,-9.79189v-107.79324c0,-5.39676 4.39135,-9.78999 9.78999,-9.78999h111.59948c5.39865,0 9.78999,4.39326 9.78999,9.78999v107.79324c0,5.40243 -4.39326,9.79189 -9.7919,9.79189z" fill-opacity="0.85098" fill="#666666" stroke="none" stroke-width="0" stroke-linecap="butt"/><text transform="translate(183.14785,207.80579) scale(0.56852,0.56852)" font-size="40" xml:space="preserve" fill="#fefefe" fill-rule="nonzero" stroke="none" stroke-width="1" stroke-linecap="butt" stroke-linejoin="miter" stroke-miterlimit="10" stroke-dasharray="" stroke-dashoffset="0" font-family="Sans Serif" font-weight="normal" text-anchor="start" style="mix-blend-mode: normal"><tspan x="0" dy="0">部屋を編集</tspan></text><text transform="translate(183.148,250.29871) scale(0.56852,0.56852)" font-size="40" xml:space="preserve" fill="#fefefe" fill-rule="nonzero" stroke="none" stroke-width="1" stroke-linecap="butt" stroke-linejoin="miter" stroke-miterlimit="10" stroke-dasharray="" stroke-dashoffset="0" font-family="Sans Serif" font-weight="normal" text-anchor="start" style="mix-blend-mode: normal"><tspan x="0" dy="0">部屋を移動</tspan></text><text transform="translate(183.148,292.95089) scale(0.56852,0.56852)" font-size="40" xml:space="preserve" fill="#ff8d8d" fill-rule="nonzero" stroke="none" stroke-width="1" stroke-linecap="butt" stroke-linejoin="miter" stroke-miterlimit="10" stroke-dasharray="" stroke-dashoffset="0" font-family="Sans Serif" font-weight="normal" text-anchor="start" style="mix-blend-mode: normal"><tspan x="0" dy="0">部屋を消去</tspan></text><path d="M291.109,222.49294h-102.218" fill="none" stroke-opacity="0.30196" stroke="#ffffff" stroke-width="1.5" stroke-linecap="round"/><path d="M188.891,264.46h102.218" fill="none" stroke-opacity="0.30196" stroke="#ffffff" stroke-width="1.5" stroke-linecap="round"/><path d="M289.31505,232.01179c0,-2.95867 2.39847,-5.35714 5.35714,-5.35714c2.95867,0 5.35714,2.39847 5.35714,5.35714c0,2.95867 -2.39847,5.35714 -5.35714,5.35714c-2.95867,0 -5.35714,-2.39847 -5.35714,-5.35714z" fill-opacity="0.50196" fill="#ff0000" stroke="none" stroke-width="0" stroke-linecap="butt"/></g></g></svg>