<svg version="1.1" xmlns="http://www.w3.org/2000/svg" xmlns:xlink="http://www.w3.org/1999/xlink" width="341.53849" height="186.70686" viewBox="0,0,341.53849,186.70686"><g transform="translate(-52.59518,-59.78984)"><g data-paper-data="{&quot;isPaintingLayer&quot;:true}" fill-rule="nonzero" stroke-linejoin="miter" stroke-miterlimit="10" stroke-dasharray="" stroke-dashoffset="0" style="mix-blend-mode: normal"><path d="M224.56904,186.17511v51.53475c0,4.74471 -3.85777,8.60414 -8.60579,8.60414h-62.60278c-4.74305,0 -8.60414,-3.85943 -8.60414,-8.60414v-51.53641c0,-4.74471 3.86109,-8.60414 8.60414,-8.60414h62.60278c4.74802,0 8.6058,3.86109 8.6058,8.6058z" fill-opacity="0.54902" fill="#808080" stroke="none" stroke-width="1" stroke-linecap="butt"/><text transform="translate(170.10388,241.94707) scale(0.36397,0.36397)" font-size="40" xml:space="preserve" fill="#ffffff" fill-rule="nonzero" stroke="none" stroke-width="1" stroke-linecap="butt" stroke-linejoin="miter" stroke-miterlimit="10" stroke-dasharray="" stroke-dashoffset="0" font-family="Sans Serif" font-weight="normal" text-anchor="start" style="mix-blend-mode: normal"><tspan x="0" dy="0">投資</tspan></text><path d="M139.78673,186.17511v51.53475c0,4.74471 -3.85777,8.60414 -8.6058,8.60414h-62.60278c-4.74305,0 -8.60414,-3.85943 -8.60414,-8.60414v-51.53641c0,-4.74471 3.86109,-8.60414 8.60414,-8.60414h62.60278c4.74803,0 8.6058,3.86109 8.6058,8.6058z" fill-opacity="0.54902" fill="#808080" stroke="none" stroke-width="1" stroke-linecap="butt"/><text transform="translate(63.48338,241.94708) scale(0.36397,0.36397)" font-size="40" xml:space="preserve" fill="#ffffff" fill-rule="nonzero" stroke="none" stroke-width="1" stroke-linecap="butt" stroke-linejoin="miter" stroke-miterlimit="10" stroke-dasharray="" stroke-dashoffset="0" font-family="Sans Serif" font-weight="normal" text-anchor="start" style="mix-blend-mode: normal"><tspan x="0" dy="0">ビルの拡張</tspan></text><g fill="none" stroke="#f8f5ff" stroke-width="5" stroke-linecap="round"><path d="M206.6745,186.19784l-16.82204,22.96982l-12.26927,-5.74933l-14.93231,19.75481"/><path d="M206.18496,223.17314h-43.53408v-32.35643"/></g><g><path d="M117.43703,182.95678l4.49306,4.49305c0.94203,0.94203 0.94236,2.47423 -0.00033,3.41692l-12.42937,12.42937c-0.9417,0.94171 -2.47456,0.94203 -3.4166,0l-4.49338,-4.49338c-0.94203,-0.94203 -0.9417,-2.47489 0,-3.41659l12.42937,-12.42937c0.94268,-0.94269 2.47522,-0.94203 3.41725,0z" fill="#f8f5ff" stroke="none" stroke-width="1" stroke-linecap="butt"/><path d="M126.00279,207.36883l-14.87375,-14.87376" fill="none" stroke="#f8f5ff" stroke-width="4" stroke-linecap="round"/></g><path d="M97.19417,192.22928v17.59673c0,2.25098 -1.8302,4.08198 -4.08276,4.08198h-15.96098c-2.2502,0 -2.1796,-25.76147 0,-25.76147h15.96098c2.25256,0 4.08276,1.83178 4.08276,4.08276z" fill-opacity="0.14902" fill="#f8f5ff" stroke="#2e77e6" stroke-width="1.5" stroke-linecap="butt"/><path d="M98.01445,202.05467v17.59673c0,2.25099 -1.8302,4.08198 -4.08276,4.08198h-15.96098c-2.2502,0 -4.08198,-1.831 -4.08198,-4.08198v-17.59752c0,-2.25099 1.83178,-4.08197 4.08198,-4.08197h15.96098c2.25256,0 4.08276,1.83178 4.08276,4.08276z" fill="#f8f5ff" stroke="none" stroke-width="1" stroke-linecap="butt"/><path d="M87.79815,191.46461v24.44913c0,2.25099 -1.8302,4.08198 -4.08276,4.08198h-5.74468c-2.2502,0 -4.08198,-1.83099 -4.08198,-4.08197v-24.44992c0,-2.25098 1.83178,-4.08198 4.08198,-4.08198h5.74468c2.25256,0 4.08276,1.83178 4.08276,4.08276z" fill="#f8f5ff" stroke="none" stroke-width="1" stroke-linecap="butt"/><path d="M394.13367,185.81357v51.53475c0,4.74471 -3.85777,8.60414 -8.6058,8.60414h-62.60278c-4.74305,0 -8.60414,-3.85943 -8.60414,-8.60414v-51.53641c0,-4.74471 3.86109,-8.60414 8.60414,-8.60414h62.60278c4.74803,0 8.6058,3.86109 8.6058,8.6058z" fill-opacity="0.54902" fill="#808080" stroke="none" stroke-width="1" stroke-linecap="butt"/><path d="M368.84826,218.65251h-29.24275c-2.43356,0 -4.41304,-1.97864 -4.41304,-4.41391v-17.29065c0,-2.4327 1.97948,-4.41304 4.41304,-4.41304h29.24363c2.43356,0 4.41304,1.98035 4.41304,4.41304v17.29065c0,2.43526 -1.98035,4.41389 -4.41391,4.41389z" fill="none" stroke="#ffffff" stroke-width="5" stroke-linecap="butt"/><path d="M371.01327,199.4254l-16.68169,7.98593l-16.89023,-7.98593" fill="none" stroke="#ffffff" stroke-width="5" stroke-linecap="round"/><text transform="translate(332.38912,241.58554) scale(0.36397,0.36397)" font-size="40" xml:space="preserve" fill="#ffffff" fill-rule="nonzero" stroke="none" stroke-width="1" stroke-linecap="butt" stroke-linejoin="miter" stroke-miterlimit="10" stroke-dasharray="" stroke-dashoffset="0" font-family="Sans Serif" font-weight="normal" text-anchor="start" style="mix-blend-mode: normal"><tspan x="0" dy="0">メール</tspan></text><g stroke="none" stroke-width="1" stroke-linecap="butt"><path d="M394.13367,191.08625c0,0.94429 -0.76778,1.7124 -1.71274,1.7124h-24.88086c-0.94396,0 -1.71241,-0.7681 -1.71241,-1.7124v-12.16608c0,-0.9443 0.76844,-1.7124 1.71241,-1.7124h24.88086c0.94495,0 1.71274,0.76843 1.71274,1.71273z" fill="#45a3e6"/><text transform="translate(368.44343,188.06503) scale(0.26538,0.26538)" font-size="40" xml:space="preserve" fill="#f2ffff" fill-rule="nonzero" stroke="none" stroke-width="1" stroke-linecap="butt" stroke-linejoin="miter" stroke-miterlimit="10" stroke-dasharray="" stroke-dashoffset="0" font-family="&quot;ヒラギノ角ゴ Pro W3&quot;, &quot;Hiragino Kaku Gothic Pro&quot;, Osaka, &quot;メイリオ&quot;, Meiryo, &quot;ＭＳ Ｐゴシック&quot;, &quot;MS PGothic&quot;" font-weight="normal" text-anchor="start" style="mix-blend-mode: normal"><tspan x="0" dy="0">Beta</tspan></text></g><g stroke="none" stroke-width="1" stroke-linecap="butt"><path d="M224.56905,191.44779c0,0.94429 -0.76778,1.7124 -1.71274,1.7124h-24.88086c-0.94396,0 -1.71241,-0.7681 -1.71241,-1.7124v-12.16608c0,-0.9443 0.76844,-1.7124 1.71241,-1.7124h24.88086c0.94495,0 1.71274,0.76843 1.71274,1.71273z" fill="#e64545"/><text transform="translate(198.87881,188.42657) scale(0.26538,0.26538)" font-size="40" xml:space="preserve" fill="#f2ffff" fill-rule="nonzero" stroke="none" stroke-width="1" stroke-linecap="butt" stroke-linejoin="miter" stroke-miterlimit="10" stroke-dasharray="" stroke-dashoffset="0" font-family="&quot;ヒラギノ角ゴ Pro W3&quot;, &quot;Hiragino Kaku Gothic Pro&quot;, Osaka, &quot;メイリオ&quot;, Meiryo, &quot;ＭＳ Ｐゴシック&quot;, &quot;MS PGothic&quot;" font-weight="normal" text-anchor="start" style="mix-blend-mode: normal"><tspan x="0" dy="0">New</tspan></text></g><path d="M52.59519,76.51683v-14.18787c0,-1.33052 1.08266,-2.41365 2.41365,-2.41365h127.12293c1.331,0 2.41364,1.08311 2.41364,2.41365v14.18787c0,1.33192 -1.08265,2.41412 -2.41364,2.41412h-127.12247c-1.331,0 -2.41412,-1.0822 -2.41412,-2.41412z" fill-opacity="0.50196" fill="#303133" stroke="none" stroke-width="1" stroke-linecap="butt"/><text transform="translate(57.3538,73.13223) scale(0.30909,0.30909)" font-size="40" xml:space="preserve" fill="#ffffff" fill-rule="nonzero" stroke="#ffffff" stroke-width="1" stroke-linecap="butt" stroke-linejoin="miter" stroke-miterlimit="10" stroke-dasharray="" stroke-dashoffset="0" font-family="Sans Serif" font-weight="normal" text-anchor="start" style="mix-blend-mode: normal"><tspan x="0" dy="0">ホーム</tspan></text></g></g></svg>