<svg version="1.1" xmlns="http://www.w3.org/2000/svg" xmlns:xlink="http://www.w3.org/1999/xlink" width="34.7308" height="34.63489" viewBox="0,0,34.7308,34.63489"><g transform="translate(-182.82209,-325.36512)"><g data-paper-data="{&quot;isPaintingLayer&quot;:true}" stroke="none" stroke-width="1" stroke-linecap="butt" stroke-linejoin="miter" stroke-miterlimit="10" stroke-dasharray="" stroke-dashoffset="0" style="mix-blend-mode: normal"><path d="M208.10722,360.00001h-15.84128c-5.20777,0 -9.44384,-4.23426 -9.44384,-9.44567v-15.74538c0,-5.20594 4.23608,-9.44383 9.44385,-9.44383h15.84311c5.20777,0 9.44384,4.23791 9.44384,9.44383v15.74539c0,5.21141 -4.23791,9.44567 -9.44568,9.44567z" fill="#656880" fill-rule="nonzero"/><path d="M209.81904,350.71861c0,0.63189 -0.51284,1.14474 -1.14474,1.14474h-8.50948c-0.3045,0 -0.59526,0.11905 -0.80818,0.33426l-1.59805,1.59805c-0.21292,0.21292 -0.50368,0.33426 -0.80818,0.33426h-3.6311c-0.3045,0 -0.59526,-0.12134 -0.80818,-0.33426l-1.59805,-1.59805c-0.21521,-0.21521 -0.50368,-0.33426 -0.80818,-0.33426h-2.98318c-0.63189,0 -1.14474,-0.51284 -1.14474,-1.14474v-6.8913c0,-0.63189 0.51284,-1.14474 1.14474,-1.14474h2.96028c0.3045,0 0.59526,0.12134 0.80818,0.33426l1.62095,1.62095c0.21292,0.21292 0.50368,0.33426 0.80818,0.33426h3.6311c0.3045,0 0.59526,-0.12134 0.80818,-0.33426l1.62095,-1.62095c0.21292,-0.21292 0.50368,-0.33426 0.80818,-0.33426h8.48659c0.63189,0 1.14474,0.51284 1.14474,1.14474zM214.39801,339.27126c0,0.63189 -0.51284,1.14474 -1.14474,1.14474h-13.08842c-0.3045,0 -0.59526,0.11905 -0.80818,0.33426l-1.59805,1.59805c-0.21292,0.21292 -0.50368,0.33426 -0.80818,0.33426h-3.6311c-0.3045,0 -0.59526,-0.12134 -0.80818,-0.33426l-1.59805,-1.59805c-0.21521,-0.21521 -0.50368,-0.33426 -0.80818,-0.33426h-2.98318c-0.63189,0 -1.14474,-0.51284 -1.14474,-1.14474v-6.8913c0,-0.63189 0.51284,-1.14474 1.14474,-1.14474h2.96028c0.3045,0 0.59526,0.12134 0.80818,0.33426l1.62094,1.62094c0.21292,0.21292 0.50368,0.33426 0.80818,0.33426h3.6311c0.3045,0 0.59526,-0.12134 0.80818,-0.33426l1.62095,-1.62094c0.21292,-0.21292 0.50368,-0.33426 0.80818,-0.33426h13.06553c0.63189,0 1.14474,0.51284 1.14474,1.14474z" fill="#dadbe6" fill-rule="evenodd"/></g></g></svg>