<svg version="1.1" xmlns="http://www.w3.org/2000/svg" xmlns:xlink="http://www.w3.org/1999/xlink" width="62.93175" height="12.33937" viewBox="0,0,62.93175,12.33937"><g transform="translate(-240.9785,-173.7373)"><g data-paper-data="{&quot;isPaintingLayer&quot;:true}" fill="#ffffff" fill-rule="nonzero" stroke="none" stroke-width="0.5" stroke-linecap="butt" stroke-linejoin="miter" stroke-miterlimit="10" stroke-dasharray="" stroke-dashoffset="0" style="mix-blend-mode: normal"><path d="M241.6489,175.26143c0.19635,-0.3436 0.52556,-0.57461 0.92493,-0.72949c0.99037,-0.38405 2.41219,-0.2999 3.30926,-0.30341c0.74869,-0.00293 6.45342,-0.63035 6.79808,0.69749c0.27755,1.06927 -3.37452,4.41258 -3.93171,2.74102c-0.2576,-0.7728 2.4053,-1.80804 1.59201,-1.85408c-0.60752,-0.03439 -1.21667,-0.03043 -1.82514,-0.03595c-1.07594,-0.00977 -6.10409,0.82027 -6.49808,0.13079z"/><path d="M242.63933,183.69813c1.05274,2.07805 5.59453,-0.58546 6.93292,0.75293c1.63283,1.63283 -1.67768,1.36898 -2.35804,1.34765c-1.56167,-0.04897 -4.48401,0.42036 -5.67196,-1.04174c-0.6706,-0.82536 -0.97705,-4.34871 0.43935,-4.74708c0.13604,-0.1382 0.32528,-0.22388 0.53452,-0.22388c0.41421,0 0.75,0.33578 0.75,0.75c0,0.17942 -0.063,0.34412 -0.16809,0.47319c-0.18039,0.75748 -1.04331,1.53495 -0.45871,2.68893z"/><path d="M256.52683,180.51958c0.08576,0.88456 2.04272,-1.57355 2.53289,-0.83226c0.84877,1.28358 -0.38091,4.29027 1.84604,4.61838c0.45684,0.06731 5.04692,-2.96288 4.73031,-0.86466c-0.01229,0.08142 -0.02117,0.25903 -0.06483,0.32415c-1.09289,1.63049 -5.19772,3.2083 -6.56451,1.14912c-0.67338,-1.0145 0.00085,-3.24525 -1.19938,-3.45042c-1.12259,-0.1919 -2.29932,2.99079 -3.53744,2.2044c-1.78301,-1.13249 3.08826,-7.05002 3.57739,-8.29174c0.00163,-0.00415 0.00325,-0.00841 0.00485,-0.01277c0.01096,-0.06173 0.02948,-0.12085 0.05456,-0.17637c0.11762,-0.26038 0.37957,-0.44156 0.68385,-0.44156c0.41421,0 0.75,0.33578 0.75,0.75c0,0.11458 -0.02569,0.22314 -0.07162,0.32027c0.08657,1.531 -2.88531,3.22638 -2.7421,4.70345z"/><path d="M267.19268,175.09749c0.18702,0.15125 0.353,0.64011 0.48535,1.3218c-0.13081,0.11114 -0.30025,0.1782 -0.48535,0.1782c-0.41421,0 -0.75,-0.33578 -0.75,-0.75c0,-0.41422 0.33579,-0.75 0.75,-0.75c0.41421,0 0.75,0.33578 0.75,0.75c0,0.22911 -0.10273,0.43423 -0.26465,0.5718c0.55065,2.83611 0.51919,9.01003 -1.00176,8.09747c-1.45328,-0.87196 -0.71774,-7.12829 -0.28527,-8.61338c0.04111,-0.14116 0.14462,-0.58854 0.30907,-0.62143z"/><path d="M273.67596,177.65241c-1.12353,-0.02235 -2.1754,0.19852 -3.24374,0.23306c-0.01505,0.0009 -0.03021,0.00136 -0.04548,0.00136c-0.41421,0 -0.75,-0.33578 -0.75,-0.75c0,-0.22341 0.09768,-0.424 0.25266,-0.56141c1.6221,-2.19477 9.04388,1.18156 3.78656,1.07698z"/><path d="M271.25902,182.75829c1.00219,0.90911 2.66295,-0.04312 3.58132,0.50789c2.14416,1.2865 -1.18272,1.54028 -1.6405,1.53621c-1.17354,-0.0104 -5.91453,-2.5618 -3.13714,-4.14889c0.13047,-0.22106 0.37109,-0.36935 0.64636,-0.36935c0.41421,0 0.75,0.33578 0.75,0.75c0,0.22344 -0.09771,0.42406 -0.25273,0.56146c-0.15624,0.39813 -0.36127,0.78717 0.05268,1.16267z"/><path d="M283.68388,174.10118c0.47061,0.30098 0.66542,0.65106 0.69508,1.03223c0.00987,0.12679 0.00146,0.25701 -0.02115,0.39001c4.70794,0.18057 10.03437,1.83906 2.59631,1.71874c-0.57762,-0.00934 -1.15548,-0.00999 -1.73309,0c-0.24538,0.00424 -0.89916,0.08197 -1.66981,0.1573c-0.41663,0.63441 -1.32859,1.60591 -0.74015,1.57022c0.98534,-0.05975 5.68845,-1.27383 5.81316,0.5114c0.11752,1.68229 -3.15849,7.70676 -5.52049,5.34476c-0.95624,-0.95624 3.28218,-2.21589 3.78095,-3.61216c0.12622,-0.35333 0.59543,-0.98101 0.23954,-1.09982c-1.56623,-0.52285 -5.39809,1.66054 -6.43796,0.48651c-0.27715,-0.31291 0.20229,-1.68616 0.80361,-3.06023c-0.81781,0.01633 -1.47915,-0.04647 -1.61513,-0.28443c-0.22106,-0.13046 -0.36935,-0.37109 -0.36935,-0.64636c0,-0.41422 0.33579,-0.75 0.75,-0.75c0.0848,0 0.16631,0.01407 0.24232,0.04001c0.52157,-0.18951 1.19228,-0.30195 1.94005,-0.35485c0.33737,-0.65985 0.59817,-1.11741 0.64095,-1.13648z"/><path d="M292.41491,179.50615c-0.16751,1.11777 -0.11616,2.29219 0.0555,3.4051c1.15059,7.45951 -2.82341,0.1059 -1.07242,-5.35798c0.10859,-0.33885 0.64418,-2.77344 1.23522,-2.73268c0.09877,-0.04789 0.20963,-0.07473 0.32677,-0.07473c0.41421,0 0.75,0.33578 0.75,0.75c0,0.1969 -0.07588,0.37607 -0.19998,0.50988c-0.00906,1.05196 -0.89967,2.19637 -1.0951,3.50042z"/><path d="M299.9168,173.7373c0.38192,0 0.69717,0.28547 0.744,0.65468l0.00691,0.00915l-0.00359,0.02228c0.00177,0.02106 0.00268,0.04237 0.00268,0.0639c0,0.11082 -0.02403,0.21602 -0.06717,0.31068l-0.04062,0.09478l-0.04031,0.24185l-0.03244,0.07462l-0.011,0.08062l-0.01734,0.04336l-0.0152,0.13676l-0.02672,0.32066l-0.00727,0.02135l0.00232,0.02244l-0.05385,0.3769l-0.05407,0.45961l-0.00527,0.01393c0.12381,-0.0012 0.24762,-0.00285 0.37143,-0.00501c3.15475,-0.05522 1.65292,0.90724 -0.62116,1.51688l-0.0285,0.15196l-0.00194,0.00422l0.00023,0.00465l-0.01917,0.09583l-0.02143,0.25712v1.06214l0.02345,0.23447l0.02265,0.20382l0.04636,0.20863l-0.00217,0.08257l0.02003,0.08013v0.25668l0.0129,0.10321l0.01305,0.002l0.04159,0.01747l0.0451,0.00117l0.99285,0.27579l0.00923,0.00524l0.0106,0.00056l0.34377,0.10577l0.50907,0.13396l0.06838,0.03757l0.07616,0.01692l0.88253,0.44127l0.09154,0.07846l0.10338,0.06203l0.10021,0.10021l0.1679,0.12592l0.20612,0.13117l0.03122,0.15608l0.01651,0.02033l-0.00479,0.03831l0.10529,0.52644l-0.19264,0.17236l-0.00161,0.01289l-0.02476,0.01071l-0.34427,0.30803l-0.31247,-0.02404l-0.01225,0.0053l-0.01814,-0.00763l-0.04255,-0.00328l-0.08273,-0.02758l-0.10171,-0.06472l-0.11112,-0.04678l-0.22063,-0.16548l-0.03404,-0.04189l-0.04629,-0.02778l-0.05183,-0.05183l-0.70423,-0.35211l-0.44891,-0.11813l-0.01388,-0.00763l-0.01582,-0.00085l-0.34865,-0.10727l-0.50059,-0.13906l0.02716,0.10866v0.80602l0.00467,0.00701l-0.00467,0.02103v0.0209l-0.04179,0.16718l-0.03345,0.15052l-0.01328,0.10627l-0.0722,0.18652l0.00404,0.05848l-0.04645,0.05109l-0.02493,0.06439l-0.03527,0.01469l-0.01908,0.03577l0.00553,0.04424l-0.08478,0.10434l-0.06327,0.11863l-0.04293,0.01207l-0.05278,0.06496l-0.11031,0.08274l-0.01964,0.00827l-0.01434,0.01577l-0.02094,0.01397l-0.03023,0.03023l-0.10338,0.06202l-0.09154,0.07847l-0.01139,0.00569l-0.00418,0.00731l-0.02089,0.00522l-0.01869,0.00935l-0.04771,0.0106l-0.03367,0.0202l-0.0257,-0.00701l-0.04185,0.0093l-0.04412,0.02206l-0.12886,0.02864l-0.12373,0.04596l-0.16924,0.01881l-0.00736,0.00245l-0.03926,0.00302l-0.03521,0.01761l-0.24821,0.05516l-0.08257,-0.00217l-0.08013,0.02003h-1.21348l-0.13011,-0.03252l-0.13324,-0.01522l-0.44127,-0.16548l-0.05013,-0.03457l-0.05863,-0.01649l-0.08923,-0.05099l-0.00922,-0.0023l-0.16822,-0.03739l-0.01869,-0.00935l-0.0209,-0.00522l-0.00418,-0.00732l-0.06655,-0.03327l-0.05176,-0.04437l-0.06283,-0.02645l-0.07936,-0.05952l-0.10472,-0.06284l-0.04514,-0.04513l-0.05709,-0.02854l-0.14505,-0.12433l-0.08368,-0.05021l-0.02161,-0.02161l-0.02844,-0.0112l-0.16218,-0.11584l-0.16011,-0.09149l-0.04268,-0.0409l-0.05374,-0.02463l-0.13789,-0.11031l-0.07002,-0.0919l-0.08549,-0.07773l-0.03752,-0.05627l-0.18797,-0.16112l-0.00084,-0.01523l-0.01628,-0.01036l-0.00289,-0.01448l-0.00733,-0.00419l-0.01289,-0.05154l-0.0811,-0.12745l-0.0032,-0.0032l-0.01919,-0.03198l-0.02162,-0.03398l-0.00154,-0.00463l-0.04038,-0.0673l-0.02405,-0.07902l-0.04434,-0.06968l-0.02758,-0.08274l-0.00523,-0.06797l-0.02572,-0.06313l-0.02758,-0.19305l0.00556,-0.0537l-0.01309,-0.05237v-0.22063l0.0224,-0.08958v-0.09233l0.05516,-0.22063l0.03887,-0.07288l0.01792,-0.08063l0.07339,-0.14676l-0.00045,-0.00254l0.00544,-0.00743l0.03194,-0.0639l0.10001,-0.11667l0.09067,-0.12408l0.05488,-0.04573l0.00599,-0.00699l0.00257,-0.00015l0.10203,-0.08503l0.0367,-0.01771l0.02741,-0.03016l0.16548,-0.11032l0.04463,-0.01594l0.03598,-0.03084l0.38611,-0.19305l0.12885,-0.02864l0.12373,-0.04595l0.20488,-0.02276l0.31604,-0.07294l0.08559,0.00155l0.08305,-0.02076h0.48304l0.75884,-0.0271l0.04198,0.00892l0.04231,-0.00718l0.35853,0.02758l0.01095,0.00365l0.01143,-0.00159l0.77222,0.08274l0.02305,0.00846l0.002,-0.00015v-0.03521l-0.0373,-0.16784l0.00108,-0.04122l-0.01435,-0.03866l-0.02758,-0.24821l0.00057,-0.0042l-0.00144,-0.004l-0.02758,-0.27579l0.00552,-0.03768l-0.00924,-0.03695v-1.13074l0.00772,-0.03088l-0.00513,-0.0314l0.00712,-0.08546c-1.60895,0.25861 -3.18419,0.2303 -3.59275,-0.48466c-0.22106,-0.13046 -0.36935,-0.3711 -0.36935,-0.64637c0,-0.41422 0.33579,-0.75 0.75,-0.75c0.03534,0 0.07011,0.00245 0.10415,0.00718c0.84095,-0.3108 1.9568,0.01386 2.95276,0.02213c0.14476,0.0012 0.28953,0.00243 0.4343,0.00354l0.01336,-0.03924l0.00247,-0.07383l0.03851,-0.13481l0.04808,-0.40868l0.00338,-0.00894l-0.00099,-0.0095l0.05204,-0.36429l0.02575,-0.30899l0.00342,-0.01003l-0.00142,-0.01051l0.02758,-0.24821l0.03534,-0.09515l0.01371,-0.10057l0.02505,-0.06262l0.04183,-0.25098l0.03605,-0.0829l0.01439,-0.08924l0.07593,-0.17717c0.04844,-0.12052 0.12727,-0.22556 0.22701,-0.30563l0.01369,-0.01801l0.01145,-0.00131c0.12431,-0.09146 0.27785,-0.1455 0.44402,-0.1455zM297.33651,182.07796l-0.73002,0.02607l-0.01344,-0.00286l-0.01333,0.00334h-0.41101l-0.2753,0.06353l-0.04429,-0.0008l-0.04153,0.01542l-0.11526,0.0128l-0.22471,0.11236l-0.09328,0.06219l-0.01418,0.01181l-0.00333,0.00668l-0.0128,0.05119v0.075l0.00538,0.0376l0.05612,0.03572l0.01713,0.08565l0.07584,0.04334l0.00717,0.02866l0.07579,0.06497l0.00064,0.01147l0.04023,0.06035l0.00131,0.00106l0.14229,0.0813l0.02789,0.02672l0.03594,0.01416l0.16868,0.12049l0.11222,0.06733l0.04513,0.04513l0.05709,0.02855l0.14505,0.12433l0.08368,0.05021l0.02784,0.02784l0.03628,0.01528l0.03316,0.02486l0.03457,0.00973l0.18823,0.04706l0.00571,0.00998l0.13213,0.0755l0.25749,0.09655h0.99515l0.13007,-0.0289l0.04604,-0.01535l0.07955,-0.00611l0.0748,-0.02778l0.13858,-0.0154l0.06974,-0.0155l0.02865,-0.04502l-0.00281,-0.0407l0.05264,-0.0579l0.03535,-0.09132l0.00352,-0.01586v-0.59352l-0.00151,-0.00379l-0.01919,-0.14074l-0.03445,-0.1378v-0.22911l-0.00803,-0.04017l-0.36617,-0.06313l-0.73717,-0.07898z"/></g></g></svg>