<svg version="1.1" xmlns="http://www.w3.org/2000/svg" xmlns:xlink="http://www.w3.org/1999/xlink" width="375.09527" height="213.81707" viewBox="0,0,375.09527,213.81707"><g transform="translate(-52.17421,-58.95752)"><g data-paper-data="{&quot;isPaintingLayer&quot;:true}" fill-opacity="0.00392" fill="#00ffff" fill-rule="nonzero" stroke-opacity="0.00392" stroke="#00ffff" stroke-linejoin="miter" stroke-miterlimit="10" stroke-dasharray="" stroke-dashoffset="0" style="mix-blend-mode: normal"><path d="M423.01948,241.06879v-176.2036" stroke-width="8.5" stroke-linecap="round"/><path d="M372.86988,262.74653v-8.86051c0,-3.39926 2.76601,-6.16647 6.16646,-6.16647h27.51778c3.40048,0 6.16644,2.76716 6.16644,6.16647v8.86051c0,3.40283 -2.76599,6.16767 -6.16644,6.16767h-27.51661c-3.40048,0 -6.16766,-2.76484 -6.16766,-6.16767z" stroke-width="1" stroke-linecap="butt"/><path d="M52.67422,266.10692v-200.48293c0,-3.39925 2.76601,-6.16647 6.16647,-6.16647h107.55025c3.40048,0 6.16644,2.76716 6.16644,6.16647v200.48293c0,3.40283 -2.76599,6.16767 -6.16644,6.16767h-107.54907c-3.40048,0 -6.16766,-2.76484 -6.16766,-6.16767z" stroke-width="1" stroke-linecap="butt"/></g></g></svg>