<svg version="1.1" xmlns="http://www.w3.org/2000/svg" xmlns:xlink="http://www.w3.org/1999/xlink" width="92.21921" height="62.49176" viewBox="0,0,92.21921,62.49176"><g transform="translate(-193.8904,-148.75412)"><g data-paper-data="{&quot;isPaintingLayer&quot;:true}" fill-rule="nonzero" stroke-linejoin="miter" stroke-miterlimit="10" stroke-dasharray="" stroke-dashoffset="0" style="mix-blend-mode: normal"><path d="M194.89041,210.24588v-60.49176h90.21921v60.49176z" fill="#4c4c4c" stroke="#666666" stroke-width="2" stroke-linecap="butt"/><path d="M202.22456,206.52564v-35.7248h17.94626v35.7248z" fill="#808080" stroke="#666666" stroke-width="2" stroke-linecap="butt"/><g data-paper-data="{&quot;index&quot;:null}"><path d="M278.84979,163.31736v40.32469h-14.11417l-17.39245,-40.32469h31.50659" fill-opacity="0.75294" fill="#b4e0d7" stroke="none" stroke-width="1" stroke-linecap="butt"/><path d="M247.34324,163.31736l17.51804,40.49241h-9.41243l-17.51804,-40.49241h9.41243" fill-opacity="0.74902" fill="#d4fff5" stroke="none" stroke-width="1" stroke-linecap="butt"/><path d="M232.64863,163.31736l17.45261,40.49241h-5.29421l-17.51804,-40.49241h5.35961" fill-opacity="0.74902" fill="#d4fff5" stroke="none" stroke-width="1" stroke-linecap="butt"/><path d="M237.93084,163.31736l17.51804,40.32469h-5.4852l-17.45261,-40.32469h5.4198" fill-opacity="0.75294" fill="#b4e0d7" stroke="none" stroke-width="1" stroke-linecap="butt"/><path d="M225.11974,163.31736h2.15724l17.51804,40.32469h-19.67527v-40.32469" fill-opacity="0.75294" fill="#b4e0d7" stroke="none" stroke-width="1" stroke-linecap="butt"/><g stroke-width="1.512" stroke-linecap="round"><path d="" fill="#5e154d" stroke="#5e154d"/><path d="M278.84979,163.31736v40.49241c0,0 -33.93169,0 -43.41625,0c-4.62276,0 -10.31382,0 -10.31382,0v-40.49241h53.73007" fill="none" stroke="#666666"/></g></g><path d="M195.90989,209.32838v-3.6523h88.18031v3.6523z" fill="#c0c0c0" stroke="none" stroke-width="0" stroke-linecap="butt"/></g></g></svg>