<svg version="1.1" xmlns="http://www.w3.org/2000/svg" xmlns:xlink="http://www.w3.org/1999/xlink" width="193.33997" height="34.63489" viewBox="0,0,193.33997,34.63489"><g transform="translate(-20.95262,-325.25401)"><g data-paper-data="{&quot;isPaintingLayer&quot;:true}" fill-rule="nonzero" stroke-linejoin="miter" stroke-miterlimit="10" stroke-dasharray="" stroke-dashoffset="0" style="mix-blend-mode: normal"><path d="M109.29258,358.0789v-29.64h105v29.64z" fill="#3d3f4d" stroke="none" stroke-width="0" stroke-linecap="butt"/><path d="M46.23774,359.88889h-15.84128c-5.20777,0 -9.44384,-4.23426 -9.44384,-9.44567v-15.74538c0,-5.20594 4.23608,-9.44383 9.44385,-9.44383h15.84311c5.20777,0 9.44384,4.23791 9.44384,9.44383v15.74539c0,5.21141 -4.23791,9.44567 -9.44568,9.44567z" fill="#656880" stroke="none" stroke-width="1" stroke-linecap="butt"/><path d="M46.62802,350.88146l-16.62,-16.62" fill="none" stroke="#dadbe6" stroke-width="3.5" stroke-linecap="round"/><path d="M89.07774,359.88889h-15.84128c-5.20777,0 -9.44384,-4.23426 -9.44384,-9.44567v-15.74538c0,-5.20594 4.23608,-9.44383 9.44385,-9.44383h15.84311c5.20777,0 9.44384,4.23791 9.44384,9.44383v15.74539c0,5.21141 -4.23791,9.44567 -9.44568,9.44567z" fill="#656880" stroke="none" stroke-width="1" stroke-linecap="butt"/><path d="M30.00802,350.88146l16.62,-16.62" fill="none" stroke="#dadbe6" stroke-width="3.5" stroke-linecap="round"/><path d="M91.23801,334.26146l-13.35962,16.62l-6.80038,-8.46" fill="none" stroke="#dadbe6" stroke-width="3.5" stroke-linecap="round"/><text transform="translate(112.03258,339.88706) scale(0.29225,0.29225)" font-size="40" xml:space="preserve" fill="#bfbfbf" fill-rule="nonzero" stroke="none" stroke-width="1" stroke-linecap="butt" stroke-linejoin="miter" stroke-miterlimit="10" stroke-dasharray="" stroke-dashoffset="0" font-family="&quot;ヒラギノ角ゴ Pro W3&quot;, &quot;Hiragino Kaku Gothic Pro&quot;, Osaka, &quot;メイリオ&quot;, Meiryo, &quot;ＭＳ Ｐゴシック&quot;, &quot;MS PGothic&quot;" font-weight="normal" text-anchor="start" style="mix-blend-mode: normal"><tspan x="0" dy="0">枠をドラッグして</tspan><tspan x="0" dy="46.150000000000006px">移動先を指定</tspan></text></g></g></svg>