<svg version="1.1" xmlns="http://www.w3.org/2000/svg" xmlns:xlink="http://www.w3.org/1999/xlink" width="92.21921" height="62.49176" viewBox="0,0,92.21921,62.49176"><defs><linearGradient x1="207.49496" y1="176.67806" x2="207.49496" y2="185.68021" gradientUnits="userSpaceOnUse" id="color-1"><stop offset="0" stop-color="#d5ffff"/><stop offset="1" stop-color="#d6feff"/></linearGradient><linearGradient x1="193.73906" y1="173.0656" x2="193.73906" y2="205.31824" gradientUnits="userSpaceOnUse" id="color-2"><stop offset="0" stop-color="#d5ffff"/><stop offset="1" stop-color="#d6feff"/></linearGradient></defs><g transform="translate(-193.89044,-148.75412)"><g data-paper-data="{&quot;isPaintingLayer&quot;:true}" stroke-miterlimit="10" stroke-dasharray="" stroke-dashoffset="0" style="mix-blend-mode: normal"><path d="M194.89045,210.24588v-60.49176h90.21921v60.49176z" data-paper-data="{&quot;index&quot;:null}" fill="#f29e5d" fill-rule="nonzero" stroke="#666666" stroke-width="2" stroke-linecap="butt" stroke-linejoin="miter"/><path d="M199.69125,152.53542c0.93648,0.53512 1.24274,1.03441 1.30766,1.63161c0.07863,0.72352 -0.19701,1.59076 -0.13551,2.83957c0.13573,2.75629 0.82552,5.46427 1.10804,8.16597c0.20281,1.93947 1.52876,3.30242 2.40837,4.94495c0.03994,0.07458 0.49018,0.32314 0.61735,0.25117c0.6479,-0.36673 0.79852,-2.2758 0.95844,-3.01907c0.40531,-1.88373 1.36088,-5.13602 1.43829,-7.01416c0.04745,-1.15115 -0.23998,-2.34772 0.0765,-3.45553c0.26954,-0.94353 0.82406,-4.40988 2.52394,-3.43851c1.70111,0.97206 0.93533,3.66949 0.91598,5.20588c-0.01765,1.40078 -0.25286,2.7487 -0.25118,4.1903c0.00119,1.02238 2.4066,6.44549 3.05846,7.20628c0.26818,0.313 0.94469,0.17892 1.19055,0.15735c0.64038,-0.05615 0.05996,-1.28439 0.10465,-1.92566c0.03896,-0.55916 0.36622,-1.13344 0.48737,-1.67947c0.14517,-0.65427 0.76469,-1.37589 0.76849,-2.05432c0.01313,-2.34411 0.0415,-6.32021 1.64879,-8.27192c0.69897,-0.84876 -0.24873,-2.72975 1.70018,-2.72975c1.994,0 1.24802,2.29197 1.00469,3.26525c-0.31916,1.27663 -1.27149,2.35963 -1.42331,3.74892c-0.16526,1.51231 0.0654,3.34044 -0.32767,4.71639c-0.26068,0.91252 -0.87999,1.88643 -1.01192,2.78258c-0.16432,1.11622 0.08432,3.27928 -0.94174,4.15876c-0.38197,0.3274 -1.05345,0.6534 -1.56997,0.6684c-5.89296,0.17101 -3.56408,-3.73059 -6.26183,-6.47446c-0.22588,-0.22974 -0.09051,0.64063 -0.18494,0.94866c-0.12256,0.39981 -0.29774,0.86393 -0.42917,1.29801c-0.43634,1.44116 -0.77,4.22285 -2.75235,4.39523c-5.85032,0.50872 -7.2234,-10.05147 -7.284,-14.43436c-0.01683,-1.21776 -0.66854,-4.97843 0.10138,-5.41837z" fill="#ffe600" fill-rule="nonzero" stroke="none" stroke-width="0.5" stroke-linecap="butt" stroke-linejoin="miter"/><g data-paper-data="{&quot;index&quot;:null}" fill-rule="evenodd" stroke-width="0.5"><path d="M241.58287,165.86165c0.89607,-0.15584 1.8311,-0.23376 2.92197,-0.15584c1.8311,0.07792 3.58427,0.74023 3.58427,0.74023l4.71411,-3.0778c0.15584,-0.07793 0.35064,0.03895 0.31168,0.19479l-0.81815,6.97376c-0.23375,-0.31168 4.12972,4.98682 1.36359,9.42821c-2.76613,4.44139 -8.64902,6.42833 -15.97342,4.98682c-7.3244,-1.4415 -9.03861,-5.64913 -8.5711,-7.86983c0.46751,-2.22069 3.23364,-3.03884 3.23364,-3.03884c0,0 0.03896,-1.75318 1.28566,-3.89596c0.74023,-1.28566 3.23364,-3.11676 3.23364,-3.11676l1.01295,-4.16867c0.03896,-0.15584 0.23375,-0.1948 0.35063,-0.11688z" fill="#ffab19" stroke="#001026" stroke-linecap="butt" stroke-linejoin="miter"/><path d="M232.46632,174.19901c3.31156,-0.74023 3.62324,1.71422 6.42833,1.90902c3.2726,0.23375 7.75295,-3.31156 10.36324,0.85711c2.61029,4.12971 -1.87006,9.73989 -11.29827,7.79191c-7.24648,-1.40255 -9.11653,-5.41538 -8.64902,-7.63608c0.46752,-2.2207 3.15572,-2.92197 3.15572,-2.92197z" fill="#ffffff" stroke="none" stroke-linecap="butt" stroke-linejoin="miter"/><path d="M244.73858,178.36768c0.11688,1.90902 -0.23376,4.40242 -3.77908,4.79202c-4.09075,0.23375 -5.57121,-2.68821 -5.92185,-3.74012c-0.07792,-0.1948 0.07792,-0.3896 0.27272,-0.35064c0.58439,0.11688 1.8311,0.23376 3.93491,0.11688c2.33757,-0.15585 4.44139,-0.77919 5.18162,-1.05191c0.15585,-0.03896 0.31168,0.07792 0.31168,0.23376z" fill="#ffffff" stroke="#001026" stroke-linecap="round" stroke-linejoin="round"/><path d="M229.93396,176.14697c0,0 -2.80509,-0.03895 -4.63619,-1.51942" fill="none" stroke="#001026" stroke-linecap="round" stroke-linejoin="round"/><path d="M229.77811,178.44558c0,0 -1.51942,0.74024 -3.97387,0.54544" fill="none" stroke="#001026" stroke-linecap="round" stroke-linejoin="round"/><path d="M239.05049,175.09507c0.77919,0 1.8311,0.03896 1.79214,0.50647c0,0.62336 -1.6363,1.59734 -2.33757,1.51942c-0.62336,-0.03896 -1.20775,-1.12983 -1.16879,-1.67526c0.03896,-0.27272 0.89607,-0.35064 1.71422,-0.35064z" fill="#001026" stroke="#001026" stroke-linecap="round" stroke-linejoin="round"/><path d="M251.86818,176.80929c1.36359,-1.20775 4.71411,-2.29862 4.71411,-2.29862" fill="none" stroke="#001026" stroke-linecap="round" stroke-linejoin="round"/><path d="M256.30957,178.40663c0,0 -2.88301,0.42855 -4.55827,-0.23376" fill="none" stroke="#001026" stroke-linecap="round" stroke-linejoin="round"/><g><path d="M234.45325,170.53681c1.12982,-1.75318 2.96092,-2.61029 4.05179,-1.87006c1.09087,0.70126 1.05192,2.6882 -0.07791,4.44138c-1.16878,1.75318 -2.96092,2.57133 -4.05179,1.87006c-1.09086,-0.70127 -1.05191,-2.68821 0.07792,-4.44139z" fill="#ffffff" stroke="#001026" stroke-linecap="round" stroke-linejoin="round"/><path d="M234.6091,172.75748c0,-0.42855 0.31168,-0.77919 0.70128,-0.77919c0.3896,0 0.70127,0.35064 0.70127,0.77919c0,0.42855 -0.31167,0.77919 -0.70127,0.77919c-0.3896,0 -0.70128,-0.35064 -0.70128,-0.77919" fill="#001026" stroke="none" stroke-linecap="butt" stroke-linejoin="miter"/></g><g><path d="M244.11523,171.62768c1.16879,-1.71422 2.9999,-2.64925 4.20764,-1.75318c1.20774,0.85711 1.12982,3.0778 -0.07792,4.79202c-1.16879,1.71422 -2.88301,2.25965 -4.16867,1.51942c-1.05191,-0.74023 -1.12984,-2.84405 0.03895,-4.55827z" fill="#ffffff" stroke="#001026" stroke-linecap="round" stroke-linejoin="round"/><path d="M244.34899,173.88732c0,-0.42856 0.31167,-0.74024 0.70127,-0.7792c0.38959,0 0.70127,0.35065 0.70127,0.7792c0,0.42855 -0.31167,0.77919 -0.70127,0.77919c-0.38959,0 -0.70127,-0.35064 -0.70127,-0.77919" fill="#001026" stroke="none" stroke-linecap="butt" stroke-linejoin="miter"/></g></g><path d="M284.22902,185.41588v20.26023h-88.31903v-20.26023z" data-paper-data="{&quot;index&quot;:null}" fill="#bf9c29" fill-rule="nonzero" stroke="none" stroke-width="0" stroke-linecap="butt" stroke-linejoin="miter"/><path d="M284.27369,184.1392v5.08986h-88.36375v-5.08985z" data-paper-data="{&quot;index&quot;:null}" fill="#997d20" fill-rule="nonzero" stroke="none" stroke-width="0" stroke-linecap="butt" stroke-linejoin="miter"/><path d="M195.90989,209.3284v-3.6523h88.18031v3.6523z" fill="#c0c0c0" fill-rule="nonzero" stroke="none" stroke-width="0" stroke-linecap="butt" stroke-linejoin="miter"/><g fill-rule="nonzero" stroke-linejoin="miter"><path d="M231.33432,205.67609l0.5,-33.9l-0.3,20.2l13.7,-0.4v14.1" data-paper-data="{&quot;index&quot;:null}" fill="none" stroke="#8d6547" stroke-width="2.5" stroke-linecap="round"/><path d="M239.73431,189.2761c3.36893,0 6.1,0.29102 6.1,0.65c0,0.35898 -2.73107,0.65 -6.1,0.65c-3.36893,0 -6.1,-0.29102 -6.1,-0.65c0,-0.35898 2.73107,-0.65 6.1,-0.65z" data-paper-data="{&quot;index&quot;:null}" fill="#4c4c4c" stroke="#666666" stroke-width="2" stroke-linecap="butt"/></g><g fill-rule="nonzero" stroke-linecap="butt" stroke-linejoin="miter"><path d="M225.37158,184.26334c0,0.78245 -0.63459,1.41688 -1.41688,1.41688h-9.81525c-0.78245,0 -1.41671,-0.63459 -1.41671,-1.41688v-6.16857c0,-0.78245 0.63425,-1.41671 1.41671,-1.41671h9.81508c0.78278,0 1.41688,0.63425 1.41688,1.41671v6.16857z" fill="#f3ad61" stroke="url(#color-1)" stroke-width="0"/><path d="M225.64107,179.37921c0,2.80335 -2.27359,5.07635 -5.07635,5.07635h-3.01994c-2.80335,0 -5.07575,-2.27359 -5.07575,-5.07635v-1.23784c0,-2.80335 2.2724,-5.07576 5.07575,-5.07576h3.01935c2.80453,0 5.07635,2.27241 5.07635,5.07576v1.23784z" fill="#f3ad61" stroke="url(#color-2)" stroke-width="0"/><path d="M223.54959,177.97453c0.79944,0.00075 2.61601,-0.10446 2.61601,1.1772c0,1.65688 -2.04802,0.92036 -2.94301,0.9156c-3.50976,-0.01865 -7.01985,0.03926 -10.52945,0c-0.00577,-0.00007 -0.01163,-0.00011 -0.01754,-0.00015c-0.56983,-0.00937 -1.02886,-0.4742 -1.02886,-1.04626c0,-0.48096 0.32448,-0.88613 0.76647,-1.00854c2.34701,-2.27199 6.2797,-0.04241 11.13638,-0.03786z" fill="#ff3030" stroke="none" stroke-width="0.5"/><path d="M225.4462,179.74034c1.33519,0.01316 1.33519,2.07966 0,2.09281c-4.25081,0.04188 -8.50222,0.03957 -12.75305,0c-0.00484,-0.00005 -0.00975,-0.00008 -0.01469,-0.0001c-0.57114,-0.00786 -1.03171,-0.4733 -1.03171,-1.04631c0,-0.38358 0.20639,-0.71895 0.51417,-0.90113c0.10887,-0.08696 0.25706,-0.1368 0.48798,-0.14435c0.01468,-0.00061 0.02943,-0.00092 0.04425,-0.00092c4.25083,-0.03957 8.50224,-0.04188 12.75305,0z" fill="#ffee30" stroke="none" stroke-width="0.5"/><path d="M219.62558,181.83314c2.03304,-0.00943 3.94971,-0.25141 6.21302,-0.19621c1.16353,0.02838 1.2213,1.26391 0.5232,1.96201c-1.24688,1.24688 -3.52519,0.112 -5.28845,0.1308c-3.0633,0.03265 -3.50995,0.22934 -8.7072,0.1962c-0.36353,-0.00232 -1.33606,-0.51611 -1.20946,-0.9803c-0.02164,-0.08382 -0.03315,-0.17172 -0.03315,-0.26231c0,-0.57791 0.4685,-1.04641 1.04641,-1.04641c0.0982,0 0.19324,0.01353 0.28337,0.03882c0.11955,0.03356 0.23045,0.08781 0.32856,0.15866c2.28063,0.05158 4.5625,0.0093 6.84371,-0.00128z" fill="#88491a" stroke="none" stroke-width="0.5"/><path d="M211.58111,177.03363c0.73698,-0.3091 1.4919,-0.90974 2.32848,-0.94263c1.80744,-0.07105 3.43499,0.8871 5.23179,0.90252c1.76959,0.01519 2.89619,-0.09002 4.53901,-0.07848c0.98251,0.0069 3.71407,-0.61036 4.01632,0.36871c0.54807,1.77527 -2.72921,1.83832 -3.47716,1.84182c-1.951,0.00913 -4.3456,0.31805 -6.22306,-0.15131c-0.91504,-0.22876 -2.31674,-0.78043 -3.2352,-0.79045c-0.67138,-0.00732 -2.29877,0.73961 -3.26377,0.99068c-0.10036,0.03841 -0.20815,0.06182 -0.32062,0.06747c-0.01767,0.00089 -0.03547,0.00134 -0.05337,0.00134c-0.57791,0 -1.0464,-0.4685 -1.0464,-1.04641c0,-0.57791 0.46849,-1.0464 1.0464,-1.0464c0.05588,0 0.11074,0.00438 0.16425,0.01281c0.09842,-0.04622 0.19691,-0.08924 0.29333,-0.12967z" fill="#44911b" stroke="none" stroke-width="0.5"/></g><g fill="none" fill-rule="nonzero" stroke="#b28059" stroke-width="2.5" stroke-linecap="round" stroke-linejoin="miter"><path d="M268.77769,182.55109h-26.16802"/><path d="M255.69368,205.67609v-22.34375"/></g><g data-paper-data="{&quot;index&quot;:null}" fill-rule="nonzero" stroke-linejoin="miter"><path d="M266.96964,205.6761v-14.1l13.7,0.4l-0.3,-20.2l0.5,33.9" data-paper-data="{&quot;index&quot;:null}" fill="none" stroke="#8d6547" stroke-width="2.5" stroke-linecap="round"/><path d="M278.56965,189.9261c0,0.35898 -2.73107,0.65 -6.1,0.65c-3.36893,0 -6.1,-0.29102 -6.1,-0.65c0,-0.35898 2.73107,-0.65 6.1,-0.65c3.36893,0 6.1,0.29102 6.1,0.65z" data-paper-data="{&quot;index&quot;:null}" fill="#4c4c4c" stroke="#666666" stroke-width="2" stroke-linecap="butt"/></g></g></g></svg>