<svg version="1.1" xmlns="http://www.w3.org/2000/svg" xmlns:xlink="http://www.w3.org/1999/xlink" width="92.21921" height="63.6479" viewBox="0,0,92.21921,63.6479"><defs><linearGradient x1="221.97405" y1="150.23062" x2="221.97405" y2="164.25101" gradientTransform="translate(-644.5779,-529.11709) scale(3.29164,3.29164)" gradientUnits="userSpaceOnUse" id="color-1"><stop offset="0" stop-color="#e3d41d"/><stop offset="1" stop-color="#e3921e"/></linearGradient></defs><g transform="translate(-193.89042,-147.59798)"><g data-paper-data="{&quot;isPaintingLayer&quot;:true}" fill-rule="nonzero" stroke-linejoin="miter" stroke-miterlimit="10" stroke-dasharray="" stroke-dashoffset="0" style="mix-blend-mode: normal"><path d="M194.89043,210.24588v-60.49176h90.21921v60.49176z" fill="#69594a" stroke="#666666" stroke-width="2" stroke-linecap="butt"/><path d="M195.9099,209.32838v-3.6523h88.18031v3.6523z" fill="#c0c0c0" stroke="none" stroke-width="0" stroke-linecap="butt"/><g fill="none" stroke="#bf7736" stroke-width="2" stroke-linecap="round"><path d="M224.82815,197.36513v7.33921"/><path d="M227.82375,196.69112h-5.76652l-1.12335,-8.68723"/></g><g data-paper-data="{&quot;index&quot;:null}" fill="none" stroke-width="2" stroke-linecap="round"><g data-paper-data="{&quot;index&quot;:null}" stroke="#bf7736"><path d="M232.94247,197.36513v7.33921"/><path d="M235.93809,196.69112h-5.76652l-1.12335,-8.68723"/></g><g data-paper-data="{&quot;index&quot;:null}" stroke="#bfbfbf"><path d="M236.23762,196.39157h-5.76652l-1.12335,-8.68723"/></g></g><g stroke-linecap="butt"><g fill="none" stroke="#bfa186" stroke-width="2"><path d="M197.37835,204.70434v-11.8092h21.87269v11.8092z"/><path d="M211.24129,181.08594v11.8092h-13.86298v-11.8092z"/><path d="M197.37834,181.08595v-11.60382h21.87269v11.60383z"/></g><g><path d="M202.26285,175.99648l-0.07196,0.02809c-0.08232,-0.25392 -0.21396,-0.51871 -0.11454,-0.70108v-0.39077c-0.21922,-0.35308 -0.42031,-0.70706 -0.54281,-1.07262c-0.02849,-0.04431 -0.05755,-0.08837 -0.08727,-0.13217l-0.08184,0.02046l-0.10143,-0.40574c-0.00531,-0.01945 -0.00815,-0.03993 -0.00815,-0.06106c0,-0.1276 0.10344,-0.23105 0.23104,-0.23105c0.09781,0 0.18141,0.06077 0.21514,0.1466l0.09645,0.22994c0.12206,0.1715 0.28446,0.38596 0.44232,0.62024c0.00627,0.00756 0.01251,0.01517 0.01875,0.02283c0.00713,-0.03704 0.01574,-0.07422 0.02595,-0.11162l-0.0936,-0.0312l0.10101,-0.30301c0.02904,-0.09441 0.11694,-0.16304 0.22088,-0.16304c0.02701,0 0.05292,0.00464 0.07701,0.01316v-0.09017c0,-0.1276 0.10344,-0.23105 0.23105,-0.23105c0.10367,0 0.19138,0.06826 0.22065,0.1623l0.11283,0.33468c0.05204,0.14004 0.14096,0.31754 0.24071,0.51297c0.01623,-0.19054 0.05058,-0.38738 0.10763,-0.59621l0.35344,0.46893c0.0048,-0.0139 0.00992,-0.02768 0.01538,-0.04133c-0.004,-0.01513 -0.00807,-0.03029 -0.01224,-0.0455h-0.03718v-0.4621c0,-0.1276 0.10344,-0.23105 0.23105,-0.23105c0.10664,0 0.1964,0.07225 0.22302,0.17045c0.05403,-0.15961 0.11791,-0.31529 0.19327,-0.46613l0.0112,-0.0098l-0.00359,-0.0024l0.20339,-0.30509c0.04113,-0.0637 0.11276,-0.10587 0.19423,-0.10587c0.1276,0 0.23105,0.10345 0.23105,0.23105v0.4621h-0.06119c0.02012,0.26244 0.02102,0.5307 0.00784,0.8002c0.07626,-0.14106 0.15233,-0.2819 0.22314,-0.42289l0.0971,-0.29129c0.02904,-0.09441 0.11694,-0.16304 0.22087,-0.16304c0.05918,0 0.11316,0.02224 0.15404,0.05883c0.04087,-0.03659 0.09486,-0.05883 0.15404,-0.05883c0.1276,0 0.23105,0.10344 0.23105,0.23105v0.30806h-0.09761c-0.00564,0.86718 -0.64715,1.6476 -1.04773,2.44661l-0.0971,0.29131c-0.02904,0.09441 -0.11694,0.16304 -0.22087,0.16304c-0.08654,0 -0.16197,-0.04757 -0.20156,-0.11801c0.01084,0.31386 0.02185,0.62098 0.02185,0.91385c0,0 0,0.23105 -0.23105,0.23105c-0.23105,0 -0.23105,-0.23105 -0.23105,-0.23105c0,-0.32621 -0.01094,-0.66464 -0.02025,-1.00824c-0.01816,0.00458 -0.03717,0.00702 -0.05676,0.00702c-0.10394,0 -0.19184,-0.06864 -0.22087,-0.16304l-0.10101,-0.303l0.00861,-0.00288l-0.01126,-0.00559c-0.00063,-0.00251 -0.00125,-0.00501 -0.00188,-0.00752c-0.00239,0.00382 -0.00486,0.00759 -0.00742,0.01134l-0.0531,0.37166c-0.00342,0.02702 -0.01151,0.05258 -0.02343,0.07586c-0.00203,0.01635 -0.0042,0.03262 -0.00652,0.04886h0.03179v0.4621c0,0.1276 -0.10345,0.23105 -0.23105,0.23105c-0.10394,0 -0.19185,-0.06864 -0.22088,-0.16304l-0.10099,-0.30299c0,-0.00001 0,-0.00001 -0.00001,-0.00002c-0.04058,-0.12167 -0.08922,-0.24168 -0.1439,-0.36038c-0.01538,0.00322 -0.03132,0.00493 -0.04766,0.00493c-0.00833,0 -0.01655,-0.00045 -0.02465,-0.00131l-0.05809,0.23236c-0.02335,0.10289 -0.11537,0.1797 -0.22532,0.1797c-0.11894,0 -0.21689,-0.08988 -0.22964,-0.20543l-0.05694,-0.45549l0.04604,-0.00576c-0.00314,-0.01095 -0.00626,-0.02189 -0.00939,-0.03284z" fill="#02ff00" stroke="none" stroke-width="0.5"/><path d="M202.71815,179.23754v-2.46453h1.64302v2.46453z" fill="#4c4c4c" stroke="#666666" stroke-width="2"/></g></g><g stroke="none" stroke-width="0" stroke-linecap="butt"><path d="M267.47385,196.47766v4.3904h-18.34179v-4.3904z" data-paper-data="{&quot;index&quot;:null}" fill="#b30000"/><path d="M249.37553,196.20057v4.39039h-6.30317v-4.39039z" data-paper-data="{&quot;index&quot;:null}" fill="#ffffff"/><path d="M239.95114,205.50272v-5.98772h28.51234v5.98772z" data-paper-data="{&quot;index&quot;:null}" fill="#b28059"/><path d="M238.17416,205.50272v-13.3918h4.07889v13.3918z" data-paper-data="{&quot;index&quot;:null}" fill="#b28059"/></g><path d="M194.82276,164.14878v-14.55556h53.22222v14.55556z" fill="#666666" stroke="none" stroke-width="0" stroke-linecap="butt"/><text transform="translate(195.82276,160.74577) scale(0.3038,0.3038)" font-size="40" xml:space="preserve" fill="url(#color-1)" fill-rule="nonzero" stroke="none" stroke-width="1" stroke-linecap="butt" stroke-linejoin="miter" stroke-miterlimit="10" stroke-dasharray="" stroke-dashoffset="0" font-family="Sans Serif" font-weight="normal" text-anchor="start" style="mix-blend-mode: normal"><tspan x="0" dy="0">furniture</tspan></text><g data-paper-data="{&quot;index&quot;:null}"><path d="M269.92353,204.74432v-29.07273h14.22036v29.07273z" fill="#5a390b" stroke="#666666" stroke-width="2" stroke-linecap="butt"/><path d="M275.76967,190.99797h-3.00208" fill="none" stroke="#666666" stroke-width="2" stroke-linecap="round"/><g data-paper-data="{&quot;index&quot;:null}"><path d="M272.75696,179.86462h4.17796l-3.13697,7.44671h-1.04099v-7.44671" fill-opacity="0.75294" fill="#b4e0d7" stroke="none" stroke-width="1" stroke-linecap="butt"/><path d="M276.93492,179.86462h1.6855l-3.13697,7.44671h-1.6855l3.13697,-7.44671" fill-opacity="0.74902" fill="#d4fff5" stroke="none" stroke-width="1" stroke-linecap="butt"/><path d="M279.56631,179.86462h0.95975l-3.13697,7.44671h-0.94804l3.12526,-7.44671" fill-opacity="0.74902" fill="#d4fff5" stroke="none" stroke-width="1" stroke-linecap="butt"/><path d="M278.62043,179.86462h0.94804l-3.12526,7.44671h-0.95975l3.13697,-7.44671" fill-opacity="0.75294" fill="#b4e0d7" stroke="none" stroke-width="1" stroke-linecap="butt"/><path d="M280.9145,179.86462v7.44671h-3.52327l3.13697,-7.44671h0.3863" fill-opacity="0.75294" fill="#b4e0d7" stroke="none" stroke-width="1" stroke-linecap="butt"/><g stroke-width="1.512" stroke-linecap="round"><path d="" fill="#5e154d" stroke="#5e154d"/><path d="M272.75696,179.86462h8.15754v7.44671h-8.15754v-7.44671" fill="none" stroke="#666666"/></g></g></g></g></g></svg>