<svg version="1.1" xmlns="http://www.w3.org/2000/svg" xmlns:xlink="http://www.w3.org/1999/xlink" width="78.53985" height="76.71214" viewBox="0,0,78.53985,76.71214"><g transform="translate(-200.73008,-141.37955)"><g data-paper-data="{&quot;isPaintingLayer&quot;:true}" fill-rule="nonzero" stroke-linejoin="miter" stroke-miterlimit="10" stroke-dasharray="" stroke-dashoffset="0" style="mix-blend-mode: normal"><path d="M200.73009,215.67758v-71.35563c0,-1.33052 1.08266,-2.41365 2.41365,-2.41365h73.71255c1.331,0 2.41364,1.08311 2.41364,2.41365v71.35563c0,1.33192 -1.08265,2.41412 -2.41364,2.41412h-73.71209c-1.331,0 -2.41412,-1.0822 -2.41412,-2.41412z" fill-opacity="0.6" fill="#404040" stroke="none" stroke-width="1" stroke-linecap="butt"/><text transform="translate(204.8029,202.63554) scale(0.20241,0.20241)" font-size="40" xml:space="preserve" fill="#ffffff" fill-rule="nonzero" stroke="none" stroke-width="1" stroke-linecap="butt" stroke-linejoin="miter" stroke-miterlimit="10" stroke-dasharray="" stroke-dashoffset="0" font-family="Sans Serif" font-weight="normal" text-anchor="start" style="mix-blend-mode: normal"><tspan x="0" dy="0">鯉のぼり</tspan></text><path d="M204.80295,189.84976v-41.75298c0,-1.33052 1.08266,-2.41365 2.41365,-2.41365h65.56685c1.331,0 2.41364,1.08311 2.41364,2.41365v41.75298c0,1.33192 -1.08265,2.41412 -2.41364,2.41412h-65.56639c-1.331,0 -2.41412,-1.0822 -2.41412,-2.41412z" fill="#b6b6c1" stroke="#bf80ff" stroke-width="0" stroke-linecap="butt"/><text transform="translate(204.8029,208.9586) scale(0.11571,0.11571)" font-size="40" xml:space="preserve" fill="#b3b3b3" fill-rule="nonzero" stroke="none" stroke-width="1" stroke-linecap="butt" stroke-linejoin="miter" stroke-miterlimit="10" stroke-dasharray="" stroke-dashoffset="0" font-family="Sans Serif" font-weight="normal" text-anchor="start" style="mix-blend-mode: normal"><tspan x="0" dy="0">デコレーション✨</tspan><tspan x="0" dy="48px">追加日:2023-05-05</tspan></text><path d="M206.97508,192.24716v-38.52251c0,-1.33052 1.08266,-2.41365 2.41365,-2.41365h61.22259c1.331,0 2.41364,1.08311 2.41364,2.41365v38.52251z" fill="#9494a6" stroke="none" stroke-width="0" stroke-linecap="butt"/><path d="M204.80295,189.84976v-41.75298c0,-1.33052 1.08266,-2.41365 2.41365,-2.41365h65.56685c1.331,0 2.41364,1.08311 2.41364,2.41365v41.75298c0,1.33192 -1.08265,2.41412 -2.41364,2.41412h-65.56639c-1.331,0 -2.41412,-1.0822 -2.41412,-2.41412z" fill="none" stroke="#80b3ff" stroke-width="2" stroke-linecap="butt"/><path d="M264.0353,191.15413l5.10276,-22.84091" fill="none" stroke="#a57039" stroke-width="2" stroke-linecap="round"/><path d="M266.67001,166.5434c0,-1.36307 1.10499,-2.46805 2.46805,-2.46805c1.36307,0 2.46805,1.10499 2.46805,2.46805c0,1.36307 -1.10499,2.46805 -2.46805,2.46805c-1.36307,0 -2.46805,-1.10499 -2.46805,-2.46805z" fill="#e5d479" stroke="none" stroke-width="0" stroke-linecap="butt"/><path d="M265.13134,170.62779l-9.30418,-0.63016" fill="none" stroke="#1c80c7" stroke-width="5" stroke-linecap="round"/><path d="M255.39835,175.66909l8.63695,0.29655" fill="none" stroke="#d93b3b" stroke-width="5" stroke-linecap="round"/><path d="M262.899,181.53415l-7.26542,-0.29655" fill="none" stroke="#5ab7d9" stroke-width="4.5" stroke-linecap="round"/><g stroke="none" stroke-width="1" stroke-linecap="butt"><path d="M261.69437,148.92061v-4.06991c0,-1.33052 1.08266,-2.41365 2.41365,-2.41365h12.74826c1.331,0 2.41364,1.08311 2.41364,2.41365v4.06991c0,1.33192 -1.08265,2.41412 -2.41364,2.41412h-12.7478c-1.331,0 -2.41412,-1.0822 -2.41412,-2.41412z" fill-opacity="0.4" fill="#ff0000"/><text transform="translate(263.04855,148.89444) scale(0.17409,0.17409)" font-size="40" xml:space="preserve" fill="#ffffff" fill-rule="nonzero" stroke="none" stroke-width="1" stroke-linecap="butt" stroke-linejoin="miter" stroke-miterlimit="10" stroke-dasharray="" stroke-dashoffset="0" font-family="Sans Serif" font-weight="normal" text-anchor="start" style="mix-blend-mode: normal"><tspan x="0" dy="0">New</tspan></text></g></g></g></svg>