<svg version="1.1" xmlns="http://www.w3.org/2000/svg" xmlns:xlink="http://www.w3.org/1999/xlink" width="374.80967" height="25.82876" viewBox="0,0,374.80967,25.82876"><g transform="translate(-52.59518,-30.71625)"><g data-paper-data="{&quot;isPaintingLayer&quot;:true}" fill-rule="nonzero" stroke-linejoin="miter" stroke-miterlimit="10" stroke-dasharray="" stroke-dashoffset="0" style="mix-blend-mode: normal"><path d="M52.59519,54.13088v-21.00098c0,-1.33052 1.08266,-2.41365 2.41365,-2.41365h53.88197c1.331,0 2.41364,1.08311 2.41364,2.41365v21.00098c0,1.33192 -1.08265,2.41412 -2.41364,2.41412h-53.88151c-1.331,0 -2.41412,-1.0822 -2.41412,-2.41412z" fill-opacity="0.50196" fill="#616366" stroke="none" stroke-width="1" stroke-linecap="butt"/><path d="M113.93257,54.13088v-21.00098c0,-1.33052 1.08266,-2.41365 2.41365,-2.41365h53.88196c1.331,0 2.41364,1.08311 2.41364,2.41365v21.00098c0,1.33192 -1.08265,2.41412 -2.41364,2.41412h-53.8815c-1.331,0 -2.41412,-1.0822 -2.41412,-2.41412z" fill-opacity="0.50196" fill="#616366" stroke="none" stroke-width="1" stroke-linecap="butt"/><path d="M406.49546,56.54499c-1.331,0 -2.41364,-1.0822 -2.41364,-2.41412v-21.00097c0,-1.33053 1.08266,-2.41365 2.41364,-2.41365h18.49575c1.331,0 2.41364,1.08313 2.41364,2.41365v21.00097c0,1.33192 -1.08312,2.41412 -2.41412,2.41412z" fill-opacity="0.50196" fill="#646666" stroke="none" stroke-width="1" stroke-linecap="butt"/><g fill="none" stroke="#ffffff" stroke-width="2.5" stroke-linecap="round"><path d="M411.40998,39.2047l8.66669,8.66669"/><path d="M411.40999,47.8714l8.66669,-8.66669"/></g><path d="M179.60741,54.13088v-21.00098c0,-1.33052 1.08266,-2.41365 2.41365,-2.41365h67.65454c1.331,0 2.41364,1.08311 2.41364,2.41365v21.00098c0,1.33192 -1.08265,2.41412 -2.41364,2.41412h-67.65409c-1.331,0 -2.41412,-1.0822 -2.41412,-2.41412z" fill-opacity="0.50196" fill="#616366" stroke="none" stroke-width="1" stroke-linecap="butt"/><text transform="translate(199.94135,47.19277) scale(0.30456,0.30456)" font-size="40" xml:space="preserve" fill="#ffffff" fill-rule="nonzero" stroke="none" stroke-width="1" stroke-linecap="butt" stroke-linejoin="miter" stroke-miterlimit="10" stroke-dasharray="" stroke-dashoffset="0" font-family="Sans Serif" font-weight="normal" text-anchor="start" style="mix-blend-mode: normal"><tspan x="0" dy="0">チャット</tspan></text><path d="M254.71736,54.13088v-21.00098c0,-1.33052 1.08266,-2.41365 2.41365,-2.41365h67.65454c1.33099,0 2.41364,1.08311 2.41364,2.41365v21.00099c0,1.33192 -1.08265,2.41412 -2.41364,2.41412h-67.65408c-1.33099,0 -2.41412,-1.08219 -2.41412,-2.41412z" fill-opacity="0.50196" fill="#616366" stroke="none" stroke-width="1" stroke-linecap="butt"/><g><path d="M266.21617,49.31525h-4.7427c-0.71518,0 -1.2969,-0.58148 -1.2969,-1.29715v-9.00575c0,-0.71493 0.58173,-1.2969 1.2969,-1.2969h4.74296c0.71518,0 1.2969,0.58199 1.2969,1.2969v9.00575c0,0.71568 -0.58199,1.29715 -1.29716,1.29715z" fill="#ffffff" stroke="#878d8d" stroke-width="0.5" stroke-linecap="butt"/><path d="M270.70354,49.36067h-3.51612c-0.71518,0 -1.2969,-0.58148 -1.2969,-1.29716v-6.32548c0,-0.71493 0.58174,-1.2969 1.2969,-1.2969h3.51637c0.71518,0 1.2969,0.58199 1.2969,1.2969v6.32548c0,0.71568 -0.58199,1.29716 -1.29716,1.29716z" fill="#ffffff" stroke="#878d8d" stroke-width="0.5" stroke-linecap="butt"/><path d="M272.5812,49.31525h-12.40463" fill="none" stroke="#ffffff" stroke-width="2" stroke-linecap="round"/><path d="M261.49856,40.09481h4.06588" fill="none" stroke="#878d8d" stroke-width="0.5" stroke-linecap="round"/><path d="M264.86341,41.40336h-3.36485" fill="none" stroke="#878d8d" stroke-width="0.5" stroke-linecap="round"/><path d="M264.02221,42.71191h-2.52364" fill="none" stroke="#878d8d" stroke-width="0.5" stroke-linecap="round"/><path d="M267.26317,42.24458h3.36485" fill="none" stroke="#878d8d" stroke-width="0.5" stroke-linecap="round"/><path d="M269.64661,43.55313h-2.38345" fill="none" stroke="#878d8d" stroke-width="0.5" stroke-linecap="round"/><path d="M267.26317,44.86169h2.6171" fill="none" stroke="#878d8d" stroke-width="0.5" stroke-linecap="round"/></g><text transform="translate(275.05129,47.19276) scale(0.30455,0.30455)" font-size="40" xml:space="preserve" fill="#ffffff" fill-rule="nonzero" stroke="none" stroke-width="1" stroke-linecap="butt" stroke-linejoin="miter" stroke-miterlimit="10" stroke-dasharray="" stroke-dashoffset="0" font-family="Sans Serif" font-weight="normal" text-anchor="start" style="mix-blend-mode: normal"><tspan x="0" dy="0">ビルハブ</tspan></text><path d="M329.8273,54.13088v-21.00098c0,-1.33052 1.08266,-2.41365 2.41365,-2.41365h67.65454c1.331,0 2.41364,1.08311 2.41364,2.41365v21.00098c0,1.33192 -1.08265,2.41412 -2.41364,2.41412h-67.65408c-1.331,0 -2.41412,-1.0822 -2.41412,-2.41412z" fill-opacity="0.50196" fill="#616366" stroke="none" stroke-width="1" stroke-linecap="butt"/><text transform="translate(350.16122,47.19277) scale(0.30456,0.30456)" font-size="40" xml:space="preserve" fill="#ffffff" fill-rule="nonzero" stroke="none" stroke-width="1" stroke-linecap="butt" stroke-linejoin="miter" stroke-miterlimit="10" stroke-dasharray="" stroke-dashoffset="0" font-family="Sans Serif" font-weight="normal" text-anchor="start" style="mix-blend-mode: normal"><tspan x="0" dy="0">ショップ</tspan></text><g><path d="M336.22574,38.50792h11.0388l-0.68325,5.44466" fill="none" stroke="#ffffff" stroke-width="1.5" stroke-linecap="round"/><path d="M346.51724,44.14475l-9.18122,0.96083l-1.96436,-8.04957" fill="none" stroke="#ffffff" stroke-width="1.5" stroke-linecap="round"/><path d="M347.60599,47.43291l-10.23708,0.19217l0.05232,-2.43408" fill="none" stroke="#ffffff" stroke-width="1.5" stroke-linecap="round"/><path d="M337.98934,48.82157c0,-0.66192 0.53659,-1.19852 1.19853,-1.19852c0.66192,0 1.19852,0.53659 1.19852,1.19852c0,0.66192 -0.53659,1.19853 -1.19852,1.19853c-0.66192,0 -1.19853,-0.5366 -1.19853,-1.19853z" fill="#ffffff" stroke="none" stroke-width="0.5" stroke-linecap="butt"/><path d="M344.29524,48.73536c0,-0.66192 0.53659,-1.19852 1.19853,-1.19852c0.66192,0 1.19852,0.53659 1.19852,1.19852c0,0.66192 -0.5366,1.19854 -1.19852,1.19854c-0.66192,0 -1.19853,-0.5366 -1.19853,-1.19854z" fill="#ffffff" stroke="none" stroke-width="0.5" stroke-linecap="butt"/><path d="M337.24922,41.74619l8.70594,-0.51905" fill="none" stroke="#ffffff" stroke-width="1.5" stroke-linecap="round"/><path d="M339.37751,39.23351l0.89655,5.02538" fill="none" stroke="#ffffff" stroke-width="1.5" stroke-linecap="round"/><path d="M343.01027,38.9272l0.89655,5.02538" fill="none" stroke="#ffffff" stroke-width="1.5" stroke-linecap="round"/></g><path d="M88.84518,43.83552h-2.36549v6.6905h-3.22387v-3.65808h-2.61226v3.65808h-3.22364v-6.6905h-2.36548l6.89549,-7.10028z" fill="#ffffff" stroke="none" stroke-width="1" stroke-linecap="butt"/><path d="M198.16429,43.26657c0,3.19139 -3.08716,5.77851 -6.89537,5.77851c-0.95093,0 -1.8569,-0.16131 -2.68107,-0.45307c-0.19665,-0.06961 -3.32807,1.35823 -3.82082,0.93285c-0.30489,-0.2632 0.97374,-2.78437 0.73265,-3.09228c-0.712,-0.90933 -1.12613,-1.99715 -1.12613,-3.16602c0,-3.19139 3.08716,-5.77851 6.89537,-5.77851c3.80821,0 6.89537,2.58713 6.89537,5.77851z" fill="#ffffff" stroke="none" stroke-width="0" stroke-linecap="butt"/><g fill="#ffffff" stroke="none" stroke-width="0" stroke-linecap="butt"><path d="M137.56004,48.25059c0,-2.92066 2.56412,-5.28832 5.72714,-5.28832c3.16302,0 5.72715,2.36768 5.72715,5.28832c0,2.92066 -11.45428,2.92066 -11.45428,0z"/><path d="M140.56107,39.54628c0,-1.50559 1.22053,-2.72612 2.72612,-2.72612c1.50559,0 2.72612,1.22053 2.72612,2.72612c0,1.50559 -1.22053,2.72613 -2.72612,2.72613c-1.50559,0 -2.72612,-1.22054 -2.72612,-2.72613z"/></g><path d="M394.33615,34.70274c0,-2.20168 1.78481,-3.98649 3.98649,-3.98649c2.20168,0 3.98649,1.78481 3.98649,3.98649c0,2.20168 -1.78481,3.98649 -3.98649,3.98649c-2.20168,0 -3.98649,-1.78481 -3.98649,-3.98649z" fill="#ff0000" stroke="none" stroke-width="0" stroke-linecap="butt"/></g></g></svg>