<svg version="1.1" xmlns="http://www.w3.org/2000/svg" xmlns:xlink="http://www.w3.org/1999/xlink" width="110.59434" height="110.59434" viewBox="0,0,110.59434,110.59434"><g transform="translate(-184.70283,-124.70283)"><g data-paper-data="{&quot;isPaintingLayer&quot;:true}" stroke-miterlimit="10" stroke-dasharray="" stroke-dashoffset="0" style="mix-blend-mode: normal"><g fill-rule="evenodd" stroke-width="0.5"><path d="M234.64392,187.806c0.30466,0.15233 0.95207,0.49508 0.03808,1.78989c-0.91399,1.29481 -3.54169,1.56139 -3.84636,1.56139c-1.18056,0.03808 -2.62771,0.03808 -4.22718,-0.49508c-4.64609,-1.52331 -4.68418,-6.51215 -3.19895,-7.31188c1.44714,-0.79974 2.09455,2.28496 4.1891,4.15102c0.91399,0.83782 2.01838,1.14248 2.93237,1.3329c1.29481,0.2285 3.77019,-1.21865 4.11293,-1.02823z" fill="#ffab19" stroke="#001026" stroke-linecap="round" stroke-linejoin="round"/><path d="M225.19941,184.7213c0.60932,1.02823 1.78989,2.47538 1.78989,2.47538c0,0 -1.40906,-0.34274 -2.2088,0.30466c-0.64741,0.49508 -0.49508,1.3329 -0.41891,1.59947c-0.49508,-0.49508 -1.1044,-1.18056 -1.48523,-2.51346c-0.38083,-1.3329 0,-2.93237 0.76165,-3.16087c0.76165,-0.15233 0.95207,0.41891 1.56139,1.29481z" fill="#ffffff" stroke="none" stroke-linecap="butt" stroke-linejoin="miter"/></g><path d="M236.54806,191.76661c-0.68549,0.45699 -3.04662,2.13263 -6.05515,3.0847l-0.15233,0.03808c-0.15233,0.03808 -0.2285,0.2285 -0.15233,0.38083c0.64741,0.91399 1.82797,2.74196 -0.26658,3.38936c-2.01838,0.64741 -5.78857,-4.72226 -4.1891,-6.13132c0.72357,-0.53316 1.37098,-0.26658 1.71372,-0.11425c0.19041,0.07617 0.38083,0.07617 0.57124,0.03808c0.45699,-0.15233 1.29481,-0.45699 1.94222,-0.79974c1.63756,-0.83782 2.01838,-1.18056 2.78004,-1.75181c0.76165,-0.57124 2.51346,-1.9803 3.92252,-0.76165c1.21865,1.02823 0.53316,2.17072 -0.11425,2.62771z" fill="#ffab19" fill-rule="evenodd" stroke="#001026" stroke-width="0.5" stroke-linecap="round" stroke-linejoin="round"/><g fill-rule="evenodd" stroke-width="0.5"><path d="M245.62124,161.11001c0.11425,-0.07617 0.30466,-0.03808 0.34274,0.11425l0.99015,4.07485c0,0 2.43729,1.78989 3.16087,3.04662c1.21865,2.09455 1.25673,3.80827 1.25673,3.80827c0,0 2.70387,0.79974 3.16087,2.97045c0.45699,2.17072 -1.21865,6.28365 -8.3782,7.69271c-7.15955,1.40906 -12.91004,-0.53316 -15.61392,-4.87459c-2.70387,-4.34143 1.56139,-9.52068 1.3329,-9.21602l-0.79974,-6.81681c-0.03808,-0.15233 0.15233,-0.26658 0.30466,-0.19041l4.60801,3.00854c0,0 1.71372,-0.64741 3.50361,-0.72357c1.06632,-0.07617 1.9803,0 2.8562,0.15233z" fill="#ffab19" stroke="#001026" stroke-linecap="butt" stroke-linejoin="miter"/><path d="M251.25749,172.30633c0,0 2.62771,0.68549 3.0847,2.8562c0.45699,2.17072 -1.37098,6.09324 -8.45437,7.46421c-9.21602,1.90414 -13.59553,-3.57978 -11.04399,-7.61655c2.55154,-4.07485 6.93106,-0.60932 10.13001,-0.83782c2.74196,-0.19041 3.04662,-2.58963 6.28365,-1.86605z" fill="#ffffff" stroke="none" stroke-linecap="butt" stroke-linejoin="miter"/><path d="M239.26143,176.38118c0,-0.15233 0.15233,-0.26658 0.30466,-0.2285c0.72357,0.26658 2.78004,0.8759 5.065,1.02823c2.05647,0.11425 3.27511,0 3.84636,-0.11425c0.19041,-0.03808 0.34274,0.15233 0.26658,0.34274c-0.34274,1.02823 -1.78989,3.88444 -5.78857,3.65594c-3.46553,-0.38083 -3.80827,-2.81812 -3.69402,-4.68418z" fill="#ffffff" stroke="#001026" stroke-linecap="round" stroke-linejoin="round"/><path d="M258.26471,172.72524c-1.78989,1.44714 -4.53184,1.48523 -4.53184,1.48523" fill="none" stroke="#001026" stroke-linecap="round" stroke-linejoin="round"/><path d="M257.76963,176.99051c-2.39921,0.19041 -3.88444,-0.53316 -3.88444,-0.53316" fill="none" stroke="#001026" stroke-linecap="round" stroke-linejoin="round"/><path d="M244.82151,173.18224c0.79974,0 1.63756,0.07617 1.67564,0.34274c0.03808,0.53316 -0.53316,1.59947 -1.14248,1.63756c-0.68549,0.07617 -2.28496,-0.8759 -2.28496,-1.48523c-0.03808,-0.45699 0.99015,-0.49508 1.75181,-0.49508z" fill="#001026" stroke="#001026" stroke-linecap="round" stroke-linejoin="round"/><path d="M227.68428,172.61099c0,0 3.27511,1.06632 4.60801,2.24688" fill="none" stroke="#001026" stroke-linecap="round" stroke-linejoin="round"/><path d="M232.40654,176.19077c-1.63756,0.64741 -4.45568,0.2285 -4.45568,0.2285" fill="none" stroke="#001026" stroke-linecap="round" stroke-linejoin="round"/><g><path d="M249.31527,168.72656c1.1044,1.71372 1.14248,3.65594 0.07617,4.34143c-1.06632,0.68549 -2.81812,-0.11425 -3.9606,-1.82797c-1.1044,-1.71372 -1.14248,-3.65594 -0.07617,-4.34143c1.06632,-0.72357 2.8562,0.11425 3.9606,1.82797z" fill="#ffffff" stroke="#001026" stroke-linecap="round" stroke-linejoin="round"/><path d="M249.16294,170.89727c0,0.41891 -0.30466,0.76165 -0.68549,0.76165c-0.38083,0 -0.68549,-0.34274 -0.68549,-0.76165c0,-0.41891 0.30466,-0.76165 0.68549,-0.76165c0.38083,0 0.68549,0.34274 0.68549,0.76165" fill="#001026" stroke="none" stroke-linecap="butt" stroke-linejoin="miter"/></g><g><path d="M239.87075,169.79287c1.14248,1.67564 1.06632,3.73211 0.03808,4.45568c-1.25673,0.72357 -2.93237,0.19041 -4.07485,-1.48523c-1.18056,-1.67564 -1.25673,-3.84636 -0.07617,-4.68418c1.18056,-0.8759 2.97045,0.03808 4.11293,1.71372z" fill="#ffffff" stroke="#001026" stroke-linecap="round" stroke-linejoin="round"/><path d="M239.64226,172.00167c0,0.41891 -0.30466,0.76165 -0.68549,0.76165c-0.38083,0 -0.68549,-0.34274 -0.68549,-0.76165c0,-0.41891 0.30466,-0.76165 0.68549,-0.76165c0.38083,0.03808 0.68549,0.34274 0.68549,0.76165" fill="#001026" stroke="none" stroke-linecap="butt" stroke-linejoin="miter"/></g></g><path d="M244.01155,182.8023c0.2496,0.05055 3.71677,1.48806 4.09687,0.48762c0.46704,-1.17931 0.88871,-3.22975 2.76228,-2.71714c1.87358,0.5126 0.48664,3.73015 -0.26638,4.78814c-1.87696,2.3514 -4.93084,1.28285 -5.64629,0.93511c-0.71545,-0.34774 -1.94932,-0.92089 -2.42216,-1.84059c-0.47385,-1.00863 0.60153,-1.87459 1.47567,-1.65315z" fill="#ffab19" fill-rule="evenodd" stroke="#001026" stroke-width="0.5" stroke-linecap="round" stroke-linejoin="round"/><g fill-rule="evenodd" stroke-width="0.5"><path d="M242.6413,192.71867c0.79974,0.72357 2.55154,2.2088 2.55154,2.2088c0,0 5.44583,-0.95207 5.44583,1.78989c0,1.63756 -2.74196,2.01838 -6.43598,1.67564c-0.2285,-0.03808 -0.45699,-0.11425 -0.64741,-0.26658c-0.83782,-0.72357 -3.23703,-2.8562 -4.76034,-4.34143c-2.24688,-2.2088 -4.11293,-3.65594 -4.11293,-3.65594c-3.23703,-3.16087 -0.60932,-4.49376 0.41891,-6.32173c0.95207,-1.56139 1.37098,-1.25673 3.65594,-0.79974c1.29481,0.19041 2.05647,0.30466 2.89429,0.26658c1.25673,-0.03808 1.02823,1.78989 0.68549,2.74196c0,0 -0.53316,1.40906 -1.02823,2.13263c-0.60932,0.8759 -1.06632,1.44714 -1.52331,1.78989z" fill="#ffab19" stroke="#001026" stroke-linecap="round" stroke-linejoin="round"/><path d="M239.44235,189.90055c0,0 -0.57124,-0.45699 -1.18056,-1.02823c-0.76165,-0.68549 -1.52331,-1.25673 -0.76165,-2.43729c0.68549,-0.91399 1.3329,-2.13263 3.04662,-1.02823c1.63756,1.02823 0.91399,1.9803 0.91399,1.9803c-0.83782,1.71372 -2.01838,2.51346 -2.01838,2.51346z" fill="#ffffff" stroke="none" stroke-linecap="butt" stroke-linejoin="miter"/></g><path d="M231.63547,183.53605c0.11496,0.18999 0.33476,0.26309 0.55649,0.25105c0.43144,-0.24579 1.1024,-0.53728 1.73969,-0.84657c1.05093,-0.52141 3.03834,-1.0217 2.75462,0.98208c-0.20677,1.61369 -1.79016,2.3275 -3.5991,3.22364c-0.96387,0.4382 -2.09995,0.95768 -2.98353,0.10301c-1.00047,-0.95953 -3.49542,-4.38885 -1.33441,-5.78809c1.7416,-0.9317 2.31498,0.83587 2.86622,2.07488z" data-paper-data="{&quot;index&quot;:null}" fill="#ffab19" fill-rule="evenodd" stroke="#001026" stroke-width="0.5" stroke-linecap="round" stroke-linejoin="round"/><g fill-rule="nonzero" stroke-linecap="butt" stroke-linejoin="miter"><path d="M262.86819,161.41075c-0.0043,0.60326 -0.09382,1.20287 -0.26583,1.78109c0.00064,0.11982 -0.02668,0.23815 -0.07975,0.34559v0.09304c-0.09304,0.21267 -0.18608,0.43863 -0.29242,0.63801h-0.09304l-10.63339,18.14321c-0.01711,0.00025 -0.50701,0.4245 -1.07809,0.16777c-0.50268,-0.22597 -0.38631,-0.83565 -0.39729,-0.83235l3.41598,-15.83045c-2.11009,-0.60484 -4.31832,-0.79 -6.49966,-0.54497c-2.1676,-0.02164 -4.31362,0.43207 -6.28699,1.32918l-1.35575,-0.25254c-1.85676,-0.69166 -3.8146,-1.07335 -5.7952,-1.1298h-0.01329c-3.25648,-0.19937 -6.03445,0.1462 -6.9117,0.78421l3.38939,15.64438c-0.01558,0.01369 0.03172,0.98602 -0.41647,1.14506c-0.44819,0.15903 -1.22298,-0.54281 -1.2317,-0.56022l-10.52706,-18.07676h-0.07975c-0.07975,-0.1595 -0.13292,-0.319 -0.19938,-0.4785l-0.19938,-0.33229c-0.06507,-0.16208 -0.06507,-0.34301 0,-0.50508c-0.12465,-0.5315 -0.18709,-1.07568 -0.18608,-1.6216c0,-9.63651 10.24793,-18.78122 22.86178,-18.78122c12.6936,0 22.95482,9.14472 22.87507,18.87427zM256.71411,163.97606c-0.59133,0.21078 -1.16106,0.47784 -1.70134,0.79751c0.01317,0.07474 0.01317,0.15122 0,0.22596l-3.0571,14.00949l8.78584,-15.03295c-1.3185,-0.35879 -2.7089,-0.35879 -4.0274,0zM223.53794,164.16214c-1.37977,-0.43041 -2.85157,-0.47181 -4.25335,-0.11962l8.74596,14.96649l-3.04381,-14.00949v-0.10634c-0.45558,-0.28629 -0.93602,-0.53096 -1.43551,-0.73104z" fill="#001026" stroke="none" stroke-width="1"/><path d="M262.60235,163.21646c0.00064,0.11982 -0.02668,0.23815 -0.07975,0.34558v0.09304c-0.09304,0.21267 -0.18608,0.43863 -0.29242,0.63801h-0.09304l-1.46209,-0.31704c-1.3185,-0.35879 -2.7089,-0.35879 -4.0274,0c-0.59133,0.21078 -1.16107,0.47784 -1.70135,0.79751c0.01317,0.07474 -1.50195,1.1677 -1.50195,1.1677c-2.11009,-0.60484 -4.31832,-0.78999 -6.49966,-0.54496c-2.1676,-0.02164 -4.31362,0.43206 -6.28699,1.32917l-1.35576,-0.25254c-1.85676,-0.69166 -3.81459,-1.07335 -5.79519,-1.1298h-0.01329c-3.25647,-0.19938 -6.03445,0.14621 -6.9117,0.78422l-1.59502,-1.23417c-0.45558,-0.28629 -0.93602,-0.53096 -1.43551,-0.73104h-0.01329c-1.37977,-0.43041 -2.85157,-0.47181 -4.25335,-0.11962l-1.56841,0.23728c-0.07975,-0.1595 -0.13292,-0.319 -0.19938,-0.4785c0,0 -0.26444,-0.6753 -0.19937,-0.83738c-0.12465,-0.53149 -0.1871,-1.07567 -0.18609,-1.62159c0,-9.63651 10.24793,-18.78123 22.86179,-18.78123c12.6936,0 22.95483,9.14472 22.87508,18.87426c0,0 -0.09383,1.20288 -0.26585,1.7811z" fill="#ff8080" stroke="#001026" stroke-width="1.5"/></g><path d="M184.70283,235.29717v-110.59434h110.59434v110.59434z" fill="none" fill-rule="nonzero" stroke="none" stroke-width="0" stroke-linecap="butt" stroke-linejoin="miter"/></g></g></svg>