<svg version="1.1" xmlns="http://www.w3.org/2000/svg" xmlns:xlink="http://www.w3.org/1999/xlink" width="24.88438" height="22.87953" viewBox="0,0,24.88438,22.87953"><g transform="translate(-200.21175,-161.84985)"><g data-paper-data="{&quot;isPaintingLayer&quot;:true}" fill-rule="nonzero" stroke-miterlimit="10" stroke-dasharray="" stroke-dashoffset="0" style="mix-blend-mode: normal"><path d="M219.36563,180.56335l-0.33964,-0.59931c-0.37196,-0.64777 -0.80169,-1.24086 -1.18066,-1.76293c-0.48718,-0.67245 -0.91109,-1.36822 -1.05143,-1.85981c-0.0506,-0.17707 -0.02621,-0.34606 0.04663,-0.43947c0.007,-0.02515 0.08046,-0.06521 0.13225,-0.0759c0.62416,-0.13485 3.2078,1.34843 3.85238,2.14128c0.9443,1.16116 1.3219,2.78997 1.11132,3.61038c-0.08641,0.33524 -0.27963,0.5728 -0.5594,0.68588c-0.71514,0.2889 -1.18552,-0.23254 -2.01145,-1.70013v0z" fill="#ffc93e" stroke="#603813" stroke-width="0.5" stroke-linecap="butt" stroke-linejoin="miter"/><path d="M209.19536,169.11674c0.9172,-0.49846 -0.02939,-2.3752 -0.94522,-4.19065c-0.50057,-0.99263 -1.39321,-2.66913 -1.10309,-2.82623c0.56123,-0.30416 3.24238,2.8599 4.32933,4.13518l1.10797,1.26205c0,0 0.79209,0.97172 1.39825,1.61266c0.01068,0.01112 0.58378,-0.07787 0.97968,-0.40688c0.32274,-0.26925 0.28006,-0.5705 0.38278,-1.20411c0.09431,-0.58211 0.19674,-1.63552 0.50911,-1.64085c0.47055,-0.00716 0.77989,1.93234 0.90041,2.65082l0.06659,0.38432c0.15803,0.85454 0.98242,3.42386 1.01776,3.53281c0.01128,0.02651 0.02988,0.06096 0.02988,0.06096l0.00684,0.01388l0.00944,0.01157c1.27302,1.57883 2.21976,3.49319 2.21976,5.28673c0,3.79797 -3.32924,6.47151 -7.7855,6.47151c-0.82652,0 -1.63489,-0.11582 -2.40275,-0.34349l-0.0413,-0.01187c0,0 -3.85893,0.69653 -3.60413,-0.00382l0.04009,-0.11002l-0.09204,-0.07283c-0.02256,-0.01799 -2.52345,-1.84031 -2.77609,-4.45169c-0.2202,-2.27626 0.92968,-3.57227 1.40679,-4.28453l0.27413,-0.45654c0.34605,-0.84191 -0.30523,-2.01282 -0.88001,-3.04596c-0.34316,-0.61684 -0.89708,-1.51695 -0.77197,-1.72847c0.13882,-0.23435 0.63498,0.01509 1.13601,0.25403c0.40625,0.19413 0.79712,0.46841 1.0685,0.28753c0.28222,-0.18789 0.09707,-0.65981 -0.15938,-1.31307c-0.24122,-0.61348 -0.69793,-1.58262 -0.52253,-1.98263c0.0483,-0.11002 0.13304,-0.1873 0.25905,-0.2362c0.466,-0.18042 1.1322,0.6045 1.67149,1.21845c0.65784,0.74957 1.40389,1.59895 2.27017,1.12733v0z" fill="#ffc93e" stroke="#603813" stroke-width="0.5" stroke-linecap="round" stroke-linejoin="round"/><g stroke="none" stroke-width="0.5" stroke-linecap="butt" stroke-linejoin="miter"><path d="M209.96443,177.29346v0c0,-0.6854 0.55559,-1.2413 1.24116,-1.2416c0.68526,0 1.24084,0.5562 1.24084,1.2416c0,0.68496 -0.55544,1.2404 -1.24084,1.2404c-0.68542,0 -1.24116,-0.55543 -1.24116,-1.2404z" fill="#ffffff"/><path d="M211.3726,176.38647c0.2409,0 0.45927,0.09785 0.61729,0.25601c0.15816,0.15803 0.25599,0.37637 0.25599,0.61729c0,0.24092 -0.09783,0.4593 -0.25599,0.6173c-0.15803,0.15819 -0.3764,0.25601 -0.61729,0.25601c-0.24092,0 -0.45929,-0.09783 -0.6173,-0.25601c-0.15819,-0.15801 -0.25601,-0.37638 -0.25601,-0.6173c0,-0.24092 0.09783,-0.45926 0.25601,-0.61729c0.15801,-0.15816 0.37638,-0.25601 0.6173,-0.25601z" fill="#603813"/></g><g stroke="none" stroke-width="0.5" stroke-linecap="butt" stroke-linejoin="miter"><path d="M215.94268,177.29346v0c0,-0.6854 0.55558,-1.2413 1.2413,-1.2416c0.68526,0 1.24086,0.5562 1.24086,1.2416c0,0.68496 -0.5559,1.2404 -1.24086,1.2404c-0.68572,0 -1.2413,-0.55543 -1.2413,-1.2404z" fill="#ffffff"/><path d="M216.47739,177.25978v0c0,-0.48214 0.39071,-0.87331 0.87315,-0.87331c0.48212,0 0.87328,0.39132 0.87328,0.87331c0,0.48261 -0.39116,0.87299 -0.87328,0.87299c-0.48245,0 -0.87315,-0.39071 -0.87315,-0.87299z" fill="#603813"/></g><path d="M201.39571,182.86783c-0.25434,-0.16244 -0.40093,-0.43063 -0.42454,-0.77654c-0.05745,-0.84586 0.61197,-2.37776 1.75222,-3.3466c0.77867,-0.66165 3.59012,-1.64726 4.17893,-1.40087c0.0486,0.02042 0.11381,0.07286 0.11581,0.09937c0.05501,0.10484 0.04768,0.27505 -0.03445,0.43992c-0.22765,0.45775 -0.77165,1.06469 -1.37387,1.63598c-0.46811,0.44556 -0.99856,0.94871 -1.48235,1.51816l-0.44375,0.52573c-1.07994,1.29252 -1.63841,1.72008 -2.28799,1.30485v0z" fill="#ffc93e" stroke="#603813" stroke-width="0.5" stroke-linecap="butt" stroke-linejoin="miter"/><path d="M215.69821,180.20286c0,0.80787 -0.53796,1.46278 -1.20156,1.46278c-0.6636,0 -1.20157,-0.65491 -1.20157,-1.46278c0,-0.80787 0.53796,-1.46277 1.20157,-1.46277c0.6636,0 1.20156,0.6549 1.20156,1.46277z" fill="none" stroke="#603813" stroke-width="0.5" stroke-linecap="butt" stroke-linejoin="miter"/><g fill="none" stroke-linecap="round" stroke-linejoin="miter"><path d="M221.33132,181.66564l-4.21685,-1.74588" stroke="#343f4d" stroke-width="1.5"/><path d="M216.70282,179.73991l-1.00461,-0.41594" stroke="#c9d1dd" stroke-width="2"/></g><g stroke-linejoin="miter"><path d="M224.34013,163.64663v20.32675h-6.08498l-7.62028,-20.32675h13.70525" fill-opacity="0.75294" fill="#b4e0d7" stroke="none" stroke-width="1" stroke-linecap="butt"/><path d="M210.6349,163.64663l7.62028,20.32675h-4.09437l-7.62028,-20.32675h4.09437" fill-opacity="0.74902" fill="#d4fff5" stroke="none" stroke-width="1" stroke-linecap="butt"/><path d="M204.2428,163.64663l7.59182,20.32675h-2.30296l-7.62028,-20.32675h2.33141" fill-opacity="0.74902" fill="#d4fff5" stroke="none" stroke-width="1" stroke-linecap="butt"/><path d="M206.54054,163.64663l7.62028,20.32675h-2.33141l-7.59182,-20.32675h2.30296" fill-opacity="0.75294" fill="#b4e0d7" stroke="none" stroke-width="1" stroke-linecap="butt"/><path d="M200.96776,163.64663h0.93839l7.62028,20.32675h-8.55867v-20.32675" fill-opacity="0.75294" fill="#b4e0d7" stroke="none" stroke-width="1" stroke-linecap="butt"/><g stroke-width="1.512" stroke-linecap="round"><path d="" fill="#5e154d" stroke="#5e154d"/><path d="M224.34013,163.64663v20.32675h-23.37238v-20.32675h23.37238" fill="none" stroke="#666666"/></g></g></g></g></svg>