<svg version="1.1" xmlns="http://www.w3.org/2000/svg" xmlns:xlink="http://www.w3.org/1999/xlink" width="78.53985" height="76.1834" viewBox="0,0,78.53985,76.1834"><g transform="translate(-200.73008,-142.43705)"><g data-paper-data="{&quot;isPaintingLayer&quot;:true}" fill-rule="nonzero" stroke-linecap="butt" stroke-linejoin="miter" stroke-miterlimit="10" stroke-dasharray="" stroke-dashoffset="0" style="mix-blend-mode: normal"><path d="M200.73009,216.20633v-71.35563c0,-1.33052 1.08266,-2.41365 2.41365,-2.41365h73.71255c1.331,0 2.41364,1.08311 2.41364,2.41365v71.35563c0,1.33192 -1.08265,2.41412 -2.41364,2.41412h-73.71209c-1.331,0 -2.41412,-1.0822 -2.41412,-2.41412z" fill-opacity="0.6" fill="#404040" stroke="none" stroke-width="1"/><text transform="translate(204.80291,203.16429) scale(0.20241,0.20241)" font-size="40" xml:space="preserve" fill="#ffffff" fill-rule="nonzero" stroke="none" stroke-width="1" stroke-linecap="butt" stroke-linejoin="miter" stroke-miterlimit="10" stroke-dasharray="" stroke-dashoffset="0" font-family="Sans Serif" font-weight="normal" text-anchor="start" style="mix-blend-mode: normal"><tspan x="0" dy="0">сѓбсѓцсЃфсѓ╣сѓ╣сЃгсЃ╝сЃѕ</tspan></text><path d="M204.80294,190.37851v-41.75298c0,-1.33052 1.08266,-2.41365 2.41365,-2.41365h65.56685c1.331,0 2.41364,1.08311 2.41364,2.41365v41.75298c0,1.33192 -1.08265,2.41412 -2.41364,2.41412h-65.56639c-1.331,0 -2.41412,-1.0822 -2.41412,-2.41412z" fill="#b6b6c1" stroke="#bf80ff" stroke-width="0"/><text transform="translate(204.80291,209.75877) scale(0.11571,0.11571)" font-size="40" xml:space="preserve" fill="#b3b3b3" fill-rule="nonzero" stroke="none" stroke-width="1" stroke-linecap="butt" stroke-linejoin="miter" stroke-miterlimit="10" stroke-dasharray="" stroke-dashoffset="0" font-family="Sans Serif" font-weight="normal" text-anchor="start" style="mix-blend-mode: normal"><tspan x="0" dy="0">сѓФсЃЕсЃ╝­Ъје</tspan><tspan x="0" dy="48px">У┐йтіаТЌЦ:2023-05-05</tspan></text><path d="M206.97507,192.77591v-38.52251c0,-1.33052 1.08266,-2.41365 2.41365,-2.41365h61.22259c1.331,0 2.41364,1.08311 2.41364,2.41365v38.52251z" fill="#94678e" stroke="none" stroke-width="0"/><path d="M204.80294,190.37851v-41.75298c0,-1.33052 1.08266,-2.41365 2.41365,-2.41365h65.56685c1.331,0 2.41364,1.08311 2.41364,2.41365v41.75298c0,1.33192 -1.08265,2.41412 -2.41364,2.41412h-65.56639c-1.331,0 -2.41412,-1.0822 -2.41412,-2.41412z" fill="none" stroke="#80b3ff" stroke-width="2"/></g></g></svg>