<svg version="1.1" xmlns="http://www.w3.org/2000/svg" xmlns:xlink="http://www.w3.org/1999/xlink" width="92.21921" height="62.49176" viewBox="0,0,92.21921,62.49176"><defs><linearGradient x1="217.75141" y1="184.46875" x2="217.75141" y2="205.7752" gradientUnits="userSpaceOnUse" id="color-1"><stop offset="0" stop-color="#8d6547"/><stop offset="1" stop-color="#d0b191"/></linearGradient></defs><g transform="translate(-193.89041,-148.75412)"><g data-paper-data="{&quot;isPaintingLayer&quot;:true}" stroke-miterlimit="10" stroke-dasharray="" stroke-dashoffset="0" style="mix-blend-mode: normal"><path d="M194.89041,210.24588v-60.49176h90.21921v60.49176z" fill="#76d27a" fill-rule="nonzero" stroke="#666666" stroke-width="2" stroke-linecap="butt" stroke-linejoin="miter"/><path d="M195.90991,209.32838v-3.6523h88.18031v3.6523z" fill="#c0c0c0" fill-rule="nonzero" stroke="none" stroke-width="0" stroke-linecap="butt" stroke-linejoin="miter"/><g fill-rule="evenodd" stroke-width="0.5"><path d="M222.31964,163.92176c0.11688,-0.07792 0.31167,-0.03896 0.35063,0.11688l1.01295,4.16867c0,0 2.49341,1.8311 3.23364,3.11676c1.2467,2.14278 1.28566,3.89596 1.28566,3.89596c0,0 2.76613,0.81815 3.23364,3.03884c0.46751,2.2207 -1.2467,6.42833 -8.5711,7.86983c-7.3244,1.44151 -13.20729,-0.54543 -15.97342,-4.98682c-2.76613,-4.44139 1.59734,-9.73989 1.36359,-9.42821l-0.81815,-6.97376c-0.03896,-0.15584 0.15584,-0.27272 0.31168,-0.19479l4.71411,3.0778c0,0 1.75317,-0.66231 3.58427,-0.74023c1.09087,-0.07792 2.0259,0 2.92197,0.15584z" fill="#ffab19" stroke="#001026" stroke-linecap="butt" stroke-linejoin="miter"/><path d="M228.08566,175.37587c0,0 2.6882,0.70127 3.15572,2.92197c0.46751,2.2207 -1.40254,6.23353 -8.64902,7.63608c-9.42821,1.94798 -13.90856,-3.6622 -11.29827,-7.79191c2.61029,-4.16867 7.09064,-0.62336 10.36324,-0.85711c2.80509,-0.1948 3.11677,-2.64925 6.42833,-1.90902z" fill="#ffffff" stroke="none" stroke-linecap="butt" stroke-linejoin="miter"/><path d="M215.81338,179.54454c0,-0.15584 0.15583,-0.27272 0.31168,-0.23376c0.74023,0.27272 2.84405,0.89606 5.18162,1.05191c2.10381,0.11688 3.35052,0 3.93491,-0.11688c0.1948,-0.03896 0.35064,0.15584 0.27272,0.35064c-0.35064,1.05191 -1.8311,3.97387 -5.92185,3.74012c-3.54532,-0.3896 -3.89596,-2.883 -3.77908,-4.79202z" fill="#ffffff" stroke="#001026" stroke-linecap="round" stroke-linejoin="round"/><path d="M235.25419,175.80442c-1.8311,1.48047 -4.63619,1.51942 -4.63619,1.51942" fill="none" stroke="#001026" stroke-linecap="round" stroke-linejoin="round"/><path d="M234.74774,180.16789c-2.45445,0.1948 -3.97387,-0.54544 -3.97387,-0.54544" fill="none" stroke="#001026" stroke-linecap="round" stroke-linejoin="round"/><path d="M221.50149,176.27194c0.81815,0 1.67526,0.07792 1.71422,0.35064c0.03896,0.54543 -0.54543,1.6363 -1.16879,1.67526c-0.70127,0.07792 -2.33757,-0.89606 -2.33757,-1.51942c-0.03896,-0.46751 1.01295,-0.50647 1.79214,-0.50647z" fill="#001026" stroke="#001026" stroke-linecap="round" stroke-linejoin="round"/><path d="M203.96969,175.68754c0,0 3.35052,1.09087 4.71411,2.29862" fill="none" stroke="#001026" stroke-linecap="round" stroke-linejoin="round"/><path d="M208.80066,179.34974c-1.67526,0.66231 -4.55827,0.23376 -4.55827,0.23376" fill="none" stroke="#001026" stroke-linecap="round" stroke-linejoin="round"/><g><path d="M226.09872,171.71367c1.12983,1.75318 1.16878,3.74012 0.07792,4.44139c-1.09087,0.70127 -2.88301,-0.11688 -4.05179,-1.87006c-1.12983,-1.75318 -1.16878,-3.74012 -0.07791,-4.44138c1.09087,-0.74023 2.92197,0.11688 4.05179,1.87006z" fill="#ffffff" stroke="#001026" stroke-linecap="round" stroke-linejoin="round"/><path d="M225.94286,173.93436c0,0.42855 -0.31168,0.77919 -0.70128,0.77919c-0.3896,0 -0.70127,-0.35064 -0.70127,-0.77919c0,-0.42855 0.31167,-0.77919 0.70127,-0.77919c0.3896,0 0.70128,0.35064 0.70128,0.77919" fill="#001026" stroke="none" stroke-linecap="butt" stroke-linejoin="miter"/></g><g><path d="M216.43675,172.80454c1.16879,1.71422 1.09086,3.81804 0.03895,4.55827c-1.28566,0.74023 -2.99988,0.1948 -4.16867,-1.51942c-1.20774,-1.71422 -1.28566,-3.93491 -0.07792,-4.79202c1.20774,-0.89607 3.03885,0.03896 4.20764,1.75318z" fill="#ffffff" stroke="#001026" stroke-linecap="round" stroke-linejoin="round"/><path d="M216.20297,175.06419c0,0.42855 -0.31168,0.77919 -0.70127,0.77919c-0.3896,0 -0.70127,-0.35064 -0.70127,-0.77919c0,-0.42855 0.31168,-0.7792 0.70127,-0.7792c0.3896,0.03896 0.70127,0.35064 0.70127,0.7792" fill="#001026" stroke="none" stroke-linecap="butt" stroke-linejoin="miter"/></g></g><g fill-rule="nonzero" stroke="none" stroke-linecap="butt" stroke-linejoin="miter"><path d="M205.3157,181.10669c0,2.65787 -1.59499,4.8125 -3.5625,4.8125c-1.96751,0 -3.5625,-2.15463 -3.5625,-4.8125c0,-2.65787 1.59499,-4.8125 3.5625,-4.8125c1.96751,0 3.5625,2.15463 3.5625,4.8125z" fill="#ffd792" stroke-width="0"/><g stroke-width="0.5"><path d="M201.9407,169.29419c0.75,0 0.75,0.75 0.75,0.75v0.125c0,0.3401 0.15446,1.49055 0.0592,2.21672c0.10061,-0.15163 0.20699,-0.29367 0.28547,-0.37205c0.1918,-0.19152 0.40752,-0.35519 0.63943,-0.49706c0.09427,-0.10115 0.17969,-0.19079 0.25269,-0.26611l-0.04772,-0.0668l0.8679,-0.61993c0.12413,-0.09102 0.2773,-0.14477 0.44303,-0.14477c0.41421,0 0.75,0.33579 0.75,0.75c0,0.23943 -0.1122,0.45266 -0.28689,0.58998l-0.5952,0.47616c-0.94593,0.94881 -1.63925,2.03349 -2.27372,3.18076l-0.10237,0.61424c-0.03471,0.2337 -0.17724,0.43223 -0.37537,0.5434c0.02505,0.21029 0.01001,0.66078 -0.53541,0.81661c-0.72114,0.20604 -0.92718,-0.5151 -0.92718,-0.5151c-0.33917,-1.20452 -0.89752,-2.17289 -1.94205,-2.87965l-0.04722,0.09443l-0.73547,-0.36773c-0.25368,-0.12026 -0.42912,-0.37868 -0.42912,-0.67809c0,-0.41421 0.33579,-0.75 0.75,-0.75c0.08907,0 0.17452,0.01553 0.25378,0.04402l0.73339,0.24446l-0.01536,0.04608l0.1077,-0.00831c0.19721,0.13204 0.38276,0.26783 0.5574,0.40811c0.53696,0.18077 1.10384,0.79242 1.55136,1.32089c0.02713,-0.07611 0.06009,-0.15511 0.09808,-0.23638c-0.83057,-0.88349 -0.53635,-2.95921 -0.53635,-3.94388v-0.125c0,0 0,-0.75 0.75,-0.75z" fill="#009b15"/><path d="M202.45957,170.9516c-0.23777,0.42062 -0.76715,0.33239 -0.76715,0.33239c-2.77615,-0.53577 -2.75642,-2.9892 -2.74915,-5.30166l0.03066,-0.0576l-0.02301,-0.00383l0.12297,-0.73784c0.0537,-0.36151 0.36537,-0.63886 0.74182,-0.63886c0.2994,0 0.55783,0.17544 0.67809,0.42912l0.36773,0.73547l-0.13917,0.06958c0.26643,0.26889 0.49286,0.36289 0.59431,-0.0252l1.34138,-1.05179c0.2536,0.65352 0.6483,0.99577 0.48635,1.56071c0.0583,-0.15971 0.1926,-0.48264 0.3248,-0.55114c0.48189,-0.24969 1.06823,-0.6857 1.56184,-0.46009c0.45953,0.21004 0.4571,0.91907 0.53467,1.41834c0.16169,1.04072 -1.0212,3.07907 -2.3579,3.92367c-0.15415,0.21395 -0.3334,0.37335 -0.52411,0.44199c-0.03689,0.01328 -0.11597,-0.01882 -0.22415,-0.08325z" fill="#edae00"/></g><path d="M205.0657,177.10669c0,0.51777 -1.42709,0.9375 -3.1875,0.9375c-1.76041,0 -3.1875,-0.41973 -3.1875,-0.9375c0,-0.51777 1.42709,-0.9375 3.1875,-0.9375c1.76041,0 3.1875,0.41973 3.1875,0.9375z" fill="#ffd792" stroke-width="0"/></g><path d="M195.91671,205.7752v-21.30645h43.6694v21.30645z" fill="url(#color-1)" fill-rule="nonzero" stroke="#666666" stroke-width="0" stroke-linecap="butt" stroke-linejoin="miter"/><path d="M248.50513,175.1207v-18.675h33.8v18.675z" fill="#afb0a3" fill-rule="nonzero" stroke="#8d8d8d" stroke-width="1.5" stroke-linecap="butt" stroke-linejoin="miter"/><path d="M250.06355,166.88588c0.23717,-0.71151 0.94868,-0.47434 0.94868,-0.47434l0.52365,0.23298c0.82386,0.71693 2.24799,3.6141 3.71028,2.93044c-0.10551,-0.21378 -0.18854,-0.44201 -0.27142,-0.66305c-0.06484,-0.17293 -0.35865,-1.83421 -0.39213,-2.01833l-0.17917,-0.98544c-0.00967,-0.04807 -0.01474,-0.0978 -0.01474,-0.14872c0,-0.41421 0.33579,-0.75 0.75,-0.75c0.35158,0 0.64666,0.24192 0.72786,0.56838l0.26844,0.98428l-0.08391,0.02288l0.00733,0.04029c0.03469,0.19082 0.06892,0.45425 0.11634,0.74316c0.16724,0.45819 0.30321,0.93065 0.38045,1.3804c0.2193,0.44464 0.5481,0.73419 1.06235,0.60636l-0.04446,-0.53346l0.21565,-0.01797c-0.08531,-0.79854 -0.06981,-1.57483 -0.05072,-2.41194c-0.05483,-0.34092 -0.04593,-0.69101 0.00602,-1.04015l-0.26137,-0.02376l0.09022,-0.99238c0.0307,-0.38602 0.35369,-0.68971 0.74761,-0.68971c0.36345,0 0.66652,0.25853 0.73534,0.60172l0.17861,0.80376l-0.03467,0.0077l0.04805,0.07316c0.00104,0.23052 0.01674,0.48805 0.0346,0.75982c0.25533,0.44083 0.36539,1.01695 0.35349,1.62343c0.86374,-0.81388 1.95251,-1.49951 2.71509,-0.37187c0.57605,0.85182 -2.42517,3.57409 -2.83919,4.02951c0,0 -0.5045,0.55496 -1.05946,0.05045c-0.17657,-0.16052 -0.24589,-0.32615 -0.25833,-0.47739c-0.53237,0.35739 -1.18421,0.41027 -1.90722,-0.05861c-0.37496,0.4695 -1.09489,0.65744 -2.32044,0.34734c-1.57026,-0.39732 -2.25543,-2.28355 -3.40669,-3.2514l-0.0218,0.05116c0,0 -0.71151,-0.23717 -0.47434,-0.94868z" fill="#009b15" fill-rule="nonzero" stroke="none" stroke-width="0.5" stroke-linecap="butt" stroke-linejoin="miter"/><path d="M277.83989,168.05075c0.43593,0.6103 -0.17437,1.04623 -0.17437,1.04623l-0.63636,0.45455c-1.50217,1.0629 -2.93354,1.35674 -4.24559,1.05858c-0.09701,0.04982 -0.21893,0.08112 -0.37216,0.08112c-0.43461,0 -0.61737,-0.25185 -0.69423,-0.46367c-0.76316,-0.37724 -1.47616,-0.95945 -2.12775,-1.70552l-0.08257,0.1101l-0.72029,-0.54022c-0.18613,-0.13648 -0.30698,-0.35674 -0.30698,-0.60524c0,-0.41421 0.33579,-0.75 0.75,-0.75c0.08907,0 0.17452,0.01553 0.25378,0.04402l0.80157,0.26719l-0.00924,0.02773l0.07407,-0.00273c0.38795,0.2158 0.75025,0.44315 1.10934,0.6721c-0.14161,-0.4877 -0.2673,-0.98492 -0.37418,-1.44425l-0.04392,0.02635l-0.53911,-0.89852c-0.07176,-0.11502 -0.11322,-0.25089 -0.11322,-0.39644c0,-0.41421 0.33579,-0.75 0.75,-0.75c0.22957,0 0.43504,0.10314 0.57262,0.26561l0.54228,0.63266l-0.0194,0.01663l0.05438,0.02742c0.3955,0.63723 0.61379,1.23823 0.73355,1.847c0.12504,0.41608 0.19429,0.85593 0.22724,1.21986c0.51919,-0.97114 1.8468,-2.48838 2.10087,-2.71319l0.53087,-0.53087l0.23863,0.23863l0.76719,-0.28831c-0.04794,0.21735 -0.11521,0.47698 -0.20069,0.76321l0.34924,0.23282l-0.54545,0.81818l-0.12943,-0.08628c-0.28439,0.75533 -0.66093,1.566 -1.11533,2.23429c0.38619,-0.24538 0.73029,-0.49755 0.91206,-0.62888l0.63636,-0.45455c0,0 0.6103,-0.43593 1.04623,0.17437z" fill="#009b15" fill-rule="nonzero" stroke="none" stroke-width="0.5" stroke-linecap="butt" stroke-linejoin="miter"/><g fill="#ffd792" fill-rule="nonzero" stroke="none" stroke-width="0" stroke-linecap="butt" stroke-linejoin="miter"><path d="M279.261,173.81247c0,2.25623 -2.69129,4.08526 -6.01118,4.08526c-3.31988,0 -6.01118,-1.82903 -6.01118,-4.08526c0,-2.25623 2.69129,-4.08526 6.01118,-4.08526c3.31988,0 6.01118,1.82903 6.01118,4.08526z"/><path d="M278.85348,170.31081c0,0.67687 -2.50883,1.22558 -5.60364,1.22558c-3.0948,0 -5.60364,-0.54871 -5.60364,-1.22558c0,-0.67687 2.50883,-1.22558 5.60364,-1.22558c3.0948,0 5.60364,0.54871 5.60364,1.22558z"/></g><g fill="#ffd792" fill-rule="nonzero" stroke="none" stroke-width="0" stroke-linecap="butt" stroke-linejoin="miter"><path d="M262.89737,173.81247c0,2.25623 -2.69129,4.08526 -6.01118,4.08526c-3.31988,0 -6.01118,-1.82903 -6.01118,-4.08526c0,-2.25623 2.69129,-4.08526 6.01118,-4.08526c3.31988,0 6.01118,1.82903 6.01118,4.08526z"/><path d="M262.48985,170.31081c0,0.67687 -2.50883,1.22558 -5.60364,1.22558c-3.0948,0 -5.60364,-0.54871 -5.60364,-1.22558c0,-0.67687 2.50883,-1.22558 5.60364,-1.22558c3.0948,0 5.60364,0.54871 5.60364,1.22558z"/></g><path d="M282.30512,175.1207v18.45h-33.8v-18.45z" fill="#afb0a3" fill-rule="nonzero" stroke="#8d8d8d" stroke-width="1.5" stroke-linecap="butt" stroke-linejoin="miter"/><g fill-rule="nonzero" stroke="none" stroke-width="0.5" stroke-linecap="butt" stroke-linejoin="miter"><path d="M256.98107,185.99858c0.78196,-0.73593 1.4415,-1.18378 2.20153,-1.5258l-0.07333,-0.11916l1.17172,-0.72106c0.11644,-0.07437 0.25476,-0.11748 0.40317,-0.11748c0.41422,0 0.75,0.33578 0.75,0.75c0,0.18791 -0.0691,0.35967 -0.18328,0.49127l-0.54273,0.63319l-0.00208,-0.00178l-0.00234,0.00689c-1.26838,1.427 -2.37614,2.70543 -2.83741,4.59779c0,0 -0.18191,0.72761 -0.90951,0.5457c-0.03678,-0.0092 -0.07124,-0.01978 -0.10351,-0.0316c-0.32068,0.52256 -0.91912,0.26609 -0.91912,0.26609l-0.43691,-0.96496c-0.11099,0.11754 -0.28074,0.20741 -0.54038,0.20741c-0.75,0 -0.75,-0.75 -0.75,-0.75c0.00184,-0.22441 -0.01118,-0.45654 -0.03885,-0.69208c-0.24642,-0.12291 -0.41569,-0.37747 -0.41569,-0.67156c0,-0.17999 0.06341,-0.34518 0.1691,-0.47444c-0.31144,-0.98707 -0.8744,-1.91275 -1.67321,-2.46072l-0.10961,0.0264c0,0 -0.72761,-0.18191 -0.5457,-0.90951c0.1819,-0.72761 0.9095,-0.5457 0.9095,-0.5457l0.61767,0.20821c1.19638,0.879 1.98915,2.24918 2.35452,3.70568c-0.00848,-1.26824 -0.01489,-2.53648 0.099,-3.79965l0.1024,-0.53373c0,0 0.14709,-0.73544 0.88252,-0.58835c0.73543,0.14709 0.58835,0.88253 0.58835,0.88253l-0.07943,0.37536c-0.06773,0.73854 -0.0913,1.47957 -0.0972,2.2214c0.00362,-0.00351 0.00723,-0.00697 0.01083,-0.01036z" fill="#009b15"/><g><path d="M259.28288,182.33459c0,-0.55228 0.44772,-1 1,-1c0.07368,0 0.1455,0.00797 0.21464,0.02309c0.15752,-0.34547 0.50589,-0.58559 0.91036,-0.58559c0.28185,0 0.53647,0.11661 0.71825,0.30421c0.13993,-0.0745 0.29966,-0.11671 0.46925,-0.11671c0.55228,0 1,0.44772 1,1c0,0.09052 -0.01203,0.17823 -0.03457,0.26162c0.47969,0.07361 0.84707,0.48809 0.84707,0.98838c0,0.55228 -0.44772,1 -1,1c-0.05802,0 -0.11489,-0.00494 -0.1702,-0.01443c0.06888,0.13573 0.1077,0.2893 0.1077,0.45193c0,0.55228 -0.44772,1 -1,1c-0.20336,0 -0.39255,-0.0607 -0.55042,-0.16498c-0.18343,0.21567 -0.45677,0.35248 -0.76208,0.35248c-0.55228,0 -1,-0.44772 -1,-1c0,-0.04234 0.00263,-0.08407 0.00774,-0.12503c-0.00258,0.00002 -0.00516,0.00003 -0.00774,0.00003c-0.55228,0 -1,-0.44772 -1,-1c0,-0.33653 0.16623,-0.63423 0.42107,-0.81547c-0.108,-0.15968 -0.17107,-0.35224 -0.17107,-0.55953zM261.03288,183.70959c0,0.04234 -0.00263,0.08407 -0.00774,0.12503c0.00258,-0.00002 0.00516,-0.00003 0.00774,-0.00003c0.20336,0 0.39255,0.0607 0.55042,0.16498c0.18343,-0.21567 0.45677,-0.35248 0.76208,-0.35248c0.05802,0 0.11489,0.00494 0.1702,0.01443c-0.06888,-0.13573 -0.1077,-0.2893 -0.1077,-0.45193c0,-0.09052 0.01203,-0.17823 0.03457,-0.26162c-0.22039,-0.03382 -0.41708,-0.1396 -0.56532,-0.29259c-0.13993,0.0745 -0.29966,0.11671 -0.46925,0.11671c-0.07368,0 -0.1455,-0.00797 -0.21464,-0.02309c-0.07349,0.16118 -0.18853,0.29943 -0.33143,0.40106c0.108,0.15968 0.17107,0.35224 0.17107,0.55953z" fill="#ff5454"/><path d="M260.65788,183.20959c0,-0.55228 0.44772,-1 1,-1c0.55228,0 1,0.44772 1,1c0,0.55228 -0.44772,1 -1,1c-0.55228,0 -1,-0.44772 -1,-1z" fill="#ffd854"/></g><g><path d="M253.97035,181.2721c0,-0.55229 0.44772,-1 1,-1c0.07368,0 0.1455,0.00797 0.21465,0.02309c0.15751,-0.34546 0.50589,-0.58559 0.91035,-0.58559c0.28186,0 0.53647,0.1166 0.71825,0.30421c0.13993,-0.0745 0.29966,-0.11671 0.46925,-0.11671c0.55228,0 1,0.44771 1,1c0,0.09052 -0.01202,0.17823 -0.03457,0.26162c0.47969,0.07361 0.84707,0.4881 0.84707,0.98838c0,0.55229 -0.44772,1 -1,1c-0.05802,0 -0.11488,-0.00494 -0.1702,-0.01443c0.06888,0.13574 0.1077,0.2893 0.1077,0.45193c0,0.55229 -0.44772,1 -1,1c-0.20337,0 -0.39254,-0.06071 -0.55042,-0.16498c-0.18342,0.21567 -0.45678,0.35248 -0.76208,0.35248c-0.55228,0 -1,-0.44771 -1,-1c0,-0.04235 0.00263,-0.08407 0.00774,-0.12503c-0.00258,0.00002 -0.00516,0.00003 -0.00774,0.00003c-0.55228,0 -1,-0.44771 -1,-1c0,-0.33653 0.16624,-0.63424 0.42107,-0.81548c-0.108,-0.15968 -0.17107,-0.35223 -0.17107,-0.55952zM255.72035,182.6471c0,0.04235 -0.00263,0.08407 -0.00774,0.12503c0.00258,-0.00002 0.00516,-0.00003 0.00774,-0.00003c0.20337,0 0.39255,0.0607 0.55043,0.16498c0.18342,-0.21567 0.45677,-0.35248 0.76207,-0.35248c0.05802,0 0.11489,0.00494 0.17021,0.01442c-0.06888,-0.13574 -0.10771,-0.28929 -0.10771,-0.45192c0,-0.09052 0.01203,-0.17823 0.03457,-0.26162c-0.22039,-0.03382 -0.41708,-0.1396 -0.56531,-0.29259c-0.13993,0.0745 -0.29967,0.11671 -0.46926,0.11671c-0.07368,0 -0.14549,-0.00797 -0.21464,-0.02309c-0.07349,0.16118 -0.18853,0.29943 -0.33143,0.40106c0.108,0.15968 0.17106,0.35224 0.17106,0.55953z" fill="#ff5454"/><path d="M255.34535,182.1471c0,-0.55229 0.44772,-1 1,-1c0.55228,0 1,0.44771 1,1c0,0.55229 -0.44772,1 -1,1c-0.55228,0 -1,-0.44771 -1,-1z" fill="#ffd854"/></g><g><path d="M249.78286,183.0846c0,-0.55229 0.44771,-1 1,-1c0.07368,0 0.1455,0.00797 0.21464,0.02309c0.15751,-0.34546 0.50589,-0.58559 0.91035,-0.58559c0.28186,0 0.53647,0.1166 0.71825,0.30421c0.13993,-0.0745 0.29966,-0.11671 0.46925,-0.11671c0.55228,0 1,0.44771 1,1c0,0.09052 -0.01202,0.17823 -0.03457,0.26162c0.47969,0.07361 0.84707,0.4881 0.84707,0.98838c0,0.55229 -0.44772,1 -1,1c-0.05802,0 -0.11488,-0.00494 -0.1702,-0.01443c0.06888,0.13574 0.1077,0.2893 0.1077,0.45193c0,0.55229 -0.44772,1 -1,1c-0.20337,0 -0.39254,-0.06071 -0.55042,-0.16498c-0.18342,0.21567 -0.45677,0.35248 -0.76208,0.35248c-0.55229,0 -1,-0.44771 -1,-1c0,-0.04235 0.00263,-0.08407 0.00774,-0.12503c-0.00258,0.00002 -0.00516,0.00003 -0.00774,0.00003c-0.55229,0 -1,-0.44771 -1,-1c0,-0.33653 0.16623,-0.63424 0.42107,-0.81548c-0.10799,-0.15968 -0.17107,-0.35223 -0.17107,-0.55952zM251.53286,184.4596c0,0.04235 -0.00263,0.08407 -0.00774,0.12503c0.00258,-0.00002 0.00516,-0.00003 0.00774,-0.00003c0.20336,0 0.39255,0.0607 0.55042,0.16498c0.18342,-0.21567 0.45677,-0.35248 0.76207,-0.35248c0.05802,0 0.11489,0.00494 0.17021,0.01442c-0.06888,-0.13574 -0.10771,-0.28929 -0.10771,-0.45192c0,-0.09052 0.01203,-0.17823 0.03457,-0.26162c-0.22039,-0.03382 -0.41708,-0.1396 -0.56531,-0.29259c-0.13993,0.0745 -0.29967,0.11671 -0.46926,0.11671c-0.07368,0 -0.14549,-0.00797 -0.21464,-0.02309c-0.07349,0.16118 -0.18853,0.29943 -0.33142,0.40106c0.10799,0.15968 0.17106,0.35224 0.17106,0.55953z" fill="#ff5454"/><path d="M251.15786,183.9596c0,-0.55229 0.44771,-1 1,-1c0.55228,0 1,0.44771 1,1c0,0.55229 -0.44772,1 -1,1c-0.55229,0 -1,-0.44771 -1,-1z" fill="#ffd854"/></g></g><g fill="#ffd792" fill-rule="nonzero" stroke="none" stroke-width="0" stroke-linecap="butt" stroke-linejoin="miter"><path d="M262.89737,191.53974c0,2.25623 -2.69129,4.08526 -6.01118,4.08526c-3.31988,0 -6.01118,-1.82903 -6.01118,-4.08526c0,-2.25623 2.69129,-4.08526 6.01118,-4.08526c3.31988,0 6.01118,1.82903 6.01118,4.08526z"/><path d="M262.48985,188.03808c0,0.67687 -2.50883,1.22558 -5.60364,1.22558c-3.0948,0 -5.60364,-0.54871 -5.60364,-1.22558c0,-0.67687 2.50883,-1.22558 5.60364,-1.22558c3.0948,0 5.60364,0.54871 5.60364,1.22558z"/></g><g fill-rule="nonzero" stroke="none" stroke-linecap="butt" stroke-linejoin="miter"><g stroke-width="0.5"><path d="M279.53678,185.15127c0.33541,0.67082 -0.33541,1.00623 -0.33541,1.00623l-0.37014,0.15552c-1.04975,0.20688 -3.43336,1.85459 -4.26021,1.74151c-0.17893,-0.02447 -0.33702,-0.06156 -0.4758,-0.10964c-0.2209,0.28478 -0.42855,0.49252 -0.61251,0.57187c-0.19181,0.08275 -0.36843,0.14282 -0.53084,0.18224c-0.00516,0.01353 -0.01046,0.0268 -0.01592,0.03981c-0.50321,1.19946 -1.513,1.31944 -2.34661,0.87376c-0.07836,0.03704 -0.17237,0.06365 -0.28511,0.07492c-0.74628,0.07463 -0.82091,-0.67165 -0.82091,-0.67165c-0.02368,-0.247 -0.06133,-0.48275 -0.11088,-0.70992c-0.56596,-0.93158 -1.01556,-1.95891 -1.32656,-3.00978c-0.04704,-0.08377 -0.09439,-0.16828 -0.14191,-0.25368l-0.03765,0.02353l-0.44842,-0.71747c-0.076,-0.11729 -0.12013,-0.25714 -0.12013,-0.4073c0,-0.41421 0.33579,-0.75 0.75,-0.75c0.25521,0 0.48064,0.12747 0.61611,0.32221l0.44874,0.62823l-0.01689,0.01206l0.04056,0.02315c0.73905,1.32718 1.41628,2.47737 1.71754,3.9089c0.15467,0.21573 0.3298,0.32236 0.54329,0.25345c0.03242,-0.01046 0.05306,-0.13291 0.0651,-0.3298c-0.27523,-0.69183 -0.21713,-1.76333 -0.0394,-2.77706c-0.01719,-0.46675 -0.0323,-0.84288 -0.03399,-0.99339l-0.08734,-0.00873l0.09008,-0.90084c0.0336,-0.38312 0.35526,-0.68362 0.7471,-0.68362c0.41421,0 0.75,0.33579 0.75,0.75v0.81818c0,0.55182 0.11487,1.44118 0.17788,2.3143c0.57604,-1.27837 1.3018,-2.241 2.35997,-3.29918l0.54545,-0.54545c0.13572,-0.13572 0.32322,-0.21967 0.53033,-0.21967c0.41421,0 0.75,0.33579 0.75,0.75c0,0.17941 -0.063,0.34411 -0.16808,0.47319l-0.72354,0.90443l-0.03975,-0.0318c-0.18252,0.43115 -0.3937,0.86477 -0.62735,1.22672c0.1131,-0.06123 0.21495,-0.11431 0.29483,-0.1541c0.79842,-0.39778 1.68292,-0.61486 2.54863,-0.79023l-0.0065,-0.02629c0,0 0.67082,-0.33541 1.00623,0.33541z" fill="#009b15"/><path d="M273.09537,183.27209c-0.00943,0.11267 -0.02512,0.21317 -0.0465,0.30227c-0.08009,0.33377 -0.24005,0.50752 -0.44994,0.56188c-0.14789,0.08636 -0.31995,0.13585 -0.50356,0.13585c-0.48328,0 -0.88649,-0.34282 -0.9797,-0.79855c-0.86307,-0.73178 -1.68007,-1.85105 -1.68007,-2.31129c0,-3.12215 3.22262,0.63609 3.60107,1.77146z" fill="#ac8eff"/><path d="M278.85159,181.59119c0.05754,0.70139 -0.66664,1.36803 -1.46723,1.77239c-0.09892,0.44821 -0.49856,0.78351 -0.9765,0.78351c-0.37139,0 -0.6955,-0.20246 -0.86797,-0.50304c-0.12679,-0.09354 -0.1814,-0.24696 -0.13169,-0.47063c-0.00023,-0.00875 -0.00034,-0.01753 -0.00034,-0.02633c0,-0.37496 0.20637,-0.70173 0.51173,-0.8729c0.93139,-1.163 2.78228,-2.50809 2.932,-0.683z" fill="#ac8eff"/><path d="M281.59537,185.33459c-0.04795,0.8631 -2.76489,1.97395 -3.25753,1.11182c-0.29474,-0.17395 -0.49247,-0.49479 -0.49247,-0.86182c0,-0.55228 0.44772,-1 1,-1c0.15775,0 0.30696,0.03653 0.43965,0.10158c1.09006,-0.44062 2.37967,-0.59935 2.31035,0.64842z" fill="#ac8eff"/><path d="M265.84537,180.95959c1.04525,-0.75394 3.50408,1.99322 3.28082,2.81182c0.02068,0.08011 0.03168,0.16411 0.03168,0.25068c0,0.55228 -0.44772,1 -1,1c-0.40155,0 -0.74782,-0.23667 -0.90692,-0.57813c-1.20801,-0.71475 -1.85655,-3.15908 -1.40558,-3.48437z" fill="#ac8eff"/></g><g fill="#ffd792" stroke-width="0"><path d="M279.261,191.53974c0,2.25623 -2.69129,4.08526 -6.01118,4.08526c-3.31988,0 -6.01118,-1.82903 -6.01118,-4.08526c0,-2.25623 2.69129,-4.08526 6.01118,-4.08526c3.31988,0 6.01118,1.82903 6.01118,4.08526z"/><path d="M278.85348,188.03808c0,0.67687 -2.50883,1.22558 -5.60364,1.22558c-3.0948,0 -5.60364,-0.54871 -5.60364,-1.22558c0,-0.67687 2.50883,-1.22558 5.60364,-1.22558c3.0948,0 5.60364,0.54871 5.60364,1.22558z"/></g></g><path d="M248.50513,204.8707v-11.3h33.8v11.3z" fill="#cecece" fill-rule="nonzero" stroke="#8d8d8d" stroke-width="1.5" stroke-linecap="butt" stroke-linejoin="miter"/><path d="M276.58978,163.03185c1.13551,-1.98715 4.48524,3.55305 0.25557,3.86525c-1.37883,0.10177 -1.78709,-0.62919 -1.68266,-1.50689c-0.08264,-0.14552 -0.12984,-0.31381 -0.12984,-0.49311c0,-0.43778 0.28131,-0.80985 0.67303,-0.94532c0.20036,-0.32009 0.43966,-0.60759 0.69226,-0.82411z" fill="#bd92a0" fill-rule="nonzero" stroke="none" stroke-width="0.5" stroke-linecap="butt" stroke-linejoin="miter"/><path d="M280.41409,167.77869c0,1.65554 -3.06939,2.57157 -3.1581,0.97468c-0.10161,-0.15653 -0.16063,-0.34326 -0.16063,-0.54377c0,-0.32091 0.15116,-0.60651 0.38616,-0.78949c0.88909,-1.09407 2.93257,-1.6213 2.93257,0.35859z" fill="#bd92a0" fill-rule="nonzero" stroke="none" stroke-width="0.5" stroke-linecap="butt" stroke-linejoin="miter"/><path d="M272.40786,164.89709c-0.3615,1.44599 -1.53487,1.10241 -2.30442,0.24584c-0.27318,-0.15465 -0.46639,-0.43412 -0.50211,-0.76094c-0.14736,-0.32405 -0.22417,-0.66529 -0.19347,-0.9849c0.1947,-2.02732 2.65494,-1.13025 3,0.25z" fill="#bd92a0" fill-rule="nonzero" stroke="none" stroke-width="0.5" stroke-linecap="butt" stroke-linejoin="miter"/><path d="M268.10219,165.1417c0.68904,0.17226 3.70847,2.26629 2.29248,3.07543c-0.17395,0.29474 -0.49479,0.49247 -0.86182,0.49247c-0.22268,0 -0.42837,-0.07279 -0.59456,-0.19587c-2.62658,-1.05414 -4.16887,-4.20522 -0.83611,-3.37203z" fill="#bd92a0" fill-rule="nonzero" stroke="none" stroke-width="0.5" stroke-linecap="butt" stroke-linejoin="miter"/><path d="M262.13285,164.07209c0.45,0.6 -0.15,1.05 -0.15,1.05l-0.06725,-0.00984c-0.26215,0.37024 -0.32114,0.63516 -0.27269,0.85205c0.04003,-0.03601 0.08006,-0.07201 0.12009,-0.10802l0.07959,-0.07959l-0.0874,-0.13734l0.67804,-0.43148c0.11826,-0.07792 0.25989,-0.12327 0.41211,-0.12327c0.41421,0 0.75,0.33579 0.75,0.75c0,0.20121 -0.07924,0.38392 -0.20821,0.51861c0.33393,0.07584 0.58321,0.3745 0.58321,0.73139c0,0.31811 -0.19805,0.58997 -0.47758,0.69899l-0.73396,0.30582l-0.10617,-0.25481h-0.18229v-0.06499c-0.02829,0.00693 -0.05645,0.01332 -0.08449,0.01918l-0.00715,0.0402c-0.01891,-0.0093 -0.03759,-0.01858 -0.05603,-0.02784c-1.72356,0.3137 -2.93219,-1.3811 -1.67258,-3.49419l0.43275,-0.38484c0,0 0.6,-0.45 1.05,0.15z" fill="#c8c8b2" fill-rule="nonzero" stroke="none" stroke-width="0.5" stroke-linecap="butt" stroke-linejoin="miter"/><path d="M257.84535,160.95959c0.75,0 0.75,0.75 0.75,0.75l-0.0102,0.3142c0.02941,0.21817 0.18539,0.34229 0.40264,0.41085l0.47006,-0.21366c0.09833,-0.04735 0.20857,-0.07389 0.32501,-0.07389c0.41421,0 0.75,0.33579 0.75,0.75c0,0.2243 -0.09847,0.42561 -0.25453,0.56305l-0.5597,0.49751l-0.02242,-0.02523l-0.03559,0.07186c-0.0725,0.03904 -0.14399,0.07566 -0.21451,0.10988c0.00453,0.2343 -0.15591,0.38805 -0.72049,0.27413c-1.13262,0.29871 -1.98965,-0.16949 -2.72619,-1.44456c0,0 -0.35914,-0.65842 0.29928,-1.01756c0.35977,-0.19624 0.63018,-0.08867 0.80148,0.04929l-0.00484,-0.26587c0,0 0,-0.75 0.75,-0.75z" fill="#c8c8b2" fill-rule="nonzero" stroke="none" stroke-width="0.5" stroke-linecap="butt" stroke-linejoin="miter"/><path d="M253.83743,164.14813c-0.03414,-0.08632 -0.05459,-0.1897 -0.05459,-0.31354c0,-0.75 0.75,-0.75 0.75,-0.75l0.80991,0.68772c-0.00428,0.14481 0.07407,0.25724 0.197,0.34326l0.04308,-0.01958c0.09833,-0.04735 0.20857,-0.07389 0.32501,-0.07389c0.41421,0 0.75,0.33579 0.75,0.75c0,0.2243 -0.09847,0.42561 -0.25453,0.56305l-0.5597,0.49751l-0.09176,-0.10323l-0.13998,0.24371c-0.73382,0.01694 -1.50154,-0.09005 -2.16445,-0.40522c0,0 -0.67082,-0.33541 -0.33541,-1.00623c0.19443,-0.38886 0.50156,-0.4396 0.72541,-0.41355z" fill="#c8c8b2" fill-rule="nonzero" stroke="none" stroke-width="0.5" stroke-linecap="butt" stroke-linejoin="miter"/><path d="M250.26956,164.7417c0.71952,-0.21163 0.93115,0.50789 0.93115,0.50789l-0.0195,0.09134c0.04456,0.10632 0.1113,0.1961 0.19346,0.2734l0.33758,-0.02391c0.04507,-0.00399 0.09114,-0.00395 0.13781,0.00047c0.41237,0.03906 0.71499,0.40502 0.67593,0.81739c-0.02551,0.26932 -0.19046,0.49183 -0.41671,0.60291l-0.71445,0.36497l-0.00976,-0.0191l-0.03783,0.04134c-0.25431,0.08838 -0.50862,0.17675 -0.76293,0.26513c0,0 -0.709,0.24458 -0.95358,-0.46442c-0.19415,-0.56282 0.2126,-0.83298 0.38858,-0.92046c-0.01732,-0.01722 -0.03344,-0.03439 -0.04819,-0.05135l-0.20945,-0.55445c0,0 -0.21163,-0.71952 0.50789,-0.93115z" fill="#c8c8b2" fill-rule="nonzero" stroke="none" stroke-width="0.5" stroke-linecap="butt" stroke-linejoin="miter"/></g></g></svg>