<svg version="1.1" xmlns="http://www.w3.org/2000/svg" xmlns:xlink="http://www.w3.org/1999/xlink" width="199.85003" height="30.35215" viewBox="0,0,199.85003,30.35215"><g transform="translate(-140.075,-164.82394)"><g data-paper-data="{&quot;isPaintingLayer&quot;:true}" fill-rule="nonzero" stroke-linecap="butt" stroke-linejoin="miter" stroke-miterlimit="10" stroke-dasharray="" stroke-dashoffset="0" style="mix-blend-mode: normal"><path d="M339.92503,191.8424c0,1.83834 -1.49471,3.33369 -3.33434,3.33369h-193.182c-1.8377,0 -3.33369,-1.49534 -3.33369,-3.33369v-23.68477c0,-1.83835 1.49599,-3.33369 3.33369,-3.33369h193.182c1.83963,0 3.33434,1.49598 3.33434,3.33433z" fill-opacity="0.00392" fill="#000000" stroke="none" stroke-width="0"/><path d="M234.51728,189.07878c0,1.40933 -1.14589,2.55571 -2.55621,2.55571h-86.045c-1.40884,0 -2.55572,-1.14637 -2.55572,-2.55571v-18.15753c0,-1.40934 1.14688,-2.55571 2.55572,-2.55571h86.045c1.41032,0 2.55621,1.14686 2.55621,2.5562z" fill-opacity="0.30196" fill="#5283cc" stroke="#66a3ff" stroke-width="1"/><path d="M245.48274,170.92174c0,-1.40934 1.14589,-2.5562 2.55622,-2.5562h86.045c1.40884,0 2.55572,1.14637 2.55572,2.55571v18.15753c0,1.40934 -1.14688,2.55571 -2.55572,2.55571h-86.045c-1.41032,0 -2.55622,-1.14638 -2.55622,-2.55571z" data-paper-data="{&quot;index&quot;:null}" fill-opacity="0.30196" fill="#c2cccc" stroke="none" stroke-width="1"/></g></g></svg>