<svg version="1.1" xmlns="http://www.w3.org/2000/svg" xmlns:xlink="http://www.w3.org/1999/xlink" width="92.21921" height="62.49176" viewBox="0,0,92.21921,62.49176"><g transform="translate(-193.8904,-148.75412)"><g data-paper-data="{&quot;isPaintingLayer&quot;:true}" stroke-miterlimit="10" stroke-dasharray="" stroke-dashoffset="0" style="mix-blend-mode: normal"><path d="M194.89041,210.24588v-60.49176h90.21921v60.49176z" fill="#ac9bd4" fill-rule="nonzero" stroke="#666666" stroke-width="2" stroke-linecap="butt" stroke-linejoin="miter"/><g fill-rule="evenodd" stroke-width="0.5"><path d="M218.69742,166.35458c0.11183,-0.07455 0.2982,-0.03727 0.33549,0.11183l0.96917,3.98853c0,0 2.38566,1.75197 3.09391,2.98207c1.19283,2.05017 1.23011,3.7276 1.23011,3.7276c0,0 2.6466,0.78279 3.09391,2.90752c0.44731,2.12473 -1.19283,6.15053 -8.20071,7.52974c-7.00788,1.37921 -12.63654,-0.52186 -15.28313,-4.77132c-2.64659,-4.24946 1.52831,-9.31899 1.30465,-9.02078l-0.78279,-6.67239c-0.03728,-0.1491 0.1491,-0.26094 0.2982,-0.18638l4.51038,2.9448c0,0 1.67742,-0.63369 3.42939,-0.70825c1.04373,-0.07455 1.93835,0.00001 2.79569,0.14911z" fill="#ffab19" stroke="#001026" stroke-linecap="butt" stroke-linejoin="miter"/><path d="M224.21426,177.31371c0,0 2.57205,0.67097 3.01935,2.7957c0.44731,2.12473 -1.34193,5.96415 -8.27526,7.30608c-9.02078,1.8638 -13.30751,-3.50394 -10.81002,-7.4552c2.49749,-3.98853 6.78422,-0.59642 9.9154,-0.82008c2.68387,-0.18637 2.98208,-2.53476 6.15053,-1.82653z" fill="#ffffff" stroke="none" stroke-linecap="butt" stroke-linejoin="miter"/><path d="M212.47235,181.30223c0,-0.1491 0.14911,-0.26094 0.29821,-0.22366c0.70825,0.26093 2.72114,0.85735 4.9577,1.00645c2.0129,0.11183 3.20573,0.00001 3.76487,-0.11182c0.18637,-0.03728 0.33548,0.14911 0.26093,0.33548c-0.33549,1.00645 -1.75197,3.80215 -5.66594,3.57849c-3.39211,-0.37276 -3.7276,-2.75842 -3.61577,-4.58495z" fill="#ffffff" stroke="#001026" stroke-linecap="round" stroke-linejoin="round"/><path d="M231.07304,177.72374c-1.75197,1.41648 -4.43584,1.45376 -4.43584,1.45376" fill="none" stroke="#001026" stroke-linecap="round" stroke-linejoin="round"/><path d="M230.58845,181.89865c-2.34839,0.18637 -3.80215,-0.52186 -3.80215,-0.52186" fill="none" stroke="#001026" stroke-linecap="round" stroke-linejoin="round"/><path d="M217.91464,178.17105c0.78279,0 1.60287,0.07455 1.64014,0.33549c0.03728,0.52186 -0.52186,1.56559 -1.11828,1.60287c-0.67097,0.07455 -2.23656,-0.85735 -2.23656,-1.45377c-0.03728,-0.44731 0.96918,-0.48459 1.7147,-0.48459z" fill="#001026" stroke="#001026" stroke-linecap="round" stroke-linejoin="round"/><path d="M201.14046,177.61191c0,0 3.20573,1.04373 4.51039,2.19928" fill="none" stroke="#001026" stroke-linecap="round" stroke-linejoin="round"/><path d="M205.76269,181.11586c-1.60287,0.63369 -4.36129,0.22366 -4.36129,0.22366" fill="none" stroke="#001026" stroke-linecap="round" stroke-linejoin="round"/><g><path d="M222.31319,173.80977c1.081,1.67742 1.11828,3.57849 0.07455,4.24946c-1.04373,0.67097 -2.75842,-0.11182 -3.8767,-1.78924c-1.081,-1.67742 -1.11828,-3.5785 -0.07455,-4.24947c1.04373,-0.70825 2.7957,0.11183 3.8767,1.78925z" fill="#ffffff" stroke="#001026" stroke-linecap="round" stroke-linejoin="round"/><path d="M222.1641,175.9345c0,0.41003 -0.2982,0.74551 -0.67096,0.74551c-0.37276,0 -0.67097,-0.33548 -0.67097,-0.74551c0,-0.41003 0.29821,-0.74552 0.67097,-0.74552c0.37276,0 0.67096,0.33548 0.67096,0.74552" fill="#001026" stroke="none" stroke-linecap="butt" stroke-linejoin="miter"/></g><g><path d="M213.06875,174.85349c1.11828,1.64014 1.04373,3.65304 0.03728,4.36129c-1.23011,0.70825 -2.87025,0.18637 -3.98853,-1.45377c-1.15556,-1.64014 -1.23011,-3.76487 -0.07455,-4.58495c1.15556,-0.85735 2.90753,0.03728 4.02581,1.67742z" fill="#ffffff" stroke="#001026" stroke-linecap="round" stroke-linejoin="round"/><path d="M212.84512,177.0155c0,0.41003 -0.29821,0.74552 -0.67097,0.74552c-0.37276,0 -0.67096,-0.33548 -0.67096,-0.74552c0,-0.41003 0.2982,-0.74551 0.67096,-0.74551c0.37276,0.03728 0.67097,0.33548 0.67097,0.74551" fill="#001026" stroke="none" stroke-linecap="butt" stroke-linejoin="miter"/></g></g><path d="M195.61933,209.5421v-22.87455h37.61998v22.87455z" fill="#ad7100" fill-rule="nonzero" stroke="#666666" stroke-width="0.5" stroke-linecap="butt" stroke-linejoin="miter"/><path d="M224.59946,153.38404v-1.85714h50.14286v1.85714z" fill="#626262" fill-rule="nonzero" stroke="none" stroke-width="NaN" stroke-linecap="butt" stroke-linejoin="miter"/><g fill-rule="nonzero" stroke-linejoin="miter"><path d="M245.52657,173.77895v-18.77195h11.18044v18.77195z" fill="#00c0ff" stroke="none" stroke-width="0" stroke-linecap="butt"/><path d="M257.53407,157.28072l-6.39507,-2.77593" fill="none" stroke="#888888" stroke-width="1" stroke-linecap="round"/><path d="M249.31077,151.14386c0,0 0.4971,-1.24272 1.21208,-1.02173c1.02906,0.31807 0.89372,0.92053 0.88955,1.71294c-0.00625,1.18734 -0.26644,2.60994 -0.26644,2.60994l-6.49607,2.99284" fill="none" stroke="#888888" stroke-width="1" stroke-linecap="round"/><path d="M245.53722,173.75743v-18.8821c0,0 3.95773,2.02442 5.88253,2.02442c1.78951,0 5.29,-2.02442 5.29,-2.02442v18.8821z" fill="#00ceff" stroke="none" stroke-width="0" stroke-linecap="butt"/><path d="M241.59676,164.84959l-2.48183,-4.36813l6.40827,-5.53432l2.48185,4.36813z" fill="#00ceff" stroke="none" stroke-width="0" stroke-linecap="butt"/><path d="M254.04116,159.34734l2.64736,-4.36813l6.83568,5.53431l-2.64736,4.36813z" data-paper-data="{&quot;index&quot;:null}" fill="#00ceff" stroke="none" stroke-width="0" stroke-linecap="butt"/><path d="M264.75801,173.77895v-18.77195h11.18045v18.77195z" fill="#ffc500" stroke="none" stroke-width="0" stroke-linecap="butt"/><path d="M276.76556,157.28072l-6.39508,-2.77593" fill="#ffc500" stroke="#888888" stroke-width="1" stroke-linecap="round"/><path d="M268.54215,151.14386c0,0 0.4971,-1.24272 1.21208,-1.02173c1.02906,0.31807 0.89372,0.92053 0.88955,1.71294c-0.00625,1.18734 -0.26645,2.60994 -0.26645,2.60994l-6.49606,2.99284" fill="none" stroke="#888888" stroke-width="1" stroke-linecap="round"/><path d="M264.7686,173.75743v-18.8821c0,0 3.95775,2.02442 5.88255,2.02442c1.78951,0 5.28999,-2.02442 5.28999,-2.02442v18.8821z" fill="#f5ff00" stroke="none" stroke-width="0" stroke-linecap="butt"/><path d="M260.82821,164.84959l-2.48184,-4.36813l6.40827,-5.53432l2.48184,4.36813z" fill="#f5ff00" stroke="none" stroke-width="0" stroke-linecap="butt"/><path d="M273.27252,159.34734l2.64737,-4.36813l6.83568,5.53431l-2.64736,4.36813z" data-paper-data="{&quot;index&quot;:null}" fill="#f5ff00" stroke="none" stroke-width="0" stroke-linecap="butt"/><path d="M226.17529,173.65955v-18.77195h11.18044v18.77195z" fill="#c10000" stroke="none" stroke-width="0" stroke-linecap="butt"/><path d="M231.78776,154.3854l6.39508,2.77593" fill="#ffc500" stroke="#888888" stroke-width="1" stroke-linecap="round"/><path d="M229.9595,151.02445c0,0 0.4971,-1.24273 1.21208,-1.02174c1.02906,0.31807 0.89372,0.92054 0.88955,1.71294c-0.00625,1.18734 -0.26644,2.60995 -0.26644,2.60995l-6.49606,2.99283" fill="none" stroke="#888888" stroke-width="1" stroke-linecap="round"/><path d="M226.18587,173.63803v-18.8821c0,0 3.95774,2.02443 5.88254,2.02443c1.78951,0 5.29,-2.02443 5.29,-2.02443v18.8821z" fill="#ff1c1c" stroke="none" stroke-width="0" stroke-linecap="butt"/><path d="M222.24549,164.73021l-2.48184,-4.36813l6.40827,-5.53432l2.48184,4.36813z" fill="#ff1c1c" stroke="none" stroke-width="0" stroke-linecap="butt"/><path d="M234.68988,159.22796l2.64737,-4.36813l6.83568,5.53431l-2.64736,4.36813z" data-paper-data="{&quot;index&quot;:null}" fill="#ff1c1c" stroke="none" stroke-width="0" stroke-linecap="butt"/></g><path d="M232.88267,209.30107v-33.6h8.8v33.6z" fill="#ad7100" fill-rule="nonzero" stroke="none" stroke-width="NaN" stroke-linecap="butt" stroke-linejoin="miter"/><path d="M236.56597,189.7326v-6.33333h15.66667v6.33333z" fill="#ad7100" fill-rule="nonzero" stroke="none" stroke-width="0" stroke-linecap="butt" stroke-linejoin="miter"/><path d="M275.64896,209.1844v-33.16667h8.5v33.16667z" fill="#ad7100" fill-rule="nonzero" stroke="none" stroke-width="0" stroke-linecap="butt" stroke-linejoin="miter"/><path d="M265.68851,190.91669v-6.66667h15.33333v6.66667z" fill="#ad7100" fill-rule="nonzero" stroke="none" stroke-width="0" stroke-linecap="butt" stroke-linejoin="miter"/><path d="M235.56597,204.73261v-5.66667h16.5v5.66667z" fill="#ad7100" fill-rule="nonzero" stroke="none" stroke-width="0" stroke-linecap="butt" stroke-linejoin="miter"/><path d="M266.18851,205.75002v-5.66667h16.16667v5.66667z" fill="#ad7100" fill-rule="nonzero" stroke="none" stroke-width="0" stroke-linecap="butt" stroke-linejoin="miter"/><path d="M241.62551,199.06972v-4.14286h10.42857v4.14286z" fill="#ff1c1c" fill-rule="nonzero" stroke="none" stroke-width="0" stroke-linecap="butt" stroke-linejoin="miter"/><path d="M241.62712,183.44968l0.02843,-4.57134l10.57123,0.06576l-0.02844,4.57134z" fill="#00ceff" fill-rule="nonzero" stroke="none" stroke-width="0" stroke-linecap="butt" stroke-linejoin="miter"/><path d="M265.64463,184.21431v-4.57143h10v4.57143z" fill="#f5ff00" fill-rule="nonzero" stroke="none" stroke-width="0" stroke-linecap="butt" stroke-linejoin="miter"/><path d="M266.21609,200.07145v-4h9.42857v4z" fill="#00ff29" fill-rule="nonzero" stroke="none" stroke-width="0" stroke-linecap="butt" stroke-linejoin="miter"/><path d="M195.90991,209.32838v-3.6523h88.18031v3.6523z" fill="#c0c0c0" fill-rule="nonzero" stroke="none" stroke-width="0" stroke-linecap="butt" stroke-linejoin="miter"/></g></g></svg>