<svg version="1.1" xmlns="http://www.w3.org/2000/svg" xmlns:xlink="http://www.w3.org/1999/xlink" width="28.08387" height="48.98576" viewBox="0,0,28.08387,48.98576"><defs><linearGradient x1="252.98793" y1="164.64915" x2="252.98793" y2="170.86068" gradientUnits="userSpaceOnUse" id="color-1"><stop offset="0" stop-color="#d5ffff"/><stop offset="1" stop-color="#d6feff"/></linearGradient><linearGradient x1="243.4963" y1="162.15654" x2="243.4963" y2="184.411" gradientUnits="userSpaceOnUse" id="color-2"><stop offset="0" stop-color="#d5ffff"/><stop offset="1" stop-color="#d6feff"/></linearGradient></defs><g transform="translate(-254.76963,-148.32077)"><g data-paper-data="{&quot;isPaintingLayer&quot;:true}" fill-rule="nonzero" stroke-miterlimit="10" stroke-dasharray="" stroke-dashoffset="0" style="mix-blend-mode: normal"><path d="M259.75921,172.55248v0c-2.29516,0.42796 -3.26809,0.39192 -3.59735,-0.62543c-0.12875,-0.39804 -0.04814,-0.81486 0.23136,-1.20504c0.68478,-0.95394 2.75237,-2.00198 4.82711,-2.0314c1.41647,-0.02029 5.29248,1.40639 5.70455,2.18994c0.03474,0.06457 0.05752,0.1783 0.03701,0.20813c-0.0345,0.16056 -0.19244,0.33687 -0.42571,0.44065c-0.64749,0.28826 -1.7644,0.45676 -2.9128,0.53725c-0.89224,0.06171 -1.90516,0.13264 -2.9248,0.31366l-0.93936,0.17225z" data-paper-data="{&quot;index&quot;:null}" fill="#ffc93e" stroke="#603813" stroke-width="0.65" stroke-linecap="butt" stroke-linejoin="miter"/><path d="M274.55369,158.40225v0c1.201,0.65385 2.23533,-0.52371 3.14734,-1.56291c0.74766,-0.85115 1.67127,-1.93937 2.31732,-1.68923c0.17469,0.06779 0.29217,0.17492 0.35913,0.32745c0.24316,0.55456 -0.39,1.89816 -0.72442,2.74869c-0.35553,0.90568 -0.61223,1.55994 -0.22096,1.82043c0.37623,0.25078 0.91812,-0.12948 1.48135,-0.39863c0.69461,-0.33127 1.38248,-0.6771 1.57494,-0.35219c0.17345,0.29325 -0.5945,1.54115 -1.07025,2.39632c-0.79686,1.43234 -1.6998,3.05565 -1.22004,4.22286l0.38005,0.63293c0.66146,0.98745 2.25564,2.78422 1.95035,5.93999c-0.35025,3.62037 -3.81746,6.14681 -3.84873,6.17175l-0.1276,0.10097l0.05557,0.15253c0.35324,0.97095 0.5666,2.49055 0.27758,3.13192c-0.12082,0.26893 -0.26892,0.41703 -0.47046,0.47091c-0.6044,0.16184 -0.56619,-0.364 -0.99503,-0.92806c-2.13775,-2.80998 -3.8088,-2.66948 -3.8088,-2.66948l-0.05726,0.01646c-1.06455,0.31564 -2.18526,0.4762 -3.33114,0.4762c-6.17808,0 -10.79369,-3.70654 -10.79369,-8.97198c0,-2.48654 1.31254,-5.14057 3.07743,-7.32943l0.01309,-0.01605l0.00949,-0.01923c0,0 0.02579,-0.04776 0.04143,-0.08451c0.04901,-0.15104 1.19192,-3.71311 1.41101,-4.89783l0.09232,-0.53281c0.16709,-0.99608 0.59596,-3.68498 1.24832,-3.67505c0.43307,0.00739 0.57507,1.46782 0.70582,2.27485c0.14241,0.87842 0.08324,1.29607 0.53068,1.66936c0.54887,0.45614 1.34341,0.5795 1.35821,0.56409c0.84037,-0.88858 1.9385,-2.23577 1.9385,-2.23577l1.53607,-1.74967c1.50693,-1.76802 5.22404,-6.15462 6.00212,-5.73294c0.40222,0.21781 -0.83533,2.54208 -1.52931,3.91824c-1.26968,2.51692 -2.58203,5.1188 -1.31044,5.80985z" data-paper-data="{&quot;index&quot;:null}" fill="#ffc93e" stroke="#603813" stroke-width="0.65" stroke-linecap="round" stroke-linejoin="round"/><g data-paper-data="{&quot;index&quot;:null}" stroke="none" stroke-width="0.65" stroke-linecap="butt" stroke-linejoin="miter"><path d="M271.76673,172.5444c-0.95022,0 -1.72027,-0.77006 -1.72027,-1.71967c0,-0.95022 0.77023,-1.72133 1.72027,-1.72133c0.95048,0.00041 1.72073,0.7711 1.72073,1.72133v0c0,0.94962 -0.77047,1.71967 -1.72073,1.71967z" fill="#ffffff"/><path d="M272.391,169.92224c0.2193,0.21908 0.35493,0.52179 0.35493,0.8558c0,0.33401 -0.13562,0.63675 -0.35493,0.85581c-0.21906,0.2193 -0.5218,0.35493 -0.85581,0.35493c-0.33398,0 -0.63673,-0.13563 -0.85581,-0.35493c-0.21928,-0.21905 -0.3549,-0.5218 -0.3549,-0.85581c0,-0.334 0.13562,-0.63672 0.3549,-0.8558c0.21908,-0.21928 0.52183,-0.35493 0.85581,-0.35493c0.33401,0 0.63675,0.13566 0.85581,0.35493z" fill="#603813"/></g><g data-paper-data="{&quot;index&quot;:null}" stroke="none" stroke-width="0.65" stroke-linecap="butt" stroke-linejoin="miter"><path d="M263.4784,172.5444c-0.94962,0 -1.72031,-0.77006 -1.72031,-1.71967c0,-0.95022 0.77027,-1.72133 1.72031,-1.72133c0.95067,0.00041 1.72092,0.7711 1.72092,1.72133v0c0,0.94962 -0.77024,1.71967 -1.72092,1.71967z" fill="#ffffff"/><path d="M263.24748,171.98834c-0.6684,0 -1.2107,-0.54122 -1.2107,-1.2103c0,-0.66821 0.54229,-1.21074 1.2107,-1.21074c0.66885,0 1.21052,0.5423 1.21052,1.21074v0c0,0.66863 -0.54166,1.2103 -1.21052,1.2103z" fill="#603813"/></g><path d="M268.68596,175.30092c-1.09665,0.93987 -2.66274,0.93863 -2.66274,0.93863" data-paper-data="{&quot;index&quot;:null}" fill="none" stroke="#603813" stroke-width="0.65" stroke-linecap="round" stroke-linejoin="round"/><path d="M266.96964,196.05654v-14.1l13.7,0.4l-0.3,-20.2l0.5,33.9" data-paper-data="{&quot;index&quot;:null}" fill="none" stroke="#8d6547" stroke-width="2.5" stroke-linecap="round" stroke-linejoin="miter"/><path d="M278.56965,180.30654c0,0.35898 -2.73107,0.65 -6.1,0.65c-3.36893,0 -6.1,-0.29102 -6.1,-0.65c0,-0.35898 2.73107,-0.65 6.1,-0.65c3.36893,0 6.1,0.29102 6.1,0.65z" data-paper-data="{&quot;index&quot;:null}" fill="#4c4c4c" stroke="#666666" stroke-width="2" stroke-linecap="butt" stroke-linejoin="miter"/><g stroke-linecap="butt" stroke-linejoin="miter"><path d="M265.32288,169.88302c0,0.53989 -0.43787,0.97765 -0.97765,0.97765h-6.77257c-0.53989,0 -0.97754,-0.43787 -0.97754,-0.97765v-4.25634c0,-0.53989 0.43764,-0.97754 0.97754,-0.97754h6.77245c0.54012,0 0.97765,0.43764 0.97765,0.97754v4.25634z" fill="#f3ad61" stroke="url(#color-1)" stroke-width="0"/><path d="M265.50883,166.51295c0,1.93432 -1.56879,3.5027 -3.5027,3.5027h-2.08377c-1.93432,0 -3.50229,-1.56879 -3.50229,-3.5027v-0.85412c0,-1.93432 1.56797,-3.5023 3.50229,-3.5023h2.08336c1.93514,0 3.5027,1.56797 3.5027,3.5023v0.85412z" fill="#f3ad61" stroke="url(#color-2)" stroke-width="0"/><path d="M264.0657,165.54372c0.55162,0.00052 1.80506,-0.07208 1.80506,0.81227c0,1.14325 -1.41314,0.63505 -2.03069,0.63177c-2.42175,-0.01287 -4.84373,0.02709 -7.26537,0c-0.00398,-0.00005 -0.00802,-0.00008 -0.0121,-0.0001c-0.39319,-0.00647 -0.70992,-0.3272 -0.70992,-0.72192c0,-0.33186 0.22389,-0.61143 0.52887,-0.6959c1.61945,-1.56768 4.33302,-0.02926 7.68415,-0.02612z" fill="#ff3030" stroke="none" stroke-width="0.5"/><path d="M265.37437,166.76213c0.92129,0.00908 0.92129,1.43497 0,1.44405c-2.93308,0.0289 -5.86657,0.0273 -8.79966,0c-0.00334,-0.00003 -0.00673,-0.00006 -0.01014,-0.00007c-0.39409,-0.00542 -0.71188,-0.32658 -0.71188,-0.72196c0,-0.26467 0.14241,-0.49608 0.35478,-0.62178c0.07512,-0.06 0.17737,-0.09439 0.33671,-0.0996c0.01013,-0.00042 0.02031,-0.00063 0.03053,-0.00063c2.93309,-0.0273 5.86658,-0.0289 8.79966,0z" fill="#ffee30" stroke="none" stroke-width="0.5"/><path d="M261.35811,168.20618c1.40281,-0.00651 2.72532,-0.17347 4.28701,-0.13539c0.80284,0.01958 0.8427,0.8721 0.36101,1.3538c-0.86035,0.86035 -2.4324,0.07728 -3.64905,0.09025c-2.11369,0.02253 -2.42188,0.15825 -6.00801,0.13538c-0.25084,-0.0016 -0.92189,-0.35612 -0.83453,-0.67641c-0.01493,-0.05784 -0.02287,-0.11849 -0.02287,-0.181c0,-0.39876 0.32327,-0.72203 0.72203,-0.72203c0.06776,0 0.13334,0.00934 0.19553,0.02679c0.08249,0.02316 0.15901,0.06059 0.22671,0.10948c1.57364,0.03559 3.14815,0.00642 4.72219,-0.00088z" fill="#88491a" stroke="none" stroke-width="0.5"/><path d="M255.80739,164.89449c0.50852,-0.21328 1.02942,-0.62772 1.60666,-0.65042c1.24714,-0.04902 2.37016,0.6121 3.60996,0.62274c1.22102,0.01048 1.99838,-0.06211 3.13194,-0.05415c0.67794,0.00476 2.56272,-0.42115 2.77128,0.25441c0.37817,1.22494 -1.88317,1.26845 -2.39926,1.27086c-1.3462,0.0063 -2.99848,0.21946 -4.29394,-0.1044c-0.63138,-0.15785 -1.59856,-0.5385 -2.2323,-0.54541c-0.46326,-0.00505 -1.58616,0.51033 -2.25202,0.68357c-0.06925,0.0265 -0.14362,0.04266 -0.22123,0.04655c-0.01219,0.00061 -0.02447,0.00092 -0.03683,0.00092c-0.39876,0 -0.72202,-0.32327 -0.72202,-0.72203c0,-0.39876 0.32326,-0.72202 0.72202,-0.72202c0.03856,0 0.07641,0.00302 0.11333,0.00884c0.06791,-0.03189 0.13587,-0.06158 0.2024,-0.08947z" fill="#44911b" stroke="none" stroke-width="0.5"/></g><path d="M269.04314,181.10737v0c-0.76868,-0.74267 -0.37144,-1.63321 1.02479,-3.50488l0.56646,-0.76734c0.61258,-0.8354 1.12076,-1.71243 1.57128,-2.48688c0.57701,-0.99572 1.2208,-1.92435 1.76502,-2.37842c0.19597,-0.16373 0.42319,-0.22831 0.58224,-0.18779c0.03639,-0.00582 0.12805,0.06529 0.17121,0.12427c0.52144,0.71495 0.09536,4.82322 -0.54683,6.08594c-0.94033,1.84903 -2.79129,3.24395 -3.95051,3.4382c-0.4741,0.07927 -0.88289,-0.03226 -1.18366,-0.3231z" data-paper-data="{&quot;index&quot;:null}" fill="#ffc93e" stroke="#603813" stroke-width="0.65" stroke-linecap="butt" stroke-linejoin="miter"/></g></g></svg>