<svg version="1.1" xmlns="http://www.w3.org/2000/svg" xmlns:xlink="http://www.w3.org/1999/xlink" width="99.20614" height="119.40827" viewBox="0,0,99.20614,119.40827"><g transform="translate(-190.39693,-120.29588)"><g data-paper-data="{&quot;isPaintingLayer&quot;:true}" stroke-miterlimit="10" stroke-dasharray="" stroke-dashoffset="0" style="mix-blend-mode: normal"><path d="M289.60307,129.31305v101.37565c0,4.97152 -4.04218,9.01545 -9.01718,9.01545h-81.17351c-4.96979,0 -9.01545,-4.04392 -9.01545,-9.01544v-101.37738c0,-4.97152 4.04566,-9.01545 9.01545,-9.01545h81.17351c4.975,0 9.01718,4.04566 9.01718,9.01719z" fill-opacity="0.74902" fill="#d2d3d4" fill-rule="nonzero" stroke="none" stroke-width="1" stroke-linecap="butt" stroke-linejoin="miter"/><path d="M287.06513,163.26163v65.07452c0,4.97152 -4.04219,9.01545 -9.01719,9.01545l-76.09761,0.25093c-4.96979,0 -9.01545,-4.04392 -9.01545,-9.01545v-65.07627z" fill-opacity="0.85882" fill="#ffffff" fill-rule="nonzero" stroke="none" stroke-width="1" stroke-linecap="butt" stroke-linejoin="miter"/><text transform="translate(197.4876,200.16945) scale(0.28036,0.28036)" font-size="40" xml:space="preserve" fill="#000000" fill-rule="nonzero" stroke="#000000" stroke-width="1" stroke-linecap="butt" stroke-linejoin="miter" stroke-miterlimit="10" stroke-dasharray="" stroke-dashoffset="0" font-family="&quot;ヒラギノ角ゴ Pro W3&quot;, &quot;Hiragino Kaku Gothic Pro&quot;, Osaka, &quot;メイリオ&quot;, Meiryo, &quot;ＭＳ Ｐゴシック&quot;, &quot;MS PGothic&quot;" font-weight="normal" text-anchor="start" style="mix-blend-mode: normal"><tspan x="0" dy="0">博物館</tspan></text><g fill-rule="nonzero" stroke="none" stroke-linecap="butt" stroke-linejoin="miter"><g fill="#45b5e6" stroke-width="0"><path d="M208.75315,213.93832l-6.05509,-6.05509l0.90827,-0.90827l6.05509,6.05509z"/><path d="M207.66481,204.70311c0.3036,0.3036 0.30354,0.79598 0,1.09952l-6.13918,6.13917c-0.3036,0.3036 -0.79592,0.30347 -1.09945,-0.00006l-2.54359,-2.54359c-0.3036,-0.3036 -0.3036,-0.79579 0,-1.0994l6.13911,-6.13911c0.30374,-0.30374 0.79586,-0.30366 1.09946,-0.00006l2.54358,2.54358z"/></g><text transform="translate(209.44316,210.32878) scale(0.19587,0.20747)" font-size="40" xml:space="preserve" fill="#585858" fill-rule="nonzero" stroke="none" stroke-width="1" stroke-linecap="butt" stroke-linejoin="miter" stroke-miterlimit="10" stroke-dasharray="" stroke-dashoffset="0" font-family="Sans Serif" font-weight="normal" text-anchor="start" style="mix-blend-mode: normal"><tspan x="0" dy="0">240,000G</tspan></text></g><g stroke-width="1"><g data-paper-data="{&quot;index&quot;:null}"><path d="M204.68463,214.69793c0.0443,-0.02953 0.11815,-0.01477 0.13292,0.04431l0.38401,1.58035c0,0 0.94524,0.69416 1.22588,1.18158c0.47263,0.81232 0.48739,1.47697 0.48739,1.47697c0,0 1.04864,0.31017 1.22589,1.15203c0.17723,0.84187 -0.47263,2.43699 -3.24931,2.98347c-2.7767,0.54647 -5.00691,-0.20678 -6.05557,-1.89052c-1.04864,-1.68374 0.60554,-3.69241 0.51693,-3.57425l-0.31017,-2.64377c-0.01477,-0.05909 0.05908,-0.10339 0.11814,-0.07385l1.78713,1.16681c0,0 0.66464,-0.25109 1.35881,-0.28063c0.41356,-0.02953 0.76802,0 1.10772,0.05909z" fill="#45b5e6" fill-rule="evenodd" stroke="#45b5e6" stroke-linecap="butt" stroke-linejoin="miter"/><path d="M209.58817,219.20268c-0.69417,0.56124 -1.7576,0.57601 -1.7576,0.57601" fill="#45b5e6" fill-rule="evenodd" stroke="#45b5e6" stroke-linecap="round" stroke-linejoin="round"/><path d="M209.39615,220.85687c-0.93048,0.07385 -1.50651,-0.20676 -1.50651,-0.20676" fill="#45b5e6" fill-rule="evenodd" stroke="#45b5e6" stroke-linecap="round" stroke-linejoin="round"/><path d="M197.72814,219.15836c0,0 1.27017,0.41356 1.78711,0.87141" fill="#45b5e6" fill-rule="evenodd" stroke="#45b5e6" stroke-linecap="round" stroke-linejoin="round"/><path d="M199.55957,220.54671c-0.6351,0.25108 -1.72804,0.08862 -1.72804,0.08862" fill="#45b5e6" fill-rule="evenodd" stroke="#45b5e6" stroke-linecap="round" stroke-linejoin="round"/><g fill="none" fill-rule="nonzero" stroke="none" stroke-linecap="butt" stroke-linejoin="miter" font-family="sans-serif" font-weight="normal" font-size="12" text-anchor="start"/><g fill="none" fill-rule="nonzero" stroke="none" stroke-linecap="butt" stroke-linejoin="miter" font-family="sans-serif" font-weight="normal" font-size="12" text-anchor="start"/></g><text transform="translate(209.44316,222.38156) scale(0.19588,0.20747)" font-size="40" xml:space="preserve" fill="#585858" fill-rule="nonzero" stroke="none" stroke-width="1" stroke-linecap="butt" stroke-linejoin="miter" stroke-miterlimit="10" stroke-dasharray="" stroke-dashoffset="0" font-family="Sans Serif" font-weight="normal" text-anchor="start" style="mix-blend-mode: normal"><tspan x="0" dy="0">1,400G</tspan></text></g><g fill-rule="nonzero" stroke="none" stroke-linecap="butt" stroke-linejoin="miter"><g fill="#45b5e6" stroke-width="0"><path d="M241.85852,206.60629l5.64578,-1.34827l3.23916,3.23917l-1.34825,5.64577l-3.23077,-3.23077l-0.02081,-1.06159h-1.04078z"/><path d="M254.06963,202.84012l-4.99544,4.99545l-0.90828,-0.90827l4.99544,-4.99545z"/></g><text transform="translate(252.97427,210.4311) scale(0.19589,0.20748)" font-size="40" xml:space="preserve" fill="#585858" fill-rule="nonzero" stroke="none" stroke-width="1" stroke-linecap="butt" stroke-linejoin="miter" stroke-miterlimit="10" stroke-dasharray="" stroke-dashoffset="0" font-family="Sans Serif" font-weight="normal" text-anchor="start" style="mix-blend-mode: normal"><tspan x="0" dy="0">1,800G</tspan></text></g><path d="M286.08836,126.38077v59.3949c0,0.9386 -0.76314,1.70207 -1.7024,1.70207h-88.77223c-0.93827,0 -1.70207,-0.76347 -1.70207,-1.70207v-59.39522c0,-0.9386 0.7638,-1.70208 1.70207,-1.70208h88.77223c0.93926,0 1.7024,0.7638 1.7024,1.7024z" fill="none" fill-rule="nonzero" stroke="#666666" stroke-width="2" stroke-linecap="butt" stroke-linejoin="miter"/><g fill-rule="nonzero" stroke="none" stroke-linecap="butt" stroke-linejoin="miter"><text transform="translate(252.9769,234.29901) scale(0.19588,0.20747)" font-size="40" xml:space="preserve" fill="#585858" fill-rule="nonzero" stroke="none" stroke-width="1" stroke-linecap="butt" stroke-linejoin="miter" stroke-miterlimit="10" stroke-dasharray="" stroke-dashoffset="0" font-family="Sans Serif" font-weight="normal" text-anchor="start" style="mix-blend-mode: normal"><tspan x="0" dy="0">-14</tspan></text><path d="M244.4761,236.41881l1.7486,-4.14478l-2.20732,-0.69125l5.87862,-5.12252l-1.71443,4.10799l2.18486,0.71764z" fill="#e6c245" stroke-width="0"/></g><g fill-rule="nonzero" stroke-linejoin="miter"><path d="M194.89041,186.32393v-60.49176h90.21921v60.49176z" fill="#864500" stroke="#666666" stroke-width="2" stroke-linecap="butt"/><path d="M223.83936,179.38682l2.68197,-21.38707" fill="none" stroke="#808080" stroke-width="0.5" stroke-linecap="round"/><path d="M250.8067,166.87667c0.381,1.30749 2.01727,3.75745 1.15637,5.07285c-4.18055,6.38769 -8.17935,-8.86286 -7.98163,-11.21612c-0.27256,-0.58613 -0.31907,-1.27698 -0.07468,-1.93024c0.48379,-1.29317 1.92431,-1.94932 3.21748,-1.46553c0.60124,0.22493 1.06476,0.65665 1.34006,1.18423c1.44669,1.68841 1.56244,5.6782 2.3424,8.35482z" fill="#998c7f" stroke="none" stroke-width="0.5" stroke-linecap="butt"/><path d="M254.47287,176.31142c-0.05746,1.1411 -0.91552,2.7203 -2.35342,1.82362c-0.3173,-0.19787 -0.72247,-0.73144 -1.12816,-1.43542c-0.58271,1.33413 -1.59419,2.17914 -3.05705,1.63187c-1.0593,-0.3963 -1.09259,-1.79155 -0.74613,-3.28019c-0.99585,0.36717 -1.83734,0.55266 -2.06082,0.37204c-2.22252,-1.79631 3.40278,-6.52544 4.76613,-5.54339c0.11211,0.01186 0.22447,0.03479 0.33571,0.06941c0.4339,-0.24364 0.96824,-0.30158 1.47081,-0.11357c0.78718,0.29449 1.23715,1.09541 1.11843,1.89455c0.81679,1.60047 1.69881,3.70104 1.6545,4.58109z" fill="#998c7f" stroke="none" stroke-width="0.5" stroke-linecap="butt"/><path d="M242.01193,158.43535c-0.29551,-0.1582 -0.65218,-0.22767 -1.02742,-0.26478c0.59256,0.64121 1.16007,1.2902 1.74251,1.82179l0.1006,0.04565c0.06425,0.18269 0.12139,0.35755 0.17093,0.52486c0.37669,0.71284 0.40223,1.59447 -0.00938,2.35731c-0.65564,1.21511 -2.17219,1.66865 -3.3873,1.01301c-0.25897,0.01694 -2.58032,-1.942 -4.21804,-3.37226c-0.25888,0.9174 -1.07471,1.52756 -2.85237,1.1134c-1.52194,-0.35458 -2.2821,-2.13757 -3.72726,-2.69592c-0.63056,-0.24362 -2.10056,0.65764 -2.68192,0.10392c-2.57394,-2.45157 -0.18245,-5.67369 2.95669,-5.21565c1.97722,0.2885 3.13599,1.72197 4.64011,2.73663c0.65559,-0.99251 2.16305,-1.45356 3.58712,-1.0902c0.23389,0.05968 0.45974,0.13869 0.6785,0.23404c0.3919,-3.61694 10.00872,-2.45978 10.08463,0.65801l0.14027,0.19969c0.42606,0.5803 0.58686,1.32717 0.42262,2.04077c-0.03671,0.39174 -0.17763,0.68043 -0.3964,0.8849c-0.71924,1.01896 -2.10284,1.36288 -3.22799,0.75578c-0.42739,-0.23061 -0.76057,-0.56772 -0.9844,-0.96077c-0.77739,-0.28278 -1.49751,-0.61501 -2.0115,-0.89016z" fill="#918478" stroke="none" stroke-width="0.5" stroke-linecap="butt"/><path d="M223.54171,154.0475c1.34535,-0.54069 2.62332,-0.47119 3.86587,-0.06754c2.86258,0.92993 5.53709,3.63335 8.41396,4.73478c2.93627,1.12418 7.12127,-3.32328 10.10736,-3.37555c6.27621,-0.10985 7.30439,3.82783 12.41786,6.13918c2.39625,1.08313 4.12698,-1.4227 6.53489,-1.15275c1.71024,0.19173 2.50907,2.42755 1.85415,3.96266c-0.39715,0.93091 -2.01973,1.117 -2.77896,1.33972c-2.94233,0.86315 -5.09663,1.6807 -8.16433,0.29406c-2.85606,-1.29098 -4.32487,-5.45489 -7.8304,-5.51531c-5.20677,-0.08974 -8.88877,4.55214 -14.39719,2.82494c-2.74164,-0.85966 -5.74809,-3.14537 -8.14762,-4.6067c-0.41951,-0.25548 -2.35872,-1.38854 -2.2473,-2.124z" fill="#b8a899" stroke="none" stroke-width="0.5" stroke-linecap="butt"/><path d="M240.11826,150.94776c-0.42805,1.54201 -3.37365,1.09515 -5.86671,0.38136c0.81597,2.03705 1.53191,3.8581 1.6038,4.14522c0.04313,0.17224 0.0925,0.53291 0.09432,0.9316c0.01081,0.13738 0.00547,0.27663 -0.01683,0.41482c-0.05736,0.63375 -0.27439,1.23536 -0.85413,1.23732c-0.5192,0.29856 -1.17829,0.32267 -1.73703,0.00589c-0.46713,-0.26483 -0.76583,-0.7122 -0.85733,-1.20171c-1.82523,-2.87422 -3.01208,-6.87069 -3.68571,-10.02639c-0.11792,-0.55241 -0.03798,-1.003 0.16857,-1.34307c0.02697,-0.22306 0.09762,-0.44459 0.21535,-0.65226c0.17613,-0.31067 0.43299,-0.54683 0.72928,-0.6971c1.02562,-3.85476 4.36808,-9.33381 6.0973,-8.35345c1.14706,0.65031 0.0547,3.58013 -1.26135,6.24576c1.37018,-0.59029 2.63305,-0.75446 3.17424,0.15685c0.01193,0.02009 -0.06323,1.6944 -0.09186,1.76122c-0.51779,1.20873 -2.69685,2.67886 -4.47585,3.41082c3.19413,0.22054 7.34906,1.47528 6.76394,3.58313z" fill="#aea79f" stroke="none" stroke-width="0.5" stroke-linecap="butt"/><path d="M241.53598,154.11416c-0.67843,1.19665 -3.92719,-0.38882 -6.19944,-1.89935c0.07986,1.26449 0.81469,3.451 0.54778,4.53427c0.12396,0.43517 0.08013,0.91788 -0.16066,1.3426c-0.35736,0.63035 -1.04711,0.95402 -1.72429,0.87568c-0.07256,0.00077 -0.14585,-0.00744 -0.22001,-0.02636c-0.04202,-0.01072 -0.08372,-0.02739 -0.12507,-0.04973c-0.10774,-0.03557 -0.21361,-0.08221 -0.31608,-0.14031c-0.72099,-0.40876 -1.04076,-1.25234 -0.81667,-2.0146c-0.73999,-2.52184 -1.17206,-6.55625 -1.02072,-8.6316c-0.03403,-0.29981 0.00897,-0.6107 0.13757,-0.90161c0.00372,-0.01284 0.0075,-0.02543 0.01135,-0.03775c0.2023,-0.64714 0.62637,-0.91077 1.10667,-0.93941c1.57953,-1.66282 5.05014,-2.76843 6.79801,-3.92998c0.69753,-0.46355 2.91581,-2.39352 3.8274,-1.40005c1.26833,1.38225 -0.9633,3.78592 -3.60198,5.69002c0.95216,0.09542 1.74674,0.25334 2.10411,0.4731c1.62558,0.99957 1.70333,3.18052 -0.34426,3.4994c-0.53157,0.08279 -1.15073,0.10824 -1.80889,0.09626c1.34924,1.32755 2.19955,2.76379 1.80517,3.45942z" fill="#a49d97" stroke="none" stroke-width="0.5" stroke-linecap="butt"/><path d="M195.90992,185.40644v-3.6523h88.18031v3.6523z" fill="#c0c0c0" stroke="none" stroke-width="0" stroke-linecap="butt"/><path d="M195.9099,185.40644v-3.6523h88.18031v3.6523z" fill="#c0c0c0" stroke="none" stroke-width="0" stroke-linecap="butt"/><path d="M218.17084,181.84875v-4.23036h43.65834v4.23036z" fill="#808080" stroke="none" stroke-width="0" stroke-linecap="butt"/><path d="M203.88951,144.43936c-0.82191,-1.44528 2.26209,-2.86945 3.19029,-2.80351c2.45759,0.1746 4.15583,3.30434 6.35233,3.39997c2.32126,0.10106 4.6601,-0.83058 6.9478,-0.4401c3.73693,0.63783 9.46919,3.58247 8.21955,8.01935c-0.7557,2.68312 -6.553,7.3759 -9.1851,4.30664c-1.05751,-1.23316 0.99271,-3.96646 0.77821,-4.21002c-0.43616,-0.49526 -4.37805,0.69011 -5.26111,0.64606c-5.80996,-0.28983 -8.9637,-1.60295 -10.46312,-6.1402c-0.32342,-0.4557 -0.49678,-1.02206 -0.45409,-1.62296c0.00134,-0.01882 0.00288,-0.03758 0.00463,-0.05626c-0.0541,-0.25253 -0.10471,-0.51297 -0.15194,-0.78151z" fill="#dccfc2" stroke="none" stroke-width="0.5" stroke-linecap="butt"/><path d="M255.74244,166.52684c0.86853,1.04897 3.34261,2.64854 3.07434,4.19755c-1.30273,7.52213 -11.02465,-4.88972 -11.77693,-7.12824c-0.48277,-0.42986 -0.79958,-1.04555 -0.83446,-1.74214c-0.06906,-1.37898 0.99284,-2.55285 2.37182,-2.62192c0.64112,-0.03211 1.23792,0.18024 1.69995,0.55527c1.99788,0.97575 3.68728,4.59208 5.46528,6.73947z" fill="#cab8a8" stroke="none" stroke-width="0.5" stroke-linecap="butt"/><path d="M262.85134,173.73232c0.40005,1.07022 0.23905,2.86026 -1.43661,2.60774c-0.36976,-0.05572 -0.95339,-0.38471 -1.60511,-0.86993c-0.00549,1.45582 -0.59864,2.63281 -2.15857,2.71094c-1.12959,0.05657 -1.71378,-1.21094 -1.98645,-2.71484c-0.7684,0.73217 -1.46721,1.23634 -1.74402,1.15923c-2.75284,-0.76695 0.53414,-7.33996 2.17524,-6.9795c0.10761,-0.0336 0.21985,-0.05714 0.3357,-0.0695c0.3016,-0.39581 0.76909,-0.66102 1.305,-0.68786c0.83941,-0.04204 1.57025,0.51458 1.77837,1.29522c1.3848,1.14498 3.02792,2.72312 3.33645,3.5485z" fill="#cab8a8" stroke="none" stroke-width="0.5" stroke-linecap="butt"/><path d="M230.79508,156.60452c0.07094,0.04716 0.14554,0.11061 0.22317,0.18888c0.33269,0.27648 0.5767,0.6238 0.72614,1.0036c1.72976,2.92126 3.89822,9.82612 1.88494,10.34662c-3.19805,0.8268 -5.15784,-3.62222 -5.67845,-6.35108c-0.12889,-0.67561 -1.49765,-2.50496 -1.02831,-3.22443c0.02692,-0.46576 0.18435,-0.92935 0.48111,-1.33336c0.72681,-0.98952 2.04453,-1.28851 3.11,-0.76792c0.09663,0.03213 0.19057,0.0773 0.28141,0.13769z" fill="#c8b6a6" stroke="none" stroke-width="0.5" stroke-linecap="butt"/><path d="M239.70049,160.00853c0.06163,0.07878 0.12485,0.18313 0.18866,0.30977c0.11136,0.19176 0.19583,0.39633 0.25252,0.60774c0.88245,2.48999 1.62416,8.4262 -0.44314,8.94501c-0.81456,0.20442 -1.71751,0.14299 -2.51684,-0.11461c-0.7004,-0.22572 -1.61207,-4.84848 -1.83753,-7.42535c-0.14257,-0.45073 -0.15654,-0.93799 -0.03271,-1.40172c0.07809,-0.29244 0.21097,-0.57551 0.40096,-0.83418c0.81735,-1.11279 2.38205,-1.3523 3.49483,-0.53495c0.00202,0.00148 0.00402,0.00297 0.00603,0.00446c0.16695,0.09732 0.32858,0.24113 0.48721,0.44385z" fill="#c8b6a6" stroke="none" stroke-width="0.5" stroke-linecap="butt"/><path d="M245.32063,156.52512c2.32341,1.99342 2.78972,11.3787 -0.10473,12.95461c-4.45418,2.42513 -2.88981,-6.4679 -3.43366,-8.17749c-0.08204,-0.25789 -0.36417,-1.36203 -0.51013,-2.22967c-0.04994,-0.19411 -0.07653,-0.39374 -0.07909,-0.59434c-0.00669,-0.5242 0.15082,-1.05485 0.48507,-1.50992c0.7896,-1.07502 2.27666,-1.33502 3.37999,-0.61453c0.09171,0.04358 0.17945,0.10003 0.26254,0.17133z" fill="#c8b6a6" stroke="none" stroke-width="0.5" stroke-linecap="butt"/><path d="M207.65143,182.03243v-13.33915" fill="none" stroke="#808080" stroke-width="3" stroke-linecap="round"/><path d="M219.29547,159.96619l-4.2016,7.41459h-14.13715" fill="none" stroke="#808080" stroke-width="4" stroke-linecap="round"/><path d="M199.19442,166.68875l4.74534,-8.77607h15.30628l-4.74534,8.77607z" fill="#d2d2d2" stroke="none" stroke-width="0" stroke-linecap="butt"/><path d="M212.42462,159.76847h4.54761" fill="none" stroke="#555555" stroke-width="1.5" stroke-linecap="round"/><path d="M210.75594,161.75605h4.64647" fill="none" stroke="#555555" stroke-width="1.5" stroke-linecap="round"/><path d="M213.78555,163.67349h-10.87473" fill="none" stroke="#555555" stroke-width="1.5" stroke-linecap="round"/><path d="M211.76766,165.55583h-9.88612" fill="none" stroke="#555555" stroke-width="1.5" stroke-linecap="round"/><path d="M203.74655,162.22949l1.60629,-2.97069h5.18117l-1.60629,2.97069z" fill="#b6e3d7" stroke="#909090" stroke-width="0.5" stroke-linecap="butt"/></g><g fill-rule="nonzero" stroke="none" stroke-linecap="butt"><path d="M247.62692,215.93531c0.41438,-0.94222 1.30869,-1.59712 2.34778,-1.59712c1.4325,0 2.5951,1.24099 2.5951,2.77006c0,3.0114 -4.94287,7.00154 -4.94287,7.00154c0,0 -4.94286,-3.89088 -4.94286,-7.00154c0,-1.52908 1.1626,-2.77006 2.5951,-2.77006c1.03907,0 1.9334,0.65487 2.34776,1.59712z" fill="#45b5e6" stroke-width="0" stroke-linejoin="round"/><text transform="translate(252.83348,222.41856) scale(0.19589,0.20748)" font-size="40" xml:space="preserve" fill="#585858" fill-rule="nonzero" stroke="none" stroke-width="1" stroke-linecap="butt" stroke-linejoin="miter" stroke-miterlimit="10" stroke-dasharray="" stroke-dashoffset="0" font-family="Sans Serif" font-weight="normal" text-anchor="start" style="mix-blend-mode: normal"><tspan x="0" dy="0">15%</tspan></text></g></g></g></svg>