<svg version="1.1" xmlns="http://www.w3.org/2000/svg" xmlns:xlink="http://www.w3.org/1999/xlink" width="26.20837" height="33.97842" viewBox="0,0,26.20837,33.97842"><defs><radialGradient cx="230.46202" cy="182.77164" r="2.18419" gradientUnits="userSpaceOnUse" id="color-1"><stop offset="0" stop-color="#ff6666"/><stop offset="1" stop-color="#ff6666" stop-opacity="0"/></radialGradient><radialGradient cx="244.51434" cy="181.80081" r="2.25038" gradientUnits="userSpaceOnUse" id="color-2"><stop offset="0" stop-color="#ff6666"/><stop offset="1" stop-color="#ff6666" stop-opacity="0"/></radialGradient></defs><g transform="translate(-222.24499,-155.37224)"><g data-paper-data="{&quot;isPaintingLayer&quot;:true}" fill-rule="nonzero" stroke-miterlimit="10" stroke-dasharray="" stroke-dashoffset="0" style="mix-blend-mode: normal"><g><path d="M230.88557,165.841c1.32593,-0.72058 -0.0425,-3.43364 -1.36644,-6.0581c-0.72363,-1.43497 -2.01407,-3.85855 -1.59466,-4.08567c0.81132,-0.43969 4.68727,4.13434 6.25859,5.97791l1.6017,1.82444c0,0 1.14506,1.40475 2.02134,2.3313c0.01544,0.01607 0.84393,-0.11257 1.41625,-0.58819c0.46656,-0.38923 0.40486,-0.82474 0.55336,-1.74069c0.13634,-0.84151 0.2844,-2.36435 0.73598,-2.37205c0.68023,-0.01035 1.12743,2.79345 1.30166,3.83209l0.09626,0.55558c0.22845,1.23535 1.4202,4.94962 1.4713,5.10712c0.0163,0.03832 0.0432,0.08812 0.0432,0.08812l0.0099,0.02006l0.01365,0.01673c1.84031,2.2824 3.20893,5.04984 3.20893,7.64262c0,5.49043 -4.81283,9.35536 -11.2549,9.35536c-1.19484,0 -2.36344,-0.16742 -3.47348,-0.49655l-0.0597,-0.01717l-5.28532,-0.26985c-0.0326,-0.026 -3.64797,-2.66039 -4.01319,-6.43546c-0.31833,-3.29062 1.34396,-5.16416 2.03369,-6.19381l0.39629,-0.65998c0.50026,-1.21709 -0.44126,-2.90977 -1.27217,-4.40331c-0.49608,-0.89171 -1.29684,-2.19293 -1.11598,-2.49872c0.20069,-0.33879 0.91794,0.02181 1.64224,0.36724c0.58729,0.28065 1.15234,0.67715 1.54464,0.41566c0.40798,-0.27162 0.14032,-0.95383 -0.2304,-1.89821c-0.34871,-0.88687 -1.00893,-2.28788 -0.75538,-2.86614c0.06983,-0.15905 0.19232,-0.27075 0.37448,-0.34144c0.67366,-0.26082 1.63673,0.87389 2.41634,1.76141c0.95098,1.0836 2.0295,2.31148 3.28182,1.62969v0z" fill="#ffc93e" stroke="#603813" stroke-width="0.65" stroke-linecap="round" stroke-linejoin="round"/><g stroke="none" stroke-width="0.65" stroke-linecap="butt" stroke-linejoin="miter"><path d="M231.99736,178.79429v0c0,-0.99083 0.80316,-1.79445 1.79426,-1.79488c0.99063,0 1.79378,0.80405 1.79378,1.79488c0,0.99019 -0.80295,1.79315 -1.79378,1.79315c-0.99086,0 -1.79426,-0.80295 -1.79426,-1.79315z" fill="#ffffff"/><path d="M234.03304,177.48313c0.34826,0 0.66393,0.14145 0.89238,0.3701c0.22865,0.22845 0.37007,0.5441 0.37007,0.89237c0,0.34828 -0.14142,0.66397 -0.37007,0.89238c-0.22845,0.22867 -0.54413,0.3701 -0.89238,0.3701c-0.34828,0 -0.66396,-0.14143 -0.89238,-0.3701c-0.22867,-0.22842 -0.37009,-0.5441 -0.37009,-0.89238c0,-0.34828 0.14142,-0.66392 0.37009,-0.89237c0.22842,-0.22865 0.5441,-0.3701 0.89238,-0.3701z" fill="#603813"/></g><g stroke="none" stroke-width="0.65" stroke-linecap="butt" stroke-linejoin="miter"><path d="M240.63964,178.79429v0c0,-0.99083 0.80316,-1.79445 1.79445,-1.79488c0.99063,0 1.79382,0.80405 1.79382,1.79488c0,0.99019 -0.80362,1.79315 -1.79382,1.79315c-0.99129,0 -1.79445,-0.80295 -1.79445,-1.79315z" fill="#ffffff"/><path d="M241.41264,178.74561v0c0,-0.697 0.56481,-1.26247 1.26224,-1.26247c0.69697,0 1.26243,0.5657 1.26243,1.26247c0,0.69767 -0.56547,1.26201 -1.26243,1.26201c-0.69744,0 -1.26224,-0.56481 -1.26224,-1.26201z" fill="#603813"/></g><path d="M239.78054,184.44048c0,0 -1.63301,0.0013 -2.77652,-0.97874" fill="none" stroke="#603813" stroke-width="0.65" stroke-linecap="round" stroke-linejoin="round"/><path d="M228.27783,182.77164c0,-1.20629 0.9779,-2.18419 2.18419,-2.18419c1.20629,0 2.18419,0.9779 2.18419,2.18419c0,1.20629 -0.9779,2.18419 -2.18419,2.18419c-1.20629,0 -2.18419,-0.9779 -2.18419,-2.18419z" fill="url(#color-1)" stroke="none" stroke-width="NaN" stroke-linecap="butt" stroke-linejoin="miter"/><path d="M242.26396,181.80081c0,-1.24285 1.00753,-2.25038 2.25038,-2.25038c1.24285,0 2.25038,1.00753 2.25038,2.25038c0,1.24285 -1.00753,2.25038 -2.25038,2.25038c-1.24285,0 -2.25038,-1.00753 -2.25038,-2.25038z" fill="url(#color-2)" stroke="none" stroke-width="0" stroke-linecap="butt" stroke-linejoin="miter"/></g><path d="M226.26718,186.96632c1.09306,-0.81895 2.22218,-1.62297 3.6859,-1.98818c2.98264,-0.74418 4.23179,-0.81194 7.08327,0.68665c0.81327,0.42741 1.53114,2.25926 2.21278,1.64327c0.94863,-0.85727 2.78499,-3.85441 4.51253,-6.15095c1.25302,-1.66573 2.56328,-2.92125 2.88296,-2.92539c0.43033,-0.00557 1.49729,1.28397 1.76405,2.67726c0.19077,0.99641 -0.2745,2.07807 -0.54158,2.62927c-0.74954,1.5469 -2.17894,3.09924 -3.66262,3.89283c-1.85058,0.98983 -6.22261,2.11711 -10.21627,1.89009c-4.37996,-0.24897 -8.29598,-1.92409 -7.72103,-2.35485z" fill="#666666" stroke="none" stroke-width="0.5" stroke-linecap="butt" stroke-linejoin="miter"/></g></g></svg>