<svg version="1.1" xmlns="http://www.w3.org/2000/svg" xmlns:xlink="http://www.w3.org/1999/xlink" width="92.21921" height="62.49176" viewBox="0,0,92.21921,62.49176"><defs><linearGradient x1="272.85689" y1="149.60986" x2="272.85689" y2="169.04319" gradientUnits="userSpaceOnUse" id="color-1"><stop offset="0" stop-color="#fbff00"/><stop offset="1" stop-color="#fbff00" stop-opacity="0"/></linearGradient><linearGradient x1="252.85688" y1="149.60986" x2="252.85688" y2="169.04319" gradientUnits="userSpaceOnUse" id="color-2"><stop offset="0" stop-color="#fbff00"/><stop offset="1" stop-color="#fbff00" stop-opacity="0"/></linearGradient></defs><g transform="translate(-193.8904,-148.75412)"><g data-paper-data="{&quot;isPaintingLayer&quot;:true}" stroke-miterlimit="10" stroke-dasharray="" stroke-dashoffset="0" style="mix-blend-mode: normal"><path d="M194.89041,210.24588v-60.49176h90.21921v60.49176z" fill="#5e9d66" fill-rule="nonzero" stroke="#666666" stroke-width="2" stroke-linecap="butt" stroke-linejoin="miter"/><g data-paper-data="{&quot;index&quot;:null}" fill-rule="evenodd" stroke-width="0.5"><g><path d="M202.23223,185.76681c1.02462,0.18081 2.98346,-0.96435 3.25469,-0.81367c0.24108,0.12054 0.75339,0.39177 0.03013,1.41639c-0.72326,1.02462 -2.80265,1.23558 -3.04373,1.23558c-0.93422,0.03013 -2.07938,0.03014 -3.3451,-0.39177c-3.67658,-1.20544 -3.70673,-5.15326 -2.53142,-5.78611c1.14517,-0.63286 1.65748,1.80816 3.31496,3.28482c0.72326,0.66299 1.59721,0.90409 2.32047,1.05477z" fill="#ffab19" stroke="#001026" stroke-linecap="round" stroke-linejoin="round"/><path d="M196.77762,181.48751c0.60272,-0.12054 0.75339,0.33149 1.23557,1.02462c0.48218,0.81367 1.41639,1.95884 1.41639,1.95884c0,0 -1.11503,-0.27124 -1.74788,0.24108c-0.51232,0.39177 -0.39177,1.05477 -0.3315,1.26572c-0.39177,-0.39177 -0.87394,-0.93421 -1.1753,-1.98898c-0.30136,-1.05477 0,-2.32047 0.60272,-2.50129z" fill="#ffffff" stroke="none" stroke-linecap="butt" stroke-linejoin="miter"/></g><path d="M210.21831,182.42173c0.03013,-0.84381 1.05476,-1.05476 1.56707,-0.60272c0.15068,0.12054 1.98897,2.29033 2.59169,1.74788c0.72326,-0.63286 1.71776,-1.86844 2.80265,-0.87394c1.08489,0.99449 -0.96435,2.68211 -1.8383,3.13414c-2.07939,0.93421 -3.76701,-0.84381 -4.12864,-1.32599c-0.36163,-0.48218 -0.99449,-1.29585 -0.99449,-2.07939z" fill="#ffab19" stroke="#001026" stroke-linecap="round" stroke-linejoin="round"/><g><path d="M211.81549,188.84069c0.63285,0.57258 2.0191,1.74789 2.0191,1.74789c0,0 2.13966,3.01361 -0.78354,2.74238c-0.18081,-0.03013 -0.36164,-0.09041 -0.51232,-0.21095c-0.66299,-0.57258 -2.56156,-2.2602 -3.767,-3.4355c-1.77803,-1.74789 -3.25469,-2.89306 -3.25469,-2.89306c-2.56156,-2.50129 -0.48218,-3.55606 0.3315,-5.00258c0.7534,-1.23557 1.0849,-0.99449 2.89306,-0.63286c1.02462,0.15068 1.62734,0.24109 2.29033,0.21096c0.99449,-0.03014 0.81368,1.41639 0.54245,2.16979c0,0 -0.4219,1.11504 -0.81367,1.68761c-0.48218,0.69313 -0.84381,1.14516 -1.20544,1.41639z" fill="#ffab19" stroke="#001026" stroke-linecap="round" stroke-linejoin="round"/><path d="M210.88128,184.62166c-0.66299,1.35612 -1.59721,1.98897 -1.59721,1.98897c0,0 -0.45204,-0.36164 -0.93422,-0.81367c-0.60272,-0.54245 -1.20544,-0.9945 -0.60272,-1.92871c0.54245,-0.72326 1.05476,-1.68762 2.41088,-0.81367c1.29585,0.81367 0.72326,1.56707 0.72326,1.56707z" fill="#ffffff" stroke="none" stroke-linecap="butt" stroke-linejoin="miter"/></g><path d="M204.73354,184.13947c0.66299,0.84381 1.68762,1.89857 0.39177,2.77252c-1.77803,0.99449 -3.2547,-2.01911 -3.55606,-3.07387c-0.27122,-0.93422 0.51232,-1.53693 1.17531,-2.04925c1.29585,-0.93421 2.38074,-1.77802 3.58619,-1.32599c1.5068,0.54244 0.42191,1.74789 -0.33149,2.29034c-0.45204,0.3315 -0.90408,0.69312 -1.23558,0.90408c-0.09041,0.15068 -0.12054,0.3315 -0.03013,0.48218z" fill="#ffab19" stroke="#001026" stroke-linecap="round" stroke-linejoin="round"/><g><path d="M214.22637,163.8278c0.09041,-0.06027 0.24109,-0.03014 0.27122,0.09041l0.78354,3.22455c0,0 1.92871,1.41639 2.50129,2.41088c0.96436,1.65748 0.99449,3.0136 0.99449,3.0136c0,0 2.13966,0.63287 2.50129,2.35061c0.36163,1.71775 -0.96435,4.97243 -6.62992,6.08747c-5.66557,1.11504 -10.21611,-0.42191 -12.35576,-3.8574c-2.13966,-3.4355 1.23558,-7.534 1.05477,-7.29291l-0.63286,-5.39434c-0.03013,-0.12054 0.12054,-0.21096 0.24109,-0.15069l3.64646,2.38075c0,0 1.35612,-0.51231 2.77252,-0.57259c0.84381,-0.06027 1.56707,0 2.2602,0.12054z" fill="#ffab19" stroke="#001026" stroke-linecap="butt" stroke-linejoin="miter"/><path d="M213.71405,174.16445c2.1698,-0.15068 2.41088,-2.04924 4.97245,-1.47666c0,0 2.07938,0.54245 2.44101,2.2602c0.36164,1.71776 -1.08488,4.82176 -6.69018,5.90666c-7.29291,1.5068 -10.75856,-2.83279 -8.73945,-6.0272c2.01911,-3.22455 5.48475,-0.48218 8.01618,-0.66299z" fill="#ffffff" stroke="none" stroke-linecap="butt" stroke-linejoin="miter"/><path d="M209.19366,175.91235c0,-0.12054 0.12053,-0.21096 0.24108,-0.18082c0.57258,0.21096 2.19994,0.69313 4.0081,0.81368c1.62734,0.09041 2.59169,0 3.04373,-0.09041c0.15069,-0.03013 0.27123,0.12054 0.21096,0.27122c-0.27122,0.81367 -1.41639,3.07387 -4.58067,2.89306c-2.74238,-0.30136 -3.0136,-2.23006 -2.92319,-3.70673z" fill="#ffffff" stroke="#001026" stroke-linecap="round" stroke-linejoin="round"/><path d="M224.23152,173.01928c-1.41639,1.14516 -3.58618,1.1753 -3.58618,1.1753" fill="none" stroke="#001026" stroke-linecap="round" stroke-linejoin="round"/><path d="M223.83976,176.39451c-1.89857,0.15069 -3.07387,-0.4219 -3.07387,-0.4219" fill="none" stroke="#001026" stroke-linecap="round" stroke-linejoin="round"/><path d="M213.59351,173.38092c0.63286,0 1.29586,0.06027 1.32599,0.27123c0.03013,0.42191 -0.4219,1.26571 -0.90408,1.29584c-0.54245,0.06027 -1.80817,-0.69312 -1.80817,-1.1753c-0.03014,-0.36164 0.78354,-0.39177 1.38626,-0.39177z" fill="#001026" stroke="#001026" stroke-linecap="round" stroke-linejoin="round"/><path d="M200.03231,172.92887c0,0 2.5917,0.84382 3.64647,1.77803" fill="none" stroke="#001026" stroke-linecap="round" stroke-linejoin="round"/><path d="M203.76919,175.76166c-1.29585,0.51232 -3.52591,0.18081 -3.52591,0.18081" fill="none" stroke="#001026" stroke-linecap="round" stroke-linejoin="round"/><g><path d="M217.14956,169.855c0.87394,1.35612 0.90408,2.89305 0.06027,3.4355c-0.84381,0.54245 -2.23007,-0.09041 -3.13415,-1.44653c-0.87394,-1.35612 -0.90407,-2.89305 -0.06026,-3.4355c0.84381,-0.57258 2.2602,0.0904 3.13414,1.44652z" fill="#ffffff" stroke="#001026" stroke-linecap="round" stroke-linejoin="round"/><path d="M217.02902,171.57276c0,0.33149 -0.24109,0.60272 -0.54245,0.60272c-0.30137,0 -0.54245,-0.27122 -0.54245,-0.60272c0,-0.3315 0.24109,-0.60272 0.54245,-0.60272c0.30137,0 0.54245,0.27122 0.54245,0.60272" fill="#001026" stroke="none" stroke-linecap="butt" stroke-linejoin="miter"/></g><g><path d="M206.42114,169.3427c0.93421,-0.69313 2.35061,0.03014 3.25469,1.35613c0.90408,1.32598 0.84381,2.95333 0.03014,3.52591c-0.99449,0.57258 -2.32047,0.15068 -3.22455,-1.17531c-0.93421,-1.32599 -0.99448,-3.04375 -0.06027,-3.70674z" fill="#ffffff" stroke="#001026" stroke-linecap="round" stroke-linejoin="round"/><path d="M209.49502,172.4467c0,0.33149 -0.2411,0.60272 -0.54245,0.60272c-0.30137,0 -0.54245,-0.27122 -0.54245,-0.60272c0,-0.33149 0.24109,-0.60271 0.54245,-0.60271c0.30137,0.03013 0.54245,0.27121 0.54245,0.60271" fill="#001026" stroke="none" stroke-linecap="butt" stroke-linejoin="miter"/></g></g></g><path d="M195.91001,209.32842v-3.6523h88.18031v3.6523z" fill="#c0c0c0" fill-rule="nonzero" stroke="none" stroke-width="0" stroke-linecap="butt" stroke-linejoin="miter"/><path d="M232.8955,205.67612v-21.58078h51.19482v21.58078z" fill="#c5a175" fill-rule="nonzero" stroke="none" stroke-width="0" stroke-linecap="butt" stroke-linejoin="miter"/><path d="M232.8955,205.67612v-16.72979h51.19482v16.72979z" fill="#a1845f" fill-rule="nonzero" stroke="none" stroke-width="0" stroke-linecap="butt" stroke-linejoin="miter"/><path d="M252.52896,188.28029v-4.41017h12.39976v4.41017z" fill="#9e8375" fill-rule="nonzero" stroke="#9d6d55" stroke-width="0.5" stroke-linecap="butt" stroke-linejoin="miter"/><path d="M253.29212,184.89919c0,-0.59882 0.48545,-1.08426 1.08427,-1.08426c0.59882,0 1.08426,0.48544 1.08426,1.08426c0,0.59882 -0.48544,1.08427 -1.08426,1.08427c-0.59882,0 -1.08427,-0.48545 -1.08427,-1.08427z" fill="#b15325" fill-rule="nonzero" stroke="none" stroke-width="0.5" stroke-linecap="butt" stroke-linejoin="miter"/><path d="M256.19389,184.89919c0,-0.59883 0.48543,-1.08426 1.08426,-1.08426c0.59882,0 1.08427,0.48544 1.08427,1.08426c0,0.59883 -0.48544,1.08426 -1.08427,1.08426c-0.59882,0 -1.08426,-0.48543 -1.08426,-1.08426z" fill="#b15325" fill-rule="nonzero" stroke="none" stroke-width="0.5" stroke-linecap="butt" stroke-linejoin="miter"/><path d="M259.09565,184.89919c0,-0.59883 0.48544,-1.08426 1.08426,-1.08426c0.59882,0 1.08426,0.48544 1.08426,1.08426c0,0.59883 -0.48544,1.08426 -1.08426,1.08426c-0.59882,0 -1.08426,-0.48543 -1.08426,-1.08426z" fill="#b15325" fill-rule="nonzero" stroke="none" stroke-width="0.5" stroke-linecap="butt" stroke-linejoin="miter"/><path d="M261.99743,184.89919c0,-0.59883 0.48544,-1.08426 1.08426,-1.08426c0.59882,0 1.08426,0.48544 1.08426,1.08426c0,0.59883 -0.48544,1.08426 -1.08426,1.08426c-0.59882,0 -1.08426,-0.48543 -1.08426,-1.08426z" fill="#b15325" fill-rule="nonzero" stroke="none" stroke-width="0.5" stroke-linecap="butt" stroke-linejoin="miter"/><path d="M253.29212,186.53729c0,-0.59883 0.48543,-1.08426 1.08426,-1.08426c0.59883,0 1.08426,0.48544 1.08426,1.08426c0,0.59883 -0.48544,1.08427 -1.08426,1.08427c-0.59883,0 -1.08426,-0.48544 -1.08426,-1.08427z" fill="#8f441e" fill-rule="nonzero" stroke="none" stroke-width="0.5" stroke-linecap="butt" stroke-linejoin="miter"/><path d="M256.19388,186.53728c0,-0.59883 0.48544,-1.08427 1.08427,-1.08427c0.59882,0 1.08427,0.48544 1.08427,1.08427c0,0.59883 -0.48544,1.08426 -1.08427,1.08426c-0.59882,0 -1.08427,-0.48543 -1.08427,-1.08426z" fill="#8f441e" fill-rule="nonzero" stroke="none" stroke-width="0.5" stroke-linecap="butt" stroke-linejoin="miter"/><path d="M259.09565,186.53728c0,-0.59883 0.48544,-1.08427 1.08426,-1.08427c0.59882,0 1.08427,0.48544 1.08427,1.08427c0,0.59883 -0.48544,1.08426 -1.08427,1.08426c-0.59882,0 -1.08426,-0.48543 -1.08426,-1.08426z" fill="#8f441e" fill-rule="nonzero" stroke="none" stroke-width="0.5" stroke-linecap="butt" stroke-linejoin="miter"/><path d="M261.99743,186.53728c0,-0.59883 0.48543,-1.08427 1.08426,-1.08427c0.59882,0 1.08427,0.48544 1.08427,1.08427c0,0.59883 -0.48544,1.08426 -1.08427,1.08426c-0.59882,0 -1.08426,-0.48543 -1.08426,-1.08426z" fill="#8f441e" fill-rule="nonzero" stroke="none" stroke-width="0.5" stroke-linecap="butt" stroke-linejoin="miter"/><path d="M269.83538,188.3079v-4.41018h12.39975v4.41018z" fill="#9e8375" fill-rule="nonzero" stroke="#9d6d55" stroke-width="0.5" stroke-linecap="butt" stroke-linejoin="miter"/><path d="M270.59856,184.92679c0,-0.59882 0.48544,-1.08427 1.08426,-1.08427c0.59882,0 1.08427,0.48545 1.08427,1.08427c0,0.59882 -0.48545,1.08426 -1.08427,1.08426c-0.59882,0 -1.08426,-0.48544 -1.08426,-1.08426z" fill="#b15325" fill-rule="nonzero" stroke="none" stroke-width="0.5" stroke-linecap="butt" stroke-linejoin="miter"/><path d="M273.50032,184.92679c0,-0.59883 0.48544,-1.08426 1.08427,-1.08426c0.59882,0 1.08427,0.48544 1.08427,1.08426c0,0.59883 -0.48544,1.08426 -1.08427,1.08426c-0.59882,0 -1.08427,-0.48543 -1.08427,-1.08426z" fill="#b15325" fill-rule="nonzero" stroke="none" stroke-width="0.5" stroke-linecap="butt" stroke-linejoin="miter"/><path d="M276.40209,184.92679c0,-0.59883 0.48544,-1.08426 1.08427,-1.08426c0.59882,0 1.08426,0.48544 1.08426,1.08426c0,0.59883 -0.48544,1.08426 -1.08426,1.08426c-0.59882,0 -1.08427,-0.48543 -1.08427,-1.08426z" fill="#b15325" fill-rule="nonzero" stroke="none" stroke-width="0.5" stroke-linecap="butt" stroke-linejoin="miter"/><path d="M279.30386,184.92679c0,-0.59883 0.48543,-1.08426 1.08426,-1.08426c0.59882,0 1.08427,0.48544 1.08427,1.08426c0,0.59883 -0.48544,1.08426 -1.08427,1.08426c-0.59882,0 -1.08426,-0.48543 -1.08426,-1.08426z" fill="#b15325" fill-rule="nonzero" stroke="none" stroke-width="0.5" stroke-linecap="butt" stroke-linejoin="miter"/><path d="M270.59856,186.56489c0,-0.59883 0.48543,-1.08426 1.08426,-1.08426c0.59882,0 1.08427,0.48543 1.08427,1.08426c0,0.59883 -0.48544,1.08426 -1.08427,1.08426c-0.59882,0 -1.08426,-0.48544 -1.08426,-1.08426z" fill="#8f441e" fill-rule="nonzero" stroke="none" stroke-width="0.5" stroke-linecap="butt" stroke-linejoin="miter"/><path d="M273.50032,186.56488c0,-0.59883 0.48544,-1.08426 1.08427,-1.08426c0.59882,0 1.08426,0.48544 1.08426,1.08426c0,0.59883 -0.48543,1.08427 -1.08426,1.08427c-0.59882,0 -1.08427,-0.48544 -1.08427,-1.08427z" fill="#8f441e" fill-rule="nonzero" stroke="none" stroke-width="0.5" stroke-linecap="butt" stroke-linejoin="miter"/><path d="M276.40209,186.56488c0,-0.59883 0.48544,-1.08426 1.08427,-1.08426c0.59882,0 1.08426,0.48544 1.08426,1.08426c0,0.59883 -0.48544,1.08427 -1.08426,1.08427c-0.59882,0 -1.08427,-0.48544 -1.08427,-1.08427z" fill="#8f441e" fill-rule="nonzero" stroke="none" stroke-width="0.5" stroke-linecap="butt" stroke-linejoin="miter"/><path d="M279.30386,186.56488c0,-0.59883 0.48544,-1.08426 1.08427,-1.08426c0.59882,0 1.08427,0.48544 1.08427,1.08426c0,0.59883 -0.48544,1.08427 -1.08427,1.08427c-0.59882,0 -1.08427,-0.48544 -1.08427,-1.08427z" fill="#8f441e" fill-rule="nonzero" stroke="none" stroke-width="0.5" stroke-linecap="butt" stroke-linejoin="miter"/><path d="M236.66826,188.3079v-4.41018h12.39976v4.41018z" fill="#9e8375" fill-rule="nonzero" stroke="#9d6d55" stroke-width="0.5" stroke-linecap="butt" stroke-linejoin="miter"/><path d="M237.43143,184.92679c0,-0.59882 0.48544,-1.08427 1.08426,-1.08427c0.59882,0 1.08426,0.48545 1.08426,1.08427c0,0.59882 -0.48544,1.08426 -1.08426,1.08426c-0.59882,0 -1.08426,-0.48544 -1.08426,-1.08426z" fill="#b15325" fill-rule="nonzero" stroke="none" stroke-width="0.5" stroke-linecap="butt" stroke-linejoin="miter"/><path d="M240.3332,184.92679c0,-0.59883 0.48543,-1.08426 1.08426,-1.08426c0.59883,0 1.08426,0.48544 1.08426,1.08426c0,0.59883 -0.48544,1.08426 -1.08426,1.08426c-0.59883,0 -1.08426,-0.48543 -1.08426,-1.08426z" fill="#b15325" fill-rule="nonzero" stroke="none" stroke-width="0.5" stroke-linecap="butt" stroke-linejoin="miter"/><path d="M243.23496,184.92679c0,-0.59883 0.48544,-1.08426 1.08427,-1.08426c0.59883,0 1.08426,0.48544 1.08426,1.08426c0,0.59883 -0.48544,1.08426 -1.08426,1.08426c-0.59883,0 -1.08427,-0.48543 -1.08427,-1.08426z" fill="#b15325" fill-rule="nonzero" stroke="none" stroke-width="0.5" stroke-linecap="butt" stroke-linejoin="miter"/><path d="M246.13674,184.92679c0,-0.59883 0.48544,-1.08426 1.08426,-1.08426c0.59883,0 1.08427,0.48544 1.08427,1.08426c0,0.59883 -0.48544,1.08426 -1.08427,1.08426c-0.59883,0 -1.08426,-0.48543 -1.08426,-1.08426z" fill="#b15325" fill-rule="nonzero" stroke="none" stroke-width="0.5" stroke-linecap="butt" stroke-linejoin="miter"/><path d="M237.43143,186.56489c0,-0.59883 0.48544,-1.08426 1.08426,-1.08426c0.59883,0 1.08426,0.48543 1.08426,1.08426c0,0.59883 -0.48544,1.08426 -1.08426,1.08426c-0.59883,0 -1.08426,-0.48544 -1.08426,-1.08426z" fill="#8f441e" fill-rule="nonzero" stroke="none" stroke-width="0.5" stroke-linecap="butt" stroke-linejoin="miter"/><path d="M240.33319,186.56488c0,-0.59883 0.48544,-1.08426 1.08426,-1.08426c0.59883,0 1.08427,0.48544 1.08427,1.08426c0,0.59883 -0.48544,1.08427 -1.08427,1.08427c-0.59883,0 -1.08426,-0.48544 -1.08426,-1.08427z" fill="#8f441e" fill-rule="nonzero" stroke="none" stroke-width="0.5" stroke-linecap="butt" stroke-linejoin="miter"/><path d="M243.23496,186.56488c0,-0.59883 0.48544,-1.08426 1.08427,-1.08426c0.59883,0 1.08426,0.48544 1.08426,1.08426c0,0.59883 -0.48544,1.08427 -1.08426,1.08427c-0.59883,0 -1.08427,-0.48544 -1.08427,-1.08427z" fill="#8f441e" fill-rule="nonzero" stroke="none" stroke-width="0.5" stroke-linecap="butt" stroke-linejoin="miter"/><path d="M246.13673,186.56488c0,-0.59883 0.48544,-1.08426 1.08427,-1.08426c0.59883,0 1.08426,0.48544 1.08426,1.08426c0,0.59883 -0.48543,1.08427 -1.08426,1.08427c-0.59883,0 -1.08427,-0.48544 -1.08427,-1.08427z" fill="#8f441e" fill-rule="nonzero" stroke="none" stroke-width="0.5" stroke-linecap="butt" stroke-linejoin="miter"/><path d="M195.91001,205.67612v-21.58078h21.9587v21.58078z" fill="#c5a175" fill-rule="nonzero" stroke="none" stroke-width="0" stroke-linecap="butt" stroke-linejoin="miter"/><path d="M195.91001,205.67612v-16.72979h21.9587v16.72979z" fill="#a1845f" fill-rule="nonzero" stroke="none" stroke-width="0" stroke-linecap="butt" stroke-linejoin="miter"/><path d="M194.89041,163.79767v-14.04354h39.78385v14.04354z" fill="#a48f63" fill-rule="nonzero" stroke="#666666" stroke-width="2" stroke-linecap="butt" stroke-linejoin="miter"/><path d="M229.47075,153.15909c0,0.75 -0.75,0.75 -0.75,0.75c-2.61574,0 -5.5787,0 -8.19444,0c-7.32582,0 -14.61651,-0.13889 -21.94444,-0.13889c0,0 -0.75,0 -0.75,-0.75c0,-0.75 0.75,-0.75 0.75,-0.75c7.32816,0 14.61852,0.13889 21.94445,0.13889c2.61574,0 5.23148,0 7.84722,0h0.34722c0,0 0.75,0 0.75,0.75z" fill="#282318" fill-rule="nonzero" stroke="none" stroke-width="0.5" stroke-linecap="butt" stroke-linejoin="miter"/><path d="M230.23464,156.56187c0,0.75 -0.75,0.75 -0.75,0.75h-0.69445c-6.70201,0 -13.3597,-0.625 -20.06945,-0.625c0,0 -0.75,0 -0.75,-0.75c0,-0.75 0.75,-0.75 0.75,-0.75c6.71003,0 13.36779,0.625 20.06945,0.625h0.69445c0,0 0.75,0 0.75,0.75z" fill="#282318" fill-rule="nonzero" stroke="none" stroke-width="0.5" stroke-linecap="butt" stroke-linejoin="miter"/><path d="M230.85964,160.24242c0,0.75 -0.75,0.75 -0.75,0.75h-0.69445c-6.6146,0 -13.57383,-1.47726 -20.1207,-0.69959c0,0 -0.74487,0.08764 -0.8325,-0.65723c-0.08763,-0.74487 0.65723,-0.83249 0.65723,-0.83249c6.61921,-0.77174 13.61296,0.68931 20.29596,0.68931h0.69445c0,0 0.75,0 0.75,0.75z" fill="#282318" fill-rule="nonzero" stroke="none" stroke-width="0.5" stroke-linecap="butt" stroke-linejoin="miter"/><path d="M197.73811,157.06983c0.25044,0 0.45788,0.18413 0.49432,0.4244l0.00473,0.00596l-0.00202,0.01484c0.00196,0.01799 0.00297,0.03628 0.00297,0.05479c0,0.06965 -0.01424,0.13598 -0.03997,0.19622l-0.00552,0.01381l0.02678,0.13391l0.06547,0.16369l0.11753,0.19589l0.24402,0.35493l0.0913,0.10651l0.3188,0.23379l0.00177,0.00213l0.00255,0.00107l0.2393,0.17948l0.21446,0.08578h0.33393l0.08461,-0.0282l0.36995,-0.23365l-0.10122,-0.1446l-0.01333,-0.03482l-0.02426,-0.02831l-0.05846,-0.11692l-0.00488,-0.00279l-0.00348,-0.01393l-0.00623,-0.01246l-0.02492,-0.11215l-0.02786,-0.11146v-0.01393l-0.00312,-0.01402l0.00312,-0.00467v-0.7953l0.00475,-0.01902l-0.00328,-0.01933l0.02288,-0.29741v-0.29736l0.01208,-0.04831l-0.00237,-0.04974l0.0487,-0.24351l0.0238,-0.05025l0.00958,-0.05477l0.0974,-0.21916l0.0563,-0.07207l0.04705,-0.07842l0.1461,-0.1461l0.08458,-0.05075l0.01897,-0.0332l0.06233,-0.01558l0.05509,-0.03305l0.03689,0.01006l0.0957,-0.02392h0.24351l0.04054,0.01014l0.04166,-0.00333l0.25139,0.0419h0.25083l0.02243,0.00561l0.02284,-0.00355l0.22918,0.02083l0.00413,-0.00231l0.0126,0.00384l0.02195,0.002l0.10529,0.03673l0.10669,0.03247l0.0189,0.01134l0.01244,0.00434l0.00197,0.0043l0.0494,0.02964l0.15217,0.05706l0.065,0.04483l0.07178,0.0329l0.12175,0.0974l0.04668,0.06127l0.057,0.05181l0.0487,0.07305l0.00677,0.01895l0.01471,0.0084l0.02732,0.10926l0.03788,0.10607l-0.00758,0.01515l0.00488,0.01952v0.07305l-0.01949,0.07798l-0.00616,0.08014l-0.02728,0.08184l0.00693,0.01387l-0.03788,0.10607l-0.02732,0.10926l-0.01471,0.0084l-0.00677,0.01895l-0.23474,0.35211l-0.25994,0.44898l-0.01125,0.01161l-0.00544,0.01522l-0.1461,0.21916l-0.00817,0.00743l-0.00416,0.01023l-0.45004,0.61584l0.31551,0.26877l0.15306,0.06802l0.02026,0.01582l0.02474,0.00696l0.30258,0.1729l0.25735,0.09191l0.20741,0.03457h0.40843l0.4995,-0.12488l0.17077,-0.0621l0.12063,-0.09279l-0.00727,-0.00818l-0.0149,-0.0285l-0.02405,-0.02134l-0.31656,-0.46266l-0.00668,-0.01802l-0.01338,-0.0138l-0.26786,-0.46266l-0.00432,-0.01503l-0.01018,-0.01188l-0.19481,-0.38961l-0.01449,-0.06519l-0.02859,-0.06036l-0.0487,-0.24351l0.00237,-0.04974l-0.01208,-0.04831v-0.63312l0.02297,-0.09187l0.01279,-0.09383l0.0487,-0.12175l0.04598,-0.06367l0.03414,-0.07073l0.09395,-0.11274l-0.00012,-0.01391l0.08217,-0.08017l0.07471,-0.08716l0.01551,-0.00086l0.01206,-0.01176l0.29221,-0.17045l0.03006,-0.00874l0.02492,-0.01894l0.28737,-0.12316l0.0005,-0.00087l0.00369,-0.00092l0.04935,-0.02115l0.09934,-0.01602l0.09762,-0.0244h0.05369l0.00376,-0.00061l0.0008,0.00061h0.0263l0.03769,-0.00942h0.06155l0.05971,-0.01493h0.12175l0.04831,0.01208l0.04974,-0.00237l0.12175,0.02435l0.02855,0.01353l0.0315,0.00242l0.21916,0.07305l0.07835,0.04986l0.08363,0.04037l0.1461,0.12175l0.01364,0.01866l0.01982,0.01189l0.07305,0.07305l0.05075,0.08458l0.0332,0.01897l0.01558,0.06233l0.03305,0.05509l-0.01006,0.03689l0.02392,0.0957v0.68182l-0.01949,0.07798l-0.00616,0.08014l-0.02304,0.06913v0.13802l-0.00873,0.03491l0.0037,0.0358l-0.02435,0.17045l-0.03033,0.07443l-0.01744,0.07846l-0.00882,0.01764l-0.01326,0.11936l0.00314,0.00681l-0.04826,0.1225l-0.04584,0.12343l-0.00688,0.00298l-0.04793,0.0671l-0.00532,0.0319l-0.01756,0.04038l-0.00415,0.04383l-0.14464,0.40983l-0.09163,0.27488l-0.02343,0.08592l0.0485,0.09699l0.11309,0.16156l0.09955,0.08533l0.12098,0.08065l0.02062,0.02269l0.02742,0.01371l0.0758,0.06497l0.08395,0.03977l0.09768,0.03848l0.03238,0.02313l0.00795,0.00377l0.00084,0.00251l0.07579,0.05414l0.12458,0.04672l0.1334,0.04447h0.61285l0.25568,-0.1461l0.4375,0.25l0.0625,0.25v0.1461l-0.0625,0.25l-0.11932,0.06818l-0.06818,0.11932l-0.25,0.0625h-0.94968l-0.07798,-0.01949l-0.08014,-0.00616l-0.21916,-0.07305l-0.00801,-0.0051l-0.00944,-0.00108l-0.19481,-0.07305l-0.05401,-0.03725l-0.06105,-0.02405l-0.08313,-0.05938l-0.00628,-0.00126l-0.00709,0.00253l-0.11741,-0.0587l-0.11863,-0.05619l-0.00238,-0.00715l-0.1396,-0.11966l-0.12098,-0.08065l-0.02062,-0.02269l-0.02742,-0.01371l-0.17045,-0.1461l-0.03654,-0.05149l-0.02719,-0.02361l-0.18264,0.14049l-0.07037,0.03064l-0.06362,0.04294l-0.26786,0.0974l-0.02629,0.00274l-0.02332,0.01244l-0.58442,0.1461h-0.06155l-0.05971,0.01493h-0.51136l-0.04054,-0.01014l-0.04166,0.00333l-0.29221,-0.0487l-0.04123,-0.01793l-0.04474,-0.0044l-0.34091,-0.12175l-0.03704,-0.0247l-0.04286,-0.01205l-0.31898,-0.18228l-0.19608,-0.08715l-0.0567,-0.0443l-0.06446,-0.03198l-0.40754,-0.34717l-0.06296,0.05396l-0.03295,0.01648l-0.02545,0.02664l-0.46266,0.29221l-0.05766,0.019l-0.05122,0.03259l-0.21916,0.07305l-0.08014,0.00616l-0.07798,0.01949h-0.51136l-0.09187,-0.02297l-0.09383,-0.01279l-0.36526,-0.1461l-0.05349,-0.03863l-0.06081,-0.02561l-0.29006,-0.21754l-0.36309,-0.26627l-0.03688,-0.0444l-0.04707,-0.0334l-0.1461,-0.17045l-0.01211,-0.02421l-0.02029,-0.01792l-0.26786,-0.38961l-0.00554,-0.01483l-0.01119,-0.01119l-0.1461,-0.24351l-0.01179,-0.03873l-0.0237,-0.03282l-0.0974,-0.24351l-0.00625,-0.04583l-0.0198,-0.0418l-0.0487,-0.24351l0.00237,-0.04974l-0.01208,-0.04831v-0.12175l0.02297,-0.09187l0.01279,-0.09383l0.04438,-0.11094c0.03035,-0.08128 0.08124,-0.15254 0.14635,-0.20747l0.00885,-0.01225l0.00763,-0.00106c0.08453,-0.06541 0.19058,-0.10433 0.30573,-0.10433zM204.67904,158.1751l0.01118,-0.06709l-0.00213,-0.00462l0.00502,-0.01275l0.0031,-0.01859l0.04498,-0.10346l0.04135,-0.10496l0.01096,-0.01534l0.00546,-0.01257l0.00477,-0.00176l0.02487,-0.03482l0.00997,-0.08972l0.03064,-0.08249l0.01909,-0.0859l0.01241,-0.02483l0.00785,-0.05495v-0.18362l0.01949,-0.07798l0.00616,-0.08014l0.02304,-0.06913v-0.36205l-0.06689,-0.0223l-0.04268,-0.00854h-0.01069l-0.03769,0.00942h-0.06155l-0.05971,0.01493h-0.04348l-0.21824,0.09353l-0.15807,0.09221l-0.05424,0.06509v0.46589l0.02586,0.1293l0.15802,0.31604l0.25076,0.43314l0.0029,0.00423zM201.32157,157.77054l0.13136,-0.19704l0.25994,-0.44898l0.01125,-0.01161l0.00544,-0.01522l0.12246,-0.1837l-0.03674,-0.01118l-0.02368,-0.01421l-0.13137,-0.01194h-0.26953l-0.04054,-0.01014l-0.04166,0.00333l-0.21262,-0.03544l-0.00498,0.01121l-0.02812,0.1406v0.26705l-0.00475,0.01902l0.00328,0.01933l-0.02288,0.29741v0.56894z" fill="#282318" fill-rule="nonzero" stroke="none" stroke-width="0.5" stroke-linecap="butt" stroke-linejoin="miter"/><g fill-rule="nonzero" stroke-linejoin="miter"><g stroke="#666666"><path d="M266.41542,156.88429c3.42751,-1.95616 8.05639,-2.0155 12.0846,-0.34468c1.60905,0.6674 0.91373,14.92024 -6.03598,14.83691c-7.03252,-0.08433 -7.14808,-13.86474 -6.04864,-14.49222z" fill="url(#color-1)" stroke-width="0" stroke-linecap="butt"/><path d="M272.51008,149.79015v7.078" fill="none" stroke-width="2" stroke-linecap="round"/></g><path d="M267.9167,163v-6.91666h9.16667v6.91666z" fill="#ffda5b" stroke="#ffda5a" stroke-width="2" stroke-linecap="butt"/><path d="M267.9167,156v-1.5h9.16667v1.5z" fill="#666666" stroke="#666666" stroke-width="2" stroke-linecap="butt"/></g><g fill-rule="nonzero" stroke-linejoin="miter"><g stroke="#666666"><path d="M246.41542,156.88429c3.42751,-1.95616 8.05639,-2.0155 12.0846,-0.34468c1.60905,0.6674 0.91373,14.92024 -6.03598,14.83691c-7.03252,-0.08433 -7.14808,-13.86474 -6.04864,-14.49222z" fill="url(#color-2)" stroke-width="0" stroke-linecap="butt"/><path d="M252.51007,149.79015v7.078" fill="none" stroke-width="2" stroke-linecap="round"/></g><path d="M247.9167,163v-6.91666h9.16667v6.91666z" fill="#ffda5b" stroke="#ffda5a" stroke-width="2" stroke-linecap="butt"/><path d="M247.9167,156v-1.5h9.16667v1.5z" fill="#666666" stroke="#666666" stroke-width="2" stroke-linecap="butt"/></g></g></g></svg>