<svg version="1.1" xmlns="http://www.w3.org/2000/svg" xmlns:xlink="http://www.w3.org/1999/xlink" width="524.45605" height="414.42654" viewBox="0,0,524.45605,414.42654"><g transform="translate(44.45604,54.42654)"><g data-paper-data="{&quot;isPaintingLayer&quot;:true}" fill-rule="nonzero" stroke-linejoin="miter" stroke-miterlimit="10" stroke-dasharray="" stroke-dashoffset="0" style="mix-blend-mode: normal"><path d="M153.53425,319.28814v-34.45513h279.7499v34.45513z" fill="#4c4d4d" stroke="none" stroke-width="0" stroke-linecap="butt"/><path d="M0.00001,360v-360h480v360zM433.41875,318.87876l1.20545,-292.5986l-388.37799,-1.62091l-0.25204,294.65155z" fill-opacity="0.6" fill="#333333" stroke="none" stroke-width="0" stroke-linecap="butt"/><path d="M420.66473,322.57954h-361.33246c-8.77227,0 -15.90775,-7.13243 -15.90775,-15.91084v-267.66579c0,-8.7692 7.1355,-15.90775 15.90775,-15.90775h361.33553c8.77227,0 15.90776,7.1386 15.90776,15.90775v267.6658c0,8.77841 -7.1386,15.91084 -15.91086,15.91084z" fill="none" stroke="#4c4d4d" stroke-width="12" stroke-linecap="butt"/><path d="M72.27066,-11.37786v-21.57869h335.45873v21.5787z" fill="#4c4c4d" stroke="none" stroke-width="0" stroke-linecap="butt"/><path d="M72.27066,-24.24779v-14.271c0,-8.7692 7.1355,-15.90775 15.90775,-15.90775h303.64322c8.77227,0 15.90776,7.1386 15.90776,15.90775v14.27101z" fill="#3f4040" stroke="none" stroke-width="0" stroke-linecap="butt"/><path d="M59.33226,322.57954c-8.77227,0 -15.90775,-7.13243 -15.90775,-15.91084v-267.66579c0,-8.7692 7.1355,-15.90775 15.90775,-15.90775h90.44717l-0.0031,299.48439z" fill="#3f3f40" stroke="#3f3f40" stroke-width="12" stroke-linecap="butt"/><path d="M43.4245,46.37163v-7.36872c0,-8.7692 7.1355,-15.90775 15.90775,-15.90775h361.33553c8.77227,0 15.90776,7.1386 15.90776,15.90775v7.36873z" fill="#333333" stroke="#333333" stroke-width="12" stroke-linecap="butt"/><text transform="translate(51.73599,40.37164) scale(0.5,0.5)" font-size="40" xml:space="preserve" fill="#ffffff" fill-rule="nonzero" stroke="#ffffff" stroke-width="1" stroke-linecap="butt" stroke-linejoin="miter" stroke-miterlimit="10" stroke-dasharray="" stroke-dashoffset="0" font-family="&quot;ヒラギノ角ゴ Pro W3&quot;, &quot;Hiragino Kaku Gothic Pro&quot;, Osaka, &quot;メイリオ&quot;, Meiryo, &quot;ＭＳ Ｐゴシック&quot;, &quot;MS PGothic&quot;" font-weight="normal" text-anchor="start" style="mix-blend-mode: normal"><tspan x="0" dy="0">設定</tspan></text><path d="M389.23533,46.37163l0.09694,-23.27646h31.33553c8.77227,0 15.90776,7.1386 15.90776,15.90775v7.36872z" fill="#672121" stroke="#672121" stroke-width="12" stroke-linecap="butt"/><g fill="none" stroke="#ffffff" stroke-width="3.5" stroke-linecap="round"><path d="M418.39889,40.22686l-10.9869,-10.98692"/><path d="M418.39889,29.23994l-10.9869,10.98692"/></g><text transform="translate(58.51972,325.69199) scale(0.25937,0.25937)" font-size="40" xml:space="preserve" fill="#bfbfbf" fill-rule="nonzero" stroke="none" stroke-width="1" stroke-linecap="butt" stroke-linejoin="miter" stroke-miterlimit="10" stroke-dasharray="" stroke-dashoffset="0" font-family="Sans Serif" font-weight="normal" text-anchor="start" style="mix-blend-mode: normal"><tspan x="0" dy="0">v7.1.2</tspan></text><path d="M-44.20604,-13.23321v-22.02914h110.94275v22.02915z" fill-opacity="0.35294" fill="#0000ff" stroke-opacity="0.50196" stroke="#ff0000" stroke-width="0.5" stroke-linecap="butt"/><path d="M41.13056,134.4379v-65.6091h110.94275v65.60911z" fill="#4e4e52" stroke="none" stroke-width="0" stroke-linecap="butt"/><path d="M152.06999,123.42334v14.65427c0,4.0654 -3.30803,7.37488 -7.37489,7.37488h-96.18632c-4.06684,0 -7.37487,-3.30946 -7.37487,-7.37488v-14.65425z" data-paper-data="{&quot;index&quot;:null}" fill="#4e4e52" stroke="none" stroke-width="0" stroke-linecap="butt"/><path d="M41.13391,79.36502v-14.65425c0,-4.06542 3.30803,-7.37488 7.37487,-7.37488h96.18632c4.06686,0 7.37489,3.30948 7.37489,7.37488v14.65427z" data-paper-data="{&quot;index&quot;:null}" fill="#4e4e52" stroke="none" stroke-width="0" stroke-linecap="butt"/><g><text transform="translate(63.55315,72.90915) scale(0.35996,0.35996)" font-size="40" xml:space="preserve" fill="#ffffff" fill-rule="nonzero" stroke="none" stroke-width="1" stroke-linecap="butt" stroke-linejoin="miter" stroke-miterlimit="10" stroke-dasharray="" stroke-dashoffset="0" font-family="&quot;ヒラギノ角ゴ Pro W3&quot;, &quot;Hiragino Kaku Gothic Pro&quot;, Osaka, &quot;メイリオ&quot;, Meiryo, &quot;ＭＳ Ｐゴシック&quot;, &quot;MS PGothic&quot;" font-weight="normal" text-anchor="start" style="mix-blend-mode: normal"><tspan x="0" dy="0">ゲーム設定</tspan></text><path d="M63.55315,62.05107v13.07753c0,1.15807 -0.9416,2.10007 -2.10048,2.10007h-13.08841c-1.15767,0 -2.10007,-0.942 -2.10007,-2.10007v-13.07794c0,-1.15807 0.9424,-2.10007 2.10007,-2.10007h13.08841c1.15888,0 2.10048,0.9424 2.10048,2.10048z" fill="#45a3ff" stroke="none" stroke-width="1" stroke-linecap="butt"/><g fill="none" stroke="#ffffff" stroke-linecap="round"><path d="M53.12103,67.94655h3.57527" stroke-width="7.5"/><path d="M53.0313,65.95748l-2.51251,5.2643" stroke-width="5"/><path d="M59.29854,71.22178l-2.51251,-5.2643" data-paper-data="{&quot;index&quot;:null}" stroke-width="5"/></g></g><g stroke="none" stroke-width="1" stroke-linecap="butt"><text transform="translate(63.55315,95.03178) scale(0.35217,0.35217)" font-size="40" xml:space="preserve" fill="#ffffff" fill-rule="nonzero" stroke="none" stroke-width="1" stroke-linecap="butt" stroke-linejoin="miter" stroke-miterlimit="10" stroke-dasharray="" stroke-dashoffset="0" font-family="&quot;ヒラギノ角ゴ Pro W3&quot;, &quot;Hiragino Kaku Gothic Pro&quot;, Osaka, &quot;メイリオ&quot;, Meiryo, &quot;ＭＳ Ｐゴシック&quot;, &quot;MS PGothic&quot;" font-weight="normal" text-anchor="start" style="mix-blend-mode: normal"><tspan x="0" dy="0">キー割り当て</tspan></text><path d="M63.55315,84.08022v13.07753c0,1.15807 -0.9416,2.10007 -2.10048,2.10007h-13.08841c-1.15767,0 -2.10007,-0.942 -2.10007,-2.10007v-13.07794c0,-1.15807 0.9424,-2.10007 2.10007,-2.10007h13.08841c1.15888,0 2.10048,0.9424 2.10048,2.10048z" fill="#b285ff"/><g><path d="M61.90486,88.24589v4.74612c0,0.93726 -0.76206,1.69964 -1.69997,1.69964h-10.59277c-0.93693,0 -1.69964,-0.76238 -1.69964,-1.69964v-4.74645c0,-0.93726 0.76271,-1.69964 1.69964,-1.69964h10.59277c0.93791,0 1.69997,0.76271 1.69997,1.69997z" fill="#ffffff"/><path d="M50.74832,87.73999v0.93661c0,0.26024 -0.21159,0.47193 -0.47202,0.47193h-1.02611c-0.26015,0 -0.47193,-0.21169 -0.47193,-0.47193v-0.9367c0,-0.26024 0.21178,-0.47193 0.47193,-0.47193h1.02611c0.26043,0 0.47202,0.21178 0.47202,0.47202z" fill="#b285ff"/><path d="M53.32101,87.73999v0.93661c0,0.26024 -0.21159,0.47193 -0.47202,0.47193h-1.02611c-0.26015,0 -0.47193,-0.21169 -0.47193,-0.47193v-0.9367c0,-0.26024 0.21178,-0.47193 0.47193,-0.47193h1.02611c0.26043,0 0.47202,0.21178 0.47202,0.47202z" fill="#b285ff"/><path d="M52.03466,90.15052v0.93661c0,0.26024 -0.21159,0.47193 -0.47202,0.47193h-1.02611c-0.26015,0 -0.47193,-0.21169 -0.47193,-0.47193v-0.9367c0,-0.26024 0.21178,-0.47193 0.47193,-0.47193h1.02611c0.26043,0 0.47202,0.21178 0.47202,0.47202z" fill="#b285ff"/><path d="M55.8937,87.73999v0.93661c0,0.26024 -0.21159,0.47193 -0.47202,0.47193h-1.02611c-0.26015,0 -0.47193,-0.21169 -0.47193,-0.47193v-0.9367c0,-0.26024 0.21178,-0.47193 0.47193,-0.47193h1.02611c0.26043,0 0.47202,0.21178 0.47202,0.47202z" fill="#b285ff"/><path d="M54.60735,90.15052v0.93661c0,0.26024 -0.21159,0.47193 -0.47202,0.47193h-1.02611c-0.26015,0 -0.47193,-0.21169 -0.47193,-0.47193v-0.9367c0,-0.26024 0.21178,-0.47193 0.47193,-0.47193h1.02611c0.26043,0 0.47202,0.21178 0.47202,0.47202z" fill="#b285ff"/><path d="M58.46639,87.73999v0.93661c0,0.26024 -0.21159,0.47193 -0.47202,0.47193h-1.02611c-0.26015,0 -0.47193,-0.21169 -0.47193,-0.47193v-0.9367c0,-0.26024 0.21178,-0.47193 0.47193,-0.47193h1.02611c0.26043,0 0.47202,0.21178 0.47202,0.47202z" fill="#b285ff"/><path d="M57.18005,90.15052v0.93661c0,0.26024 -0.21159,0.47193 -0.47202,0.47193h-1.02611c-0.26015,0 -0.47193,-0.21169 -0.47193,-0.47193v-0.9367c0,-0.26024 0.21178,-0.47193 0.47193,-0.47193h1.02611c0.26043,0 0.47202,0.21178 0.47202,0.47202z" fill="#b285ff"/><path d="M58.00291,92.56105v0.93661c0,0.26024 -0.21159,0.47193 -0.47202,0.47193h-5.24454c-0.26015,0 -0.47193,-0.21169 -0.47193,-0.47193v-0.9367c0,-0.26024 0.21178,-0.47193 0.47193,-0.47193h5.24454c0.26043,0 0.47202,0.21178 0.47202,0.47202z" fill="#b285ff"/><path d="M61.03908,87.73999v0.93661c0,0.26024 -0.21159,0.47193 -0.47202,0.47193h-1.02611c-0.26015,0 -0.47193,-0.21169 -0.47193,-0.47193v-0.9367c0,-0.26024 0.21178,-0.47193 0.47193,-0.47193h1.02611c0.26043,0 0.47202,0.21178 0.47202,0.47202z" fill="#b285ff"/><path d="M59.75274,90.15052v0.93661c0,0.26024 -0.21159,0.47193 -0.47202,0.47193h-1.02611c-0.26015,0 -0.47193,-0.21169 -0.47193,-0.47193v-0.9367c0,-0.26024 0.21178,-0.47193 0.47193,-0.47193h1.02611c0.26043,0 0.47202,0.21178 0.47202,0.47202z" fill="#b285ff"/></g></g><g stroke="none" stroke-linecap="butt"><text transform="translate(63.55314,117.06093) scale(0.35217,0.35217)" font-size="40" xml:space="preserve" fill="#ffffff" fill-rule="nonzero" stroke="none" stroke-width="1" stroke-linecap="butt" stroke-linejoin="miter" stroke-miterlimit="10" stroke-dasharray="" stroke-dashoffset="0" font-family="&quot;ヒラギノ角ゴ Pro W3&quot;, &quot;Hiragino Kaku Gothic Pro&quot;, Osaka, &quot;メイリオ&quot;, Meiryo, &quot;ＭＳ Ｐゴシック&quot;, &quot;MS PGothic&quot;" font-weight="normal" text-anchor="start" style="mix-blend-mode: normal"><tspan x="0" dy="0">データの管理</tspan></text><path d="M144.92496,107.5318c0,-1.73914 1.40985,-3.14899 3.14898,-3.14899c1.73913,0 3.14898,1.40985 3.14898,3.14899c0,1.73914 -1.40985,3.14898 -3.14898,3.14898c-1.73913,0 -3.14898,-1.40985 -3.14898,-3.14898z" fill-opacity="0.30196" fill="#ff0000" stroke-width="0"/><path d="M63.55314,106.10937v13.07753c0,1.15807 -0.9416,2.10007 -2.10048,2.10007h-13.08841c-1.15767,0 -2.10007,-0.942 -2.10007,-2.10007v-13.07794c0,-1.15808 0.9424,-2.10007 2.10007,-2.10007h13.08841c1.15888,0 2.10048,0.9424 2.10048,2.10048z" fill="#ffb085" stroke-width="1"/><path d="M61.64144,114.14119c0,1.38071 -1.11929,2.34282 -2.5,2.34282c-1.17715,0 -8.34836,0 -8.46557,0c-1.38071,0 -2.5,-1.11929 -2.5,-2.5c0,-1.27532 0.95493,-2.32759 2.18876,-2.48081c0.4586,-0.54708 1.14707,-0.89494 1.91678,-0.89494c0.09441,0 0.1876,0.00523 0.27929,0.01542c0.29888,-1.04607 1.26206,-1.81183 2.40409,-1.81183c0.86315,0 1.62414,0.43743 2.07336,1.1027c0.15737,-0.03104 0.32005,-0.04732 0.48652,-0.04732c1.17715,0 2.16428,0.81359 2.42976,1.90912c0.9816,0.33739 1.687,1.26873 1.687,2.36483z" fill="#ffffff" stroke-width="0.5"/></g><g stroke="none" stroke-linecap="butt"><text transform="translate(63.55314,139.09008) scale(0.35217,0.35217)" font-size="40" xml:space="preserve" fill="#ffffff" fill-rule="nonzero" stroke="none" stroke-width="1" stroke-linecap="butt" stroke-linejoin="miter" stroke-miterlimit="10" stroke-dasharray="" stroke-dashoffset="0" font-family="&quot;ヒラギノ角ゴ Pro W3&quot;, &quot;Hiragino Kaku Gothic Pro&quot;, Osaka, &quot;メイリオ&quot;, Meiryo, &quot;ＭＳ Ｐゴシック&quot;, &quot;MS PGothic&quot;" font-weight="normal" text-anchor="start" style="mix-blend-mode: normal"><tspan x="0" dy="0">クレジット</tspan></text><path d="M63.55314,128.13852v13.07753c0,1.15807 -0.9416,2.10007 -2.10048,2.10007h-13.08841c-1.15767,0 -2.10007,-0.942 -2.10007,-2.10007v-13.07794c0,-1.15808 0.9424,-2.10007 2.10007,-2.10007h13.08841c1.15888,0 2.10048,0.9424 2.10048,2.10048z" fill="#9ac73a" stroke-width="1"/><path d="M52.65865,130.73301c0,-1.24264 1.00736,-2.25 2.25,-2.25c1.24264,0 2.25,1.00736 2.25,2.25c0,1.24264 -1.00736,2.25 -2.25,2.25c-1.24264,0 -2.25,-1.00736 -2.25,-2.25z" fill="#ffffff" stroke-width="0.5"/><path d="M50.15866,138.45574c0,-2.62336 2.12665,-4.75 4.75,-4.75c2.62335,0 4.75,2.12664 4.75,4.75c0,2.62336 -2.12665,2.41129 -4.75,2.41129c-2.62335,0 -4.75,0.21206 -4.75,-2.41129z" fill="#ffffff" stroke-width="0.5"/></g><path d="M132.5372,63.23434c0,-1.73914 1.40985,-3.14899 3.14898,-3.14899c1.73913,0 3.14898,1.40985 3.14898,3.14899c0,1.73914 -1.40985,3.14898 -3.14898,3.14898c-1.73913,0 -3.14898,-1.40985 -3.14898,-3.14898z" fill-opacity="0.30196" fill="#ff0000" stroke="none" stroke-width="0" stroke-linecap="butt"/><g fill="#4e4e52" stroke="none" stroke-width="0" stroke-linecap="butt"><path d="M41.13056,294.74989v-28.86615h110.94275v28.86616z"/><path d="M152.07,283.73533v14.65427c0,4.0654 -3.30803,7.37488 -7.37489,7.37488h-96.18632c-4.06684,0 -7.37487,-3.30946 -7.37487,-7.37488v-14.65425z" data-paper-data="{&quot;index&quot;:null}"/><path d="M41.13392,280.603v-14.65425c0,-4.06542 3.30803,-7.37488 7.37487,-7.37488h96.18632c4.06686,0 7.37489,3.30948 7.37489,7.37488v14.65427z" data-paper-data="{&quot;index&quot;:null}"/></g><text transform="translate(44.12257,270.48134) scale(0.18743,0.18743)" font-size="40" xml:space="preserve" fill-opacity="0.70196" fill="#ffffff" fill-rule="nonzero" stroke="none" stroke-width="1" stroke-linecap="butt" stroke-linejoin="miter" stroke-miterlimit="10" stroke-dasharray="" stroke-dashoffset="0" font-family="&quot;ヒラギノ角ゴ Pro W3&quot;, &quot;Hiragino Kaku Gothic Pro&quot;, Osaka, &quot;メイリオ&quot;, Meiryo, &quot;ＭＳ Ｐゴシック&quot;, &quot;MS PGothic&quot;" font-weight="normal" text-anchor="start" style="mix-blend-mode: normal"><tspan x="0" dy="0">新しい設定画面はどうですか？</tspan><tspan x="0" dy="46.150000000000006px">プロフィールでフィードバック</tspan><tspan x="0" dy="46.150000000000006px">お待ちしております！！</tspan></text><text transform="translate(46.20548,295.97072) scale(0.17415,0.17415)" font-size="40" xml:space="preserve" fill-opacity="0.4" fill="#ffffff" fill-rule="nonzero" stroke="none" stroke-width="1" stroke-linecap="butt" stroke-linejoin="miter" stroke-miterlimit="10" stroke-dasharray="" stroke-dashoffset="0" font-family="&quot;ヒラギノ角ゴ Pro W3&quot;, &quot;Hiragino Kaku Gothic Pro&quot;, Osaka, &quot;メイリオ&quot;, Meiryo, &quot;ＭＳ Ｐゴシック&quot;, &quot;MS PGothic&quot;" font-weight="normal" text-anchor="start" style="mix-blend-mode: normal"><tspan x="0" dy="0">本当はv7.2で実装予定でした(((</tspan></text><path d="M44.61753,293.96151h104.01082" fill="none" stroke-opacity="0.50196" stroke="#808080" stroke-width="1" stroke-linecap="round"/></g></g></svg>