<svg version="1.1" xmlns="http://www.w3.org/2000/svg" xmlns:xlink="http://www.w3.org/1999/xlink" width="55.65909" height="42.32303" viewBox="0,0,55.65909,42.32303"><g transform="translate(-223.96324,-153.15856)"><g data-paper-data="{&quot;isPaintingLayer&quot;:true}" fill-rule="nonzero" stroke-miterlimit="10" stroke-dasharray="" stroke-dashoffset="0" style="mix-blend-mode: normal"><path d="M223.96324,195.48159v-42.32303h55.65909v42.32303z" fill="#4c4c4c" stroke="#666666" stroke-width="0" stroke-linecap="butt" stroke-linejoin="miter"/><g stroke-width="0.5"><path d="M251.70534,189.31404c0,-0.31329 0.08788,-0.76334 0.57401,-0.86493c0.70136,-0.14713 1.50382,0.56306 1.72207,0.77202c-0.01614,0.08315 0.25677,1.76089 0.25677,1.90635c0,0.49179 -0.13143,0.51128 -0.18244,0.51935c-0.48022,0.06991 -1.75999,-1.27584 -2.34741,-2.0588c-0.00808,-0.0425 -0.02301,-0.13708 -0.02301,-0.27399v0z" fill="#ffc93e" stroke="#603813" stroke-linecap="butt" stroke-linejoin="miter"/><path d="M249.76075,191.66495c-0.34814,-0.37771 -0.3978,-1.40132 -0.3978,-1.83674c0,-0.18476 0.00944,-0.30765 0.00989,-0.31145l0.00062,-0.00946c0,0 -0.00108,-0.03944 -0.00108,-0.05391c0,-0.82 0.75496,-1.10464 0.8829,-1.14743c0.4371,0.00532 1.19266,0.21215 1.37299,0.52422c0.01828,0.03136 0.03533,0.07096 0.03533,0.12167c0,0.04449 -0.01325,0.09839 -0.05101,0.16343c-0.01752,0.02984 -0.32792,0.76334 -0.59048,1.32579l-0.18762,0.52012c-0.14043,0.45445 -0.36141,0.90923 -0.60191,0.90923c-0.19006,0.0003 -0.34435,-0.06701 -0.47183,-0.20546v0z" fill="#ffc93e" stroke="#603813" stroke-linecap="butt" stroke-linejoin="miter"/><path d="M259.60717,185.72034l-0.33946,-0.59899c-0.37176,-0.64743 -0.80127,-1.2402 -1.18003,-1.76199c-0.48692,-0.67209 -0.91061,-1.3675 -1.05088,-1.85882c-0.05057,-0.17697 -0.02619,-0.34587 0.0466,-0.43924c0.007,-0.02514 0.08041,-0.06518 0.13218,-0.07585c0.62383,-0.13478 3.2061,1.34771 3.85034,2.14014c0.9438,1.16054 1.32119,2.78849 1.11073,3.60846c-0.08636,0.33506 -0.27948,0.5725 -0.5591,0.68552c-0.71476,0.28875 -1.1849,-0.23242 -2.01038,-1.69923v0z" fill="#ffc93e" stroke="#603813" stroke-linecap="butt" stroke-linejoin="miter"/><path d="M249.4423,174.2798c0.91671,-0.49819 -0.02938,-2.37394 -0.94472,-4.18843c-0.5003,-0.9921 -1.39248,-2.66771 -1.10251,-2.82473c0.56093,-0.30399 3.24067,2.85839 4.32704,4.13298l1.10738,1.26137c0,0 0.79167,0.97121 1.3975,1.61181c0.01067,0.01111 0.58347,-0.07783 0.97916,-0.40666c0.32257,-0.26911 0.27991,-0.5702 0.38258,-1.20347c0.09426,-0.5818 0.19663,-1.63465 0.50884,-1.63998c0.4703,-0.00716 0.77948,1.93132 0.89993,2.64941l0.06655,0.38411c0.15794,0.85409 0.98189,3.42205 1.01722,3.53094c0.01127,0.0265 0.02987,0.06092 0.02987,0.06092l0.00684,0.01387l0.00944,0.01157c1.27234,1.57799 2.21858,3.49134 2.21858,5.28392c0,3.79595 -3.32747,6.46807 -7.78137,6.46807c-0.82608,0 -1.63403,-0.11575 -2.40148,-0.3433l-0.04128,-0.01187c0,0 -1.20469,-0.10129 -2.74583,1.92448c-0.30916,0.40664 -0.28161,0.78572 -0.71734,0.66905c-0.14529,-0.03884 -0.25206,-0.14561 -0.33916,-0.33949c-0.20836,-0.46238 -0.05455,-1.55788 0.20011,-2.25786l0.04006,-0.10996l-0.09199,-0.07279c-0.02254,-0.01798 -2.52212,-1.83933 -2.77462,-4.44933c-0.22009,-2.27505 0.92918,-3.57038 1.40604,-4.28225l0.27399,-0.45629c0.34586,-0.84147 -0.30508,-2.01174 -0.87955,-3.04434c-0.34298,-0.61651 -0.8966,-1.51614 -0.77156,-1.72755c0.13875,-0.23423 0.63464,0.01508 1.1354,0.2539c0.40604,0.19403 0.7967,0.46817 1.06793,0.28738c0.28207,-0.18779 0.09702,-0.65946 -0.15929,-1.31238c-0.24109,-0.61316 -0.69755,-1.58178 -0.52225,-1.98158c0.04828,-0.10996 0.13297,-0.18719 0.25891,-0.23607c0.46575,-0.18033 1.1316,0.60419 1.6706,1.2178c0.65748,0.74918 1.40315,1.5981 2.26897,1.12673v0z" fill="#ffc93e" stroke="#603813" stroke-linecap="round" stroke-linejoin="round"/><g stroke="none" stroke-linecap="butt" stroke-linejoin="miter"><path d="M250.21096,183.23539v0c0,-0.68503 0.55529,-1.24064 1.24051,-1.24094c0.6849,0 1.24018,0.5559 1.24018,1.24094c0,0.6846 -0.55514,1.23974 -1.24018,1.23974c-0.68506,0 -1.24051,-0.55514 -1.24051,-1.23974z" fill="#ffffff"/><path d="M251.61839,182.32889c0.24078,0 0.45903,0.0978 0.61697,0.25588c0.15808,0.15794 0.25585,0.37618 0.25585,0.61696c0,0.24079 -0.09777,0.45905 -0.25585,0.61697c-0.15794,0.1581 -0.3762,0.25588 -0.61697,0.25588c-0.24079,0 -0.45905,-0.09778 -0.61697,-0.25588c-0.1581,-0.15792 -0.25587,-0.37618 -0.25587,-0.61697c0,-0.24079 0.09777,-0.45902 0.25587,-0.61696c0.15792,-0.15808 0.37618,-0.25588 0.61697,-0.25588z" fill="#603813"/></g><g stroke="none" stroke-linecap="butt" stroke-linejoin="miter"><path d="M256.18603,183.23539v0c0,-0.68503 0.55528,-1.24064 1.24064,-1.24094c0.6849,0 1.2402,0.5559 1.2402,1.24094c0,0.6846 -0.55561,1.23974 -1.2402,1.23974c-0.68536,0 -1.24064,-0.55514 -1.24064,-1.23974z" fill="#ffffff"/><path d="M256.72047,183.20174v0c0,-0.48189 0.3905,-0.87284 0.87268,-0.87284c0.48187,0 0.87282,0.39111 0.87282,0.87284c0,0.48235 -0.39096,0.87252 -0.87282,0.87252c-0.48219,0 -0.87268,-0.3905 -0.87268,-0.87252z" fill="#603813"/></g><path d="M241.64679,188.02359c-0.2542,-0.16235 -0.40071,-0.4304 -0.42431,-0.77613c-0.05742,-0.84541 0.61164,-2.3765 1.75129,-3.34482c0.77826,-0.6613 3.58821,-1.64638 4.17671,-1.40012c0.04858,0.02041 0.11375,0.07282 0.11575,0.09931c0.05498,0.10478 0.04766,0.27491 -0.03443,0.4397c-0.22753,0.45751 -0.77124,1.06412 -1.37315,1.63511c-0.46786,0.44532 -0.99803,0.94821 -1.48157,1.51736l-0.44351,0.52544c-1.07936,1.29183 -1.63754,1.71917 -2.28678,1.30416v0z" fill="#ffc93e" stroke="#603813" stroke-linecap="butt" stroke-linejoin="miter"/><path d="M255.59207,187.13903c0,0 -1.12902,0.0009 -1.91962,-0.67668" fill="none" stroke="#603813" stroke-linecap="round" stroke-linejoin="round"/></g><path d="M269.63316,174.6249l4.1945,2.00832l-8.32017,17.3772l-4.1945,-2.00832z" fill="#505359" stroke="#000000" stroke-width="0.5" stroke-linecap="butt" stroke-linejoin="miter"/><path d="M235.83806,194.4253v-2.47176h30.56014v2.47176z" fill="#505359" stroke="#000000" stroke-width="0.5" stroke-linecap="butt" stroke-linejoin="miter"/><path d="M268.80337,177.66384c0,-1.09394 0.88681,-1.98075 1.98075,-1.98075c1.09394,0 1.98075,0.88681 1.98075,1.98075c0,1.09394 -0.88681,1.98075 -1.98075,1.98075c-1.09394,0 -1.98075,-0.88681 -1.98075,-1.98075z" fill="#ff6666" stroke="#000000" stroke-width="0.5" stroke-linecap="butt" stroke-linejoin="miter"/><g data-paper-data="{&quot;index&quot;:null}" stroke-linejoin="miter"><path d="M278.84979,154.16495v40.12847h-13.98858l-17.51804,-40.12847h31.50659" fill-opacity="0.75294" fill="#b4e0d7" stroke="none" stroke-width="1" stroke-linecap="butt"/><path d="M247.34329,154.16495l17.51804,40.12847h-9.41243l-17.51804,-40.12847h9.41243" fill-opacity="0.74902" fill="#d4fff5" stroke="none" stroke-width="1" stroke-linecap="butt"/><path d="M232.64868,154.16495l17.45261,40.12847h-5.29421l-17.51804,-40.12847h5.35961" fill-opacity="0.74902" fill="#d4fff5" stroke="none" stroke-width="1" stroke-linecap="butt"/><path d="M237.93089,154.16495l17.51804,40.12847h-5.35961l-17.45261,-40.12847h5.29421" fill-opacity="0.75294" fill="#b4e0d7" stroke="none" stroke-width="1" stroke-linecap="butt"/><path d="M225.11979,154.16495h2.15724l17.51804,40.12847h-19.67527v-40.12847" fill-opacity="0.75294" fill="#b4e0d7" stroke="none" stroke-width="1" stroke-linecap="butt"/><g stroke-width="1.512" stroke-linecap="round"><path d="" fill="#5e154d" stroke="#5e154d"/><path d="M278.84979,154.16495v40.12847h-53.73007v-40.12847h53.73007" fill="none" stroke="#666666"/></g></g></g></g></svg>