<svg version="1.1" xmlns="http://www.w3.org/2000/svg" xmlns:xlink="http://www.w3.org/1999/xlink" width="92.21921" height="62.49176" viewBox="0,0,92.21921,62.49176"><defs><linearGradient x1="240" y1="149.75412" x2="240" y2="210.24588" gradientUnits="userSpaceOnUse" id="color-1"><stop offset="0" stop-color="#b5a86a"/><stop offset="1" stop-color="#b5a799"/></linearGradient><linearGradient x1="211.08334" y1="184.46875" x2="211.08334" y2="205.7752" gradientUnits="userSpaceOnUse" id="color-2"><stop offset="0" stop-color="#8d6547"/><stop offset="1" stop-color="#f29e3e"/></linearGradient><linearGradient x1="257.93827" y1="186.96074" x2="257.93827" y2="205.7752" gradientUnits="userSpaceOnUse" id="color-3"><stop offset="0" stop-color="#8d6547"/><stop offset="1" stop-color="#f29e3e"/></linearGradient></defs><g transform="translate(-193.89039,-148.75412)"><g data-paper-data="{&quot;isPaintingLayer&quot;:true}" stroke-miterlimit="10" stroke-dasharray="" stroke-dashoffset="0" style="mix-blend-mode: normal"><path d="M194.8904,210.24588v-60.49176h90.21921v60.49176z" fill="url(#color-1)" fill-rule="nonzero" stroke="#666666" stroke-width="2" stroke-linecap="butt" stroke-linejoin="miter"/><path d="M195.90989,209.32838v-3.6523h88.18031v3.6523z" fill="#c0c0c0" fill-rule="nonzero" stroke="none" stroke-width="0" stroke-linecap="butt" stroke-linejoin="miter"/><g data-paper-data="{&quot;index&quot;:null}" fill-rule="evenodd" stroke-width="0.5"><path d="M214.4849,163.2551c0.11688,-0.07792 0.31167,-0.03896 0.35063,0.11688l1.01295,4.16867c0,0 2.49341,1.8311 3.23364,3.11676c1.2467,2.14278 1.28566,3.89596 1.28566,3.89596c0,0 2.76613,0.81815 3.23364,3.03884c0.46751,2.2207 -1.2467,6.42833 -8.5711,7.86983c-7.3244,1.44151 -13.20729,-0.54543 -15.97342,-4.98682c-2.76613,-4.44139 1.59734,-9.73989 1.36359,-9.42821l-0.81815,-6.97376c-0.03896,-0.15584 0.15584,-0.27272 0.31168,-0.19479l4.71411,3.0778c0,0 1.75317,-0.66231 3.58427,-0.74023c1.09087,-0.07792 2.0259,0 2.92197,0.15584z" fill="#ffab19" stroke="#001026" stroke-linecap="butt" stroke-linejoin="miter"/><path d="M220.25092,174.70921c0,0 2.6882,0.70127 3.15572,2.92197c0.46751,2.2207 -1.40254,6.23353 -8.64902,7.63608c-9.42821,1.94798 -13.90856,-3.6622 -11.29827,-7.79191c2.61029,-4.16867 7.09064,-0.62336 10.36324,-0.85711c2.80509,-0.1948 3.11677,-2.64925 6.42833,-1.90902z" fill="#ffffff" stroke="none" stroke-linecap="butt" stroke-linejoin="miter"/><path d="M207.97864,178.87788c0,-0.15584 0.15583,-0.27272 0.31168,-0.23376c0.74023,0.27272 2.84405,0.89606 5.18162,1.05191c2.10381,0.11688 3.35052,0 3.93491,-0.11688c0.1948,-0.03896 0.35064,0.15584 0.27272,0.35064c-0.35064,1.05191 -1.8311,3.97387 -5.92185,3.74012c-3.54532,-0.3896 -3.89596,-2.883 -3.77908,-4.79202z" fill="#ffffff" stroke="#001026" stroke-linecap="round" stroke-linejoin="round"/><path d="M227.41945,175.13776c-1.8311,1.48047 -4.63619,1.51942 -4.63619,1.51942" fill="none" stroke="#001026" stroke-linecap="round" stroke-linejoin="round"/><path d="M226.913,179.50123c-2.45445,0.1948 -3.97387,-0.54544 -3.97387,-0.54544" fill="none" stroke="#001026" stroke-linecap="round" stroke-linejoin="round"/><path d="M213.66675,175.60528c0.81815,0 1.67526,0.07792 1.71422,0.35064c0.03896,0.54543 -0.54543,1.6363 -1.16879,1.67526c-0.70127,0.07792 -2.33757,-0.89606 -2.33757,-1.51942c-0.03896,-0.46751 1.01295,-0.50647 1.79214,-0.50647z" fill="#001026" stroke="#001026" stroke-linecap="round" stroke-linejoin="round"/><path d="M196.13495,175.02088c0,0 3.35052,1.09087 4.71411,2.29862" fill="none" stroke="#001026" stroke-linecap="round" stroke-linejoin="round"/><path d="M200.96592,178.68308c-1.67526,0.66231 -4.55827,0.23376 -4.55827,0.23376" fill="none" stroke="#001026" stroke-linecap="round" stroke-linejoin="round"/><g><path d="M218.26398,171.04701c1.12983,1.75318 1.16878,3.74012 0.07792,4.44139c-1.09087,0.70127 -2.88301,-0.11688 -4.05179,-1.87006c-1.12983,-1.75318 -1.16878,-3.74012 -0.07791,-4.44138c1.09087,-0.74023 2.92197,0.11688 4.05179,1.87006z" fill="#ffffff" stroke="#001026" stroke-linecap="round" stroke-linejoin="round"/><path d="M218.10812,173.2677c0,0.42855 -0.31168,0.77919 -0.70128,0.77919c-0.3896,0 -0.70127,-0.35064 -0.70127,-0.77919c0,-0.42855 0.31167,-0.77919 0.70127,-0.77919c0.3896,0 0.70128,0.35064 0.70128,0.77919" fill="#001026" stroke="none" stroke-linecap="butt" stroke-linejoin="miter"/></g><g><path d="M208.60201,172.13788c1.16879,1.71422 1.09086,3.81804 0.03895,4.55827c-1.28566,0.74023 -2.99988,0.1948 -4.16867,-1.51942c-1.20774,-1.71422 -1.28566,-3.93491 -0.07792,-4.79202c1.20774,-0.89607 3.03885,0.03896 4.20764,1.75318z" fill="#ffffff" stroke="#001026" stroke-linecap="round" stroke-linejoin="round"/><path d="M208.36823,174.39753c0,0.42855 -0.31168,0.77919 -0.70127,0.77919c-0.3896,0 -0.70127,-0.35064 -0.70127,-0.77919c0,-0.42855 0.31168,-0.7792 0.70127,-0.7792c0.3896,0.03896 0.70127,0.35064 0.70127,0.7792" fill="#001026" stroke="none" stroke-linecap="butt" stroke-linejoin="miter"/></g></g><path d="M195.91531,205.7752v-21.30645h30.33606v21.30645z" data-paper-data="{&quot;index&quot;:null}" fill="url(#color-2)" fill-rule="nonzero" stroke="#666666" stroke-width="0" stroke-linecap="butt" stroke-linejoin="miter"/><path d="M195.84864,187.61687v-3.54173h31.42426v3.54173z" data-paper-data="{&quot;index&quot;:null}" fill="#d2baa7" fill-rule="nonzero" stroke="#666666" stroke-width="0" stroke-linecap="butt" stroke-linejoin="miter"/><g fill-rule="nonzero" stroke-linejoin="miter"><path d="M268.68874,185.65903l4.74133,-8.1381" fill="none" stroke="#a77b4f" stroke-width="2" stroke-linecap="round"/><path d="M260.76293,180.70541l6.15665,3.60907" fill="none" stroke="#a77b4f" stroke-width="2" stroke-linecap="round"/><path d="M268.83027,178.79472l-3.46754,4.74132" fill="none" stroke="#a77b4f" stroke-width="2" stroke-linecap="round"/><path d="M261.40536,187.85278l-1.37354,-5.75763h12.66713l-1.52617,5.75763z" data-paper-data="{&quot;index&quot;:null}" fill="#d1782f" stroke="none" stroke-width="0" stroke-linecap="butt"/></g><g fill-rule="nonzero" stroke-linejoin="miter"><path d="M244.19284,180.44778l3.17357,4.09038" fill="none" stroke="#a77b4f" stroke-width="1.5" stroke-linecap="round"/><path d="M247.90683,180.09836c1.12752,1.24604 1.05194,2.64783 0.61414,3.04399c-0.4378,0.39616 -1.0015,-0.50439 -2.12903,-1.75043c-1.12752,-1.24604 -1.96875,-1.9426 -1.53095,-2.33876c0.4378,-0.39616 1.91832,-0.20084 3.04584,1.0452z" fill="#d3b290" stroke="#d3b290" stroke-width="1.5" stroke-linecap="butt"/><path d="M253.21989,183.40978l-3.17358,-4.09038" data-paper-data="{&quot;index&quot;:null}" fill="none" stroke="#a77b4f" stroke-width="1.5" stroke-linecap="round"/><path d="M253.76031,178.96997c1.12752,1.24604 1.05194,2.64784 0.61415,3.044c-0.4378,0.39616 -1.0015,-0.50439 -2.12903,-1.75043c-1.12752,-1.24604 -1.96875,-1.94259 -1.53096,-2.33875c0.4378,-0.39616 1.91831,-0.20085 3.04584,1.04519z" data-paper-data="{&quot;index&quot;:null}" fill="#d3b290" stroke="#d3b290" stroke-width="1.5" stroke-linecap="butt"/><path d="M244.86749,187.85278l-1.52094,-5.73792h12.62377l-1.36884,5.73792z" fill="#d1782f" stroke="none" stroke-width="0" stroke-linecap="butt"/></g><g fill-rule="nonzero" stroke="#666666" stroke-width="0" stroke-linecap="butt" stroke-linejoin="miter"><path d="M241.94091,205.7752v-18.81446h31.9947v18.81446h-4.58786l-0.27591,-9.42316l-22.14542,-0.19975l0.0628,9.6229z" data-paper-data="{&quot;index&quot;:null}" fill="url(#color-3)"/><path d="M241.8153,198.67634v-11.93719h32.37153v11.93719z" data-paper-data="{&quot;index&quot;:null}" fill="#d2baa7"/></g></g></g></svg>