<svg version="1.1" xmlns="http://www.w3.org/2000/svg" xmlns:xlink="http://www.w3.org/1999/xlink" width="473.33957" height="65.29058" viewBox="0,0,473.33957,65.29058"><g transform="translate(-1.37446,-293.42919)"><g data-paper-data="{&quot;isPaintingLayer&quot;:true}" fill-rule="nonzero" stroke-linejoin="miter" stroke-miterlimit="10" stroke-dasharray="" stroke-dashoffset="0" style="mix-blend-mode: normal"><path d="M474.71404,316.29665c0,1.83834 -1.49471,3.33369 -3.33434,3.33369h-70.03536c-1.8377,0 -3.33369,-1.49534 -3.33369,-3.33369v-19.53377c0,-1.83835 1.49599,-3.33369 3.33369,-3.33369h70.03536c1.83963,0 3.33434,1.49598 3.33434,3.33433z" fill-opacity="0.74902" fill="#998a96" stroke="none" stroke-width="1" stroke-linecap="butt"/><text transform="translate(407.75595,310.82073) scale(0.35758,0.35758)" font-size="40" xml:space="preserve" fill="#ffffff" fill-rule="nonzero" stroke="#ffffff" stroke-width="1" stroke-linecap="butt" stroke-linejoin="miter" stroke-miterlimit="10" stroke-dasharray="" stroke-dashoffset="0" font-family="&quot;ヒラギノ角ゴ Pro W3&quot;, &quot;Hiragino Kaku Gothic Pro&quot;, Osaka, &quot;メイリオ&quot;, Meiryo, &quot;ＭＳ Ｐゴシック&quot;, &quot;MS PGothic&quot;" font-weight="normal" text-anchor="start" style="mix-blend-mode: normal"><tspan x="0" dy="0">ログイン</tspan></text><path d="M2.12446,351.97969c0,-3.25619 2.63966,-5.89585 5.89585,-5.89585c3.25619,0 5.89585,2.63966 5.89585,5.89585c0,3.25619 -2.63966,5.89585 -5.89585,5.89585c-3.25619,0 -5.89585,-2.63966 -5.89585,-5.89585z" fill="none" stroke-opacity="0.70161" stroke="#ff0000" stroke-width="1.5" stroke-linecap="butt"/><path d="M6.10708,350.06646l3.82646,3.82646" fill="none" stroke-opacity="0.70161" stroke="#ff0000" stroke-width="1.5" stroke-linecap="round"/><path d="M9.93354,350.06646l-3.82647,3.82646" fill="none" stroke-opacity="0.70161" stroke="#ff0000" stroke-width="1.5" stroke-linecap="round"/><text transform="translate(16.77645,355.14397) scale(0.28606,0.28606)" font-size="40" xml:space="preserve" fill-opacity="0.70152" fill="#ffffff" fill-rule="nonzero" stroke="none" stroke-width="1" stroke-linecap="butt" stroke-linejoin="miter" stroke-miterlimit="10" stroke-dasharray="" stroke-dashoffset="0" font-family="Sans Serif" font-weight="normal" text-anchor="start" style="mix-blend-mode: normal"><tspan x="0" dy="0">未ログイン</tspan></text></g></g></svg>