<svg version="1.1" xmlns="http://www.w3.org/2000/svg" xmlns:xlink="http://www.w3.org/1999/xlink" width="92.21921" height="62.49176" viewBox="0,0,92.21921,62.49176"><defs><linearGradient x1="240.00014" y1="149.75412" x2="240.00014" y2="210.24588" gradientUnits="userSpaceOnUse" id="color-1"><stop offset="0" stop-color="#dbdac8"/><stop offset="1" stop-color="#99958d"/></linearGradient></defs><g transform="translate(-193.89054,-148.75412)"><g data-paper-data="{&quot;isPaintingLayer&quot;:true}" fill-rule="nonzero" stroke-linejoin="miter" stroke-miterlimit="10" stroke-dasharray="" stroke-dashoffset="0" style="mix-blend-mode: normal"><path d="M194.89054,210.24588v-60.49176h90.21921v60.49176z" fill="url(#color-1)" stroke="#666666" stroke-width="2" stroke-linecap="butt"/><path d="M251.84962,195.01412l10.94624,-17.77893" fill="none" stroke="#57541f" stroke-width="2" stroke-linecap="round"/><path d="M262.17562,190.277l-7.54615,-14.99238" fill="none" stroke="#7a762c" stroke-width="2" stroke-linecap="round"/><path d="M251.50096,189.7153l12.68928,5.5777" fill="none" stroke="#7a762c" stroke-width="2" stroke-linecap="round"/><path d="M264.05082,193.82885l-14.64147,4.60161" fill="none" stroke="#a5a03b" stroke-width="2" stroke-linecap="round"/><path d="M262.79582,180.93042l-12.82872,3.34662" fill="none" stroke="#a5a03b" stroke-width="2" stroke-linecap="round"/><g stroke-linecap="butt"><path d="M197.52047,204.99436v-31.81484h29.81398v31.81484z" fill="#c5b7ac" stroke="#666666" stroke-width="2"/><path d="M200.58423,202.30414v-26.43438h10.5044v26.43438z" fill="#89807a" stroke="none" stroke-width="0"/><path d="M213.76626,202.30414v-26.43438h10.5044v26.43438z" data-paper-data="{&quot;index&quot;:null}" fill="#89807a" stroke="none" stroke-width="0"/></g><g stroke-linecap="butt"><path d="M227.33447,204.99436v-31.81484h29.81398v31.81484z" fill="#c5b7ac" stroke="#666666" stroke-width="2"/><path d="M230.39824,202.30414v-26.43438h10.50441v26.43438z" fill="#89807a" stroke="none" stroke-width="0"/><path d="M243.58021,202.30414v-26.43438h10.5044v26.43438z" data-paper-data="{&quot;index&quot;:null}" fill="#89807a" stroke="none" stroke-width="0"/></g><path d="M262.40621,204.99436v-37.04852h19.4574v37.04852z" fill="#373737" stroke="#666666" stroke-width="2" stroke-linecap="butt"/><path d="M195.90998,209.3284v-3.6523h88.18031v3.6523z" fill="#c0c0c0" stroke="none" stroke-width="0" stroke-linecap="butt"/><path d="M194.89054,165.81363v-16.05951h19.4574v16.05951z" fill="#c8baa2" stroke="#666666" stroke-width="2" stroke-linecap="butt"/><path d="M201.19831,163.91345l2.20258,-5.10229l-2.7804,-0.85094l7.40487,-6.30591l-2.15954,5.057l2.75211,0.88343z" fill="#fffa9f" stroke="none" stroke-width="0" stroke-linecap="butt"/><path d="M264.19023,150.04388l2.35251,17.52901" fill="none" stroke="#666666" stroke-width="2" stroke-linecap="round"/><path d="M273.5329,150.32276l1.95713,16.92276" fill="none" stroke="#666666" stroke-width="2" stroke-linecap="round"/><path d="M279.04087,151.01998v15.90419" fill="none" stroke="#666666" stroke-width="3.5" stroke-linecap="round"/></g></g></svg>