<svg version="1.1" xmlns="http://www.w3.org/2000/svg" xmlns:xlink="http://www.w3.org/1999/xlink" width="480" height="360" viewBox="0,0,480,360"><g data-paper-data="{&quot;isPaintingLayer&quot;:true}" fill-rule="nonzero" stroke-linejoin="miter" stroke-miterlimit="10" stroke-dasharray="" stroke-dashoffset="0" style="mix-blend-mode: normal"><path d="M0,360v-360h480v360z" fill-opacity="0.45098" fill="#000000" stroke="none" stroke-width="0" stroke-linecap="butt"/><path d="M430.74157,314.84012c0,5.64909 -4.58157,10.22947 -10.22947,10.22947h-361.02537c-5.6491,0 -10.22828,-4.58157 -10.22828,-10.22947v-291.98978c0,-5.64909 4.57919,-10.22828 10.22829,-10.22828h361.02419c5.65147,0 10.22947,4.57918 10.22947,10.22828v291.98978z" fill="#6d6f73" stroke="#333333" stroke-width="2.5" stroke-linecap="butt"/><path d="M99.06471,35.28651c0,3.48625 -2.82744,6.31296 -6.31295,6.31296h-23.71523c-3.48625,0 -6.31222,-2.82744 -6.31222,-6.31296v-5.99673c0,-3.48625 2.82597,-6.31222 6.31222,-6.31222h23.71449c3.48771,0 6.31296,2.82597 6.31296,6.31222v5.99673z" fill="#bfb130" stroke="none" stroke-width="1" stroke-linecap="butt"/><text transform="translate(68.30104,35.92094) scale(0.31483,0.31483)" font-size="40" xml:space="preserve" fill="#ffffff" fill-rule="nonzero" stroke="none" stroke-width="1" stroke-linecap="butt" stroke-linejoin="miter" stroke-miterlimit="10" stroke-dasharray="" stroke-dashoffset="0" font-family="Sans Serif" font-weight="normal" text-anchor="start" style="mix-blend-mode: normal"><tspan x="0" dy="0">広告</tspan></text><path d="M410.7556,32.95629c0,4.14968 -3.3655,7.51431 -7.51431,7.51431h-8.17845c-4.14968,0 -7.51343,-3.3655 -7.51343,-7.51431v-7.13789c0,-4.14968 3.36375,-7.51343 7.51343,-7.51343h8.17758c4.15143,0 7.5143,3.36375 7.5143,7.51343v7.1379z" fill="#494a4d" stroke="none" stroke-width="1" stroke-linecap="butt"/><g fill="none" stroke="#ffffff" stroke-width="2.5" stroke-linecap="round"><path d="M393.37276,23.60803l11.55951,11.5595"/><path d="M404.93226,23.60803l-11.55951,11.5595"/></g><path d="M392.80903,281.56756c0,5.09342 -4.1309,9.22325 -9.22325,9.22325h-287.17263c-5.09342,0 -9.22217,-4.1309 -9.22217,-9.22325v-211.43697c0,-5.09342 4.12876,-9.22216 9.22217,-9.22216h287.17155c5.09557,0 9.22325,4.12875 9.22325,9.22216v211.43698z" fill="#333333" stroke="#333333" stroke-width="5" stroke-linecap="butt"/></g></svg>