<svg version="1.1" xmlns="http://www.w3.org/2000/svg" xmlns:xlink="http://www.w3.org/1999/xlink" width="92.21921" height="62.49176" viewBox="0,0,92.21921,62.49176"><defs><linearGradient x1="240.00009" y1="149.67222" x2="240.00009" y2="210.16398" gradientUnits="userSpaceOnUse" id="color-1"><stop offset="0" stop-color="#c8d9db"/><stop offset="1" stop-color="#6c6f66"/></linearGradient><radialGradient cx="226.41782" cy="188.66529" r="17.0108" gradientUnits="userSpaceOnUse" id="color-2"><stop offset="0" stop-color="#9b968a"/><stop offset="1" stop-color="#c6beb0"/></radialGradient><radialGradient cx="250.0568" cy="188.66529" r="17.0108" gradientUnits="userSpaceOnUse" id="color-3"><stop offset="0" stop-color="#9b968a"/><stop offset="1" stop-color="#c6beb0"/></radialGradient></defs><g transform="translate(-193.89048,-148.67222)"><g data-paper-data="{&quot;isPaintingLayer&quot;:true}" fill-rule="nonzero" stroke-linejoin="miter" stroke-miterlimit="10" stroke-dasharray="" stroke-dashoffset="0" style="mix-blend-mode: normal"><path d="M194.89049,210.16398v-60.49176h90.21921v60.49176z" fill="url(#color-1)" stroke="#666666" stroke-width="2" stroke-linecap="butt"/><path d="M277.39536,149.67222v28.51105h0.001c0,4.752 -3.854,8.605 -8.605,8.605h-28.10948" fill="none" stroke="#666666" stroke-width="6.5" stroke-linecap="butt"/><path d="M203.96839,209.07978v-13.68651h-0.001c0,-4.752 3.854,-8.605 8.605,-8.605h28.10948" data-paper-data="{&quot;index&quot;:null}" fill="none" stroke="#666666" stroke-width="6.5" stroke-linecap="butt"/><path d="M214.59833,205.67609v-34.0216h23.63899v34.0216z" fill="url(#color-2)" stroke="#5f5f5f" stroke-width="2" stroke-linecap="butt"/><path d="M267.30409,205.67609v-7.78084h9.1732v7.78084z" fill="#9b968a" stroke="#5f5f5f" stroke-width="2" stroke-linecap="butt"/><path d="M276.47729,205.67609v-9.74652h4.25898v9.74652z" fill="#5f7780" stroke="#5f5f5f" stroke-width="2" stroke-linecap="butt"/><path d="M238.23731,205.67609v-34.0216h23.63899v34.0216z" fill="url(#color-3)" stroke="#5f5f5f" stroke-width="2" stroke-linecap="butt"/><path d="M195.90996,209.32839v-3.6523h88.18031v3.6523z" fill="#c0c0c0" stroke="none" stroke-width="0" stroke-linecap="butt"/><path d="M194.89049,165.81363v-16.05951h19.4574v16.05951z" fill="#c8baa2" stroke="#666666" stroke-width="2" stroke-linecap="butt"/><path d="M200.20685,159.50111c0,-2.43687 4.41234,-7.8468 4.41234,-7.8468c0,0 4.41234,5.40994 4.41234,7.8468c0,2.43687 -1.97547,4.41234 -4.41234,4.41234c-2.43687,0 -4.41234,-1.97547 -4.41234,-4.41234z" fill="#b0f0ff" stroke="none" stroke-width="0" stroke-linecap="butt"/><path d="M262.14417,202.47995h4.7504" fill="none" stroke="#5f5f5f" stroke-width="2" stroke-linecap="round"/></g></g></svg>