<svg version="1.1" xmlns="http://www.w3.org/2000/svg" xmlns:xlink="http://www.w3.org/1999/xlink" width="640.48151" height="525.57691" viewBox="0,0,640.48151,525.57691"><g transform="translate(74.83261,89.81774)"><g data-paper-data="{&quot;isPaintingLayer&quot;:true}" fill="none" fill-rule="nonzero" stroke-opacity="0.30196" stroke="#929696" stroke-width="3.5" stroke-linecap="round" stroke-linejoin="miter" stroke-miterlimit="10" stroke-dasharray="" stroke-dashoffset="0" style="mix-blend-mode: normal"><path d="M92.3446,254.68762l-0.35744,63.85839"/><path d="M53.60542,242.39834l1.99723,-64.88258"/><path d="M204.27431,288.49152l4.08948,-104.6838"/><path d="M168.13594,351.91201l-2.35134,75.25985"/><path d="M18.42599,398.94766l3.1692,-101.43719"/><path d="M255.60264,299.27117l-2.40246,76.89594"/><path d="M298.41651,317.67523l-0.71638,92.69566"/><path d="M312.80358,226.97975l0.70217,-70.63175"/><path d="M361.78959,218.63694l-2.198,70.35161"/><path d="M445.74183,121.80265l-13.26277,105.028"/><path d="M421.20643,320.8245l-7.31767,107.65001"/><path d="M493.17869,254.04845l5.44542,114.65254"/><path d="M563.8989,206.04639l-0.30633,62.2223"/><path d="M515.42304,-47.32591l-8.33456,91.47359"/><path d="M375.88104,-55.25297l-30.96275,134.83659"/><path d="M230.38087,-13.74149l4.88536,103.28492"/><path d="M125.00198,64.73948l11.7321,-32.59608"/><path d="M57.37058,133.29662l13.44638,-79.24813"/><path d="M-51.74854,202.21351l17.48193,-90.64014"/><path d="M25.62604,23.64455l16.97824,-67.3972"/><path d="M-50.53623,-33.7925l-22.54638,50.05734"/><path d="M179.90679,-31.71419l-2.81723,-50.06251"/><path d="M309.67892,-19.54951l24.92018,-68.51823"/><path d="M457.66139,-10.62282l18.72436,-66.31577"/><path d="M544.16611,100.32938l-9.45043,58.16805"/><path d="M-34.8831,280.30357l-3.25461,55.96558"/><path d="M98.22373,434.00917l17.72473,-57.8753"/></g></g></svg>