<svg version="1.1" xmlns="http://www.w3.org/2000/svg" xmlns:xlink="http://www.w3.org/1999/xlink" width="148.18065" height="167.00724" viewBox="0,0,148.18065,167.00724"><g transform="translate(-269.20714,-121.0254)"><g data-paper-data="{&quot;isPaintingLayer&quot;:true}" fill-rule="nonzero" stroke-linejoin="miter" stroke-miterlimit="10" stroke-dasharray="" stroke-dashoffset="0" style="mix-blend-mode: normal"><path d="M373.74105,152.95607c2.94811,0.48111 4.87692,0.8087 5.4096,0.87645c0.5095,0.06481 2.23339,9.61093 1.86955,14.32621c-0.35364,4.58311 -3.71219,13.63793 -4.49336,13.56567c-2.1524,-0.1991 -4.22995,-0.43122 -6.24357,-0.68909c-15.57024,-1.99396 -4.73884,-29.41688 3.45777,-28.07924z" fill="#156198" stroke="none" stroke-width="0" stroke-linecap="butt"/><path d="M370.18954,188.09012c2.94811,0.48111 4.87692,0.80869 5.4096,0.87645c0.5095,0.06481 2.23339,9.61093 1.86955,14.32621c-0.35364,4.58311 -3.71219,13.63793 -4.49336,13.56567c-2.1524,-0.1991 -4.22995,-0.43123 -6.24357,-0.6891c-15.57024,-1.99396 -4.73884,-29.41687 3.45777,-28.07923z" fill="#9d2a2a" stroke="none" stroke-width="0" stroke-linecap="butt"/><path d="M377.604,155.36857l25.12367,17.01023l-26.39576,7.65461" fill="none" stroke="#585b5e" stroke-width="1.5" stroke-linecap="round"/><path d="M374.05249,190.50262l25.12367,17.01023l-26.39576,7.6546" fill="none" stroke="#585b5e" stroke-width="1.5" stroke-linecap="round"/><path d="M402.17087,172.37106l-26.49635,-4.04743" fill="none" stroke="#585b5e" stroke-width="1.5" stroke-linecap="round"/><path d="M398.61936,207.50511l-26.49635,-4.04743" fill="none" stroke="#585b5e" stroke-width="1.5" stroke-linecap="round"/><path d="M269.20714,170.75034c0,0 11.11956,-10.57439 11.45655,-12.8176c0.53008,-3.52858 -6.30348,-17.8037 -6.30348,-17.8037c0,0 9.08169,6.16635 18.98508,7.42602c0.61901,0.07873 19.73219,-1.7362 40.26727,0.11189c21.55908,1.94026 43.52439,5.90943 45.53808,6.16556c0.5095,0.06481 -3.02208,9.61093 -3.38592,14.32621c-0.35364,4.58311 1.54329,13.63793 0.76212,13.56567c-18.79575,-1.73865 -31.88381,-5.99556 -46.53517,-7.92228c-12.43545,-1.63531 -26.33094,-0.94513 -42.28398,-2.42083c-9.77035,-0.90378 -18.50055,-0.63095 -18.50055,-0.63095z" fill="#1c80c7" stroke="none" stroke-width="0" stroke-linecap="butt"/><path d="M271.56804,205.55592c0,0 10.13416,-10.90286 10.47115,-13.14607c0.53008,-3.52858 -4.77063,-16.05187 -4.77063,-16.05187c0,0 6.67293,5.07146 16.57632,6.33113c0.61901,0.07873 15.68109,-1.73621 36.21617,0.11189c21.55908,1.94026 43.52439,5.90943 45.53808,6.16556c0.5095,0.06481 -3.02208,9.61093 -3.38592,14.32621c-0.35364,4.58311 1.54329,13.63793 0.76212,13.56567c-18.79575,-1.73865 -31.88381,-5.99556 -46.53517,-7.92228c-12.43545,-1.63531 -20.52803,-2.04002 -36.48106,-3.51572c-9.77035,-0.90378 -18.39106,0.13547 -18.39106,0.13547z" fill="#d93b3b" stroke="none" stroke-width="0" stroke-linecap="butt"/><path d="M379.15065,153.83252c0.5095,0.06481 -3.02208,9.61093 -3.38592,14.32621c-0.35364,4.58311 1.54329,13.63793 0.76212,13.56567c-11.8582,-1.09691 -21.44456,-3.19617 -30.58495,-5.08025c-2.5414,-0.52385 6.79219,-6.39075 20.09234,-8.86608c9.09934,-5.86922 12.31258,-14.0478 13.11641,-13.94555z" fill="#ffffff" stroke="none" stroke-width="0" stroke-linecap="butt"/><path d="M375.59914,188.96657c0.5095,0.06481 -3.02208,9.61093 -3.38592,14.32621c-0.35364,4.58311 1.54329,13.63793 0.76212,13.56567c-11.8582,-1.09691 -21.44456,-3.19618 -30.58495,-5.08025c-2.5414,-0.52385 6.79219,-6.39075 20.09234,-8.86608c9.09934,-5.86922 12.31258,-14.0478 13.11641,-13.94555z" fill="#ffffff" stroke="none" stroke-width="0" stroke-linecap="butt"/><path d="M360.56695,159.82851c0,-2.97451 2.41132,-5.38583 5.38583,-5.38583c2.97451,0 5.38583,2.41132 5.38583,5.38583c0,2.97451 -2.41132,5.38583 -5.38583,5.38583c-2.97451,0 -5.38583,-2.41132 -5.38583,-5.38583z" fill="#ffffff" stroke="#e60000" stroke-width="1" stroke-linecap="butt"/><path d="M357.01543,194.96256c0,-2.97451 2.41132,-5.38582 5.38583,-5.38582c2.97451,0 5.38583,2.41131 5.38583,5.38582c0,2.97451 -2.41132,5.38583 -5.38583,5.38583c-2.97451,0 -5.38583,-2.41132 -5.38583,-5.38583z" fill="#ffffff" stroke="#0f9b00" stroke-width="1" stroke-linecap="butt"/><path d="M365.71458,223.8373c2.88603,0.47099 4.77422,0.79166 5.29568,0.85799c0.49877,0.06344 2.18637,9.40853 1.83019,14.02452c-0.3462,4.4866 -3.63401,13.35073 -4.39873,13.27999c-2.10708,-0.19491 -4.14087,-0.42215 -6.11209,-0.67458c-15.24235,-1.95197 -4.63905,-28.79739 3.38495,-27.48792z" fill="#377186" stroke="none" stroke-width="0" stroke-linecap="butt"/><path d="M369.49619,226.19899l24.5946,16.65201l-25.8399,7.49341" fill="none" stroke="#585b5e" stroke-width="1.5" stroke-linecap="round"/><path d="M393.5457,242.84343l-25.93836,-3.9622" fill="none" stroke="#585b5e" stroke-width="1.5" stroke-linecap="round"/><path d="M278.92364,240.39937c0,0 9.27764,-8.74396 9.60754,-10.93993c0.51892,-3.45427 -6.17073,-14.96356 -6.17073,-14.96356c0,0 10.20195,5.04239 17.83499,4.91161c8.13624,-0.13941 6.13309,-2.55711 26.23573,-0.74793c21.10508,1.89939 42.60781,5.78498 44.57909,6.03572c0.49877,0.06344 -2.95844,9.40853 -3.31462,14.02452c-0.3462,4.4866 1.51079,13.35073 0.74607,13.27999c-18.39992,-1.70204 -31.21237,-5.8693 -45.55518,-7.75545c-12.17358,-1.60087 -9.91332,-2.31861 -25.5304,-3.76324c-9.5646,-0.88475 -18.43249,-0.08174 -18.43249,-0.08174z" fill="#5ab7d9" stroke="none" stroke-width="0" stroke-linecap="butt"/><path d="M371.01026,224.69529c0.49877,0.06344 -2.95844,9.40853 -3.31462,14.02452c-0.3462,4.4866 1.51079,13.35073 0.74607,13.27999c-11.60848,-1.07382 -20.99296,-3.12886 -29.94087,-4.97326c-2.48788,-0.51282 6.64916,-6.25617 19.66922,-8.67937c8.90772,-5.74562 12.05329,-13.75197 12.84019,-13.65188z" fill="#ffffff" stroke="none" stroke-width="0" stroke-linecap="butt"/><path d="M352.39512,231.23633c0,-2.68966 2.18041,-4.87006 4.87007,-4.87006c2.68966,0 4.87006,2.1804 4.87006,4.87006c0,2.68966 -2.1804,4.87007 -4.87006,4.87007c-2.68966,0 -4.87007,-2.18041 -4.87007,-4.87007z" fill="#ffffff" stroke="#e4a723" stroke-width="1" stroke-linecap="butt"/><path d="M363.28406,161.20068l2.82722,-2.3089l2.68587,1.97906" fill="none" stroke="#000000" stroke-width="1" stroke-linecap="round"/><path d="M351.45405,150.45446c0.29004,-0.32531 0.61535,-0.03527 0.61535,-0.03527c2.8609,2.55133 7.04098,6.86294 1.49302,9.05121c-3.29521,1.24336 -4.70005,0.62624 -4.70005,0.62624c-0.17611,-0.03131 -0.32179,-0.1699 -0.3534,-0.35638c-0.02627,-0.155 0.03277,-0.30473 0.143,-0.40117c0,0 3.76065,-1.47009 4.33033,-3.34956c0.69968,-2.30836 -1.75653,-5.12385 -1.6485,-5.24256c-0.00223,-0.08838 0.02764,-0.18865 0.12024,-0.29251z" fill="#ffffff" stroke="none" stroke-width="0.5" stroke-linecap="butt"/><path d="M346.00841,162.27388c0.29004,-0.32531 0.61535,-0.03527 0.61535,-0.03527c2.8609,2.55133 7.04098,6.86294 1.49303,9.05121c-3.29521,1.24336 -4.70005,0.62625 -4.70005,0.62625c-0.17611,-0.03131 -0.3218,-0.16991 -0.35341,-0.35639c-0.02627,-0.155 0.03277,-0.30473 0.14301,-0.40117c0,0 3.76065,-1.47009 4.33033,-3.34956c0.69968,-2.30836 -1.75653,-5.12385 -1.6485,-5.24256c-0.00223,-0.08838 0.02764,-0.18865 0.12024,-0.29251z" fill="#ffffff" stroke="none" stroke-width="0.5" stroke-linecap="butt"/><path d="M348.39357,186.73714c0.29004,-0.32531 0.61535,-0.03527 0.61535,-0.03527c2.8609,2.55133 7.04098,6.86294 1.49303,9.05121c-3.29521,1.24336 -4.70005,0.62625 -4.70005,0.62625c-0.17611,-0.03131 -0.3218,-0.16991 -0.35341,-0.35638c-0.02627,-0.155 0.03277,-0.30473 0.143,-0.40117c0,0 3.76065,-1.47009 4.33033,-3.34956c0.69968,-2.30836 -1.75653,-5.12385 -1.6485,-5.24257c-0.00223,-0.08838 0.02764,-0.18865 0.12024,-0.29251z" fill="#ffffff" stroke="none" stroke-width="0.5" stroke-linecap="butt"/><path d="M340.04477,221.13417c0.29004,-0.32531 0.61535,-0.03527 0.61535,-0.03527c2.8609,2.55133 7.04098,6.86294 1.49303,9.05121c-3.29521,1.24336 -4.70005,0.62625 -4.70005,0.62625c-0.17611,-0.03131 -0.32179,-0.16991 -0.3534,-0.35638c-0.02627,-0.15499 0.03277,-0.30474 0.143,-0.40118c0,0 3.76065,-1.47009 4.33033,-3.34956c0.69968,-2.30836 -1.75653,-5.12385 -1.6485,-5.24256c-0.00223,-0.08838 0.02764,-0.18865 0.12024,-0.29251z" fill="#ffffff" stroke="none" stroke-width="0.5" stroke-linecap="butt"/><path d="M336.03734,231.98761c0.29004,-0.32531 0.61535,-0.03527 0.61535,-0.03527c2.8609,2.55133 7.04098,6.86294 1.49303,9.05121c-3.29521,1.24336 -4.70005,0.62625 -4.70005,0.62625c-0.17611,-0.03131 -0.3218,-0.16991 -0.35341,-0.35638c-0.02627,-0.15499 0.03277,-0.30474 0.14301,-0.40118c0,0 3.76065,-1.47009 4.33033,-3.34956c0.69968,-2.30836 -1.75653,-5.12385 -1.6485,-5.24256c-0.00223,-0.08838 0.02764,-0.18865 0.12024,-0.29251z" fill="#ffffff" stroke="none" stroke-width="0.5" stroke-linecap="butt"/><path d="M329.60877,220.04883c0.29004,-0.32531 0.61535,-0.03527 0.61535,-0.03527c2.8609,2.55133 7.04098,6.86294 1.49303,9.05121c-3.29521,1.24336 -4.70005,0.62625 -4.70005,0.62625c-0.17611,-0.03131 -0.3218,-0.16991 -0.35341,-0.35639c-0.02627,-0.15499 0.03277,-0.30473 0.143,-0.40117c0,0 3.76065,-1.47009 4.33033,-3.34956c0.69968,-2.30836 -1.75653,-5.12385 -1.6485,-5.24257c-0.00223,-0.08838 0.02764,-0.18865 0.12024,-0.29251z" fill="#cccccc" stroke="none" stroke-width="0.5" stroke-linecap="butt"/><path d="M326.35274,231.3197c0.29004,-0.32531 0.61535,-0.03527 0.61535,-0.03527c2.8609,2.55133 7.04098,6.86294 1.49303,9.05121c-3.29521,1.24336 -4.70005,0.62625 -4.70005,0.62625c-0.17611,-0.03131 -0.3218,-0.16991 -0.35341,-0.35639c-0.02627,-0.15499 0.03277,-0.30473 0.14301,-0.40117c0,0 3.76065,-1.47009 4.33033,-3.34956c0.69968,-2.30836 -1.75653,-5.12385 -1.6485,-5.24257c-0.00223,-0.08838 0.02764,-0.18865 0.12024,-0.29251z" fill="#ffffff" stroke="none" stroke-width="0.5" stroke-linecap="butt"/><path d="M315.91675,228.73158c0.29004,-0.32531 0.61535,-0.03527 0.61535,-0.03527c2.8609,2.55133 7.04098,6.86294 1.49303,9.05121c-3.29521,1.24336 -4.70005,0.62625 -4.70005,0.62625c-0.17611,-0.03131 -0.3218,-0.16991 -0.35341,-0.35638c-0.02627,-0.15499 0.03277,-0.30473 0.143,-0.40117c0,0 3.76065,-1.47009 4.33033,-3.34956c0.69968,-2.30836 -1.75653,-5.12385 -1.6485,-5.24257c-0.00223,-0.08838 0.02764,-0.18865 0.12024,-0.29251z" fill="#cccccc" stroke="none" stroke-width="0.5" stroke-linecap="butt"/><path d="M321.1765,218.96349c0.29004,-0.32531 0.61535,-0.03527 0.61535,-0.03527c2.8609,2.55133 7.04098,6.86294 1.49303,9.05121c-3.29521,1.24336 -4.70005,0.62625 -4.70005,0.62625c-0.17611,-0.03131 -0.3218,-0.16991 -0.35341,-0.35638c-0.02627,-0.15499 0.03277,-0.30474 0.14301,-0.40118c0,0 3.76065,-1.47009 4.33033,-3.34956c0.69968,-2.30836 -1.75653,-5.12385 -1.6485,-5.24256c-0.00223,-0.08838 0.02764,-0.18865 0.12024,-0.29251z" fill="#ffffff" stroke="none" stroke-width="0.5" stroke-linecap="butt"/><path d="M306.31564,219.63139c0.29004,-0.32531 0.61535,-0.03527 0.61535,-0.03527c2.8609,2.55133 7.04098,6.86294 1.49303,9.05121c-3.29521,1.24336 -4.70005,0.62625 -4.70005,0.62625c-0.17611,-0.03131 -0.32179,-0.16991 -0.3534,-0.35639c-0.02627,-0.15499 0.03277,-0.30473 0.143,-0.40117c0,0 3.76065,-1.47009 4.33033,-3.34956c0.69968,-2.30836 -1.75653,-5.12385 -1.6485,-5.24257c-0.00223,-0.08838 0.02764,-0.18865 0.12024,-0.29251z" fill="#cccccc" stroke="none" stroke-width="0.5" stroke-linecap="butt"/><path d="M306.90006,229.9839c0.29004,-0.32531 0.61535,-0.03527 0.61535,-0.03527c2.8609,2.55133 7.04098,6.86294 1.49303,9.05121c-3.29521,1.24336 -4.70005,0.62625 -4.70005,0.62625c-0.17611,-0.03131 -0.3218,-0.16991 -0.35341,-0.35638c-0.02627,-0.15499 0.03277,-0.30473 0.14301,-0.40117c0,0 3.76065,-1.47009 4.33033,-3.34956c0.69968,-2.30836 -1.75653,-5.12385 -1.6485,-5.24257c-0.00223,-0.08838 0.02764,-0.18865 0.12024,-0.29251z" fill="#ffffff" stroke="none" stroke-width="0.5" stroke-linecap="butt"/><path d="M338.86802,199.65685c0.29004,-0.32531 0.61535,-0.03527 0.61535,-0.03527c2.8609,2.55133 7.04098,6.86294 1.49303,9.05121c-3.29521,1.24336 -4.70005,0.62625 -4.70005,0.62625c-0.17611,-0.03131 -0.3218,-0.16991 -0.35341,-0.35639c-0.02627,-0.155 0.03277,-0.30473 0.14301,-0.40117c0,0 3.76065,-1.47009 4.33033,-3.34956c0.69968,-2.30836 -1.75653,-5.12385 -1.6485,-5.24256c-0.00223,-0.08838 0.02764,-0.18865 0.12024,-0.29251z" fill="#cccccc" stroke="none" stroke-width="0.5" stroke-linecap="butt"/><path d="M337.99211,185.31379c0.29004,-0.32531 0.61535,-0.03527 0.61535,-0.03527c2.8609,2.55133 7.04098,6.86294 1.49303,9.05121c-3.29521,1.24336 -4.70005,0.62625 -4.70005,0.62625c-0.17611,-0.03131 -0.3218,-0.16991 -0.35341,-0.35639c-0.02627,-0.155 0.03277,-0.30473 0.14301,-0.40117c0,0 3.76065,-1.47009 4.33033,-3.34956c0.69968,-2.30836 -1.75653,-5.12385 -1.6485,-5.24256c-0.00223,-0.08838 0.02764,-0.18865 0.12024,-0.29251z" fill="#cccccc" stroke="none" stroke-width="0.5" stroke-linecap="butt"/><path d="M328.57604,196.1532c0.29004,-0.32531 0.61535,-0.03527 0.61535,-0.03527c2.8609,2.55133 7.04098,6.86294 1.49303,9.05121c-3.29521,1.24336 -4.70005,0.62625 -4.70005,0.62625c-0.17611,-0.03131 -0.3218,-0.16991 -0.35341,-0.35639c-0.02627,-0.155 0.03277,-0.30473 0.143,-0.40117c0,0 3.76065,-1.47009 4.33033,-3.34956c0.69968,-2.30836 -1.75653,-5.12385 -1.6485,-5.24257c-0.00223,-0.08838 0.02764,-0.18864 0.12024,-0.2925z" fill="#ffffff" stroke="none" stroke-width="0.5" stroke-linecap="butt"/><path d="M323.32057,183.99992c0.29004,-0.32531 0.61535,-0.03527 0.61535,-0.03527c2.8609,2.55133 7.04098,6.86294 1.49303,9.05121c-3.29521,1.24336 -4.70005,0.62625 -4.70005,0.62625c-0.17611,-0.03131 -0.32179,-0.16991 -0.3534,-0.35638c-0.02627,-0.155 0.03277,-0.30474 0.143,-0.40118c0,0 3.76065,-1.47009 4.33033,-3.34956c0.69968,-2.30836 -1.75653,-5.12385 -1.6485,-5.24256c-0.00223,-0.08838 0.02764,-0.18865 0.12024,-0.29251z" fill="#ffffff" stroke="none" stroke-width="0.5" stroke-linecap="butt"/><path d="M316.75122,195.27729c0.29004,-0.32531 0.61535,-0.03527 0.61535,-0.03527c2.8609,2.55133 7.04098,6.86294 1.49303,9.05121c-3.29521,1.24336 -4.70005,0.62625 -4.70005,0.62625c-0.17611,-0.03131 -0.3218,-0.16991 -0.35341,-0.35638c-0.02627,-0.155 0.03277,-0.30473 0.143,-0.40117c0,0 3.76065,-1.47009 4.33033,-3.34956c0.69968,-2.30836 -1.75653,-5.12385 -1.6485,-5.24257c-0.00223,-0.08838 0.02764,-0.18865 0.12024,-0.29251z" fill="#cccccc" stroke="none" stroke-width="0.5" stroke-linecap="butt"/><path d="M308.32057,184.43787c0.29004,-0.32531 0.61535,-0.03527 0.61535,-0.03527c2.8609,2.55133 7.04098,6.86294 1.49303,9.05121c-3.29521,1.24336 -4.70005,0.62625 -4.70005,0.62625c-0.17611,-0.03131 -0.32179,-0.16991 -0.3534,-0.35638c-0.02627,-0.155 0.03277,-0.30473 0.143,-0.40117c0,0 3.76065,-1.47009 4.33033,-3.34956c0.69968,-2.30836 -1.75653,-5.12385 -1.6485,-5.24257c-0.00223,-0.08838 0.02764,-0.18865 0.12024,-0.29251z" fill="#ffffff" stroke="none" stroke-width="0.5" stroke-linecap="butt"/><path d="M307.33516,195.71525c0.29004,-0.32531 0.61535,-0.03527 0.61535,-0.03527c2.8609,2.55133 7.04098,6.86294 1.49303,9.05121c-3.29521,1.24336 -4.70005,0.62625 -4.70005,0.62625c-0.17611,-0.03131 -0.3218,-0.16991 -0.35341,-0.35638c-0.02627,-0.155 0.03277,-0.30473 0.14301,-0.40117c0,0 3.76065,-1.47009 4.33033,-3.34956c0.69968,-2.30836 -1.75653,-5.12385 -1.6485,-5.24257c-0.00223,-0.08838 0.02764,-0.18865 0.12024,-0.29251z" fill="#ffffff" stroke="none" stroke-width="0.5" stroke-linecap="butt"/><path d="M297.48116,194.40138c0.29004,-0.32531 0.61535,-0.03527 0.61535,-0.03527c2.8609,2.55133 7.04098,6.86294 1.49303,9.05121c-3.29521,1.24336 -4.70005,0.62625 -4.70005,0.62625c-0.17611,-0.03131 -0.3218,-0.16991 -0.35341,-0.35639c-0.02627,-0.155 0.03277,-0.30473 0.14301,-0.40117c0,0 3.76065,-1.47009 4.33033,-3.34956c0.69968,-2.30836 -1.75653,-5.12385 -1.6485,-5.24257c-0.00223,-0.08838 0.02764,-0.18864 0.12024,-0.2925z" fill="#cccccc" stroke="none" stroke-width="0.5" stroke-linecap="butt"/><path d="M299.01399,183.89043c0.29004,-0.32531 0.61535,-0.03527 0.61535,-0.03527c2.8609,2.55133 7.04098,6.86294 1.49303,9.05121c-3.29521,1.24336 -4.70005,0.62625 -4.70005,0.62625c-0.17611,-0.03131 -0.3218,-0.16991 -0.35341,-0.35639c-0.02627,-0.155 0.03277,-0.30473 0.14301,-0.40117c0,0 3.76065,-1.47009 4.33033,-3.34956c0.69968,-2.30836 -1.75653,-5.12385 -1.6485,-5.24256c-0.00223,-0.08838 0.02764,-0.18865 0.12024,-0.29251z" fill="#ffffff" stroke="none" stroke-width="0.5" stroke-linecap="butt"/><path d="M341.3341,149.46951c0.29004,-0.32531 0.61535,-0.03528 0.61535,-0.03528c2.8609,2.55133 7.04098,6.86294 1.49303,9.05121c-3.29521,1.24336 -4.70005,0.62625 -4.70005,0.62625c-0.17611,-0.03131 -0.3218,-0.1699 -0.35341,-0.35638c-0.02627,-0.155 0.03277,-0.30473 0.143,-0.40117c0,0 3.76065,-1.47009 4.33033,-3.34956c0.69968,-2.30836 -1.75653,-5.12385 -1.6485,-5.24257c-0.00223,-0.08838 0.02764,-0.18864 0.12024,-0.2925z" fill="#ffffff" stroke="none" stroke-width="0.5" stroke-linecap="butt"/><path d="M336.7787,160.18086c0.29004,-0.32531 0.61535,-0.03528 0.61535,-0.03528c2.8609,2.55133 7.04098,6.86294 1.49303,9.05121c-3.29521,1.24336 -4.70005,0.62625 -4.70005,0.62625c-0.17611,-0.03131 -0.32179,-0.1699 -0.3534,-0.35638c-0.02627,-0.155 0.03276,-0.30473 0.143,-0.40117c0,0 3.76065,-1.47009 4.33033,-3.34956c0.69968,-2.30836 -1.75653,-5.12385 -1.6485,-5.24257c-0.00223,-0.08838 0.02764,-0.18864 0.12024,-0.2925z" fill="#cccccc" stroke="none" stroke-width="0.5" stroke-linecap="butt"/><path d="M331.7308,148.91547c0.29004,-0.32531 0.61535,-0.03528 0.61535,-0.03528c2.8609,2.55133 7.04098,6.86294 1.49302,9.05121c-3.29521,1.24336 -4.70004,0.62625 -4.70004,0.62625c-0.17611,-0.03131 -0.3218,-0.1699 -0.35341,-0.35638c-0.02627,-0.155 0.03276,-0.30473 0.143,-0.40117c0,0 3.76066,-1.4701 4.33034,-3.34957c0.69968,-2.30836 -1.75653,-5.12385 -1.6485,-5.24256c-0.00223,-0.08838 0.02764,-0.18864 0.12024,-0.2925z" fill="#ffffff" stroke="none" stroke-width="0.5" stroke-linecap="butt"/><path d="M323.94613,158.86513c0.29004,-0.32531 0.61535,-0.03527 0.61535,-0.03527c2.8609,2.55133 7.04098,6.86294 1.49302,9.05121c-3.29521,1.24336 -4.70004,0.62625 -4.70004,0.62625c-0.17611,-0.03131 -0.3218,-0.1699 -0.35341,-0.35638c-0.02627,-0.155 0.03276,-0.30473 0.143,-0.40117c0,0 3.76066,-1.47009 4.33034,-3.34956c0.69968,-2.30836 -1.75653,-5.12385 -1.6485,-5.24257c-0.00223,-0.08838 0.02764,-0.18865 0.12024,-0.29251z" fill="#ffffff" stroke="none" stroke-width="0.5" stroke-linecap="butt"/><path d="M319.37057,147.57572c0.29004,-0.32531 0.61535,-0.03527 0.61535,-0.03527c2.8609,2.55133 7.04098,6.86294 1.49303,9.05121c-3.29521,1.24336 -4.70005,0.62625 -4.70005,0.62625c-0.17611,-0.03131 -0.32179,-0.1699 -0.3534,-0.35638c-0.02627,-0.155 0.03276,-0.30473 0.143,-0.40117c0,0 3.76065,-1.4701 4.33033,-3.34957c0.69968,-2.30836 -1.75653,-5.12385 -1.6485,-5.24256c-0.00223,-0.08838 0.02764,-0.18864 0.12024,-0.2925z" fill="#cccccc" stroke="none" stroke-width="0.5" stroke-linecap="butt"/><path d="M313.37244,159.98285c0.29004,-0.32531 0.61536,-0.03528 0.61536,-0.03528c2.8609,2.55133 7.04098,6.86294 1.49302,9.05121c-3.29521,1.24336 -4.70005,0.62625 -4.70005,0.62625c-0.17611,-0.03131 -0.32179,-0.1699 -0.3534,-0.35638c-0.02627,-0.155 0.03277,-0.30473 0.143,-0.40117c0,0 3.76065,-1.47009 4.33033,-3.34956c0.69968,-2.30836 -1.75653,-5.12385 -1.6485,-5.24257c-0.00223,-0.08838 0.02764,-0.18864 0.12024,-0.2925z" fill="#ffffff" stroke="none" stroke-width="0.5" stroke-linecap="butt"/><path d="M307.49933,147.57572c0.29004,-0.32531 0.61535,-0.03527 0.61535,-0.03527c2.8609,2.55133 7.04098,6.86294 1.49303,9.05121c-3.29521,1.24336 -4.70005,0.62625 -4.70005,0.62625c-0.17611,-0.03131 -0.32179,-0.1699 -0.3534,-0.35638c-0.02627,-0.155 0.03276,-0.30473 0.143,-0.40117c0,0 3.76065,-1.4701 4.33033,-3.34957c0.69968,-2.30836 -1.75653,-5.12385 -1.6485,-5.24256c-0.00223,-0.08838 0.02764,-0.18864 0.12024,-0.2925z" fill="#ffffff" stroke="none" stroke-width="0.5" stroke-linecap="butt"/><path d="M304.53671,158.86513c0.29004,-0.32531 0.61536,-0.03527 0.61536,-0.03527c2.8609,2.55133 7.04098,6.86294 1.49302,9.05121c-3.29521,1.24336 -4.70005,0.62625 -4.70005,0.62625c-0.17611,-0.03131 -0.32179,-0.1699 -0.3534,-0.35638c-0.02627,-0.155 0.03276,-0.30473 0.143,-0.40117c0,0 3.76065,-1.4701 4.33033,-3.34957c0.69968,-2.30836 -1.75653,-5.12385 -1.6485,-5.24256c-0.00223,-0.08838 0.02764,-0.18864 0.12024,-0.2925z" fill="#cccccc" stroke="none" stroke-width="0.5" stroke-linecap="butt"/><path d="M296.75203,148.91547c0.29004,-0.32531 0.61536,-0.03528 0.61536,-0.03528c2.8609,2.55133 7.04098,6.86294 1.49302,9.05121c-3.29521,1.24336 -4.70005,0.62625 -4.70005,0.62625c-0.17611,-0.03131 -0.32179,-0.1699 -0.3534,-0.35638c-0.02627,-0.155 0.03276,-0.30473 0.143,-0.40117c0,0 3.76065,-1.4701 4.33033,-3.34957c0.69968,-2.30836 -1.75653,-5.12385 -1.6485,-5.24256c-0.00223,-0.08838 0.02764,-0.18864 0.12024,-0.2925z" fill="#cccccc" stroke="none" stroke-width="0.5" stroke-linecap="butt"/><path d="M294.81663,160.46158c0.29004,-0.32531 0.61536,-0.03527 0.61536,-0.03527c2.8609,2.55133 7.04098,6.86294 1.49302,9.05121c-3.29521,1.24336 -4.70005,0.62625 -4.70005,0.62625c-0.17611,-0.03131 -0.32179,-0.1699 -0.3534,-0.35638c-0.02627,-0.155 0.03276,-0.30473 0.143,-0.40117c0,0 3.76065,-1.4701 4.33033,-3.34957c0.69968,-2.30836 -1.75653,-5.12385 -1.6485,-5.24256c-0.00223,-0.08838 0.02764,-0.18864 0.12024,-0.2925z" fill="#ffffff" stroke="none" stroke-width="0.5" stroke-linecap="butt"/><path d="M288.24843,151.91114l-5.97206,-3.56228" fill="none" stroke="#73b7e8" stroke-width="3.5" stroke-linecap="round"/><path d="M286.57205,164.37913l-7.64843,2.77649" fill="none" stroke="#73b7e8" stroke-width="3.5" stroke-linecap="round"/><path d="M287.14831,158.09275l-3.19558,-0.10478" fill="none" stroke="#73b7e8" stroke-width="3.5" stroke-linecap="round"/><path d="M359.18328,196.11871c0,0 1.85728,-1.2802 2.84399,-1.44664c1.16418,-0.19637 3.69716,0.34332 3.69716,0.34332" fill="none" stroke="#000000" stroke-width="1" stroke-linecap="round"/><path d="M291.83621,189.08618l-7.08661,-4.11024" fill="none" stroke="#fa6868" stroke-width="3.5" stroke-linecap="round"/><path d="M289.85195,193.33815l-4.32283,0.28346" fill="none" stroke="#fa6868" stroke-width="3.5" stroke-linecap="round"/><path d="M289.00156,199.7161l-9.28346,2.48031" fill="none" stroke="#fa6868" stroke-width="3.5" stroke-linecap="round"/><path d="M354.8958,231.72931c0,0 1.01777,-0.79537 1.75216,-0.75055c0.76241,0.04653 1.58982,0.93255 2.02629,0.88997c0.57153,-0.05576 1.4857,-0.59226 1.4857,-0.59226" fill="none" stroke="#000000" stroke-width="1" stroke-linecap="round"/><path d="M296.33473,225.02265l-6.23622,-3.5433" fill="none" stroke="#a3def3" stroke-width="3.5" stroke-linecap="round"/><path d="M295.98039,229.27462l-3.68504,0.56693" fill="none" stroke="#a3def3" stroke-width="3.5" stroke-linecap="round"/><path d="M297.89378,234.09352l-10.62992,2.83465" fill="none" stroke="#a3def3" stroke-width="3.5" stroke-linecap="round"/><path d="M405.54189,151.44059l-17.28381,133.84205" fill="none" stroke="#a57039" stroke-width="5.5" stroke-linecap="round"/><path d="M397.69533,144.96999c-2.23296,-4.84672 -0.1141,-10.58593 4.73262,-12.8189c4.84672,-2.23296 10.58593,-0.1141 12.8189,4.73262c2.23296,4.84672 0.1141,10.58593 -4.73262,12.8189c-4.84672,2.23296 -10.58593,0.1141 -12.8189,-4.73262z" fill="none" stroke="#e5d479" stroke-width="3" stroke-linecap="butt"/><path d="M405.61499,150.34355l1.71219,-18.8334" fill="none" stroke="#e5d479" stroke-width="3" stroke-linecap="round"/><path d="M412.52435,148.19081l-12.10652,-14.52792" fill="none" stroke="#e5d479" stroke-width="3" stroke-linecap="round"/><path d="M415.88779,141.78294l-18.8334,-1.71219" fill="none" stroke="#e5d479" stroke-width="3" stroke-linecap="round"/><path d="M399.20713,146.98011l14.52792,-12.10652" fill="none" stroke="#e5d479" stroke-width="3" stroke-linecap="round"/><path d="M403.21858,125.95678c0.37883,-2.66096 2.84306,-4.511 5.50402,-4.13218c2.66096,0.37883 4.511,2.84307 4.13218,5.50403c-0.37883,2.66096 -2.84307,4.511 -5.50403,4.13217c-2.66096,-0.37883 -4.511,-2.84306 -4.13217,-5.50402z" fill="none" stroke="#e5d479" stroke-width="1.5" stroke-linecap="butt"/><path d="M405.33094,126.2575c0.37883,-2.66096 1.89733,-4.64564 3.39168,-4.4329c1.49434,0.21274 2.39865,2.54234 2.01982,5.2033c-0.37883,2.66096 -1.89733,4.64564 -3.39168,4.4329c-1.49434,-0.21274 -2.39865,-2.54234 -2.01982,-5.2033z" fill="none" stroke="#e5d479" stroke-width="1.5" stroke-linecap="butt"/></g></g></svg>