<svg version="1.1" xmlns="http://www.w3.org/2000/svg" xmlns:xlink="http://www.w3.org/1999/xlink" width="78.53985" height="76.1834" viewBox="0,0,78.53985,76.1834"><g transform="translate(-200.73015,-141.9083)"><g data-paper-data="{&quot;isPaintingLayer&quot;:true}" fill-rule="nonzero" stroke-linecap="butt" stroke-linejoin="miter" stroke-miterlimit="10" stroke-dasharray="" stroke-dashoffset="0" style="mix-blend-mode: normal"><path d="M200.73017,215.67758v-71.35563c0,-1.33052 1.08266,-2.41365 2.41365,-2.41365h73.71255c1.331,0 2.41364,1.08311 2.41364,2.41365v71.35563c0,1.33192 -1.08265,2.41412 -2.41364,2.41412h-73.71209c-1.331,0 -2.41412,-1.0822 -2.41412,-2.41412z" fill-opacity="0.6" fill="#404040" stroke="none" stroke-width="1"/><text transform="translate(204.80298,202.63554) scale(0.20241,0.20241)" font-size="40" xml:space="preserve" fill="#ffffff" fill-rule="nonzero" stroke="none" stroke-width="1" stroke-linecap="butt" stroke-linejoin="miter" stroke-miterlimit="10" stroke-dasharray="" stroke-dashoffset="0" font-family="Sans Serif" font-weight="normal" text-anchor="start" style="mix-blend-mode: normal"><tspan x="0" dy="0">チョコレート！</tspan></text><path d="M204.80302,189.84976v-41.75298c0,-1.33052 1.08266,-2.41365 2.41365,-2.41365h65.56685c1.331,0 2.41364,1.08311 2.41364,2.41365v41.75298c0,1.33192 -1.08265,2.41412 -2.41364,2.41412h-65.56639c-1.331,0 -2.41412,-1.0822 -2.41412,-2.41412z" fill="#b6b6c1" stroke="#bf80ff" stroke-width="0"/><text transform="translate(204.80298,208.9586) scale(0.11571,0.11571)" font-size="40" xml:space="preserve" fill="#b3b3b3" fill-rule="nonzero" stroke="none" stroke-width="1" stroke-linecap="butt" stroke-linejoin="miter" stroke-miterlimit="10" stroke-dasharray="" stroke-dashoffset="0" font-family="Sans Serif" font-weight="normal" text-anchor="start" style="mix-blend-mode: normal"><tspan x="0" dy="0">デコレーション✨</tspan><tspan x="0" dy="48px">追加日:2023-2-09</tspan></text><path d="M206.97515,192.24716v-38.52251c0,-1.33052 1.08266,-2.41365 2.41365,-2.41365h61.22259c1.331,0 2.41364,1.08311 2.41364,2.41365v38.52251z" fill-opacity="0.21961" fill="#843b0a" stroke="#ab5d28" stroke-width="1"/><path d="M259.74267,186.0059l6.0183,-9.5051l9.43618,5.06302l-5.8866,8.3057z" fill="#ab5d28" stroke="none" stroke-width="0"/><path d="M254.85337,192.26388l6.20346,-9.59964l11.15563,4.53884l-3.4827,5.0608z" fill="#ff0000" stroke="none" stroke-width="0"/><path d="M262.45063,186.40425c-0.61822,-0.30911 -2.52598,-1.1931 -2.84494,-1.83086c-0.63133,-1.26232 0.08119,-1.84205 1.93177,-1.9827c0.15064,-0.01145 0.47716,0.06181 0.63214,0.10031c0.12763,0.0317 0.25408,0.06679 0.37946,0.10492c0.47253,0.01293 0.90384,0.1909 1.23837,0.47833c0.73478,0.33856 1.64272,0.95164 2.36335,1.13946c1.14092,0.29736 2.10176,0.10759 3.36086,0.47137c0.6886,0.19895 1.44474,0.53196 2.24755,1.0531c0.04989,0.03239 1.6749,2.29376 -0.82518,2.42713c-1.83942,0.09814 -8.48339,-1.96106 -8.48339,-1.96106z" fill="#e7e7e7" stroke="none" stroke-width="0.5"/><path d="M204.80302,189.84976v-41.75298c0,-1.33052 1.08266,-2.41365 2.41365,-2.41365h65.56685c1.331,0 2.41364,1.08311 2.41364,2.41365v41.75298c0,1.33192 -1.08265,2.41412 -2.41364,2.41412h-65.56639c-1.331,0 -2.41412,-1.0822 -2.41412,-2.41412z" fill="none" stroke="#bf80ff" stroke-width="2"/></g></g></svg>