<svg version="1.1" xmlns="http://www.w3.org/2000/svg" xmlns:xlink="http://www.w3.org/1999/xlink" width="31.0499" height="27.6903" viewBox="0,0,31.0499,27.6903"><g transform="translate(-244.05622,-167.03845)"><g data-paper-data="{&quot;isPaintingLayer&quot;:true}" fill-rule="nonzero" stroke-miterlimit="10" stroke-dasharray="" stroke-dashoffset="0" style="mix-blend-mode: normal"><path d="M253.25367,191.77791c0,-0.34693 0.09731,-0.84529 0.63563,-0.95779c0.77666,-0.16293 1.66527,0.62351 1.90696,0.8549c-0.01787,0.09208 0.28435,1.94995 0.28435,2.11102c0,0.54459 -0.14554,0.56616 -0.20203,0.57511c-0.53178,0.07741 -1.94894,-1.41281 -2.59943,-2.27984c-0.00895,-0.04706 -0.02548,-0.15179 -0.02548,-0.30341v0z" fill="#ffc93e" stroke="#603813" stroke-width="0.65" stroke-linecap="butt" stroke-linejoin="miter"/><path d="M251.1003,194.38121c-0.38552,-0.41826 -0.44051,-1.55176 -0.44051,-2.03394c0,-0.2046 0.01045,-0.34068 0.01095,-0.34489l0.00069,-0.01047c0,0 -0.0012,-0.04368 -0.0012,-0.05969c0,-0.90803 0.83602,-1.22324 0.97769,-1.27062c0.48403,0.0059 1.32071,0.23492 1.5204,0.5805c0.02024,0.03473 0.03913,0.07858 0.03913,0.13473c0,0.04927 -0.01467,0.10896 -0.05649,0.18098c-0.0194,0.03304 -0.36312,0.84529 -0.65387,1.46812l-0.20777,0.57596c-0.1555,0.50324 -0.40022,1.00685 -0.66653,1.00685c-0.21046,0.00033 -0.38133,-0.07421 -0.52249,-0.22753v0z" fill="#ffc93e" stroke="#603813" stroke-width="0.65" stroke-linecap="butt" stroke-linejoin="miter"/><path d="M262.00384,187.79838l-0.37591,-0.6633c-0.41168,-0.71694 -0.88729,-1.37335 -1.30672,-1.95116c-0.5392,-0.74425 -1.00838,-1.51432 -1.1637,-2.05839c-0.05601,-0.19598 -0.029,-0.38301 0.0516,-0.4864c0.00775,-0.02784 0.08905,-0.07217 0.14637,-0.08399c0.69081,-0.14926 3.55031,1.49241 4.26372,2.3699c1.04513,1.28514 1.46304,3.08787 1.22998,3.99588c-0.09564,0.37103 -0.30948,0.63396 -0.61912,0.75911c-0.79149,0.31975 -1.31212,-0.25737 -2.22622,-1.88166v0z" fill="#ffc93e" stroke="#603813" stroke-width="0.65" stroke-linecap="butt" stroke-linejoin="miter"/><path d="M250.74766,175.12956c1.01513,-0.55167 -0.03254,-2.6288 -1.04615,-4.6381c-0.55401,-1.09861 -1.54198,-2.95412 -1.22088,-3.128c0.62115,-0.33663 3.58859,3.16527 4.7916,4.57671l1.22627,1.39679c0,0 0.87666,1.07548 1.54754,1.78485c0.01182,0.0123 0.64611,-0.08619 1.08428,-0.45032c0.3572,-0.29799 0.30997,-0.63142 0.42365,-1.33267c0.10438,-0.64426 0.21774,-1.81016 0.56347,-1.81605c0.52079,-0.00793 0.86317,2.13867 0.99655,2.93386l0.0737,0.42535c0.1749,0.94579 1.08731,3.78945 1.12643,3.91002c0.01248,0.02934 0.03307,0.06746 0.03307,0.06746l0.00758,0.01535l0.01045,0.01282c1.40895,1.74741 2.45677,3.86617 2.45677,5.85121c0,4.2035 -3.68471,7.1625 -8.61679,7.1625c-0.91477,0 -1.80946,-0.12818 -2.65931,-0.38016l-0.04571,-0.01314c0,0 -1.33402,-0.11216 -3.04063,2.1311c-0.34235,0.4503 -0.31185,0.87008 -0.79436,0.74088c-0.1609,-0.04301 -0.27912,-0.16125 -0.37557,-0.37593c-0.23073,-0.51202 -0.0604,-1.72514 0.2216,-2.50027l0.04436,-0.12177l-0.10187,-0.08061c-0.02496,-0.01991 -2.79289,-2.0368 -3.07251,-4.92701c-0.24372,-2.51931 1.02894,-3.95371 1.557,-4.74201l0.3034,-0.50528c0.383,-0.9318 -0.33783,-2.22772 -0.97398,-3.37118c-0.3798,-0.68269 -0.99286,-1.67892 -0.8544,-1.91303c0.15365,-0.25938 0.70278,0.01669 1.25731,0.28116c0.44964,0.21487 0.88224,0.51843 1.18259,0.31823c0.31235,-0.20795 0.10743,-0.73026 -0.1764,-1.45328c-0.26698,-0.67899 -0.77244,-1.7516 -0.57832,-2.19432c0.05346,-0.12177 0.14724,-0.20729 0.2867,-0.26141c0.51576,-0.19968 1.25309,0.66905 1.84996,1.34854c0.72807,0.82961 1.5538,1.76968 2.51257,1.2477v0z" fill="#ffc93e" stroke="#603813" stroke-width="0.65" stroke-linecap="round" stroke-linejoin="round"/><g stroke="none" stroke-width="0.65" stroke-linecap="butt" stroke-linejoin="miter"><path d="M251.59885,185.04664v0c0,-0.75858 0.6149,-1.37384 1.37369,-1.37417c0.75843,0 1.37332,0.61559 1.37332,1.37417c0,0.75809 -0.61474,1.37285 -1.37332,1.37285c-0.75861,0 -1.37369,-0.61474 -1.37369,-1.37285z" fill="#ffffff"/><path d="M253.15737,184.04282c0.26663,0 0.50831,0.1083 0.68321,0.28335c0.17505,0.1749 0.28332,0.41656 0.28332,0.6832c0,0.26665 -0.10827,0.50834 -0.28332,0.68321c-0.1749,0.17507 -0.41659,0.28335 -0.68321,0.28335c-0.26665,0 -0.50832,-0.10827 -0.6832,-0.28335c-0.17507,-0.17488 -0.28334,-0.41656 -0.28334,-0.68321c0,-0.26665 0.10827,-0.5083 0.28334,-0.6832c0.17488,-0.17505 0.41656,-0.28335 0.6832,-0.28335z" fill="#603813"/></g><g stroke="none" stroke-width="0.65" stroke-linecap="butt" stroke-linejoin="miter"><path d="M258.21541,185.04664v0c0,-0.75858 0.61489,-1.37384 1.37383,-1.37417c0.75843,0 1.37336,0.61559 1.37336,1.37417c0,0.75809 -0.61526,1.37285 -1.37336,1.37285c-0.75894,0 -1.37383,-0.61474 -1.37383,-1.37285z" fill="#ffffff"/><path d="M258.80722,185.00938v0c0,-0.53362 0.43243,-0.96655 0.96638,-0.96655c0.5336,0 0.96652,0.43311 0.96652,0.96655c0,0.53413 -0.43293,0.9662 -0.96652,0.9662c-0.53396,0 -0.96638,-0.43242 -0.96638,-0.9662z" fill="#603813"/></g><g stroke-linejoin="miter"><path d="M262.38004,194.60874v-13.27365h7.9057v13.27365z" fill="#d8d8d8" stroke="none" stroke-width="0" stroke-linecap="butt"/><path d="M266.34862,180.97998l4.52196,1.96286" fill="#ffc500" stroke="#888888" stroke-width="1" stroke-linecap="round"/><path d="M265.05581,178.60346c0,0 0.3515,-0.87873 0.85706,-0.72247c0.72765,0.22491 0.63195,0.65091 0.629,1.21122c-0.00442,0.83957 -0.18841,1.84549 -0.18841,1.84549l-4.59336,2.11624" fill="none" stroke="#888888" stroke-width="1" stroke-linecap="round"/><path d="M262.38753,194.59352v-13.35154c0,0 2.79853,1.43147 4.15955,1.43147c1.26536,0 3.74055,-1.43147 3.74055,-1.43147v13.35154z" fill="#f3f3f3" stroke="none" stroke-width="0" stroke-linecap="butt"/><path d="M259.60127,188.29479l-1.75491,-3.08871l4.53129,-3.91332l1.75491,3.08871z" fill="#f3f3f3" stroke="none" stroke-width="0" stroke-linecap="butt"/><path d="M268.40065,184.40415l1.87196,-3.08871l4.83351,3.91331l-1.87195,3.08871z" data-paper-data="{&quot;index&quot;:null}" fill="#f3f3f3" stroke="none" stroke-width="0" stroke-linecap="butt"/></g><path d="M260.02546,187.85457c0.06599,0.32743 -0.03505,0.65025 -0.29249,0.93482c-0.62974,0.69563 -2.36446,1.33926 -4.01234,1.1752c-1.12536,-0.11202 -4.07056,-1.59459 -4.32664,-2.25298c-0.02107,-0.05441 -0.0294,-0.14665 -0.00982,-0.1686c0.04125,-0.12437 0.1825,-0.2493 0.37695,-0.31054c0.53958,-0.17032 1.44105,-0.20324 2.35887,-0.16237c0.71461,0.03062 1.523,0.06665 2.34835,0.01457l0.75975,-0.05039c1.85941,-0.13266 2.62911,-0.01623 2.79737,0.82029v0z" fill="#ffc93e" stroke="#603813" stroke-width="0.65" stroke-linecap="butt" stroke-linejoin="miter"/></g></g></svg>