<svg version="1.1" xmlns="http://www.w3.org/2000/svg" xmlns:xlink="http://www.w3.org/1999/xlink" width="457.94449" height="29.79386" viewBox="0,0,457.94449,29.79386"><g transform="translate(-11.02779,-144.06336)"><g data-paper-data="{&quot;isPaintingLayer&quot;:true}" fill-rule="nonzero" stroke="none" stroke-width="1" stroke-linecap="butt" stroke-linejoin="miter" stroke-miterlimit="10" stroke-dasharray="" stroke-dashoffset="0" style="mix-blend-mode: normal"><path d="M410.3565,149.73289c0,-3.12584 2.54149,-5.66953 5.66952,-5.66953h47.2778c3.12475,0 5.66846,2.5426 5.66846,5.66844v24.12542h-58.61577z" fill="#672121"/><path d="M208.1051,173.85722h-58.61577v-24.12542c0,-3.12584 2.54371,-5.66844 5.66846,-5.66844h47.2778c3.12803,0 5.66952,2.54369 5.66952,5.66953z" fill="#736f72"/><path d="M138.87429,173.85722h-58.61577v-24.12542c0,-3.12584 2.54371,-5.66844 5.66846,-5.66844h47.2778c3.12803,0 5.66952,2.54369 5.66952,5.66953z" fill="#736f72"/><path d="M69.64356,173.85722h-58.61577v-24.12542c0,-3.12584 2.5437,-5.66844 5.66846,-5.66844h47.2778c3.12803,0 5.66952,2.54369 5.66952,5.66953z" fill="#736f72"/><path d="M277.33597,173.85722h-58.61577v-24.12542c0,-3.12584 2.54371,-5.66844 5.66846,-5.66844h47.2778c3.12803,0 5.66952,2.54369 5.66952,5.66953z" fill="#797a80"/></g></g></svg>