<svg version="1.1" xmlns="http://www.w3.org/2000/svg" xmlns:xlink="http://www.w3.org/1999/xlink" width="99.20614" height="119.40827" viewBox="0,0,99.20614,119.40827"><g transform="translate(-190.39693,-120.29588)"><g data-paper-data="{&quot;isPaintingLayer&quot;:true}" stroke-miterlimit="10" stroke-dasharray="" stroke-dashoffset="0" style="mix-blend-mode: normal"><path d="M289.60307,129.31305v101.37565c0,4.97152 -4.04218,9.01545 -9.01718,9.01545h-81.17351c-4.96979,0 -9.01545,-4.04392 -9.01545,-9.01544v-101.37738c0,-4.97152 4.04566,-9.01545 9.01545,-9.01545h81.17351c4.975,0 9.01718,4.04566 9.01718,9.01719z" fill-opacity="0.74902" fill="#d2d3d4" fill-rule="nonzero" stroke="none" stroke-width="1" stroke-linecap="butt" stroke-linejoin="miter"/><path d="M287.06513,163.26163v65.07452c0,4.97152 -4.04219,9.01545 -9.01719,9.01545l-76.09761,0.25093c-4.96979,0 -9.01545,-4.04392 -9.01545,-9.01545v-65.07627z" fill-opacity="0.85882" fill="#ffffff" fill-rule="nonzero" stroke="none" stroke-width="1" stroke-linecap="butt" stroke-linejoin="miter"/><text transform="translate(197.4876,200.16945) scale(0.28036,0.28036)" font-size="40" xml:space="preserve" fill="#000000" fill-rule="nonzero" stroke="#000000" stroke-width="1" stroke-linecap="butt" stroke-linejoin="miter" stroke-miterlimit="10" stroke-dasharray="" stroke-dashoffset="0" font-family="&quot;ヒラギノ角ゴ Pro W3&quot;, &quot;Hiragino Kaku Gothic Pro&quot;, Osaka, &quot;メイリオ&quot;, Meiryo, &quot;ＭＳ Ｐゴシック&quot;, &quot;MS PGothic&quot;" font-weight="normal" text-anchor="start" style="mix-blend-mode: normal"><tspan x="0" dy="0">八百屋</tspan></text><g fill-rule="nonzero" stroke="none" stroke-linecap="butt" stroke-linejoin="miter"><g fill="#45b5e6" stroke-width="0"><path d="M208.75315,213.93832l-6.05509,-6.05509l0.90827,-0.90827l6.05509,6.05509z"/><path d="M207.66481,204.70311c0.3036,0.3036 0.30354,0.79598 0,1.09952l-6.13918,6.13917c-0.3036,0.3036 -0.79592,0.30347 -1.09945,-0.00006l-2.54359,-2.54359c-0.3036,-0.3036 -0.3036,-0.79579 0,-1.0994l6.13911,-6.13911c0.30374,-0.30374 0.79586,-0.30366 1.09946,-0.00006l2.54358,2.54358z"/></g><text transform="translate(209.44316,210.32878) scale(0.19587,0.20747)" font-size="40" xml:space="preserve" fill="#585858" fill-rule="nonzero" stroke="none" stroke-width="1" stroke-linecap="butt" stroke-linejoin="miter" stroke-miterlimit="10" stroke-dasharray="" stroke-dashoffset="0" font-family="Sans Serif" font-weight="normal" text-anchor="start" style="mix-blend-mode: normal"><tspan x="0" dy="0">62,000G</tspan></text></g><g stroke-width="1"><g data-paper-data="{&quot;index&quot;:null}"><path d="M204.68463,214.69793c0.0443,-0.02953 0.11815,-0.01477 0.13292,0.04431l0.38401,1.58035c0,0 0.94524,0.69416 1.22588,1.18158c0.47263,0.81232 0.48739,1.47697 0.48739,1.47697c0,0 1.04864,0.31017 1.22589,1.15203c0.17723,0.84187 -0.47263,2.43699 -3.24931,2.98347c-2.7767,0.54647 -5.00691,-0.20678 -6.05557,-1.89052c-1.04864,-1.68374 0.60554,-3.69241 0.51693,-3.57425l-0.31017,-2.64377c-0.01477,-0.05909 0.05908,-0.10339 0.11814,-0.07385l1.78713,1.16681c0,0 0.66464,-0.25109 1.35881,-0.28063c0.41356,-0.02953 0.76802,0 1.10772,0.05909z" fill="#45b5e6" fill-rule="evenodd" stroke="#45b5e6" stroke-linecap="butt" stroke-linejoin="miter"/><path d="M209.58817,219.20268c-0.69417,0.56124 -1.7576,0.57601 -1.7576,0.57601" fill="#45b5e6" fill-rule="evenodd" stroke="#45b5e6" stroke-linecap="round" stroke-linejoin="round"/><path d="M209.39615,220.85687c-0.93048,0.07385 -1.50651,-0.20676 -1.50651,-0.20676" fill="#45b5e6" fill-rule="evenodd" stroke="#45b5e6" stroke-linecap="round" stroke-linejoin="round"/><path d="M197.72814,219.15836c0,0 1.27017,0.41356 1.78711,0.87141" fill="#45b5e6" fill-rule="evenodd" stroke="#45b5e6" stroke-linecap="round" stroke-linejoin="round"/><path d="M199.55957,220.54671c-0.6351,0.25108 -1.72804,0.08862 -1.72804,0.08862" fill="#45b5e6" fill-rule="evenodd" stroke="#45b5e6" stroke-linecap="round" stroke-linejoin="round"/><g fill="none" fill-rule="nonzero" stroke="none" stroke-linecap="butt" stroke-linejoin="miter" font-family="sans-serif" font-weight="normal" font-size="12" text-anchor="start"/><g fill="none" fill-rule="nonzero" stroke="none" stroke-linecap="butt" stroke-linejoin="miter" font-family="sans-serif" font-weight="normal" font-size="12" text-anchor="start"/></g><text transform="translate(209.44316,222.38156) scale(0.19588,0.20747)" font-size="40" xml:space="preserve" fill="#585858" fill-rule="nonzero" stroke="none" stroke-width="1" stroke-linecap="butt" stroke-linejoin="miter" stroke-miterlimit="10" stroke-dasharray="" stroke-dashoffset="0" font-family="Sans Serif" font-weight="normal" text-anchor="start" style="mix-blend-mode: normal"><tspan x="0" dy="0">235G</tspan></text></g><g fill-rule="nonzero" stroke="none" stroke-linecap="butt"><path d="M248.03087,215.93531c0.41438,-0.94222 1.30869,-1.59712 2.34778,-1.59712c1.4325,0 2.5951,1.24099 2.5951,2.77006c0,3.0114 -4.94287,7.00154 -4.94287,7.00154c0,0 -4.94286,-3.89088 -4.94286,-7.00154c0,-1.52908 1.1626,-2.77006 2.5951,-2.77006c1.03907,0 1.9334,0.65487 2.34776,1.59712z" fill="#45b5e6" stroke-width="0" stroke-linejoin="round"/><text transform="translate(253.23743,222.41856) scale(0.19589,0.20748)" font-size="40" xml:space="preserve" fill="#585858" fill-rule="nonzero" stroke="none" stroke-width="1" stroke-linecap="butt" stroke-linejoin="miter" stroke-miterlimit="10" stroke-dasharray="" stroke-dashoffset="0" font-family="Sans Serif" font-weight="normal" text-anchor="start" style="mix-blend-mode: normal"><tspan x="0" dy="0">6%</tspan></text></g><g fill-rule="nonzero" stroke="none" stroke-linecap="butt" stroke-linejoin="miter"><g fill="#45b5e6" stroke-width="0"><path d="M241.85852,206.60629l5.64578,-1.34827l3.23916,3.23917l-1.34825,5.64577l-3.23077,-3.23077l-0.02081,-1.06159h-1.04078z"/><path d="M254.06963,202.84012l-4.99544,4.99545l-0.90828,-0.90827l4.99544,-4.99545z"/></g><text transform="translate(252.97427,210.4311) scale(0.19589,0.20748)" font-size="40" xml:space="preserve" fill="#585858" fill-rule="nonzero" stroke="none" stroke-width="1" stroke-linecap="butt" stroke-linejoin="miter" stroke-miterlimit="10" stroke-dasharray="" stroke-dashoffset="0" font-family="Sans Serif" font-weight="normal" text-anchor="start" style="mix-blend-mode: normal"><tspan x="0" dy="0">480G</tspan></text></g><g><path d="M194.89041,186.32393v-60.49176h90.21921v60.49176z" data-paper-data="{&quot;index&quot;:null}" fill="#ffd5ad" fill-rule="nonzero" stroke="#666666" stroke-width="2" stroke-linecap="butt" stroke-linejoin="miter"/><g data-paper-data="{&quot;index&quot;:null}" fill-rule="evenodd" stroke-width="0.5"><g><path d="M219.24408,168.81686c1.19431,0.21076 3.47754,-1.12405 3.79369,-0.94842c0.28101,0.14051 0.87815,0.45665 0.03512,1.65096c-0.84303,1.1943 -3.26678,1.44019 -3.54779,1.44019c-1.08893,0.03512 -2.42374,0.03513 -3.89907,-0.45665c-4.28545,-1.40507 -4.32058,-6.00666 -2.95064,-6.74432c1.33482,-0.73766 1.93197,2.1076 3.86394,3.82881c0.84304,0.77279 1.86172,1.05381 2.70476,1.22944z" fill="#ffab19" stroke="#001026" stroke-linecap="round" stroke-linejoin="round"/><path d="M212.88616,163.82888c0.70253,-0.14051 0.87816,0.38639 1.44019,1.1943c0.56203,0.94842 1.65096,2.28323 1.65096,2.28323c0,0 -1.29968,-0.31615 -2.03734,0.28101c-0.59715,0.45665 -0.45665,1.22944 -0.3864,1.47533c-0.45665,-0.45665 -1.01867,-1.08892 -1.36994,-2.31836c-0.35127,-1.22944 0,-2.70476 0.70253,-2.91552z" fill="#ffffff" stroke="none" stroke-linecap="butt" stroke-linejoin="miter"/></g><path d="M228.55268,164.91781c0.03512,-0.98355 1.22943,-1.22943 1.82659,-0.70253c0.17563,0.14051 2.31836,2.66963 3.02089,2.03734c0.84303,-0.73766 2.00222,-2.17785 3.26678,-1.01867c1.26456,1.15918 -1.12406,3.12627 -2.14273,3.65317c-2.42374,1.08892 -4.39084,-0.98355 -4.81236,-1.54558c-0.42152,-0.56203 -1.15918,-1.51045 -1.15918,-2.42374z" fill="#ffab19" stroke="#001026" stroke-linecap="round" stroke-linejoin="round"/><g><path d="M230.41438,172.39978c0.73765,0.6674 2.35348,2.03735 2.35348,2.03735c0,0 5.02311,-0.87816 5.02311,1.65096c0,1.51045 -2.52911,1.86172 -5.9364,1.54558c-0.21076,-0.03512 -0.42153,-0.10538 -0.59715,-0.24589c-0.77278,-0.6674 -2.98577,-2.6345 -4.39083,-4.00444c-2.07247,-2.03735 -3.79369,-3.37216 -3.79369,-3.37216c-2.98577,-2.91552 -0.56203,-4.14495 0.3864,-5.83103c0.87816,-1.44019 1.26456,-1.15918 3.37216,-0.73766c1.19431,0.17563 1.89684,0.28101 2.66963,0.24589c1.15918,-0.03513 0.94843,1.65095 0.63228,2.52912c0,0 -0.49177,1.29969 -0.94841,1.96709c-0.56203,0.80791 -0.98355,1.3348 -1.40507,1.65095z" fill="#ffab19" stroke="#001026" stroke-linecap="round" stroke-linejoin="round"/><path d="M229.32545,167.48206c-0.77278,1.5807 -1.86171,2.31836 -1.86171,2.31836c0,0 -0.5269,-0.42153 -1.08892,-0.94842c-0.70253,-0.63228 -1.40507,-1.15919 -0.70253,-2.24811c0.63228,-0.84304 1.22944,-1.96709 2.81014,-0.94842c1.51045,0.94842 0.84303,1.82659 0.84303,1.82659z" fill="#ffffff" stroke="none" stroke-linecap="butt" stroke-linejoin="miter"/></g><path d="M222.15962,166.92001c0.77278,0.98355 1.96709,2.21299 0.45665,3.23166c-2.07247,1.15918 -3.79369,-2.35348 -4.14495,-3.58292c-0.31614,-1.08893 0.59716,-1.79146 1.36995,-2.38862c1.51045,-1.08892 2.77501,-2.07247 4.18008,-1.54558c1.75634,0.63228 0.49178,2.03734 -0.3864,2.66963c-0.5269,0.3864 -1.0538,0.80791 -1.4402,1.0538c-0.10538,0.17563 -0.1405,0.3864 -0.03512,0.56203z" fill="#ffab19" stroke="#001026" stroke-linecap="round" stroke-linejoin="round"/><g><path d="M233.2245,143.24464c0.10538,-0.07026 0.28102,-0.03513 0.31614,0.10538l0.91329,3.75855c0,0 2.24811,1.65096 2.91552,2.81014c1.12406,1.93196 1.15918,3.51266 1.15918,3.51266c0,0 2.494,0.73767 2.91552,2.73989c0.42152,2.00221 -1.12405,5.79589 -7.72787,7.09558c-6.60382,1.29969 -11.90795,-0.49178 -14.40194,-4.49621c-2.49399,-4.00444 1.4402,-8.78166 1.22944,-8.50065l-0.73766,-6.28768c-0.03512,-0.14051 0.14051,-0.2459 0.28102,-0.17564l4.25033,2.77501c0,0 1.58071,-0.59715 3.23166,-0.6674c0.98355,-0.07025 1.82659,0 2.6345,0.14051z" fill="#ffab19" stroke="#001026" stroke-linecap="butt" stroke-linejoin="miter"/><path d="M232.62735,155.29308c2.52913,-0.17563 2.81014,-2.38861 5.79591,-1.72121c0,0 2.42374,0.63228 2.84526,2.6345c0.42153,2.00222 -1.26455,5.62027 -7.79812,6.88483c-8.50066,1.75634 -12.54023,-3.3019 -10.18674,-7.02533c2.35349,-3.75855 6.39306,-0.56203 9.3437,-0.77278z" fill="#ffffff" stroke="none" stroke-linecap="butt" stroke-linejoin="miter"/><path d="M227.35835,157.33044c0,-0.14051 0.1405,-0.24589 0.28101,-0.21077c0.6674,0.24589 2.56425,0.80791 4.67185,0.94842c1.89684,0.10538 3.02089,0 3.54779,-0.10538c0.17564,-0.03512 0.31615,0.14051 0.24589,0.31614c-0.31614,0.94842 -1.65095,3.58292 -5.33925,3.37216c-3.19652,-0.35127 -3.51267,-2.59937 -3.40729,-4.32058z" fill="#ffffff" stroke="#001026" stroke-linecap="round" stroke-linejoin="round"/><path d="M244.88657,153.95827c-1.65096,1.33481 -4.18008,1.36994 -4.18008,1.36994" fill="none" stroke="#001026" stroke-linecap="round" stroke-linejoin="round"/><path d="M244.42991,157.89246c-2.21298,0.17564 -3.58292,-0.49177 -3.58292,-0.49177" fill="none" stroke="#001026" stroke-linecap="round" stroke-linejoin="round"/><path d="M232.48685,154.3798c0.73766,0 1.51046,0.07025 1.54558,0.31614c0.03512,0.49178 -0.49178,1.47533 -1.0538,1.51045c-0.63228,0.07026 -2.1076,-0.80791 -2.1076,-1.36994c-0.03513,-0.42153 0.91329,-0.45665 1.61583,-0.45665z" fill="#001026" stroke="#001026" stroke-linecap="round" stroke-linejoin="round"/><path d="M216.67983,153.85289c0,0 3.02089,0.98355 4.25033,2.07247" fill="none" stroke="#001026" stroke-linecap="round" stroke-linejoin="round"/><path d="M221.03556,157.1548c-1.51045,0.59715 -4.10982,0.21076 -4.10982,0.21076" fill="none" stroke="#001026" stroke-linecap="round" stroke-linejoin="round"/><g><path d="M236.6318,150.26997c1.01867,1.5807 1.05381,3.37215 0.07026,4.00444c-0.98355,0.63228 -2.59938,-0.10538 -3.65318,-1.68608c-1.01867,-1.5807 -1.0538,-3.37215 -0.07025,-4.00444c0.98354,-0.6674 2.6345,0.10538 3.65317,1.68608z" fill="#ffffff" stroke="#001026" stroke-linecap="round" stroke-linejoin="round"/><path d="M236.4913,152.27219c0,0.38639 -0.28102,0.70253 -0.63228,0.70253c-0.35128,0 -0.63228,-0.31614 -0.63228,-0.70253c0,-0.3864 0.28102,-0.70253 0.63228,-0.70253c0.35128,0 0.63228,0.31614 0.63228,0.70253" fill="#001026" stroke="none" stroke-linecap="butt" stroke-linejoin="miter"/></g><g><path d="M224.1267,149.67282c1.08892,-0.80791 2.73988,0.03513 3.79368,1.58071c1.0538,1.54557 0.98355,3.44241 0.03513,4.10982c-1.15918,0.6674 -2.70476,0.17563 -3.75856,-1.36995c-1.08892,-1.54558 -1.15917,-3.5478 -0.07025,-4.32058z" fill="#ffffff" stroke="#001026" stroke-linecap="round" stroke-linejoin="round"/><path d="M227.70962,153.29087c0,0.38639 -0.28102,0.70253 -0.63228,0.70253c-0.35128,0 -0.63228,-0.31614 -0.63228,-0.70253c0,-0.38639 0.28102,-0.70253 0.63228,-0.70253c0.35128,0.03512 0.63228,0.31613 0.63228,0.70253" fill="#001026" stroke="none" stroke-linecap="butt" stroke-linejoin="miter"/></g></g></g><path d="M195.90986,185.40643v-3.6523h88.18031v3.6523z" fill="#c0c0c0" fill-rule="nonzero" stroke="none" stroke-width="0" stroke-linecap="butt" stroke-linejoin="miter"/><path d="M228.92158,169.09539v12.65874h-33.0117v-12.65874z" fill="#ccab3e" fill-rule="nonzero" stroke="none" stroke-width="0" stroke-linecap="butt" stroke-linejoin="miter"/><path d="M284.0901,169.09539v12.65874h-33.0117v-12.65874z" data-paper-data="{&quot;index&quot;:null}" fill="#ccab3e" fill-rule="nonzero" stroke="none" stroke-width="0" stroke-linecap="butt" stroke-linejoin="miter"/><path d="M195.90987,169.09539v-8.6359h33.0117v8.6359z" fill="#e3c684" fill-rule="nonzero" stroke="none" stroke-width="0" stroke-linecap="butt" stroke-linejoin="miter"/><path d="M251.07843,169.09539v-8.6359h33.0117v8.6359z" data-paper-data="{&quot;index&quot;:null}" fill="#e3c684" fill-rule="nonzero" stroke="none" stroke-width="0" stroke-linecap="butt" stroke-linejoin="miter"/><g fill-rule="nonzero" stroke="none" stroke-linecap="butt" stroke-linejoin="miter"><path d="M213.18587,164.23688c-0.04591,-0.97759 1.0343,-1.58081 1.72066,-1.43304c0.13585,0.02925 0.41871,0.23003 0.41036,0.06696c-0.07763,-1.5155 -0.11591,-3.60945 1.27635,-4.43304c0.99073,-0.58606 1.695,0.14574 2.35498,0.78242c0.2347,0.22641 0.39448,-0.56231 0.65519,-0.74459c0.5359,-0.37468 1.09044,-0.48471 1.69902,-0.56015c1.14855,-0.14237 2.07167,2.06604 2.87656,2.8489c0.69063,0.67173 3.04205,-1.06475 3.8363,0.57967c2.29237,4.74617 -6.89691,5.0625 -8.23296,5.0625c-0.09272,0.72038 -0.61855,1.27232 -1.25334,1.27232c-0.36044,0 -0.68575,-0.17794 -0.91659,-0.46363c-1.51999,-0.79516 -4.39891,-2.39013 -4.42653,-2.97833z" fill="#32ad26" stroke-width="0.5"/><path d="M228.24679,164.55318c0,1.91118 -3.4018,3.46049 -7.59814,3.46049c-4.19634,0 -7.59813,-1.54931 -7.59813,-3.46049c0,-1.91118 15.19627,-1.91118 15.19627,0z" fill="#a17d09" stroke-width="0"/></g><g fill-rule="nonzero" stroke="none" stroke-linecap="butt" stroke-linejoin="miter"><path d="M206.55866,167.41098c-0.29698,-0.0889 -0.68696,-0.73782 -1.00084,-1.58123c-0.61951,0.31255 -1.67946,0.84416 -2.51574,0.94827c-0.17005,0.06322 -0.35902,0.09724 -0.56824,0.09724c-0.05706,0 -0.11256,-0.00691 -0.16647,-0.02027c-0.11785,0.08352 -0.26059,0.15448 -0.43061,0.21116c-1.41351,0.47117 -5.97878,-5.05825 -4.44564,-5.93433c0.26092,-0.44211 0.74219,-0.73869 1.29272,-0.73869c0.76632,0 1.39844,0.57466 1.4889,1.31655c0.29438,0.30637 0.60094,0.64764 0.89523,1.00601c0.10102,-0.8322 0.36411,-1.5301 0.80975,-1.78476c0.26092,-0.44211 0.74219,-0.7387 1.29273,-0.7387c0.82843,0 1.5,0.67157 1.5,1.5c0,0.41124 -0.16549,0.78382 -0.4335,1.05479c0.01,0.0736 0.01904,0.14771 0.02711,0.22216c0.24738,-0.16328 0.50198,-0.32072 0.75847,-0.47007c0.08162,-0.46894 0.27037,-0.84114 0.60519,-1.03247c0.26092,-0.44211 0.74219,-0.7387 1.29273,-0.7387c0.4312,0 0.8199,0.18195 1.09352,0.47325c0.20985,-0.04565 0.3895,-0.0656 0.52973,-0.05593c0.19754,-0.09577 0.41926,-0.14947 0.65353,-0.14947c0.82843,0 1.5,0.67157 1.5,1.5c0,0.59821 -0.35018,1.11463 -0.85673,1.35546c-0.37687,0.33718 -0.94416,0.60715 -1.57584,0.85934c-0.1388,1.60116 -0.80441,2.98223 -1.746,2.70038z" fill="#ce650c" stroke-width="0.5"/><path d="M211.64702,164.55318c0,1.91118 -3.4018,3.46049 -7.59813,3.46049c-4.19634,0 -7.59814,-1.54931 -7.59814,-3.46049c0,-1.91118 15.19627,-1.91118 15.19627,0z" fill="#a17d09" stroke-width="0"/></g><g fill-rule="nonzero" stroke="none" stroke-linecap="butt" stroke-linejoin="miter"><g stroke-width="0.5"><path d="M263.6843,165.48806c-0.25948,-0.06836 -0.62514,-0.32611 -1.0099,-0.69191c-0.0988,0.2423 -0.30548,0.52262 -0.65074,0.84999c-0.15691,0.14878 -0.75378,0.57034 -0.92594,0.6173c-0.90561,0.24698 -2.37897,-0.45523 -3.4424,-1.38957c0.00039,0.01666 0.00059,0.03356 0.00059,0.05068c0,4.86788 -9.14389,-2.6901 -5.13647,-4.98005c0.26093,-0.44211 0.74219,-0.7387 1.29272,-0.7387c0.82843,0 1.5,0.67157 1.5,1.5c0,0.23601 -0.05451,0.45929 -0.15162,0.65794c0.09563,0.42406 0.14254,0.85759 0.15162,1.25861c0.01553,0.68638 0.66597,0.77534 1.27763,0.97669c-0.13996,-0.2638 -0.22236,-0.52236 -0.22934,-0.76256c-0.01068,-0.36788 -0.18669,-3.34501 0.95354,-3.32075c0.21299,-0.11611 0.45725,-0.18209 0.71691,-0.18209c0.82843,0 1.5,0.67157 1.5,1.5c0,0.32361 -0.10248,0.62328 -0.27675,0.86834c0.05137,0.23805 0.08683,0.47762 0.1063,0.71445c0.03739,0.45502 1.20639,0.65481 2.16023,0.99577c-0.72295,-1.09355 -1.11141,-2.30248 -0.26545,-2.78589c0.26093,-0.44211 0.74219,-0.7387 1.29272,-0.7387c0.82843,0 1.5,0.67157 1.5,1.5c0,0.07038 -0.00485,0.13964 -0.01423,0.20744c1.28412,1.91385 2.37806,4.61152 -0.34943,3.89301z" fill="#5058e8"/><path d="M252.44002,160.27965c0,-0.82843 0.67157,-1.5 1.5,-1.5c0.82843,0 1.5,0.67157 1.5,1.5c0,0.82843 -0.67157,1.5 -1.5,1.5c-0.82843,0 -1.5,-0.67157 -1.5,-1.5z" fill="#50c046"/><path d="M256.70135,160.32227c0,-0.82843 0.67157,-1.5 1.5,-1.5c0.82843,0 1.5,0.67157 1.5,1.5c0,0.82843 -0.67157,1.5 -1.5,1.5c-0.82843,0 -1.5,-0.67157 -1.5,-1.5z" fill="#50c046"/><path d="M261.17579,160.32227c0,-0.82843 0.67157,-1.5 1.5,-1.5c0.82843,0 1.5,0.67157 1.5,1.5c0,0.82843 -0.67157,1.5 -1.5,1.5c-0.82843,0 -1.5,-0.67157 -1.5,-1.5z" fill="#50c046"/></g><g fill="#a17d09" stroke-width="0"><path d="M266.81554,164.55317c0,1.91117 -3.4018,3.46049 -7.59813,3.46049c-4.19633,0 -7.59814,-1.54931 -7.59814,-3.46049c0,-1.91117 15.19627,-1.91117 15.19627,0z"/></g></g><g fill-rule="nonzero" stroke="none" stroke-linecap="butt" stroke-linejoin="miter"><g stroke-width="0.5"><path d="M280.73311,161.21041c0.13006,-0.03679 2.56858,1.38287 2.33452,2.00289c-0.0198,0.62997 0.38161,1.28983 -0.18352,1.49233c-0.65708,0.65644 -1.53089,1.31867 -2.38306,1.86817c-0.87421,-0.59749 -1.83913,-1.05865 -2.85133,-1.37042c-0.62485,-0.19757 -1.27625,-0.33542 -1.94748,-0.40686c-1.39971,-0.15857 -2.83476,-0.03943 -4.2035,0.38798c-0.48283,-0.46231 -0.84018,-0.82479 -0.989,-0.9601c-0.43109,-0.39193 -2.15223,-1.80933 -2.01624,-2.30796c-0.03102,-0.12016 -0.04752,-0.24617 -0.04752,-0.37602c0,-0.82843 0.67158,-1.5 1.5,-1.5c0.55966,-0.43331 1.67665,1.09462 2.02312,1.43993c0.24827,0.24744 1.21603,0.89763 2.30133,1.72326c0.81775,-1.9037 1.87583,-3.64915 2.08662,-3.7696c0.26092,-0.44211 0.74219,-0.7387 1.29272,-0.7387c0.82843,0 1.5,0.67157 1.5,1.5c0,0.40391 -0.15964,0.77052 -0.41927,1.0402c-0.05476,0.99558 -0.39392,2.12611 -0.87401,3.1831c1.38588,-1.15404 2.8247,-3.19351 2.8766,-3.20819z" fill="#e4ffe3"/><path d="M267.85904,159.30944c0.25843,-0.23952 1.09206,-0.70592 1.3125,-0.75c3.75322,-0.75064 -0.03274,6.34012 -1.61728,3.56718c-0.44211,-0.26092 -0.7387,-0.74219 -0.7387,-1.29272c0,-0.61169 0.36614,-1.13787 0.89121,-1.37132c0.04869,-0.05294 0.09934,-0.10408 0.15227,-0.15314z" fill="#32ad26"/><path d="M279.94871,157.27954c0.64062,0.64062 0.97774,1.37325 0.42859,2.06484c-2.37413,2.98999 -5.5717,-1.6694 -4.06099,-2.53267c0.26093,-0.44211 0.74219,-0.7387 1.29273,-0.7387c0.4376,0 0.83143,0.18738 1.10564,0.48629c0.45407,0.18182 0.8945,0.38068 1.23404,0.72023z" fill="#32ad26"/><path d="M284.02256,163.18691c0.11057,1.99025 -5.20857,1.7679 -3.66422,-2.093l0.00846,-0.03384c0.15159,-0.66798 0.74897,-1.16664 1.46283,-1.16664c0.80943,0 1.46911,0.64112 1.49894,1.44326c0.39328,0.58898 0.66262,1.28555 0.69399,1.85022z" fill="#32ad26"/></g><g fill="#a17d09" stroke-width="0"><path d="M283.41532,164.55317c0,1.91117 -3.4018,3.46049 -7.59814,3.46049c-4.19634,0 -7.59814,-1.54931 -7.59814,-3.46049c0,-1.91117 15.19627,-1.91117 15.19627,0z"/></g></g><g data-paper-data="{&quot;index&quot;:null}" fill-rule="evenodd" stroke-linejoin="miter"><g fill="none" stroke="#ffffff" stroke-width="2.52" stroke-linecap="round"><path d=""/><path d=""/></g><g fill="none" stroke="#cc48cc" stroke-width="1.512" stroke-linecap="round"><path d=""/><path d=""/><path d=""/><path d=""/><path d=""/><path d=""/><path d=""/><path d=""/><path d=""/><path d=""/><path d=""/><path d=""/><path d=""/><path d=""/><path d=""/><path d=""/><path d=""/><path d=""/><path d=""/><path d=""/><path d=""/></g><path d="" fill="none" stroke="#5e154d" stroke-width="1.512" stroke-linecap="butt"/><g stroke="#4b4b4b" stroke-width="1.512" stroke-linecap="round"><path d="M283.43049,127.43451v12.32065c0,0.20623 -0.01296,0.40943 -0.03811,0.60885c-0.29954,2.37492 -2.32819,4.2118 -4.78624,4.2118c-2.66455,0 -4.82445,-2.15831 -4.82445,-4.82065v-12.32065z" fill="#84d78c"/><path d="M273.61369,127.43451v12.32065c0.17055,1.82182 -0.70587,3.58315 -2.26247,4.54694c-1.5567,0.96369 -3.52527,0.96369 -5.08197,0c-1.5567,-0.96379 -2.43312,-2.72513 -2.26247,-4.54694v-12.32065z" fill="#00a712"/><path d="M264.00686,127.43451v12.32065c0,2.66235 -2.16001,4.82065 -4.82445,4.82065c-2.66445,0 -4.82445,-2.15831 -4.82445,-4.82065v-12.32065z" fill="#84d78c"/><path d="M254.35796,127.43451v12.32065c0.17055,1.82182 -0.70587,3.58315 -2.26247,4.54694c-1.5566,0.96369 -3.52517,0.96369 -5.08187,0c-1.5567,-0.96379 -2.43312,-2.72513 -2.26247,-4.54694v-12.32065z" fill="#00a712"/><path d="M244.75114,127.43451v12.32065c0,2.66235 -2.16001,4.82065 -4.82445,4.82065c-2.66455,0 -4.82445,-2.15831 -4.82445,-4.82065v-12.32065z" fill="#84d78c"/><path d="M235.1021,127.43451v12.32065c0,2.66235 -2.16001,4.82065 -4.82445,4.82065c-2.66455,0 -4.82435,-2.15831 -4.82435,-4.82065v-12.32065z" fill="#00a712"/><path d="M225.45333,127.43451v12.32065c0.17055,1.82182 -0.70587,3.58315 -2.26257,4.54694c-1.5566,0.96369 -3.52517,0.96369 -5.08187,0c-1.5567,-0.96379 -2.43312,-2.72513 -2.26247,-4.54694v-12.32065z" fill="#84d78c"/><path d="M215.84627,127.43451v12.32065c0,2.66235 -2.16001,4.82065 -4.82445,4.82065c-2.66455,0 -4.82435,-2.15831 -4.82435,-4.82065v-12.32065z" fill="#00a712"/><path d="M206.1975,127.43451v12.32065c0.17055,1.82182 -0.70587,3.58315 -2.26257,4.54694c-1.5567,0.96369 -3.52517,0.96369 -5.08187,0c-1.5567,-0.96379 -2.43312,-2.72513 -2.26257,-4.54694v-12.32065z" fill="#84d78c"/></g><path d="" fill="#5e154d" stroke="#5e154d" stroke-width="2.016" stroke-linecap="round"/></g></g><path d="M286.08836,126.38077v59.3949c0,0.9386 -0.76314,1.70207 -1.7024,1.70207h-88.77223c-0.93827,0 -1.70207,-0.76347 -1.70207,-1.70207v-59.39522c0,-0.9386 0.7638,-1.70208 1.70207,-1.70208h88.77223c0.93926,0 1.7024,0.7638 1.7024,1.7024z" fill="none" fill-rule="nonzero" stroke="#666666" stroke-width="2" stroke-linecap="butt" stroke-linejoin="miter"/><g fill-rule="nonzero" stroke="none" stroke-linecap="butt" stroke-linejoin="miter"><text transform="translate(252.9769,234.29901) scale(0.19588,0.20747)" font-size="40" xml:space="preserve" fill="#585858" fill-rule="nonzero" stroke="none" stroke-width="1" stroke-linecap="butt" stroke-linejoin="miter" stroke-miterlimit="10" stroke-dasharray="" stroke-dashoffset="0" font-family="Sans Serif" font-weight="normal" text-anchor="start" style="mix-blend-mode: normal"><tspan x="0" dy="0">-3</tspan></text><path d="M244.4761,236.41881l1.7486,-4.14478l-2.20732,-0.69125l5.87862,-5.12252l-1.71443,4.10799l2.18486,0.71764z" fill="#e6c245" stroke-width="0"/></g><g fill-rule="nonzero" stroke="none" stroke-linecap="butt" stroke-linejoin="miter"><text transform="translate(209.44316,234.20486) scale(0.19588,0.20747)" font-size="40" xml:space="preserve" fill="#585858" fill-rule="nonzero" stroke="none" stroke-width="1" stroke-linecap="butt" stroke-linejoin="miter" stroke-miterlimit="10" stroke-dasharray="" stroke-dashoffset="0" font-family="Sans Serif" font-weight="normal" text-anchor="start" style="mix-blend-mode: normal"><tspan x="0" dy="0">-4</tspan></text><path d="M200.35963,232.99861c0,-1.82173 3.29853,-6.42346 3.29853,-6.42346c0,0 3.29853,4.60173 3.29853,6.42346c0,1.82173 -1.4768,3.29853 -3.29853,3.29853c-1.82173,0 -3.29853,-1.4768 -3.29853,-3.29853z" fill="#0079cd" stroke-width="NaN"/></g></g></g></svg>