<svg version="1.1" xmlns="http://www.w3.org/2000/svg" xmlns:xlink="http://www.w3.org/1999/xlink" width="110.59434" height="110.59434" viewBox="0,0,110.59434,110.59434"><g transform="translate(-184.70283,-124.70283)"><g data-paper-data="{&quot;isPaintingLayer&quot;:true}" fill-rule="nonzero" stroke-miterlimit="10" stroke-dasharray="" stroke-dashoffset="0" style="mix-blend-mode: normal"><path d="M239.96582,196.01273c0,-0.51423 0.14424,-1.25292 0.94216,-1.41966c1.15118,-0.24149 2.46831,0.92419 2.82654,1.26716c-0.02649,0.13648 0.42146,2.89026 0.42146,3.12901c0,0.8072 -0.21572,0.83919 -0.29945,0.85245c-0.78821,0.11474 -2.88878,-2.09411 -3.85296,-3.37924c-0.01326,-0.06975 -0.03776,-0.22499 -0.03776,-0.44972v0z" fill="#ffc93e" stroke="#603813" stroke-width="0.65" stroke-linecap="butt" stroke-linejoin="miter"/><path d="M236.77404,199.87142c-0.57143,-0.61996 -0.65293,-2.30007 -0.65293,-3.01476c0,-0.30326 0.01549,-0.50496 0.01624,-0.51121l0.00102,-0.01552c0,0 -0.00178,-0.06474 -0.00178,-0.08848c0,-1.34591 1.23917,-1.81312 1.44916,-1.88335c0.71744,0.00874 1.95759,0.34821 2.25357,0.86044c0.03,0.05147 0.05799,0.11647 0.05799,0.1997c0,0.07303 -0.02174,0.1615 -0.08372,0.26825c-0.02875,0.04898 -0.53823,1.25292 -0.96919,2.1761l-0.30796,0.8537c-0.23049,0.74592 -0.59321,1.49238 -0.98795,1.49238c-0.31196,0.00049 -0.56521,-0.10999 -0.77445,-0.33724v0z" fill="#ffc93e" stroke="#603813" stroke-width="0.65" stroke-linecap="butt" stroke-linejoin="miter"/><path d="M253.40069,182.66217l-0.61019,0.95117c-0.65582,1.03514 -1.1881,2.11231 -1.6561,3.06151c-0.60354,1.22123 -1.28931,2.36847 -1.89552,2.94801c-0.21832,0.20882 -0.48224,0.30262 -0.67352,0.26833c-0.04186,0.00906 -0.15616,-0.06692 -0.21126,-0.13394c-0.67294,-0.80283 -0.49537,-5.68687 0.16258,-7.22861c0.96338,-2.25836 3.0388,-4.05173 4.39058,-4.37333c0.55264,-0.13089 1.04519,-0.03207 1.4232,0.28753c0.96608,0.8171 0.56888,1.89851 -0.92978,4.21934v0z" fill="#ffc93e" stroke="#603813" stroke-width="0.65" stroke-linecap="butt" stroke-linejoin="miter"/><path d="M236.25134,171.33608c1.50466,-0.81771 -0.04823,-3.89649 -1.55063,-6.87473c-0.82118,-1.6284 -2.28556,-4.37868 -1.80962,-4.63641c0.92069,-0.49896 5.31911,4.69165 7.10224,6.78373l1.81761,2.07037c0,0 1.29941,1.59411 2.29381,2.64556c0.01752,0.01824 0.95769,-0.12774 1.60716,-0.66748c0.52945,-0.4417 0.45944,-0.93591 0.62795,-1.97533c0.15472,-0.95494 0.32274,-2.68306 0.83519,-2.6918c0.77193,-0.01175 1.27941,3.17 1.47712,4.34865l0.10924,0.63047c0.25924,1.40187 1.61164,5.61683 1.66963,5.79555c0.0185,0.04349 0.04902,0.1 0.04902,0.1l0.01123,0.02276l0.01549,0.01899c2.08838,2.59006 3.64149,5.73055 3.64149,8.67284c0,6.23054 -5.46159,10.61645 -12.77205,10.61645c-1.3559,0 -2.68203,-0.18999 -3.9417,-0.56348l-0.06775,-0.01948c0,0 -1.97733,-0.16625 -4.50691,3.15877c-0.50744,0.66744 -0.46223,1.28966 -1.17741,1.09816c-0.23848,-0.06375 -0.41373,-0.239 -0.55669,-0.55722c-0.34199,-0.75893 -0.08953,-2.55705 0.32846,-3.70597l0.06576,-0.18049l-0.15099,-0.11948c-0.037,-0.02951 -4.13971,-3.01901 -4.55416,-7.30296c-0.36124,-3.73419 1.52513,-5.86029 2.30783,-7.02873l0.44971,-0.74894c0.56769,-1.38115 -0.50074,-3.302 -1.44366,-4.99687c-0.56295,-1.01191 -1.47165,-2.48854 -1.26641,-2.83554c0.22774,-0.38446 1.04168,0.02475 1.86361,0.41674c0.66646,0.31848 1.30767,0.76843 1.75286,0.47169c0.46298,-0.30823 0.15924,-1.08241 -0.26146,-2.15409c-0.39572,-1.00642 -1.14493,-2.59628 -0.8572,-3.25249c0.07924,-0.18049 0.21825,-0.30725 0.42496,-0.38747c0.76447,-0.29598 1.85736,0.99169 2.74206,1.99885c1.07917,1.22967 2.30308,2.62306 3.72421,1.84937v0z" fill="#ffc93e" stroke="#603813" stroke-width="0.65" stroke-linecap="round" stroke-linejoin="round"/><g stroke="none" stroke-width="0.65" stroke-linecap="butt" stroke-linejoin="miter"><path d="M237.513,186.03546v0c0,-1.12439 0.91143,-2.03634 2.03612,-2.03683c1.12417,0 2.03558,0.91244 2.03558,2.03683c0,1.12367 -0.91119,2.03487 -2.03558,2.03487c-1.12443,0 -2.03612,-0.91119 -2.03612,-2.03487z" fill="#ffffff"/><path d="M239.82309,184.54756c0.3952,0 0.75343,0.16052 1.01267,0.41999c0.25947,0.25924 0.41995,0.61744 0.41995,1.01266c0,0.39523 -0.16048,0.75347 -0.41995,1.01267c-0.25924,0.2595 -0.61748,0.41999 -1.01267,0.41999c-0.39523,0 -0.75346,-0.16049 -1.01267,-0.41999c-0.2595,-0.25921 -0.41998,-0.61744 -0.41998,-1.01267c0,-0.39523 0.16048,-0.75342 0.41998,-1.01266c0.25921,-0.25947 0.61744,-0.41999 1.01267,-0.41999z" fill="#603813"/></g><g stroke="none" stroke-width="0.65" stroke-linecap="butt" stroke-linejoin="miter"><path d="M247.32026,186.03546v0c0,-1.12439 0.91142,-2.03634 2.03634,-2.03683c1.12417,0 2.03562,0.91244 2.03562,2.03683c0,1.12367 -0.91195,2.03487 -2.03562,2.03487c-1.12492,0 -2.03634,-0.91119 -2.03634,-2.03487z" fill="#ffffff"/><path d="M248.19746,185.98022v0c0,-0.79095 0.64095,-1.43265 1.43239,-1.43265c0.79092,0 1.43261,0.64196 1.43261,1.43265c0,0.79171 -0.6417,1.43213 -1.43261,1.43213c-0.79145,0 -1.43239,-0.64095 -1.43239,-1.43213z" fill="#603813"/></g><path d="M226.69932,178.7581c0.36937,-0.32964 0.85797,-0.44219 1.41477,-0.32605c1.36142,0.28447 3.48395,2.02124 4.50833,4.25189c0.6996,1.52331 1.00916,6.40085 0.35883,7.22152c-0.05381,0.0677 -0.16555,0.14744 -0.2083,0.13884c-0.18998,0.04038 -0.45557,-0.0467 -0.67954,-0.24955c-0.62199,-0.56259 -1.33926,-1.691 -1.97442,-2.89556c-0.49606,-0.93696 -1.05545,-1.99793 -1.74024,-3.01462l-0.63348,-0.93404c-1.56234,-2.27896 -1.98992,-3.35066 -1.04597,-4.19242v0z" fill="#ffc93e" stroke="#603813" stroke-width="0.65" stroke-linecap="butt" stroke-linejoin="miter"/><path d="M246.34535,192.44275c0,0 -1.85314,0.00147 -3.15079,-1.11067" fill="none" stroke="#603813" stroke-width="0.65" stroke-linecap="round" stroke-linejoin="round"/><path d="M184.70283,235.29717v-110.59434h110.59434v110.59434z" fill="none" stroke="none" stroke-width="0" stroke-linecap="butt" stroke-linejoin="miter"/><g stroke-linecap="butt" stroke-linejoin="miter"><path d="M262.86819,161.41075c-0.0043,0.60326 -0.09382,1.20287 -0.26583,1.78109c0.00064,0.11982 -0.02668,0.23815 -0.07975,0.34559v0.09304c-0.09304,0.21267 -0.18608,0.43863 -0.29242,0.63801h-0.09304l-10.63339,18.14321c-0.01711,0.00025 -0.50701,0.4245 -1.07809,0.16777c-0.50268,-0.22597 -0.38631,-0.83565 -0.39729,-0.83235l3.41598,-15.83045c-2.11009,-0.60484 -4.31832,-0.79 -6.49966,-0.54497c-2.1676,-0.02164 -4.31362,0.43207 -6.28699,1.32918l-1.35575,-0.25254c-1.85676,-0.69166 -3.8146,-1.07335 -5.7952,-1.1298h-0.01329c-3.25648,-0.19937 -6.03445,0.1462 -6.9117,0.78421l3.38939,15.64438c-0.01558,0.01369 0.03172,0.98602 -0.41647,1.14506c-0.44819,0.15903 -1.22298,-0.54281 -1.2317,-0.56022l-10.52706,-18.07676h-0.07975c-0.07975,-0.1595 -0.13292,-0.319 -0.19938,-0.4785l-0.19938,-0.33229c-0.06507,-0.16208 -0.06507,-0.34301 0,-0.50508c-0.12465,-0.5315 -0.18709,-1.07568 -0.18608,-1.6216c0,-9.63651 10.24793,-18.78122 22.86178,-18.78122c12.6936,0 22.95482,9.14472 22.87507,18.87427zM256.71411,163.97606c-0.59133,0.21078 -1.16106,0.47784 -1.70134,0.79751c0.01317,0.07474 0.01317,0.15122 0,0.22596l-3.0571,14.00949l8.78584,-15.03295c-1.3185,-0.35879 -2.7089,-0.35879 -4.0274,0zM223.53794,164.16214c-1.37977,-0.43041 -2.85157,-0.47181 -4.25335,-0.11962l8.74596,14.96649l-3.04381,-14.00949v-0.10634c-0.45558,-0.28629 -0.93602,-0.53096 -1.43551,-0.73104z" fill="#001026" stroke="none" stroke-width="1"/><path d="M262.60235,163.21646c0.00064,0.11982 -0.02668,0.23815 -0.07975,0.34558v0.09304c-0.09304,0.21267 -0.18608,0.43863 -0.29242,0.63801h-0.09304l-1.46209,-0.31704c-1.3185,-0.35879 -2.7089,-0.35879 -4.0274,0c-0.59133,0.21078 -1.16107,0.47784 -1.70135,0.79751c0.01317,0.07474 -1.50195,1.1677 -1.50195,1.1677c-2.11009,-0.60484 -4.31832,-0.78999 -6.49966,-0.54496c-2.1676,-0.02164 -4.31362,0.43206 -6.28699,1.32917l-1.35576,-0.25254c-1.85676,-0.69166 -3.81459,-1.07335 -5.79519,-1.1298h-0.01329c-3.25647,-0.19938 -6.03445,0.14621 -6.9117,0.78422l-1.59502,-1.23417c-0.45558,-0.28629 -0.93602,-0.53096 -1.43551,-0.73104h-0.01329c-1.37977,-0.43041 -2.85157,-0.47181 -4.25335,-0.11962l-1.56841,0.23728c-0.07975,-0.1595 -0.13292,-0.319 -0.19938,-0.4785c0,0 -0.26444,-0.6753 -0.19937,-0.83738c-0.12465,-0.53149 -0.1871,-1.07567 -0.18609,-1.62159c0,-9.63651 10.24793,-18.78123 22.86179,-18.78123c12.6936,0 22.95483,9.14472 22.87508,18.87426c0,0 -0.09383,1.20288 -0.26585,1.7811z" fill="#ffd980" stroke="#001026" stroke-width="1.5"/></g></g></g></svg>