<svg version="1.1" xmlns="http://www.w3.org/2000/svg" xmlns:xlink="http://www.w3.org/1999/xlink" width="64.10142" height="30.64887" viewBox="0,0,64.10142,30.64887"><g transform="translate(-112.45947,-327.98392)"><g data-paper-data="{&quot;isPaintingLayer&quot;:true}" stroke-miterlimit="10" stroke-dasharray="" stroke-dashoffset="0" style="mix-blend-mode: normal"><g fill-rule="nonzero" stroke-linejoin="miter"><path d="M167.11522,358.63279h-45.21191c-5.20777,0 -9.44384,-4.23426 -9.44384,-9.44567v-11.75937c0,-5.20594 4.23608,-9.44383 9.44384,-9.44383h45.21374c5.20777,0 9.44384,4.23791 9.44384,9.44383v11.75937c0,5.21141 -4.23791,9.44567 -9.44567,9.44567z" fill="#656880" stroke="none" stroke-width="1" stroke-linecap="butt"/><path d="M144.51018,353.91947v-21.22222" fill="none" stroke="#cdcdca" stroke-width="3" stroke-linecap="round"/></g><g data-paper-data="{&quot;index&quot;:null}" fill-rule="nonzero" stroke-linejoin="miter"><path d="M129.47618,339.56166l-7.42384,11.26827" fill="#b3b3b1" stroke="#919299" stroke-width="2.5" stroke-linecap="round"/><path d="M136.26294,342.55174l-2.17976,3.44062c-0.2659,0.4197 -0.82343,0.54491 -1.24342,0.27882l-10.82117,-6.85562c-0.41955,-0.2658 -0.54481,-0.82357 -0.27892,-1.24327l2.17985,-3.44077c0.2659,-0.4197 0.82372,-0.54472 1.24327,-0.27892l10.82117,6.85562c0.42,0.26609 0.54487,0.82382 0.27897,1.24351z" data-paper-data="{&quot;index&quot;:null}" fill="#919299" stroke="#cdcdca" stroke-width="0" stroke-linecap="butt"/></g><path d="M155.48485,355.75462c-3.74288,0 -6.78872,-3.04322 -6.78872,-6.78872v-11.3164c0,-3.74155 3.04451,-6.78739 6.7874,-6.78739h11.38663c3.74288,0 6.7874,3.04582 6.7874,6.78739v11.31639c0,3.74551 -3.04451,6.78872 -6.7874,6.78872h-11.38532z" data-paper-data="{&quot;index&quot;:null}" fill-opacity="0.2" fill="#000000" fill-rule="nonzero" stroke="none" stroke-width="1" stroke-linecap="butt" stroke-linejoin="miter"/><g data-paper-data="{&quot;index&quot;:null}" stroke-width="1"><path d="M163.77051,335.56113c0.08002,-0.05334 0.21338,-0.02667 0.24005,0.08002l0.69349,2.85398c0,0 1.70705,1.25362 2.21383,2.13382c0.85353,1.467 0.8802,2.66727 0.8802,2.66727c0,0 1.89376,0.56013 2.21383,2.08047c0.32007,1.52034 -0.85353,4.40099 -5.86799,5.38788c-5.01447,0.98689 -9.04205,-0.37342 -10.9358,-3.41411c-1.89376,-3.04069 1.09358,-6.66817 0.93354,-6.45479l-0.56013,-4.77441c-0.02667,-0.10669 0.10669,-0.18671 0.21338,-0.13336l3.22739,2.10714c0,0 1.20027,-0.45344 2.45389,-0.50678c0.74684,-0.05334 1.38698,0 2.00045,0.10669z" fill="#dadbe6" fill-rule="evenodd" stroke="#dadbe6" stroke-linecap="butt" stroke-linejoin="miter"/><path d="M167.71807,343.40291c0,0 1.84042,0.48011 2.16049,2.00045c0.32007,1.52034 -0.96021,4.26763 -5.92134,5.22785c-6.45479,1.33364 -9.52215,-2.50723 -7.73508,-5.33454c1.78707,-2.85398 4.85443,-0.42677 7.09494,-0.5868c1.92044,-0.13336 2.13382,-1.81375 4.40099,-1.30696z" fill="#515366" fill-rule="evenodd" stroke="#dadbe6" stroke-linecap="butt" stroke-linejoin="miter"/><path d="M172.62585,343.6963c-1.25362,1.01356 -3.17405,1.04023 -3.17405,1.04023" fill="none" fill-rule="evenodd" stroke="#dadbe6" stroke-linecap="round" stroke-linejoin="round"/><path d="M172.2791,346.68365c-1.68038,0.13336 -2.72062,-0.37342 -2.72062,-0.37342" fill="none" fill-rule="evenodd" stroke="#dadbe6" stroke-linecap="round" stroke-linejoin="round"/><path d="M151.20765,343.61629c0,0 2.29385,0.74684 3.22739,1.57369" fill="none" fill-rule="evenodd" stroke="#dadbe6" stroke-linecap="round" stroke-linejoin="round"/><path d="M154.51509,346.12352c-1.14693,0.45344 -3.1207,0.16003 -3.1207,0.16003" fill="none" fill-rule="evenodd" stroke="#dadbe6" stroke-linecap="round" stroke-linejoin="round"/><g fill="none" fill-rule="nonzero" stroke="none" stroke-linecap="butt" stroke-linejoin="miter" font-family="sans-serif" font-weight="normal" font-size="12" text-anchor="start"/><g fill="none" fill-rule="nonzero" stroke="none" stroke-linecap="butt" stroke-linejoin="miter" font-family="sans-serif" font-weight="normal" font-size="12" text-anchor="start"/></g></g></g></svg>