<svg version="1.1" xmlns="http://www.w3.org/2000/svg" xmlns:xlink="http://www.w3.org/1999/xlink" width="99.20614" height="119.40827" viewBox="0,0,99.20614,119.40827"><g transform="translate(-190.39693,-120.29588)"><g data-paper-data="{&quot;isPaintingLayer&quot;:true}" stroke-miterlimit="10" stroke-dasharray="" stroke-dashoffset="0" style="mix-blend-mode: normal"><path d="M289.60307,129.31305v101.37565c0,4.97152 -4.04218,9.01545 -9.01718,9.01545h-81.17351c-4.96979,0 -9.01545,-4.04392 -9.01545,-9.01544v-101.37738c0,-4.97152 4.04566,-9.01545 9.01545,-9.01545h81.17351c4.975,0 9.01718,4.04566 9.01718,9.01719z" fill-opacity="0.74902" fill="#d2d3d4" fill-rule="nonzero" stroke="none" stroke-width="1" stroke-linecap="butt" stroke-linejoin="miter"/><path d="M287.06513,163.26163v65.07452c0,4.97152 -4.04219,9.01545 -9.01719,9.01545l-76.09761,0.25093c-4.96979,0 -9.01545,-4.04392 -9.01545,-9.01545v-65.07627z" fill-opacity="0.85882" fill="#ffffff" fill-rule="nonzero" stroke="none" stroke-width="1" stroke-linecap="butt" stroke-linejoin="miter"/><text transform="translate(197.4876,200.16945) scale(0.28036,0.28036)" font-size="40" xml:space="preserve" fill="#000000" fill-rule="nonzero" stroke="#000000" stroke-width="1" stroke-linecap="butt" stroke-linejoin="miter" stroke-miterlimit="10" stroke-dasharray="" stroke-dashoffset="0" font-family="&quot;ヒラギノ角ゴ Pro W3&quot;, &quot;Hiragino Kaku Gothic Pro&quot;, Osaka, &quot;メイリオ&quot;, Meiryo, &quot;ＭＳ Ｐゴシック&quot;, &quot;MS PGothic&quot;" font-weight="normal" text-anchor="start" style="mix-blend-mode: normal"><tspan x="0" dy="0">服屋</tspan></text><g fill-rule="nonzero" stroke="none" stroke-linecap="butt" stroke-linejoin="miter"><g fill="#45b5e6" stroke-width="0"><path d="M208.75315,213.93832l-6.05509,-6.05509l0.90827,-0.90827l6.05509,6.05509z"/><path d="M207.66481,204.70311c0.3036,0.3036 0.30354,0.79598 0,1.09952l-6.13918,6.13917c-0.3036,0.3036 -0.79592,0.30347 -1.09945,-0.00006l-2.54359,-2.54359c-0.3036,-0.3036 -0.3036,-0.79579 0,-1.0994l6.13911,-6.13911c0.30374,-0.30374 0.79586,-0.30366 1.09946,-0.00006l2.54358,2.54358z"/></g><text transform="translate(209.44316,210.32878) scale(0.19587,0.20747)" font-size="40" xml:space="preserve" fill="#585858" fill-rule="nonzero" stroke="none" stroke-width="1" stroke-linecap="butt" stroke-linejoin="miter" stroke-miterlimit="10" stroke-dasharray="" stroke-dashoffset="0" font-family="Sans Serif" font-weight="normal" text-anchor="start" style="mix-blend-mode: normal"><tspan x="0" dy="0">50,000G</tspan></text></g><g stroke-width="1"><g data-paper-data="{&quot;index&quot;:null}"><path d="M204.68463,214.69793c0.0443,-0.02953 0.11815,-0.01477 0.13292,0.04431l0.38401,1.58035c0,0 0.94524,0.69416 1.22588,1.18158c0.47263,0.81232 0.48739,1.47697 0.48739,1.47697c0,0 1.04864,0.31017 1.22589,1.15203c0.17723,0.84187 -0.47263,2.43699 -3.24931,2.98347c-2.7767,0.54647 -5.00691,-0.20678 -6.05557,-1.89052c-1.04864,-1.68374 0.60554,-3.69241 0.51693,-3.57425l-0.31017,-2.64377c-0.01477,-0.05909 0.05908,-0.10339 0.11814,-0.07385l1.78713,1.16681c0,0 0.66464,-0.25109 1.35881,-0.28063c0.41356,-0.02953 0.76802,0 1.10772,0.05909z" fill="#45b5e6" fill-rule="evenodd" stroke="#45b5e6" stroke-linecap="butt" stroke-linejoin="miter"/><path d="M209.58817,219.20268c-0.69417,0.56124 -1.7576,0.57601 -1.7576,0.57601" fill="#45b5e6" fill-rule="evenodd" stroke="#45b5e6" stroke-linecap="round" stroke-linejoin="round"/><path d="M209.39615,220.85687c-0.93048,0.07385 -1.50651,-0.20676 -1.50651,-0.20676" fill="#45b5e6" fill-rule="evenodd" stroke="#45b5e6" stroke-linecap="round" stroke-linejoin="round"/><path d="M197.72814,219.15836c0,0 1.27017,0.41356 1.78711,0.87141" fill="#45b5e6" fill-rule="evenodd" stroke="#45b5e6" stroke-linecap="round" stroke-linejoin="round"/><path d="M199.55957,220.54671c-0.6351,0.25108 -1.72804,0.08862 -1.72804,0.08862" fill="#45b5e6" fill-rule="evenodd" stroke="#45b5e6" stroke-linecap="round" stroke-linejoin="round"/><g fill="none" fill-rule="nonzero" stroke="none" stroke-linecap="butt" stroke-linejoin="miter" font-family="sans-serif" font-weight="normal" font-size="12" text-anchor="start"/><g fill="none" fill-rule="nonzero" stroke="none" stroke-linecap="butt" stroke-linejoin="miter" font-family="sans-serif" font-weight="normal" font-size="12" text-anchor="start"/></g><text transform="translate(209.44316,222.38156) scale(0.19588,0.20747)" font-size="40" xml:space="preserve" fill="#585858" fill-rule="nonzero" stroke="none" stroke-width="1" stroke-linecap="butt" stroke-linejoin="miter" stroke-miterlimit="10" stroke-dasharray="" stroke-dashoffset="0" font-family="Sans Serif" font-weight="normal" text-anchor="start" style="mix-blend-mode: normal"><tspan x="0" dy="0">230G</tspan></text></g><g fill-rule="nonzero" stroke="none" stroke-linecap="butt"><path d="M248.03087,215.93531c0.41438,-0.94222 1.30869,-1.59712 2.34778,-1.59712c1.4325,0 2.5951,1.24099 2.5951,2.77006c0,3.0114 -4.94287,7.00154 -4.94287,7.00154c0,0 -4.94286,-3.89088 -4.94286,-7.00154c0,-1.52908 1.1626,-2.77006 2.5951,-2.77006c1.03907,0 1.9334,0.65487 2.34776,1.59712z" fill="#45b5e6" stroke-width="0" stroke-linejoin="round"/><text transform="translate(253.23743,222.41856) scale(0.19589,0.20748)" font-size="40" xml:space="preserve" fill="#585858" fill-rule="nonzero" stroke="none" stroke-width="1" stroke-linecap="butt" stroke-linejoin="miter" stroke-miterlimit="10" stroke-dasharray="" stroke-dashoffset="0" font-family="Sans Serif" font-weight="normal" text-anchor="start" style="mix-blend-mode: normal"><tspan x="0" dy="0">7%</tspan></text></g><g fill-rule="nonzero" stroke="none" stroke-linecap="butt" stroke-linejoin="miter"><g fill="#45b5e6" stroke-width="0"><path d="M241.85852,206.60629l5.64578,-1.34827l3.23916,3.23917l-1.34825,5.64577l-3.23077,-3.23077l-0.02081,-1.06159h-1.04078z"/><path d="M254.06963,202.84012l-4.99544,4.99545l-0.90828,-0.90827l4.99544,-4.99545z"/></g><text transform="translate(252.97427,210.4311) scale(0.19589,0.20748)" font-size="40" xml:space="preserve" fill="#585858" fill-rule="nonzero" stroke="none" stroke-width="1" stroke-linecap="butt" stroke-linejoin="miter" stroke-miterlimit="10" stroke-dasharray="" stroke-dashoffset="0" font-family="Sans Serif" font-weight="normal" text-anchor="start" style="mix-blend-mode: normal"><tspan x="0" dy="0">450G</tspan></text></g><g><path d="M194.8904,186.32394v-60.49176h90.21921v60.49176z" fill="#ac9bd4" fill-rule="nonzero" stroke="#666666" stroke-width="2" stroke-linecap="butt" stroke-linejoin="miter"/><g fill-rule="evenodd" stroke-width="0.5"><path d="M218.69741,142.43264c0.11183,-0.07455 0.2982,-0.03727 0.33549,0.11183l0.96917,3.98853c0,0 2.38566,1.75197 3.09391,2.98207c1.19283,2.05017 1.23011,3.7276 1.23011,3.7276c0,0 2.6466,0.78279 3.09391,2.90752c0.44731,2.12473 -1.19283,6.15053 -8.20071,7.52974c-7.00788,1.37921 -12.63654,-0.52186 -15.28313,-4.77132c-2.64659,-4.24946 1.52831,-9.31899 1.30465,-9.02078l-0.78279,-6.67239c-0.03728,-0.1491 0.1491,-0.26094 0.2982,-0.18638l4.51038,2.9448c0,0 1.67742,-0.63369 3.42939,-0.70825c1.04373,-0.07455 1.93835,0.00001 2.79569,0.14911z" fill="#ffab19" stroke="#001026" stroke-linecap="butt" stroke-linejoin="miter"/><path d="M224.21425,153.39177c0,0 2.57205,0.67097 3.01935,2.7957c0.44731,2.12473 -1.34193,5.96415 -8.27526,7.30608c-9.02078,1.8638 -13.30751,-3.50394 -10.81002,-7.4552c2.49749,-3.98853 6.78422,-0.59642 9.9154,-0.82008c2.68387,-0.18637 2.98208,-2.53476 6.15053,-1.82653z" fill="#ffffff" stroke="none" stroke-linecap="butt" stroke-linejoin="miter"/><path d="M212.47234,157.38029c0,-0.1491 0.14911,-0.26094 0.29821,-0.22366c0.70825,0.26093 2.72114,0.85735 4.9577,1.00645c2.0129,0.11183 3.20573,0.00001 3.76487,-0.11182c0.18637,-0.03728 0.33548,0.14911 0.26093,0.33548c-0.33549,1.00645 -1.75197,3.80215 -5.66594,3.57849c-3.39211,-0.37276 -3.7276,-2.75842 -3.61577,-4.58495z" fill="#ffffff" stroke="#001026" stroke-linecap="round" stroke-linejoin="round"/><path d="M231.07303,153.8018c-1.75197,1.41648 -4.43584,1.45376 -4.43584,1.45376" fill="none" stroke="#001026" stroke-linecap="round" stroke-linejoin="round"/><path d="M230.58844,157.97671c-2.34839,0.18637 -3.80215,-0.52186 -3.80215,-0.52186" fill="none" stroke="#001026" stroke-linecap="round" stroke-linejoin="round"/><path d="M217.91463,154.24911c0.78279,0 1.60287,0.07455 1.64014,0.33549c0.03728,0.52186 -0.52186,1.56559 -1.11828,1.60287c-0.67097,0.07455 -2.23656,-0.85735 -2.23656,-1.45377c-0.03728,-0.44731 0.96918,-0.48459 1.7147,-0.48459z" fill="#001026" stroke="#001026" stroke-linecap="round" stroke-linejoin="round"/><path d="M201.14045,153.68997c0,0 3.20573,1.04373 4.51039,2.19928" fill="none" stroke="#001026" stroke-linecap="round" stroke-linejoin="round"/><path d="M205.76268,157.19392c-1.60287,0.63369 -4.36129,0.22366 -4.36129,0.22366" fill="none" stroke="#001026" stroke-linecap="round" stroke-linejoin="round"/><g><path d="M222.31318,149.88783c1.081,1.67742 1.11828,3.57849 0.07455,4.24946c-1.04373,0.67097 -2.75842,-0.11182 -3.8767,-1.78924c-1.081,-1.67742 -1.11828,-3.5785 -0.07455,-4.24947c1.04373,-0.70825 2.7957,0.11183 3.8767,1.78925z" fill="#ffffff" stroke="#001026" stroke-linecap="round" stroke-linejoin="round"/><path d="M222.16409,152.01256c0,0.41003 -0.2982,0.74551 -0.67096,0.74551c-0.37276,0 -0.67097,-0.33548 -0.67097,-0.74551c0,-0.41003 0.29821,-0.74552 0.67097,-0.74552c0.37276,0 0.67096,0.33548 0.67096,0.74552" fill="#001026" stroke="none" stroke-linecap="butt" stroke-linejoin="miter"/></g><g><path d="M213.06874,150.93155c1.11828,1.64014 1.04373,3.65304 0.03728,4.36129c-1.23011,0.70825 -2.87025,0.18637 -3.98853,-1.45377c-1.15556,-1.64014 -1.23011,-3.76487 -0.07455,-4.58495c1.15556,-0.85735 2.90753,0.03728 4.02581,1.67742z" fill="#ffffff" stroke="#001026" stroke-linecap="round" stroke-linejoin="round"/><path d="M212.84511,153.09356c0,0.41003 -0.29821,0.74552 -0.67097,0.74552c-0.37276,0 -0.67096,-0.33548 -0.67096,-0.74552c0,-0.41003 0.2982,-0.74551 0.67096,-0.74551c0.37276,0.03728 0.67097,0.33548 0.67097,0.74551" fill="#001026" stroke="none" stroke-linecap="butt" stroke-linejoin="miter"/></g></g><path d="M195.61932,185.62016v-22.87455h37.61998v22.87455z" fill="#ad7100" fill-rule="nonzero" stroke="#666666" stroke-width="0.5" stroke-linecap="butt" stroke-linejoin="miter"/><path d="M224.59945,129.4621v-1.85714h50.14286v1.85714z" fill="#626262" fill-rule="nonzero" stroke="none" stroke-width="NaN" stroke-linecap="butt" stroke-linejoin="miter"/><g fill-rule="nonzero" stroke-linejoin="miter"><path d="M245.52656,149.85701v-18.77195h11.18044v18.77195z" fill="#00c0ff" stroke="none" stroke-width="0" stroke-linecap="butt"/><path d="M251.13899,130.58285l6.39507,2.77593" fill="none" stroke="#888888" stroke-width="1" stroke-linecap="round"/><path d="M249.31076,127.22192c0,0 0.4971,-1.24272 1.21208,-1.02173c1.02906,0.31807 0.89372,0.92053 0.88955,1.71294c-0.00625,1.18734 -0.26644,2.60994 -0.26644,2.60994l-6.49607,2.99284" fill="none" stroke="#888888" stroke-width="1" stroke-linecap="round"/><path d="M245.53721,149.83549v-18.8821c0,0 3.95773,2.02442 5.88253,2.02442c1.78951,0 5.29,-2.02442 5.29,-2.02442v18.8821z" fill="#00ceff" stroke="none" stroke-width="0" stroke-linecap="butt"/><path d="M241.59675,140.92765l-2.48183,-4.36813l6.40827,-5.53432l2.48185,4.36813z" fill="#00ceff" stroke="none" stroke-width="0" stroke-linecap="butt"/><path d="M254.04115,135.4254l2.64736,-4.36813l6.83568,5.53431l-2.64736,4.36813z" data-paper-data="{&quot;index&quot;:null}" fill="#00ceff" stroke="none" stroke-width="0" stroke-linecap="butt"/><path d="M264.758,149.85701v-18.77195h11.18045v18.77195z" fill="#ffc500" stroke="none" stroke-width="0" stroke-linecap="butt"/><path d="M276.76555,133.35878l-6.39508,-2.77593" fill="#ffc500" stroke="#888888" stroke-width="1" stroke-linecap="round"/><path d="M268.54214,127.22192c0,0 0.4971,-1.24272 1.21208,-1.02173c1.02906,0.31807 0.89372,0.92053 0.88955,1.71294c-0.00625,1.18734 -0.26645,2.60994 -0.26645,2.60994l-6.49606,2.99284" fill="none" stroke="#888888" stroke-width="1" stroke-linecap="round"/><path d="M264.76859,149.83549v-18.8821c0,0 3.95775,2.02442 5.88255,2.02442c1.78951,0 5.28999,-2.02442 5.28999,-2.02442v18.8821z" fill="#f5ff00" stroke="none" stroke-width="0" stroke-linecap="butt"/><path d="M260.8282,140.92765l-2.48184,-4.36813l6.40827,-5.53432l2.48184,4.36813z" fill="#f5ff00" stroke="none" stroke-width="0" stroke-linecap="butt"/><path d="M273.27251,135.4254l2.64737,-4.36813l6.83568,5.53431l-2.64736,4.36813z" data-paper-data="{&quot;index&quot;:null}" fill="#f5ff00" stroke="none" stroke-width="0" stroke-linecap="butt"/><path d="M226.17528,149.73761v-18.77195h11.18044v18.77195z" fill="#c10000" stroke="none" stroke-width="0" stroke-linecap="butt"/><path d="M238.18283,133.23939l-6.39508,-2.77593" fill="#ffc500" stroke="#888888" stroke-width="1" stroke-linecap="round"/><path d="M229.95949,127.10251c0,0 0.4971,-1.24273 1.21208,-1.02174c1.02906,0.31807 0.89372,0.92054 0.88955,1.71294c-0.00625,1.18734 -0.26644,2.60995 -0.26644,2.60995l-6.49606,2.99283" fill="none" stroke="#888888" stroke-width="1" stroke-linecap="round"/><path d="M226.18586,149.71609v-18.8821c0,0 3.95774,2.02443 5.88254,2.02443c1.78951,0 5.29,-2.02443 5.29,-2.02443v18.8821z" fill="#ff1c1c" stroke="none" stroke-width="0" stroke-linecap="butt"/><path d="M222.24548,140.80827l-2.48184,-4.36813l6.40827,-5.53432l2.48184,4.36813z" fill="#ff1c1c" stroke="none" stroke-width="0" stroke-linecap="butt"/><path d="M234.68987,135.30602l2.64737,-4.36813l6.83568,5.53431l-2.64736,4.36813z" data-paper-data="{&quot;index&quot;:null}" fill="#ff1c1c" stroke="none" stroke-width="0" stroke-linecap="butt"/></g><path d="M232.88266,185.37913v-33.6h8.8v33.6z" fill="#ad7100" fill-rule="nonzero" stroke="none" stroke-width="NaN" stroke-linecap="butt" stroke-linejoin="miter"/><path d="M236.56596,165.81066v-6.33333h15.66667v6.33333z" fill="#ad7100" fill-rule="nonzero" stroke="none" stroke-width="0" stroke-linecap="butt" stroke-linejoin="miter"/><path d="M275.64895,185.26246v-33.16667h8.5v33.16667z" fill="#ad7100" fill-rule="nonzero" stroke="none" stroke-width="0" stroke-linecap="butt" stroke-linejoin="miter"/><path d="M265.6885,166.99475v-6.66667h15.33333v6.66667z" fill="#ad7100" fill-rule="nonzero" stroke="none" stroke-width="0" stroke-linecap="butt" stroke-linejoin="miter"/><path d="M235.56596,180.81067v-5.66667h16.5v5.66667z" fill="#ad7100" fill-rule="nonzero" stroke="none" stroke-width="0" stroke-linecap="butt" stroke-linejoin="miter"/><path d="M266.1885,181.82808v-5.66667h16.16667v5.66667z" fill="#ad7100" fill-rule="nonzero" stroke="none" stroke-width="0" stroke-linecap="butt" stroke-linejoin="miter"/><path d="M241.6255,175.14778v-4.14286h10.42857v4.14286z" fill="#ff1c1c" fill-rule="nonzero" stroke="none" stroke-width="0" stroke-linecap="butt" stroke-linejoin="miter"/><path d="M241.62711,159.52774l0.02843,-4.57134l10.57123,0.06576l-0.02844,4.57134z" fill="#00ceff" fill-rule="nonzero" stroke="none" stroke-width="0" stroke-linecap="butt" stroke-linejoin="miter"/><path d="M265.64462,160.29237v-4.57143h10v4.57143z" fill="#f5ff00" fill-rule="nonzero" stroke="none" stroke-width="0" stroke-linecap="butt" stroke-linejoin="miter"/><path d="M266.21608,176.14951v-4h9.42857v4z" fill="#00ff29" fill-rule="nonzero" stroke="none" stroke-width="0" stroke-linecap="butt" stroke-linejoin="miter"/><path d="M195.9099,185.40644v-3.6523h88.18031v3.6523z" fill="#c0c0c0" fill-rule="nonzero" stroke="none" stroke-width="0" stroke-linecap="butt" stroke-linejoin="miter"/></g><path d="M286.08835,126.38078v59.3949c0,0.9386 -0.76314,1.70207 -1.7024,1.70207h-88.77223c-0.93827,0 -1.70207,-0.76347 -1.70207,-1.70207v-59.39522c0,-0.9386 0.7638,-1.70208 1.70207,-1.70208h88.77223c0.93926,0 1.7024,0.7638 1.7024,1.7024z" fill="none" fill-rule="nonzero" stroke="#666666" stroke-width="2" stroke-linecap="butt" stroke-linejoin="miter"/><g fill-rule="nonzero" stroke="none" stroke-linecap="butt" stroke-linejoin="miter"><text transform="translate(252.9769,234.29901) scale(0.19588,0.20747)" font-size="40" xml:space="preserve" fill="#585858" fill-rule="nonzero" stroke="none" stroke-width="1" stroke-linecap="butt" stroke-linejoin="miter" stroke-miterlimit="10" stroke-dasharray="" stroke-dashoffset="0" font-family="Sans Serif" font-weight="normal" text-anchor="start" style="mix-blend-mode: normal"><tspan x="0" dy="0">-4</tspan></text><path d="M244.4761,236.41881l1.7486,-4.14478l-2.20732,-0.69125l5.87862,-5.12252l-1.71443,4.10799l2.18486,0.71764z" fill="#e6c245" stroke-width="0"/></g></g></g></svg>