<svg version="1.1" xmlns="http://www.w3.org/2000/svg" xmlns:xlink="http://www.w3.org/1999/xlink" width="99.20614" height="119.40827" viewBox="0,0,99.20614,119.40827"><defs><linearGradient x1="210.0605" y1="150.08914" x2="210.0605" y2="163.33914" gradientUnits="userSpaceOnUse" id="color-1"><stop offset="0" stop-color="#b3fffe" stop-opacity="0.43137"/><stop offset="1" stop-color="#baffff" stop-opacity="0.08235"/></linearGradient><linearGradient x1="270.17714" y1="150.08914" x2="270.17714" y2="163.33914" gradientUnits="userSpaceOnUse" id="color-2"><stop offset="0" stop-color="#b3fffe" stop-opacity="0.43137"/><stop offset="1" stop-color="#baffff" stop-opacity="0.08235"/></linearGradient></defs><g transform="translate(-190.39693,-120.29588)"><g data-paper-data="{&quot;isPaintingLayer&quot;:true}" stroke-miterlimit="10" stroke-dasharray="" stroke-dashoffset="0" style="mix-blend-mode: normal"><path d="M289.60307,129.31305v101.37565c0,4.97152 -4.04218,9.01545 -9.01718,9.01545h-81.17351c-4.96979,0 -9.01545,-4.04392 -9.01545,-9.01544v-101.37738c0,-4.97152 4.04566,-9.01545 9.01545,-9.01545h81.17351c4.975,0 9.01718,4.04566 9.01718,9.01719z" fill-opacity="0.74902" fill="#d2d3d4" fill-rule="nonzero" stroke="none" stroke-width="1" stroke-linecap="butt" stroke-linejoin="miter"/><path d="M287.06513,163.26163v65.07452c0,4.97152 -4.04219,9.01545 -9.01719,9.01545l-76.09761,0.25093c-4.96979,0 -9.01545,-4.04392 -9.01545,-9.01545v-65.07627z" fill-opacity="0.85882" fill="#ffffff" fill-rule="nonzero" stroke="none" stroke-width="1" stroke-linecap="butt" stroke-linejoin="miter"/><text transform="translate(197.4876,200.16945) scale(0.28036,0.28036)" font-size="40" xml:space="preserve" fill="#000000" fill-rule="nonzero" stroke="#000000" stroke-width="1" stroke-linecap="butt" stroke-linejoin="miter" stroke-miterlimit="10" stroke-dasharray="" stroke-dashoffset="0" font-family="&quot;ヒラギノ角ゴ Pro W3&quot;, &quot;Hiragino Kaku Gothic Pro&quot;, Osaka, &quot;メイリオ&quot;, Meiryo, &quot;ＭＳ Ｐゴシック&quot;, &quot;MS PGothic&quot;" font-weight="normal" text-anchor="start" style="mix-blend-mode: normal"><tspan x="0" dy="0">宝石店</tspan></text><g fill-rule="nonzero" stroke="none" stroke-linecap="butt" stroke-linejoin="miter"><g fill="#45b5e6" stroke-width="0"><path d="M208.75315,213.93832l-6.05509,-6.05509l0.90827,-0.90827l6.05509,6.05509z"/><path d="M207.66481,204.70311c0.3036,0.3036 0.30354,0.79598 0,1.09952l-6.13918,6.13917c-0.3036,0.3036 -0.79592,0.30347 -1.09945,-0.00006l-2.54359,-2.54359c-0.3036,-0.3036 -0.3036,-0.79579 0,-1.0994l6.13911,-6.13911c0.30374,-0.30374 0.79586,-0.30366 1.09946,-0.00006l2.54358,2.54358z"/></g><text transform="translate(209.44316,210.32878) scale(0.19587,0.20747)" font-size="40" xml:space="preserve" fill="#585858" fill-rule="nonzero" stroke="none" stroke-width="1" stroke-linecap="butt" stroke-linejoin="miter" stroke-miterlimit="10" stroke-dasharray="" stroke-dashoffset="0" font-family="Sans Serif" font-weight="normal" text-anchor="start" style="mix-blend-mode: normal"><tspan x="0" dy="0">110,000G</tspan></text></g><g stroke-width="1"><g data-paper-data="{&quot;index&quot;:null}"><path d="M204.68463,214.69793c0.0443,-0.02953 0.11815,-0.01477 0.13292,0.04431l0.38401,1.58035c0,0 0.94524,0.69416 1.22588,1.18158c0.47263,0.81232 0.48739,1.47697 0.48739,1.47697c0,0 1.04864,0.31017 1.22589,1.15203c0.17723,0.84187 -0.47263,2.43699 -3.24931,2.98347c-2.7767,0.54647 -5.00691,-0.20678 -6.05557,-1.89052c-1.04864,-1.68374 0.60554,-3.69241 0.51693,-3.57425l-0.31017,-2.64377c-0.01477,-0.05909 0.05908,-0.10339 0.11814,-0.07385l1.78713,1.16681c0,0 0.66464,-0.25109 1.35881,-0.28063c0.41356,-0.02953 0.76802,0 1.10772,0.05909z" fill="#45b5e6" fill-rule="evenodd" stroke="#45b5e6" stroke-linecap="butt" stroke-linejoin="miter"/><path d="M209.58817,219.20268c-0.69417,0.56124 -1.7576,0.57601 -1.7576,0.57601" fill="#45b5e6" fill-rule="evenodd" stroke="#45b5e6" stroke-linecap="round" stroke-linejoin="round"/><path d="M209.39615,220.85687c-0.93048,0.07385 -1.50651,-0.20676 -1.50651,-0.20676" fill="#45b5e6" fill-rule="evenodd" stroke="#45b5e6" stroke-linecap="round" stroke-linejoin="round"/><path d="M197.72814,219.15836c0,0 1.27017,0.41356 1.78711,0.87141" fill="#45b5e6" fill-rule="evenodd" stroke="#45b5e6" stroke-linecap="round" stroke-linejoin="round"/><path d="M199.55957,220.54671c-0.6351,0.25108 -1.72804,0.08862 -1.72804,0.08862" fill="#45b5e6" fill-rule="evenodd" stroke="#45b5e6" stroke-linecap="round" stroke-linejoin="round"/><g fill="none" fill-rule="nonzero" stroke="none" stroke-linecap="butt" stroke-linejoin="miter" font-family="sans-serif" font-weight="normal" font-size="12" text-anchor="start"/><g fill="none" fill-rule="nonzero" stroke="none" stroke-linecap="butt" stroke-linejoin="miter" font-family="sans-serif" font-weight="normal" font-size="12" text-anchor="start"/></g><text transform="translate(209.44316,222.38156) scale(0.19588,0.20747)" font-size="40" xml:space="preserve" fill="#585858" fill-rule="nonzero" stroke="none" stroke-width="1" stroke-linecap="butt" stroke-linejoin="miter" stroke-miterlimit="10" stroke-dasharray="" stroke-dashoffset="0" font-family="Sans Serif" font-weight="normal" text-anchor="start" style="mix-blend-mode: normal"><tspan x="0" dy="0">1,100G</tspan></text></g><g fill-rule="nonzero" stroke="none" stroke-linecap="butt"><path d="M247.62692,215.93531c0.41438,-0.94222 1.30869,-1.59712 2.34778,-1.59712c1.4325,0 2.5951,1.24099 2.5951,2.77006c0,3.0114 -4.94287,7.00154 -4.94287,7.00154c0,0 -4.94286,-3.89088 -4.94286,-7.00154c0,-1.52908 1.1626,-2.77006 2.5951,-2.77006c1.03907,0 1.9334,0.65487 2.34776,1.59712z" fill="#45b5e6" stroke-width="0" stroke-linejoin="round"/><text transform="translate(252.83348,222.41856) scale(0.19589,0.20748)" font-size="40" xml:space="preserve" fill="#585858" fill-rule="nonzero" stroke="none" stroke-width="1" stroke-linecap="butt" stroke-linejoin="miter" stroke-miterlimit="10" stroke-dasharray="" stroke-dashoffset="0" font-family="Sans Serif" font-weight="normal" text-anchor="start" style="mix-blend-mode: normal"><tspan x="0" dy="0">8%</tspan></text></g><g fill-rule="nonzero" stroke="none" stroke-linecap="butt" stroke-linejoin="miter"><g fill="#45b5e6" stroke-width="0"><path d="M241.85852,206.60629l5.64578,-1.34827l3.23916,3.23917l-1.34825,5.64577l-3.23077,-3.23077l-0.02081,-1.06159h-1.04078z"/><path d="M254.06963,202.84012l-4.99544,4.99545l-0.90828,-0.90827l4.99544,-4.99545z"/></g><text transform="translate(252.97427,210.4311) scale(0.19589,0.20748)" font-size="40" xml:space="preserve" fill="#585858" fill-rule="nonzero" stroke="none" stroke-width="1" stroke-linecap="butt" stroke-linejoin="miter" stroke-miterlimit="10" stroke-dasharray="" stroke-dashoffset="0" font-family="Sans Serif" font-weight="normal" text-anchor="start" style="mix-blend-mode: normal"><tspan x="0" dy="0">1,300G</tspan></text></g><g fill-rule="nonzero" stroke-linecap="butt" stroke-linejoin="miter"><path d="M194.89041,186.32393v-60.49176h90.21921v60.49176z" fill="#bdb89d" stroke="#666666" stroke-width="2"/><path d="M195.9099,185.40643v-3.6523h88.18031v3.6523z" fill="#c0c0c0" stroke="none" stroke-width="0"/><g><g stroke="none" stroke-width="0"><path d="M200.5605,182.02664v-19.375h19v19.375z" fill="#1a140e"/><path d="M199.498,163.33914v-4.5h21.125v4.5z" fill="#e3e3d2"/></g><path d="M199.1855,163.33914l0.75,-13.25h20.25l0.75,13.25z" fill="url(#color-1)" stroke="#666666" stroke-width="1"/></g><g stroke="none" stroke-width="1"><path d="M203.0605,156.4759c0,0 0.77589,-1.39126 1.87284,-1.79257c0,0 2.11363,-0.48159 2.80926,-0.18729c0,0 1.39125,0.96318 1.73907,1.49828c0,0 -1.87284,3.47813 -2.75575,4.01323c0,0.02676 -3.3176,-2.08688 -3.66541,-3.53164z" fill="#7fccef"/><path d="M206.72591,160.03429l-0.24079,-1.84609l1.28423,-1.55178l1.47152,-0.90967c0.10702,0.08026 0.18729,0.18729 0.24079,0.26755c0,0 -1.84609,3.47813 -2.75575,4.03998z" fill="#678fe4"/><path d="M205.95002,155.78027l1.81933,0.85616c-0.05351,0.85616 -1.04344,3.39786 -1.04344,3.39786c-0.77589,-0.80265 -1.44476,-3.13032 -1.44476,-3.13032z" fill="#73b5e4"/><path d="M209.48166,155.99431c-0.66887,0.37457 -1.0702,0.45483 -1.71231,0.64212c-0.96318,0.29431 -2.4882,0.26754 -2.4882,0.26754c-0.48158,0 -2.22065,-0.42808 -2.22065,-0.42808c0,0 0.80264,-1.3645 1.87284,-1.79257c0,0 2.08688,-0.48159 2.80926,-0.18729c0,0 1.39125,0.96318 1.73907,1.49828z" fill="#92d7ef"/><path d="M207.07373,155.03114l0.72238,1.63205c-0.96318,0.29431 -2.4882,0.26755 -2.4882,0.26755l0.10702,-1.73906l0.32106,-0.64212c0.34781,-0.08026 0.74913,-0.10701 1.12371,-0.13377z" fill="#7fccef"/><path d="M207.52856,155.53948c0.13378,0 1.25748,0.24079 1.8996,0.37457c0.02676,0.02676 0.02675,0.05351 0.05351,0.08026c-0.66887,0.37457 -1.0702,0.45483 -1.71231,0.64212c-0.96318,0.29431 -2.4882,0.26754 -2.4882,0.26754c-0.48158,0 -2.22065,-0.42808 -2.22065,-0.42808c0,0 0.02676,-0.05351 0.08027,-0.13377c0.77589,-0.24079 1.89959,-0.58861 2.11363,-0.58861c0.32106,0 2.08687,-0.18729 2.27416,-0.21404z" fill="#83cdef"/><path d="M204.93334,154.68332c0,0 2.08688,-0.48159 2.83602,-0.16053c-0.18729,0.48158 -0.66887,0.5351 -0.66887,0.5351l-1.68555,0.10702c-0.32106,-0.24079 -0.48159,-0.48159 -0.48159,-0.48159z" fill="#bee6f1"/><path d="M209.48166,155.96756c-0.66887,0.37457 -1.0702,0.45483 -1.71231,0.64211l-0.69563,-1.57854l0.45483,-0.58861c0.08026,0 0.16053,0.02675 0.21404,0.05351c0,0 1.39125,0.96318 1.73907,1.47152z" fill="#73b5e4"/><path d="M209.48166,155.99431c0,0 -0.02676,0.08026 -0.08026,0.18728c-0.05351,0.13378 -0.13378,0.2943 -0.21404,0.50834c-0.05351,0.10702 -0.10702,0.21403 -0.16053,0.32106c-0.05351,0.10702 -0.13378,0.24079 -0.21404,0.37457c-0.13378,0.24079 -0.32106,0.50834 -0.48158,0.77589c-0.18729,0.24079 -0.37456,0.50834 -0.53509,0.72238c-0.18729,0.21404 -0.34782,0.42808 -0.50835,0.58861c-0.32106,0.34781 -0.53509,0.5351 -0.53509,0.5351c0,0 0.21403,-0.24079 0.48158,-0.58861c0.13378,-0.18729 0.29431,-0.40132 0.48159,-0.61536c0.16053,-0.24079 0.34781,-0.48159 0.53509,-0.72238c0.18729,-0.24079 0.34781,-0.50834 0.48159,-0.74913c0.16053,-0.24079 0.2943,-0.48158 0.40132,-0.66887c0.10702,-0.18729 0.21404,-0.37457 0.26755,-0.48159c0.05351,-0.10702 0.08026,-0.18728 0.08026,-0.18728z" fill="#3b73e4"/><path d="M203.0605,156.4759c0,0 0.13377,0 0.32106,0.02676c0.18729,0.02676 0.42808,0.05351 0.66887,0.10702c0.24079,0.05351 0.48159,0.10702 0.66888,0.16053c0.18729,0.05351 0.2943,0.08026 0.2943,0.08026c0,0 -0.13377,0.02676 -0.32106,0c-0.18729,-0.02676 -0.42808,-0.05351 -0.66887,-0.10702c-0.24079,-0.05351 -0.48158,-0.10702 -0.66887,-0.16053c-0.18729,-0.05351 -0.2943,-0.10702 -0.2943,-0.10702z" fill="#bee6f1"/><path d="M205.33466,157.17152c0,0 0.08026,0.16053 0.16053,0.37457c0.10702,0.24079 0.21403,0.53509 0.34781,0.8294c0.10702,0.29431 0.2408,0.61536 0.32106,0.8294c0.05351,0.10702 0.08026,0.21404 0.13377,0.26755c0.05351,0.05351 0.05351,0.08026 0.05351,0.08026c0,0 -0.02676,-0.02676 -0.08026,-0.08026c-0.05351,-0.05351 -0.10702,-0.13377 -0.18729,-0.24079c-0.13378,-0.21404 -0.26755,-0.50834 -0.40133,-0.8294c-0.13378,-0.32106 -0.21403,-0.61536 -0.2943,-0.85616c0,-0.21404 -0.05351,-0.37457 -0.05351,-0.37457z" fill="#bee6f1"/><path d="M207.52856,155.53948c0.13378,0 1.25748,0.24079 1.8996,0.37457c0.02676,0.02676 0.02675,0.05351 0.05351,0.08026c-0.66887,0.37457 -1.0702,0.45483 -1.71231,0.64212l-0.45484,-1.0702c0.10702,0 0.18729,0 0.21404,-0.02676z" fill="#679fe4"/><path d="M207.31452,155.56623l0.45484,1.0702c-0.96318,0.29431 -2.4882,0.26754 -2.4882,0.26754l0.08026,-1.15045c0.42808,-0.02676 1.49827,-0.13378 1.9531,-0.18729z" fill="#7cbfef"/></g><g stroke="none" stroke-width="1"><path d="M210.51782,155.23651c0,0 1.26683,-0.96578 2.43278,-0.89577c0,0 2.13014,0.40233 2.65041,0.94989c0,0 0.89101,1.43854 0.99626,2.068c0,0 -3.10575,2.44117 -4.12887,2.57926c-0.01068,0.02453 -2.20852,-3.2379 -1.95059,-4.70138z" fill="#7ff0b7"/><path d="M212.45773,159.96242l0.51628,-1.7887l1.79699,-0.91001l1.71233,-0.24651c0.06608,0.11632 0.09694,0.24648 0.11395,0.34143c0,0 -3.08121,2.45184 -4.13955,2.60379z" fill="#66dce3"/><path d="M213.44478,155.75238l1.32622,1.51133c-0.39088,0.7636 -2.31327,2.69871 -2.31327,2.69871c-0.39091,-1.04567 -0.07484,-3.44682 -0.07484,-3.44682z" fill="#71e3d6"/><path d="M216.59728,157.35863c-0.7628,0.07638 -1.16279,-0.01027 -1.82628,-0.09492c-1.00058,-0.11471 -2.3881,-0.74811 -2.3881,-0.74811c-0.44153,-0.19227 -1.86507,-1.27908 -1.86507,-1.27908c0,0 1.28068,-0.93057 2.43278,-0.89577c0,0 2.10561,0.39165 2.65041,0.94989c0,0 0.89101,1.43854 0.99626,2.068z" fill="#92f0b1"/><path d="M214.77413,155.51418l0.01071,1.78474c-1.00058,-0.11471 -2.38811,-0.74812 -2.38811,-0.74812l0.79244,-1.55172l0.55072,-0.46053c0.35093,0.06528 0.72956,0.20097 1.08366,0.32599z" fill="#7ff0d2"/><path d="M214.98818,156.16184c0.12265,0.05341 1.05677,0.72282 1.59208,1.10183c0.01385,0.03521 0.00316,0.05974 0.01701,0.09495c-0.7628,0.07638 -1.16279,-0.01027 -1.82628,-0.09492c-1.00058,-0.11471 -2.3881,-0.74811 -2.3881,-0.74811c-0.44153,-0.19227 -1.86507,-1.27908 -1.86507,-1.27908c0,0 0.04589,-0.03838 0.127,-0.0906c0.8075,0.089 1.97663,0.21875 2.17287,0.30421c0.29436,0.12819 1.9881,0.66148 2.1705,0.71172z" fill="#84f0c9"/><path d="M212.9506,154.34074c0,0 2.10561,0.39165 2.66427,0.98511c-0.36399,0.36676 -0.82689,0.22355 -0.82689,0.22355l-1.58811,-0.57484c-0.19823,-0.34895 -0.24927,-0.63381 -0.24927,-0.63381z" fill="#bff2d6"/><path d="M216.60796,157.3341c-0.7628,0.07638 -1.16279,-0.01027 -1.82628,-0.09492l-0.00754,-1.725l0.65201,-0.35807c0.07359,0.03205 0.13649,0.08862 0.17487,0.13451c0,0 0.89101,1.43854 1.00695,2.04347z" fill="#71e3c0"/><path d="M216.59728,157.35863c0,0 -0.05657,0.06291 -0.14836,0.13967c-0.10247,0.10128 -0.24016,0.21642 -0.3992,0.38062c-0.09179,0.07675 -0.18356,0.15351 -0.27535,0.23027c-0.09179,0.07675 -0.21879,0.16735 -0.34579,0.25796c-0.21879,0.16736 -0.49732,0.33789 -0.75132,0.51909c-0.26785,0.14599 -0.54638,0.31652 -0.77901,0.44867c-0.25716,0.12147 -0.48979,0.25362 -0.70106,0.33671c-0.43322,0.19071 -0.70424,0.27696 -0.70424,0.27696c0,0 0.29238,-0.13531 0.67654,-0.34738c0.19743,-0.1183 0.43006,-0.25045 0.68722,-0.37192c0.24332,-0.15668 0.51116,-0.30268 0.77901,-0.44867c0.26785,-0.14599 0.52184,-0.3272 0.74063,-0.49456c0.24332,-0.15668 0.4621,-0.32403 0.63499,-0.45302c0.1729,-0.12899 0.34579,-0.25797 0.43758,-0.33472c0.09179,-0.07675 0.14836,-0.13967 0.14836,-0.13967z" fill="#44d5e3"/><path d="M210.51782,155.23651c0,0 0.12265,0.05341 0.28368,0.15272c0.16103,0.0993 0.37111,0.21997 0.57052,0.36517c0.19941,0.1452 0.39881,0.29039 0.54915,0.41423c0.15034,0.12384 0.23779,0.19109 0.23779,0.19109c0,0 -0.13333,-0.02887 -0.29436,-0.12818c-0.16103,-0.0993 -0.37112,-0.21997 -0.57052,-0.36517c-0.19941,-0.1452 -0.39881,-0.29039 -0.54915,-0.41422c-0.15034,-0.12384 -0.2271,-0.21563 -0.2271,-0.21563z" fill="#bff2d8"/><path d="M212.32513,156.78225c0,0 0.0095,0.17923 -0.00236,0.40751c0.00198,0.2635 -0.01739,0.57606 -0.01225,0.8993c-0.01938,0.31256 -0.02492,0.66033 -0.03678,0.88861c0.00633,0.11948 -0.01186,0.22828 0.01583,0.29871c0.02769,0.07043 0.01702,0.09495 0.01702,0.09495c0,0 -0.01385,-0.03521 -0.04155,-0.10564c-0.02769,-0.07043 -0.04471,-0.16537 -0.07557,-0.29554c-0.03719,-0.24965 -0.04235,-0.57289 -0.03681,-0.92066c0.00554,-0.34777 0.04944,-0.64964 0.07199,-0.90246c0.08545,-0.19624 0.10048,-0.36479 0.10048,-0.36479z" fill="#bee6f1"/><path d="M214.98818,156.16184c0.12265,0.05341 1.05677,0.72282 1.59208,1.10183c0.01385,0.03521 0.00316,0.05974 0.01701,0.09495c-0.7628,0.07638 -1.16279,-0.01027 -1.82628,-0.09492l0.01027,-1.16279c0.09812,0.04273 0.17171,0.07477 0.20692,0.06092z" fill="#66e3d3"/><path d="M214.78127,156.10092l-0.01027,1.16279c-1.00058,-0.11471 -2.3881,-0.74811 -2.3881,-0.74811l0.53291,-1.02275c0.40316,0.14638 1.4271,0.47554 1.86547,0.60807z" fill="#7df0c1"/></g><g><g stroke="none" stroke-width="0"><path d="M260.67715,182.02664v-19.375h19v19.375z" fill="#1a140e"/><path d="M259.61465,163.33914v-4.5h21.125v4.5z" fill="#e3e3d2"/></g><path d="M259.30214,163.33914l0.75,-13.25h20.25l0.75,13.25z" fill="url(#color-2)" stroke="#666666" stroke-width="1"/></g><g stroke="none" stroke-width="1"><path d="M265.58091,160.52117c0,0 -1.52905,-4.25238 -1.51379,-5.00087c0,0 0.40686,-1.38098 1.4335,-2.14907c0,0 1.12331,0.93048 1.73635,1.85385c0,0 -0.21009,4.66867 -0.35534,5.07108c0,0 -0.44655,0.42951 -0.7757,0.55492c0.0215,0.01234 -0.45635,-0.07618 -0.52503,-0.32992z" fill="#8644b3"/><path d="M265.50979,153.40506l-0.15337,3.05526c-0.66213,-0.16572 -1.2678,-0.92769 -1.2678,-0.92769c0,0 0.40687,-1.38099 1.42118,-2.12758z" fill="#ea8be5"/><path d="M265.50979,153.40506l-0.15337,3.05526c-0.66213,-0.16572 -1.2678,-0.92769 -1.2678,-0.92769c0,0 0.40687,-1.38099 1.42118,-2.12758z" fill="#ea8be5"/><path d="M267.24435,155.38649c-0.9787,0.60986 -1.90486,1.07842 -1.90486,1.07842l0.1703,-3.05984c-0.00458,-0.01692 0.01233,-0.02149 0.01233,-0.02149c0,0 1.12331,0.93049 1.71944,1.85844c0,0 0.00916,0.03383 0.0028,0.14448z" fill="#ad59c2"/><path d="M265.36099,156.47724l0.77103,4.4031c0,0 -0.46551,-0.11001 -0.52961,-0.34683c0,0 -1.52905,-4.25238 -1.51379,-5.00087z" fill="#ad59c2"/><path d="M265.33949,156.46491c0,0 0.05635,0.27523 0.13241,0.69037c0.03803,0.20756 0.0683,0.45354 0.12007,0.71185c0.03485,0.26289 0.09119,0.53813 0.12604,0.80102c0.03943,0.27981 0.07886,0.55962 0.10913,0.8056c0.03485,0.26289 0.06512,-0.21694 0.09857,-0.02628c0.03765,0.40738 0.07707,0.68718 0.07707,0.68718c0,0 -0.05635,-0.27524 -0.13241,-0.69037c-0.03803,-0.20756 -0.06829,0.27227 -0.12006,0.01395c-0.03485,-0.26289 -0.0912,-0.53813 -0.12605,-0.80102c-0.03943,-0.27981 -0.07886,-0.55962 -0.10913,-0.80559c-0.03485,-0.26289 -0.06512,-0.50887 -0.09857,-0.69952c-0.04222,-0.42429 -0.07708,-0.68718 -0.07708,-0.68718z" fill="#ea8be5"/><path d="M266.02708,160.29147l0.08344,0.57654c0,0 -0.4655,-0.11002 -0.5296,-0.34683c0,0 0.25691,-0.12401 0.44617,-0.2297z" fill="#a546bd"/><path d="M266.88622,160.31309c0,0 -0.46347,0.43409 -0.77571,0.55491l-0.08344,-0.57654c0.09692,-0.04439 0.17692,-0.0842 0.21075,-0.09336c0.13074,-0.05355 0.64839,0.11498 0.64839,0.11498z" fill="#7c36ab"/><path d="M266.12743,160.86342c0.14308,-0.07504 0.28159,-0.167 0.40318,-0.25438c0.12159,-0.08738 0.2386,-0.19167 0.32954,-0.32521l-0.01234,0.0215c0.00992,-0.36578 0.03675,-0.01035 0.06359,-0.38072c0.02684,-0.37037 0.03675,-0.73615 0.06817,-1.08961c0.05367,-0.74073 0.11192,-1.46454 0.18708,-2.19294c-0.01984,0.73157 -0.05659,1.46772 -0.11026,2.20845c-0.02684,0.37037 -0.05367,0.74074 -0.06817,1.08961c-0.02684,0.37037 -0.05367,0.01493 -0.08508,0.36838c-0.11243,0.12121 -0.22944,0.22549 -0.36794,0.31745c-0.13393,0.10887 -0.2601,0.17934 -0.40776,0.23746z" fill="#6b348f"/><path d="M264.0717,155.53722c0,0 0.75981,-0.27829 1.33494,-0.43397l-0.06715,1.36165c-0.64979,-0.18722 -1.26779,-0.92769 -1.26779,-0.92769z" fill="#e17de3"/><path d="M265.99551,154.99832c0.16598,0.00954 0.79288,0.11218 1.2154,0.19752c0.00458,0.01692 0.03065,0.04617 0.03523,0.06309c0,0 -0.00776,0.03841 -0.00178,0.12757c-0.9787,0.60986 -1.90486,1.07842 -1.90486,1.07842l0.06715,-1.36165c0.27065,-0.07326 0.50747,-0.13737 0.58887,-0.10494z" fill="#9b4dae"/><path d="M267.23977,155.36957c0,0 -0.08776,0.07822 -0.20935,0.1656c-0.13851,0.09196 -0.30626,0.20999 -0.49093,0.33259c-0.18925,0.10569 -0.37851,0.21138 -0.52159,0.28642c-0.14308,0.07504 -0.24458,0.10251 -0.24458,0.10251c0,0 0.01691,-0.00457 0.06309,-0.03522c0.04617,-0.03065 0.09234,-0.06131 0.17234,-0.10111c0.13851,-0.09196 0.31084,-0.19307 0.49552,-0.31567c0.18925,-0.10569 0.37392,-0.22831 0.51701,-0.30335c0.12159,-0.08738 0.2185,-0.13177 0.2185,-0.13177z" fill="#6b348f"/><path d="M265.59818,154.40236c0,0 0.00281,0.14449 0.007,0.36121c0.00419,0.21672 -0.00712,0.51027 -0.01844,0.80381c-0.01132,0.29354 -0.03956,0.59168 -0.06919,0.81755c-0.02963,0.22588 -0.04375,0.37494 -0.04375,0.37494c0,0 -0.0028,-0.14448 -0.007,-0.36121c-0.00878,-0.23364 -0.00203,-0.5441 0.01386,-0.82073c0.01132,-0.29354 0.03956,-0.59167 0.06919,-0.81755c0.01272,-0.2213 0.04833,-0.35803 0.04833,-0.35803z" fill="#ffbcfc"/></g><g data-paper-data="{&quot;index&quot;:null}" stroke="none" stroke-width="1"><path d="M272.77712,160.07736c0,0 0.63619,-5.16871 0.95564,-5.84578c0,0 0.93512,-1.09462 2.18586,-1.37673c0,0 0.64566,1.30796 0.82839,2.40114c0,0 -2.39375,4.83884 -2.69061,5.14692c0,0 -0.58298,0.20982 -0.93466,0.18995c0.01459,0.02004 -0.3855,-0.25582 -0.34463,-0.51549z" fill="#8644b3"/><path d="M275.91318,152.88947l-1.38714,2.72653c-0.53681,-0.42156 -0.7787,-1.36439 -0.7787,-1.36439c0,0 0.93514,-1.09462 2.16584,-1.36214z" fill="#ea8be5"/><path d="M275.91318,152.88947l-1.38714,2.72653c-0.53681,-0.42156 -0.7787,-1.36439 -0.7787,-1.36439c0,0 0.93514,-1.09462 2.16584,-1.36214z" fill="#ea8be5"/><path d="M276.68787,155.40633c-1.14239,0.15724 -2.17914,0.20694 -2.17914,0.20694l1.40445,-2.72381c0.00272,-0.01731 0.02003,-0.01459 0.02003,-0.01459c0,0 0.64565,1.30796 0.81108,2.39842c0,0 -0.00545,0.03462 -0.05642,0.13304z" fill="#ad59c2"/><path d="M274.52331,155.63331l-1.3897,4.99689c0,0 -0.38005,-0.29045 -0.3419,-0.5328c0,0 0.63617,-5.16871 0.95563,-5.84578z" fill="#ad59c2"/><path d="M274.50873,155.61328c0,0 -0.06092,0.27426 -0.16093,0.68428c-0.05001,0.20501 -0.12277,0.44192 -0.18096,0.69886c-0.0755,0.25422 -0.13641,0.52848 -0.21191,0.7827c-0.07822,0.27154 -0.15644,0.54307 -0.22921,0.77997c-0.0755,0.25422 -0.14827,0.49113 -0.19556,0.67883c-0.13192,0.38726 -0.21014,0.65879 -0.21014,0.65879c0,0 0.06092,-0.27426 0.16093,-0.68428c0.05001,-0.20501 0.12278,-0.44191 0.18096,-0.69886c0.0755,-0.25422 0.1364,-0.52848 0.2119,-0.7827c0.07822,-0.27154 0.15645,-0.54306 0.22922,-0.77997c0.0755,-0.25422 0.14827,-0.49114 0.19556,-0.67884c0.13464,-0.40457 0.21013,-0.65878 0.21013,-0.65878z" fill="#ea8be5"/><path d="M273.27818,160.04978l-0.15916,0.56037c0,0 -0.38005,-0.29045 -0.3419,-0.5328c0,0 0.28515,-0.00834 0.50106,-0.02757z" fill="#a546bd"/><path d="M274.05368,160.42021c0,0 -0.60029,0.20709 -0.93465,0.18994l0.15916,-0.56037c0.10659,-0.00096 0.19588,-0.00465 0.2305,0.0008c0.14121,0.00448 0.54499,0.36963 0.54499,0.36963z" fill="#7c36ab"/><path d="M273.13634,160.61288c0.16125,-0.0101 0.32523,-0.03751 0.4719,-0.06764c0.14667,-0.03014 0.29605,-0.07758 0.43358,-0.16237l-0.02004,0.01459c0.15837,-0.32987 0.33405,-0.65703 0.50973,-0.98418c0.17568,-0.32716 0.33404,-0.65703 0.50699,-0.96687c0.35135,-0.6543 0.69998,-1.2913 1.06592,-1.92557c-0.31673,0.65975 -0.65078,1.31679 -1.00214,1.97109c-0.17568,0.32716 -0.35134,0.65431 -0.50698,0.96687c-0.17568,0.32716 -0.35136,0.6543 -0.52431,0.96415c-0.15211,0.06475 -0.3015,0.1122 -0.46548,0.13961c-0.1667,0.04472 -0.31065,0.05754 -0.46917,0.05033z" fill="#6b348f"/><path d="M273.73003,154.24889c0,0 0.80723,0.0561 1.39581,0.14875l-0.61712,1.21564c-0.51677,-0.43615 -0.77869,-1.36439 -0.77869,-1.36439z" fill="#e17de3"/><path d="M275.70625,154.54221c0.14763,0.07646 0.67804,0.42605 1.02891,0.67642c-0.00272,0.01731 0.00914,0.05466 0.00641,0.07198c0,0 -0.02276,0.03189 -0.0537,0.11572c-1.14239,0.15724 -2.17914,0.20694 -2.17914,0.20694l0.61712,-1.21564c0.27698,0.0436 0.51933,0.08174 0.5804,0.14458z" fill="#9b4dae"/><path d="M276.6906,155.38902c0,0 -0.11204,0.03558 -0.25871,0.06572c-0.16398,0.02741 -0.3653,0.06668 -0.58393,0.10323c-0.21591,0.01924 -0.43183,0.03848 -0.59307,0.04857c-0.16125,0.0101 -0.26512,-0.00625 -0.26512,-0.00625c0,0 0.01731,0.00272 0.07197,-0.00641c0.05466,-0.00913 0.10932,-0.01828 0.1986,-0.02196c0.16398,-0.02741 0.36257,-0.04937 0.58121,-0.08592c0.21591,-0.01924 0.43455,-0.05578 0.5958,-0.06588c0.14667,-0.03014 0.25326,-0.0311 0.25326,-0.0311z" fill="#6b348f"/><path d="M275.58679,153.83598c0,0 -0.05641,0.13304 -0.14105,0.3326c-0.08463,0.19956 -0.21479,0.46292 -0.34494,0.72628c-0.13016,0.26336 -0.27763,0.52399 -0.39688,0.7181c-0.11926,0.19411 -0.19299,0.32443 -0.19299,0.32443c0,0 0.05642,-0.13304 0.14105,-0.3326c0.08736,-0.21687 0.22024,-0.49754 0.34767,-0.74358c0.13016,-0.26336 0.27762,-0.52399 0.39687,-0.7181c0.10195,-0.19683 0.19026,-0.30712 0.19026,-0.30712z" fill="#ffbcfc"/></g><path d="M195.9099,184.90162v-3.14749h88.18031v3.14749z" fill="#561616" stroke="none" stroke-width="0"/></g><path d="M286.08836,126.38077v59.3949c0,0.9386 -0.76314,1.70207 -1.7024,1.70207h-88.77223c-0.93827,0 -1.70207,-0.76347 -1.70207,-1.70207v-59.39522c0,-0.9386 0.7638,-1.70208 1.70207,-1.70208h88.77223c0.93926,0 1.7024,0.7638 1.7024,1.7024z" fill="none" fill-rule="nonzero" stroke="#666666" stroke-width="2" stroke-linecap="butt" stroke-linejoin="miter"/><g fill-rule="nonzero" stroke="none" stroke-linecap="butt" stroke-linejoin="miter"><text transform="translate(252.9769,234.29901) scale(0.19588,0.20747)" font-size="40" xml:space="preserve" fill="#585858" fill-rule="nonzero" stroke="none" stroke-width="1" stroke-linecap="butt" stroke-linejoin="miter" stroke-miterlimit="10" stroke-dasharray="" stroke-dashoffset="0" font-family="Sans Serif" font-weight="normal" text-anchor="start" style="mix-blend-mode: normal"><tspan x="0" dy="0">-8</tspan></text><path d="M244.4761,236.41881l1.7486,-4.14478l-2.20732,-0.69125l5.87862,-5.12252l-1.71443,4.10799l2.18486,0.71764z" fill="#e6c245" stroke-width="0"/></g></g></g></svg>