<svg version="1.1" xmlns="http://www.w3.org/2000/svg" xmlns:xlink="http://www.w3.org/1999/xlink" width="163.93801" height="31.70176" viewBox="0,0,163.93801,31.70176"><g transform="translate(-310.77601,-325.43187)"><g data-paper-data="{&quot;isPaintingLayer&quot;:true}" fill-rule="nonzero" stroke-linejoin="miter" stroke-miterlimit="10" stroke-dasharray="" stroke-dashoffset="0" style="mix-blend-mode: normal"><path d="M474.71402,353.79994c0,1.83834 -1.49471,3.33369 -3.33434,3.33369h-25.03036c-1.8377,0 -3.33369,-1.49534 -3.33369,-3.33369v-25.03438c0,-1.83835 1.49599,-3.33369 3.33369,-3.33369h25.03036c1.83963,0 3.33434,1.49598 3.33434,3.33433z" fill-opacity="0.74902" fill="#998a96" stroke="none" stroke-width="1" stroke-linecap="butt"/><path d="M453.08692,336.33786c0,-3.19105 2.58686,-5.77791 5.77791,-5.77791c3.19105,0 5.77791,2.58686 5.77791,5.77791c0,3.19105 -4.65648,3.13028 -5.77791,6.56581c-0.06562,0.20103 -0.14036,2.9306 -0.14036,2.9306" fill="none" stroke="#ffffff" stroke-width="3.5" stroke-linecap="butt"/><path d="M456.73121,349.87193c0,-1.17836 0.95525,-2.13362 2.13362,-2.13362c1.17836,0 2.13362,0.95525 2.13362,2.13362c0,1.17836 -0.95525,2.13362 -2.13362,2.13362c-1.17836,0 -2.13362,-0.95525 -2.13362,-2.13362z" fill="#ffffff" stroke="none" stroke-width="0" stroke-linecap="butt"/><path d="M437.09406,353.79994c0,1.83834 -1.49471,3.33369 -3.33434,3.33369h-25.03036c-1.8377,0 -3.33369,-1.49534 -3.33369,-3.33369v-25.03438c0,-1.83835 1.49599,-3.33369 3.33369,-3.33369h25.03036c1.83963,0 3.33434,1.49598 3.33434,3.33433z" fill-opacity="0.74902" fill="#998a96" stroke="none" stroke-width="1" stroke-linecap="butt"/><path d="M421.24487,340.30415v6.83526" fill="none" stroke="#ffffff" stroke-width="2.5" stroke-linecap="round"/><path d="M419.92494,336.58472c0,-0.72897 0.59095,-1.31993 1.31993,-1.31993c0.72897,0 1.31993,0.59095 1.31993,1.31993c0,0.72897 -0.59095,1.31993 -1.31993,1.31993c-0.72897,0 -1.31993,-0.59095 -1.31993,-1.31993z" fill="#ffffff" stroke="none" stroke-width="0" stroke-linecap="butt"/><path d="M410.63946,341.28275c0,-5.85721 4.7482,-10.60541 10.60541,-10.60541c5.85721,0 10.60541,4.7482 10.60541,10.60541c0,5.85721 -4.7482,10.60541 -10.60541,10.60541c-5.85721,0 -10.60541,-4.7482 -10.60541,-10.60541z" fill="none" stroke="#ffffff" stroke-width="2.5" stroke-linecap="butt"/><path d="M391.77512,345.40665c0,1.83834 9.69473,7.51436 7.8551,7.51436h-84.77052c-1.8377,0 -3.33369,-1.49534 -3.33369,-3.33369v-11.98554c0,-1.83835 1.49599,-3.33369 3.33369,-3.33369h73.58108c1.83963,0 3.33434,1.49598 3.33434,3.33433z" fill-opacity="0.72549" fill="#888888" stroke-opacity="0.60784" stroke="#ffffff" stroke-width="1.5" stroke-linecap="butt"/><text transform="translate(315.73863,347.0652) scale(0.30082,0.30082)" font-size="40" xml:space="preserve" fill="#ffffff" fill-rule="nonzero" stroke="none" stroke-width="1" stroke-linecap="butt" stroke-linejoin="miter" stroke-miterlimit="10" stroke-dasharray="" stroke-dashoffset="0" font-family="Sans Serif" font-weight="normal" text-anchor="start" style="mix-blend-mode: normal"><tspan x="0" dy="0">v7.1が登場！</tspan></text></g></g></svg>