<svg version="1.1" xmlns="http://www.w3.org/2000/svg" xmlns:xlink="http://www.w3.org/1999/xlink" width="21.41044" height="25.25476" viewBox="0,0,21.41044,25.25476"><g transform="translate(-217.26329,-171.63882)"><g data-paper-data="{&quot;isPaintingLayer&quot;:true}" fill-rule="nonzero" stroke-miterlimit="10" stroke-dasharray="" stroke-dashoffset="0" style="mix-blend-mode: normal"><path d="M236.40657,192.46644c0.00293,1.46922 -3.77254,2.66782 -8.43274,2.67714c-4.66021,0.00931 -8.44045,-1.17418 -8.44338,-2.64341c-0.00293,-1.46922 3.77254,-2.66783 8.43274,-2.67714c4.66021,-0.00931 8.44045,1.17419 8.44338,2.64342z" fill="none" stroke="#ff0000" stroke-width="3.5" stroke-linecap="butt" stroke-linejoin="miter"/><path d="M235.81058,190.25138l-0.33779,-0.59603c-0.36993,-0.64423 -0.79731,-1.23408 -1.1742,-1.75329c-0.48451,-0.66877 -0.90611,-1.36074 -1.04569,-1.84964c-0.05032,-0.1761 -0.02606,-0.34416 0.04637,-0.43707c0.00697,-0.02501 0.08002,-0.06486 0.13153,-0.07548c0.62075,-0.13412 3.19026,1.34106 3.83132,2.12957c0.93914,1.15481 1.31467,2.77472 1.10524,3.59064c-0.08593,0.3334 -0.2781,0.56967 -0.55633,0.68213c-0.71123,0.28732 -1.17905,-0.23127 -2.00045,-1.69084v0z" fill="#ffc93e" stroke="#603813" stroke-width="0.5" stroke-linecap="butt" stroke-linejoin="miter"/><path d="M225.69592,178.86734c0.91219,-0.49573 -0.02924,-2.36221 -0.94006,-4.16774c-0.49783,-0.9872 -1.3856,-2.65453 -1.09707,-2.81078c0.55816,-0.30249 3.22466,2.84427 4.30567,4.11257l1.10191,1.25514c0,0 0.78776,0.96641 1.3906,1.60385c0.01062,0.01106 0.58059,-0.07744 0.97433,-0.40465c0.32097,-0.26778 0.27853,-0.56739 0.38069,-1.19753c0.0938,-0.57892 0.19566,-1.62658 0.50633,-1.63188c0.46798,-0.00712 0.77563,1.92178 0.89549,2.63633l0.06623,0.38222c0.15716,0.84987 0.97704,3.40515 1.0122,3.5135c0.01122,0.02637 0.02972,0.06062 0.02972,0.06062l0.00681,0.0138l0.00939,0.01151c1.26606,1.5702 2.20762,3.47409 2.20762,5.25783c0,3.77721 -3.31104,6.43612 -7.74294,6.43612c-0.822,0 -1.62596,-0.11518 -2.38962,-0.3416l-0.04107,-0.01181c0,0 -1.19874,-0.10079 -2.73227,1.91498c-0.30763,0.40463 -0.28022,0.78184 -0.71379,0.66575c-0.14458,-0.03865 -0.25082,-0.14489 -0.33749,-0.33781c-0.20733,-0.46009 -0.05428,-1.55019 0.19913,-2.24671l0.03987,-0.10942l-0.09154,-0.07243c-0.02243,-0.01789 -2.50966,-1.83025 -2.76092,-4.42735c-0.219,-2.26382 0.9246,-3.55275 1.3991,-4.2611l0.27263,-0.45404c0.34416,-0.83731 -0.30357,-2.00181 -0.87521,-3.02931c-0.34128,-0.61346 -0.89217,-1.50865 -0.76775,-1.71902c0.13807,-0.23308 0.63151,0.015 1.1298,0.25264c0.40404,0.19308 0.79276,0.46585 1.06266,0.28596c0.28068,-0.18686 0.09654,-0.6562 -0.15851,-1.3059c-0.2399,-0.61013 -0.6941,-1.57397 -0.51967,-1.97179c0.04804,-0.10942 0.13231,-0.18627 0.25763,-0.2349c0.46345,-0.17944 1.12601,0.6012 1.66235,1.21178c0.65424,0.74548 1.39622,1.59021 2.25777,1.12116v0z" fill="#ffc93e" stroke="#603813" stroke-width="0.5" stroke-linecap="round" stroke-linejoin="round"/><g stroke="none" stroke-width="0.5" stroke-linecap="butt" stroke-linejoin="miter"><path d="M226.46079,187.77871v0c0,-0.68165 0.55255,-1.23451 1.23438,-1.23481c0.68152,0 1.23405,0.55316 1.23405,1.23481c0,0.68121 -0.5524,1.23362 -1.23405,1.23362c-0.68168,0 -1.23438,-0.5524 -1.23438,-1.23362z" fill="#ffffff"/><path d="M227.86126,186.87668c0.23959,0 0.45676,0.09731 0.61392,0.25462c0.1573,0.15716 0.25459,0.37432 0.25459,0.61392c0,0.2396 -0.09729,0.45678 -0.25459,0.61392c-0.15716,0.15732 -0.37434,0.25462 -0.61392,0.25462c-0.2396,0 -0.45678,-0.0973 -0.61392,-0.25462c-0.15732,-0.15714 -0.25461,-0.37432 -0.25461,-0.61392c0,-0.2396 0.09729,-0.45675 0.25461,-0.61392c0.15714,-0.1573 0.37432,-0.25462 0.61392,-0.25462z" fill="#603813"/></g><g stroke="none" stroke-width="0.5" stroke-linecap="butt" stroke-linejoin="miter"><path d="M232.40635,187.77871v0c0,-0.68165 0.55254,-1.23451 1.23451,-1.23481c0.68152,0 1.23408,0.55316 1.23408,1.23481c0,0.68121 -0.55286,1.23362 -1.23408,1.23362c-0.68197,0 -1.23451,-0.5524 -1.23451,-1.23362z" fill="#ffffff"/><path d="M232.93814,187.74522v0c0,-0.47951 0.38857,-0.86853 0.86837,-0.86853c0.47949,0 0.86851,0.38918 0.86851,0.86853c0,0.47997 -0.38902,0.86822 -0.86851,0.86822c-0.47981,0 -0.86837,-0.38857 -0.86837,-0.86822z" fill="#603813"/></g><path d="M217.93891,192.20464c-0.25295,-0.16155 -0.39873,-0.42827 -0.42222,-0.7723c-0.05713,-0.84124 0.60862,-2.36476 1.74264,-3.3283c0.77442,-0.65803 3.57049,-1.63824 4.15608,-1.3932c0.04834,0.02031 0.11319,0.07246 0.11518,0.09882c0.05471,0.10426 0.04742,0.27355 -0.03426,0.43752c-0.22641,0.45525 -0.76743,1.05887 -1.36636,1.62703c-0.46555,0.44312 -0.9931,0.94353 -1.47425,1.50987l-0.44132,0.52285c-1.07403,1.28545 -1.62945,1.71068 -2.27549,1.29772v0z" fill="#ffc93e" stroke="#603813" stroke-width="0.5" stroke-linecap="butt" stroke-linejoin="miter"/><path d="M231.81532,191.66307c0,0 -1.12345,0.00089 -1.91014,-0.67333" fill="none" stroke="#603813" stroke-width="0.5" stroke-linecap="round" stroke-linejoin="round"/><path d="M236.40657,192.46644c0.00293,1.46922 -3.77254,2.66782 -8.43274,2.67714c-4.66021,0.00931 -8.44045,-1.17418 -8.44338,-2.64341" fill="none" stroke="#ff0000" stroke-width="3.5" stroke-linecap="butt" stroke-linejoin="miter"/></g></g></svg>