<svg version="1.1" xmlns="http://www.w3.org/2000/svg" xmlns:xlink="http://www.w3.org/1999/xlink" width="195.52273" height="191.06266" viewBox="0,0,195.52273,191.06266"><g transform="translate(-151.46135,-147.85612)"><g data-paper-data="{&quot;isPaintingLayer&quot;:true}" fill-opacity="0.01176" fill="#000000" fill-rule="nonzero" stroke="none" stroke-linecap="butt" stroke-linejoin="miter" stroke-miterlimit="10" stroke-dasharray="" stroke-dashoffset="0" style="mix-blend-mode: normal"><path d="M320.56428,161.06602c0,-7.29563 5.91427,-13.2099 13.2099,-13.2099c7.29563,0 13.2099,5.91427 13.2099,13.2099c0,7.29563 -5.91427,13.2099 -13.2099,13.2099c-7.29563,0 -13.2099,-5.91428 -13.2099,-13.2099z" stroke-width="0"/><path d="M328.53866,285.02969c0,2.38835 -1.94188,4.33107 -4.33189,4.33107h-168.41434c-2.38751,0 -4.33108,-1.94271 -4.33108,-4.33107v-28.49834c0,-2.38835 1.94356,-4.33107 4.33108,-4.33107h168.41435c2.39002,0 4.33189,1.94355 4.33189,4.3319z" stroke-width="1"/><path d="M328.53866,334.58771c0,2.38835 -1.94188,4.33107 -4.33189,4.33107h-168.41434c-2.38751,0 -4.33108,-1.94271 -4.33108,-4.33107v-28.49834c0,-2.38835 1.94356,-4.33107 4.33108,-4.33107h168.41435c2.39002,0 4.33189,1.94355 4.33189,4.3319z" stroke-width="1"/></g></g></svg>