<svg version="1.1" xmlns="http://www.w3.org/2000/svg" xmlns:xlink="http://www.w3.org/1999/xlink" width="22.2885" height="33.72908" viewBox="0,0,22.2885,33.72908"><g transform="translate(-198.33401,-162.48662)"><g data-paper-data="{&quot;isPaintingLayer&quot;:true}" fill-rule="nonzero" stroke-miterlimit="10" stroke-dasharray="" stroke-dashoffset="0" style="mix-blend-mode: normal"><path d="M206.29445,183.9536c0,-0.30149 0.08457,-0.73459 0.55239,-0.83235c0.67494,-0.14159 1.44718,0.54185 1.65721,0.74294c-0.01553,0.08002 0.2471,1.69457 0.2471,1.83455c0,0.47326 -0.12648,0.49202 -0.17557,0.49979c-0.46213,0.06727 -1.6937,-1.22778 -2.259,-1.98126c-0.00777,-0.04089 -0.02214,-0.13191 -0.02214,-0.26367v0z" fill="#ffc93e" stroke="#603813" stroke-width="0.5" stroke-linecap="butt" stroke-linejoin="miter"/><path d="M215.41323,178.95492l-0.66229,0.01896c-0.71803,0.02462 -1.41558,0.12296 -2.02992,0.21012c-0.79086,0.11145 -1.57308,0.15863 -2.0541,0.05667c-0.17329,-0.03668 -0.30595,-0.13348 -0.35257,-0.23743c-0.01823,-0.01727 -0.01922,-0.09774 -0.00498,-0.14658c0.16629,-0.59124 2.58997,-2.11978 3.55401,-2.31084c1.41202,-0.28006 2.96649,0.13208 3.56907,0.68033c0.24607,0.22433 0.36104,0.4955 0.33124,0.7842c-0.0763,0.73791 -0.73125,0.90306 -2.35046,0.94457z" fill="#ffc93e" stroke="#603813" stroke-width="0.5" stroke-linecap="butt" stroke-linejoin="miter"/><path d="M204.11665,169.48563c0.88219,-0.47943 -0.02828,-2.28452 -0.90914,-4.03067c-0.48146,-0.95473 -1.34003,-2.56723 -1.06098,-2.71834c0.5398,-0.29254 3.11861,2.75072 4.16406,3.97732l1.06567,1.21386c0,0 0.76185,0.93463 1.34487,1.5511c0.01027,0.01069 0.5615,-0.07489 0.94228,-0.39134c0.31042,-0.25897 0.26937,-0.54873 0.36817,-1.15814c0.09071,-0.55988 0.18922,-1.57308 0.48967,-1.57821c0.45258,-0.00689 0.75012,1.85858 0.86604,2.54962l0.06405,0.36965c0.15199,0.82192 0.94491,3.29316 0.97891,3.39794c0.01085,0.0255 0.02874,0.05863 0.02874,0.05863l0.00658,0.01334l0.00908,0.01113c1.22442,1.51856 2.13501,3.35983 2.13501,5.08491c0,3.65298 -3.20214,6.22445 -7.48828,6.22445c-0.79497,0 -1.57248,-0.11139 -2.31103,-0.33037l-0.03972,-0.01142c0,0 -1.15931,-0.09747 -2.64241,1.85199c-0.29751,0.39132 -1.0692,-1.18205 -0.82413,-1.85567l0.03856,-0.10582l-0.08853,-0.07005c-0.02169,-0.0173 -2.42712,-1.77005 -2.67011,-4.28174c-0.2118,-2.18936 0.89419,-3.4359 1.35309,-4.12096l0.26367,-0.43911c0.33284,-0.80977 -0.29358,-1.93597 -0.84642,-2.92968c-0.33006,-0.59329 -0.86283,-1.45904 -0.7425,-1.66248c0.13352,-0.22541 0.61074,0.01451 1.09264,0.24434c0.39075,0.18673 0.76669,0.45053 1.02771,0.27655c0.27145,-0.18072 0.09336,-0.63462 -0.15329,-1.26295c-0.23201,-0.59007 -0.67127,-1.5222 -0.50258,-1.90694c0.04646,-0.10582 0.12796,-0.18014 0.24915,-0.22717c0.44821,-0.17353 1.08897,0.58143 1.60768,1.17193c0.63272,0.72096 1.3503,1.53791 2.18351,1.08429v0z" fill="#ffc93e" stroke="#603813" stroke-width="0.5" stroke-linecap="round" stroke-linejoin="round"/><g stroke="none" stroke-width="0.5" stroke-linecap="butt" stroke-linejoin="miter"><path d="M204.85636,178.10391v0c0,-0.65923 0.53437,-1.19391 1.19378,-1.1942c0.6591,0 1.19347,0.53497 1.19347,1.1942c0,0.65881 -0.53423,1.19305 -1.19347,1.19305c-0.65926,0 -1.19378,-0.53423 -1.19378,-1.19305z" fill="#ffffff"/><path d="M206.21077,177.23155c0.23171,0 0.44174,0.09411 0.59373,0.24624c0.15213,0.15199 0.24622,0.36201 0.24622,0.59372c0,0.23172 -0.09409,0.44176 -0.24622,0.59373c-0.15199,0.15215 -0.36203,0.24624 -0.59373,0.24624c-0.23172,0 -0.44176,-0.0941 -0.59373,-0.24624c-0.15215,-0.15198 -0.24624,-0.36201 -0.24624,-0.59373c0,-0.23172 0.09409,-0.44173 0.24624,-0.59372c0.15198,-0.15213 0.36201,-0.24624 0.59373,-0.24624z" fill="#603813"/></g><g stroke="none" stroke-width="0.5" stroke-linecap="butt" stroke-linejoin="miter"><path d="M210.60638,178.10391v0c0,-0.65923 0.53437,-1.19391 1.19391,-1.1942c0.6591,0 1.19349,0.53497 1.19349,1.1942c0,0.65881 -0.53468,1.19305 -1.19349,1.19305c-0.65954,0 -1.19391,-0.53423 -1.19391,-1.19305z" fill="#ffffff"/><path d="M211.12068,178.07152v0c0,-0.46374 0.37579,-0.83997 0.83981,-0.83997c0.46372,0 0.83994,0.37638 0.83994,0.83997c0,0.46418 -0.37623,0.83966 -0.83994,0.83966c-0.46403,0 -0.83981,-0.37579 -0.83981,-0.83966z" fill="#603813"/></g><path d="M205.39525,183.19907c-0.19868,0.21161 -0.47822,0.30259 -0.8094,0.26354c-0.8098,-0.09578 -2.13915,-1.0004 -2.85269,-2.2502c-0.4873,-0.85349 -0.92016,-3.68607 -0.58277,-4.19897c0.02793,-0.04232 0.08907,-0.09466 0.11448,-0.09185c0.10886,-0.0334 0.26848,0.00373 0.40976,0.11063c0.39233,0.29642 0.86955,0.91836 1.30275,1.58902c0.33813,0.52157 0.71966,1.11229 1.17213,1.67067l0.41824,0.51276c1.03022,1.25022 1.33532,1.85402 0.82753,2.39441v0z" fill="#ffc93e" stroke="#603813" stroke-width="0.5" stroke-linecap="butt" stroke-linejoin="miter"/><path d="M210.03479,181.86051c0,0 -1.0865,0.00086 -1.84732,-0.65119" fill="none" stroke="#603813" stroke-width="0.5" stroke-linecap="round" stroke-linejoin="round"/><g fill="none" stroke-linejoin="miter"><g stroke="#bf7736" stroke-width="2" stroke-linecap="round"><path d="M212.86865,195.20482l-0.04123,-15.46358"/><path d="M219.62251,179.76146l-13.5811,0.06677"/></g><g stroke="none" stroke-width="1" stroke-linecap="butt" font-family="sans-serif" font-weight="normal" font-size="12" text-anchor="start"/><g data-paper-data="{&quot;index&quot;:null}" stroke="#bf7736" stroke-width="2" stroke-linecap="round"><path d="M203.48879,185.49297v9.72273"/><path d="M207.03259,184.94778h-7.6328l0.18173,-11.35833"/></g></g></g></g></svg>