<svg version="1.1" xmlns="http://www.w3.org/2000/svg" xmlns:xlink="http://www.w3.org/1999/xlink" width="92.21921" height="62.49176" viewBox="0,0,92.21921,62.49176"><defs><radialGradient cx="215.28988" cy="172.79182" r="16.09544" gradientUnits="userSpaceOnUse" id="color-1"><stop offset="0" stop-color="#ffffff" stop-opacity="0.35068"/><stop offset="1" stop-color="#ffffff" stop-opacity="0"/></radialGradient><radialGradient cx="256.37734" cy="166.20823" r="16.09544" gradientUnits="userSpaceOnUse" id="color-2"><stop offset="0" stop-color="#ffffff" stop-opacity="0.35068"/><stop offset="1" stop-color="#ffffff" stop-opacity="0"/></radialGradient><radialGradient cx="263.12007" cy="194.5162" r="16.09544" gradientUnits="userSpaceOnUse" id="color-3"><stop offset="0" stop-color="#ffffff" stop-opacity="0.35068"/><stop offset="1" stop-color="#ffffff" stop-opacity="0"/></radialGradient><radialGradient cx="227.64289" cy="195.05918" r="16.09544" gradientUnits="userSpaceOnUse" id="color-4"><stop offset="0" stop-color="#ffffff" stop-opacity="0.35068"/><stop offset="1" stop-color="#ffffff" stop-opacity="0"/></radialGradient></defs><g transform="translate(-193.89049,-148.75417)"><g data-paper-data="{&quot;isPaintingLayer&quot;:true}" fill-rule="nonzero" stroke-linejoin="miter" stroke-miterlimit="10" stroke-dasharray="" stroke-dashoffset="0" style="mix-blend-mode: normal"><path d="M194.8905,210.24593v-60.49176h90.21921v60.49176z" fill="#4a4743" stroke="#666666" stroke-width="2" stroke-linecap="butt"/><path d="M205.69581,205.96624l-0.21814,-0.05454l-0.06639,-0.11619l-0.29605,-0.17763l-0.24177,-0.24177l-0.10917,-0.18195l-0.19602,-0.10455l-0.01164,-0.0414l-0.04141,-0.01165l-0.38978,-0.73085l-0.13849,-0.13848l-0.00511,-0.00853l-0.03076,-0.00865l-0.20454,-0.38351l-0.22363,-0.3727l0.00279,-0.01022l-0.0223,-0.0223l-0.14473,-0.24122l-0.18308,-0.21359l-0.16118,-0.32237l-0.02732,-0.12296l-0.06763,-0.10626l-0.03011,-0.09033l-0.29009,-0.31909l0.00185,-0.02676l-0.18038,-0.36076l-0.01707,-0.00975l-0.01219,-0.04877l-0.02181,-0.04361l-0.08722,-0.39253l-0.01975,-0.07897l-0.02553,-0.04787l-0.0952,-0.38081l-0.09986,-0.27963l-0.14557,-0.3073l-0.07243,-0.36213l-0.07049,-0.28197v-0.21543l-0.05225,-0.209v-2.57895l0.03547,-0.1419l-0.01166,-0.1458l0.07117,-0.42702l0.0662,-0.66204v-0.23508l0.08373,-0.33494l-0.03521,-0.12911l0.11569,-0.19281l0.04922,-0.19689v-0.13484l0.08059,-0.32237l0.03229,-0.06054l0.00526,-0.06841l0.04449,-0.13346l-0.00517,-0.01896l0.02586,-0.0431l0.01542,-0.04626l0.07996,-0.12565l0.0337,-0.13479l-0.00829,-0.1741l0.08059,-0.40296l0.04661,-0.0984v-0.00836l-0.0109,-0.01636l0.0109,-0.04907v-0.04876l0.09752,-0.3901l0.06366,-0.28647v-0.44466l-0.11266,-0.18776l0.03521,-0.12911l-0.08373,-0.33494v-1.07404l-0.06234,-0.24937l-0.02421,-0.04842l-0.01707,-0.00975l-0.01219,-0.04876l-0.02181,-0.04361l-0.08722,-0.39253l-0.09752,-0.3901v-0.04876l-0.01091,-0.04906l0.01091,-0.01636v-0.4763l-0.02542,-0.10167l-0.0782,-0.04468l-0.05454,-0.21815l-0.11569,-0.19281l0.03521,-0.1291l-0.03297,-0.1319l-0.07922,-0.11882l-0.11436,-0.32023l-0.14557,-0.3073l-0.04439,-0.22195l-0.02561,-0.03546l-0.16119,-0.40296l-0.01626,-0.11928l-0.05665,-0.10622l-0.06429,-0.25717l-0.05934,-0.17802l-0.01108,-0.14401l-0.32646,-0.65293l-0.01707,-0.00975l-0.01219,-0.04877l-0.02181,-0.04361l-0.08723,-0.39253l-0.09752,-0.3901v-0.03289l-0.10362,-0.05921l-0.05453,-0.21814l-0.11569,-0.19281l0.03521,-0.12911l-0.08373,-0.33494v-0.0685l-0.04661,-0.23304l0.00829,-0.1741l-0.04227,-0.16909v-0.96711l0.06823,-0.27292l0.01236,-0.16073v-0.69464l0.21875,-0.875l0.05999,-0.03429l0.00384,-0.069l0.06258,-0.05364l0.02946,-0.11784l0.22277,-0.41769l0.00756,-0.13616l0.11983,-0.10272l0.07427,-0.13926l0.00467,-0.00132l0.05433,-0.15212l0.11145,-0.16718l0.00074,-0.00295l-0.03521,-0.12911l0.11569,-0.19281l0.05454,-0.21814l0.11619,-0.06639l0.17763,-0.29604l0.00834,-0.00834l0.0818,-0.17269l0.15026,-0.35686l0.05098,-0.06797l0.01911,-0.04033l0.01486,-0.00496l0.30392,-0.40523l0.09061,-0.18123l0.07197,-0.08396l0.03719,-0.10414l0.10075,-0.15113l0.03187,-0.06373l0.18308,-0.21359l0.14473,-0.24122l0.24178,-0.24178l0.0803,-0.04818l0.09733,-0.11355l0.14473,-0.24122l0.07324,-0.07324l0.16716,-0.22287l0.07222,-0.05867l0.01346,-0.0673l0.01164,-0.00741c0.0205,-0.10987 0.04824,-0.21825 0.084,-0.32503c0.09189,-0.27436 0.6459,-0.62979 1.15011,-0.92632l0.13799,-0.16098l0.00804,-0.00045l0.05517,-0.09194l0.16103,-0.16103l0.00385,-0.01928l0.04241,-0.02698l0.03448,-0.03448l0.24534,-0.1472l0.08733,-0.131l0.00149,-0.02678l0.34373,-0.29462l0.0448,-0.04073l0.00264,-0.0044l0.24177,-0.24177l0.10401,-0.06241l0.15422,-0.17992l0.14473,-0.24122l0.16103,-0.16103l0.00385,-0.01927l0.04241,-0.02699l0.03448,-0.03448l0.17264,-0.10358l0.01167,-0.03267l0.14836,-0.22254l0.00149,-0.02678l0.12017,-0.10301l0.08383,-0.13971l0.05454,-0.21814l0.11619,-0.06639l0.17763,-0.29604l0.07324,-0.07324l0.07248,-0.09664l0.13865,-0.27731l0.07248,-0.18119l0.02024,-0.08096l-0.03521,-0.12911l0.11266,-0.18776v-0.39589l-0.03804,-0.15216l-0.13258,-0.37123l0.02652,-0.05303l-0.01708,-0.06831v-0.16716l-0.02834,-0.05314l-0.01461,-0.05845l-0.0227,-0.06355l-0.07196,-0.08396l-0.09062,-0.18123l-0.1471,-0.19613l-0.06173,-0.1466l-0.10352,-0.12078l-0.03187,-0.06374l-0.08151,-0.12227l-0.09072,-0.10585l-0.18971,-0.12072l-0.02624,-0.13122l-0.22468,-0.26213l-0.19403,-0.38805l-0.05875,-0.09792l-0.11619,-0.06639l-0.05454,-0.21814l-0.11569,-0.19281l0.03521,-0.12911l-0.08373,-0.33494v-0.96711l0.06823,-0.27291l0.01236,-0.16073v-0.2111l0.06823,-0.27291l0.02158,-0.28048l0.08059,-0.24178l0.04677,-0.0735l0.00158,-0.00633l0.00384,-0.0022l0.22988,-0.36123l0.02837,-0.0851l-0.02935,-0.10762l0.11568,-0.19281l0.05454,-0.21815l0.11619,-0.06639l0.05875,-0.09792l0.03284,-0.06568l0.0219,-0.02554l0.06414,-0.10691l0.12089,-0.12088l0.12089,-0.20148l0.11924,-0.11925l0.06506,-0.09759l0.25424,-0.23113l0.21179,-0.23297l0.07499,-0.12499l0.32237,-0.32237l0.24123,-0.14473l0.21359,-0.18308l0.06836,-0.03418l0.04097,-0.04097l0.18473,-0.11084l0.15233,-0.15233l0.40296,-0.24178l0.06564,-0.01998l0.0521,-0.04465l0.22024,-0.11012l0.00976,-0.01707l0.04876,-0.01219l0.04362,-0.02181l0.36482,-0.08107l0.02635,-0.04611l0.38243,-0.09561l0.37123,-0.13258l0.03495,0.01747l0.08031,-0.02007l0.17802,-0.05934l0.28048,-0.02158l0.27291,-0.06822h3.54605l0.1691,0.04227l0.1741,-0.0083l0.23304,0.04661h1.43856l0.27292,0.06823l0.16072,0.01236h0.37228l0.33494,0.08373l0.12911,-0.03521l0.19281,0.11569l0.21814,0.05454l0.03239,0.05668l0.55621,0.05562l0.2987,0.10722l0.3098,0.06885l0.12968,0.06483l0.32749,0.07278h0.21086l0.27291,0.06823l0.28048,0.02158l0.35329,0.11776l0.83166,0.13861l0.1273,0.05534l0.1384,0.01065l0.21414,0.07138h2.17216l0.21414,-0.07138l0.28048,-0.02158l0.27291,-0.06823h1.12829l0.32237,-0.08059h0.04876l0.03457,-0.00768l0.00877,-0.01534l0.38243,-0.09561l0.37123,-0.13258l0.05303,0.02651l0.06831,-0.01708h0.18753l0.11336,-0.02835h0.21543l0.20901,-0.05225h1.43856l0.00323,-0.00065l0.11275,-0.05637l0.18814,-0.04181l0.17005,-0.09069l0.25717,-0.06429l0.17802,-0.05934l0.23442,-0.01803l0.00812,-0.01421l0.38243,-0.09561l0.37123,-0.13258l0.03495,0.01747l0.1455,-0.03637h0.0366l0.15893,-0.03532l0.3901,-0.09752h0.04876l0.08208,-0.01824l0.17005,-0.09069l0.64473,-0.16119h0.21544l0.209,-0.05225h3.62664l0.1419,0.03547l0.1458,-0.01166l0.96711,0.16118l0.19343,0.0841l0.20823,0.03359l0.23398,0.10028h0.04376l0.2953,0.07382l0.30275,0.03153l0.88652,0.32237l0.00746,0.00504l0.00895,0.00102l0.55141,0.20678l0.54803,0.13701l0.17005,0.09069l0.18813,0.04181l0.82163,0.41081l0.40776,0.11651l0.23474,0.13542l0.25522,0.09115l0.80682,0.53787c1.70034,0.16625 3.43217,0.56174 5.03948,1.15041l0.10778,-0.06466l0.33924,-0.21588l0.04626,-0.01542l0.0431,-0.02586l0.01896,0.00517l0.04396,-0.01465l0.06757,-0.07883l0.13361,-0.00743l0.29127,-0.18535l0.10004,-0.03335l0.12737,-0.08491l0.06631,-0.02368l0.02942,-0.05148l0.38243,-0.09561l0.37123,-0.13258l0.05303,0.02651l0.0683,-0.01708h1.69244l0.27291,0.06823l0.28048,0.02158l0.21414,0.07138h0.19957l0.209,0.05225h0.21544l0.64474,0.16118l0.17005,0.0907l0.18813,0.04181l0.12421,0.06211l0.31462,0.07865l0.1291,-0.03521l0.19282,0.11569l0.21814,0.05453l0.06639,0.11619l0.29604,0.17763l0.15537,0.15537l0.06398,0.04072l0.01746,0.01047l0.17971,0.05991l0.01897,-0.00517l0.0431,0.02586l0.04626,0.01542l0.33923,0.21588l0.3448,0.20688l0.03448,0.03448l0.04241,0.02699l0.00385,0.01927l0.24163,0.24163l0.08968,0.14947l0.06148,0.05588l0.3539,0.25279l0.03166,0.03717l0.04439,0.02034l0.40296,0.32236l0.13451,0.17656l0.17227,0.13996l0.03609,0.04813l0.10901,0.0654l0.23819,0.23819l0.2378,0.19321l0.08547,0.00475l0.14633,0.17073l0.18971,0.12072l0.02624,0.13122l0.19583,0.22846l0.104,0.0624l0.72532,0.72533l0.0507,0.0845l0.07839,0.05972l0.26182,0.32727l0.49561,0.49561l0.0507,0.0845l0.07838,0.05972l1.22716,1.53395l0.04865,-0.00335l0.24559,0.22326l0.2614,0.16635l0.00263,0.00131l0.17316,0.03463l0.12921,0.06121l0.14205,0.01623l0.57877,0.21704l0.4964,0.14183l0.19939,0.11504l0.22022,0.06702l0.17966,0.1078l0.06974,0.01744l0.17005,0.09069l0.18814,0.04181l0.28109,0.14055l0.02473,-0.01237l0.37123,0.13259l0.38243,0.09561l0.02942,0.05148l0.06631,0.02368l0.15112,0.10075l0.22492,0.11246l0.10848,0.09298l0.08718,0.00484l0.04645,0.05419l0.17263,0.04316l0.03429,0.06l0.069,0.00383l0.33056,0.38565l0.00919,0.00552l0.16118,0.16119l0.00264,0.00439l0.0448,0.04073l0.34373,0.29462l0.00149,0.02678l0.05225,0.07837l0.03865,0.03865l0.08968,0.14947l0.12897,0.11725l0.32236,0.48355l0.01436,0.04019l0.03017,0.03017l0.23359,0.38932l0.39453,0.63125l0.04204,0.12964l0.08247,0.1085l0.22152,0.51688l0.17005,0.3401l0.26193,0.3929l0.11437,0.32022l0.14556,0.3073l0.05457,0.27283l0.27701,0.7618l0.01391,0.13352l0.05747,0.12132l0.04908,0.24541l0.03384,0.0846l0.06011,0.09016l0.02368,0.06631l0.05148,0.02942l0.09561,0.38243l0.13258,0.37123l-0.02651,0.05303l0.01707,0.06831v3.46546l-0.05225,0.20901v0.21543l-0.16118,0.64473l-0.09069,0.17005l-0.04181,0.18814l-0.05638,0.11275l-0.00065,0.00323v0.14909l-0.08542,0.34167l-0.05608,0.34769l-0.07402,0.17272l-0.00323,0.01292l-0.00306,0.00174l-0.15306,0.35715l-0.03786,0.09465l-0.07565,0.3026l-0.05608,0.34769l-0.07403,0.17273l-0.00323,0.01292l-0.00305,0.00174l-0.16147,0.37675l-0.07284,0.09585l-0.03505,0.11516l-0.07289,0.12148c-0.14977,1.66261 -0.21945,3.32306 0.1664,4.95141c0.04546,0.19183 0.09706,0.38443 0.1542,0.57761l0.07465,0.12442l0.0029,0.00951l0.02774,0.01585l0.08727,0.34909l0.05537,0.0609l0.17513,0.15921l0.34373,0.29462l0.00045,0.00805l0.09193,0.05517l0.23443,0.23442l0.54524,0.40893l0.07943,0.09776l0.108,0.06481l0.19984,0.19984l0.0976,0.06507l0.1119,0.1231l0.09334,0.01866l0.1782,0.28002l0.22326,0.24559l-0.00129,0.01875l0.13306,0.11405l0.00149,0.02678l0.03195,0.04793l0.28893,0.24765l0.00383,0.069l0.06,0.03428l0.03151,0.12604l0.10215,0.17024l0.01137,0.0032l0.04218,0.0791l0.16916,0.19735l0.08059,0.16118l0.02283,0.10272l0.03281,0.05469l-0.01022,0.03749l0.0841,0.15768l0.11227,0.13098l0.02952,0.05906l0.01707,0.00976l0.0122,0.04876l0.02181,0.04362l0.02282,0.10271l0.03281,0.05469l-0.01138,0.04174l0.02303,0.10363l0.07666,0.06571l0.00742,0.13361l0.13316,0.20925l0.00384,0.0022l0.00158,0.00633l0.04678,0.0735l0.08059,0.24178l0.01856,0.24126l0.01269,0.05712l0.00642,0.00962l0.10073,0.28204l0.14094,0.26425l0.1146,0.45837l0.07527,0.15055l0.0507,0.22817l0.10006,0.21124l0.02595,0.12973l0.11166,0.06381l0.05453,0.21814l0.11569,0.19281l-0.03521,0.12911l0.08373,0.33494v0.11488l0.02846,0.04269l0.02368,0.0663l0.05148,0.02942l0.09561,0.38243l0.13258,0.37123l-0.02652,0.05303l0.01707,0.06831v0.18752l0.02835,0.11337v0.21543l0.05225,0.20901v2.90131l-0.04228,0.16909l0.00829,0.1741l-0.04661,0.23304v0.06849l-0.03465,0.13862l0.03465,0.08013l-0.13461,0.31971l-0.08414,0.33654l-0.07581,0.04332l-0.05544,0.13169l-0.24178,0.32237l-0.09776,0.07942l-0.0648,0.10801l-0.04097,0.04096l-0.02384,0.0477l0.00185,0.02676l-0.22848,0.25132l-0.05948,0.23792l-0.17696,0.10112l-0.03997,0.19986l-0.48566,0.30906l-0.31655,0.31655l-0.24122,0.14473l-0.21359,0.18308l-0.05906,0.02953l-0.00975,0.01707l-0.04876,0.01219l-0.04361,0.02181l-0.10272,0.02283l-0.05468,0.03281l-0.04174,-0.01138l-0.07286,0.01619l-0.21156,0.18134l-0.22024,0.11012l-0.00975,0.01707l-0.04876,0.01219l-0.04361,0.02181l-0.18019,0.04004l-0.0498,0.08714l-0.875,0.21875h-2.09539l-0.64474,-0.16118h-0.20819l-0.01635,0.0109l-0.04906,-0.0109h-0.04876l-0.32237,-0.0806h-1.28947l-0.209,-0.05225h-0.21544l-0.11336,-0.02834h-0.83227l-0.23681,-0.0592l-0.24395,-0.00813l-0.32848,-0.09385h-4.42593l-0.32847,0.09385l-0.24396,0.00813l-0.23681,0.0592h-1.51915l-0.23304,0.04661l-0.1741,-0.00829l-0.1691,0.04227h-0.63264l-0.23304,0.04661l-0.1741,-0.00829l-0.1691,0.04228h-0.11897l-0.21414,0.07138l-0.1384,0.01064l-0.1273,0.05535l-0.41461,0.0691l-0.25457,0.06364h-0.21544l-0.0275,0.00687l-0.04361,0.02181l-0.39253,0.08723l-0.3901,0.09752h-0.04876l-0.04906,0.01091l-0.01636,-0.01091h-0.63749l-0.37053,0.09264l-0.4198,0.13993l-0.28048,0.02157l-0.27291,0.06823h-0.2786l-0.44102,0.06301l-0.12529,-0.01296l-0.12219,0.03054h-0.23509l-0.39863,0.03986l-0.03432,0.01716l-0.39253,0.08723l-0.3901,0.09752h-0.04876l-0.04906,0.0109l-0.01636,-0.0109h-5.36607l-0.27291,-0.06823l-0.28048,-0.02158l-0.21414,-0.07138h-0.52193l-0.08621,-0.02156l-0.08793,0.01287l-0.71907,-0.07191h-0.96042l-0.10728,-0.02682l-0.10978,0.01331l-0.53663,-0.06708h-1.09993l-0.27291,-0.06823l-0.28048,-0.02157l-0.33385,-0.11129l-0.28481,-0.04068h-0.76215l-0.07204,-0.01801l-0.07329,0.01197l-0.89456,-0.07455h-0.57194l-0.27292,-0.06822l-0.28048,-0.02158l-0.21414,-0.07138h-0.8443l-0.1691,-0.04227l-0.1741,0.00829l-0.23304,-0.04661h-1.0356l-0.20901,-0.05225h-0.21543l-0.11337,-0.02834h-0.18752l-0.1419,-0.03547l-0.1458,0.01166l-0.82424,-0.13737h-8.03334l-0.21414,0.07138l-0.28048,0.02157l-0.27292,0.06823h-1.07404l-0.11336,0.02834h-0.21544l-0.209,0.05225h-0.48355l-0.32237,0.08059h-0.04876l-0.04907,0.0109l-0.01636,-0.0109h-4.07661l-0.27291,-0.06823l-0.16073,-0.01236h-0.1305l-0.1691,-0.04227l-0.1741,0.00829l-0.23304,-0.0466h-0.47145l-0.27292,-0.06823l-0.28048,-0.02157l-0.28454,-0.09485l-0.68551,-0.05713h-0.73313l-0.07849,-0.01962l-0.07995,0.01244l-0.80746,-0.07341h-1.29069l-0.16909,-0.04227l-0.08369,0.00399l-0.08109,0.14191l-0.875,0.21875h-1.0477l-0.06831,-0.01708l-0.05303,0.02652l-0.37124,-0.13259l-0.38243,-0.09561l-0.01343,-0.02351l-0.27099,-0.06775l-0.16073,-0.01237h-0.1305l-0.875,-0.21875l-0.03428,-0.05999l-0.069,-0.00384l-0.1226,-0.14303l-0.00411,-0.00091l-0.16118,-0.08059l-0.21359,-0.18308l-0.01462,-0.00878l-0.10671,-0.03556l-0.1972,-0.12549l-0.22012,-0.07862l-0.12737,-0.08491l-0.10004,-0.03334l-0.1972,-0.12549l-0.22012,-0.07861l-0.15113,-0.10075l-0.20425,-0.10213l-0.02676,0.00185l-0.33322,-0.30292z" fill="#6d6963" stroke="none" stroke-width="0.5" stroke-linecap="butt"/><path d="M217.37852,172.77548c-0.45292,0.5978 -1.05072,0.14487 -1.05072,0.14487l-0.78691,-0.59621c-2.26996,-1.73789 -4.78002,-3.05702 -6.89488,-5.00523c0,0 -0.5511,-0.50871 -0.04239,-1.05981c0.50871,-0.5511 1.05981,-0.04239 1.05981,-0.04239c2.07239,1.91713 4.55374,3.20877 6.78597,4.91387l0.78424,0.59418c0,0 0.5978,0.45292 0.14487,1.05072z" fill="#3be1f8" stroke="none" stroke-width="0.5" stroke-linecap="butt"/><path d="M226.46737,178.21375c0,0.75 -0.75,0.75 -0.75,0.75l-0.44397,-0.0176c-6.74933,-1.48848 -13.18107,-3.36413 -19.38012,-6.46366c0,0 -0.67082,-0.33541 -0.33541,-1.00623c0.33541,-0.67082 1.00623,-0.33541 1.00623,-0.33541c6.08821,3.04411 12.40364,4.87862 19.03234,6.3405l0.12092,-0.0176c0,0 0.75,0 0.75,0.75z" fill="#3be1f8" stroke="none" stroke-width="0.5" stroke-linecap="butt"/><path d="M258.12911,162.51017c0.46852,0.58565 -0.11713,1.05417 -0.11713,1.05417l-0.6139,0.46669c-2.17564,1.04753 -4.42323,1.92837 -6.58032,3.00781c0,0 -0.67082,0.33541 -1.00623,-0.33541c-0.33541,-0.67082 0.33541,-1.00623 0.33541,-1.00623c2.16486,-1.08157 4.41788,-1.96682 6.60042,-3.01767l0.32758,-0.28649c0,0 0.58565,-0.46852 1.05417,0.11713z" fill="#f73b92" stroke="none" stroke-width="0.5" stroke-linecap="butt"/><path d="M262.7661,167.00282c0.39628,0.63676 -0.24047,1.03304 -0.24047,1.03304l-0.82832,0.51085c-5.96418,2.20381 -12.96765,4.00369 -19.3141,4.21523c0,0 -0.74958,0.02499 -0.77457,-0.7246c-0.02499,-0.74958 0.7246,-0.77457 0.7246,-0.77457c6.14818,-0.20494 12.91708,-1.95961 18.70613,-4.06407l0.69369,-0.43636c0,0 0.63676,-0.39628 1.03304,0.24047z" fill="#f73b92" stroke="none" stroke-width="0.5" stroke-linecap="butt"/><path d="M272.3887,193.83667c-0.06896,0.74682 -0.81578,0.67786 -0.81578,0.67786l-0.27246,-0.02516c-5.16116,-0.47774 -10.21204,-1.69185 -15.26158,-2.81397c0,0 -0.73214,-0.1627 -0.56944,-0.89484c0.1627,-0.73214 0.89484,-0.56944 0.89484,-0.56944c4.98674,1.10816 9.97674,2.31513 15.0741,2.7846l0.27246,0.02516c0,0 0.74682,0.06896 0.67786,0.81578z" fill="#f7f63b" stroke="none" stroke-width="0.5" stroke-linecap="butt"/><path d="M266.76972,200.75655c-0.22371,0.71586 -0.93957,0.49215 -0.93957,0.49215l-0.07465,-0.02333c-2.36079,-0.73999 -4.3472,-1.82441 -6.41831,-3.17059c0,0 -0.62883,-0.40874 -0.22009,-1.03757c0.40874,-0.62883 1.03757,-0.22009 1.03757,-0.22009c1.95562,1.2712 3.81743,2.30166 6.04824,2.99653l0.07465,0.02333c0,0 0.71586,0.22371 0.49215,0.93957z" fill="#f7f63b" stroke="none" stroke-width="0.5" stroke-linecap="butt"/><path d="M223.80397,207.21637c-0.72114,-0.20604 -0.5151,-0.92718 -0.5151,-0.92718l0.1773,-0.61569c0.15602,-0.68368 0.1728,-1.3956 0.17044,-2.09686c0,0 0,-0.75 0.75,-0.75c0.75,0 0.75,0.75 0.75,0.75c-0.00243,0.81033 -0.0341,1.63039 -0.20616,2.42225l-0.19929,0.70238c0,0 -0.20604,0.72114 -0.92718,0.5151z" fill="#3bf77d" stroke="none" stroke-width="0.5" stroke-linecap="butt"/><path d="M232.87833,207.03869c-0.63418,0.40039 -1.03457,-0.23379 -1.03457,-0.23379l-0.71999,-1.14906c-0.66534,-1.86387 -0.56633,-4.43041 -1.70811,-5.9765c0,0 -0.4301,-0.61442 0.18433,-1.04452c0.61442,-0.4301 1.04452,0.18433 1.04452,0.18433c1.20957,1.79665 1.10229,4.11861 1.82861,6.18152l0.639,1.00345c0,0 0.40039,0.63418 -0.23379,1.03457z" fill="#3bf77d" stroke="none" stroke-width="0.5" stroke-linecap="butt"/><path d="M199.19445,172.79182c0,-8.88926 7.20617,-16.09544 16.09544,-16.09544c8.88926,0 16.09544,7.20617 16.09544,16.09544c0,8.88926 -7.20617,16.09544 -16.09544,16.09544c-8.88926,0 -16.09544,-7.20617 -16.09544,-16.09544z" fill="url(#color-1)" stroke="none" stroke-width="none" stroke-linecap="butt"/><path d="M240.28191,166.20823c0,-8.88926 7.20617,-16.09544 16.09543,-16.09544c8.88927,0 16.09544,7.20617 16.09544,16.09544c0,8.88926 -7.20617,16.09543 -16.09544,16.09543c-8.88926,0 -16.09543,-7.20617 -16.09543,-16.09543z" fill="url(#color-2)" stroke="none" stroke-width="none" stroke-linecap="butt"/><path d="M247.02464,194.5162c0,-8.88926 7.20617,-16.09544 16.09543,-16.09544c8.88927,0 16.09544,7.20617 16.09544,16.09544c0,8.88926 -7.20617,16.09543 -16.09544,16.09543c-8.88926,0 -16.09543,-7.20617 -16.09543,-16.09543z" fill="url(#color-3)" stroke="none" stroke-width="none" stroke-linecap="butt"/><path d="M211.54746,195.05918c0,-8.88926 7.20617,-16.09544 16.09543,-16.09544c8.88927,0 16.09544,7.20617 16.09544,16.09544c0,8.88926 -7.20617,16.09543 -16.09544,16.09543c-8.88926,0 -16.09543,-7.20617 -16.09543,-16.09543z" fill="url(#color-4)" stroke="none" stroke-width="none" stroke-linecap="butt"/><path d="M195.90998,209.32843v-3.6523h88.18031v3.6523z" fill="#c0c0c0" stroke="none" stroke-width="0" stroke-linecap="butt"/><g><path d="M207.65146,205.95438v-13.33915" fill="none" stroke="#808080" stroke-width="3" stroke-linecap="round"/><path d="M219.2955,183.88814l-4.2016,7.41459h-14.13715" fill="none" stroke="#808080" stroke-width="4" stroke-linecap="round"/><path d="M199.19445,190.6107l4.74534,-8.77607h15.30628l-4.74534,8.77607z" fill="#d2d2d2" stroke="none" stroke-width="0" stroke-linecap="butt"/><path d="M212.42465,183.69042h4.54761" fill="none" stroke="#555555" stroke-width="1.5" stroke-linecap="round"/><path d="M215.40244,185.678h-4.64647" fill="none" stroke="#555555" stroke-width="1.5" stroke-linecap="round"/><path d="M213.78558,187.59544h-10.87473" fill="none" stroke="#555555" stroke-width="1.5" stroke-linecap="round"/><path d="M211.76769,189.47778h-9.88612" fill="none" stroke="#555555" stroke-width="1.5" stroke-linecap="round"/><path d="M203.74658,186.15144l1.60629,-2.97069h5.18117l-1.60629,2.97069z" fill="#b6e3d7" stroke="#909090" stroke-width="0.5" stroke-linecap="butt"/></g></g></g></svg>