<svg version="1.1" xmlns="http://www.w3.org/2000/svg" xmlns:xlink="http://www.w3.org/1999/xlink" width="33.60615" height="42.81154" viewBox="0,0,33.60615,42.81154"><g transform="translate(-201.51158,-154.68842)"><g data-paper-data="{&quot;isPaintingLayer&quot;:true}" stroke-miterlimit="10" stroke-dasharray="" stroke-dashoffset="0" style="mix-blend-mode: normal"><g fill-rule="evenodd" stroke-width="0.5"><path d="M212.95643,179.59067c0.28182,0.14091 0.88068,0.45796 0.03522,1.65568c-0.84546,1.19772 -3.27612,1.44431 -3.55795,1.44431c-1.09204,0.03522 -2.43068,0.03522 -3.91021,-0.45796c-4.29771,-1.40909 -4.33295,-6.02385 -2.95908,-6.76361c1.33863,-0.73977 1.93749,2.11363 3.87499,3.83976c0.84546,0.775 1.86704,1.05681 2.71249,1.23296c1.19772,0.21137 3.48749,-1.12727 3.80453,-0.95113z" fill="#ffab19" stroke="#001026" stroke-linecap="round" stroke-linejoin="round"/><path d="M204.2201,176.73727c0.56363,0.95113 1.65568,2.28977 1.65568,2.28977c0,0 -1.3034,-0.31704 -2.04318,0.28182c-0.59887,0.45796 -0.45796,1.23296 -0.3875,1.47954c-0.45796,-0.45796 -1.02159,-1.09204 -1.37386,-2.32499c-0.35227,-1.23296 0,-2.71249 0.70454,-2.92386c0.70454,-0.14091 0.88068,0.3875 1.44431,1.19772z" fill="#ffffff" stroke="none" stroke-linecap="butt" stroke-linejoin="miter"/></g><path d="M215.05434,181.25386c0.03759,0.76115 0.24772,3.43109 -0.42389,6.27173l-0.04204,0.13902c-0.04204,0.13902 0.07301,0.28986 0.23011,0.30167c1.03295,-0.08037 3.04461,-0.15037 2.56478,1.81997c-0.44368,1.90987 -6.4964,2.35556 -6.85627,0.4169c-0.08,-0.82753 0.43887,-1.2151 0.72247,-1.41497c0.15083,-0.11504 0.24119,-0.26625 0.3013,-0.43552c0.0959,-0.43515 0.25154,-1.24497 0.28659,-1.92168c0.11179,-1.69784 0.02034,-2.16286 -0.07183,-3.03871c-0.09217,-0.87584 -0.37976,-2.93546 1.25652,-3.47604c1.39472,-0.47974 1.97662,0.60669 2.03228,1.3376z" fill="#ffab19" fill-rule="evenodd" stroke="#001026" stroke-width="0.5" stroke-linecap="round" stroke-linejoin="round"/><path d="M220.31891,175.92705c0.17613,0.14091 2.32499,2.67727 3.02953,2.04318c0.84546,-0.73977 2.00795,-2.18409 3.27612,-1.02159c1.26818,1.1625 -1.12727,3.13522 -2.14886,3.66362c-2.43068,1.09204 -4.40339,-0.98636 -4.82612,-1.55c-0.42272,-0.56363 -1.1625,-1.51477 -1.1625,-2.43068c0.03522,-0.98636 1.23296,-1.23296 1.83181,-0.70454z" fill="#ffab19" fill-rule="evenodd" stroke="#001026" stroke-width="0.5" stroke-linecap="round" stroke-linejoin="round"/><g fill-rule="evenodd" stroke-width="0.5"><path d="M220.35415,184.13497c0.73977,0.66931 2.36022,2.04318 2.36022,2.04318c0,0 5.03748,-0.88068 5.03748,1.65568c0,1.51477 -2.53636,1.86704 -5.95339,1.55c-0.21137,-0.03522 -0.42272,-0.10568 -0.59887,-0.24659c-0.775,-0.66931 -2.99431,-2.64203 -4.40339,-4.0159c-2.0784,-2.04318 -3.80453,-3.38181 -3.80453,-3.38181c-2.99431,-2.92386 -0.56363,-4.1568 0.3875,-5.84771c0.88068,-1.44431 1.26818,-1.1625 3.38181,-0.73977c1.19772,0.17613 1.90227,0.28182 2.67727,0.24659c1.1625,-0.03522 0.95113,1.65568 0.63409,2.53636c0,0 -0.49318,1.3034 -0.95113,1.97272c-0.56363,0.81022 -0.98636,1.33863 -1.40909,1.65568z" fill="#ffab19" stroke="#001026" stroke-linecap="round" stroke-linejoin="round"/><path d="M217.39506,181.52816c0,0 -0.52841,-0.42272 -1.09204,-0.95113c-0.70454,-0.63409 -1.40909,-1.1625 -0.70454,-2.25453c0.63409,-0.84546 1.23296,-1.97272 2.81817,-0.95113c1.51477,0.95113 0.84546,1.83181 0.84546,1.83181c-0.775,1.58522 -1.86704,2.32499 -1.86704,2.32499z" fill="#ffffff" stroke="none" stroke-linecap="butt" stroke-linejoin="miter"/></g><path d="M212.07576,178.63954c0.775,0.98636 1.97272,2.21931 0.45796,3.2409c-2.0784,1.1625 -3.80453,-2.36022 -4.1568,-3.59317c-0.31704,-1.09204 0.59887,-1.79659 1.37386,-2.39545c1.51477,-1.09204 2.78295,-2.0784 4.19203,-1.55c1.76136,0.63409 0.49318,2.04318 -0.3875,2.67727c-0.52841,0.3875 -1.05681,0.81022 -1.44431,1.05681c-0.10568,0.17613 -0.14091,0.3875 -0.03522,0.56363z" fill="#ffab19" fill-rule="evenodd" stroke="#001026" stroke-width="0.5" stroke-linecap="round" stroke-linejoin="round"/><g><path d="M223.17231,154.89643c0.10568,-0.07046 0.28182,-0.03522 0.31704,0.10568l0.91591,3.76931c0,0 2.25453,1.65568 2.92386,2.81817c1.12727,1.93749 1.1625,3.52271 1.1625,3.52271c0,0 2.50113,0.73977 2.92386,2.74772c0.42272,2.00795 -1.12727,5.81248 -7.74998,7.11589c-6.6227,1.3034 -11.94201,-0.49318 -14.44314,-4.50908c-2.50113,-4.0159 1.44431,-8.80679 1.23296,-8.52497l-0.73977,-6.30566c-0.03522,-0.14091 0.14091,-0.24659 0.28182,-0.17613l4.26249,2.78295c0,0 1.58522,-0.59887 3.2409,-0.66931c0.98636,-0.07046 1.83181,0 2.64203,0.14091z" fill="#ffab19" fill-rule="evenodd" stroke="#001026" stroke-width="0.5" stroke-linecap="butt" stroke-linejoin="miter"/><path d="M228.38594,165.25321c0,0 2.43068,0.63409 2.8534,2.64203c0.42272,2.00795 -1.26818,5.63635 -7.82044,6.90452c-8.52497,1.76136 -3.80453,-7.60907 -0.84545,-7.82044c2.53636,-0.17613 2.81817,-2.39545 5.81248,-1.72613z" fill="#ffffff" fill-rule="evenodd" stroke="none" stroke-width="0.5" stroke-linecap="butt" stroke-linejoin="miter"/><path d="M234.86773,165.64071c-1.65568,1.33863 -4.19203,1.37386 -4.19203,1.37386" fill="none" fill-rule="evenodd" stroke="#001026" stroke-width="0.5" stroke-linecap="round" stroke-linejoin="round"/><path d="M234.40978,169.58616c-2.21931,0.17613 -3.59317,-0.49318 -3.59317,-0.49318" fill="none" fill-rule="evenodd" stroke="#001026" stroke-width="0.5" stroke-linecap="round" stroke-linejoin="round"/><path d="M229.09823,164.31767c0.73977,0 1.51477,0.07046 1.55,0.31704c0.03522,0.49318 -0.49318,1.47954 -1.05681,1.51477c-0.63409,0.07046 -2.11363,-0.81022 -2.11363,-1.37386c-0.03522,-0.42272 0.91591,-0.45796 1.62045,-0.45796z" fill="#001026" fill-rule="evenodd" stroke="#001026" stroke-width="0.5" stroke-linecap="round" stroke-linejoin="round"/><path d="M206.58032,165.53502c0,0 3.02953,0.98636 4.26249,2.0784" fill="none" fill-rule="evenodd" stroke="#001026" stroke-width="0.5" stroke-linecap="round" stroke-linejoin="round"/><path d="M210.94849,168.84639c-1.51477,0.59887 -4.12158,0.21137 -4.12158,0.21137" fill="none" fill-rule="evenodd" stroke="#001026" stroke-width="0.5" stroke-linecap="round" stroke-linejoin="round"/><g fill-rule="evenodd" stroke-width="0.5"><path d="M226.58935,161.94186c1.02159,1.58522 1.05681,3.38181 0.07046,4.0159c-0.98636,0.63409 -2.60681,-0.10568 -3.66362,-1.6909c-1.02159,-1.58522 -1.05681,-3.38181 -0.07046,-4.0159c0.98636,-0.66931 2.64203,0.10568 3.66362,1.6909z" fill="#ffffff" stroke="#001026" stroke-linecap="round" stroke-linejoin="round"/><path d="M226.44844,163.94981c0,0.3875 -0.28182,0.70454 -0.63409,0.70454c-0.35227,0 -0.63409,-0.31704 -0.63409,-0.70454c0,-0.3875 0.28182,-0.70454 0.63409,-0.70454c0.35227,0 0.63409,0.31704 0.63409,0.70454" fill="#001026" stroke="none" stroke-linecap="butt" stroke-linejoin="miter"/></g><g fill="none" fill-rule="nonzero" stroke="none" stroke-width="1" stroke-linecap="butt" stroke-linejoin="miter" font-family="sans-serif" font-weight="normal" font-size="12" text-anchor="start"/></g><path d="M214.58441,183.2963v12.95366" fill="none" fill-rule="nonzero" stroke="#8d6547" stroke-width="2.5" stroke-linecap="round" stroke-linejoin="miter"/><path d="M221.87621,184.06837h-14.66938" fill="none" fill-rule="nonzero" stroke="#000000" stroke-width="4" stroke-linecap="round" stroke-linejoin="miter"/></g></g></svg>