<svg version="1.1" xmlns="http://www.w3.org/2000/svg" xmlns:xlink="http://www.w3.org/1999/xlink" width="37.25087" height="54.9193" viewBox="0,0,37.25087,54.9193"><g transform="translate(-240.35091,-141.24688)"><g data-paper-data="{&quot;isPaintingLayer&quot;:true}" fill-rule="nonzero" stroke-miterlimit="10" stroke-dasharray="" stroke-dashoffset="0" style="mix-blend-mode: normal"><path d="M264.1258,177.79327v0c0,0.22473 -0.0245,0.37997 -0.03776,0.44972c-0.96418,1.28513 -3.06475,3.49398 -3.85296,3.37924c-0.08373,-0.01326 -0.29945,-0.04525 -0.29945,-0.85245c0,-0.23875 0.44795,-2.99253 0.42146,-3.12901c0.35823,-0.34297 1.67536,-1.50865 2.82654,-1.26716c0.79792,0.16674 0.94216,0.90543 0.94216,1.41966z" data-paper-data="{&quot;index&quot;:null}" fill="#ffc93e" stroke="#603813" stroke-width="0.65" stroke-linecap="butt" stroke-linejoin="miter"/><path d="M267.31757,181.65197v0c-0.20924,0.22725 -0.46249,0.33773 -0.77445,0.33724c-0.39474,0 -0.75746,-0.74646 -0.98795,-1.49238l-0.30796,-0.8537c-0.43096,-0.92318 -0.94044,-2.12712 -0.96919,-2.1761c-0.06198,-0.10675 -0.08372,-0.19522 -0.08372,-0.26825c0,-0.08323 0.02799,-0.14823 0.05799,-0.1997c0.29598,-0.51223 1.53613,-0.8517 2.25357,-0.86044c0.20999,0.07023 1.44916,0.53744 1.44916,1.88335c0,0.02374 -0.00178,0.08848 -0.00178,0.08848l0.00102,0.01552c0.00075,0.00625 0.01624,0.20795 0.01624,0.51121c0,0.71469 -0.0815,2.3948 -0.65293,3.01476z" data-paper-data="{&quot;index&quot;:null}" fill="#ffc93e" stroke="#603813" stroke-width="0.65" stroke-linecap="butt" stroke-linejoin="miter"/><path d="M250.10271,171.66654v0c-2.26117,1.58723 -3.32642,2.02593 -4.18025,1.09215c-0.33398,-0.36538 -0.45176,-0.85374 -0.34232,-1.41102c0.26913,-1.36319 1.98094,-3.50638 4.20038,-4.55632c1.51516,-0.71704 6.38869,-1.08323 7.21692,-0.44183c0.06909,0.05247 0.14944,0.16375 0.142,0.20593c0.04166,0.1898 -0.04187,0.45716 -0.24209,0.68338c-0.55568,0.62815 -1.67556,1.35775 -2.87255,2.00804c-0.9304,0.50435 -1.98619,1.07785 -2.99521,1.77319l-0.92688,0.64649z" data-paper-data="{&quot;index&quot;:null}" fill="#ffc93e" stroke="#603813" stroke-width="0.65" stroke-linecap="butt" stroke-linejoin="miter"/><path d="M267.84027,153.11661v0c1.42113,0.77369 2.64504,-0.6197 3.72421,-1.84937c0.8847,-1.00716 1.97759,-2.29483 2.74206,-1.99885c0.20671,0.08022 0.34572,0.20698 0.42496,0.38747c0.28773,0.65621 -0.46148,2.24607 -0.8572,3.25249c-0.4207,1.07168 -0.72444,1.84586 -0.26146,2.15409c0.44519,0.29674 1.0864,-0.15321 1.75286,-0.47169c0.82193,-0.39199 1.63587,-0.8012 1.86361,-0.41674c0.20524,0.347 -0.70346,1.82363 -1.26641,2.83554c-0.94292,1.69487 -2.01135,3.61572 -1.44366,4.99687l0.44971,0.74894c0.7827,1.16844 2.66907,3.29454 2.30783,7.02873c-0.41445,4.28395 -4.51716,7.27345 -4.55416,7.30296l-0.15099,0.11948l0.06576,0.18049c0.41799,1.14892 0.67045,2.94704 0.32846,3.70597c-0.14296,0.31822 -0.31821,0.49347 -0.55669,0.55722c-0.71518,0.1915 -0.66997,-0.43072 -1.17741,-1.09816c-2.52958,-3.32502 -4.50691,-3.15877 -4.50691,-3.15877l-0.06775,0.01948c-1.25967,0.37349 -2.5858,0.56348 -3.9417,0.56348c-7.31046,0 -12.77205,-4.38591 -12.77205,-10.61645c0,-2.94229 1.55311,-6.08278 3.64149,-8.67284l0.01549,-0.01899l0.01123,-0.02276c0,0 0.03052,-0.05651 0.04902,-0.1c0.05799,-0.17872 1.41039,-4.39368 1.66963,-5.79555l0.10924,-0.63047c0.19771,-1.17865 0.70519,-4.3604 1.47712,-4.34865c0.51245,0.00874 0.68047,1.73686 0.83519,2.6918c0.16851,1.03942 0.0985,1.53363 0.62795,1.97533c0.64947,0.53974 1.58964,0.68572 1.60716,0.66748c0.9944,-1.05145 2.29381,-2.64556 2.29381,-2.64556l1.81761,-2.07037c1.78313,-2.09208 6.18155,-7.28269 7.10224,-6.78373c0.47594,0.25773 -0.98844,3.00801 -1.80962,4.63641c-1.5024,2.97824 -3.05529,6.05702 -1.55063,6.87473z" data-paper-data="{&quot;index&quot;:null}" fill="#ffc93e" stroke="#603813" stroke-width="0.65" stroke-linecap="round" stroke-linejoin="round"/><g data-paper-data="{&quot;index&quot;:null}" stroke="none" stroke-width="0.65" stroke-linecap="butt" stroke-linejoin="miter"><path d="M254.73501,169.85087c-1.12367,0 -2.03562,-0.9112 -2.03562,-2.03487c0,-1.12439 0.91145,-2.03683 2.03562,-2.03683c1.12492,0.00049 2.03634,0.91244 2.03634,2.03683v0c0,1.12368 -0.91142,2.03487 -2.03634,2.03487z" fill="#ffffff"/><path d="M254.46176,169.19289c-0.79091,0 -1.43261,-0.64042 -1.43261,-1.43213c0,-0.79069 0.64169,-1.43265 1.43261,-1.43265c0.79144,0 1.43239,0.6417 1.43239,1.43265v0c0,0.79118 -0.64094,1.43213 -1.43239,1.43213z" fill="#603813"/></g><path d="M254.78778,169.05524v0c0.71189,-1.04538 1.83008,-0.76077 4.29283,0.49202l1.00847,0.50666c1.09709,0.54679 2.22179,0.96349 3.2153,1.33353c1.27691,0.47315 2.48899,1.03764 3.12768,1.58121c0.23025,0.19569 0.35113,0.4477 0.33578,0.64132c0.01408,0.04127 -0.05045,0.16243 -0.11058,0.22459c-0.72915,0.75151 -5.60554,1.07871 -7.20688,0.5831c-2.3449,-0.72567 -4.34289,-2.60438 -4.80195,-3.91726c-0.18755,-0.53698 -0.13948,-1.03606 0.13935,-1.44515z" data-paper-data="{&quot;index&quot;:null}" fill="#ffc93e" stroke="#603813" stroke-width="0.65" stroke-linecap="butt" stroke-linejoin="miter"/><g stroke-linejoin="miter"><g fill="#cc9b52" stroke="#000000" stroke-width="0" stroke-linecap="butt"><path d="M240.35091,172.24911v-2.01092h12.98942v2.01092z"/><path d="M241.96398,173.72353v-2.01092h1.95656v2.01092z"/><path d="M249.77069,173.72353v-2.01092h1.95656v2.01092z" data-paper-data="{&quot;index&quot;:null}"/></g><g stroke="none" stroke-linecap="butt"><path d="M252.51226,169.30858c0,0.53204 -0.37735,0.96335 -0.84289,0.96335h-1.82884c-0.46554,0 -0.84294,-0.43131 -0.84294,-0.96335v0c0,-0.532 0.3774,-0.96329 0.84294,-0.96329h1.82884c0.46554,0 0.84289,0.4313 0.84289,0.96329z" fill="#f2ffff" stroke-width="1"/><path d="M248.78517,169.02484v-0.80316c0,0 1.22429,-0.1967 2.0079,-0.1967c0.78361,0 2.0079,0.1967 2.0079,0.1967v0.80316c0,0 -1.22429,-0.1967 -2.0079,-0.1967c-0.78361,0 -2.0079,0.1967 -2.0079,0.1967z" fill="#ff0000" stroke-width="0"/></g><g data-paper-data="{&quot;index&quot;:null}" stroke="none" stroke-linecap="butt"><path d="M246.61523,169.30858c0,-0.532 0.37735,-0.96329 0.84289,-0.96329h1.82884c0.46554,0 0.84293,0.4313 0.84293,0.96329v0c0,0.53204 -0.3774,0.96335 -0.84293,0.96335h-1.82884c-0.46554,0 -0.84289,-0.43131 -0.84289,-0.96335z" fill="#f2ffff" stroke-width="1"/><path d="M248.33443,168.82814c-0.78361,0 -2.0079,0.1967 -2.0079,0.1967v-0.80316c0,0 1.22429,-0.1967 2.0079,-0.1967c0.78361,0 2.0079,0.1967 2.0079,0.1967v0.80316c0,0 -1.22429,-0.1967 -2.0079,-0.1967z" fill="#ffe600" stroke-width="0"/><path d="M248.08037,170.27874v-2.27835h0.68842v2.27835z" fill="#000000" stroke-width="0"/></g><g data-paper-data="{&quot;index&quot;:null}" stroke="none" stroke-linecap="butt"><path d="M244.15659,169.30858c0,-0.532 0.37734,-0.96329 0.84289,-0.96329h1.82884c0.46554,0 0.84293,0.4313 0.84293,0.96329v0c0,0.53204 -0.3774,0.96335 -0.84293,0.96335h-1.82884c-0.46554,0 -0.84289,-0.43131 -0.84289,-0.96335z" fill="#f2ffff" stroke-width="1"/><path d="M245.87579,168.82814c-0.78361,0 -2.0079,0.1967 -2.0079,0.1967v-0.80316c0,0 1.22429,-0.1967 2.0079,-0.1967c0.78361,0 2.0079,0.1967 2.0079,0.1967v0.80316c0,0 -1.22429,-0.1967 -2.0079,-0.1967z" fill="#ff7a00" stroke-width="0"/></g><g><path d="M242.15317,168.52976c0.10253,-0.10243 0.20397,0.19279 0.32209,0.20311c0.06828,0.00597 0.28702,0.04294 0.30436,-0.07777c0.01266,-0.0881 -0.18155,-0.33679 -0.12754,-0.36413c0.12799,-0.0648 0.22468,0.12974 0.30756,0.13861c0.08289,0.00887 0.13618,0.1967 0.24018,0.20028c0.104,0.00358 0.1891,-0.32893 0.31962,-0.27697c0.13053,0.05196 0.15273,0.50875 0.29643,0.52222c0.1437,0.01348 0.13586,-0.45269 0.25688,-0.37513c0.0406,0.02602 0.29199,-0.01659 0.33003,0.09174c0.07534,0.2145 -0.06336,0.63779 0.02613,0.67624c0.07082,0.03042 0.16827,-0.75637 0.2731,-0.84727c0.12964,-0.11241 0.21616,0.33246 0.21616,0.33246" fill="none" stroke="#ff002e" stroke-width="0.5" stroke-linecap="round"/><path d="M241.88457,170.29513v-1.60632h3.29458v1.60632z" fill="#000000" stroke="none" stroke-width="0" stroke-linecap="butt"/></g><path d="M242.30664,170.18039c-0.07342,0.36826 -1.11869,0.24177 -1.14327,0.24177c-0.124,0 -0.22758,-0.08742 -0.25247,-0.204c-0.00698,-0.01592 -0.00907,-0.03179 -0.00561,-0.04737c-0.00006,-0.00226 -0.00009,-0.00452 -0.00009,-0.00679c0,-0.0557 0.01764,-0.10727 0.04764,-0.14945c0.05717,-0.14373 0.10996,-0.22346 0.1149,-0.30839c0.00681,-0.11711 0.22919,-0.21453 0.38489,-0.23616c0.09429,-0.0131 0.13236,0.03982 0.23416,0.06018c0.14758,0.02952 0.25557,0.13306 0.37607,0.22063c0.14589,0.106 0.28725,0.21147 0.24376,0.42959z" fill="#37991f" stroke="none" stroke-width="0.5" stroke-linecap="butt"/></g><path d="M247.80085,168.41505l9.49298,0.7174l-9.02357,0.60195" data-paper-data="{&quot;index&quot;:null}" fill="none" stroke="#805833" stroke-width="0.5" stroke-linecap="round" stroke-linejoin="miter"/><g data-paper-data="{&quot;index&quot;:null}" stroke-linejoin="miter"><path d="M260.27855,194.91618v-14.1l13.7,0.4l-0.3,-20.2l0.5,33.9" data-paper-data="{&quot;index&quot;:null}" fill="none" stroke="#b37b47" stroke-width="2.5" stroke-linecap="round"/><path d="M271.87856,179.16618c0,0.35898 -2.73107,0.65 -6.1,0.65c-3.36893,0 -6.1,-0.29102 -6.1,-0.65c0,-0.35898 2.73107,-0.65 6.1,-0.65c3.36893,0 6.1,0.29102 6.1,0.65z" data-paper-data="{&quot;index&quot;:null}" fill="#997a6b" stroke="#997a6b" stroke-width="2" stroke-linecap="butt"/></g></g></g></svg>