<svg version="1.1" xmlns="http://www.w3.org/2000/svg" xmlns:xlink="http://www.w3.org/1999/xlink" width="377.98436" height="243.71147" viewBox="0,0,377.98436,243.71147"><defs><linearGradient x1="390.63463" y1="195.02439" x2="403.13463" y2="195.02439" gradientUnits="userSpaceOnUse" id="color-1"><stop offset="0" stop-color="#007427"/><stop offset="1" stop-color="#41c200"/></linearGradient><linearGradient x1="396.88463" y1="153.25764" x2="396.88463" y2="167.25764" gradientUnits="userSpaceOnUse" id="color-2"><stop offset="0" stop-color="#57d941"/><stop offset="1" stop-color="#5a9f30"/></linearGradient><linearGradient x1="401.73128" y1="211.65773" x2="414.23128" y2="211.65773" gradientUnits="userSpaceOnUse" id="color-3"><stop offset="0" stop-color="#007427"/><stop offset="1" stop-color="#41c200"/></linearGradient><linearGradient x1="407.98128" y1="169.89097" x2="407.98128" y2="183.89097" gradientUnits="userSpaceOnUse" id="color-4"><stop offset="0" stop-color="#57d941"/><stop offset="1" stop-color="#5a9f30"/></linearGradient><linearGradient x1="380.87369" y1="225.54337" x2="393.37369" y2="225.54337" gradientUnits="userSpaceOnUse" id="color-5"><stop offset="0" stop-color="#007427"/><stop offset="1" stop-color="#41c200"/></linearGradient><linearGradient x1="387.12369" y1="183.77662" x2="387.12369" y2="197.77662" gradientUnits="userSpaceOnUse" id="color-6"><stop offset="0" stop-color="#57d941"/><stop offset="1" stop-color="#5a9f30"/></linearGradient><linearGradient x1="396.36122" y1="217.19149" x2="396.36122" y2="247.71852" gradientUnits="userSpaceOnUse" id="color-7"><stop offset="0" stop-color="#81d43e"/><stop offset="1" stop-color="#31ab3d"/></linearGradient></defs><g transform="translate(-50.98128,-44.52655)"><g data-paper-data="{&quot;isPaintingLayer&quot;:true}" fill-rule="nonzero" stroke-linejoin="miter" stroke-miterlimit="10" stroke-dasharray="" stroke-dashoffset="0" style="mix-blend-mode: normal"><path d="M52.73128,286.48798v-178.29877c0,-25.25407 20.54922,-45.81206 45.81206,-45.81206h282.8602c25.26291,0 45.8121,20.55816 45.8121,45.81206v178.2988z" fill="none" stroke-opacity="0.5098" stroke="#a63c3c" stroke-width="3.5" stroke-linecap="butt"/><g stroke-linecap="butt" font-family="Sans Serif" font-weight="normal" font-size="40" text-anchor="start"><text transform="translate(216.12545,69.15244) scale(0.52173,0.52173)" font-size="40" xml:space="preserve" fill="#000000" fill-rule="nonzero" stroke="#000000" stroke-width="8" stroke-linecap="butt" stroke-linejoin="miter" stroke-miterlimit="10" stroke-dasharray="" stroke-dashoffset="0" font-family="Sans Serif" font-weight="normal" text-anchor="start" style="mix-blend-mode: normal"><tspan x="0" dy="0">2024</tspan></text><text transform="translate(216.12545,69.15244) scale(0.52173,0.52173)" font-size="40" xml:space="preserve" fill="#ff0000" fill-rule="nonzero" stroke="none" stroke-width="1" stroke-linecap="butt" stroke-linejoin="miter" stroke-miterlimit="10" stroke-dasharray="" stroke-dashoffset="0" font-family="Sans Serif" font-weight="normal" text-anchor="start" style="mix-blend-mode: normal"><tspan x="0" dy="0">2024</tspan></text><text transform="translate(216.12545,69.15244) scale(0.52173,0.52173)" font-size="40" xml:space="preserve" fill="#ffffff" fill-rule="nonzero" stroke="#ffffff" stroke-width="4" stroke-linecap="butt" stroke-linejoin="miter" stroke-miterlimit="10" stroke-dasharray="" stroke-dashoffset="0" font-family="Sans Serif" font-weight="normal" text-anchor="start" style="mix-blend-mode: normal"><tspan x="0" dy="0">2024</tspan></text><text transform="translate(216.12545,69.15244) scale(0.52173,0.52173)" font-size="40" xml:space="preserve" fill="#ff0000" fill-rule="nonzero" stroke-opacity="0" stroke="#000000" stroke-width="0" stroke-linecap="butt" stroke-linejoin="miter" stroke-miterlimit="10" stroke-dasharray="" stroke-dashoffset="0" font-family="Sans Serif" font-weight="normal" text-anchor="start" style="mix-blend-mode: normal"><tspan x="0" dy="0">2024</tspan></text></g><path d="M302.63404,284.96626l-4.5045,-20.81475h61.1413l-4.5045,20.81475z" fill="#ca873a" stroke="none" stroke-width="0" stroke-linecap="butt"/><path d="M288.34692,264.4776v-18.99456h80.70652v18.99456z" fill="#c9a780" stroke="none" stroke-width="0" stroke-linecap="butt"/><path d="M363.75453,235.76348c0,11.24293 -15.69437,20.35713 -35.05435,20.35713c-19.35998,0 -35.05435,-9.1142 -35.05435,-20.35713c0,-11.24293 15.69437,-20.35712 35.05435,-20.35712c19.35998,0 35.05435,9.11419 35.05435,20.35712z" fill="#e4e4e4" stroke="none" stroke-width="0" stroke-linecap="butt"/><path d="M355.15353,215.77239c0,8.43562 -11.84357,15.27405 -26.45335,15.27405c-14.60978,0 -26.45335,-6.83843 -26.45335,-15.27404c0,-8.43562 11.84357,-15.27404 26.45335,-15.27404c14.60978,0 26.45335,6.83843 26.45335,15.27405z" fill="#f8f8f8" stroke="none" stroke-width="0" stroke-linecap="butt"/><path d="M319.43881,199.79403c0,-5.11491 4.14646,-9.26137 9.26137,-9.26137c5.11491,0 9.26137,4.14646 9.26137,9.26137c0,5.11491 -4.14646,9.26136 -9.26137,9.26136c-5.11491,0 -9.26137,-4.14645 -9.26137,-9.26136z" fill="#f99f4b" stroke="none" stroke-width="0" stroke-linecap="butt"/><path d="M330.41297,191.66153c0,0 -2.96318,2.64066 -5.98691,2.13341c-3.02373,-0.50725 -5.24574,-2.28481 -4.96299,-3.9703c0.28275,-1.6855 2.96318,-2.64067 5.98691,-2.13342c3.02373,0.50725 4.96299,3.97031 4.96299,3.97031z" fill="#26a82c" stroke-opacity="0.44706" stroke="#4a8d2c" stroke-width="4" stroke-linecap="butt"/><path d="M288.34692,264.4776v-14.70885h80.70652v14.70885z" fill="#ca873a" stroke="none" stroke-width="0" stroke-linecap="butt"/><g fill="none" stroke-width="14" stroke-linecap="round"><path d="M396.88463,235.76348v-81.47819" stroke="url(#color-1)"/><path d="M396.88463,166.22998v-11.94468" stroke="url(#color-2)"/><path d="M407.98128,252.39682v-81.47819" stroke="url(#color-3)"/><path d="M407.98128,182.86332v-11.94468" stroke="url(#color-4)"/><path d="M387.12369,266.28246v-81.47819" stroke="url(#color-5)"/><path d="M387.12369,196.74896v-11.94468" stroke="url(#color-6)"/></g><path d="M375.47905,284.41727v-58.8739h46.54429v58.8739z" fill="#dca05c" stroke="none" stroke-width="none" stroke-linecap="butt"/><path d="M398.43624,222.40665l0.88241,-0.35296l0.17039,-0.02324l0.15174,-0.08093l1.41185,-0.35296h0.30777l0.29858,-0.07465h0.5428l0.02336,-0.01557l0.0701,0.01557h0.06966l0.28895,0.07224l0.31458,-0.13483l0.14243,-0.02297l0.124,-0.07373l1.76481,-0.52945l0.03234,-0.00151l0.02823,-0.01584l0.97064,-0.26472l0.02733,-0.00058l0.02412,-0.01287l1.41185,-0.35296h0.05252l0.04731,-0.0228l2.50883,-0.51907l1.0092,-0.25231h0.1533l0.14296,-0.05533l2.11777,-0.26472l0.15682,0.01901l0.15326,-0.03832h0.09567l0.11034,-0.14712l0.24609,-0.19995l0.19217,-0.25222l0.22911,-0.18329l0.00239,-0.00906l0.02899,-0.01605l0.1807,-0.14457l0.46758,-0.2143l0.45,-0.24911l0.2236,-0.05963l0.03012,-0.0138l0.00871,0.00345l0.99758,-0.26602l0.02561,-0.02672h0.66318l0.6631,-0.01036l0.02603,0.02632l0.10074,0.02519l0.02216,-0.00826l0.05931,0.02863l0.1069,0.02672l0.49198,0.26239l0.50214,0.24241l0.08465,0.07054l0.05811,0.031l0.0064,0.02277l0.38028,0.3169l0.14978,0.20496l0.20193,0.15385l0.35296,0.4412l0.0461,0.10057l0.08186,0.07441l0.17648,0.26472l0.12009,0.33626l0.18598,0.3048l0.43417,1.38934l0.11836,0.35509l0.11232,0.03419l0.8824,0.52944l0.21762,0.21762l0.26391,0.15834l0.52945,0.52945l0.07243,0.12071l0.11198,0.08532l0.35296,0.4412l0.11082,0.24178l0.17308,0.20193l0.79416,1.58833l0.02302,0.10356l0.06211,0.086l0.17648,0.4412l0.03125,0.22916l0.09901,0.20902l0.26473,1.32361l-0.01185,0.24872l0.06039,0.24157v1.41184l-0.02378,0.0951l0.01641,0.09664l-0.08824,1.14713l-0.12954,0.38863l-0.06523,0.40443l-0.26472,0.61768l-0.15699,0.20657l-0.09279,0.24229l-0.61768,0.88241l-0.04865,0.04225l-0.02605,0.05894l-0.60422,0.77686l-0.25156,0.33542l-0.3119,0.25342l-0.26507,0.30206l-1.14713,0.79416l-0.05656,0.02133v0.02962l-0.0136,0.05439v0.0452l-0.08238,0.32954l-0.00882,0.33957l-0.4412,1.58832l-0.11997,0.21153l-0.05275,0.23739l-1.32361,2.64722l-0.1171,0.13662l-0.06348,0.16837l-0.79417,1.14713l-0.05339,0.04685l-0.02871,0.06498l-0.61768,0.79416l-0.32601,0.25552l-0.2817,0.30366l-2.02953,1.3236l-0.04543,0.01572l-0.034,0.03399l-0.88241,0.52944l-0.0136,0.00414l-0.02265,0.03964l-0.60238,0.15059l-0.59402,0.18079l-0.03981,-0.02233l-0.01378,0.00345h-2.47073l-0.17456,-0.04365l-0.17899,0.01852l-0.61768,-0.08824l-0.2276,-0.09273l-0.24473,-0.0225l-1.76481,-0.61768l-0.13474,-0.08859l-0.15741,-0.03499l-0.63695,-0.31847l-0.84704,-0.21176h-2.43788l-1.18727,0.0742l-0.82605,0.15019l-0.22676,-0.01479l-0.22045,0.05512h-4.41203l-0.3675,-0.09187l-0.37818,-0.02193l-1.24725,-0.38977l-0.35935,-0.05989l-0.12472,-0.05423h-0.34669l-0.38988,-0.09747l-0.40069,-0.03082l-0.52944,-0.17648l-0.33905,-0.21576l-0.37038,-0.15595l-0.01472,-0.01104l-0.0736,-0.0184h-2.55897l-0.35296,-0.08824h-0.70592l-0.29857,-0.07465h-0.30777l-0.35296,-0.08824l-0.03798,-0.02026l-0.09888,-0.02472l-0.18443,0.05029l-0.27545,-0.16527l-0.31164,-0.0779l-0.08452,-0.14792l-0.13647,-0.06824l-0.09923,-0.08505l-0.04264,-0.02559l-0.12684,-0.04531l-0.21522,-0.14348l-0.39019,-0.23412l-0.21762,-0.21762l-0.15744,-0.09446l-0.00097,-0.00006l-0.00092,-0.00108l-0.09455,-0.05674l-0.10995,-0.02748l-0.04897,-0.08571l-0.09857,-0.00547l-0.28122,-0.32809l-0.44197,-0.26519l-0.04926,-0.04925l-0.06057,-0.03855l-0.00551,-0.02754l-0.03404,-0.03403l-0.02754,-0.00551l-0.03855,-0.06058l-0.04926,-0.04926l-0.12638,-0.21064l-0.02963,-0.01886l-0.37038,-0.15595l-0.01472,-0.01104l-0.27793,-0.06949l-0.56075,-0.12461l-0.06231,-0.03115l-0.06966,-0.01741l-0.01393,-0.02439l-0.03058,-0.01529l-0.15498,-0.13284l-0.12453,-0.00692l-0.13342,-0.15566l-0.159,-0.10118l-0.31447,-0.11231l-0.23725,-0.15816l-0.03826,-0.00213l-0.19392,-0.22625l-0.02141,-0.01362l-0.00296,-0.01481l-0.20259,-0.23636l-0.32317,-0.35548l-0.84947,-0.35395l-0.10131,-0.0754l-0.12239,-0.03111l-1.14713,-0.61768l-0.04402,-0.04011l-0.05697,-0.01734l-0.17118,-0.10271l-0.58499,-0.13l-0.27528,-0.13764l-0.30043,-0.06676l-0.15584,-0.07792l-0.90958,-0.12128l-0.2063,-0.08181l-0.1262,0.03442l-0.41517,-0.2491l-0.45007,-0.17847l-0.0344,-0.08451l-0.28591,-0.10722l-0.13777,-0.09502l-0.11115,0.00767l-0.38425,-0.34933l-0.4275,-0.29483l-0.01779,-0.10998l-0.12384,-0.11258l-0.17648,-0.26472l-0.05313,-0.14878l-0.10281,-0.11995l-0.19511,-0.39023l-0.01009,-0.01514l-0.94457,-0.21798l-0.42546,-0.21707l-0.44605,-0.17083l-0.8824,-0.61768l-0.20702,-0.23838l-0.25747,-0.18273l-0.52944,-0.61768l-0.09168,-0.18335l-0.09371,-0.09719l-0.41316,-0.41315l-0.0243,-0.04051l-0.05133,-0.05324l0.00119,-0.03033l-0.15967,-0.26612l-0.31996,-0.47994l-0.08795,-0.24627l-0.15311,-0.212l-0.17649,-0.4412l-0.05794,-0.4249l-0.04965,-0.14896l-0.01795,-0.01839l0.00108,-0.03224l-0.19077,-0.57231l-0.0108,-0.14036l-0.062,-0.12638l-0.26472,-1.23537l0.00433,-0.12784l-0.04454,-0.11991l-0.08824,-0.79416l0.01885,-0.13951l-0.03415,-0.13657v-1.59018l-0.00663,-0.00904l0.00663,-0.03792v-0.21591l0.12596,-0.50381l0.08952,-0.51154l0.08769,-0.19731l0.00933,-0.03734l0.00974,-0.00557l0.2462,-0.55394l0.22381,-0.28648l0.16258,-0.32515l0.39228,-0.45767l0.09003,-0.15004l-0.00104,-0.03208l0.05251,-0.0537l0.01479,-0.02466l0.41911,-0.41911l0.41438,-0.4238l0.02448,-0.01506l0.05311,-0.05311l0.03208,0.00068l1.03744,-0.63842l0.17734,-0.05616l0.1481,-0.11256l0.34999,-0.14999l0.00249,-0.00436l0.01846,-0.00462l0.24675,-0.10575l0.4967,-0.08011l0.18971,-0.04743l0.00361,-0.01624l0.03116,-0.06231l0.01742,-0.06966l0.02438,-0.01393l0.28001,-0.56002l0.10281,-0.11995l0.05313,-0.14878l0.35296,-0.52944l0.04278,-0.0389l0.00665,-0.06564l0.4662,-0.36422l0.43776,-0.39796l0.06582,0.00454l0.04557,-0.0356l0.55395,-0.2462l0.00556,-0.00974l0.03735,-0.00933l0.19731,-0.08769l0.51154,-0.08952l0.5038,-0.12596h0.21592l0.03791,-0.00664l0.00904,0.00664h1.23721l0.27975,0.06994l0.28832,-0.00454l2.64722,0.61768l0.22789,0.11697l0.25167,0.04773l1.14713,0.52945l0.01373,0.01104l0.01727,0.00352l2.02953,0.97064l0.24061,0.19903l0.2812,0.13575l0.83598,0.69665l0.15474,0.07737l0.06538,-0.0416l0.44322,-0.34739l0.08386,0.01197l0.08486,-0.054l0.79416,-0.26472l0.22657,-0.01743l0.21044,-0.08573l0.61768,-0.08825l0.26131,0.02703l0.25854,-0.04662l1.3236,0.08824l0.40179,0.12939l0.41671,0.06722l0.61768,0.26472l0.15501,0.11781l0.1852,0.06006l1.41185,0.88241l0.08586,0.08905l0.11341,0.04939l1.14713,0.88241l0.10228,0.12906l0.14121,0.08472l0.61768,0.61769l0.08128,0.13546l0.12434,0.09745l0.48365,0.62184l0.58051,-0.34831l0.0319,-0.00971l0.02419,-0.02296l2.02953,-1.14712l0.16386,-0.04526z" fill="url(#color-7)" stroke="none" stroke-width="0.5" stroke-linecap="butt"/><path d="M387.12369,247.41498l11.19045,-11.19045l10.56042,10.56043" fill="none" stroke="#ff4040" stroke-width="9" stroke-linecap="round"/><path d="M417.03665,226.94468c0,6.01462 -18.18072,10.89044 -18.18072,10.89044c0,0 -18.18073,-4.87582 -18.18073,-10.89044c0,-6.01462 8.13979,-10.89043 18.18073,-10.89043c10.04094,0 18.18072,4.87581 18.18072,10.89043z" fill="#c73333" stroke="none" stroke-width="0" stroke-linecap="butt"/><path d="M411.8565,230.24481c0,4.3009 -13.00057,7.78748 -13.00057,7.78748c0,0 -13.00057,-3.48657 -13.00057,-7.78748c0,-4.3009 5.82056,-7.78746 13.00057,-7.78746c7.18002,0 13.00057,3.48656 13.00057,7.78746z" fill="#ececec" stroke="none" stroke-width="0" stroke-linecap="butt"/><g stroke="none" stroke-width="0.5" stroke-linecap="butt"><path d="M416.33078,236.06115c-0.22783,0.23478 -0.49054,0.41528 -0.77199,0.54123c0.20937,0.81527 0.00205,1.71693 -0.62705,2.36524c-0.96152,0.99087 -2.54426,1.01466 -3.53513,0.05313c-0.19855,-0.19267 -0.35827,-0.41028 -0.47901,-0.64307c-0.88052,0.33703 -1.91521,0.15915 -2.63638,-0.54066c-0.94247,-0.91456 -1.01003,-2.39112 -0.18699,-3.38583c-0.18017,-0.10249 -0.35044,-0.22922 -0.50611,-0.38028c-0.99087,-0.96152 -1.01466,-2.54426 -0.05313,-3.53513c0.53211,-0.54835 1.25446,-0.80053 1.96147,-0.75345c0.1166,-0.32575 0.30305,-0.63241 0.5597,-0.8969c0.96152,-0.99087 2.54427,-1.01466 3.53514,-0.05313c0.31085,0.30165 0.52652,0.66443 0.64646,1.0509c0.71372,-0.07701 1.45513,0.15237 2.01057,0.69135c0.36609,0.35525 0.60017,0.7953 0.70132,1.25897c0.10685,0.48979 0.06537,1.00592 -0.12552,1.4763c0.39896,0.9041 0.23718,1.99852 -0.49334,2.75133z" fill="#e62727"/><path d="M410.6762,232.49704c0.76923,-0.7927 2.03541,-0.81173 2.82811,-0.04251c0.7927,0.76923 0.81173,2.03541 0.04251,2.82811c-0.76923,0.7927 -2.0354,0.81173 -2.8281,0.04251c-0.7927,-0.76923 -0.81173,-2.03541 -0.04251,-2.82811z" fill="#e4e634"/></g><g stroke="none" stroke-width="0.5" stroke-linecap="butt"><path d="M394.34579,235.82571c0.26727,-0.18866 0.5588,-0.31753 0.85867,-0.38932c-0.05518,-0.83991 0.31512,-1.68777 1.05315,-2.20871c1.128,-0.79621 2.6879,-0.52724 3.48412,0.60076c0.15954,0.22602 0.27632,0.46939 0.35199,0.72047c0.92762,-0.16859 1.91165,0.19735 2.49115,1.01833c0.75732,1.07291 0.55098,2.53654 -0.44163,3.36211c0.15814,0.13401 0.30208,0.29001 0.42716,0.46722c0.79622,1.12801 0.52724,2.68791 -0.60076,3.48412c-0.62424,0.44063 -1.38073,0.55504 -2.06688,0.37817c-0.17476,0.29861 -0.41465,0.56555 -0.71574,0.77808c-1.128,0.79621 -2.68791,0.52724 -3.48412,-0.60076c-0.24978,-0.35387 -0.39473,-0.75025 -0.44121,-1.15222c-0.71567,-0.05614 -1.40195,-0.41853 -1.84828,-1.05083c-0.29417,-0.41676 -0.44295,-0.89248 -0.45671,-1.36685c-0.01454,-0.50109 0.12156,-1.00069 0.39605,-1.42771c-0.2251,-0.96223 0.13605,-2.00794 0.99305,-2.61286z" fill="#e62727"/><path d="M399.24474,240.37296c-0.90241,0.63698 -2.15032,0.4218 -2.78729,-0.48061c-0.63698,-0.90241 -0.4218,-2.15033 0.48061,-2.7873c0.90241,-0.63698 2.15032,-0.4218 2.78729,0.48061c0.63698,0.90241 0.4218,2.15032 -0.48061,2.7873z" fill="#e4e634"/></g><g stroke="none" stroke-width="0.5" stroke-linecap="butt"><path d="M389.29544,230.95494c0,0.32716 -0.06284,0.63963 -0.17711,0.92603c0.71801,0.43928 1.19715,1.23073 1.19715,2.1341c0,1.38071 -1.11929,2.5 -2.5,2.5c-0.27666,0 -0.54282,-0.04494 -0.79159,-0.12792c-0.3972,0.85507 -1.26363,1.44797 -2.26853,1.44797c-1.31327,0 -2.39003,-1.01261 -2.49209,-2.29963c-0.20067,0.05192 -0.41113,0.07954 -0.62803,0.07954c-1.38071,0 -2.5,-1.11929 -2.5,-2.5c0,-0.76408 0.34278,-1.4481 0.88295,-1.90668c-0.14318,-0.31498 -0.22293,-0.66489 -0.22293,-1.03344c0,-1.38071 1.11929,-2.5 2.5,-2.5c0.43315,0 0.84057,0.11016 1.19578,0.30398c0.45857,-0.5523 1.15039,-0.90401 1.92435,-0.90401c0.51013,0 0.98456,0.15279 1.38005,0.4151c0.41776,0.27708 0.74743,0.67639 0.93802,1.14689c0.91593,0.37099 1.56198,1.26908 1.56198,2.31806z" fill="#e62727"/><path d="M382.75536,232.335c0,-1.10457 0.89543,-2 2,-2c1.10457,0 2,0.89543 2,2c0,1.10457 -0.89543,2 -2,2c-1.10457,0 -2,-0.89543 -2,-2z" fill="#e4e634"/></g></g></g></svg>