<svg version="1.1" xmlns="http://www.w3.org/2000/svg" xmlns:xlink="http://www.w3.org/1999/xlink" width="27.71741" height="46.65654" viewBox="0,0,27.71741,46.65654"><g transform="translate(-235.68279,-149.9688)"><g data-paper-data="{&quot;isPaintingLayer&quot;:true}" fill-rule="nonzero" stroke-miterlimit="10" stroke-dasharray="" stroke-dashoffset="0" style="mix-blend-mode: normal"><g stroke-linejoin="miter"><path d="M238.44997,195.37534l0.5,-33.9l-0.3,20.2l13.7,-0.4v14.1" data-paper-data="{&quot;index&quot;:null}" fill="none" stroke="#8d6547" stroke-width="2.5" stroke-linecap="round"/><path d="M246.68331,179.30867c3.36893,0 6.1,0.29102 6.1,0.65c0,0.35898 -2.73107,0.65 -6.1,0.65c-3.36893,0 -6.1,-0.29102 -6.1,-0.65c0,-0.35898 2.73107,-0.65 6.1,-0.65z" data-paper-data="{&quot;index&quot;:null}" fill="#4c4c4c" stroke="#666666" stroke-width="2" stroke-linecap="butt"/></g><path d="M249.51467,178.69199c0,-0.40354 0.11319,-0.98322 0.73936,-1.11407c0.90338,-0.18951 1.93699,0.72525 2.21811,0.9944c-0.02079,0.1071 0.33074,2.26812 0.33074,2.45548c0,0.63345 -0.16929,0.65855 -0.23499,0.66896c-0.61854,0.09004 -2.26696,-1.64334 -3.02359,-2.65184c-0.01041,-0.05474 -0.02963,-0.17656 -0.02963,-0.35292v0z" fill="#ffc93e" stroke="#603813" stroke-width="0.65" stroke-linecap="butt" stroke-linejoin="miter"/><path d="M247.00993,181.72008c-0.44843,-0.48651 -0.51238,-1.80497 -0.51238,-2.36582c0,-0.23798 0.01216,-0.39626 0.01274,-0.40117l0.0008,-0.01218c0,0 -0.0014,-0.0508 -0.0014,-0.06943c0,-1.0562 0.97243,-1.42284 1.13722,-1.47795c0.56301,0.00686 1.53621,0.27326 1.76848,0.67523c0.02354,0.04039 0.04551,0.0914 0.04551,0.15671c0,0.05731 -0.01706,0.12674 -0.0657,0.21051c-0.02256,0.03844 -0.42237,0.98322 -0.76057,1.70768l-0.24167,0.66994c-0.18088,0.58536 -0.46552,1.17114 -0.77529,1.17114c-0.24481,0.00038 -0.44355,-0.08631 -0.60775,-0.26465v0z" fill="#ffc93e" stroke="#603813" stroke-width="0.65" stroke-linecap="butt" stroke-linejoin="miter"/><path d="M259.69262,174.06312l-0.43724,-0.77153c-0.47885,-0.83393 -1.03207,-1.59744 -1.51994,-2.26954c-0.62718,-0.86568 -1.17291,-1.76141 -1.35358,-2.39426c-0.06514,-0.22795 -0.03374,-0.4455 0.06003,-0.56576c0.00902,-0.03238 0.10358,-0.08395 0.17026,-0.0977c0.80352,-0.17361 4.12962,1.73593 4.95943,2.75661c1.21566,1.49484 1.70177,3.59172 1.43068,4.64789c-0.11124,0.43157 -0.35999,0.73741 -0.72014,0.88298c-0.92065,0.37192 -1.52621,-0.29936 -2.58948,-2.18869v0z" fill="#ffc93e" stroke="#603813" stroke-width="0.65" stroke-linecap="butt" stroke-linejoin="miter"/><path d="M246.59975,159.32711c1.18077,-0.64169 -0.03785,-3.05775 -1.21685,-5.39491c-0.64442,-1.27788 -1.79358,-3.43615 -1.42009,-3.6384c0.72251,-0.39156 4.17415,3.68175 5.57345,5.3235l1.42636,1.62471c0,0 1.01971,1.25097 1.80006,2.07609c0.01375,0.01431 0.75154,-0.10024 1.26121,-0.5238c0.41548,-0.34662 0.36054,-0.73445 0.49278,-1.55013c0.12142,-0.74938 0.25327,-2.10552 0.65541,-2.11238c0.60577,-0.00922 1.00401,2.48764 1.15916,3.41258l0.08573,0.49476c0.20344,1.10011 1.26473,4.40778 1.31023,4.54803c0.01452,0.03413 0.03847,0.07847 0.03847,0.07847l0.00881,0.01786l0.01216,0.0149c1.63885,2.03254 2.85764,4.49702 2.85764,6.80597c0,4.88939 -4.28596,8.33121 -10.0228,8.33121c-1.06404,0 -2.10471,-0.14909 -3.09323,-0.44219l-0.05317,-0.01529c0,0 -1.5517,-0.13046 -3.53678,2.47883c-0.39821,0.52377 -0.36273,1.01205 -0.92397,0.86178c-0.18715,-0.05003 -0.32467,-0.18755 -0.43686,-0.43728c-0.26837,-0.59557 -0.07026,-2.00663 0.25776,-2.90824l0.0516,-0.14164l-0.11849,-0.09376c-0.02904,-0.02316 -3.24862,-2.36915 -3.57385,-5.73096c-0.28348,-2.93039 1.19684,-4.59883 1.81106,-5.51576l0.35291,-0.58773c0.44549,-1.08385 -0.39295,-2.59123 -1.13291,-3.92127c-0.44177,-0.79409 -1.15487,-1.95287 -0.99381,-2.22518c0.17872,-0.3017 0.81745,0.01942 1.46246,0.32703c0.523,0.24993 1.02619,0.60302 1.37555,0.37016c0.36332,-0.24188 0.12496,-0.84942 -0.20518,-1.69041c-0.31054,-0.78978 -0.89848,-2.03742 -0.67268,-2.55238c0.06218,-0.14164 0.17127,-0.24111 0.33349,-0.30407c0.59991,-0.23227 1.45755,0.77822 2.15182,1.56859c0.84687,0.96498 1.80733,2.05843 2.92256,1.45128v0z" fill="#ffc93e" stroke="#603813" stroke-width="0.65" stroke-linecap="round" stroke-linejoin="round"/><g stroke="none" stroke-width="0.65" stroke-linecap="butt" stroke-linejoin="miter"><path d="M247.58983,170.86238v0c0,-0.88236 0.71524,-1.59801 1.59784,-1.59839c0.88219,0 1.59741,0.71603 1.59741,1.59839c0,0.88179 -0.71505,1.59685 -1.59741,1.59685c-0.88239,0 -1.59784,-0.71505 -1.59784,-1.59685z" fill="#ffffff"/><path d="M249.40266,169.69475c0.31013,0 0.59125,0.12597 0.79469,0.32959c0.20362,0.20344 0.32955,0.48453 0.32955,0.79468c0,0.31015 -0.12594,0.59128 -0.32955,0.79469c-0.20344,0.20364 -0.48456,0.32959 -0.79469,0.32959c-0.31015,0 -0.59127,-0.12594 -0.79469,-0.32959c-0.20364,-0.20341 -0.32958,-0.48453 -0.32958,-0.79469c0,-0.31015 0.12594,-0.59124 0.32958,-0.79468c0.20341,-0.20362 0.48453,-0.32959 0.79469,-0.32959z" fill="#603813"/></g><g stroke="none" stroke-width="0.65" stroke-linecap="butt" stroke-linejoin="miter"><path d="M255.28603,170.86238v0c0,-0.88236 0.71523,-1.59801 1.59801,-1.59839c0.88219,0 1.59744,0.71603 1.59744,1.59839c0,0.88179 -0.71565,1.59685 -1.59744,1.59685c-0.88278,0 -1.59801,-0.71505 -1.59801,-1.59685z" fill="#ffffff"/><path d="M255.97441,170.81903v0c0,-0.62069 0.50298,-1.12427 1.12406,-1.12427c0.62067,0 1.12423,0.50377 1.12423,1.12427c0,0.62129 -0.50357,1.12386 -1.12423,1.12386c-0.62109,0 -1.12406,-0.50298 -1.12406,-1.12386z" fill="#603813"/></g><path d="M236.55873,177.02982c-0.32743,-0.20912 -0.51613,-0.55438 -0.54654,-0.99969c-0.07395,-1.08894 0.78783,-3.06106 2.25575,-4.30831c1.00244,-0.85179 4.6218,-2.12062 5.37982,-1.80342c0.06257,0.02629 0.14652,0.09379 0.14909,0.12791c0.07082,0.13496 0.06138,0.3541 -0.04435,0.56635c-0.29307,0.5893 -0.99339,1.37064 -1.76868,2.10611c-0.60263,0.57359 -1.28551,1.22135 -1.90834,1.95444l-0.57126,0.6768c-1.39028,1.66394 -2.10924,2.21439 -2.94549,1.67983v0z" fill="#ffc93e" stroke="#603813" stroke-width="0.65" stroke-linecap="butt" stroke-linejoin="miter"/><path d="M254.52097,175.89047c0,0 -1.45424,0.00115 -2.47257,-0.87159" fill="none" stroke="#603813" stroke-width="0.65" stroke-linecap="round" stroke-linejoin="round"/></g></g></svg>