<svg version="1.1" xmlns="http://www.w3.org/2000/svg" xmlns:xlink="http://www.w3.org/1999/xlink" width="376.98436" height="230.37369" viewBox="0,0,376.98436,230.37369"><defs><linearGradient x1="239.97345" y1="62.37715" x2="239.97345" y2="286.48801" gradientUnits="userSpaceOnUse" id="color-1"><stop offset="0" stop-color="#ff9eec" stop-opacity="0.2"/><stop offset="1" stop-color="#ff9eec" stop-opacity="0"/></linearGradient><linearGradient x1="130.33147" y1="79.91473" x2="97.55064" y2="59.92972" gradientUnits="userSpaceOnUse" id="color-2"><stop offset="0" stop-color="#ffaaee"/><stop offset="1" stop-color="#ffdef8"/></linearGradient><linearGradient x1="109.13504" y1="66.47211" x2="68.55267" y2="75.74551" gradientUnits="userSpaceOnUse" id="color-3"><stop offset="0" stop-color="#ffaaee"/><stop offset="1" stop-color="#ffdef8"/></linearGradient><linearGradient x1="91.04306" y1="96.08968" x2="58.97306" y2="74.98286" gradientUnits="userSpaceOnUse" id="color-4"><stop offset="0" stop-color="#ffaaee"/><stop offset="1" stop-color="#ffdef8"/></linearGradient><linearGradient x1="403.33648" y1="65.10022" x2="423.85253" y2="101.32198" gradientUnits="userSpaceOnUse" id="color-5"><stop offset="0" stop-color="#ffaaee"/><stop offset="1" stop-color="#ffdef8"/></linearGradient><linearGradient x1="382.41799" y1="91.5607" x2="425.03229" y2="100.61026" gradientUnits="userSpaceOnUse" id="color-6"><stop offset="0" stop-color="#ffaaee"/><stop offset="1" stop-color="#ffdef8"/></linearGradient><linearGradient x1="412.81022" y1="238.65434" x2="415.55456" y2="282.12517" gradientUnits="userSpaceOnUse" id="color-7"><stop offset="0" stop-color="#ffaaee"/><stop offset="1" stop-color="#ffdef8"/></linearGradient><linearGradient x1="414.64986" y1="209.28515" x2="373.71573" y2="222.59893" gradientUnits="userSpaceOnUse" id="color-8"><stop offset="0" stop-color="#ffaaee"/><stop offset="1" stop-color="#ffdef8"/></linearGradient><linearGradient x1="327.61767" y1="216.51749" x2="365.00496" y2="235.96339" gradientUnits="userSpaceOnUse" id="color-9"><stop offset="0" stop-color="#ffaaee"/><stop offset="1" stop-color="#ffdef8"/></linearGradient><linearGradient x1="373.05935" y1="267.29776" x2="414.10313" y2="281.88037" gradientUnits="userSpaceOnUse" id="color-10"><stop offset="0" stop-color="#ffaaee"/><stop offset="1" stop-color="#ffdef8"/></linearGradient><linearGradient x1="374.09957" y1="254.37891" x2="332.17054" y2="264.11631" gradientUnits="userSpaceOnUse" id="color-11"><stop offset="0" stop-color="#ffaaee"/><stop offset="1" stop-color="#ffdef8"/></linearGradient></defs><g transform="translate(-51.48127,-57.36432)"><g data-paper-data="{&quot;isPaintingLayer&quot;:true}" fill-rule="nonzero" stroke-linecap="butt" stroke-linejoin="miter" stroke-miterlimit="10" stroke-dasharray="" stroke-dashoffset="0" style="mix-blend-mode: normal"><path d="M52.73127,286.48798v-178.29877c0,-25.25407 20.54922,-45.81206 45.81206,-45.81206h282.8602c25.26291,0 45.8121,20.55816 45.8121,45.81206v178.2988z" fill="url(#color-1)" stroke="#ff9fec" stroke-width="2.5"/><path d="M97.62232,59.81216c0.3375,-0.53864 10.10662,-4.77276 21.08852,-0.68904c10.10545,3.75781 14.44267,16.16267 14.44267,16.16267l-14.06289,-2.38537l8.58826,11.36525c0,0 -13.3504,1.8432 -21.35324,-5.20776c-8.82104,-7.77184 -9.02486,-18.73259 -8.70332,-19.24576z" fill="url(#color-2)" stroke="none" stroke-width="0"/><path d="M68.51942,75.59996c-0.1453,-0.67373 4.2404,-11.35288 15.8604,-16.48815c10.69263,-4.72543 23.44574,1.62971 23.44574,1.62971l-12.72856,8.78524l15.26889,2.33178c0,0 -8.9763,11.53103 -20.52679,12.10775c-12.73141,0.63569 -21.18125,-7.72447 -21.31967,-8.36633z" fill="url(#color-3)" stroke="none" stroke-width="0"/><path d="M59.04876,74.86785c0.35592,-0.52665 10.26565,-4.42035 21.09974,0.04076c9.96944,4.10507 13.87502,16.65251 13.87502,16.65251l-13.97197,-2.87032l8.19004,11.65549c0,0 -13.40617,1.38036 -21.16035,-5.94317c-8.54697,-8.07228 -8.37156,-19.03352 -8.03247,-19.53526z" fill="url(#color-4)" stroke="none" stroke-width="0"/><path d="M423.72261,101.39556c-0.60381,0.3323 -12.09195,-0.80853 -20.34228,-10.46914c-7.5919,-8.88961 -5.15868,-22.92916 -5.15868,-22.92916l12.06491,9.6765l-2.14242,-15.29661c0,0 13.62002,5.29467 17.48315,16.19526c4.2581,12.01506 -1.32942,22.50657 -1.90467,22.82315z" fill="url(#color-5)" stroke="none" stroke-width="0"/><path d="M424.99983,100.7631c-0.15845,0.70365 -9.02132,8.91429 -22.31424,8.67795c-12.23205,-0.21747 -21.54547,-11.86284 -21.54547,-11.86284l15.95141,-2.74171l-13.4724,-8.93193c0,0 13.59658,-6.9998 24.81789,-2.46556c12.36858,4.99781 16.71377,16.65373 16.56281,17.3241z" fill="url(#color-6)" stroke="none" stroke-width="0"/><path d="M415.40477,282.13541c-0.69196,0.03848 -10.59521,-6.26316 -13.84298,-19.12122c-2.98858,-11.83189 5.35099,-23.95648 5.35099,-23.95648l6.6947,14.60846l4.74602,-15.39096c0,0 10.01799,11.1863 8.75141,23.21705c-1.39607,13.26078 -11.04091,20.6065 -11.70014,20.64316z" fill="url(#color-7)" stroke="none" stroke-width="0"/><path d="M387.77011,205.9259c10.48149,-5.31679 24.9088,-1.24159 24.9088,-1.24159l-12.10197,9.31969l16.16978,0.17594c0,0 -7.60976,11.04802 -19.68856,12.866c-13.12639,1.97566 -23.03505,-3.75153 -23.28917,-4.3227c-0.24211,-0.54414 2.448,-10.93697 14.00112,-16.79735z" data-paper-data="{&quot;index&quot;:null}" fill="url(#color-8)" stroke="none" stroke-width="0"/><path d="M364.92475,236.07999c-0.37779,0.53429 -11.42197,4.79359 -23.92203,0.85575c-11.50246,-3.62356 -16.54276,-15.82732 -16.54276,-15.82732l15.97969,2.23637l-9.85388,-11.14253c0,0 15.1307,-1.93004 24.27895,4.96043c10.08357,7.59495 10.41995,18.40828 10.06004,18.9173z" fill="url(#color-9)" stroke="none" stroke-width="0"/><path d="M414.0536,282.02211c-0.2369,0.65128 -9.92705,7.27594 -23.02579,5.20212c-12.05337,-1.90831 -19.91825,-14.34606 -19.91825,-14.34606l16.06428,-0.40626l-12.28179,-10.41941c0,0 14.22589,-4.80806 24.78769,1.09039c11.64164,6.50149 14.59956,18.25875 14.37386,18.87923z" fill="url(#color-10)" stroke="none" stroke-width="0"/><path d="M347.6092,248.7162c10.9006,-4.39393 24.92315,0.90915 24.92315,0.90915l-12.85995,8.24234l16.0945,1.56847c0,0 -8.53336,10.35128 -20.72388,11.1218c-13.24779,0.83735 -22.62616,-5.72227 -22.83013,-6.3132c-0.19433,-0.56298 3.38122,-10.68539 15.39631,-15.52856z" data-paper-data="{&quot;index&quot;:null}" fill="url(#color-11)" stroke="none" stroke-width="0"/></g></g></svg>