<svg version="1.1" xmlns="http://www.w3.org/2000/svg" xmlns:xlink="http://www.w3.org/1999/xlink" width="92.21921" height="62.49176" viewBox="0,0,92.21921,62.49176"><g transform="translate(-193.89041,-148.75412)"><g data-paper-data="{&quot;isPaintingLayer&quot;:true}" stroke-miterlimit="10" stroke-dasharray="" stroke-dashoffset="0" style="mix-blend-mode: normal"><path d="M194.89042,210.24588v-60.49176h90.21921v60.49176z" data-paper-data="{&quot;index&quot;:null}" fill="#7c97bf" fill-rule="nonzero" stroke="#666666" stroke-width="2" stroke-linecap="butt" stroke-linejoin="miter"/><g fill-rule="nonzero" stroke-linecap="butt" stroke-linejoin="miter"><path d="M210.33202,179.05439v-1.38273h31.72324v1.38273z" data-paper-data="{&quot;index&quot;:null}" fill="#e6e6e6" stroke="#e6e6e6" stroke-width="1"/><path d="M235.07502,177.37853v-3.84784h6.80753v3.84784z" fill="#b37447" stroke="none" stroke-width="0"/><path d="M211.0974,177.71805v-4.07419h6.9588v4.07419z" fill="#ff9533" stroke="none" stroke-width="0"/><path d="M218.81259,177.4917v-3.6215h6.95881v3.6215z" fill="#ffe4d9" stroke="none" stroke-width="0"/><path d="M227.1329,177.71805v-4.18736h6.80753v4.18736z" fill="#ff3333" stroke="none" stroke-width="0"/></g><path d="M210.10126,180.62782l0.61538,-10.73006h31.03093l0.61538,10.73006z" data-paper-data="{&quot;index&quot;:null}" fill-opacity="0.4" fill="#c2c6cc" fill-rule="nonzero" stroke="#b8e6e6" stroke-width="1" stroke-linecap="butt" stroke-linejoin="miter"/><g data-paper-data="{&quot;index&quot;:null}" fill-rule="evenodd" stroke-width="0.5"><g><path d="M269.06679,181.90342c0.98944,-0.20613 2.18503,-0.53595 3.17448,-1.44295c2.26748,-2.02012 2.96834,-5.35951 4.53497,-4.49374c1.60785,0.86577 1.56662,6.2665 -3.46306,7.91558c-1.73154,0.57718 -3.29816,0.57717 -4.5762,0.53595c-0.32981,0 -3.17448,-0.28859 -4.16392,-1.6903c-0.98944,-1.40171 -0.28859,-1.77276 0.04122,-1.93767c0.37105,-0.20613 3.0508,1.36049 4.45252,1.11313z" fill="#ffab19" stroke="#001026" stroke-linecap="round" stroke-linejoin="round"/><path d="M276.52887,176.04919c0.82454,0.24736 1.23681,1.97889 0.82454,3.42184c-0.41227,1.44295 -1.0719,2.18503 -1.60785,2.72098c0.08246,-0.28859 0.24736,-1.19558 -0.4535,-1.73154c-0.86577,-0.70086 -2.39116,-0.32981 -2.39116,-0.32981c0,0 1.27804,-1.56662 1.93767,-2.67975c0.65963,-0.94822 0.86576,-1.56662 1.6903,-1.40171z" fill="#ffffff" stroke="none" stroke-linecap="butt" stroke-linejoin="miter"/></g><path d="M258.14162,177.32723c0,1.0719 -0.86577,2.18503 -1.36049,2.84466c-0.49472,0.65963 -2.80344,3.09202 -5.6481,1.81399c-1.19558,-0.6184 -3.99902,-2.92711 -2.51485,-4.2876c1.48417,-1.36049 2.84467,0.32981 3.83411,1.19558c0.82454,0.74209 3.33939,-2.22625 3.54552,-2.39116c0.70086,-0.6184 2.10258,-0.32982 2.1438,0.82454z" fill="#ffab19" stroke="#001026" stroke-linecap="round" stroke-linejoin="round"/><g><path d="M259.04863,183.099c-0.49472,-0.37105 -0.98945,-0.98944 -1.64908,-1.93766c-0.53595,-0.78331 -1.11312,-2.30871 -1.11312,-2.30871c-0.37105,-1.03068 -0.6184,-3.00957 0.74209,-2.96834c0.90699,0.04122 1.73153,-0.08246 3.13325,-0.28859c2.47362,-0.49472 2.92712,-0.82453 3.95779,0.86577c1.11313,1.97889 3.95779,3.42184 0.4535,6.84368c0,0 -2.02013,1.56662 -4.45252,3.95779c-1.64908,1.60785 -4.24638,3.91656 -5.15337,4.69987c-0.20613,0.16491 -0.4535,0.24737 -0.70086,0.28859c-3.99902,0.37105 -6.96735,-0.04123 -6.96735,-1.81399c0,-2.96834 5.89545,-1.93767 5.89545,-1.93767c0,0 1.89644,-1.60786 2.7622,-2.39117z" fill="#ffab19" stroke="#001026" stroke-linecap="round" stroke-linejoin="round"/><path d="M257.23465,180.3368c0,0 -0.78332,-1.03067 0.98944,-2.1438c1.85521,-1.19558 2.55607,0.12368 3.29816,1.11313c0.82454,1.27803 0,1.89644 -0.82454,2.63853c-0.65963,0.6184 -1.27803,1.11313 -1.27803,1.11313c0,0 -1.27804,-0.86577 -2.18503,-2.72098z" fill="#ffffff" stroke="none" stroke-linecap="butt" stroke-linejoin="miter"/></g><path d="M265.60372,179.01753c-0.4535,-0.28859 -1.0719,-0.78331 -1.69031,-1.23681c-1.03068,-0.74209 -2.51485,-2.39117 -0.4535,-3.13325c1.64908,-0.6184 3.13325,0.53596 4.90601,1.81399c0.90699,0.70086 1.9789,1.5254 1.60786,2.80344c-0.41227,1.44295 -2.4324,5.56564 -4.86479,4.20515c-1.77276,-1.19558 -0.37104,-2.63853 0.53595,-3.79289c0.12368,-0.20613 0.08246,-0.4535 -0.04122,-0.65963z" fill="#ffab19" stroke="#001026" stroke-linecap="round" stroke-linejoin="round"/><g><path d="M256.20397,155.18834c0.94822,-0.16491 1.93766,-0.24736 3.09202,-0.16491c1.93767,0.08246 3.79289,0.78331 3.79289,0.78331l4.98846,-3.25693c0.16491,-0.08246 0.37104,0.04123 0.32982,0.20614l-0.86577,7.37963c-0.24736,-0.32981 4.37006,5.27705 1.44295,9.97692c-2.92711,4.69987 -9.15239,6.80245 -16.90306,5.27705c-7.75067,-1.5254 -9.56465,-5.97791 -9.06993,-8.32784c0.49472,-2.34993 3.42184,-3.21571 3.42184,-3.21571c0,0 0.04122,-1.85521 1.36049,-4.12269c0.78331,-1.36049 3.42184,-3.29816 3.42184,-3.29816l1.0719,-4.41128c0.04122,-0.16491 0.24736,-0.20614 0.37104,-0.12368z" fill="#ffab19" stroke="#001026" stroke-linecap="butt" stroke-linejoin="miter"/><path d="M253.35931,166.03104c3.46307,0.24736 8.20417,-3.50429 10.96638,0.90699c2.7622,4.37006 -1.9789,10.30674 -11.95583,8.24539c-7.66822,-1.48417 -9.64711,-5.73055 -9.15238,-8.08049c0.49472,-2.34993 3.33938,-3.09202 3.33938,-3.09202c3.5043,-0.78331 3.83411,1.81399 6.80246,2.02012z" fill="#ffffff" stroke="none" stroke-linecap="butt" stroke-linejoin="miter"/><path d="M255.54434,173.49312c-4.32883,0.24736 -5.89545,-2.84466 -6.26649,-3.95779c-0.08246,-0.20613 0.08245,-0.41226 0.28859,-0.37104c0.6184,0.12368 1.93767,0.24736 4.16392,0.12368c2.47362,-0.16491 4.69988,-0.82454 5.48319,-1.11313c0.16491,-0.04122 0.32981,0.08246 0.32981,0.24737c0.12368,2.02012 -0.24737,4.65864 -3.99902,5.07091z" fill="#ffffff" stroke="#001026" stroke-linecap="round" stroke-linejoin="round"/><path d="M243.87711,166.07226c0,0 -2.96834,-0.04123 -4.90601,-1.60785" fill="none" stroke="#001026" stroke-linecap="round" stroke-linejoin="round"/><path d="M243.7122,168.50466c0,0 -1.60785,0.78331 -4.20515,0.57717" fill="none" stroke="#001026" stroke-linecap="round" stroke-linejoin="round"/><path d="M255.42066,165.49509c0,0.65963 -1.73153,1.69031 -2.47362,1.60785c-0.65963,-0.04122 -1.27803,-1.19558 -1.23681,-1.77276c0.04122,-0.28859 0.94822,-0.37104 1.81399,-0.37104c0.82454,0 1.93767,0.04122 1.89644,0.53595z" fill="#001026" stroke="#001026" stroke-linecap="round" stroke-linejoin="round"/><path d="M267.08789,166.77312c1.44295,-1.27803 4.98847,-2.43239 4.98847,-2.43239" fill="none" stroke="#001026" stroke-linecap="round" stroke-linejoin="round"/><path d="M271.78776,168.46343c0,0 -3.05079,0.4535 -4.82355,-0.24736" fill="none" stroke="#001026" stroke-linecap="round" stroke-linejoin="round"/><g><path d="M252.94704,158.15669c1.15436,0.74209 1.11313,2.84466 -0.08245,4.69987c-1.23681,1.85521 -3.13325,2.72098 -4.28761,1.97889c-1.15436,-0.74209 -1.11312,-2.84466 0.08246,-4.69987c1.19558,-1.85521 3.13325,-2.7622 4.2876,-1.97889z" fill="#ffffff" stroke="#001026" stroke-linecap="round" stroke-linejoin="round"/><path d="M248.82434,162.48552c0,-0.4535 0.32981,-0.82454 0.74209,-0.82454c0.41227,0 0.74209,0.37104 0.74209,0.82454c0,0.4535 -0.32981,0.82454 -0.74209,0.82454c-0.41227,0 -0.74209,-0.37105 -0.74209,-0.82454" fill="#001026" stroke="none" stroke-linecap="butt" stroke-linejoin="miter"/></g><g><path d="M263.33624,159.43472c1.27803,0.90699 1.19558,3.25693 -0.08245,5.07092c-1.23681,1.81399 -3.0508,2.39117 -4.41129,1.60786c-1.11313,-0.78331 -1.19558,-3.00957 0.04123,-4.82355c1.23681,-1.81399 3.17448,-2.80344 4.45251,-1.85522z" fill="#ffffff" stroke="#001026" stroke-linecap="round" stroke-linejoin="round"/><path d="M259.13109,163.6811c0,-0.4535 0.32981,-0.78331 0.74209,-0.82453c0.41227,0 0.74209,0.37104 0.74209,0.82453c0,0.4535 -0.32981,0.82454 -0.74209,0.82454c-0.41227,0 -0.74209,-0.37105 -0.74209,-0.82454" fill="#001026" stroke="none" stroke-linecap="butt" stroke-linejoin="miter"/></g></g></g><path d="M195.90988,209.32838v-3.6523h88.18031v3.6523z" data-paper-data="{&quot;index&quot;:null}" fill="#c0c0c0" fill-rule="nonzero" stroke="none" stroke-width="0" stroke-linecap="butt" stroke-linejoin="miter"/><path d="M270.36289,177.04013v2.87679h-18.87148v-2.87679z" data-paper-data="{&quot;index&quot;:null}" fill="#b3b3b3" fill-rule="nonzero" stroke="none" stroke-width="0" stroke-linecap="butt" stroke-linejoin="miter"/><path d="M284.09018,180.82984v24.84624h-81.70239v-24.84624z" data-paper-data="{&quot;index&quot;:null}" fill="#bf9c29" fill-rule="nonzero" stroke="none" stroke-width="0" stroke-linecap="butt" stroke-linejoin="miter"/><path d="M284.09022,179.26418v6.24197h-82.32114v-6.24197z" data-paper-data="{&quot;index&quot;:null}" fill="#997d20" fill-rule="nonzero" stroke="none" stroke-width="0" stroke-linecap="butt" stroke-linejoin="miter"/><path d="M247.83884,158.60476c0,0 0.47103,-1.39552 0.86068,-1.85889c0.62036,-0.73773 2.50296,-2.14111 2.50296,-2.14111c0,0 8.94385,0.64558 11.71952,1.21932c2.64197,0.54611 4.55321,2.14431 4.55321,2.14431c0,0 0.58821,1.56536 0.71991,2.25681c0.10423,0.54723 0.28009,1.65228 0.28009,1.65228c0,0 -2.65329,-1.6341 -6.24507,-2.57733c-2.26884,-0.59582 -5.73123,-0.67907 -7.13305,-0.84781c-2.26745,-0.27293 -7.25825,0.15242 -7.25825,0.15242z" data-paper-data="{&quot;index&quot;:null}" fill="#fffaf2" fill-rule="nonzero" stroke="none" stroke-width="0" stroke-linecap="butt" stroke-linejoin="miter"/><g data-paper-data="{&quot;index&quot;:null}" fill-rule="nonzero" stroke-linejoin="miter"><path d="M259.81021,204.77823v-14.1l13.7,0.4l-0.3,-20.2l0.5,33.9" data-paper-data="{&quot;index&quot;:null}" fill="none" stroke="#b37b47" stroke-width="2.5" stroke-linecap="round"/><path d="M271.41022,189.02823c0,0.35898 -2.73107,0.65 -6.1,0.65c-3.36893,0 -6.1,-0.29102 -6.1,-0.65c0,-0.35898 2.73107,-0.65 6.1,-0.65c3.36893,0 6.1,0.29102 6.1,0.65z" data-paper-data="{&quot;index&quot;:null}" fill="#997a6b" stroke="#997a6b" stroke-width="2" stroke-linecap="butt"/></g><g data-paper-data="{&quot;index&quot;:null}" fill-rule="nonzero" stroke-linejoin="miter"><path d="M206.76266,204.77823l0.5,-33.9l-0.3,20.2l13.7,-0.4v14.1" data-paper-data="{&quot;index&quot;:null}" fill="none" stroke="#b37b47" stroke-width="2.5" stroke-linecap="round"/><path d="M215.16265,188.37823c3.36893,0 6.1,0.29102 6.1,0.65c0,0.35898 -2.73107,0.65 -6.1,0.65c-3.36893,0 -6.1,-0.29102 -6.1,-0.65c0,-0.35898 2.73107,-0.65 6.1,-0.65z" data-paper-data="{&quot;index&quot;:null}" fill="#997a6b" stroke="#997a6b" stroke-width="2" stroke-linecap="butt"/></g></g></g></svg>