<svg version="1.1" xmlns="http://www.w3.org/2000/svg" xmlns:xlink="http://www.w3.org/1999/xlink" width="230.11704" height="156.86399" viewBox="0,0,230.11704,156.86399"><g transform="translate(-124.94148,-103.068)"><g data-paper-data="{&quot;isPaintingLayer&quot;:true}" fill-rule="nonzero" stroke-linecap="butt" stroke-linejoin="miter" stroke-miterlimit="10" stroke-dasharray="" stroke-dashoffset="0" style="mix-blend-mode: normal"><g><path d="M352.05852,147.19789c0,17.38636 -50.17031,91.49137 -112.05852,91.49137c-61.88821,0 -112.05852,-74.10501 -112.05852,-91.49137c0,-17.38636 50.17031,-31.48077 112.05852,-31.48077c61.88821,0 112.05852,14.09442 112.05852,31.48077z" fill="#514a44" stroke="#514a44" stroke-width="6"/><path d="M352.05852,147.19789c0,17.38636 -50.17031,31.48078 -112.05852,31.48078c-61.88821,0 -112.05852,-14.09442 -112.05852,-31.48078c0,-17.38636 50.17031,-31.48077 112.05852,-31.48077c61.88821,0 112.05852,14.09442 112.05852,31.48077z" fill="#837971" stroke="#514a44" stroke-width="6"/><path d="M240,256.932c-27.08226,0 -49.03676,-6.16772 -49.03676,-13.77598c0,-7.60826 21.95451,-47.03818 49.03677,-47.03818c27.08226,0 49.03677,39.42992 49.03677,47.03818c0,7.60826 -21.95451,13.77598 -49.03677,13.77598z" data-paper-data="{&quot;index&quot;:null}" fill="#514a44" stroke="#514a44" stroke-width="6"/><path d="M283.89526,147.92947c0.89851,0.01503 1.79804,0.00698 2.69592,-0.02737c-0.68442,-0.61631 -1.45406,-1.18072 -2.27936,-1.69035c-0.27798,0.65932 -0.49839,1.31002 -0.44059,1.60942c0.00698,0.03619 0.01501,0.07229 0.02404,0.10831zM308.42569,137.59866c0.265,0.67747 0.44025,1.38802 0.50478,2.1299c0.09459,1.08728 -0.02896,2.07404 -0.32385,2.97069c0.18552,0.41002 0.35004,0.82731 0.49238,1.25003c2.64295,-1.4013 5.52669,-1.83359 8.58402,-0.03776c1.10898,0.6514 2.07249,1.89239 2.33719,3.18077c0.79317,-0.94509 1.28059,-2.1188 0.73299,-3.24665c-1.7532,-3.61093 -5.15901,-4.33176 -8.69111,-5.41227c-1.20226,-0.38242 -2.4165,-0.6568 -3.6364,-0.83472zM310.37359,148.38035c0.81643,0.55145 1.61469,1.11795 2.3927,1.69795c1.33237,-0.70996 2.45007,-1.58473 2.86648,-2.24192c0.57418,-0.90619 -2.13247,-0.73116 -3.17961,-0.49795c-0.75869,0.16897 -1.42695,0.59453 -2.07957,1.04192zM263.27272,164.4423c0.25453,-1.49373 0.44497,-2.46192 -0.30469,-4.077c-2.04196,0.83088 -4.05685,1.73337 -6.04208,2.69598c-2.30585,1.11808 -4.53276,2.22117 -6.62704,3.52231c1.90891,0.42179 3.83018,0.68558 5.75883,0.82099c1.9644,-0.69562 3.86063,-1.46834 5.58075,-2.22002c0.54672,-0.2389 1.09121,-0.48719 1.63422,-0.74225zM239.18127,169.43582c0.51266,0.05285 1.02721,0.10023 1.54343,0.14274c0.04647,-0.16498 0.09213,-0.32817 0.13631,-0.48935c-0.26332,-0.35257 -0.55009,-0.72326 -0.86663,-1.12291c-0.10802,-0.13639 -0.21901,-0.27427 -0.33281,-0.41345c-1.79098,-0.92777 -3.38061,-2.09951 -4.45859,-3.75099h-1.72255c-0.81946,0 -1.63879,-0.00373 -2.45801,-0.01042c-1.18921,0.28258 -2.43342,0.32603 -3.68855,0.32006c-0.52367,0.50802 -1.07873,0.98101 -1.65809,1.42379c1.44523,0.92837 3.27113,1.52581 4.56961,2.13451c2.87584,0.54745 5.90385,1.29851 8.93588,1.76602zM198.8558,169.40995c-0.31495,-0.07558 -0.63307,-0.16035 -0.95471,-0.25471c-0.91735,-0.26911 -1.63996,-0.98336 -2.44742,-1.49517c-1.37218,-0.86976 -2.92586,-1.517 -4.09098,-2.6492c-0.51202,-0.49756 -0.96955,-1.01708 -1.37535,-1.55569c-2.75923,0.59525 -5.62323,1.03628 -8.50314,1.28972c0.17192,0.13886 0.34042,0.27664 0.50482,0.41344c2.43756,1.04509 4.7255,2.51868 7.29466,3.17701c3.13245,0.80267 6.35206,1.13274 9.57213,1.0746zM177.26225,132.81081c0.45513,0.13302 0.90708,0.27778 1.35509,0.43379c2.01812,-0.47099 4.03201,-0.46186 5.96002,-0.06735c1.35016,-0.67696 2.76845,-1.26049 4.23417,-1.74908c1.26035,-0.84886 2.5744,-1.62752 3.94111,-2.29768c-0.67679,-0.84462 -1.42659,-1.58068 -2.25657,-2.14957c-4.0696,-2.78939 -8.57378,1.61035 -11.29343,4.05621c-0.63211,0.56848 -1.28424,1.1598 -1.94038,1.77369zM181.95635,149.39546c1.04778,-0.48161 2.06192,-0.83407 2.74822,-1.067c0.89846,-0.30494 1.83465,-0.55498 2.79432,-0.75462c-1.72779,-0.7691 -3.30952,-1.85061 -3.53611,-3.38131c-0.13657,-0.92258 0.06749,-1.8402 0.48965,-2.73262c-0.04487,-0.03486 -0.08986,-0.06958 -0.13498,-0.10415c-1.30595,1.69128 -2.29147,3.59936 -2.5382,5.67699c-0.10239,0.86224 -0.03247,1.65062 0.17709,2.36271zM279.91951,134.49753c0.93726,-0.36587 1.91097,-0.66134 2.90658,-0.89095c-0.3945,-0.16151 -0.79112,-0.31789 -1.18972,-0.46918c-0.14113,0.04298 -0.2755,0.10129 -0.39888,0.18485c-0.48879,0.33105 -0.91157,0.74313 -1.31797,1.17529zM290.03348,132.01227c0.13888,0.1155 0.27711,0.23176 0.41467,0.34879c0.4654,0.26398 0.92698,0.5357 1.38454,0.81524c0.94606,0.11288 1.87334,0.27282 2.7695,0.47594c0.55189,0.1251 1.09084,0.23898 1.61916,0.35121c0.40149,-0.09931 0.80431,-0.19235 1.20829,-0.27888c-0.00236,-0.00092 -0.00473,-0.00183 -0.00709,-0.00275c-2.63624,-1.02107 -5.00056,-1.59282 -7.38906,-1.70955zM296.20378,146.32688c-0.01038,-0.16307 -0.02979,-0.32542 -0.05755,-0.48694c-2.59719,-1.00797 -5.26739,-1.84553 -7.94124,-2.4683c1.17298,0.87308 2.22562,1.8585 3.10221,2.95341c0.09942,-0.01032 0.204,-0.01575 0.31401,-0.01575c0.88097,0 1.41376,0.34817 1.73597,0.76932c0.87613,-0.18954 1.74375,-0.41385 2.60018,-0.6762c0.07677,-0.02352 0.15908,-0.0487 0.24642,-0.07554zM312.36688,155.10445c-0.10862,0.03644 -0.21714,0.07147 -0.32547,0.10506c1.57758,1.40426 2.73037,3.1767 3.20389,5.41165c0.37815,1.78478 0.00487,3.23078 -0.28962,4.925c4.31097,1.38919 4.25369,-3.30851 2.312,-5.73836c-1.31592,-1.64675 -3.06268,-3.24604 -4.9008,-4.70336zM260.2502,156.66984c-1.44398,-1.4156 -3.22807,-2.65778 -5.12451,-3.56614c-2.50673,0.54078 -5.18665,0.03054 -7.76863,0.01048c-1.3513,-0.01049 -2.82439,-0.07282 -4.34411,-0.21422c-2.77024,1.23045 -5.14666,3.32825 -4.74847,6.50685c0.02648,0.21135 0.06405,0.41416 0.11192,0.60889c1.51129,1.2464 3.03267,2.66301 4.42526,4.19953c0.72083,0.29393 1.46126,0.54361 2.16804,0.78052c3.01135,-2.37461 6.29937,-4.1457 9.99999,-5.94038c1.7378,-0.84277 3.49875,-1.63981 5.28052,-2.38552zM239.75152,174.01463c-0.1386,-0.01806 -0.2772,-0.03675 -0.41582,-0.05605c-6.30307,-0.5761 -12.30742,-1.91772 -18.14145,-5.17953c-0.16277,-0.091 -0.32643,-0.18336 -0.4908,-0.27707c-0.65339,0.31436 -1.31231,0.61153 -1.96985,0.89622c-9.39858,4.06915 -20.43465,5.85907 -30.58291,3.24884c-0.37205,-0.0957 -8.2909,-3.59831 -8.48396,-3.68327c-1.54685,-1.24844 -3.2906,-2.55558 -4.94787,-3.98492c-2.89072,-0.06238 -5.7261,-0.34468 -8.41345,-0.88172c-0.56178,-0.11227 -8.43678,-3.04945 -8.50271,-3.07381c-3.05886,-2.9856 -5.13467,-4.11589 -6.05326,-8.61308c-0.77889,-3.81321 0.05314,-5.22226 1.28553,-8.30068c1.46709,-3.66465 1.9033,-5.9203 5.26764,-8.49799c3.99665,-3.06215 8.80568,-4.14226 13.59549,-3.7863c1.43161,-1.47334 2.91797,-2.84463 4.32738,-4.1064c1.57421,-1.40931 6.12632,-5.0488 8.09535,-5.67462c4.97467,-1.5811 9.23621,1.31695 12.11674,4.92551c0.14524,0.18196 0.28781,0.36714 0.42772,0.55531c0.24835,-0.07182 0.49819,-0.13948 0.74949,-0.20278c0.35713,-0.08996 0.71346,-0.16923 1.0688,-0.23809c2.28793,-1.97962 3.25892,-2.85911 6.66202,-4.43953c5.53415,-2.5701 12.92115,-2.72809 19.30129,-1.10689c2.61726,-2.55789 5.8261,-4.47544 9.20019,-5.35893c7.06223,-1.84923 14.40945,0.42519 21.07151,2.48811c1.82164,0.96574 3.71199,2.07502 5.52985,3.33961c1.79143,-0.12007 3.5848,-0.18444 5.36838,-0.20695c4.10357,1.04612 8.64522,1.76327 12.59426,3.27522c2.06145,0.78926 4.04787,1.76919 5.94752,2.90341c5.02304,-0.9751 9.68059,-0.42788 14.7054,1.59873c1.83628,0.74061 3.93706,1.87149 5.72915,3.34494c2.87727,0.00203 5.76051,0.39261 8.59087,1.25392c3.49849,1.10042 6.12646,1.51198 8.94059,4.18261c1.13159,1.07389 1.99603,2.45484 2.59305,3.89612c2.34173,5.65329 -2.78618,9.63395 -7.47816,11.45288c1.29188,1.07313 2.51621,2.22494 3.41739,3.45618c3.55279,4.85399 2.93155,13.51328 -5.19681,13.15087c-1.7012,-0.07585 -2.99777,-1.61638 -4.49666,-2.42458c-0.08429,-1.07833 0.2734,-6.31647 -0.79979,-7.62914c-1.3521,-1.65381 -3.00473,-2.84776 -4.83806,-3.70502c-3.7724,7.49026 -10.54641,10.47205 -18.93477,9.46399c-0.25886,-0.0311 -0.52207,-0.05609 -0.7868,-0.08084c-2.8247,1.63406 -5.7074,2.63816 -9.11422,3.91195c-4.80533,0.99423 -9.65967,1.79814 -14.50159,2.04002c-3.906,2.16101 -9.25932,2.5194 -13.67843,2.48858c0.3438,1.38989 0.64955,2.9004 0.01169,4.11432c-2.15942,4.1096 -6.43793,2.58005 -8.12564,-0.67874c-0.62104,-1.19914 -0.75366,-2.49564 -0.64429,-3.8004zM170.25567,160.21125c-0.48675,-0.70968 -0.9116,-1.45031 -1.25533,-2.22621c-0.35517,-0.80173 -0.46325,-1.6777 -0.53739,-2.56316c-4.07066,-2.32162 -5.22818,-6.28768 -4.07819,-11.45487c0.63792,-2.86637 2.09874,-5.54408 3.94193,-8.00822c-0.06337,0.0051 -0.12647,0.01548 -0.18927,0.03227c-5.88568,1.57414 -8.76767,4.31509 -10.96491,9.77833c-0.89072,2.21468 -1.61105,3.01093 -1.05479,5.7507c0.58148,2.86401 2.12019,3.81189 4.05237,5.72568c2.35832,0.80872 4.60758,2.00418 7.05315,2.4888c0.98979,0.19614 2.00252,0.35431 3.03244,0.47668zM177.93604,151.39304c-0.52556,-1.4059 -0.75169,-3.01085 -0.59252,-4.80585c0.07915,-0.89262 0.26269,-1.76517 0.5319,-2.61391c-2.44679,2.6375 -4.02687,5.66804 0.02155,7.41303c0.01308,0.00225 0.0261,0.00449 0.03907,0.00673zM214.79829,150.95216c-0.25647,-0.43161 -0.55215,-0.82278 -0.88189,-1.12441c-0.96615,0.49123 -1.79984,0.77758 -2.61467,0.94017c0.11003,0.53048 0.24714,1.05847 0.40723,1.57898c0.95372,-0.29286 1.84332,-0.82545 2.77828,-1.18846c0.10252,-0.07019 0.20633,-0.13879 0.31104,-0.20628zM206.7783,126.89236c0.67837,-0.0022 1.49255,0.0759 2.53463,0.23711c3.5928,0.55581 7.00432,2.76198 9.20079,5.72341c0.42968,-2.61757 1.46694,-5.14315 2.93771,-7.416c-4.82009,-1.05107 -9.9306,-0.73658 -14.3753,1.31625c-0.10181,0.04702 -0.20104,0.09341 -0.29783,0.13923zM236.35092,141.77733c-0.5716,-1.05175 -0.93538,-2.18294 -1.02999,-3.37276c-0.98206,-0.14661 -1.96726,-0.26436 -2.95326,-0.35165c-0.29665,0.34867 -0.57319,0.71254 -0.8146,1.09055c1.53843,1.08089 3.04118,2.43397 4.2631,3.95413c0.20664,-0.34998 0.37744,-0.75236 0.5058,-1.21197c0.01006,-0.03601 0.01971,-0.07211 0.02896,-0.10831zM223.20558,133.69263c2.46607,-0.2687 4.96152,-0.33246 7.4576,-0.21097c0.45603,-0.46997 0.93349,-0.92129 1.42453,-1.35039c0.31931,-0.27903 0.64229,-0.5509 0.96878,-0.81577c-1.99257,-1.81259 -4.35292,-3.29583 -6.9082,-4.38234c-0.15605,0.20484 -0.32378,0.42182 -0.50582,0.65256c-0.53329,0.67593 -1.30369,1.20559 -1.63332,2.00097c-0.19313,0.46601 -0.54056,2.33022 -0.80357,4.10594zM229.43833,123.1828c0.43698,0.19469 0.86341,0.39902 1.27797,0.61271c3.40543,1.75534 4.21325,2.70515 6.08461,4.86908c5.02105,-3.0891 10.65563,-4.87006 16.48237,-5.84156c-0.02336,-0.01239 -0.04669,-0.02475 -0.07002,-0.03708c-6.81793,-2.0779 -15.17202,-4.60302 -21.89992,-0.78654c-0.78841,0.44724 -1.38809,0.82623 -1.875,1.1834zM262.51124,129.57352c-3.04169,-0.06325 -6.0854,0.08798 -9.08573,0.43486c-2.74842,0.30318 -5.47295,0.98298 -8.06171,1.95461c-1.84945,0.69415 -3.39677,1.77532 -4.36909,3.04528c6.17509,1.51267 12.09911,4.0347 17.30782,7.24803c0.6753,0.96364 1.66482,1.78954 2.27022,2.78383c0.68861,-1.87677 2.06124,-3.55784 4.08608,-4.84005c0.36501,-0.23115 0.72936,-0.43515 1.09371,-0.61481c0.24873,-0.16721 0.50516,-0.32179 0.76846,-0.46457c0.16057,-1.70673 -0.19071,-3.50354 -0.88152,-4.99604c-0.76749,-1.65819 -1.85137,-3.17409 -3.12825,-4.55113zM254.96975,145.35947c-4.22222,-2.46845 -8.97947,-4.46665 -13.94461,-5.77632c-0.00268,0.41881 -0.01168,0.84044 -0.03752,1.26039c0.4786,0.5914 1.12418,1.16778 1.95674,1.7146c3.52852,2.31751 7.77161,2.39252 11.80948,2.78074c0.07184,0.00691 0.14381,0.01378 0.2159,0.02058zM268.16414,153.7542c1.12279,-0.35707 2.25211,-0.69196 3.3874,-1.0034c-0.02821,-0.03061 -0.05662,-0.06138 -0.08523,-0.09231c-0.12399,-0.57212 -0.2481,-1.08902 -0.36635,-1.56513c-1.9411,-0.33459 -3.8538,-0.79941 -4.77313,-1.4656c-0.51163,-0.37075 -0.95428,-0.81378 -1.35834,-1.29724c-0.15004,0.07607 -0.30186,0.14951 -0.45535,0.22037c0.1074,0.83679 0.44734,1.70112 1.02271,2.5478c0.70972,1.04439 1.60663,1.91744 2.6283,2.65551zM281.28959,163.24048c-0.09552,-0.22529 -0.19169,-0.44454 -0.29649,-0.64321c-0.14277,-0.00344 -0.28659,-0.00698 -0.43152,-0.01056c-0.76488,-0.15781 -1.56127,-0.32106 -2.37725,-0.49669c-1.55756,0.57599 -2.98499,1.67766 -4.51029,2.37131c-1.61714,0.73541 -3.22406,1.51386 -4.83217,2.28844c2.21107,-0.32646 4.41753,-0.73522 6.61201,-1.18223c2.16083,-0.81549 4.04022,-1.49257 5.83571,-2.32706zM211.38412,145.0835c0.61172,-0.11486 1.24406,-0.13118 1.8892,-0.03285c2.0966,-1.35306 3.02372,-3.09445 3.10142,-4.88589c-0.09407,-0.03432 -0.18881,-0.06733 -0.28412,-0.09903c-0.46409,0.16872 -0.95158,0.41101 -1.49021,0.75538c-1.70186,1.08807 -2.71572,2.57943 -3.21628,4.26238zM234.07644,150.94094c-0.96922,-0.38271 -1.8908,-0.82784 -2.74048,-1.34423c-1.60287,0.00061 -3.23537,-0.33014 -4.75461,-0.98324c0.35257,1.23566 0.60139,2.48931 0.68995,3.73691c1.15522,0.07685 2.32539,0.46148 3.18185,1.20792c0.93051,-0.23669 1.96144,-0.40879 2.62677,-1.08264c0.50182,-0.50824 0.82127,-1.02244 0.99651,-1.53473zM206.66385,146.47673c0.08822,-0.92738 0.25986,-1.83748 0.52351,-2.71723c-1.15273,0.76467 -2.19219,1.64405 -2.99031,2.66428c0.45982,0.01122 0.92724,0.01906 1.40398,0.0246c0.383,0.00444 0.73515,0.01524 1.06282,0.02836zM217.51345,147.40132c0.28552,0.2664 0.56805,0.54129 0.83331,0.82954c1.00116,-1.21269 1.43355,-2.43223 1.40893,-3.62921c-0.12837,0.23556 -0.26746,0.46993 -0.41758,0.70285c-0.50065,0.77679 -1.12717,1.47307 -1.82466,2.09681zM196.33152,135.91333c-0.00036,-0.00096 -0.00071,-0.00193 -0.00106,-0.00289c-0.67261,1.06897 -1.20776,2.23072 -1.75027,3.64829c0.05982,0.07558 0.11906,0.15161 0.17771,0.22807c0.03104,0.04047 0.06192,0.08106 0.09264,0.12177c0.15672,-0.48289 0.32449,-0.96207 0.48968,-1.43805c0.3635,-1.04733 0.68118,-1.8669 0.99131,-2.5572zM271.2501,142.80988c0.00002,-0.00023 0.00004,-0.00047 0.00006,-0.0007c-0.34235,0.01011 -0.68001,0.03397 -1.01592,0.07631c-0.43937,0.98753 -0.98983,1.85629 -1.63212,2.61703c0.57734,0.30708 1.15941,0.54914 1.75261,0.74538c0.07875,-0.93386 0.33642,-1.97905 0.85753,-3.3402c0.01252,-0.03269 0.02513,-0.0653 0.03785,-0.09782zM270.89243,137.75217c0.63872,-0.0954 1.28863,-0.15944 1.9425,-0.19959c0.70394,-1.47742 1.53521,-2.92061 2.27551,-4.40058c0.5442,-0.51449 1.05752,-1.06728 1.57862,-1.61042c-2.68844,-0.72251 -5.43911,-1.23845 -8.21667,-1.56249c0.46575,0.74301 0.87973,1.51484 1.23256,2.31627c0.69966,1.58922 1.00331,3.34974 1.15553,5.07947c0.01102,0.12522 0.02177,0.25104 0.03196,0.37734zM178.10911,157.58398c-1.63872,-0.00353 -2.92867,-0.02973 -4.47938,-0.33748c0.71001,1.18582 1.67595,2.27452 2.74701,3.28886c1.69547,-0.01235 3.40624,-0.10328 5.10983,-0.26425c-1.0583,-0.3861 -2.10218,-0.81981 -3.12912,-1.30707c-0.05476,-0.45871 -0.14658,-0.91915 -0.24834,-1.38005zM280.25243,144.27246c-1.4424,-0.52302 -2.91045,-0.9026 -4.29253,-1.12791c-0.05277,0.08482 -0.10377,0.17079 -0.15301,0.25791c-0.06098,1.28319 0.22619,2.60047 1.06919,3.98795c0.89241,0.11651 1.79318,0.2178 2.69948,0.30045c-0.03261,-0.77587 0.06367,-1.57596 0.30935,-2.37587c0.11091,-0.3611 0.23354,-0.70833 0.36752,-1.04254zM267.59475,158.62572c-0.15194,0.05238 -0.30375,0.10518 -0.45543,0.1584c0.57792,1.3306 0.80067,2.35952 0.81595,3.34293c1.21071,-0.61023 2.42434,-1.21658 3.64898,-1.78967c-1.38621,-0.47636 -2.74076,-1.03641 -4.00951,-1.71166zM225.7526,159.07199c-0.02007,0.03279 -0.04037,0.06554 -0.06088,0.09824c0.02719,-0.0334 0.05427,-0.06693 0.08124,-0.10059c-0.00679,0.00079 -0.01358,0.00157 -0.02036,0.00235zM215.70504,165.25589c-0.40406,0.33984 -0.85118,0.69321 -1.35623,1.09701c0.62511,-0.23146 1.24401,-0.47385 1.8559,-0.72639c-0.16753,-0.12204 -0.33414,-0.24558 -0.49966,-0.37062zM177.14804,138.52851c-1.43424,0.81306 -2.47071,1.98088 -3.2006,3.35191c1.00091,-1.2152 2.12415,-2.34942 3.2006,-3.35191zM222.22457,152.73746c0.12676,-0.00906 0.25374,-0.01673 0.38096,-0.02299c0.00524,-0.16137 0.0089,-0.32009 0.0111,-0.47471c-0.13354,0.16438 -0.2651,0.32982 -0.39205,0.4977zM202.3713,141.94105c0.29195,-0.27172 0.59441,-0.53328 0.90597,-0.78537c-0.31506,0.14209 -0.62608,0.2935 -0.93257,0.45435c0.00981,0.11062 0.01866,0.22095 0.0266,0.33103zM243.7043,147.90485c-1.51182,-0.63276 -2.94475,-1.46497 -4.18515,-2.45807c-0.4065,0.62436 -0.87838,1.17703 -1.40238,1.65884c0.03614,0.10406 0.07054,0.20842 0.10312,0.31305c1.48012,0.39787 2.94836,0.6645 4.42185,0.84192c0.35195,-0.12883 0.70666,-0.24743 1.06255,-0.35574zM301.48517,140.69798c0.66697,0.71331 1.26764,1.47021 1.76422,2.28821c0.08542,-0.07756 0.16756,-0.15635 0.2461,-0.23637c-0.5879,-0.79264 -1.27611,-1.49481 -2.01032,-2.05184zM204.11443,158.48152c-0.15767,0.11448 -0.31726,0.22442 -0.47864,0.33017c0.19239,0.00532 0.3848,0.01043 0.57725,0.01533c-0.03741,-0.11146 -0.07016,-0.22682 -0.09861,-0.34551zM198.79725,155.54862c-0.51128,0.50257 -1.16369,0.93714 -2.1409,1.38819c0.98507,-0.35562 1.95946,-0.74415 2.91273,-1.1762c-0.25937,-0.06679 -0.51675,-0.13739 -0.77184,-0.21198zM201.18357,136.29156c0.0875,0.27064 0.17174,0.54089 0.25277,0.81035c2.13395,-0.96336 4.54104,-1.6678 6.99124,-2.01241c-1.80636,-0.47143 -3.72894,-0.7884 -5.69134,-0.94691c-0.67958,0.90884 -1.14982,1.51259 -1.55267,2.14898zM226.40657,141.56332c-0.71712,-0.33116 -1.4655,-0.6224 -2.25655,-0.88931c0.61491,0.98672 1.41153,1.86504 2.32683,2.56441c-0.08801,-0.55652 -0.10892,-1.11604 -0.07029,-1.6751zM285.48894,138.28363c0.47445,-0.29355 0.97059,-0.5708 1.48668,-0.83544c-0.99113,0.10804 -1.95218,0.31646 -2.92796,0.62513c0.48014,0.06295 0.96065,0.13312 1.44128,0.21032zM274.96431,156.46378c-0.18783,0.04528 -0.37549,0.09128 -0.56298,0.138c0.3497,0.10333 0.70051,0.20126 1.05112,0.29457c-0.16726,-0.14037 -0.32919,-0.28429 -0.48814,-0.43257zM260.35872,150.28434c-0.11892,0.15938 -0.24873,0.31085 -0.38837,0.45499c0.2263,0.14853 0.44984,0.30072 0.67031,0.4564c-0.10946,-0.30375 -0.20341,-0.60776 -0.28194,-0.91139z" fill="#a89a8f" stroke="none" stroke-width="0.5"/><path d="M352.05852,147.19789c0,17.38636 -50.17031,31.48078 -112.05852,31.48078c-61.88821,0 -112.05852,-14.09442 -112.05852,-31.48078c0,-17.38636 50.17031,-31.48077 112.05852,-31.48077c61.88821,0 112.05852,14.09442 112.05852,31.48077z" fill-opacity="0.09412" fill="#ae5710" stroke="#514a44" stroke-width="6"/><path d="M263.387,112.10307c-0.00514,-1.3119 1.13693,-2.19041 1.13693,-2.19041c2.99649,-2.28736 7.03671,-5.01858 10.85977,-5.76335c1.95332,-0.38053 4.31684,-1.79121 5.93629,-0.63465c1.34849,0.96305 -0.01936,3.31941 0.13339,4.96943c0.13485,1.45666 0.32728,2.31044 0.75446,2.86628c1.2752,-0.90235 1.86888,-0.08825 2.14919,1.0752c0.33214,0.08218 0.70387,0.1649 1.12049,0.25728l2.44677,0.56464c1.248,0.26037 2.1855,1.3667 2.1855,2.692c0,1.51878 -1.23122,2.75 -2.75,2.75h-0.90464c0.52612,0.35707 0.93012,0.79127 1.01451,1.38649c0.28716,2.02528 -0.52485,4.3763 -1.98815,5.80563c-1.07247,1.04757 -2.9732,0.40857 -4.46947,0.50211c-1.99856,0.12493 -3.97761,-0.53394 -5.9796,-0.57711c-3.38125,-0.07292 -6.07969,3.54064 -9.71879,2.08765c-2.84571,-1.13621 -4.11488,-6.7704 -4.16328,-9.43681c-0.02548,-1.40385 -0.39594,-2.99089 0.31739,-4.20028c0.62816,-1.065 1.25833,-1.72949 1.91924,-2.1541z" fill="#d95333" stroke="none" stroke-width="0.5"/><path d="M265.44548,108.96479c1.70592,2.68073 4.33574,4.96182 5.12637,8.10062c2.81884,11.19087 -5.41108,22.05435 -16.57219,22.39727c-2.26019,0.06945 -4.73525,2.75874 -7.41933,2.88534c-1.69838,0.08011 -14.14069,-1.74032 -15.60002,-0.70593c-3.7203,2.63699 -5.56781,5.02309 -10.05997,6.14613c-0.0413,0.01033 -8.78082,-0.79226 -9.92673,-0.19806c-1.87168,0.97055 -3.48436,1.27569 -5.43887,1.93632c-0.9196,0.31083 -2.06721,2.14839 -2.99604,2.62472c-2.11181,1.08298 -4.53739,0.98672 -6.88702,0.88899c-9.03597,-0.37585 -22.2564,1.99544 -28.19424,-7.05971c-3.96812,-6.05136 -1.95583,-17.11671 4.43533,-20.85251c3.92355,-2.29342 7.54698,-2.10466 11.81491,-2.70414c1.13638,-0.15962 5.67873,-4.01751 8.84455,-4.57751c2.87444,-0.50845 6.77668,1.01556 9.32843,0.34362c4.86046,-1.27988 7.79218,-1.6692 13.12634,-1.9215c1.70209,-0.08051 4.75993,-2.31466 6.59693,-2.87235c2.70196,-0.82027 5.25734,-1.69785 8.0453,-2.32711c1.53105,-0.34557 3.5843,0.23157 4.61065,-0.95593c1.85376,-2.14481 2.00513,-2.11686 5.568,-2.69299c1.97049,-0.31864 3.71498,0.50443 5.58989,0.73878c0.5312,0.06639 3.2796,-2.09205 3.82238,-2.36415c3.12431,-1.56619 13.75529,0.28935 15.30028,2.99308z" fill="#d19843" stroke="none" stroke-width="0.5"/><path d="M298.78049,124.5316c-0.00514,-1.3119 1.13693,-2.19041 1.13693,-2.19041c2.99648,-2.28736 7.03672,-5.01858 10.85976,-5.76335c1.95332,-0.38053 4.31684,-1.79121 5.93629,-0.63465c1.34849,0.96305 -0.01936,3.31941 0.13339,4.96943c0.13485,1.45665 0.32728,2.31044 0.75446,2.86628c1.2752,-0.90235 1.86888,-0.08825 2.14919,1.0752c0.33214,0.08218 0.70387,0.1649 1.12049,0.25728l2.44677,0.56464c1.248,0.26037 2.1855,1.36671 2.1855,2.69201c0,1.51878 -1.23122,2.75 -2.75,2.75l-0.90464,0c0.52613,0.35707 0.93012,0.79127 1.01451,1.3865c0.28716,2.02528 -0.52485,4.3763 -1.98814,5.80563c-1.07246,1.04757 -2.9732,0.40857 -4.46947,0.50211c-1.99856,0.12493 -3.9776,-0.53394 -5.9796,-0.57712c-3.38124,-0.07292 -6.07968,3.54064 -9.7188,2.08765c-2.84571,-1.13621 -4.11488,-6.7704 -4.16328,-9.43681c-0.02548,-1.40385 -0.39594,-2.99089 0.31739,-4.20028c0.62816,-1.065 1.25834,-1.72949 1.91924,-2.1541z" fill="#d95333" stroke="none" stroke-width="0.5"/><path d="M300.64661,121.39332c1.70592,2.68073 4.33575,4.96181 5.12637,8.10061c2.81884,11.19087 -5.41108,22.05436 -16.57218,22.39727c-2.26019,0.06944 -4.73525,2.75873 -7.41934,2.88534c-1.69839,0.08011 -14.14069,-1.74032 -15.60002,-0.70593c-3.7203,2.63699 -5.56781,5.02309 -10.05997,6.14613c-0.0413,0.01032 -8.78083,-0.79226 -9.92673,-0.19806c-1.87168,0.97055 -3.48436,1.27569 -5.43887,1.93632c-0.91961,0.31083 -2.06721,2.1484 -2.99604,2.62472c-2.11181,1.08298 -4.53738,0.98672 -6.88702,0.88899c-9.03597,-0.37585 -22.25641,1.99544 -28.19425,-7.05971c-3.96813,-6.05136 -1.95582,-17.11671 4.43534,-20.85251c3.92355,-2.29342 7.54697,-2.10466 11.81491,-2.70414c1.13639,-0.15962 5.67873,-4.01751 8.84454,-4.5775c2.87444,-0.50845 6.77668,1.01556 9.32843,0.34362c4.86046,-1.27988 7.79218,-1.66919 13.12634,-1.92151c1.70209,-0.08051 4.75993,-2.31466 6.59693,-2.87235c2.70196,-0.82027 5.25735,-1.69785 8.0453,-2.32711c1.53105,-0.34557 3.58429,0.23156 4.61065,-0.95593c1.85376,-2.1448 2.00513,-2.11686 5.568,-2.69298c1.97048,-0.31863 3.71498,0.50443 5.58989,0.73877c0.53119,0.06639 3.2796,-2.09205 3.82238,-2.36414c3.12431,-1.56619 13.75529,0.28935 15.30027,2.99308z" fill="#d9ab45" stroke="none" stroke-width="0.5"/><path d="M304.88523,167.52706l-2.42967,-1.04386c-0.44373,0.34594 -1.07059,0.57151 -1.9543,0.48314c-2.3094,-0.23094 -2.47483,-2.21604 -2.47023,-2.82988c-1.44294,-0.76939 -2.89516,-1.52015 -4.39641,-2.23009c0,0 -1.80288,-0.85399 -1.61019,-2.6428c-0.2745,1.66963 -0.64735,3.32534 -1.10849,4.95248l-1.85378,2.3432c0,0 -1.94454,1.94454 -3.88909,0c-1.94454,-1.94454 0,-3.88909 0,-3.88909l0.45449,0.03492c0.47411,-1.64415 0.83825,-3.32484 1.07597,-5.01939c0,0 0.03269,-0.2288 0.14544,-0.54426c-0.49843,-0.16206 -1.00249,-0.3219 -1.51338,-0.48148c0,0 -2.62482,-0.82026 -1.80456,-3.44508c0.82026,-2.62482 3.44508,-1.80456 3.44508,-1.80456c2.28488,0.71433 4.45033,1.44873 6.58137,2.32859l0.1273,-0.23295c-0.59391,-0.05206 -2.58469,-0.40107 -2.58469,-2.74087c0,-2.75 2.75,-2.75 2.75,-2.75c1.28169,0.00477 2.54771,0.08816 3.80792,0.20403c0.88716,-1.32484 1.66551,-2.73176 2.27319,-4.38265c0,0 0.96559,-2.57491 3.54049,-1.60932c1.74879,0.6558 1.86446,2.05392 1.75868,2.88354c0.19332,-0.77562 0.82583,-2.22535 2.84462,-2.09076c1.79016,0.11934 2.33454,1.32875 2.49669,2.15508c0.0409,-0.03234 0.08325,-0.06446 0.1271,-0.09635c2.22402,-1.61747 3.8415,0.60655 3.8415,0.60655c0.75935,1.04519 1.52365,2.05283 2.30215,3.03115c0.61663,-0.5619 1.83866,-1.28415 3.3869,-0.2123c2.26103,1.56533 0.6957,3.82636 0.6957,3.82636c-0.14729,0.20818 -0.29879,0.41352 -0.4542,0.61605c1.18925,1.28385 2.4345,2.53373 3.76182,3.77279c0.75504,0.30132 1.60554,0.98016 1.60554,2.5095c0,2.75 -2.75,2.75 -2.75,2.75l-2.0506,-0.72283c-1.56159,-1.43148 -3.02211,-2.88021 -4.4127,-4.37209c-0.11906,0.09902 -0.2388,0.1971 -0.35917,0.29425c0.30246,0.7702 0.41263,1.91199 -0.79208,2.96612c-1.64296,1.43759 -3.12289,0.42965 -3.66322,-0.04699c-0.55518,0.04244 -1.1876,-0.09319 -1.79718,-0.63013c0.08137,1.46226 0.02529,2.93606 -0.16823,4.3824l-1.44637,2.55599c0,0 -0.07123,0.09972 -0.20466,0.24202c-1.18907,1.78801 -3.30874,0.87958 -3.30874,0.87958zM304.47023,161.36834l0.09299,0.03975c0.04151,-0.98483 -0.0128,-1.97578 -0.16294,-2.94459c0,0 -0.04543,-0.31799 0.00345,-0.75214c-0.01171,0.02034 -0.02342,0.04069 -0.03514,0.06103c-0.10148,1.11066 -0.23742,2.21875 -0.40668,3.32124c0.16912,0.09153 0.33854,0.18311 0.50832,0.27472zM298.99203,155.97949c0,0 0.01339,-0.21429 0.09257,-0.51938c-0.16763,0.21602 -0.33663,0.43376 -0.50687,0.6537l0.30323,0.15145c0.03482,-0.05891 0.06959,-0.11785 0.10432,-0.17681c0.00229,-0.03632 0.00454,-0.07263 0.00675,-0.10895zM305.081,145.76762c-0.41873,1.09982 -0.89206,2.1103 -1.41098,3.06536c0.44156,0.03568 0.88433,0.06638 1.32872,0.09015c0.02913,-1.11225 0.07552,-2.2253 0.14942,-3.34224c0,0 0.00146,-0.0219 0.00607,-0.06164c-0.03863,0.15613 -0.07323,0.24838 -0.07323,0.24838z" fill="#347425" stroke="none" stroke-width="0.5"/><path d="M260.97145,161.4397c-1.29459,-0.36589 -2.44424,-0.89496 -3.09357,-1.75292c-0.61283,-0.80973 -0.68632,-1.73249 -0.45419,-2.64885c-0.44772,-1.7331 0.65957,-2.66516 2.18049,-3.53559c0.08548,-0.0891 0.17044,-0.17493 0.2543,-0.25719c4.02336,-3.94651 9.02992,-5.94356 15.42187,-5.27714c5.49574,0.64732 13.3276,3.16169 15.29715,7.73199c0.57179,1.32682 0.30676,4.09586 0.13162,5.53547c-0.30896,2.53965 0.11495,7.01502 -3.79881,8.27578c-1.33603,0.43038 -2.77493,-0.64978 -4.19748,-0.85054c-6.95353,-0.98136 -14.11396,-3.01101 -20.34242,-5.76896c0,0 -1.15386,-0.51378 -1.39897,-1.45205z" fill="#e7d2d2" stroke="none" stroke-width="0.5"/><path d="M258.67693,160.01763c-2.73871,-0.19401 -2.48973,-2.32808 -2.48973,-2.32808l0.47139,-2.41309c1.97718,-3.05579 4.38906,-5.14327 7.73091,-7.34898c1.05498,-0.51261 1.9759,-1.25481 3.16495,-1.53783c0.48582,-0.11564 5.71044,-0.09219 6.56758,-0.09195c7.68769,0.00221 18.03534,1.39975 20.72751,8.15438c0.11861,0.2976 0.12052,4.45756 0.10192,4.86272c-0.18555,4.04288 -0.86312,7.72231 -3.72989,11.14896c0,0 -1.52543,1.78298 -3.81356,0.59433c-2.28814,-1.18865 -0.76271,-2.97163 -0.76271,-2.97163c2.34619,-2.66084 2.66473,-5.7572 2.81021,-8.93613c0.05385,-1.17657 0.53888,-2.40405 0.10192,-3.53105c-1.79288,-4.62427 -10.53838,-5.03729 -15.43541,-5.03583c-2.63246,0.00079 -4.3364,-0.46973 -6.42537,0.76844c-2.67884,1.76403 -4.55972,3.38723 -6.11872,5.84122l0.08668,0.88446c0,0 -0.24897,2.13407 -2.98768,1.94006z" fill="#e84e4e" stroke="none" stroke-width="0.5"/><path d="M137.63252,141.62345c2.09895,-5.0219 9.32108,-7.48175 14.24066,-6.66798c1.20606,0.1995 2.27276,0.44372 3.24794,0.74917c4.72779,0.47373 9.36164,3.91164 10.9738,8.00144c0.26433,0.34227 0.4941,0.68405 0.68409,1.02075c2.07775,3.68223 2.11922,7.18015 -1.94578,9.48511c-0.55447,0.3144 -2.30809,0.33651 -4.04651,0.27476c-1.28104,0.41757 -2.76254,0.58581 -4.30833,0.5508c-1.03889,0.20178 -2.07969,0.23852 -3.11509,0.1604c-0.07688,0.01199 -0.15324,0.02426 -0.22897,0.03692c-1.12408,0.18794 -2.27493,-0.15091 -3.41418,-0.18225c-4.13874,-0.11386 -9.34201,0.15555 -12.74587,-2.84583c-3.62519,-3.19654 -2.46386,-7.97115 0.65822,-10.5833z" fill="#784814" stroke="none" stroke-width="0.5"/><path d="M141.59006,147.9179c-1.57702,-2.25289 0.67587,-3.82991 0.67587,-3.82991l1.09697,-0.72202c-0.68212,-0.45599 -1.39705,-1.31322 -1.04539,-2.83707c0.61836,-2.67958 3.29794,-2.06121 3.29794,-2.06121c1.44661,0.36102 2.67927,0.87848 3.80058,1.51742c1.93799,-1.26231 3.84425,-2.59952 6.30215,-3.38623c0,0 2.62482,-0.82026 3.44508,1.80456c0.82026,2.62482 -1.80456,3.44508 -1.80456,3.44508c-1.29737,0.39313 -2.42296,0.9394 -3.47911,1.5535c0.52646,0.47614 1.06278,0.97147 1.62336,1.48108l0.13325,-0.13376c0,0 2.55331,1.02132 1.53199,3.57464c-1.02132,2.55331 -3.57464,1.53199 -3.57464,1.53199l-1.79031,-0.90319c-0.94338,-0.85762 -1.80355,-1.74049 -2.69832,-2.5338c-0.73911,0.42205 -1.51929,0.81446 -2.37283,1.15032l-1.31213,1.02447c0,0 -2.25289,1.57702 -3.82991,-0.67587z" fill="#8f7152" stroke="none" stroke-width="0.5"/><path d="M153.08041,150.08873c2.09895,-5.0219 9.32108,-7.48175 14.24067,-6.66799c1.20606,0.19949 2.27276,0.44372 3.24794,0.74917c4.7278,0.47373 9.36164,3.91164 10.9738,8.00144c0.26433,0.34227 0.4941,0.68404 0.68409,1.02075c2.07775,3.68223 2.11923,7.18015 -1.94578,9.48511c-0.55447,0.3144 -2.30809,0.33652 -4.04651,0.27477c-1.28105,0.41757 -2.76255,0.58581 -4.30833,0.5508c-1.03889,0.20179 -2.07968,0.23852 -3.11509,0.1604c-0.07688,0.012 -0.15324,0.02426 -0.22897,0.03692c-1.12408,0.18794 -2.27493,-0.15091 -3.41418,-0.18225c-4.13874,-0.11386 -9.34201,0.15555 -12.74587,-2.84583c-3.62519,-3.19653 -2.46386,-7.97115 0.65822,-10.58329z" fill="#8f5518" stroke="none" stroke-width="0.5"/><path d="M157.03795,156.38318c-1.57702,-2.25289 0.67586,-3.82991 0.67586,-3.82991l1.09698,-0.72201c-0.68213,-0.45599 -1.39704,-1.31322 -1.04539,-2.83707c0.61837,-2.67958 3.29794,-2.06122 3.29794,-2.06122c1.44661,0.36102 2.67927,0.87848 3.80059,1.51743c1.938,-1.26232 3.84425,-2.59952 6.30215,-3.38622c0,0 2.62482,-0.82026 3.44508,1.80456c0.82026,2.62482 -1.80456,3.44508 -1.80456,3.44508c-1.29737,0.39313 -2.42296,0.9394 -3.47911,1.5535c0.52646,0.47614 1.06279,0.97147 1.62336,1.48108l0.13325,-0.13376c0,0 2.55331,1.02132 1.53198,3.57464c-1.02132,2.55331 -3.57464,1.53199 -3.57464,1.53199l-1.7903,-0.90319c-0.94338,-0.85762 -1.80355,-1.74049 -2.69832,-2.53381c-0.73911,0.42205 -1.5193,0.81446 -2.37284,1.15032l-1.31213,1.02447c0,0 -2.25289,1.57702 -3.82991,-0.67586z" fill="#8f7152" stroke="none" stroke-width="0.5"/><path d="M249.38355,162.20912c-1.29459,-0.36589 -2.44423,-0.89496 -3.09357,-1.75292c-0.61283,-0.80973 -0.68632,-1.73249 -0.45418,-2.64885c-0.44772,-1.7331 0.65957,-2.66516 2.18048,-3.53559c0.08547,-0.0891 0.17044,-0.17493 0.2543,-0.25718c4.02336,-3.94652 9.02992,-5.94356 15.42187,-5.27714c5.49574,0.64732 13.3276,3.16169 15.29715,7.73199c0.57179,1.32683 0.30676,4.09586 0.13162,5.53547c-0.30896,2.53965 0.11495,7.01502 -3.79881,8.27578c-1.33603,0.43039 -2.77493,-0.64978 -4.19748,-0.85055c-6.95353,-0.98136 -14.11397,-3.01101 -20.34242,-5.76896c0,0 -1.15386,-0.51379 -1.39897,-1.45206z" fill="#e7d2d2" stroke="none" stroke-width="0.5"/><path d="M247.08904,160.78705c-2.73871,-0.19401 -2.48973,-2.32808 -2.48973,-2.32808l0.47138,-2.41309c1.97717,-3.0558 4.38906,-5.14328 7.73091,-7.34898c1.05498,-0.51261 1.9759,-1.25482 3.16494,-1.53784c0.48582,-0.11563 5.71043,-0.09219 6.56759,-0.09194c7.68768,0.00221 18.03535,1.39975 20.72751,8.15438c0.11861,0.2976 0.12051,4.45756 0.10192,4.86272c-0.18554,4.04288 -0.86312,7.72231 -3.72988,11.14896c0,0 -1.52543,1.78297 -3.81357,0.59432c-2.28814,-1.18865 -0.76271,-2.97163 -0.76271,-2.97163c2.34619,-2.66083 2.66472,-5.7572 2.81021,-8.93613c0.05385,-1.17657 0.53887,-2.40404 0.10192,-3.53105c-1.79288,-4.62427 -10.53838,-5.03729 -15.43541,-5.03583c-2.63246,0.00079 -4.3364,-0.46973 -6.42537,0.76844c-2.67883,1.76403 -4.55972,3.38723 -6.11872,5.84123l0.08667,0.88446c0,0 -0.24897,2.13407 -2.98767,1.94007z" fill="#e83838" stroke="none" stroke-width="0.5"/></g></g></g></svg>