<svg version="1.1" xmlns="http://www.w3.org/2000/svg" xmlns:xlink="http://www.w3.org/1999/xlink" width="99.20614" height="119.40827" viewBox="0,0,99.20614,119.40827"><defs><linearGradient x1="248.7546" y1="155.17809" x2="248.7546" y2="163.02067" gradientUnits="userSpaceOnUse" id="color-1"><stop offset="0" stop-color="#9aa8ad"/><stop offset="1" stop-color="#a3c3cf"/></linearGradient><linearGradient x1="275.35711" y1="156.18784" x2="275.35711" y2="161.82542" gradientUnits="userSpaceOnUse" id="color-2"><stop offset="0" stop-color="#d668b3"/><stop offset="1" stop-color="#d68fbf"/></linearGradient><linearGradient x1="258.21426" y1="156.18785" x2="258.21426" y2="161.82542" gradientUnits="userSpaceOnUse" id="color-3"><stop offset="0" stop-color="#d6742b"/><stop offset="1" stop-color="#d68e51"/></linearGradient><linearGradient x1="241.0714" y1="156.18785" x2="241.0714" y2="161.82542" gradientUnits="userSpaceOnUse" id="color-4"><stop offset="0" stop-color="#69a2d6"/><stop offset="1" stop-color="#90b8d6"/></linearGradient><linearGradient x1="223.92855" y1="156.18785" x2="223.92855" y2="161.82542" gradientUnits="userSpaceOnUse" id="color-5"><stop offset="0" stop-color="#b5c2d6"/><stop offset="1" stop-color="#cad2d6"/></linearGradient><linearGradient x1="248.7546" y1="146.46293" x2="248.7546" y2="163.02066" gradientUnits="userSpaceOnUse" id="color-6"><stop offset="0" stop-color="#b2fffe" stop-opacity="0.65098"/><stop offset="1" stop-color="#bbffff" stop-opacity="0.17255"/></linearGradient></defs><g transform="translate(-190.39693,-120.29588)"><g data-paper-data="{&quot;isPaintingLayer&quot;:true}" stroke-miterlimit="10" stroke-dasharray="" stroke-dashoffset="0" style="mix-blend-mode: normal"><path d="M289.60307,129.31305v101.37565c0,4.97152 -4.04218,9.01545 -9.01718,9.01545h-81.17351c-4.96979,0 -9.01545,-4.04392 -9.01545,-9.01544v-101.37738c0,-4.97152 4.04566,-9.01545 9.01545,-9.01545h81.17351c4.975,0 9.01718,4.04566 9.01718,9.01719z" fill-opacity="0.74902" fill="#d2d3d4" fill-rule="nonzero" stroke="none" stroke-width="1" stroke-linecap="butt" stroke-linejoin="miter"/><path d="M287.06513,163.26163v65.07452c0,4.97152 -4.04219,9.01545 -9.01719,9.01545l-76.09761,0.25093c-4.96979,0 -9.01545,-4.04392 -9.01545,-9.01545v-65.07627z" fill-opacity="0.85882" fill="#ffffff" fill-rule="nonzero" stroke="none" stroke-width="1" stroke-linecap="butt" stroke-linejoin="miter"/><text transform="translate(197.4876,200.16945) scale(0.28036,0.28036)" font-size="40" xml:space="preserve" fill="#000000" fill-rule="nonzero" stroke="#000000" stroke-width="1" stroke-linecap="butt" stroke-linejoin="miter" stroke-miterlimit="10" stroke-dasharray="" stroke-dashoffset="0" font-family="&quot;ヒラギノ角ゴ Pro W3&quot;, &quot;Hiragino Kaku Gothic Pro&quot;, Osaka, &quot;メイリオ&quot;, Meiryo, &quot;ＭＳ Ｐゴシック&quot;, &quot;MS PGothic&quot;" font-weight="normal" text-anchor="start" style="mix-blend-mode: normal"><tspan x="0" dy="0">アイス屋</tspan></text><g fill-rule="nonzero" stroke="none" stroke-linecap="butt" stroke-linejoin="miter"><g fill="#45b5e6" stroke-width="0"><path d="M208.75315,213.93832l-6.05509,-6.05509l0.90827,-0.90827l6.05509,6.05509z"/><path d="M207.66481,204.70311c0.3036,0.3036 0.30354,0.79598 0,1.09952l-6.13918,6.13917c-0.3036,0.3036 -0.79592,0.30347 -1.09945,-0.00006l-2.54359,-2.54359c-0.3036,-0.3036 -0.3036,-0.79579 0,-1.0994l6.13911,-6.13911c0.30374,-0.30374 0.79586,-0.30366 1.09946,-0.00006l2.54358,2.54358z"/></g><text transform="translate(209.44316,210.32878) scale(0.19587,0.20747)" font-size="40" xml:space="preserve" fill="#585858" fill-rule="nonzero" stroke="none" stroke-width="1" stroke-linecap="butt" stroke-linejoin="miter" stroke-miterlimit="10" stroke-dasharray="" stroke-dashoffset="0" font-family="Sans Serif" font-weight="normal" text-anchor="start" style="mix-blend-mode: normal"><tspan x="0" dy="0">80,000G</tspan></text></g><g stroke-width="1"><g data-paper-data="{&quot;index&quot;:null}"><path d="M204.68463,214.69793c0.0443,-0.02953 0.11815,-0.01477 0.13292,0.04431l0.38401,1.58035c0,0 0.94524,0.69416 1.22588,1.18158c0.47263,0.81232 0.48739,1.47697 0.48739,1.47697c0,0 1.04864,0.31017 1.22589,1.15203c0.17723,0.84187 -0.47263,2.43699 -3.24931,2.98347c-2.7767,0.54647 -5.00691,-0.20678 -6.05557,-1.89052c-1.04864,-1.68374 0.60554,-3.69241 0.51693,-3.57425l-0.31017,-2.64377c-0.01477,-0.05909 0.05908,-0.10339 0.11814,-0.07385l1.78713,1.16681c0,0 0.66464,-0.25109 1.35881,-0.28063c0.41356,-0.02953 0.76802,0 1.10772,0.05909z" fill="#45b5e6" fill-rule="evenodd" stroke="#45b5e6" stroke-linecap="butt" stroke-linejoin="miter"/><path d="M209.58817,219.20268c-0.69417,0.56124 -1.7576,0.57601 -1.7576,0.57601" fill="#45b5e6" fill-rule="evenodd" stroke="#45b5e6" stroke-linecap="round" stroke-linejoin="round"/><path d="M209.39615,220.85687c-0.93048,0.07385 -1.50651,-0.20676 -1.50651,-0.20676" fill="#45b5e6" fill-rule="evenodd" stroke="#45b5e6" stroke-linecap="round" stroke-linejoin="round"/><path d="M197.72814,219.15836c0,0 1.27017,0.41356 1.78711,0.87141" fill="#45b5e6" fill-rule="evenodd" stroke="#45b5e6" stroke-linecap="round" stroke-linejoin="round"/><path d="M199.55957,220.54671c-0.6351,0.25108 -1.72804,0.08862 -1.72804,0.08862" fill="#45b5e6" fill-rule="evenodd" stroke="#45b5e6" stroke-linecap="round" stroke-linejoin="round"/><g fill="none" fill-rule="nonzero" stroke="none" stroke-linecap="butt" stroke-linejoin="miter" font-family="sans-serif" font-weight="normal" font-size="12" text-anchor="start"/><g fill="none" fill-rule="nonzero" stroke="none" stroke-linecap="butt" stroke-linejoin="miter" font-family="sans-serif" font-weight="normal" font-size="12" text-anchor="start"/></g><text transform="translate(209.44316,222.38156) scale(0.19588,0.20747)" font-size="40" xml:space="preserve" fill="#585858" fill-rule="nonzero" stroke="none" stroke-width="1" stroke-linecap="butt" stroke-linejoin="miter" stroke-miterlimit="10" stroke-dasharray="" stroke-dashoffset="0" font-family="Sans Serif" font-weight="normal" text-anchor="start" style="mix-blend-mode: normal"><tspan x="0" dy="0">420G</tspan></text></g><g fill-rule="nonzero" stroke="none" stroke-linecap="butt"><path d="M248.03087,215.93531c0.41438,-0.94222 1.30869,-1.59712 2.34778,-1.59712c1.4325,0 2.5951,1.24099 2.5951,2.77006c0,3.0114 -4.94287,7.00154 -4.94287,7.00154c0,0 -4.94286,-3.89088 -4.94286,-7.00154c0,-1.52908 1.1626,-2.77006 2.5951,-2.77006c1.03907,0 1.9334,0.65487 2.34776,1.59712z" fill="#45b5e6" stroke-width="0" stroke-linejoin="round"/><text transform="translate(253.23743,222.41856) scale(0.19589,0.20748)" font-size="40" xml:space="preserve" fill="#585858" fill-rule="nonzero" stroke="none" stroke-width="1" stroke-linecap="butt" stroke-linejoin="miter" stroke-miterlimit="10" stroke-dasharray="" stroke-dashoffset="0" font-family="Sans Serif" font-weight="normal" text-anchor="start" style="mix-blend-mode: normal"><tspan x="0" dy="0">6%</tspan></text></g><g fill-rule="nonzero" stroke="none" stroke-linecap="butt" stroke-linejoin="miter"><g fill="#45b5e6" stroke-width="0"><path d="M241.85852,206.60629l5.64578,-1.34827l3.23916,3.23917l-1.34825,5.64577l-3.23077,-3.23077l-0.02081,-1.06159h-1.04078z"/><path d="M254.06963,202.84012l-4.99544,4.99545l-0.90828,-0.90827l4.99544,-4.99545z"/></g><text transform="translate(252.97427,210.4311) scale(0.19589,0.20748)" font-size="40" xml:space="preserve" fill="#585858" fill-rule="nonzero" stroke="none" stroke-width="1" stroke-linecap="butt" stroke-linejoin="miter" stroke-miterlimit="10" stroke-dasharray="" stroke-dashoffset="0" font-family="Sans Serif" font-weight="normal" text-anchor="start" style="mix-blend-mode: normal"><tspan x="0" dy="0">550G</tspan></text></g><g><path d="M194.8904,186.32394v-60.49176h90.21921v60.49176z" fill="#c48be0" fill-rule="nonzero" stroke="#666666" stroke-width="2" stroke-linecap="butt" stroke-linejoin="miter"/><g fill="#725f23" fill-rule="nonzero" stroke="none" stroke-width="0" stroke-linecap="butt" stroke-linejoin="miter"><path d="M208.39467,157.52406v3.20611l-12.48478,2.19133v-5.39744z" data-paper-data="{&quot;index&quot;:null}"/><path d="M200.84921,161.04704l0.45454,21.99171l-5.39386,-0.55923v-24.95546z" data-paper-data="{&quot;index&quot;:null}"/></g><path d="M195.90988,185.40644v-3.6523h88.18031v3.6523z" fill="#c0c0c0" fill-rule="nonzero" stroke="none" stroke-width="0" stroke-linecap="butt" stroke-linejoin="miter"/><g data-paper-data="{&quot;index&quot;:null}" fill-rule="evenodd" stroke-width="0.5"><g><path d="M259.08778,161.90456c0.98944,-0.20613 2.18503,-0.53595 3.17448,-1.44295c2.26748,-2.02012 2.96834,-5.35951 4.53497,-4.49374c1.60785,0.86577 1.56662,6.2665 -3.46306,7.91558c-1.73154,0.57718 -3.29816,0.57717 -4.5762,0.53595c-0.32981,0 -3.17448,-0.28859 -4.16392,-1.6903c-0.98944,-1.40171 -0.28859,-1.77276 0.04122,-1.93767c0.37105,-0.20613 3.0508,1.36049 4.45252,1.11313z" fill="#ffab19" stroke="#001026" stroke-linecap="round" stroke-linejoin="round"/><path d="M266.54986,156.05033c0.82454,0.24736 1.23681,1.97889 0.82454,3.42184c-0.41227,1.44295 -1.0719,2.18503 -1.60785,2.72098c0.08246,-0.28859 0.24736,-1.19558 -0.4535,-1.73154c-0.86577,-0.70086 -2.39116,-0.32981 -2.39116,-0.32981c0,0 1.27804,-1.56662 1.93767,-2.67975c0.65963,-0.94822 0.86576,-1.56662 1.6903,-1.40171z" fill="#ffffff" stroke="none" stroke-linecap="butt" stroke-linejoin="miter"/></g><path d="M248.1626,157.32837c0,1.0719 -0.86577,2.18503 -1.36049,2.84466c-0.49472,0.65963 -2.80344,3.09202 -5.6481,1.81399c-1.19558,-0.6184 -3.99902,-2.92711 -2.51485,-4.2876c1.48417,-1.36049 2.84467,0.32981 3.83411,1.19558c0.82454,0.74209 3.33939,-2.22625 3.54552,-2.39116c0.70086,-0.6184 2.10258,-0.32982 2.1438,0.82454z" fill="#ffab19" stroke="#001026" stroke-linecap="round" stroke-linejoin="round"/><g><path d="M249.06962,163.10014c-0.49472,-0.37105 -0.98945,-0.98944 -1.64908,-1.93766c-0.53595,-0.78331 -1.11312,-2.30871 -1.11312,-2.30871c-0.37105,-1.03068 -0.6184,-3.00957 0.74209,-2.96834c0.90699,0.04122 1.73153,-0.08246 3.13325,-0.28859c2.47362,-0.49472 2.92712,-0.82453 3.95779,0.86577c1.11313,1.97889 3.95779,3.42184 0.4535,6.84368c0,0 -2.02013,1.56662 -4.45252,3.95779c-1.64908,1.60785 -4.24638,3.91656 -5.15337,4.69987c-0.20613,0.16491 -0.4535,0.24737 -0.70086,0.28859c-3.99902,0.37105 -6.96735,-0.04123 -6.96735,-1.81399c0,-2.96834 5.89545,-1.93767 5.89545,-1.93767c0,0 1.89644,-1.60786 2.7622,-2.39117z" fill="#ffab19" stroke="#001026" stroke-linecap="round" stroke-linejoin="round"/><path d="M247.25563,160.33794c0,0 -0.78332,-1.03067 0.98944,-2.1438c1.85521,-1.19558 2.55607,0.12368 3.29816,1.11313c0.82454,1.27803 0,1.89644 -0.82454,2.63853c-0.65963,0.6184 -1.27803,1.11313 -1.27803,1.11313c0,0 -1.27804,-0.86577 -2.18503,-2.72098z" fill="#ffffff" stroke="none" stroke-linecap="butt" stroke-linejoin="miter"/></g><path d="M255.62471,159.01867c-0.4535,-0.28859 -1.0719,-0.78331 -1.69031,-1.23681c-1.03068,-0.74209 -2.51485,-2.39117 -0.4535,-3.13325c1.64908,-0.6184 3.13325,0.53596 4.90601,1.81399c0.90699,0.70086 1.9789,1.5254 1.60786,2.80344c-0.41227,1.44295 -2.4324,5.56564 -4.86479,4.20515c-1.77276,-1.19558 -0.37104,-2.63853 0.53595,-3.79289c0.12368,-0.20613 0.08246,-0.4535 -0.04122,-0.65963z" fill="#ffab19" stroke="#001026" stroke-linecap="round" stroke-linejoin="round"/><g><path d="M246.22496,135.18948c0.94822,-0.16491 1.93766,-0.24736 3.09202,-0.16491c1.93767,0.08246 3.79289,0.78331 3.79289,0.78331l4.98846,-3.25693c0.16491,-0.08246 0.37104,0.04123 0.32982,0.20614l-0.86577,7.37963c-0.24736,-0.32981 4.37006,5.27705 1.44295,9.97692c-2.92711,4.69987 -9.15239,6.80245 -16.90306,5.27705c-7.75067,-1.5254 -9.56465,-5.97791 -9.06993,-8.32784c0.49472,-2.34993 3.42184,-3.21571 3.42184,-3.21571c0,0 0.04122,-1.85521 1.36049,-4.12269c0.78331,-1.36049 3.42184,-3.29816 3.42184,-3.29816l1.0719,-4.41128c0.04122,-0.16491 0.24736,-0.20614 0.37104,-0.12368z" fill="#ffab19" stroke="#001026" stroke-linecap="butt" stroke-linejoin="miter"/><path d="M243.3803,146.03218c3.46307,0.24736 8.20417,-3.50429 10.96638,0.90699c2.7622,4.37006 -1.9789,10.30674 -11.95583,8.24539c-7.66822,-1.48417 -9.64711,-5.73055 -9.15238,-8.08049c0.49472,-2.34993 3.33938,-3.09202 3.33938,-3.09202c3.5043,-0.78331 3.83411,1.81399 6.80246,2.02012z" fill="#ffffff" stroke="none" stroke-linecap="butt" stroke-linejoin="miter"/><path d="M245.56533,153.49426c-4.32883,0.24736 -5.89545,-2.84466 -6.26649,-3.95779c-0.08246,-0.20613 0.08245,-0.41226 0.28859,-0.37104c0.6184,0.12368 1.93767,0.24736 4.16392,0.12368c2.47362,-0.16491 4.69988,-0.82454 5.48319,-1.11313c0.16491,-0.04122 0.32981,0.08246 0.32981,0.24737c0.12368,2.02012 -0.24737,4.65864 -3.99902,5.07091z" fill="#ffffff" stroke="#001026" stroke-linecap="round" stroke-linejoin="round"/><path d="M233.8981,146.0734c0,0 -2.96834,-0.04123 -4.90601,-1.60785" fill="none" stroke="#001026" stroke-linecap="round" stroke-linejoin="round"/><path d="M233.73319,148.5058c0,0 -1.60785,0.78331 -4.20515,0.57717" fill="none" stroke="#001026" stroke-linecap="round" stroke-linejoin="round"/><path d="M245.44165,145.49623c0,0.65963 -1.73153,1.69031 -2.47362,1.60785c-0.65963,-0.04122 -1.27803,-1.19558 -1.23681,-1.77276c0.04122,-0.28859 0.94822,-0.37104 1.81399,-0.37104c0.82454,0 1.93767,0.04122 1.89644,0.53595z" fill="#001026" stroke="#001026" stroke-linecap="round" stroke-linejoin="round"/><path d="M257.10888,146.77426c1.44295,-1.27803 4.98847,-2.43239 4.98847,-2.43239" fill="none" stroke="#001026" stroke-linecap="round" stroke-linejoin="round"/><path d="M261.80874,148.46457c0,0 -3.05079,0.4535 -4.82355,-0.24736" fill="none" stroke="#001026" stroke-linecap="round" stroke-linejoin="round"/><g><path d="M242.96803,138.15783c1.15436,0.74209 1.11313,2.84466 -0.08245,4.69987c-1.23681,1.85521 -3.13325,2.72098 -4.28761,1.97889c-1.15436,-0.74209 -1.11312,-2.84466 0.08246,-4.69987c1.19558,-1.85521 3.13325,-2.7622 4.2876,-1.97889z" fill="#ffffff" stroke="#001026" stroke-linecap="round" stroke-linejoin="round"/><path d="M238.84533,142.48666c0,-0.4535 0.32981,-0.82454 0.74209,-0.82454c0.41227,0 0.74209,0.37104 0.74209,0.82454c0,0.4535 -0.32981,0.82454 -0.74209,0.82454c-0.41227,0 -0.74209,-0.37105 -0.74209,-0.82454" fill="#001026" stroke="none" stroke-linecap="butt" stroke-linejoin="miter"/></g><g><path d="M253.35723,139.43586c1.27803,0.90699 1.19558,3.25693 -0.08245,5.07092c-1.23681,1.81399 -3.0508,2.39117 -4.41129,1.60786c-1.11313,-0.78331 -1.19558,-3.00957 0.04123,-4.82355c1.23681,-1.81399 3.17448,-2.80344 4.45251,-1.85522z" fill="#ffffff" stroke="#001026" stroke-linecap="round" stroke-linejoin="round"/><path d="M249.15208,143.68224c0,-0.4535 0.32981,-0.78331 0.74209,-0.82453c0.41227,0 0.74209,0.37104 0.74209,0.82453c0,0.4535 -0.32981,0.82454 -0.74209,0.82454c-0.41227,0 -0.74209,-0.37105 -0.74209,-0.82454" fill="#001026" stroke="none" stroke-linecap="butt" stroke-linejoin="miter"/></g></g></g><path d="M213.41902,163.02067l1.23295,-7.73737l69.43821,-0.10522v7.84259z" fill="url(#color-1)" fill-rule="nonzero" stroke="#666666" stroke-width="1" stroke-linecap="butt" stroke-linejoin="miter"/><g fill-rule="nonzero" stroke="#666666" stroke-width="0.5" stroke-linecap="butt" stroke-linejoin="miter"><path d="M282.65217,157.33556v3.34236c0,0.63278 -0.5145,1.1475 -1.14772,1.1475h-12.29489c-0.63256,0 -1.1475,-0.51472 -1.1475,-1.1475v-3.34258c0,-0.63278 0.51493,-1.14749 1.1475,-1.14749h12.29489c0.63322,0 1.14772,0.51494 1.14772,1.14772z" fill="url(#color-2)"/><path d="M265.50931,157.33556v3.34235c0,0.63279 -0.5145,1.1475 -1.14772,1.1475h-12.29489c-0.63256,0 -1.1475,-0.51472 -1.1475,-1.1475v-3.34257c0,-0.63279 0.51494,-1.1475 1.1475,-1.1475h12.29489c0.63322,0 1.14772,0.51494 1.14772,1.14772z" fill="url(#color-3)"/><path d="M248.36646,157.33556v3.34235c0,0.63279 -0.5145,1.1475 -1.14773,1.1475h-12.29489c-0.63256,0 -1.1475,-0.51472 -1.1475,-1.1475v-3.34257c0,-0.63279 0.51494,-1.1475 1.1475,-1.1475h12.29489c0.63322,0 1.14773,0.51494 1.14773,1.14772z" fill="url(#color-4)"/><path d="M231.2236,157.33556v3.34235c0,0.63279 -0.5145,1.1475 -1.14773,1.1475h-12.29488c-0.63256,0 -1.1475,-0.51472 -1.1475,-1.1475v-3.34257c0,-0.63279 0.51494,-1.1475 1.1475,-1.1475h12.29488c0.63322,0 1.14773,0.51494 1.14773,1.14772z" fill="url(#color-5)"/></g><path d="M213.41901,163.02066l2.63849,-16.55774h68.03268v16.55774z" fill="url(#color-6)" fill-rule="nonzero" stroke="#666666" stroke-width="1" stroke-linecap="butt" stroke-linejoin="miter"/><path d="M284.09016,163.02066v18.73348h-70.67115v-18.73348z" fill="#81bacf" fill-rule="nonzero" stroke="#666666" stroke-width="1" stroke-linecap="butt" stroke-linejoin="miter"/><g data-paper-data="{&quot;index&quot;:null}" fill-rule="nonzero" stroke-linejoin="miter"><path d="M215.88986,180.85629v-14.1l13.7,0.4l-0.3,-20.2l0.5,33.9" data-paper-data="{&quot;index&quot;:null}" fill="none" stroke="#b37b47" stroke-width="2.5" stroke-linecap="round"/><path d="M227.48987,165.10629c0,0.35898 -2.73107,0.65 -6.1,0.65c-3.36893,0 -6.1,-0.29102 -6.1,-0.65c0,-0.35898 2.73107,-0.65 6.1,-0.65c3.36893,0 6.1,0.29102 6.1,0.65z" data-paper-data="{&quot;index&quot;:null}" fill="#997a6b" stroke="#997a6b" stroke-width="2" stroke-linecap="butt"/></g></g><path d="M286.08836,126.38077v59.3949c0,0.9386 -0.76314,1.70207 -1.7024,1.70207h-88.77223c-0.93827,0 -1.70207,-0.76347 -1.70207,-1.70207v-59.39522c0,-0.9386 0.7638,-1.70208 1.70207,-1.70208h88.77223c0.93926,0 1.7024,0.7638 1.7024,1.7024z" fill="none" fill-rule="nonzero" stroke="#666666" stroke-width="2" stroke-linecap="butt" stroke-linejoin="miter"/><g fill-rule="nonzero" stroke="none" stroke-linecap="butt" stroke-linejoin="miter"><text transform="translate(252.9769,234.29901) scale(0.19588,0.20747)" font-size="40" xml:space="preserve" fill="#585858" fill-rule="nonzero" stroke="none" stroke-width="1" stroke-linecap="butt" stroke-linejoin="miter" stroke-miterlimit="10" stroke-dasharray="" stroke-dashoffset="0" font-family="Sans Serif" font-weight="normal" text-anchor="start" style="mix-blend-mode: normal"><tspan x="0" dy="0">-7</tspan></text><path d="M244.4761,236.41881l1.7486,-4.14478l-2.20732,-0.69125l5.87862,-5.12252l-1.71443,4.10799l2.18486,0.71764z" fill="#e6c245" stroke-width="0"/></g><g fill-rule="nonzero" stroke="none" stroke-linecap="butt" stroke-linejoin="miter"><text transform="translate(209.44316,234.20486) scale(0.19588,0.20747)" font-size="40" xml:space="preserve" fill="#585858" fill-rule="nonzero" stroke="none" stroke-width="1" stroke-linecap="butt" stroke-linejoin="miter" stroke-miterlimit="10" stroke-dasharray="" stroke-dashoffset="0" font-family="Sans Serif" font-weight="normal" text-anchor="start" style="mix-blend-mode: normal"><tspan x="0" dy="0">-4</tspan></text><path d="M200.35963,232.99861c0,-1.82173 3.29853,-6.42346 3.29853,-6.42346c0,0 3.29853,4.60173 3.29853,6.42346c0,1.82173 -1.4768,3.29853 -3.29853,3.29853c-1.82173,0 -3.29853,-1.4768 -3.29853,-3.29853z" fill="#0079cd" stroke-width="NaN"/></g></g></g></svg>