<svg version="1.1" xmlns="http://www.w3.org/2000/svg" xmlns:xlink="http://www.w3.org/1999/xlink" width="170.07192" height="191.02921" viewBox="0,0,170.07192,191.02921"><g transform="translate(-176.91216,-147.85612)"><g data-paper-data="{&quot;isPaintingLayer&quot;:true}" fill-opacity="0.01176" fill="#000000" fill-rule="nonzero" stroke="none" stroke-linecap="butt" stroke-linejoin="miter" stroke-miterlimit="10" stroke-dasharray="" stroke-dashoffset="0" style="mix-blend-mode: normal"><path d="M320.56428,161.06602c0,-7.29563 5.91427,-13.2099 13.2099,-13.2099c7.29563,0 13.2099,5.91427 13.2099,13.2099c0,7.29563 -5.91427,13.2099 -13.2099,13.2099c-7.29563,0 -13.2099,-5.91428 -13.2099,-13.2099z" stroke-width="0"/><g stroke-width="1"><path d="M303.08783,284.99624c0,2.38835 -1.94188,4.33107 -4.33189,4.33107h-117.5127c-2.38751,0 -4.33108,-1.94271 -4.33108,-4.33107v-28.49834c0,-2.38835 1.94356,-4.33107 4.33108,-4.33107h117.51271c2.39002,0 4.33189,1.94355 4.33189,4.3319z"/></g><g stroke-width="1"><path d="M303.08783,334.55426c0,2.38835 -1.94188,4.33107 -4.33189,4.33107h-117.5127c-2.38751,0 -4.33108,-1.94271 -4.33108,-4.33107v-28.49834c0,-2.38835 1.94356,-4.33107 4.33108,-4.33107h117.51271c2.39002,0 4.33189,1.94355 4.33189,4.3319z"/></g></g></g></svg>