<svg version="1.1" xmlns="http://www.w3.org/2000/svg" xmlns:xlink="http://www.w3.org/1999/xlink" width="33.4132" height="54.54651" viewBox="0,0,33.4132,54.54651"><g transform="translate(-247.4075,-141.44245)"><g data-paper-data="{&quot;isPaintingLayer&quot;:true}" fill-rule="nonzero" stroke-miterlimit="10" stroke-dasharray="" stroke-dashoffset="0" style="mix-blend-mode: normal"><path d="M260.88349,177.95524c0,-0.51423 0.14424,-1.25292 0.94216,-1.41966c1.15118,-0.24149 2.46831,0.92419 2.82654,1.26716c-0.02649,0.13648 0.42146,2.89026 0.42146,3.12901c0,0.8072 -0.21572,0.83919 -0.29945,0.85245c-0.78821,0.11474 -2.88878,-2.09411 -3.85296,-3.37924c-0.01326,-0.06975 -0.03776,-0.22499 -0.03776,-0.44972v0z" fill="#ffc93e" stroke="#603813" stroke-width="0.65" stroke-linecap="butt" stroke-linejoin="miter"/><path d="M257.69171,181.81393c-0.57143,-0.61996 -0.65293,-2.30007 -0.65293,-3.01476c0,-0.30326 0.01549,-0.50496 0.01624,-0.51121l0.00102,-0.01552c0,0 -0.00178,-0.06474 -0.00178,-0.08848c0,-1.34591 1.23917,-1.81312 1.44916,-1.88335c0.71744,0.00874 1.95759,0.34821 2.25357,0.86044c0.03,0.05147 0.05799,0.11647 0.05799,0.1997c0,0.07303 -0.02174,0.1615 -0.08372,0.26825c-0.02875,0.04898 -0.53823,1.25292 -0.96919,2.1761l-0.30796,0.8537c-0.23049,0.74592 -0.59321,1.49238 -0.98795,1.49238c-0.31196,0.00049 -0.56521,-0.10999 -0.77445,-0.33724v0z" fill="#ffc93e" stroke="#603813" stroke-width="0.65" stroke-linecap="butt" stroke-linejoin="miter"/><path d="M273.70541,171.71542l-0.1658,-1.11784c-0.18663,-1.21111 -0.49398,-2.37264 -0.76558,-3.39549c-0.34839,-1.31692 -0.58618,-2.63218 -0.51059,-3.46743c0.02715,-0.30089 0.16431,-0.5451 0.33095,-0.64505c0.02558,-0.03436 0.16166,-0.05228 0.24724,-0.03803c1.03491,0.1623 4.11287,3.95855 4.63105,5.55271c0.75932,2.3349 0.37507,5.05076 -0.43182,6.18198c-0.33026,0.46202 -0.76631,0.71147 -1.26127,0.71927c-1.26514,0.01972 -1.67704,-1.05618 -2.07417,-3.79013v0z" fill="#ffc93e" stroke="#603813" stroke-width="0.65" stroke-linecap="butt" stroke-linejoin="miter"/><path d="M257.16901,153.27859c1.50466,-0.81771 -0.04823,-3.89649 -1.55063,-6.87473c-0.82118,-1.6284 -2.28556,-4.37868 -1.80962,-4.63641c0.92069,-0.49896 5.31911,4.69165 7.10224,6.78373l1.81761,2.07037c0,0 1.29941,1.59411 2.29381,2.64556c0.01752,0.01824 0.95769,-0.12774 1.60716,-0.66748c0.52945,-0.4417 0.45944,-0.93591 0.62795,-1.97533c0.15472,-0.95494 0.32274,-2.68306 0.83519,-2.6918c0.77193,-0.01175 1.27941,3.17 1.47712,4.34865l0.10924,0.63047c0.25924,1.40187 1.61164,5.61683 1.66963,5.79555c0.0185,0.04349 0.04902,0.1 0.04902,0.1l0.01123,0.02276l0.01549,0.01899c2.08838,2.59006 3.64149,5.73055 3.64149,8.67284c0,6.23054 -5.46159,10.61645 -12.77205,10.61645c-1.3559,0 -2.68203,-0.18999 -3.9417,-0.56348l-0.06775,-0.01948c0,0 -1.97733,-0.16625 -4.50691,3.15877c-0.50744,0.66744 -0.46223,1.28966 -1.17741,1.09816c-0.23848,-0.06375 -0.41373,-0.239 -0.55669,-0.55722c-0.34199,-0.75893 -0.08953,-2.55705 0.32846,-3.70597l0.06576,-0.18049l-0.15099,-0.11948c-0.037,-0.02951 -4.13971,-3.01901 -4.55416,-7.30296c-0.36124,-3.73419 1.52513,-5.86029 2.30783,-7.02873l0.44971,-0.74894c0.56769,-1.38115 -0.50074,-3.302 -1.44366,-4.99687c-0.56295,-1.01191 -1.47165,-2.48854 -1.26641,-2.83554c0.22774,-0.38446 1.04168,0.02475 1.86361,0.41674c0.66646,0.31848 1.30767,0.76843 1.75286,0.47169c0.46298,-0.30823 0.15924,-1.08241 -0.26146,-2.15409c-0.39572,-1.00642 -1.14493,-2.59628 -0.8572,-3.25249c0.07924,-0.18049 0.21825,-0.30725 0.42496,-0.38747c0.76447,-0.29598 1.85736,0.99169 2.74206,1.99885c1.07917,1.22967 2.30308,2.62306 3.72421,1.84937v0z" fill="#ffc93e" stroke="#603813" stroke-width="0.65" stroke-linecap="round" stroke-linejoin="round"/><g stroke="none" stroke-width="0.65" stroke-linecap="butt" stroke-linejoin="miter"><path d="M258.43067,167.97797v0c0,-1.12439 0.91143,-2.03634 2.03612,-2.03683c1.12417,0 2.03558,0.91244 2.03558,2.03683c0,1.12367 -0.91119,2.03487 -2.03558,2.03487c-1.12443,0 -2.03612,-0.91119 -2.03612,-2.03487z" fill="#ffffff"/><path d="M260.74076,166.49007c0.3952,0 0.75343,0.16052 1.01267,0.41999c0.25947,0.25924 0.41995,0.61744 0.41995,1.01266c0,0.39523 -0.16048,0.75347 -0.41995,1.01267c-0.25924,0.2595 -0.61748,0.41999 -1.01267,0.41999c-0.39523,0 -0.75346,-0.16049 -1.01267,-0.41999c-0.2595,-0.25921 -0.41998,-0.61744 -0.41998,-1.01267c0,-0.39523 0.16048,-0.75342 0.41998,-1.01266c0.25921,-0.25947 0.61744,-0.41999 1.01267,-0.41999z" fill="#603813"/></g><g stroke="none" stroke-width="0.65" stroke-linecap="butt" stroke-linejoin="miter"><path d="M268.23793,167.97797v0c0,-1.12439 0.91142,-2.03634 2.03634,-2.03683c1.12417,0 2.03562,0.91244 2.03562,2.03683c0,1.12367 -0.91195,2.03487 -2.03562,2.03487c-1.12492,0 -2.03634,-0.91119 -2.03634,-2.03487z" fill="#ffffff"/><path d="M269.11513,167.92273v0c0,-0.79095 0.64095,-1.43265 1.43239,-1.43265c0.79092,0 1.43261,0.64196 1.43261,1.43265c0,0.79171 -0.6417,1.43213 -1.43261,1.43213c-0.79145,0 -1.43239,-0.64095 -1.43239,-1.43213z" fill="#603813"/></g><g stroke-linejoin="miter"><path d="M249.99541,194.73896l0.5,-33.9l-0.3,20.2l13.7,-0.4v14.1" data-paper-data="{&quot;index&quot;:null}" fill="none" stroke="#8d6547" stroke-width="2.5" stroke-linecap="round"/><path d="M258.22875,178.67229c3.36893,0 6.1,0.29102 6.1,0.65c0,0.35898 -2.73107,0.65 -6.1,0.65c-3.36893,0 -6.1,-0.29102 -6.1,-0.65c0,-0.35898 2.73107,-0.65 6.1,-0.65z" data-paper-data="{&quot;index&quot;:null}" fill="#4c4c4c" stroke="#666666" stroke-width="2" stroke-linecap="butt"/></g><g fill="none" stroke-linecap="round" stroke-linejoin="miter"><path d="M276.51421,171.70496l-3.3855,1.36366l-1.3632,-1.03326" stroke="#66c450" stroke-width="2"/><path d="M278.03169,171.30489l-0.3948,1.67492l-4.00717,-1.17141" stroke="#c46e24" stroke-width="2"/><path d="M278.43179,172.19683l-7.81817,0.79458" stroke="#ad4747" stroke-width="2"/><path d="M279.57071,172.10196c0,0 0.43472,0.88319 -0.49238,0.9728c-3.35746,0.32452 -8.61896,0.64626 -8.61896,0.64626" stroke="#ad7e47" stroke-width="2.5"/></g><path d="M269.0309,173.2706c0,1.02855 -0.70747,1.86236 -1.58018,1.86236c-0.87271,0 -1.58018,-0.83381 -1.58018,-1.86236c0,-1.02855 0.70747,-1.86236 1.58018,-1.86236c0.87271,0 1.58018,0.83381 1.58018,1.86236z" fill="none" stroke="#603813" stroke-width="0.65" stroke-linecap="butt" stroke-linejoin="miter"/><path d="M266.71133,174.18113c-0.00273,0.49507 -0.24651,0.93321 -0.70577,1.26877c-1.12328,0.82014 -3.83466,1.23235 -6.17699,0.49843c-1.59961,-0.50117 -5.4281,-3.53907 -5.60168,-4.57169c-0.01421,-0.08531 0.00145,-0.22168 0.03648,-0.24766c0.09729,-0.1681 0.33988,-0.30693 0.64053,-0.3373c0.83438,-0.08485 2.15265,0.13861 3.47244,0.47407c1.02794,0.25944 2.19038,0.55495 3.40394,0.7277l1.11784,0.15547c2.73861,0.36691 3.8207,0.76747 3.81322,2.0322v0z" fill="#ffc93e" stroke="#603813" stroke-width="0.65" stroke-linecap="butt" stroke-linejoin="miter"/></g></g></svg>