<svg version="1.1" xmlns="http://www.w3.org/2000/svg" xmlns:xlink="http://www.w3.org/1999/xlink" width="356.11802" height="205.70735" viewBox="0,0,356.11802,205.70735"><defs><linearGradient x1="69.71645" y1="169.97048" x2="69.71645" y2="181.61202" gradientUnits="userSpaceOnUse" id="color-1"><stop offset="0" stop-color="#62e755"/><stop offset="1" stop-color="#306d20"/></linearGradient><linearGradient x1="69.71645" y1="169.97048" x2="69.71645" y2="181.61202" gradientUnits="userSpaceOnUse" id="color-2"><stop offset="0" stop-color="#62e755"/><stop offset="1" stop-color="#306d20"/></linearGradient><linearGradient x1="87.13928" y1="169.97048" x2="87.13928" y2="181.61202" gradientUnits="userSpaceOnUse" id="color-3"><stop offset="0" stop-color="#62e755"/><stop offset="1" stop-color="#306d20"/></linearGradient><linearGradient x1="87.13928" y1="169.97048" x2="87.13928" y2="181.61202" gradientUnits="userSpaceOnUse" id="color-4"><stop offset="0" stop-color="#62e755"/><stop offset="1" stop-color="#306d20"/></linearGradient></defs><g transform="translate(-56.60254,-63.20686)"><g data-paper-data="{&quot;isPaintingLayer&quot;:true}" stroke-miterlimit="10" stroke-dasharray="" stroke-dashoffset="0" style="mix-blend-mode: normal"><path d="M56.60254,96.06167c0,-3.40283 2.76718,-6.16767 6.16766,-6.16767h99.69242c3.40045,0 6.16644,2.76484 6.16644,6.16767v3.56651c0,3.3993 -2.76596,6.16647 -6.16644,6.16647h-99.6936c-3.40045,0 -6.16646,-2.76721 -6.16646,-6.16647v-3.56651z" data-paper-data="{&quot;index&quot;:null}" fill-opacity="0.25098" fill="#6d6773" fill-rule="nonzero" stroke="none" stroke-width="1" stroke-linecap="butt" stroke-linejoin="miter"/><path d="M56.60254,115.5484c0,-3.40283 2.76718,-6.16767 6.16766,-6.16767h99.69242c3.40045,0 6.16644,2.76484 6.16644,6.16767v3.56651c0,3.3993 -2.76596,6.16647 -6.16644,6.16647h-99.6936c-3.40045,0 -6.16646,-2.76721 -6.16646,-6.16647v-3.56651z" data-paper-data="{&quot;index&quot;:null}" fill-opacity="0.25098" fill="#6d6773" fill-rule="nonzero" stroke="none" stroke-width="1" stroke-linecap="butt" stroke-linejoin="miter"/><path d="M56.60254,135.03513c0,-3.40283 2.76718,-6.16767 6.16766,-6.16767h99.69242c3.40045,0 6.16644,2.76484 6.16644,6.16767v3.56651c0,3.3993 -2.76596,6.16647 -6.16644,6.16647h-99.6936c-3.40045,0 -6.16646,-2.76721 -6.16646,-6.16647v-3.56651z" data-paper-data="{&quot;index&quot;:null}" fill-opacity="0.25098" fill="#6d6773" fill-rule="nonzero" stroke="none" stroke-width="1" stroke-linecap="butt" stroke-linejoin="miter"/><path d="M56.60254,154.52185c0,-3.40283 2.76718,-6.16767 6.16766,-6.16767h99.69242c3.40045,0 6.16644,2.76484 6.16644,6.16767v3.56651c0,3.3993 -2.76596,6.16647 -6.16644,6.16647h-99.6936c-3.40045,0 -6.16646,-2.76721 -6.16646,-6.16647v-3.56651z" data-paper-data="{&quot;index&quot;:null}" fill-opacity="0.25098" fill="#6d6773" fill-rule="nonzero" stroke="none" stroke-width="1" stroke-linecap="butt" stroke-linejoin="miter"/><path d="M56.60254,174.00859c0,-3.40283 2.76718,-6.16767 6.16766,-6.16767h99.69242c3.40045,0 6.16644,2.76484 6.16644,6.16767v3.56651c0,3.3993 -2.76596,6.16647 -6.16644,6.16647h-99.6936c-3.40045,0 -6.16646,-2.76721 -6.16646,-6.16647v-3.56651z" data-paper-data="{&quot;index&quot;:null}" fill-opacity="0.25098" fill="#6d6773" fill-rule="nonzero" stroke="none" stroke-width="1" stroke-linecap="butt" stroke-linejoin="miter"/><path d="M56.60254,193.49532c0,-3.40283 2.76718,-6.16767 6.16766,-6.16767h99.69242c3.40045,0 6.16644,2.76484 6.16644,6.16767v3.56651c0,3.3993 -2.76596,6.16647 -6.16644,6.16647h-99.6936c-3.40045,0 -6.16646,-2.76721 -6.16646,-6.16647v-3.56651z" data-paper-data="{&quot;index&quot;:null}" fill-opacity="0.25098" fill="#6d6773" fill-rule="nonzero" stroke="none" stroke-width="1" stroke-linecap="butt" stroke-linejoin="miter"/><path d="M56.60254,212.98205c0,-3.40283 2.76718,-6.16767 6.16766,-6.16767h99.69242c3.40045,0 6.16644,2.76484 6.16644,6.16767v3.56651c0,3.3993 -2.76596,6.16647 -6.16644,6.16647h-99.6936c-3.40045,0 -6.16646,-2.76721 -6.16646,-6.16647v-3.56651z" data-paper-data="{&quot;index&quot;:null}" fill-opacity="0.25098" fill="#6d6773" fill-rule="nonzero" stroke="none" stroke-width="1" stroke-linecap="butt" stroke-linejoin="miter"/><g fill-rule="nonzero" stroke-linejoin="miter"><path d="M109.32686,262.40702c0,3.40283 -2.76718,6.16767 -6.16766,6.16767h-27.51661c-3.40045,0 -6.16644,-2.76484 -6.16644,-6.16767v-8.86051c0,-3.39931 2.76596,-6.16647 6.16644,-6.16647h27.51778c3.40045,0 6.16646,2.76721 6.16646,6.16647v8.86051z" data-paper-data="{&quot;index&quot;:null}" fill="#b9a3cc" stroke="none" stroke-width="1" stroke-linecap="butt"/><path d="M92.84066,264.22977l-6.87831,-6.25399l6.87831,-6.2508" data-paper-data="{&quot;index&quot;:null}" fill="none" stroke="#ffffff" stroke-width="3.5" stroke-linecap="round"/></g><text transform="translate(61.95707,76.67454) scale(0.27096,0.27096)" font-size="40" xml:space="preserve" fill="#ffffff" fill-rule="nonzero" stroke="none" stroke-width="1" stroke-linecap="butt" stroke-linejoin="miter" stroke-miterlimit="10" stroke-dasharray="" stroke-dashoffset="0" font-family="Sans Serif" font-weight="normal" text-anchor="start" style="mix-blend-mode: normal"><tspan x="0" dy="0">6</tspan></text><text transform="translate(85.22492,77.08773) scale(0.31764,0.31764)" font-size="40" xml:space="preserve" fill="#ffffff" fill-rule="nonzero" stroke="none" stroke-width="1" stroke-linecap="butt" stroke-linejoin="miter" stroke-miterlimit="10" stroke-dasharray="" stroke-dashoffset="0" font-family="Sans Serif" font-weight="normal" text-anchor="start" style="mix-blend-mode: normal"><tspan x="0" dy="0">絵文字</tspan></text><path d="M56.60254,232.46878c0,-3.40283 2.76718,-6.16767 6.16766,-6.16767h99.69242c3.40045,0 6.16644,2.76484 6.16644,6.16767v3.56651c0,3.3993 -2.76596,6.16647 -6.16644,6.16647h-99.6936c-3.40045,0 -6.16646,-2.76721 -6.16646,-6.16647v-3.56651z" data-paper-data="{&quot;index&quot;:null}" fill-opacity="0.25098" fill="#6d6773" fill-rule="nonzero" stroke="none" stroke-width="1" stroke-linecap="butt" stroke-linejoin="miter"/><text transform="translate(60.80312,120.99582) scale(0.31764,0.31764)" font-size="40" xml:space="preserve" fill="#ffffff" fill-rule="nonzero" stroke="none" stroke-width="1" stroke-linecap="butt" stroke-linejoin="miter" stroke-miterlimit="10" stroke-dasharray="" stroke-dashoffset="0" font-family="Sans Serif" font-weight="normal" text-anchor="start" style="mix-blend-mode: normal"><tspan x="0" dy="0">⛄⛄</tspan></text><text transform="translate(60.80312,237.9162) scale(0.31764,0.31764)" font-size="40" xml:space="preserve" fill="#ffffff" fill-rule="nonzero" stroke="none" stroke-width="1" stroke-linecap="butt" stroke-linejoin="miter" stroke-miterlimit="10" stroke-dasharray="" stroke-dashoffset="0" font-family="Sans Serif" font-weight="normal" text-anchor="start" style="mix-blend-mode: normal"><tspan x="0" dy="0">🫨🫨(iOS16.4のやつ)</tspan></text><path d="M372.86988,262.74654v-8.86051c0,-3.39926 2.76601,-6.16647 6.16646,-6.16647h27.51778c3.40048,0 6.16644,2.76716 6.16644,6.16647v8.86051c0,3.40283 -2.76599,6.16767 -6.16644,6.16767h-27.51661c-3.40048,0 -6.16766,-2.76484 -6.16766,-6.16767z" fill-opacity="0.00392" fill="#b9a3cc" fill-rule="nonzero" stroke="none" stroke-width="1" stroke-linecap="butt" stroke-linejoin="miter"/><g fill-rule="evenodd" stroke-width="0.5"><path d="M73.20258,90.80054c0.07098,-0.04732 0.18996,-0.02366 0.21362,0.07098l0.6172,2.5405c0,0 1.51971,1.11612 1.97062,1.89964c0.75986,1.30609 0.78351,2.37489 0.78351,2.37489c0,0 1.68602,0.49892 1.97062,1.85233c0.2846,1.35341 -0.75986,3.91826 -5.22436,4.79641c-4.4645,0.87815 -8.05016,-0.33261 -9.73617,-3.03942c-1.68601,-2.70681 0.97487,-5.9362 0.83222,-5.74623l-0.49822,-4.25018c-0.02366,-0.09533 0.09533,-0.16631 0.18996,-0.11899l2.87312,1.87598c0,0 1.0688,-0.40359 2.18493,-0.4509c0.66522,-0.04731 1.23511,0 1.78065,0.09533z" fill="#ffab19" stroke="#001026" stroke-linecap="butt" stroke-linejoin="miter"/><g fill="#ffffff" stroke-linecap="butt"><path d="M76.71656,97.78189c0,0 1.63869,0.42724 1.92329,1.78065c0.2846,1.3534 -0.85519,3.79928 -5.27167,4.65447c-5.74623,1.1871 -8.4774,-2.23225 -6.88671,-4.7491c1.59068,-2.5405 4.32185,-0.37993 6.31613,-0.52257c1.70968,-0.11899 1.89964,-1.61505 3.91827,-1.16344z" stroke="none" stroke-linejoin="miter"/><path d="M69.237,100.32239c0,-0.09533 0.09533,-0.1663 0.18997,-0.14264c0.45091,0.1663 1.73333,0.54623 3.15841,0.64086c1.28243,0.07098 2.04228,0 2.39855,-0.07097c0.11899,-0.02366 0.21362,0.09533 0.16631,0.21362c-0.21362,0.64087 -1.11612,2.42221 -3.60931,2.27957c-2.16058,-0.23728 -2.37489,-1.757 -2.30322,-2.92044z" stroke="#001026" stroke-linejoin="round"/></g><path d="M81.08643,98.04283c-1.11612,0.9025 -2.8258,0.92616 -2.8258,0.92616M80.77747,100.70232c-1.49605,0.11899 -2.42221,-0.33261 -2.42221,-0.33261" fill="none" stroke="#001026" stroke-linecap="round" stroke-linejoin="round"/><path d="M72.70366,98.32812c0.49891,0 1.02079,0.04732 1.04515,0.21362c0.02366,0.33261 -0.33261,0.99713 -0.71254,1.02079c-0.42724,0.04731 -1.42507,-0.54623 -1.42507,-0.92616c-0.02366,-0.28529 0.61721,-0.30895 1.09247,-0.30895z" fill="#001026" stroke="#001026" stroke-linecap="butt" stroke-linejoin="round"/><path d="M62.01768,97.97185c0,0 2.04228,0.66522 2.87311,1.40072M64.96246,100.2041c-1.0208,0.40359 -2.77848,0.14265 -2.77848,0.14265" fill="none" stroke="#001026" stroke-linecap="round" stroke-linejoin="round"/><path d="M75.5058,95.54964c0.68888,1.0688 0.71254,2.27956 0.04732,2.70681c-0.66522,0.42724 -1.75699,-0.07098 -2.46953,-1.13979c-0.68888,-1.0688 -0.71254,-2.27956 -0.04732,-2.70681c0.66522,-0.4509 1.78065,0.07098 2.46953,1.13979z" fill="#ffffff" stroke="#001026" stroke-linecap="butt" stroke-linejoin="round"/><path d="M75.41047,96.90305c0,0.26094 -0.18997,0.47526 -0.42724,0.47526c-0.23728,0 -0.42724,-0.21362 -0.42724,-0.47526c0,-0.26163 0.18997,-0.47526 0.42724,-0.47526c0.23728,0 0.42724,0.21363 0.42724,0.47526" fill="#001026" stroke="none" stroke-linecap="butt" stroke-linejoin="miter"/><path d="M69.61692,96.21486c0.71254,1.04515 0.66523,2.32688 0.02366,2.77848c-0.78351,0.45091 -1.82867,0.11899 -2.54051,-0.92616c-0.73619,-1.04515 -0.78351,-2.39855 -0.04731,-2.92043c0.73619,-0.54623 1.85232,0.02366 2.56486,1.0688z" fill="#ffffff" stroke="#001026" stroke-linecap="butt" stroke-linejoin="round"/><path d="M69.47428,97.59193c0,0.26094 -0.18997,0.47526 -0.42724,0.47526c-0.23728,0 -0.42724,-0.21362 -0.42724,-0.47526c0,-0.26163 0.18997,-0.47526 0.42724,-0.47526c0.24518,0.02154 0.43184,0.22919 0.42724,0.47526" fill="#001026" stroke="none" stroke-linecap="butt" stroke-linejoin="miter"/></g><g fill-rule="evenodd" stroke-width="0.5"><path d="M93.19549,90.80054c0.07098,-0.04731 0.18997,-0.02365 0.21363,0.07098l0.6172,2.5405c0,0 1.51971,1.11612 1.97061,1.89963c0.75986,1.30609 0.78352,2.3749 0.78352,2.3749c0,0 1.68601,0.49892 1.97061,1.85233c0.2846,1.35341 -0.75986,3.91826 -5.22436,4.79641c-4.4645,0.87815 -8.05016,-0.33261 -9.73617,-3.03942c-1.68601,-2.70681 0.97487,-5.9362 0.83223,-5.74623l-0.49822,-4.25018c-0.02366,-0.09533 0.09533,-0.1663 0.18997,-0.11899l2.87311,1.87598c0,0 1.0688,-0.40359 2.18493,-0.4509c0.66522,-0.04731 1.23512,0 1.78065,0.09533z" fill="#ffab19" stroke="#001026" stroke-linecap="butt" stroke-linejoin="miter"/><g fill="#ffffff" stroke-linecap="butt"><path d="M96.70947,97.78189c0,0 1.63869,0.42724 1.92329,1.78065c0.2846,1.35341 -0.85519,3.79928 -5.27167,4.65446c-5.74623,1.1871 -8.47739,-2.23225 -6.88671,-4.74909c1.59068,-2.5405 4.32185,-0.37993 6.31613,-0.52258c1.70968,-0.11899 1.89964,-1.61505 3.91826,-1.16344z" stroke="none" stroke-linejoin="miter"/><path d="M89.22991,100.32239c0,-0.09533 0.09533,-0.1663 0.18997,-0.14264c0.45091,0.1663 1.73333,0.54623 3.15841,0.64086c1.28243,0.07098 2.04228,0 2.39855,-0.07098c0.11899,-0.02366 0.21362,0.09534 0.16631,0.21363c-0.21362,0.64086 -1.11612,2.42221 -3.60931,2.27956c-2.16058,-0.23728 -2.37489,-1.75699 -2.30322,-2.92043z" stroke="#001026" stroke-linejoin="round"/></g><path d="M101.07934,98.04283c-1.11612,0.9025 -2.8258,0.92616 -2.8258,0.92616M100.77038,100.70232c-1.49605,0.11899 -2.42221,-0.33261 -2.42221,-0.33261" fill="none" stroke="#001026" stroke-linecap="round" stroke-linejoin="round"/><path d="M92.69657,98.32812c0.49891,0 1.0208,0.04732 1.04515,0.21362c0.02366,0.33261 -0.33261,0.99713 -0.71254,1.02079c-0.42724,0.04731 -1.42508,-0.54623 -1.42508,-0.92616c-0.02366,-0.28529 0.61721,-0.30895 1.09247,-0.30895z" fill="#001026" stroke="#001026" stroke-linecap="butt" stroke-linejoin="round"/><path d="M82.01059,97.97186c0,0 2.04228,0.66522 2.87311,1.40072M84.95537,100.2041c-1.02079,0.40358 -2.77848,0.14265 -2.77848,0.14265" fill="none" stroke="#001026" stroke-linecap="round" stroke-linejoin="round"/><path d="M95.49871,95.54964c0.68888,1.0688 0.71254,2.27957 0.04732,2.70681c-0.66522,0.42724 -1.75699,-0.07098 -2.46953,-1.13979c-0.68888,-1.0688 -0.71254,-2.27956 -0.04732,-2.70681c0.66522,-0.45091 1.78065,0.07098 2.46953,1.13978z" fill="#ffffff" stroke="#001026" stroke-linecap="butt" stroke-linejoin="round"/><path d="M95.40338,96.90305c0,0.26094 -0.18997,0.47526 -0.42724,0.47526c-0.23728,0 -0.42724,-0.21362 -0.42724,-0.47526c0,-0.26164 0.18997,-0.47526 0.42724,-0.47526c0.23728,0 0.42724,0.21362 0.42724,0.47526" fill="#001026" stroke="none" stroke-linecap="butt" stroke-linejoin="miter"/><path d="M89.60983,96.21487c0.71254,1.04515 0.66523,2.32688 0.02366,2.77848c-0.78351,0.45091 -1.82867,0.11899 -2.5405,-0.92616c-0.73619,-1.04515 -0.78351,-2.39855 -0.04731,-2.92043c0.73619,-0.54623 1.85232,0.02365 2.56486,1.0688z" fill="#ffffff" stroke="#001026" stroke-linecap="butt" stroke-linejoin="round"/><path d="M89.46719,97.59193c0,0.26094 -0.18997,0.47526 -0.42724,0.47526c-0.23728,0 -0.42725,-0.21362 -0.42725,-0.47526c0,-0.26164 0.18997,-0.47526 0.42725,-0.47526c0.24518,0.02154 0.43184,0.22919 0.42724,0.47526" fill="#001026" stroke="none" stroke-linecap="butt" stroke-linejoin="miter"/></g><g stroke-width="0.5"><path d="M73.34534,129.67224c0.07098,-0.04732 0.18996,-0.02366 0.21362,0.07098l0.6172,2.5405c0,0 1.51971,1.11612 1.97062,1.89964c0.75986,1.30609 0.78351,2.37489 0.78351,2.37489c0,0 1.68602,0.49892 1.97062,1.85233c0.2846,1.35341 -0.75986,3.91826 -5.22436,4.79641c-4.4645,0.87815 -8.05016,-0.33261 -9.73617,-3.03942c-1.68601,-2.70681 0.97487,-5.9362 0.83222,-5.74623l-0.49822,-4.25018c-0.02366,-0.09533 0.09533,-0.16631 0.18996,-0.11899l2.87312,1.87598c0,0 1.0688,-0.40359 2.18493,-0.4509c0.66522,-0.04731 1.23511,0 1.78065,0.09533z" fill="#ffab19" fill-rule="evenodd" stroke="#001026" stroke-linecap="butt" stroke-linejoin="miter"/><g fill="#ffffff" fill-rule="evenodd" stroke="none" stroke-linecap="butt" stroke-linejoin="miter"><path d="M76.85932,136.65359c0,0 1.63869,0.42724 1.92329,1.78065c0.2846,1.3534 -0.85519,3.79928 -5.27167,4.65447c-5.74623,1.1871 -8.4774,-2.23225 -6.88671,-4.7491c1.59068,-2.5405 4.32185,-0.37993 6.31613,-0.52257c1.70968,-0.11899 1.89964,-1.61505 3.91827,-1.16344z"/></g><path d="M81.22919,136.91453c-1.11612,0.9025 -2.8258,0.92616 -2.8258,0.92616M80.92023,139.57402c-1.49605,0.11899 -2.42221,-0.33261 -2.42221,-0.33261" fill="none" fill-rule="evenodd" stroke="#001026" stroke-linecap="round" stroke-linejoin="round"/><path d="M72.84642,137.19982c0.49891,0 1.02079,0.04732 1.04515,0.21362c0.02366,0.33261 -0.33261,0.99713 -0.71254,1.02079c-0.42724,0.04731 -1.42507,-0.54623 -1.42507,-0.92616c-0.02366,-0.28529 0.61721,-0.30895 1.09247,-0.30895z" fill="#001026" fill-rule="evenodd" stroke="#001026" stroke-linecap="butt" stroke-linejoin="round"/><path d="M62.16044,136.84355c0,0 2.04228,0.66522 2.87311,1.40072M65.10522,139.0758c-1.0208,0.40359 -2.77848,0.14265 -2.77848,0.14265" fill="none" fill-rule="evenodd" stroke="#001026" stroke-linecap="round" stroke-linejoin="round"/><path d="M75.64856,134.42134c0.68888,1.0688 0.71254,2.27956 0.04732,2.70681c-0.66522,0.42724 -1.75699,-0.07098 -2.46953,-1.13979c-0.68888,-1.0688 -0.71254,-2.27956 -0.04732,-2.70681c0.66522,-0.4509 1.78065,0.07098 2.46953,1.13979z" fill="#ffffff" fill-rule="evenodd" stroke="#001026" stroke-linecap="butt" stroke-linejoin="round"/><path d="M75.55323,135.77475c0,0.26094 -0.18997,0.47526 -0.42724,0.47526c-0.23728,0 -0.42724,-0.21362 -0.42724,-0.47526c0,-0.26163 0.18997,-0.47526 0.42724,-0.47526c0.23728,0 0.42724,0.21363 0.42724,0.47526" fill="#001026" fill-rule="evenodd" stroke="none" stroke-linecap="butt" stroke-linejoin="miter"/><path d="M69.75968,135.08656c0.71254,1.04515 0.66523,2.32688 0.02366,2.77848c-0.78351,0.45091 -1.82867,0.11899 -2.54051,-0.92616c-0.73619,-1.04515 -0.78351,-2.39855 -0.04731,-2.92043c0.73619,-0.54623 1.85232,0.02366 2.56486,1.0688z" fill="#ffffff" fill-rule="evenodd" stroke="#001026" stroke-linecap="butt" stroke-linejoin="round"/><path d="M69.61704,136.46363c0,0.26094 -0.18997,0.47526 -0.42724,0.47526c-0.23728,0 -0.42724,-0.21362 -0.42724,-0.47526c0,-0.26163 0.18997,-0.47526 0.42724,-0.47526c0.24518,0.02154 0.43184,0.22919 0.42724,0.47526" fill="#001026" fill-rule="evenodd" stroke="none" stroke-linecap="butt" stroke-linejoin="miter"/><path d="M71.47964,140.67243c0,0 0.28947,-0.74991 0.67174,-0.9291c0.42437,-0.19891 1.76138,-0.21142 1.76138,-0.21142" fill="none" fill-rule="nonzero" stroke="#001026" stroke-linecap="round" stroke-linejoin="miter"/><path d="M67.10455,132.81768h1.38226" fill="none" fill-rule="nonzero" stroke="#001026" stroke-linecap="round" stroke-linejoin="miter"/><path d="M71.88181,133.93317c0,0 -0.09404,-0.56066 0.04096,-0.81565c0.1536,-0.29013 0.83204,-0.83335 0.83204,-0.83335" fill="none" fill-rule="nonzero" stroke="#001026" stroke-linecap="round" stroke-linejoin="miter"/><path d="M78.88729,140.42011c0.99115,0.30166 1.81551,1.67787 1.56418,2.68322c-0.05055,0.20219 -0.22006,0.39512 -0.32156,0.58238c-0.63782,1.17669 -2.33376,1.07187 -3.44873,1.06972c-0.47,-0.0009 -0.69464,0.06058 -1.0599,-0.13422c-0.24081,-0.12843 -0.2005,-0.57149 -0.18243,-0.77155c0.00976,-0.10798 0.23128,-0.25494 0.13155,-0.29747c-0.22533,-0.0961 -0.38474,-0.20453 -0.40692,-0.46745c-0.01443,-0.1711 0.02464,-0.31472 0.0929,-0.46763c0.00429,-0.00961 0.01548,-0.03116 0.00495,-0.03117c-0.12447,-0.00009 -0.30936,-0.11692 -0.35179,-0.21099c-0.09118,-0.20213 -0.03933,-0.41271 -0.03933,-0.6132c0,-0.08364 0.14353,-0.21654 0.06405,-0.2426c-0.46942,-0.15388 -2.37463,-0.06285 -2.08059,-0.88618c0.09355,-0.26194 1.6185,-0.26884 1.84868,-0.27451c0.59544,-0.01465 1.18713,-0.22022 1.78608,-0.24763c0.35286,-0.01615 0.75056,-0.03283 0.7556,-0.0612c0.06377,-0.35885 -0.02408,-0.74705 0.03059,-1.11072c0.07773,-0.51707 0.76419,-1.10427 1.21606,-0.60327c0.24283,0.26923 0.14866,0.69859 0.15183,1.01632c0.00233,0.23391 0.18467,0.6163 0.24477,0.8567z" fill="#ffab19" fill-rule="nonzero" stroke="#001026" stroke-linecap="butt" stroke-linejoin="miter"/></g><g stroke-width="0.5"><path d="M92.41409,129.67224c0.07098,-0.04732 0.18996,-0.02366 0.21362,0.07098l0.6172,2.5405c0,0 1.51971,1.11612 1.97062,1.89964c0.75986,1.30609 0.78351,2.37489 0.78351,2.37489c0,0 1.68602,0.49892 1.97062,1.85233c0.2846,1.35341 -0.75986,3.91826 -5.22436,4.79641c-4.4645,0.87815 -8.05016,-0.33261 -9.73617,-3.03942c-1.68601,-2.70681 0.97487,-5.9362 0.83222,-5.74623l-0.49822,-4.25018c-0.02366,-0.09533 0.09533,-0.16631 0.18996,-0.11899l2.87312,1.87598c0,0 1.0688,-0.40359 2.18493,-0.4509c0.66522,-0.04731 1.23511,0 1.78065,0.09533z" fill="#ffab19" fill-rule="evenodd" stroke="#001026" stroke-linecap="butt" stroke-linejoin="miter"/><g fill="#ffffff" fill-rule="evenodd" stroke="none" stroke-linecap="butt" stroke-linejoin="miter"><path d="M95.92807,136.65359c0,0 1.63869,0.42724 1.92329,1.78065c0.2846,1.3534 -0.85519,3.79928 -5.27167,4.65447c-5.74623,1.1871 -8.4774,-2.23225 -6.88671,-4.7491c1.59068,-2.5405 4.32185,-0.37993 6.31613,-0.52257c1.70968,-0.11899 1.89964,-1.61505 3.91827,-1.16344z"/></g><path d="M100.29794,136.91453c-1.11612,0.9025 -2.8258,0.92616 -2.8258,0.92616M99.98898,139.57402c-1.49605,0.11899 -2.42221,-0.33261 -2.42221,-0.33261" fill="none" fill-rule="evenodd" stroke="#001026" stroke-linecap="round" stroke-linejoin="round"/><path d="M91.91517,137.19982c0.49891,0 1.02079,0.04732 1.04515,0.21362c0.02366,0.33261 -0.33261,0.99713 -0.71254,1.02079c-0.42724,0.04731 -1.42507,-0.54623 -1.42507,-0.92616c-0.02366,-0.28529 0.61721,-0.30895 1.09247,-0.30895z" fill="#001026" fill-rule="evenodd" stroke="#001026" stroke-linecap="butt" stroke-linejoin="round"/><path d="M81.22919,136.84355c0,0 2.04228,0.66522 2.87311,1.40072M84.17397,139.0758c-1.0208,0.40359 -2.77848,0.14265 -2.77848,0.14265" fill="none" fill-rule="evenodd" stroke="#001026" stroke-linecap="round" stroke-linejoin="round"/><path d="M94.71731,134.42134c0.68888,1.0688 0.71254,2.27956 0.04732,2.70681c-0.66522,0.42724 -1.75699,-0.07098 -2.46953,-1.13979c-0.68888,-1.0688 -0.71254,-2.27956 -0.04732,-2.70681c0.66522,-0.4509 1.78065,0.07098 2.46953,1.13979z" fill="#ffffff" fill-rule="evenodd" stroke="#001026" stroke-linecap="butt" stroke-linejoin="round"/><path d="M94.62198,135.77475c0,0.26094 -0.18997,0.47526 -0.42724,0.47526c-0.23728,0 -0.42724,-0.21362 -0.42724,-0.47526c0,-0.26163 0.18997,-0.47526 0.42724,-0.47526c0.23728,0 0.42724,0.21363 0.42724,0.47526" fill="#001026" fill-rule="evenodd" stroke="none" stroke-linecap="butt" stroke-linejoin="miter"/><path d="M88.82843,135.08656c0.71254,1.04515 0.66523,2.32688 0.02366,2.77848c-0.78351,0.45091 -1.82867,0.11899 -2.54051,-0.92616c-0.73619,-1.04515 -0.78351,-2.39855 -0.04731,-2.92043c0.73619,-0.54623 1.85232,0.02366 2.56486,1.0688z" fill="#ffffff" fill-rule="evenodd" stroke="#001026" stroke-linecap="butt" stroke-linejoin="round"/><path d="M88.68579,136.46363c0,0.26094 -0.18997,0.47526 -0.42724,0.47526c-0.23728,0 -0.42724,-0.21362 -0.42724,-0.47526c0,-0.26163 0.18997,-0.47526 0.42724,-0.47526c0.24518,0.02154 0.43184,0.22919 0.42724,0.47526" fill="#001026" fill-rule="evenodd" stroke="none" stroke-linecap="butt" stroke-linejoin="miter"/><path d="M90.54839,140.67242c0,0 0.28947,-0.74991 0.67174,-0.9291c0.42437,-0.19891 1.76138,-0.21142 1.76138,-0.21142" fill="none" fill-rule="nonzero" stroke="#001026" stroke-linecap="round" stroke-linejoin="miter"/><path d="M86.1733,132.81767h1.38226" fill="none" fill-rule="nonzero" stroke="#001026" stroke-linecap="round" stroke-linejoin="miter"/><path d="M90.95056,133.93317c0,0 -0.09404,-0.56066 0.04096,-0.81565c0.15359,-0.29013 0.83204,-0.83335 0.83204,-0.83335" fill="none" fill-rule="nonzero" stroke="#001026" stroke-linecap="round" stroke-linejoin="miter"/><path d="M97.95604,140.42011c0.99115,0.30166 1.81551,1.67787 1.56418,2.68322c-0.05055,0.20219 -0.22006,0.39512 -0.32156,0.58238c-0.63782,1.17669 -2.33376,1.07187 -3.44873,1.06972c-0.47,-0.0009 -0.69464,0.06058 -1.0599,-0.13422c-0.24081,-0.12843 -0.2005,-0.57149 -0.18243,-0.77155c0.00976,-0.10798 0.23128,-0.25494 0.13155,-0.29747c-0.22533,-0.0961 -0.38474,-0.20453 -0.40692,-0.46745c-0.01443,-0.1711 0.02464,-0.31472 0.0929,-0.46763c0.00429,-0.00961 0.01548,-0.03116 0.00495,-0.03117c-0.12447,-0.00009 -0.30936,-0.11692 -0.35179,-0.21099c-0.09118,-0.20213 -0.03933,-0.41271 -0.03933,-0.6132c0,-0.08364 0.14353,-0.21654 0.06405,-0.2426c-0.46942,-0.15388 -2.37463,-0.06285 -2.08059,-0.88618c0.09355,-0.26194 1.6185,-0.26884 1.84868,-0.27451c0.59544,-0.01465 1.18713,-0.22022 1.78608,-0.24763c0.35286,-0.01615 0.75056,-0.03283 0.7556,-0.0612c0.06377,-0.35885 -0.02408,-0.74705 0.03059,-1.11072c0.07773,-0.51707 0.76419,-1.10427 1.21606,-0.60327c0.24283,0.26923 0.14866,0.69859 0.15183,1.01632c0.00233,0.23391 0.18467,0.6163 0.24477,0.8567z" fill="#ffab19" fill-rule="nonzero" stroke="#001026" stroke-linecap="butt" stroke-linejoin="miter"/></g><path d="M62.86641,151.0709c0.19635,-0.3436 0.52556,-0.57461 0.92493,-0.72949c0.99037,-0.38405 2.41219,-0.2999 3.30926,-0.30341c0.74869,-0.00293 6.45342,-0.63035 6.79808,0.69749c0.27755,1.06927 -3.37452,4.41258 -3.93171,2.74102c-0.2576,-0.7728 2.4053,-1.80804 1.59201,-1.85408c-0.60752,-0.03439 -1.21667,-0.03043 -1.82514,-0.03595c-1.07594,-0.00977 -6.10409,0.82027 -6.49808,0.13079z" fill="#ffffff" fill-rule="nonzero" stroke="none" stroke-width="0.5" stroke-linecap="butt" stroke-linejoin="miter"/><path d="M63.85684,159.5076c1.05274,2.07805 5.59453,-0.58546 6.93292,0.75293c1.63283,1.63283 -1.67768,1.36898 -2.35804,1.34765c-1.56167,-0.04897 -4.48401,0.42036 -5.67196,-1.04174c-0.6706,-0.82536 -0.97705,-4.34871 0.43935,-4.74708c0.13604,-0.1382 0.32528,-0.22388 0.53452,-0.22388c0.41421,0 0.75,0.33578 0.75,0.75c0,0.17942 -0.063,0.34412 -0.16809,0.47319c-0.18039,0.75748 -1.04331,1.53495 -0.45871,2.68893z" fill="#ffffff" fill-rule="nonzero" stroke="none" stroke-width="0.5" stroke-linecap="butt" stroke-linejoin="miter"/><path d="M77.74434,156.32905c0.08576,0.88456 2.04272,-1.57355 2.53289,-0.83226c0.84877,1.28358 -0.38091,4.29027 1.84604,4.61838c0.45684,0.06731 5.04692,-2.96288 4.73031,-0.86466c-0.01229,0.08142 -0.02117,0.25903 -0.06483,0.32415c-1.09289,1.63049 -5.19772,3.2083 -6.56451,1.14912c-0.67338,-1.0145 0.00085,-3.24525 -1.19938,-3.45042c-1.12259,-0.1919 -2.29932,2.99079 -3.53744,2.2044c-1.78301,-1.13249 3.08826,-7.05002 3.57739,-8.29174c0.00163,-0.00415 0.00325,-0.00841 0.00485,-0.01277c0.01096,-0.06173 0.02948,-0.12085 0.05456,-0.17637c0.11762,-0.26038 0.37957,-0.44156 0.68385,-0.44156c0.41421,0 0.75,0.33578 0.75,0.75c0,0.11458 -0.02569,0.22314 -0.07162,0.32027c0.08657,1.531 -2.88531,3.22638 -2.7421,4.70345z" fill="#ffffff" fill-rule="nonzero" stroke="none" stroke-width="0.5" stroke-linecap="butt" stroke-linejoin="miter"/><path d="M88.41019,150.90696c0.18702,0.15125 0.353,0.64011 0.48535,1.3218c-0.13081,0.11114 -0.30025,0.1782 -0.48535,0.1782c-0.41421,0 -0.75,-0.33578 -0.75,-0.75c0,-0.41422 0.33579,-0.75 0.75,-0.75c0.41421,0 0.75,0.33578 0.75,0.75c0,0.22911 -0.10273,0.43423 -0.26465,0.5718c0.55065,2.83611 0.51919,9.01003 -1.00176,8.09747c-1.45328,-0.87196 -0.71774,-7.12829 -0.28527,-8.61338c0.04111,-0.14116 0.14462,-0.58854 0.30907,-0.62143z" fill="#ffffff" fill-rule="nonzero" stroke="none" stroke-width="0.5" stroke-linecap="butt" stroke-linejoin="miter"/><path d="M94.89347,153.46188c-1.12353,-0.02235 -2.1754,0.19852 -3.24374,0.23306c-0.01505,0.0009 -0.03021,0.00136 -0.04548,0.00136c-0.41421,0 -0.75,-0.33578 -0.75,-0.75c0,-0.22341 0.09768,-0.424 0.25266,-0.56141c1.6221,-2.19477 9.04388,1.18156 3.78656,1.07698z" fill="#ffffff" fill-rule="nonzero" stroke="none" stroke-width="0.5" stroke-linecap="butt" stroke-linejoin="miter"/><path d="M92.47653,158.56776c1.00219,0.90911 2.66295,-0.04312 3.58132,0.50789c2.14416,1.2865 -1.18272,1.54028 -1.6405,1.53621c-1.17354,-0.0104 -5.91453,-2.5618 -3.13714,-4.14889c0.13047,-0.22106 0.37109,-0.36935 0.64636,-0.36935c0.41421,0 0.75,0.33578 0.75,0.75c0,0.22344 -0.09771,0.42406 -0.25273,0.56146c-0.15624,0.39813 -0.36127,0.78717 0.05268,1.16267z" fill="#ffffff" fill-rule="nonzero" stroke="none" stroke-width="0.5" stroke-linecap="butt" stroke-linejoin="miter"/><path d="M104.90139,149.91065c0.47061,0.30098 0.66542,0.65106 0.69508,1.03223c0.00987,0.12679 0.00146,0.25701 -0.02115,0.39001c4.70794,0.18057 10.03437,1.83906 2.59631,1.71874c-0.57762,-0.00934 -1.15548,-0.00999 -1.73309,0c-0.24538,0.00424 -0.89916,0.08197 -1.66981,0.1573c-0.41663,0.63441 -1.32859,1.60591 -0.74015,1.57022c0.98534,-0.05975 5.68845,-1.27383 5.81316,0.5114c0.11752,1.68229 -3.15849,7.70676 -5.52049,5.34476c-0.95624,-0.95624 3.28218,-2.21589 3.78095,-3.61216c0.12622,-0.35333 0.59543,-0.98101 0.23954,-1.09982c-1.56623,-0.52285 -5.39809,1.66054 -6.43796,0.48651c-0.27715,-0.31291 0.20229,-1.68616 0.80361,-3.06023c-0.81781,0.01633 -1.47915,-0.04647 -1.61513,-0.28443c-0.22106,-0.13046 -0.36935,-0.37109 -0.36935,-0.64636c0,-0.41422 0.33579,-0.75 0.75,-0.75c0.0848,0 0.16631,0.01407 0.24232,0.04001c0.52157,-0.18951 1.19228,-0.30195 1.94005,-0.35485c0.33737,-0.65985 0.59817,-1.11741 0.64095,-1.13648z" fill="#ffffff" fill-rule="nonzero" stroke="none" stroke-width="0.5" stroke-linecap="butt" stroke-linejoin="miter"/><path d="M113.63242,155.31562c-0.16751,1.11777 -0.11616,2.29219 0.0555,3.4051c1.15059,7.45951 -2.82341,0.1059 -1.07242,-5.35798c0.10859,-0.33885 0.64418,-2.77344 1.23522,-2.73268c0.09877,-0.04789 0.20963,-0.07473 0.32677,-0.07473c0.41421,0 0.75,0.33578 0.75,0.75c0,0.1969 -0.07588,0.37607 -0.19998,0.50988c-0.00906,1.05196 -0.89967,2.19637 -1.0951,3.50042z" fill="#ffffff" fill-rule="nonzero" stroke="none" stroke-width="0.5" stroke-linecap="butt" stroke-linejoin="miter"/><path d="M121.13431,149.54677c0.38192,0 0.69717,0.28547 0.744,0.65468l0.00691,0.00915l-0.00359,0.02228c0.00177,0.02106 0.00268,0.04237 0.00268,0.0639c0,0.11082 -0.02403,0.21602 -0.06717,0.31068l-0.04062,0.09478l-0.04031,0.24185l-0.03244,0.07462l-0.011,0.08062l-0.01734,0.04336l-0.0152,0.13676l-0.02672,0.32066l-0.00727,0.02135l0.00232,0.02244l-0.05385,0.3769l-0.05407,0.45961l-0.00527,0.01393c0.12381,-0.0012 0.24762,-0.00285 0.37143,-0.00501c3.15475,-0.05522 1.65292,0.90724 -0.62116,1.51688l-0.0285,0.15196l-0.00194,0.00422l0.00023,0.00465l-0.01917,0.09583l-0.02143,0.25712v1.06214l0.02345,0.23447l0.02265,0.20382l0.04636,0.20863l-0.00217,0.08257l0.02003,0.08013v0.25668l0.0129,0.10321l0.01305,0.002l0.04159,0.01747l0.0451,0.00117l0.99285,0.27579l0.00923,0.00524l0.0106,0.00056l0.34377,0.10577l0.50907,0.13396l0.06838,0.03757l0.07616,0.01692l0.88253,0.44127l0.09154,0.07846l0.10338,0.06203l0.10021,0.10021l0.1679,0.12592l0.20612,0.13117l0.03122,0.15608l0.01651,0.02033l-0.00479,0.03831l0.10529,0.52644l-0.19264,0.17236l-0.00161,0.01289l-0.02476,0.01071l-0.34427,0.30803l-0.31247,-0.02404l-0.01225,0.0053l-0.01814,-0.00763l-0.04255,-0.00328l-0.08273,-0.02758l-0.10171,-0.06472l-0.11112,-0.04678l-0.22063,-0.16548l-0.03404,-0.04189l-0.04629,-0.02778l-0.05183,-0.05183l-0.70423,-0.35211l-0.44891,-0.11813l-0.01388,-0.00763l-0.01582,-0.00085l-0.34865,-0.10727l-0.50059,-0.13906l0.02716,0.10866v0.80602l0.00467,0.00701l-0.00467,0.02103v0.0209l-0.04179,0.16718l-0.03345,0.15052l-0.01328,0.10627l-0.0722,0.18652l0.00404,0.05848l-0.04645,0.05109l-0.02493,0.06439l-0.03527,0.01469l-0.01908,0.03577l0.00553,0.04424l-0.08478,0.10434l-0.06327,0.11863l-0.04293,0.01207l-0.05278,0.06496l-0.11031,0.08274l-0.01964,0.00827l-0.01434,0.01577l-0.02094,0.01397l-0.03023,0.03023l-0.10338,0.06202l-0.09154,0.07847l-0.01139,0.00569l-0.00418,0.00731l-0.02089,0.00522l-0.01869,0.00935l-0.04771,0.0106l-0.03367,0.0202l-0.0257,-0.00701l-0.04185,0.0093l-0.04412,0.02206l-0.12886,0.02864l-0.12373,0.04596l-0.16924,0.01881l-0.00736,0.00245l-0.03926,0.00302l-0.03521,0.01761l-0.24821,0.05516l-0.08257,-0.00217l-0.08013,0.02003h-1.21348l-0.13011,-0.03252l-0.13324,-0.01522l-0.44127,-0.16548l-0.05013,-0.03457l-0.05863,-0.01649l-0.08923,-0.05099l-0.00922,-0.0023l-0.16822,-0.03739l-0.01869,-0.00935l-0.0209,-0.00522l-0.00418,-0.00732l-0.06655,-0.03327l-0.05176,-0.04437l-0.06283,-0.02645l-0.07936,-0.05952l-0.10472,-0.06284l-0.04514,-0.04513l-0.05709,-0.02854l-0.14505,-0.12433l-0.08368,-0.05021l-0.02161,-0.02161l-0.02844,-0.0112l-0.16218,-0.11584l-0.16011,-0.09149l-0.04268,-0.0409l-0.05374,-0.02463l-0.13789,-0.11031l-0.07002,-0.0919l-0.08549,-0.07773l-0.03752,-0.05627l-0.18797,-0.16112l-0.00084,-0.01523l-0.01628,-0.01036l-0.00289,-0.01448l-0.00733,-0.00419l-0.01289,-0.05154l-0.0811,-0.12745l-0.0032,-0.0032l-0.01919,-0.03198l-0.02162,-0.03398l-0.00154,-0.00463l-0.04038,-0.0673l-0.02405,-0.07902l-0.04434,-0.06968l-0.02758,-0.08274l-0.00523,-0.06797l-0.02572,-0.06313l-0.02758,-0.19305l0.00556,-0.0537l-0.01309,-0.05237v-0.22063l0.0224,-0.08958v-0.09233l0.05516,-0.22063l0.03887,-0.07288l0.01792,-0.08063l0.07339,-0.14676l-0.00045,-0.00254l0.00544,-0.00743l0.03194,-0.0639l0.10001,-0.11667l0.09067,-0.12408l0.05488,-0.04573l0.00599,-0.00699l0.00257,-0.00015l0.10203,-0.08503l0.0367,-0.01771l0.02741,-0.03016l0.16548,-0.11032l0.04463,-0.01594l0.03598,-0.03084l0.38611,-0.19305l0.12885,-0.02864l0.12373,-0.04595l0.20488,-0.02276l0.31604,-0.07294l0.08559,0.00155l0.08305,-0.02076h0.48304l0.75884,-0.0271l0.04198,0.00892l0.04231,-0.00718l0.35853,0.02758l0.01095,0.00365l0.01143,-0.00159l0.77222,0.08274l0.02305,0.00846l0.002,-0.00015v-0.03521l-0.0373,-0.16784l0.00108,-0.04122l-0.01435,-0.03866l-0.02758,-0.24821l0.00057,-0.0042l-0.00144,-0.004l-0.02758,-0.27579l0.00552,-0.03768l-0.00924,-0.03695v-1.13074l0.00772,-0.03088l-0.00513,-0.0314l0.00712,-0.08546c-1.60895,0.25861 -3.18419,0.2303 -3.59275,-0.48466c-0.22106,-0.13046 -0.36935,-0.3711 -0.36935,-0.64637c0,-0.41422 0.33579,-0.75 0.75,-0.75c0.03534,0 0.07011,0.00245 0.10415,0.00718c0.84095,-0.3108 1.9568,0.01386 2.95276,0.02213c0.14476,0.0012 0.28953,0.00243 0.4343,0.00354l0.01336,-0.03924l0.00247,-0.07383l0.03851,-0.13481l0.04808,-0.40868l0.00338,-0.00894l-0.00099,-0.0095l0.05204,-0.36429l0.02575,-0.30899l0.00342,-0.01003l-0.00142,-0.01051l0.02758,-0.24821l0.03534,-0.09515l0.01371,-0.10057l0.02505,-0.06262l0.04183,-0.25098l0.03605,-0.0829l0.01439,-0.08924l0.07593,-0.17717c0.04844,-0.12052 0.12727,-0.22556 0.22701,-0.30563l0.01369,-0.01801l0.01145,-0.00131c0.12431,-0.09146 0.27785,-0.1455 0.44402,-0.1455zM118.55402,157.88743l-0.73002,0.02607l-0.01344,-0.00286l-0.01333,0.00334h-0.41101l-0.2753,0.06353l-0.04429,-0.0008l-0.04153,0.01542l-0.11526,0.0128l-0.22471,0.11236l-0.09328,0.06219l-0.01418,0.01181l-0.00333,0.00668l-0.0128,0.05119v0.075l0.00538,0.0376l0.05612,0.03572l0.01713,0.08565l0.07584,0.04334l0.00717,0.02866l0.07579,0.06497l0.00064,0.01147l0.04023,0.06035l0.00131,0.00106l0.14229,0.0813l0.02789,0.02672l0.03594,0.01416l0.16868,0.12049l0.11222,0.06733l0.04513,0.04513l0.05709,0.02855l0.14505,0.12433l0.08368,0.05021l0.02784,0.02784l0.03628,0.01528l0.03316,0.02486l0.03457,0.00973l0.18823,0.04706l0.00571,0.00998l0.13213,0.0755l0.25749,0.09655h0.99515l0.13007,-0.0289l0.04604,-0.01535l0.07955,-0.00611l0.0748,-0.02778l0.13858,-0.0154l0.06974,-0.0155l0.02865,-0.04502l-0.00281,-0.0407l0.05264,-0.0579l0.03535,-0.09132l0.00352,-0.01586v-0.59352l-0.00151,-0.00379l-0.01919,-0.14074l-0.03445,-0.1378v-0.22911l-0.00803,-0.04017l-0.36617,-0.06313l-0.73717,-0.07898z" fill="#ffffff" fill-rule="nonzero" stroke="none" stroke-width="0.5" stroke-linecap="butt" stroke-linejoin="miter"/><path d="M65.04787,181.61202l-1.5562,-11.07293l2.96276,3.83064l1.52627,-3.8007l1.1073,5.50653l2.06495,-6.10507l2.60363,4.7883l2.18466,-4.63866l-1.25693,11.49191z" fill="url(#color-1)" fill-rule="nonzero" stroke="url(#color-2)" stroke-width="0.5" stroke-linecap="round" stroke-linejoin="miter"/><path d="M82.4707,181.61202l-1.5562,-11.07293l2.96276,3.83064l1.52627,-3.8007l1.10729,5.50653l2.06495,-6.10507l2.60363,4.7883l2.18465,-4.63866l-1.25692,11.49191z" fill="url(#color-3)" fill-rule="nonzero" stroke="url(#color-4)" stroke-width="0.5" stroke-linecap="round" stroke-linejoin="miter"/><g fill-rule="nonzero" stroke="none" stroke-width="0.5" stroke-linecap="butt" stroke-linejoin="miter"><path d="M68.54434,192.54161l0.00001,-0.00175l0.00082,-0.00333l-0.00509,-0.00876l0.04279,-0.14405l0.03583,-0.14523l0.00919,-0.00634l0.00098,-0.0033l0.03325,-0.05925l0.10796,-0.12079l0.01247,-0.0361l0.02724,-0.00832l0.06437,-0.07202l0.21718,-0.01949l0.03482,-0.02399l0.02416,0.01139l0.20459,-0.06255l0.0733,0.04492l0.02767,-0.00248l0.01416,0.02439l0.0152,0.01304l0.11108,0.06809l0.03255,0.03526l0.0183,0.0357l0.02994,0.0257l0.00626,0.00941l0.01328,-0.00153l0.04255,0.04031l0.05499,0.0219l0.01314,0.04265l0.09452,0.08955l0.02842,0.0475l0.00476,0.00342l0.05989,0.07522l0.05962,0.02374l0.01141,0.03705l0.06456,0.04841l0.04246,0.05558l0.02291,0.01498l0.03971,-0.00132l0.0566,0.06433l0.07161,0.04686l0.0045,0.03966l0.05439,0.06183l0.00034,0.0007l0.15517,0.12691l0.00346,0.00494l0.00548,0.00254l0.19591,0.16823l0.24394,0.17528l0.01606,0.02017l0.02324,0.01127l0.2404,0.21362l0.2488,0.2114l0.181,0.12471l0.01954,0.02358l0.02763,0.0134l0.24301,0.21594l0.15067,0.1318l0.0474,0.07265l0.0602,0.06148l0.08631,0.15703l0.0679,0.27672l0.00226,0.00389l-0.00071,0.0024l0.00056,0.00229l-0.00252,0.0043l-0.08613,0.28992l-0.03325,0.05925l-0.00234,0.00261l-0.00039,0.01074l-0.10713,0.10956l-0.10218,0.11432l-0.01053,0.00095l-0.00246,0.00251l-0.08241,0.05361l-0.01397,0.0051l-0.04095,0.03996l-0.0571,0.03522l-0.0475,0.04857l-0.1301,0.08464l-0.06709,0.05638l-0.00876,0.00453l-0.00634,0.00781l-0.19233,0.15253l-0.16739,0.16334l-0.00984,0.00607l-0.00674,0.00959l-0.20627,0.18841l-0.22314,0.21775l-0.00985,0.00607l-0.00674,0.00959l-0.20098,0.18358l-0.29012,0.29507l-0.14571,0.17758l-0.02546,0.01998l-0.01729,0.02749l-0.34113,0.34547l-0.12824,0.15629l-0.1615,0.23104l-0.03245,0.02982l-0.02175,0.03823l-0.38603,0.42677l-0.21076,0.29655l-0.20866,0.34259l-0.01955,0.02037l-0.01108,0.02567l-0.22058,0.30445l-0.12777,0.19899l-0.01132,0.01126l-0.0061,0.01458l-0.33395,0.47196l-0.16473,0.24063l-0.14048,0.27751l-0.00955,0.01164l-0.0042,0.01414l-0.13298,0.237l-0.01902,0.02128l-0.01024,0.02624l-0.07927,0.11783l-0.09292,0.18821l-0.1335,0.35244l-0.00946,0.01436l-0.00308,0.01642l-0.06118,0.14013l-0.11176,0.15292l-0.01189,0.04312l-0.03741,0.02433l-0.02662,0.03643l-0.04263,0.00862l-0.157,0.10214l-0.04386,0.016l-0.29761,0.03313l-0.10895,-0.1042l-0.15246,-0.02665l-0.04716,-0.0858l-0.00668,-0.00501l-0.11267,-0.07372l-0.00133,-0.01175l-0.00451,-0.00338l-0.01501,-0.01964l-0.09119,-0.05589l-0.00266,-0.00288l-0.00381,-0.00115l-0.14149,-0.08979l-0.0199,-0.02226l-0.02754,-0.012l-0.1971,-0.1612l-0.02797,-0.014l-0.00648,0.00104l-0.01194,-0.01026l-0.01373,-0.00688l-0.09312,-0.08488l-0.02248,-0.0193l-0.0891,-0.05939l-0.03169,-0.03707l-0.04258,-0.02381l-0.16647,-0.16645l-0.12037,-0.09136l-0.00549,-0.00728l-0.00839,-0.00366l-0.35868,-0.29336l-0.01115,-0.01593l-0.01712,-0.00908l-0.24796,-0.23713l-0.21541,-0.2019l-0.00946,-0.01563l-0.01543,-0.00946l-0.17207,-0.18644l-0.09314,-0.07617l-0.02001,-0.02859l-0.0296,-0.01814l-0.22676,-0.24569l-0.13387,-0.09619l-0.0041,-0.00514l-0.00616,-0.00243l-0.14172,-0.10756l-0.08183,-0.05881l-0.11944,-0.15l-0.02462,-0.01306l0.00061,-0.01708l-0.03333,-0.04187l0.04447,-0.26719l0.00961,-0.26673l0.04192,-0.04288l0.00285,-0.01711l0.02734,-0.01376l0.15019,-0.15359l0.08241,-0.05361l0.0691,-0.02519l0.06298,-0.04097l0.02103,-0.00767l0.019,-0.01363l0.05166,-0.05739l0.20338,-0.14485l0.08089,-0.03358l0.07465,-0.04857l0.06242,-0.02276l0.04153,-0.03132l0.05988,-0.02687l0.0065,-0.02358l0.10141,-0.06597l0.09209,-0.07997l0.02839,0.00159l0.04177,-0.02717l0.02101,-0.00766l0.01148,-0.01121l0.07371,-0.04547l0.06475,-0.05895l0.21341,-0.12143l0.12851,-0.0836l0.22312,-0.16829l0.06589,-0.02957l0.05849,-0.04464l0.18462,-0.08419l0.15573,-0.1235l0.00755,-0.00362l0.00556,-0.00652l0.18144,-0.13684l0.02883,-0.01295l0.02317,-0.0226l0.13834,-0.08535l0.23199,-0.20379l0.00668,-0.00364l0.00471,-0.00614l0.19806,-0.16647l0.00876,-0.00453l0.00634,-0.00781l0.16218,-0.12861l0.11845,-0.14436l0.05051,-0.03964l0.03928,-0.05126l0.15769,-0.13254l0.20033,-0.22869l0.15841,-0.19306l0.00729,-0.00572l0.00441,-0.00817l0.10289,-0.11893l0.0821,-0.14631l0.04097,-0.04585l0.0276,-0.05451l0.00115,-0.0014l0.05826,-0.12302l0.05211,-0.06698l0.03808,-0.07523l0.07156,-0.08722l0.02004,-0.03572l0.04764,-0.1091l0.00633,-0.00867l0.00226,-0.0102l0.06951,-0.14678l0.03531,-0.12806l0.05164,-0.09629l0.03941,-0.101l0.04994,-0.07422l0.03801,-0.1205l0.05217,-0.08953l0.03909,-0.09504l0.04915,-0.07031l0.03175,-0.07272c0.03994,-0.09345 0.10137,-0.17888 0.17928,-0.2474l0.00688,-0.00941l0.0205,-0.09287l0.03047,-0.06435l0.01415,-0.06831l0.07127,-0.15549l0.07359,-0.18248z" fill="#82d772"/><path d="M65.02769,192.39146c0,-1.60824 1.30373,-2.91197 2.91196,-2.91197c0.33288,0 0.6527,0.05586 0.95063,0.1587c0.69756,-0.78567 1.71522,-1.28074 2.84851,-1.28074c2.10308,0 3.80796,1.70488 3.80796,3.80795c0,0.61835 -0.14738,1.20228 -0.40893,1.71857c0.89496,0.49683 1.50064,1.45154 1.50064,2.54771c0,1.60824 -1.30373,2.91197 -2.91196,2.91197c-1.11253,0 -2.07933,-0.6239 -2.56964,-1.54089c-0.4159,0.3205 -0.93704,0.51113 -1.50271,0.51113c-1.36082,0 -2.46397,-1.10316 -2.46397,-2.46398c0,-0.21555 0.02768,-0.42463 0.07968,-0.62389c-1.28537,-0.30257 -2.24216,-1.45683 -2.24216,-2.83456z" fill="#388229"/></g><g fill-rule="nonzero" stroke="none" stroke-width="0.5" stroke-linecap="butt" stroke-linejoin="miter"><path d="M85.96717,192.54161l0.00002,-0.00175l0.00082,-0.00333l-0.00509,-0.00876l0.0428,-0.14405l0.03583,-0.14523l0.00919,-0.00634l0.00098,-0.0033l0.03324,-0.05925l0.10796,-0.12079l0.01247,-0.0361l0.02723,-0.00832l0.06437,-0.07202l0.21718,-0.01949l0.03482,-0.02399l0.02416,0.01139l0.20459,-0.06255l0.0733,0.04492l0.02768,-0.00248l0.01416,0.02439l0.01519,0.01304l0.11109,0.06809l0.03254,0.03526l0.0183,0.0357l0.02994,0.0257l0.00626,0.00941l0.01327,-0.00153l0.04255,0.04031l0.05499,0.0219l0.01314,0.04265l0.09452,0.08955l0.02842,0.0475l0.00477,0.00342l0.05989,0.07522l0.05962,0.02374l0.01141,0.03705l0.06456,0.04841l0.04246,0.05558l0.0229,0.01498l0.03971,-0.00132l0.05659,0.06433l0.07162,0.04686l0.00449,0.03966l0.05439,0.06183l0.00034,0.0007l0.15517,0.12691l0.00346,0.00494l0.00547,0.00254l0.19591,0.16823l0.24394,0.17528l0.01606,0.02017l0.02324,0.01127l0.24039,0.21362l0.24881,0.2114l0.18099,0.12471l0.01955,0.02358l0.02763,0.0134l0.24301,0.21594l0.15067,0.1318l0.04741,0.07265l0.0602,0.06148l0.08631,0.15703l0.0679,0.27672l0.00226,0.00389l-0.00071,0.0024l0.00056,0.00229l-0.00251,0.0043l-0.08613,0.28992l-0.03324,0.05925l-0.00234,0.00261l-0.00038,0.01074l-0.10713,0.10956l-0.10218,0.11432l-0.01054,0.00095l-0.00245,0.00251l-0.08241,0.05361l-0.01397,0.0051l-0.04095,0.03996l-0.0571,0.03522l-0.0475,0.04857l-0.1301,0.08464l-0.06709,0.05638l-0.00876,0.00453l-0.00634,0.00781l-0.19233,0.15253l-0.16739,0.16334l-0.00984,0.00607l-0.00674,0.00959l-0.20627,0.18841l-0.22314,0.21775l-0.00985,0.00607l-0.00674,0.00959l-0.20098,0.18358l-0.29012,0.29507l-0.14571,0.17758l-0.02545,0.01998l-0.01729,0.02749l-0.34113,0.34547l-0.12824,0.15629l-0.1615,0.23104l-0.03245,0.02982l-0.02175,0.03823l-0.38603,0.42677l-0.21076,0.29655l-0.20866,0.34259l-0.01956,0.02037l-0.01108,0.02567l-0.22058,0.30445l-0.12777,0.19899l-0.01132,0.01126l-0.0061,0.01458l-0.33395,0.47196l-0.16473,0.24063l-0.14048,0.27751l-0.00955,0.01164l-0.0042,0.01414l-0.13298,0.237l-0.01902,0.02128l-0.01024,0.02624l-0.07927,0.11783l-0.09292,0.18821l-0.1335,0.35244l-0.00947,0.01436l-0.00308,0.01642l-0.06118,0.14013l-0.11176,0.15292l-0.01189,0.04312l-0.0374,0.02433l-0.02662,0.03643l-0.04263,0.00862l-0.15701,0.10214l-0.04386,0.016l-0.29761,0.03313l-0.10895,-0.1042l-0.15246,-0.02665l-0.04716,-0.0858l-0.00669,-0.00501l-0.11267,-0.07372l-0.00133,-0.01175l-0.00451,-0.00338l-0.01501,-0.01964l-0.09118,-0.05589l-0.00266,-0.00288l-0.00381,-0.00115l-0.14149,-0.08979l-0.0199,-0.02226l-0.02754,-0.012l-0.1971,-0.1612l-0.02797,-0.014l-0.00648,0.00104l-0.01195,-0.01026l-0.01373,-0.00688l-0.09311,-0.08488l-0.02248,-0.0193l-0.08911,-0.05939l-0.03169,-0.03707l-0.04258,-0.02381l-0.16647,-0.16645l-0.12037,-0.09136l-0.00549,-0.00728l-0.00839,-0.00366l-0.35868,-0.29336l-0.01115,-0.01593l-0.01712,-0.00908l-0.24796,-0.23713l-0.21541,-0.2019l-0.00946,-0.01563l-0.01543,-0.00946l-0.17207,-0.18644l-0.09314,-0.07617l-0.02001,-0.02859l-0.0296,-0.01814l-0.22676,-0.24569l-0.13387,-0.09619l-0.0041,-0.00514l-0.00616,-0.00243l-0.14172,-0.10756l-0.08184,-0.05881l-0.11943,-0.15l-0.02462,-0.01306l0.00061,-0.01708l-0.03333,-0.04187l0.04448,-0.26719l0.00961,-0.26673l0.04192,-0.04288l0.00285,-0.01711l0.02733,-0.01376l0.15019,-0.15359l0.08241,-0.05361l0.0691,-0.02519l0.06298,-0.04097l0.02102,-0.00767l0.019,-0.01363l0.05165,-0.05739l0.20338,-0.14485l0.08089,-0.03358l0.07465,-0.04857l0.06243,-0.02276l0.04152,-0.03132l0.05988,-0.02687l0.0065,-0.02358l0.10141,-0.06597l0.09209,-0.07997l0.02839,0.00159l0.04177,-0.02717l0.02101,-0.00766l0.01148,-0.01121l0.07371,-0.04547l0.06475,-0.05895l0.21341,-0.12143l0.12851,-0.0836l0.22312,-0.16829l0.06589,-0.02957l0.05849,-0.04464l0.18463,-0.08419l0.15572,-0.1235l0.00756,-0.00362l0.00556,-0.00652l0.18145,-0.13684l0.02883,-0.01295l0.02316,-0.0226l0.13834,-0.08535l0.23199,-0.20379l0.00667,-0.00364l0.00471,-0.00614l0.19806,-0.16647l0.00876,-0.00453l0.00634,-0.00781l0.16218,-0.12861l0.11845,-0.14436l0.05051,-0.03964l0.03928,-0.05126l0.15769,-0.13254l0.20034,-0.22869l0.15841,-0.19306l0.00729,-0.00572l0.0044,-0.00817l0.1029,-0.11893l0.08209,-0.14631l0.04098,-0.04585l0.0276,-0.05451l0.00114,-0.0014l0.05827,-0.12302l0.05211,-0.06698l0.03808,-0.07523l0.07157,-0.08722l0.02004,-0.03572l0.04764,-0.1091l0.00633,-0.00867l0.00225,-0.0102l0.06952,-0.14678l0.03531,-0.12806l0.05164,-0.09629l0.03941,-0.101l0.04994,-0.07422l0.03801,-0.1205l0.05217,-0.08953l0.03909,-0.09504l0.04915,-0.07031l0.03175,-0.07272c0.03994,-0.09345 0.10136,-0.17888 0.17927,-0.2474l0.00688,-0.00941l0.0205,-0.09287l0.03047,-0.06435l0.01415,-0.06831l0.07127,-0.15549l0.07358,-0.18248z" fill="#82d772"/><path d="M82.45052,192.39146c0,-1.60824 1.30373,-2.91197 2.91197,-2.91197c0.33288,0 0.6527,0.05586 0.95063,0.1587c0.69756,-0.78567 1.71522,-1.28074 2.84852,-1.28074c2.10308,0 3.80795,1.70488 3.80795,3.80795c0,0.61835 -0.14738,1.20228 -0.40893,1.71857c0.89496,0.49683 1.50064,1.45154 1.50064,2.54771c0,1.60824 -1.30373,2.91197 -2.91196,2.91197c-1.11253,0 -2.07933,-0.6239 -2.56964,-1.54089c-0.4159,0.3205 -0.93704,0.51113 -1.50271,0.51113c-1.36082,0 -2.46397,-1.10316 -2.46397,-2.46398c0,-0.21555 0.02768,-0.42463 0.07967,-0.62389c-1.28537,-0.30257 -2.24216,-1.45683 -2.24216,-2.83456z" fill="#388229"/></g><g fill-rule="nonzero" stroke="none" stroke-width="0.5" stroke-linecap="butt" stroke-linejoin="miter"><path d="M69.18397,215.28576c-0.36461,-1.06158 -2.7404,-1.28912 -3.63533,-1.82608c-0.05977,-0.03586 -0.25721,-0.24903 -0.46861,-0.52764c-0.24959,1.14263 -0.50669,2.31124 -0.54184,3.45644c-0.01695,0.55236 -0.00198,1.16381 0.08134,1.71473c0.24906,1.64683 2.88492,3.27876 4.87101,3.36091c-0.00291,-0.01197 -0.00516,-0.02419 -0.00674,-0.03662c-0.45629,-1.56964 0.40327,-4.09464 -0.29983,-6.14175zM65.96432,212.93016c1.09868,0.98787 2.97333,0.61597 3.82042,2.02777c1.10048,1.83414 0.08274,4.44712 0.3581,6.37458c0.00273,0.01718 0.00416,0.0348 0.00416,0.05275c0,0.01477 -0.00096,0.02931 -0.00283,0.04357c0.1214,-0.01985 0.23824,-0.04758 0.34959,-0.08366c0.52663,-0.17064 1.03655,-0.64176 1.51037,-0.92605c0.72243,-0.43346 2.08119,-0.90805 2.41408,-1.73523c1.10486,-2.74545 -0.56368,-5.75478 -1.40049,-8.49679c-0.6161,0.81206 -1.47309,1.66414 -1.76983,1.91044c-0.09753,0.08095 -0.5757,0.50121 -0.91192,0.62651c-0.31559,0.98842 -3.76546,1.02863 -4.16067,0.09001c-0.16589,-0.39399 0.48753,-1.35914 0.76404,-0.87527c0.09812,0.05791 0.16395,0.16473 0.16395,0.28692c0,0.04384 -0.00847,0.0857 -0.02387,0.12403c0.11866,0.58324 3.57079,0.70424 2.5849,-0.61197c-0.57856,-0.77241 -3.06167,-0.08845 -4.27511,0.01902c0.1805,0.37829 0.28357,0.91123 0.5751,1.17336zM74.08279,211.52063c0.02237,0.09194 0.06356,0.17834 0.09081,0.26895c0.55255,1.83732 2.01353,4.51491 1.17543,6.50541c-1.57939,3.75105 -6.98038,4.60397 -10.045,2.31837c-2.02962,-1.51369 -1.53286,-4.81458 -1.01936,-6.97769c0.06131,-0.25828 0.12394,-0.99118 0.26435,-1.57138c-0.07309,-0.17287 -0.11271,-0.33271 -0.0958,-0.45866c-0.09034,-0.04725 -0.10564,-0.2104 -0.00569,-0.54135c0.46686,-1.54584 4.93878,-3.38872 6.30551,-3.40729c0.80821,-0.01098 2.66202,0.03465 2.93031,1.10783c0.03722,0.1489 -0.0165,0.35358 -0.13048,0.58931c0.29971,0.49061 0.44904,1.83407 0.52993,2.16649zM72.66129,208.62483c-1.70702,-0.8131 -4.52259,0.14947 -5.99642,1.19641c-0.02927,0.02079 -0.05551,0.06653 -0.08285,0.09214c-0.01999,0.01872 -0.51756,0.55715 -1.03476,1.02435c1.51119,-0.56109 4.6134,-0.71452 4.87059,0.944c0.83029,-0.65136 2.93114,-2.92933 2.24344,-3.2569z" fill="#000000"/><path d="M69.495,221.44667c0.00157,0.01243 0.00378,0.02468 0.00669,0.03665c-1.98609,-0.08215 -4.65386,-1.72541 -4.90292,-3.37224c-0.08332,-0.55092 -0.09863,-1.17713 -0.08168,-1.72949c0.03515,-1.1452 0.30419,-2.32712 0.55379,-3.46975c0.2114,0.2786 0.40991,0.49133 0.46967,0.52719c0.89494,0.53696 3.29547,0.77051 3.66008,1.83209c0.7031,2.0471 -0.16192,4.60593 0.29437,6.17557z" data-paper-data="{&quot;noHover&quot;:false,&quot;origItem&quot;:[&quot;Path&quot;,{&quot;applyMatrix&quot;:true,&quot;segments&quot;:[[[88.12714,440.83609],[3.16786,9.2234],[-1.64278,-4.78305]],[[71.74781,432.60851],[4.03223,2.41934],[-0.26928,-0.16157]],[[69.63646,430.2312],[0.95246,1.25527],[-1.12456,5.14821]],[[67.19513,445.80449],[0.15838,-5.1598],[-0.07639,2.48872]],[[67.56162,453.53038],[-0.37541,-2.48224],[1.12218,7.41995]],[[89.5084,468.67326],[-8.94852,-0.37012],[-0.01309,-0.05391]],[[89.47804,468.50828],[0.00709,0.05601],[-2.05586,-7.07216]]],&quot;closed&quot;:true}]}" fill="#a8a8a8"/><path d="M65.37241,211.7423c1.21344,-0.10748 3.71107,-0.79901 4.28963,-0.0266c0.98588,1.3162 -2.44939,1.23404 -2.56805,0.65079c0.0154,-0.03833 -0.0049,-0.11399 -0.0049,-0.15783c0,-0.12219 -0.03762,-0.19473 -0.13574,-0.25265c-0.2765,-0.48387 -0.96155,0.45058 -0.79566,0.84456c0.3952,0.93861 3.86449,0.88977 4.18008,-0.09865c0.33622,-0.1253 0.81923,-0.54462 0.91676,-0.62557c0.29674,-0.2463 1.15736,-1.09688 1.77346,-1.90894c0.83681,2.74201 2.51358,5.78329 1.40872,8.52874c-0.33289,0.82718 -1.70162,1.30999 -2.42405,1.74345c-0.47383,0.2843 -0.99064,0.75705 -1.51727,0.92769c-0.11135,0.03608 -0.22959,0.06387 -0.35099,0.08372c0.00186,-0.01426 0.00236,-0.07318 0.00236,-0.08795c0,-0.01795 -0.00141,-0.03557 -0.00414,-0.05275c-0.27535,-1.92747 0.75004,-4.49734 -0.35044,-6.33148c-0.84708,-1.4118 -2.71097,-1.04811 -3.80965,-2.03598c-0.29153,-0.26213 -0.42961,-0.82227 -0.61011,-1.20056z" data-paper-data="{&quot;noHover&quot;:false,&quot;origItem&quot;:[&quot;Path&quot;,{&quot;applyMatrix&quot;:true,&quot;segments&quot;:[[[73.62069,430.22272],[-1.31352,-1.18105],[4.9502,4.45096]],[[90.83392,439.35904],[-3.81661,-6.36101],[4.95833,8.26389]],[[92.44735,468.0803],[-1.24063,-8.68438],[0.01232,0.07741]],[[92.46608,468.31798],[0,-0.08088],[0,0.06653]],[[92.45335,468.51427],[0.0084,-0.06424],[0.54698,-0.08944]],[[94.02847,468.13732],[-0.5017,0.16256],[2.37278,-0.76885]],[[100.83359,463.96491],[-2.13487,1.28092],[3.25497,-1.95298]],[[111.71045,456.14666],[-1.49985,3.72694],[4.97806,-12.36989]],[[105.40041,417.86361],[3.77032,12.35438],[-2.77591,3.6588]],[[97.4263,426.47127],[1.33698,-1.10973],[-0.43943,0.36474]],[[93.31756,429.29407],[1.51486,-0.56454],[-1.4219,4.4534]],[[74.5713,429.69964],[1.78063,4.229],[-0.74743,-1.77514]],[[78.01373,425.75604],[-1.2458,-2.18014],[0.44211,0.26093]],[[78.75243,427.04877],[0,-0.55053],[0,0.19752]],[[78.64488,427.60759],[0.06938,-0.17271],[0.53463,2.62786]],[[90.2914,424.85031],[4.44199,5.93028],[-2.60676,-3.48016]],[[71.02951,424.93602],[5.46726,-0.48424],[0.81326,1.70444]]],&quot;closed&quot;:true}]}" fill="#a8a8a8"/><path d="M70.43057,211.89992c-0.25719,-1.65852 -3.39375,-1.51828 -4.90494,-0.95719c0.5172,-0.4672 1.01426,-1.01223 1.03425,-1.03095c0.02734,-0.02561 0.05366,-0.07221 0.08293,-0.093c1.47383,-1.04694 4.33189,-2.01569 6.03892,-1.20259c0.68771,0.32757 -1.42086,2.63238 -2.25115,3.28374z" data-paper-data="{&quot;noHover&quot;:false,&quot;origItem&quot;:[&quot;Path&quot;,{&quot;applyMatrix&quot;:true,&quot;segments&quot;:[[[103.79448,410.82466],[3.09853,1.4759],[-7.69115,-3.66348]],[[76.77706,416.21519],[6.64049,-4.71707],[-0.13188,0.09368]],[[76.40378,416.63035],[0.12319,-0.11539],[-0.09005,0.08435]],[[71.74159,421.24567],[2.33027,-2.10502],[6.80881,-2.52802]],[[93.68648,425.49893],[-1.1588,-7.47259],[3.74096,-2.93476]]],&quot;closed&quot;:true}]}" fill="#a8a8a8"/><path d="M70.28136,214.88832c0.03097,-0.08273 0.06263,-0.16023 0.09489,-0.23276c0.84674,-1.9039 2.10821,-0.38976 2.32111,-0.30266c0.30359,0.12421 1.11156,-0.54159 1.37413,-0.27902c0.69392,0.69392 -1.1788,0.9578 -1.51651,0.94486c-0.45048,-0.01726 -0.25006,-0.45597 -0.5478,-0.58121c-0.30781,-0.12948 -1.20062,1.01071 -1.46245,0.77645z" fill="#0002ff"/><path d="M70.70325,216.2215c0.05929,-0.10375 0.13598,-0.21214 0.22299,-0.31435c0.4092,-0.48065 1.04652,-0.82453 1.17414,0.09353c0.0355,0.25541 0.46125,-0.23274 0.70222,-0.32456c0.39117,-0.14905 1.37911,-0.47034 1.39237,0.12738c0.0076,0.34279 -2.08745,1.00326 -2.26266,0.98924c-0.39953,-0.03196 -0.29906,-0.55152 -0.58985,-0.3364c-0.06925,0.05123 -0.17167,0.09734 -0.25566,0.09807c-0.06472,0.00057 -0.18943,0.00678 -0.21959,-0.04601z" fill="#ff0000"/></g><g fill-rule="nonzero" stroke="none" stroke-width="0.5" stroke-linecap="butt" stroke-linejoin="miter"><path d="M86.6068,215.28576c-0.36461,-1.06158 -2.74039,-1.28912 -3.63533,-1.82608c-0.05976,-0.03586 -0.25721,-0.24903 -0.46861,-0.52764c-0.24959,1.14263 -0.50669,2.31124 -0.54184,3.45643c-0.01695,0.55237 -0.00198,1.16381 0.08134,1.71474c0.24907,1.64683 2.88491,3.27876 4.87101,3.36091c-0.0029,-0.01197 -0.00516,-0.02419 -0.00674,-0.03662c-0.45629,-1.56964 0.40327,-4.09464 -0.29982,-6.14174zM83.38715,212.93016c1.09868,0.98788 2.97333,0.61597 3.82041,2.02777c1.10049,1.83414 0.08274,4.44711 0.3581,6.37458c0.00274,0.01718 0.00415,0.0348 0.00415,0.05275c0,0.01477 -0.00096,0.0293 -0.00283,0.04357c0.1214,-0.01985 0.23824,-0.04758 0.34959,-0.08366c0.52663,-0.17065 1.03655,-0.64176 1.51037,-0.92606c0.72243,-0.43346 2.08119,-0.90805 2.41408,-1.73523c1.10487,-2.74545 -0.56368,-5.75478 -1.40049,-8.49679c-0.61611,0.81206 -1.47308,1.66414 -1.76982,1.91044c-0.09753,0.08095 -0.5757,0.50121 -0.91192,0.62651c-0.31558,0.98842 -3.76546,1.02863 -4.16067,0.09001c-0.16589,-0.39398 0.48754,-1.35915 0.76404,-0.87527c0.09812,0.05792 0.16395,0.16473 0.16395,0.28692c0,0.04384 -0.00847,0.08569 -0.02387,0.12402c0.11866,0.58325 3.57079,0.70424 2.58491,-0.61196c-0.57856,-0.77241 -3.06167,-0.08845 -4.27511,0.01902c0.1805,0.3783 0.28358,0.91123 0.57511,1.17336zM91.50562,211.52063c0.02237,0.09194 0.06355,0.17833 0.0908,0.26895c0.55255,1.83731 2.01354,4.51492 1.17543,6.50541c-1.57939,3.75106 -6.98038,4.60397 -10.04501,2.31837c-2.02962,-1.5137 -1.53285,-4.81458 -1.01936,-6.97769c0.06131,-0.25828 0.12393,-0.99119 0.26434,-1.57138c-0.07309,-0.17287 -0.11271,-0.33271 -0.0958,-0.45866c-0.09033,-0.04726 -0.10564,-0.2104 -0.00569,-0.54135c0.46686,-1.54585 4.93878,-3.38871 6.30551,-3.40729c0.80821,-0.01098 2.66202,0.03465 2.93031,1.10783c0.03723,0.1489 -0.01651,0.35358 -0.13048,0.58931c0.29971,0.49061 0.44905,1.83408 0.52994,2.16649zM90.08411,208.62483c-1.70703,-0.8131 -4.52259,0.14947 -5.99642,1.19641c-0.02927,0.02079 -0.05551,0.06653 -0.08285,0.09214c-0.01999,0.01872 -0.51756,0.55716 -1.03476,1.02436c1.51119,-0.56108 4.6134,-0.71452 4.87059,0.944c0.8303,-0.65136 2.93115,-2.92933 2.24344,-3.2569z" fill="#000000"/><path d="M86.91783,221.44667c0.00158,0.01243 0.00378,0.02468 0.00669,0.03664c-1.9861,-0.08214 -4.65386,-1.72541 -4.90292,-3.37224c-0.08332,-0.55093 -0.09863,-1.17713 -0.08168,-1.7295c0.03515,-1.1452 0.3042,-2.32712 0.55379,-3.46975c0.21139,0.2786 0.40991,0.49132 0.46967,0.52719c0.89494,0.53697 3.29547,0.77051 3.66008,1.83209c0.7031,2.0471 -0.16192,4.60594 0.29437,6.17558z" data-paper-data="{&quot;noHover&quot;:false,&quot;origItem&quot;:[&quot;Path&quot;,{&quot;applyMatrix&quot;:true,&quot;segments&quot;:[[[88.12714,440.83609],[3.16786,9.2234],[-1.64278,-4.78305]],[[71.74781,432.60851],[4.03223,2.41934],[-0.26928,-0.16157]],[[69.63646,430.2312],[0.95246,1.25527],[-1.12456,5.14821]],[[67.19513,445.80449],[0.15838,-5.1598],[-0.07639,2.48872]],[[67.56162,453.53038],[-0.37541,-2.48224],[1.12218,7.41995]],[[89.5084,468.67326],[-8.94852,-0.37012],[-0.01309,-0.05391]],[[89.47804,468.50828],[0.00709,0.05601],[-2.05586,-7.07216]]],&quot;closed&quot;:true}]}" fill="#a8a8a8"/><path d="M82.79523,211.7423c1.21344,-0.10747 3.71107,-0.79901 4.28963,-0.0266c0.98588,1.3162 -2.44939,1.23404 -2.56805,0.65079c0.0154,-0.03833 -0.0049,-0.11399 -0.0049,-0.15783c0,-0.12219 -0.03762,-0.19473 -0.13574,-0.25265c-0.2765,-0.48388 -0.96156,0.45058 -0.79566,0.84456c0.39521,0.93861 3.86449,0.88976 4.18008,-0.09865c0.33622,-0.1253 0.81923,-0.54461 0.91676,-0.62557c0.29674,-0.2463 1.15735,-1.09688 1.77346,-1.90894c0.83681,2.74201 2.51359,5.78329 1.40872,8.52875c-0.33289,0.82718 -1.70162,1.30999 -2.42405,1.74345c-0.47383,0.28429 -0.99064,0.75705 -1.51727,0.9277c-0.11135,0.03608 -0.22959,0.06387 -0.35099,0.08372c0.00186,-0.01426 0.00235,-0.07318 0.00235,-0.08795c0,-0.01795 -0.0014,-0.03557 -0.00414,-0.05275c-0.27536,-1.92747 0.75005,-4.49734 -0.35044,-6.33148c-0.84709,-1.4118 -2.71097,-1.04811 -3.80965,-2.03598c-0.29153,-0.26213 -0.42961,-0.82227 -0.61011,-1.20057z" data-paper-data="{&quot;noHover&quot;:false,&quot;origItem&quot;:[&quot;Path&quot;,{&quot;applyMatrix&quot;:true,&quot;segments&quot;:[[[73.62069,430.22272],[-1.31352,-1.18105],[4.9502,4.45096]],[[90.83392,439.35904],[-3.81661,-6.36101],[4.95833,8.26389]],[[92.44735,468.0803],[-1.24063,-8.68438],[0.01232,0.07741]],[[92.46608,468.31798],[0,-0.08088],[0,0.06653]],[[92.45335,468.51427],[0.0084,-0.06424],[0.54698,-0.08944]],[[94.02847,468.13732],[-0.5017,0.16256],[2.37278,-0.76885]],[[100.83359,463.96491],[-2.13487,1.28092],[3.25497,-1.95298]],[[111.71045,456.14666],[-1.49985,3.72694],[4.97806,-12.36989]],[[105.40041,417.86361],[3.77032,12.35438],[-2.77591,3.6588]],[[97.4263,426.47127],[1.33698,-1.10973],[-0.43943,0.36474]],[[93.31756,429.29407],[1.51486,-0.56454],[-1.4219,4.4534]],[[74.5713,429.69964],[1.78063,4.229],[-0.74743,-1.77514]],[[78.01373,425.75604],[-1.2458,-2.18014],[0.44211,0.26093]],[[78.75243,427.04877],[0,-0.55053],[0,0.19752]],[[78.64488,427.60759],[0.06938,-0.17271],[0.53463,2.62786]],[[90.2914,424.85031],[4.44199,5.93028],[-2.60676,-3.48016]],[[71.02951,424.93602],[5.46726,-0.48424],[0.81326,1.70444]]],&quot;closed&quot;:true}]}" fill="#a8a8a8"/><path d="M87.8534,211.89992c-0.25719,-1.65851 -3.39375,-1.51828 -4.90494,-0.9572c0.5172,-0.4672 1.01426,-1.01223 1.03425,-1.03095c0.02734,-0.02561 0.05365,-0.07221 0.08292,-0.093c1.47383,-1.04693 4.3319,-2.01569 6.03892,-1.20259c0.68771,0.32757 -1.42086,2.63238 -2.25115,3.28374z" data-paper-data="{&quot;noHover&quot;:false,&quot;origItem&quot;:[&quot;Path&quot;,{&quot;applyMatrix&quot;:true,&quot;segments&quot;:[[[103.79448,410.82466],[3.09853,1.4759],[-7.69115,-3.66348]],[[76.77706,416.21519],[6.64049,-4.71707],[-0.13188,0.09368]],[[76.40378,416.63035],[0.12319,-0.11539],[-0.09005,0.08435]],[[71.74159,421.24567],[2.33027,-2.10502],[6.80881,-2.52802]],[[93.68648,425.49893],[-1.1588,-7.47259],[3.74096,-2.93476]]],&quot;closed&quot;:true}]}" fill="#a8a8a8"/><path d="M87.70418,214.88832c0.03097,-0.08273 0.06264,-0.16023 0.09489,-0.23277c0.84674,-1.9039 2.10821,-0.38976 2.32111,-0.30266c0.30358,0.1242 1.11156,-0.54159 1.37413,-0.27902c0.69392,0.69392 -1.1788,0.9578 -1.51651,0.94486c-0.45048,-0.01726 -0.25006,-0.45598 -0.5478,-0.58122c-0.30782,-0.12948 -1.20063,1.01071 -1.46245,0.77645z" fill="#0002ff"/><path d="M88.12607,216.2215c0.05929,-0.10376 0.13599,-0.21214 0.223,-0.31435c0.4092,-0.48065 1.04652,-0.82452 1.17414,0.09354c0.03551,0.25541 0.46125,-0.23274 0.70222,-0.32456c0.39117,-0.14905 1.37911,-0.47035 1.39236,0.12738c0.0076,0.34279 -2.08745,1.00326 -2.26265,0.98925c-0.39953,-0.03197 -0.29906,-0.55152 -0.58985,-0.33641c-0.06925,0.05122 -0.17166,0.09734 -0.25566,0.09807c-0.06472,0.00056 -0.18943,0.00678 -0.21959,-0.04601z" fill="#ff0000"/></g><g fill-rule="nonzero" stroke-linejoin="miter"><path d="M115.90475,262.40702v-8.86051c0,-3.39926 2.76601,-6.16647 6.16646,-6.16647h27.51778c3.40048,0 6.16644,2.76716 6.16644,6.16647v8.86051c0,3.40283 -2.76599,6.16767 -6.16644,6.16767h-27.51661c-3.40048,0 -6.16766,-2.76484 -6.16766,-6.16766z" data-paper-data="{&quot;index&quot;:null}" fill="#b9a3cc" stroke="none" stroke-width="1" stroke-linecap="butt"/><path d="M132.39092,252.51446l6.87831,6.2508l-6.87831,6.25399" data-paper-data="{&quot;index&quot;:null}" fill="none" stroke="#ffffff" stroke-width="3.5" stroke-linecap="round"/></g></g></g></svg>