<svg version="1.1" xmlns="http://www.w3.org/2000/svg" xmlns:xlink="http://www.w3.org/1999/xlink" width="99.20614" height="119.40827" viewBox="0,0,99.20614,119.40827"><g transform="translate(-190.39693,-120.29588)"><g data-paper-data="{&quot;isPaintingLayer&quot;:true}" stroke-miterlimit="10" stroke-dasharray="" stroke-dashoffset="0" style="mix-blend-mode: normal"><path d="M289.60307,129.31305v101.37565c0,4.97152 -4.04218,9.01545 -9.01718,9.01545h-81.17351c-4.96979,0 -9.01545,-4.04392 -9.01545,-9.01544v-101.37738c0,-4.97152 4.04566,-9.01545 9.01545,-9.01545h81.17351c4.975,0 9.01718,4.04566 9.01718,9.01719z" fill-opacity="0.74902" fill="#d2d3d4" fill-rule="nonzero" stroke="none" stroke-width="1" stroke-linecap="butt" stroke-linejoin="miter"/><path d="M287.06513,163.26163v65.07452c0,4.97152 -4.04219,9.01545 -9.01719,9.01545l-76.09761,0.25093c-4.96979,0 -9.01545,-4.04392 -9.01545,-9.01545v-65.07627z" fill-opacity="0.85882" fill="#ffffff" fill-rule="nonzero" stroke="none" stroke-width="1" stroke-linecap="butt" stroke-linejoin="miter"/><text transform="translate(197.4876,200.16945) scale(0.28036,0.28036)" font-size="40" xml:space="preserve" fill="#000000" fill-rule="nonzero" stroke="#000000" stroke-width="1" stroke-linecap="butt" stroke-linejoin="miter" stroke-miterlimit="10" stroke-dasharray="" stroke-dashoffset="0" font-family="&quot;ヒラギノ角ゴ Pro W3&quot;, &quot;Hiragino Kaku Gothic Pro&quot;, Osaka, &quot;メイリオ&quot;, Meiryo, &quot;ＭＳ Ｐゴシック&quot;, &quot;MS PGothic&quot;" font-weight="normal" text-anchor="start" style="mix-blend-mode: normal"><tspan x="0" dy="0">魚屋</tspan></text><g fill-rule="nonzero" stroke="none" stroke-linecap="butt" stroke-linejoin="miter"><g fill="#45b5e6" stroke-width="0"><path d="M208.75315,213.93832l-6.05509,-6.05509l0.90827,-0.90827l6.05509,6.05509z"/><path d="M207.66481,204.70311c0.3036,0.3036 0.30354,0.79598 0,1.09952l-6.13918,6.13917c-0.3036,0.3036 -0.79592,0.30347 -1.09945,-0.00006l-2.54359,-2.54359c-0.3036,-0.3036 -0.3036,-0.79579 0,-1.0994l6.13911,-6.13911c0.30374,-0.30374 0.79586,-0.30366 1.09946,-0.00006l2.54358,2.54358z"/></g><text transform="translate(209.44316,210.32878) scale(0.19587,0.20747)" font-size="40" xml:space="preserve" fill="#585858" fill-rule="nonzero" stroke="none" stroke-width="1" stroke-linecap="butt" stroke-linejoin="miter" stroke-miterlimit="10" stroke-dasharray="" stroke-dashoffset="0" font-family="Sans Serif" font-weight="normal" text-anchor="start" style="mix-blend-mode: normal"><tspan x="0" dy="0">72,000G</tspan></text></g><g stroke-width="1"><g data-paper-data="{&quot;index&quot;:null}"><path d="M204.68463,214.69793c0.0443,-0.02953 0.11815,-0.01477 0.13292,0.04431l0.38401,1.58035c0,0 0.94524,0.69416 1.22588,1.18158c0.47263,0.81232 0.48739,1.47697 0.48739,1.47697c0,0 1.04864,0.31017 1.22589,1.15203c0.17723,0.84187 -0.47263,2.43699 -3.24931,2.98347c-2.7767,0.54647 -5.00691,-0.20678 -6.05557,-1.89052c-1.04864,-1.68374 0.60554,-3.69241 0.51693,-3.57425l-0.31017,-2.64377c-0.01477,-0.05909 0.05908,-0.10339 0.11814,-0.07385l1.78713,1.16681c0,0 0.66464,-0.25109 1.35881,-0.28063c0.41356,-0.02953 0.76802,0 1.10772,0.05909z" fill="#45b5e6" fill-rule="evenodd" stroke="#45b5e6" stroke-linecap="butt" stroke-linejoin="miter"/><path d="M209.58817,219.20268c-0.69417,0.56124 -1.7576,0.57601 -1.7576,0.57601" fill="#45b5e6" fill-rule="evenodd" stroke="#45b5e6" stroke-linecap="round" stroke-linejoin="round"/><path d="M209.39615,220.85687c-0.93048,0.07385 -1.50651,-0.20676 -1.50651,-0.20676" fill="#45b5e6" fill-rule="evenodd" stroke="#45b5e6" stroke-linecap="round" stroke-linejoin="round"/><path d="M197.72814,219.15836c0,0 1.27017,0.41356 1.78711,0.87141" fill="#45b5e6" fill-rule="evenodd" stroke="#45b5e6" stroke-linecap="round" stroke-linejoin="round"/><path d="M199.55957,220.54671c-0.6351,0.25108 -1.72804,0.08862 -1.72804,0.08862" fill="#45b5e6" fill-rule="evenodd" stroke="#45b5e6" stroke-linecap="round" stroke-linejoin="round"/><g fill="none" fill-rule="nonzero" stroke="none" stroke-linecap="butt" stroke-linejoin="miter" font-family="sans-serif" font-weight="normal" font-size="12" text-anchor="start"/><g fill="none" fill-rule="nonzero" stroke="none" stroke-linecap="butt" stroke-linejoin="miter" font-family="sans-serif" font-weight="normal" font-size="12" text-anchor="start"/></g><text transform="translate(209.44316,222.38156) scale(0.19588,0.20747)" font-size="40" xml:space="preserve" fill="#585858" fill-rule="nonzero" stroke="none" stroke-width="1" stroke-linecap="butt" stroke-linejoin="miter" stroke-miterlimit="10" stroke-dasharray="" stroke-dashoffset="0" font-family="Sans Serif" font-weight="normal" text-anchor="start" style="mix-blend-mode: normal"><tspan x="0" dy="0">370G</tspan></text></g><g fill-rule="nonzero" stroke="none" stroke-linecap="butt"><path d="M248.03087,215.93531c0.41438,-0.94222 1.30869,-1.59712 2.34778,-1.59712c1.4325,0 2.5951,1.24099 2.5951,2.77006c0,3.0114 -4.94287,7.00154 -4.94287,7.00154c0,0 -4.94286,-3.89088 -4.94286,-7.00154c0,-1.52908 1.1626,-2.77006 2.5951,-2.77006c1.03907,0 1.9334,0.65487 2.34776,1.59712z" fill="#45b5e6" stroke-width="0" stroke-linejoin="round"/><text transform="translate(253.23743,222.41856) scale(0.19589,0.20748)" font-size="40" xml:space="preserve" fill="#585858" fill-rule="nonzero" stroke="none" stroke-width="1" stroke-linecap="butt" stroke-linejoin="miter" stroke-miterlimit="10" stroke-dasharray="" stroke-dashoffset="0" font-family="Sans Serif" font-weight="normal" text-anchor="start" style="mix-blend-mode: normal"><tspan x="0" dy="0">6%</tspan></text></g><g fill-rule="nonzero" stroke="none" stroke-linecap="butt" stroke-linejoin="miter"><g fill="#45b5e6" stroke-width="0"><path d="M241.85852,206.60629l5.64578,-1.34827l3.23916,3.23917l-1.34825,5.64577l-3.23077,-3.23077l-0.02081,-1.06159h-1.04078z"/><path d="M254.06963,202.84012l-4.99544,4.99545l-0.90828,-0.90827l4.99544,-4.99545z"/></g><text transform="translate(252.97427,210.4311) scale(0.19589,0.20748)" font-size="40" xml:space="preserve" fill="#585858" fill-rule="nonzero" stroke="none" stroke-width="1" stroke-linecap="butt" stroke-linejoin="miter" stroke-miterlimit="10" stroke-dasharray="" stroke-dashoffset="0" font-family="Sans Serif" font-weight="normal" text-anchor="start" style="mix-blend-mode: normal"><tspan x="0" dy="0">620G</tspan></text></g><g><path d="M194.89041,186.32393v-60.49176h90.21921v60.49176z" data-paper-data="{&quot;index&quot;:null}" fill="#859ba8" fill-rule="nonzero" stroke="#666666" stroke-width="2" stroke-linecap="butt" stroke-linejoin="miter"/><g><g data-paper-data="{&quot;index&quot;:null}" fill-rule="evenodd" stroke-width="0.5"><g><path d="M272.94698,167.55333c0.83238,-0.17341 1.83819,-0.45088 2.67059,-1.21391c1.90756,-1.69947 2.49717,-4.50879 3.81513,-3.78045c1.35264,0.72834 1.31795,5.27181 -2.91336,6.65913c-1.45669,0.48557 -2.77464,0.48555 -3.84981,0.45088c-0.27746,0 -2.67059,-0.24278 -3.50298,-1.422c-0.83238,-1.17921 -0.24278,-1.49137 0.03468,-1.6301c0.31216,-0.17341 2.56654,1.14454 3.74577,0.93645z" fill="#ffab19" stroke="#001026" stroke-linecap="round" stroke-linejoin="round"/><path d="M279.22459,162.62835c0.69366,0.20809 1.04049,1.66477 0.69366,2.87868c-0.34683,1.21391 -0.90175,1.83819 -1.35263,2.28907c0.06937,-0.24278 0.20809,-1.0058 -0.38152,-1.45669c-0.72834,-0.58961 -2.01161,-0.27746 -2.01161,-0.27746c0,0 1.07517,-1.31795 1.6301,-2.25439c0.55493,-0.79771 0.72834,-1.31795 1.422,-1.17921z" fill="#ffffff" stroke="none" stroke-linecap="butt" stroke-linejoin="miter"/></g><path d="M263.75597,163.70352c0,0.90176 -0.72835,1.83819 -1.14454,2.39312c-0.41619,0.55492 -2.35845,2.60122 -4.75157,1.52606c-1.00581,-0.52024 -3.36425,-2.46249 -2.11566,-3.60702c1.24858,-1.14453 2.39313,0.27746 3.22551,1.0058c0.69366,0.62429 2.80933,-1.87287 2.98273,-2.01161c0.58961,-0.52024 1.76884,-0.27747 1.80352,0.69366z" fill="#ffab19" stroke="#001026" stroke-linecap="round" stroke-linejoin="round"/><g><path d="M264.51901,168.55913c-0.41619,-0.31215 -0.83239,-0.83238 -1.38732,-1.63009c-0.45088,-0.65897 -0.93643,-1.94225 -0.93643,-1.94225c-0.31216,-0.86708 -0.52024,-2.53185 0.6243,-2.49717c0.76302,0.03467 1.45668,-0.06938 2.6359,-0.24278c2.08098,-0.41619 2.46249,-0.69365 3.32957,0.72834c0.93644,1.66478 3.32957,2.87869 0.38151,5.75737c0,0 -1.69947,1.31795 -3.74576,3.32957c-1.38732,1.35263 -3.57235,3.29487 -4.33537,3.95385c-0.17341,0.13873 -0.38151,0.20811 -0.58961,0.24278c-3.36425,0.31215 -5.86142,-0.03469 -5.86142,-1.52605c0,-2.49717 4.95966,-1.6301 4.95966,-1.6301c0,0 1.59542,-1.35264 2.32375,-2.01162z" fill="#ffab19" stroke="#001026" stroke-linecap="round" stroke-linejoin="round"/><path d="M262.99297,166.23538c0,0 -0.65898,-0.86707 0.83238,-1.80351c1.56073,-1.00581 2.15035,0.10405 2.77464,0.93644c0.69366,1.07516 0,1.59542 -0.69366,2.21971c-0.55493,0.52024 -1.07517,0.93644 -1.07517,0.93644c0,0 -1.07518,-0.72834 -1.8382,-2.28907z" fill="#ffffff" stroke="none" stroke-linecap="butt" stroke-linejoin="miter"/></g><path d="M270.0336,165.12552c-0.38151,-0.24278 -0.90176,-0.65897 -1.42201,-1.04049c-0.86708,-0.62429 -2.11566,-2.01162 -0.38151,-2.63591c1.38732,-0.52024 2.63591,0.45089 4.12727,1.52605c0.76302,0.58961 1.66478,1.28327 1.35264,2.35845c-0.34683,1.21391 -2.0463,4.68219 -4.0926,3.53766c-1.49136,-1.00581 -0.31214,-2.21971 0.45088,-3.19084c0.10405,-0.17341 0.06937,-0.38152 -0.03468,-0.55493z" fill="#ffab19" stroke="#001026" stroke-linecap="round" stroke-linejoin="round"/><g><path d="M262.12589,145.07877c0.79771,-0.13873 1.6301,-0.2081 2.60122,-0.13874c1.6301,0.06937 3.19084,0.65897 3.19084,0.65897l4.19664,-2.73995c0.13873,-0.06937 0.31214,0.03468 0.27747,0.17342l-0.72834,6.20826c-0.2081,-0.27746 3.67639,4.43941 1.2139,8.39326c-2.46249,3.95386 -7.69961,5.72269 -14.22001,4.43942c-6.5204,-1.28327 -8.04644,-5.02903 -7.63025,-7.00595c0.41619,-1.97692 2.87869,-2.70528 2.87869,-2.70528c0,0 0.03468,-1.56073 1.14454,-3.46829c0.65897,-1.14453 2.87868,-2.77464 2.87868,-2.77464l0.90176,-3.71107c0.03467,-0.13873 0.2081,-0.17342 0.31214,-0.10405z" fill="#ffab19" stroke="#001026" stroke-linecap="butt" stroke-linejoin="miter"/><path d="M259.73277,154.20039c2.91337,0.20809 6.90191,-2.94805 9.22567,0.76302c2.32375,3.6764 -1.66478,8.67074 -10.05806,6.93659c-6.45103,-1.24858 -8.11581,-4.82093 -7.69961,-6.79786c0.41619,-1.97692 2.80931,-2.60122 2.80931,-2.60122c2.94806,-0.65897 3.22552,1.52606 5.7227,1.69947z" fill="#ffffff" stroke="none" stroke-linecap="butt" stroke-linejoin="miter"/><path d="M261.57096,160.478c-3.64171,0.20809 -4.95965,-2.39312 -5.2718,-3.32957c-0.06937,-0.17341 0.06936,-0.34681 0.24278,-0.31214c0.52024,0.10405 1.6301,0.2081 3.50297,0.10405c2.08098,-0.13873 3.95386,-0.69366 4.61284,-0.93644c0.13873,-0.03467 0.27746,0.06937 0.27746,0.2081c0.10405,1.69947 -0.20811,3.91916 -3.36425,4.266z" fill="#ffffff" stroke="#001026" stroke-linecap="round" stroke-linejoin="round"/><path d="M251.75569,154.23507c0,0 -2.49717,-0.03468 -4.12727,-1.35263" fill="none" stroke="#001026" stroke-linecap="round" stroke-linejoin="round"/><path d="M251.61696,156.28137c0,0 -1.35263,0.65897 -3.53766,0.48556" fill="none" stroke="#001026" stroke-linecap="round" stroke-linejoin="round"/><path d="M261.46692,153.74951c0,0.55492 -1.45668,1.422 -2.08098,1.35263c-0.55493,-0.03467 -1.07516,-1.0058 -1.04049,-1.49137c0.03467,-0.24278 0.79771,-0.31214 1.52605,-0.31214c0.69366,0 1.6301,0.03468 1.59542,0.45088z" fill="#001026" stroke="#001026" stroke-linecap="round" stroke-linejoin="round"/><path d="M271.28219,154.82468c1.21391,-1.07516 4.19664,-2.04629 4.19664,-2.04629" fill="none" stroke="#001026" stroke-linecap="round" stroke-linejoin="round"/><path d="M275.23604,156.24668c0,0 -2.56653,0.38151 -4.0579,-0.2081" fill="none" stroke="#001026" stroke-linecap="round" stroke-linejoin="round"/><g><path d="M259.38594,147.57595c0.97112,0.62429 0.93644,2.39312 -0.06937,3.95386c-1.04049,1.56073 -2.6359,2.28907 -3.60703,1.66477c-0.97113,-0.62429 -0.93644,-2.39312 0.06937,-3.95385c1.0058,-1.56073 2.63591,-2.32376 3.60702,-1.66478z" fill="#ffffff" stroke="#001026" stroke-linecap="round" stroke-linejoin="round"/><path d="M255.91764,151.21766c0,-0.38152 0.27746,-0.69366 0.6243,-0.69366c0.34683,0 0.6243,0.31214 0.6243,0.69366c0,0.38152 -0.27746,0.69366 -0.6243,0.69366c-0.34683,0 -0.6243,-0.31216 -0.6243,-0.69366" fill="#001026" stroke="none" stroke-linecap="butt" stroke-linejoin="miter"/></g><g><path d="M268.12604,148.65111c1.07517,0.76302 1.00581,2.73995 -0.06936,4.26601c-1.04049,1.52606 -2.56654,2.01162 -3.71108,1.35264c-0.93644,-0.65897 -1.00581,-2.53185 0.03468,-4.0579c1.04049,-1.52606 2.67059,-2.35845 3.74576,-1.56074z" fill="#ffffff" stroke="#001026" stroke-linecap="round" stroke-linejoin="round"/><path d="M264.58838,152.22346c0,-0.38152 0.27746,-0.65898 0.6243,-0.69365c0.34683,0 0.6243,0.31215 0.6243,0.69365c0,0.38152 -0.27746,0.69366 -0.6243,0.69366c-0.34683,0 -0.6243,-0.31215 -0.6243,-0.69366" fill="#001026" stroke="none" stroke-linecap="butt" stroke-linejoin="miter"/></g></g></g><path d="M255.08857,147.95289c0,0 0.39626,-1.17401 0.72406,-1.56383c0.52189,-0.62063 2.10566,-1.80124 2.10566,-1.80124c0,0 7.52418,0.5431 9.85926,1.02578c2.2226,0.45943 3.83047,1.80394 3.83047,1.80394c0,0 0.49485,1.31689 0.60564,1.89858c0.08769,0.46036 0.23563,1.39002 0.23563,1.39002c0,0 -2.23213,-1.37472 -5.25378,-2.16823c-1.9087,-0.50125 -4.82151,-0.57128 -6.00081,-0.71323c-1.90753,-0.2296 -6.10614,0.12823 -6.10614,0.12823z" data-paper-data="{&quot;index&quot;:null}" fill="#fffaf2" fill-rule="nonzero" stroke="none" stroke-width="0" stroke-linecap="butt" stroke-linejoin="miter"/></g><g data-paper-data="{&quot;index&quot;:null}" fill-rule="evenodd" stroke-linejoin="miter"><g fill="none" stroke="#ffffff" stroke-width="2.52" stroke-linecap="round"><path d=""/><path d=""/></g><g fill="none" stroke="#cc48cc" stroke-width="1.512" stroke-linecap="round"><path d=""/><path d=""/><path d=""/><path d=""/><path d=""/><path d=""/><path d=""/><path d=""/><path d=""/><path d=""/><path d=""/><path d=""/><path d=""/><path d=""/><path d=""/><path d=""/><path d=""/><path d=""/><path d=""/><path d=""/><path d=""/></g><path d="" fill="none" stroke="#5e154d" stroke-width="1.512" stroke-linecap="butt"/><g stroke="#4b4b4b" stroke-width="1.512" stroke-linecap="round"><path d="M283.43044,127.43451v12.32065c0,0.20623 -0.01296,0.40943 -0.03811,0.60885c-0.29954,2.37492 -2.32819,4.2118 -4.78624,4.2118c-2.66455,0 -4.82445,-2.15831 -4.82445,-4.82065v-12.32065z" fill="#5386e6"/><path d="M273.61364,127.43451v12.32065c0.17055,1.82182 -0.70587,3.58315 -2.26247,4.54694c-1.5567,0.96369 -3.52527,0.96369 -5.08197,0c-1.5567,-0.96379 -2.43312,-2.72513 -2.26247,-4.54694v-12.32065z" fill="#ffffff"/><path d="M264.00681,127.43451v12.32065c0,2.66235 -2.16001,4.82065 -4.82445,4.82065c-2.66445,0 -4.82445,-2.15831 -4.82445,-4.82065v-12.32065z" fill="#5386e6"/><path d="M254.35791,127.43451v12.32065c0.17055,1.82182 -0.70587,3.58315 -2.26247,4.54694c-1.5566,0.96369 -3.52517,0.96369 -5.08187,0c-1.5567,-0.96379 -2.43312,-2.72513 -2.26247,-4.54694v-12.32065z" fill="#ffffff"/><path d="M244.75109,127.43451v12.32065c0,2.66235 -2.16001,4.82065 -4.82445,4.82065c-2.66455,0 -4.82445,-2.15831 -4.82445,-4.82065v-12.32065z" fill="#5386e6"/><path d="M235.10205,127.43451v12.32065c0,2.66235 -2.16001,4.82065 -4.82445,4.82065c-2.66455,0 -4.82435,-2.15831 -4.82435,-4.82065v-12.32065z" fill="#ffffff"/><path d="M225.45328,127.43451v12.32065c0.17055,1.82182 -0.70587,3.58315 -2.26257,4.54694c-1.5566,0.96369 -3.52517,0.96369 -5.08187,0c-1.5567,-0.96379 -2.43312,-2.72513 -2.26247,-4.54694v-12.32065z" fill="#5386e6"/><path d="M215.84622,127.43451v12.32065c0,2.66235 -2.16001,4.82065 -4.82445,4.82065c-2.66455,0 -4.82435,-2.15831 -4.82435,-4.82065v-12.32065z" fill="#ffffff"/><path d="M206.19745,127.43451v12.32065c0.17055,1.82182 -0.70587,3.58315 -2.26257,4.54694c-1.5567,0.96369 -3.52517,0.96369 -5.08187,0c-1.5567,-0.96379 -2.43312,-2.72513 -2.26257,-4.54694v-12.32065z" fill="#5386e6"/></g><path d="" fill="#5e154d" stroke="#5e154d" stroke-width="2.016" stroke-linecap="round"/></g><path d="M195.90976,185.48143v-3.6523h88.18031v3.6523z" fill="#c0c0c0" fill-rule="nonzero" stroke="none" stroke-width="0" stroke-linecap="butt" stroke-linejoin="miter"/><path d="M246.69653,169.44748v12.35874h-44.2617v-12.35874z" fill="#b7c7e6" fill-rule="nonzero" stroke="none" stroke-width="0" stroke-linecap="butt" stroke-linejoin="miter"/><path d="M202.43483,169.44748v-9.54126h44.2617v9.54126z" fill="#dfe6f4" fill-rule="nonzero" stroke="none" stroke-width="0" stroke-linecap="butt" stroke-linejoin="miter"/><path d="M284.09518,169.44748v12.35874h-18.85185v-12.35874z" fill="#b7c7e6" fill-rule="nonzero" stroke="none" stroke-width="0" stroke-linecap="butt" stroke-linejoin="miter"/><path d="M265.24333,169.44748v-9.54126h18.85185v9.54126z" fill="#dfe6f4" fill-rule="nonzero" stroke="none" stroke-width="0" stroke-linecap="butt" stroke-linejoin="miter"/><g fill-rule="nonzero" stroke="none" stroke-width="0.5" stroke-linecap="butt" stroke-linejoin="miter"><path d="M278.35236,163.22768l-0.00357,0.00579l-0.01027,0.00239l-0.03305,0.01952l-0.09212,0.02851l-0.11812,0.00844l-0.11494,0.02667h-0.00226l-0.07592,0.0302l-0.08769,0.01314l-0.08146,0.03288l-0.18424,0.0285l-0.0614,-0.00456l-0.02733,0.00634l-0.14215,0.04949l-0.04239,0.00449l-0.03764,0.01864l-0.12283,0.02851h-0.04519l-0.04214,0.01514l-0.24566,0.02851l-0.04624,-0.0052l-0.04517,0.01049h-2.0574l-0.03305,-0.00768l-0.03367,0.00486l-0.33778,-0.02851l-0.02648,-0.00858l-0.02796,0.00207l-0.12408,-0.01919h-0.27679l-0.09972,-0.02315l-0.10274,-0.00317l-0.21495,-0.05702l-0.05977,-0.03202l-0.06736,-0.01389l-0.01837,-0.00853l-0.26619,-0.06178l-0.01444,-0.02346l-0.02905,-0.0015l-0.06909,-0.07483l-0.00205,-0.00095l-0.05086,-0.04047l-0.06174,-0.02413l-0.09242,-0.06435l-0.10739,-0.05982l-0.04024,-0.01137l-0.17757,-0.04121l-0.00668,-0.01084l-0.00401,-0.00114l-0.0595,-0.03314l-0.01644,-0.00382l-0.12885,-0.0638l-0.09868,-0.03858l-0.00366,-0.00085l-0.07135,-0.01472l-0.02121,0.00537l-0.02778,-0.01548l-0.04497,-0.00928l-0.01837,-0.00852l-0.02053,-0.00477l-0.0041,-0.00667l-0.01841,-0.00854l-0.08598,-0.06842l-0.09827,-0.04561l-0.03343,-0.0266l-0.03069,-0.00712l-0.00369,-0.00183l-0.01298,0.00329l-0.15696,-0.08743l-0.16151,-0.07996l-0.00364,-0.01202l-0.0036,-0.002l-0.00755,-0.00701l-0.00716,-0.00332l-0.01127,0.00072l-0.14107,-0.11906l-0.14476,-0.11519l-0.00052,-0.00884l-0.04056,-0.01059l-0.03127,-0.05445l-0.05046,-0.04016l-0.00319,-0.05323l-0.02826,-0.04921l-0.00963,-0.00251l-0.03128,-0.05445l-0.05047,-0.04016l-0.00319,-0.05323l-0.06138,-0.10684l-0.00723,-0.00189l-0.05271,-0.09177l-0.07536,-0.07695l0.00357,-0.04801l-0.04157,-0.07236l-0.04899,-0.05306l-0.03071,-0.05702l-0.00991,-0.04138l-0.04333,-0.05364l-0.02335,-0.05148l-0.03193,-0.01694l-0.03543,-0.13157l-0.05669,-0.12499l0.01459,-0.03133l-0.01459,-0.05419v-0.72507l-0.00459,-0.00639l0.00459,-0.01918v-0.01907l0.03071,-0.11403v-0.05702l0.01459,-0.05419l-0.01459,-0.03133l0.05669,-0.125l0.03543,-0.13157l0.03192,-0.01693l0.02066,-0.04555l-0.00144,-0.0049l0.09418,-0.14571l0.08614,-0.14994l0.01295,-0.00338l0.00216,-0.00333l0.04606,-0.04276l0.04606,-0.07127l0.00756,-0.00701l0.00793,-0.01472l0.03916,-0.04242l0.00204,-0.03408l0.11092,-0.08827l0.00135,-0.00146l0.00993,-0.01384l0.00063,-0.01047l0.04478,-0.03563l0.03838,-0.04157l0.01482,-0.00077l0.01363,-0.01085l0.01599,-0.02226l0.05184,-0.04375l0.00786,-0.0365l0.11793,-0.06966l0.00182,-0.00153l0.00308,-0.01432l0.04627,-0.02734l0.05224,-0.04409l0.00354,0.00023l0.03946,-0.04274l0.05626,-0.0029l0.12267,-0.07246l0.05221,-0.01615l0.0177,-0.01808l0.18424,-0.11403l0.13486,-0.04471l0.12941,-0.05691l0.0648,-0.01203l0.01832,-0.02976l0.09187,-0.02133l0.0812,-0.04523l0.04131,0.01046l0.00057,-0.00092l0.02053,-0.00477l0.01837,-0.00852l0.1653,-0.0341l0.16429,-0.03813h0.02053l0.02066,-0.00427l0.00689,0.00427h1.42587l0.11494,0.02667l0.11812,0.00843l0.0486,0.01504l0.03699,0.00686h0.08056l0.08802,0.02043h0.09073l0.24566,0.05702l0.0255,0.01262l0.02881,0.00206l0.06527,0.0202l0.00736,0.00171h0.01472l0.00689,-0.00426l0.02066,0.00426h0.02053l0.16429,0.03813l0.1653,0.03411l0.01837,0.00852l0.02053,0.00476l0.0041,0.00668l0.04212,0.01954l0.07493,0.01159l0.10096,0.04076l0.10747,0.02217l0.13911,0.06457l0.07653,0.02537l0.16105,0.03737l0.01239,0.02013l0.02792,0.00926l0.01,0.00619l0.09061,0.02804l0.04476,0.02644l0.05178,0.01068l0.04907,0.02278l0.07406,0.01719l0.11812,0.00843l0.09212,0.0285l0.03304,0.01953l0.01027,0.00238l0.00357,0.00579l0.07578,0.04478l0.05626,0.0029l0.01642,0.01778l0.02671,0.0062l0.09616,0.04761l0.10426,0.02946l0.12926,0.07201l0.1735,0.08053l0.04243,0.01313l0.06847,0.04046l0.07765,0.02193l0.12927,0.07201l0.15893,0.07377l0.08995,0.07158l0.10159,0.05658l0.09129,0.08475l0.00916,0.00541l0.0938,0.05224l0.0005,0.00017l0.00184,0.00114l0.04907,0.02733l0.00408,0.00379h0.00541l0.01464,0.01419l0.01709,0.01058l0.11391,0.11632l0.11716,0.1135l0.01019,0.01655l0.01423,0.01454l-0.00057,0.00766l0.09897,0.1608l0.00995,0.03286l0.00905,0.00981l0.12824,0.13097l-0.00077,0.01047l0.06725,0.12486l0.01551,0.02159c0.77249,-0.29429 1.58883,-0.46664 1.88701,-0.28209c0.103,-0.05082 0.22055,-0.07961 0.34533,-0.07961c0.40702,0 0.73698,0.30632 0.73698,0.68419c0,0.22177 -0.11366,0.4189 -0.28984,0.54392c0.15616,1.65026 -0.51999,4.13444 -1.76734,3.4683c-0.30136,-0.16094 -0.91102,-0.72815 -1.45925,-1.36313z" fill="#5089a0"/><path d="M275.69611,165.56538l-0.00357,0.00579l-0.01027,0.00239l-0.03304,0.01952l-0.09213,0.02851l-0.11812,0.00844l-0.11493,0.02667h-0.00227l-0.07591,0.0302l-0.08769,0.01314l-0.08146,0.03288l-0.18424,0.0285l-0.0614,-0.00456l-0.02732,0.00634l-0.14215,0.04949l-0.04239,0.00449l-0.03764,0.01864l-0.12283,0.02851h-0.04519l-0.04215,0.01514l-0.24566,0.02851l-0.04623,-0.0052l-0.04518,0.01049h-2.0574l-0.03305,-0.00768l-0.03366,0.00486l-0.33778,-0.02851l-0.02648,-0.00858l-0.02796,0.00207l-0.12408,-0.01919h-0.27679l-0.09973,-0.02315l-0.10274,-0.00317l-0.21495,-0.05702l-0.05977,-0.03201l-0.06735,-0.01389l-0.01837,-0.00853l-0.26619,-0.06178l-0.01444,-0.02346l-0.02905,-0.0015l-0.0691,-0.07483l-0.00205,-0.00095l-0.05086,-0.04047l-0.06174,-0.02413l-0.09242,-0.06435l-0.10739,-0.05982l-0.04023,-0.01137l-0.17758,-0.04121l-0.00668,-0.01084l-0.00401,-0.00114l-0.0595,-0.03314l-0.01644,-0.00382l-0.12885,-0.0638l-0.09868,-0.03858l-0.00366,-0.00085l-0.07134,-0.01472l-0.02121,0.00537l-0.02778,-0.01548l-0.04497,-0.00928l-0.01836,-0.00852l-0.02054,-0.00477l-0.00411,-0.00667l-0.01841,-0.00854l-0.08598,-0.06842l-0.09827,-0.04561l-0.03343,-0.0266l-0.03068,-0.00712l-0.0037,-0.00183l-0.01298,0.00329l-0.15695,-0.08743l-0.16151,-0.07997l-0.00365,-0.01202l-0.00359,-0.002l-0.00756,-0.00701l-0.00716,-0.00332l-0.01127,0.00072l-0.14107,-0.11906l-0.14476,-0.11519l-0.00053,-0.00884l-0.04055,-0.01059l-0.03128,-0.05445l-0.05046,-0.04016l-0.00319,-0.05323l-0.02826,-0.04921l-0.00964,-0.00251l-0.03128,-0.05445l-0.05047,-0.04016l-0.00318,-0.05323l-0.06138,-0.10684l-0.00723,-0.00189l-0.05271,-0.09177l-0.07536,-0.07695l0.00356,-0.04801l-0.04156,-0.07236l-0.04899,-0.05306l-0.03071,-0.05702l-0.00991,-0.04138l-0.04333,-0.05364l-0.02335,-0.05148l-0.03193,-0.01694l-0.03543,-0.13157l-0.05669,-0.12499l0.01459,-0.03133l-0.01459,-0.05419v-0.72507l-0.00459,-0.00639l0.00459,-0.01918v-0.01907l0.03071,-0.11403v-0.05702l0.01459,-0.05419l-0.01459,-0.03133l0.05669,-0.125l0.03543,-0.13157l0.03193,-0.01693l0.02066,-0.04555l-0.00144,-0.0049l0.09418,-0.14571l0.08614,-0.14994l0.01295,-0.00338l0.00216,-0.00333l0.04606,-0.04276l0.04606,-0.07127l0.00756,-0.00701l0.00793,-0.01472l0.03916,-0.04242l0.00204,-0.03408l0.11092,-0.08827l0.00135,-0.00146l0.00994,-0.01384l0.00063,-0.01047l0.04478,-0.03563l0.03838,-0.04157l0.01483,-0.00077l0.01364,-0.01085l0.01598,-0.02226l0.05184,-0.04375l0.00786,-0.0365l0.11792,-0.06966l0.00182,-0.00153l0.00308,-0.01432l0.04627,-0.02734l0.05225,-0.04409l0.00353,0.00023l0.03946,-0.04274l0.05627,-0.0029l0.12266,-0.07246l0.05221,-0.01616l0.0177,-0.01808l0.18424,-0.11403l0.13486,-0.04471l0.12941,-0.05691l0.0648,-0.01203l0.01832,-0.02976l0.09186,-0.02133l0.0812,-0.04523l0.04131,0.01046l0.00057,-0.00092l0.02053,-0.00477l0.01837,-0.00852l0.1653,-0.0341l0.16428,-0.03813h0.02053l0.02067,-0.00427l0.00689,0.00427h1.42587l0.11494,0.02667l0.11812,0.00843l0.0486,0.01504l0.03699,0.00686h0.08056l0.08801,0.02043h0.09073l0.24565,0.05702l0.0255,0.01262l0.02881,0.00206l0.06528,0.0202l0.00735,0.00171h0.01472l0.00689,-0.00426l0.02067,0.00426h0.02053l0.16428,0.03813l0.1653,0.03411l0.01837,0.00852l0.02053,0.00476l0.00411,0.00667l0.04212,0.01955l0.07493,0.01159l0.10096,0.04076l0.10747,0.02217l0.13911,0.06457l0.07652,0.02537l0.16106,0.03737l0.01238,0.02013l0.02792,0.00926l0.01,0.00619l0.09062,0.02804l0.04475,0.02644l0.05178,0.01068l0.04908,0.02278l0.07405,0.01719l0.11812,0.00843l0.09213,0.0285l0.03305,0.01953l0.01026,0.00238l0.00357,0.00579l0.07578,0.04478l0.05627,0.0029l0.01641,0.01778l0.02671,0.0062l0.09616,0.04761l0.10426,0.02946l0.12926,0.07201l0.1735,0.08053l0.04243,0.01313l0.06848,0.04046l0.07764,0.02193l0.12927,0.07201l0.15893,0.07377l0.08995,0.07158l0.10159,0.05658l0.09129,0.08475l0.00916,0.00541l0.0938,0.05224l0.0005,0.00017l0.00184,0.00114l0.04906,0.02733l0.00408,0.00379h0.00541l0.01464,0.01419l0.01709,0.01058l0.11391,0.11632l0.11716,0.1135l0.01019,0.01655l0.01424,0.01454l-0.00057,0.00766l0.09897,0.1608l0.00995,0.03286l0.00905,0.00981l0.12825,0.13097l-0.00078,0.01047l0.06725,0.12486l0.01551,0.02159c0.77249,-0.29429 1.58884,-0.46664 1.88702,-0.28209c0.103,-0.05082 0.22054,-0.07961 0.34532,-0.07961c0.40702,0 0.73698,0.30632 0.73698,0.68419c0,0.22177 -0.11366,0.4189 -0.28984,0.54392c0.15616,1.65026 -0.51999,4.13444 -1.76734,3.4683c-0.30136,-0.16094 -0.91101,-0.72815 -1.45924,-1.36313z" fill="#5ea2bd"/><path d="M277.57111,167.44038l-0.00357,0.00579l-0.01027,0.00239l-0.03305,0.01952l-0.09212,0.02851l-0.11812,0.00844l-0.11494,0.02667h-0.00226l-0.07592,0.0302l-0.08769,0.01314l-0.08146,0.03288l-0.18424,0.0285l-0.0614,-0.00456l-0.02733,0.00634l-0.14215,0.04949l-0.04239,0.00449l-0.03764,0.01864l-0.12283,0.02851h-0.04519l-0.04214,0.01514l-0.24566,0.02851l-0.04624,-0.0052l-0.04517,0.01049h-2.0574l-0.03305,-0.00768l-0.03367,0.00486l-0.33778,-0.02851l-0.02648,-0.00858l-0.02796,0.00207l-0.12408,-0.01919h-0.27679l-0.09972,-0.02315l-0.10274,-0.00317l-0.21495,-0.05702l-0.05977,-0.03201l-0.06736,-0.01389l-0.01837,-0.00853l-0.26619,-0.06178l-0.01444,-0.02346l-0.02905,-0.0015l-0.06909,-0.07483l-0.00205,-0.00095l-0.05086,-0.04047l-0.06174,-0.02413l-0.09242,-0.06435l-0.10739,-0.05982l-0.04024,-0.01137l-0.17757,-0.04121l-0.00668,-0.01084l-0.00401,-0.00114l-0.0595,-0.03314l-0.01644,-0.00382l-0.12885,-0.0638l-0.09868,-0.03858l-0.00366,-0.00085l-0.07135,-0.01472l-0.02121,0.00537l-0.02778,-0.01548l-0.04497,-0.00928l-0.01837,-0.00852l-0.02053,-0.00477l-0.0041,-0.00667l-0.01841,-0.00854l-0.08598,-0.06842l-0.09827,-0.04561l-0.03343,-0.0266l-0.03069,-0.00712l-0.00369,-0.00183l-0.01298,0.00329l-0.15696,-0.08743l-0.16151,-0.07997l-0.00364,-0.01202l-0.0036,-0.002l-0.00755,-0.00701l-0.00716,-0.00332l-0.01127,0.00072l-0.14107,-0.11906l-0.14476,-0.11519l-0.00052,-0.00884l-0.04056,-0.01059l-0.03127,-0.05445l-0.05046,-0.04016l-0.00319,-0.05323l-0.02826,-0.04921l-0.00963,-0.00251l-0.03128,-0.05445l-0.05047,-0.04016l-0.00319,-0.05323l-0.06138,-0.10684l-0.00723,-0.00189l-0.05271,-0.09177l-0.07536,-0.07695l0.00357,-0.04801l-0.04157,-0.07236l-0.04899,-0.05306l-0.03071,-0.05702l-0.00991,-0.04138l-0.04333,-0.05364l-0.02335,-0.05148l-0.03193,-0.01694l-0.03543,-0.13157l-0.05669,-0.12499l0.01459,-0.03133l-0.01459,-0.05419v-0.72507l-0.00459,-0.00639l0.00459,-0.01918v-0.01907l0.03071,-0.11403v-0.05702l0.01459,-0.05419l-0.01459,-0.03133l0.05669,-0.125l0.03543,-0.13157l0.03192,-0.01693l0.02066,-0.04555l-0.00144,-0.0049l0.09418,-0.14571l0.08614,-0.14994l0.01295,-0.00338l0.00216,-0.00333l0.04606,-0.04276l0.04606,-0.07127l0.00756,-0.00701l0.00793,-0.01472l0.03916,-0.04242l0.00204,-0.03408l0.11092,-0.08827l0.00135,-0.00146l0.00993,-0.01384l0.00063,-0.01047l0.04478,-0.03563l0.03838,-0.04157l0.01482,-0.00077l0.01363,-0.01085l0.01599,-0.02226l0.05184,-0.04375l0.00786,-0.0365l0.11793,-0.06966l0.00182,-0.00153l0.00308,-0.01432l0.04627,-0.02734l0.05224,-0.04409l0.00354,0.00023l0.03946,-0.04274l0.05626,-0.0029l0.12267,-0.07246l0.05221,-0.01616l0.0177,-0.01808l0.18424,-0.11403l0.13486,-0.04471l0.12941,-0.05691l0.0648,-0.01203l0.01832,-0.02976l0.09187,-0.02133l0.0812,-0.04523l0.04131,0.01046l0.00057,-0.00092l0.02053,-0.00477l0.01837,-0.00852l0.1653,-0.0341l0.16429,-0.03813h0.02053l0.02066,-0.00427l0.00689,0.00427h1.42587l0.11494,0.02667l0.11812,0.00843l0.0486,0.01504l0.03699,0.00686h0.08056l0.08802,0.02043h0.09073l0.24566,0.05702l0.0255,0.01262l0.02881,0.00206l0.06527,0.0202l0.00736,0.00171h0.01472l0.00689,-0.00426l0.02066,0.00426h0.02053l0.16429,0.03813l0.1653,0.03411l0.01837,0.00852l0.02053,0.00476l0.0041,0.00667l0.04212,0.01955l0.07493,0.01159l0.10096,0.04076l0.10747,0.02217l0.13911,0.06457l0.07653,0.02537l0.16105,0.03737l0.01239,0.02013l0.02792,0.00926l0.01,0.00619l0.09061,0.02804l0.04476,0.02644l0.05178,0.01068l0.04907,0.02278l0.07406,0.01719l0.11812,0.00843l0.09212,0.0285l0.03304,0.01953l0.01027,0.00238l0.00357,0.00579l0.07578,0.04478l0.05626,0.0029l0.01642,0.01778l0.02671,0.0062l0.09616,0.04761l0.10426,0.02946l0.12926,0.07201l0.1735,0.08053l0.04243,0.01313l0.06847,0.04046l0.07765,0.02193l0.12927,0.07201l0.15893,0.07377l0.08995,0.07158l0.10159,0.05658l0.09129,0.08475l0.00916,0.00541l0.0938,0.05224l0.0005,0.00017l0.00184,0.00114l0.04907,0.02733l0.00408,0.00379h0.00541l0.01464,0.01419l0.01709,0.01058l0.11391,0.11632l0.11716,0.1135l0.01019,0.01655l0.01423,0.01454l-0.00057,0.00766l0.09897,0.1608l0.00995,0.03286l0.00905,0.00981l0.12824,0.13097l-0.00077,0.01047l0.06725,0.12486l0.01551,0.02159c0.77249,-0.29429 1.58883,-0.46664 1.88701,-0.28209c0.103,-0.05082 0.22055,-0.07961 0.34533,-0.07961c0.40702,0 0.73698,0.30632 0.73698,0.68419c0,0.22177 -0.11366,0.4189 -0.28984,0.54392c0.15616,1.65026 -0.51999,4.13444 -1.76734,3.4683c-0.30136,-0.16094 -0.91102,-0.72815 -1.45925,-1.36313z" fill="#70bfde"/></g><path d="M236.95576,163.39087c-0.91255,-0.1332 -3.16999,-1.13483 -2.90278,-2.3656c0.10118,-0.466 0.57,-0.31989 0.72914,-0.64255c0.05507,-0.11166 -0.26307,-0.8864 -0.11025,-1.25827c0.27065,-0.65856 1.36363,-1.29154 1.96009,-1.52683c1.93709,-0.76413 5.44575,0.92195 6.16988,2.94699c0.57648,-0.26659 2.02384,-1.14422 2.47814,-0.49989c0.67488,0.95719 0.38325,3.79815 -0.73809,4.15194c-0.14717,0.04644 -1.16712,-0.63966 -2.00913,-1.29466c-1.25475,1.04743 -4.50972,0.64466 -5.577,0.48888z" fill="#ab5a5a" fill-rule="nonzero" stroke="none" stroke-width="0.5" stroke-linecap="butt" stroke-linejoin="miter"/><path d="M237.41393,166.74485c-0.91802,0.08791 -3.34902,-0.34742 -3.38253,-1.60642c-0.01269,-0.4767 0.47744,-0.44642 0.55518,-0.79769c0.0269,-0.12156 -0.46655,-0.79827 -0.40667,-1.19583c0.10606,-0.70406 1.0169,-1.57907 1.54018,-1.94961c1.69944,-1.20337 5.50865,-0.40117 6.69411,1.39321c0.49642,-0.39618 1.69321,-1.59319 2.28785,-1.07555c0.88338,0.76898 1.27654,3.59767 0.27169,4.20827c-0.13188,0.08014 -1.28586,-0.34338 -2.2596,-0.77906c-0.96928,1.31606 -4.22653,1.69987 -5.30022,1.80268z" fill="#ca6b6b" fill-rule="nonzero" stroke="none" stroke-width="0.5" stroke-linecap="butt" stroke-linejoin="miter"/><path d="M236.20876,168.18557c-0.92088,-0.04954 -3.26017,-0.84141 -3.10614,-2.09141c0.05832,-0.47329 0.5385,-0.37048 0.6676,-0.70629c0.04467,-0.11621 -0.3427,-0.85877 -0.22438,-1.24301c0.20954,-0.68046 1.24034,-1.41035 1.81289,-1.69899c1.85945,-0.93736 5.50708,0.42219 6.41262,2.37286c0.5498,-0.31798 1.91124,-1.32378 2.42233,-0.7235c0.75925,0.89175 0.72754,3.74746 -0.35692,4.2019c-0.14233,0.05964 -1.22053,-0.53071 -2.11868,-1.10631c-1.15414,1.15735 -4.43227,1.05268 -5.50931,0.99474z" fill="#f58282" fill-rule="nonzero" stroke="none" stroke-width="0.5" stroke-linecap="butt" stroke-linejoin="miter"/><path d="M203.2016,159.95999c0.83299,-2.3509 6.83597,-1.30411 9.4644,0.22817c0.59269,-0.41357 1.12971,-0.75493 1.34147,-0.87595c0.17395,-0.29474 0.49479,-0.49247 0.86182,-0.49247c0.55229,0 1,0.44771 1,1c0,0.02705 -0.00108,0.05385 -0.00319,0.08036c0.66399,1.21953 0.69153,2.95095 -0.49681,3.63001c-0.53884,0.30791 -2.5404,0.1561 -3.80791,-0.34444c-3.71263,1.02274 -9.54395,0.11635 -8.35978,-3.22569z" fill="#8c6955" fill-rule="nonzero" stroke="none" stroke-width="0.5" stroke-linecap="butt" stroke-linejoin="miter"/><path d="M203.07283,163.27684c0.33471,-2.47155 6.4249,-2.67428 9.3111,-1.7118c0.49561,-0.52602 0.95148,-0.96998 1.13403,-1.13173c0.11001,-0.32408 0.38365,-0.58324 0.74292,-0.65828c0.54062,-0.11292 1.07041,0.2338 1.18334,0.77441c0.00553,0.02648 0.00996,0.05293 0.01332,0.07931c0.89932,1.058 1.28029,2.74722 0.2559,3.6549c-0.4645,0.41158 -2.45481,0.67223 -3.79789,0.44143c-3.42508,1.76024 -9.31852,2.06531 -8.8427,-1.44825z" fill="#a07962" fill-rule="nonzero" stroke="none" stroke-width="0.5" stroke-linecap="butt" stroke-linejoin="miter"/><path d="M203.12062,164.41358c0.80658,-2.36009 6.82091,-1.38066 9.46635,0.12206c0.58802,-0.42019 1.12117,-0.76755 1.33157,-0.89092c0.17064,-0.29667 0.48924,-0.49799 0.85624,-0.50211c0.55225,-0.00619 1.00495,0.43648 1.01115,0.98873c0.0003,0.02705 -0.00047,0.05387 -0.00229,0.0804c0.67763,1.21201 0.72457,2.94301 -0.45609,3.63535c-0.53536,0.31393 -2.5385,0.18457 -3.81154,-0.30173c-3.70093,1.06429 -9.54204,0.22333 -8.3954,-3.13178z" fill="#bf9075" fill-rule="nonzero" stroke="none" stroke-width="0.5" stroke-linecap="butt" stroke-linejoin="miter"/><g fill-rule="nonzero" stroke="none" stroke-width="0.5" stroke-linecap="butt" stroke-linejoin="miter"><path d="M222.99617,160.87976c0.88733,0.12226 1.78556,0.35305 2.67293,0.2745c8.91162,-0.78885 -3.85806,5.31795 -6.16538,0.41957c-0.3038,-0.21408 -0.48178,-0.5602 -0.43537,-0.92428c0.06984,-0.54785 0.62133,-0.92889 1.23179,-0.85108c0.1993,0.02541 0.38024,0.09657 0.53115,0.19998c0.61595,0.2264 1.26142,0.75682 2.16488,0.88131z" fill="#cccccc"/><path d="M224.16771,157.2978c0.5693,0.1315 6.05107,0.65177 5.71871,2.77978c-0.62644,4.01094 -10.02276,2.71188 -10.67557,0.81242c-0.27866,-0.24591 -0.41787,-0.60937 -0.33207,-0.96623c0.03779,-0.1572 0.11507,-0.29568 0.22047,-0.40933c0.98425,-1.7327 2.34119,-2.84659 5.06846,-2.21664z" fill="#336487"/><path d="M231.79933,160.51956c-0.03059,0.53558 -0.61949,3.39854 -0.90792,3.5422c-0.70477,0.35102 -3.35877,-1.34114 -3.20153,-2.50919c-0.00612,-0.05508 -0.00772,-0.11142 -0.00446,-0.1686c0.02538,-0.44446 0.33732,-0.8045 0.74615,-0.91093c1.21811,-0.92674 3.4613,-1.59145 3.36776,0.04652z" fill="#336487"/></g><g fill-rule="nonzero" stroke="none" stroke-width="0.5" stroke-linecap="butt" stroke-linejoin="miter"><path d="M222.57642,164.65564c0.89131,-0.08873 1.81861,-0.07448 2.66298,-0.35845c8.47975,-2.85187 -2.50683,6.07298 -5.89612,1.85035c-0.34545,-0.13707 -0.59947,-0.43195 -0.63953,-0.79678c-0.06028,-0.54898 0.38676,-1.04847 0.99849,-1.11564c0.19971,-0.02193 0.39228,0.00493 0.56319,0.07017c0.65182,0.07602 1.40348,0.4407 2.31099,0.35036z" fill="#cccccc"/><path d="M222.87742,160.899c0.58427,-0.00534 6.03562,-0.78199 6.21034,1.36471c0.32932,4.04619 -9.11015,4.98148 -10.18922,3.28746c-0.32845,-0.17389 -0.54884,-0.49469 -0.5489,-0.86172c-0.00003,-0.16168 0.04269,-0.31439 0.11858,-0.44956c0.55157,-1.91488 1.61024,-3.31532 4.4092,-3.34091z" fill="#4b92c4"/><path d="M231.05099,162.2459c0.09556,0.52787 0.19282,3.44915 -0.054,3.65631c-0.60308,0.50616 -3.57933,-0.51812 -3.69971,-1.69054c-0.01883,-0.05212 -0.03357,-0.10652 -0.04378,-0.16288c-0.07931,-0.43806 0.13975,-0.86109 0.51233,-1.06021c0.96749,-1.186 2.99291,-2.35706 3.28517,-0.74267z" fill="#4b92c4"/></g><g fill-rule="nonzero" stroke="none" stroke-width="0.5" stroke-linecap="butt" stroke-linejoin="miter"><path d="M222.6563,165.94043c0.89491,0.03795 1.81092,0.18291 2.68691,0.02094c8.79735,-1.62662 -3.33879,5.65842 -6.09824,0.99974c-0.32264,-0.18445 -0.53251,-0.51221 -0.52068,-0.87905c0.0178,-0.552 0.53086,-0.9834 1.14594,-0.96356c0.20081,0.00648 0.38766,0.06025 0.54765,0.14894c0.63457,0.16724 1.32724,0.63435 2.23842,0.67299z" fill="#cccccc"/><path d="M223.48444,162.26387c0.57917,0.07717 6.08557,0.07761 5.95559,2.22749c-0.24499,4.05217 -9.72198,3.64595 -10.55118,1.81661c-0.30063,-0.2185 -0.47353,-0.56719 -0.42181,-0.93055c0.02279,-0.16006 0.08664,-0.30523 0.18084,-0.42833c0.81628,-1.81787 2.062,-3.05489 4.83656,-2.68522z" fill="#5bb2ef"/><path d="M231.38613,164.75078c0.02011,0.53608 -0.29587,3.44184 -0.56946,3.61209c-0.66848,0.41599 -3.47039,-1.01806 -3.42412,-2.19574c-0.01129,-0.05426 -0.01821,-0.1102 -0.02035,-0.16743c-0.01669,-0.44487 0.25987,-0.83275 0.65682,-0.97731c1.12518,-1.0376 3.29559,-1.91109 3.3571,-0.27161z" fill="#5bb2ef"/></g></g><path d="M286.08836,126.38077v59.3949c0,0.9386 -0.76314,1.70207 -1.7024,1.70207h-88.77223c-0.93827,0 -1.70207,-0.76347 -1.70207,-1.70207v-59.39522c0,-0.9386 0.7638,-1.70208 1.70207,-1.70208h88.77223c0.93926,0 1.7024,0.7638 1.7024,1.7024z" fill="none" fill-rule="nonzero" stroke="#666666" stroke-width="2" stroke-linecap="butt" stroke-linejoin="miter"/><g fill-rule="nonzero" stroke="none" stroke-linecap="butt" stroke-linejoin="miter"><text transform="translate(252.9769,234.29901) scale(0.19588,0.20747)" font-size="40" xml:space="preserve" fill="#585858" fill-rule="nonzero" stroke="none" stroke-width="1" stroke-linecap="butt" stroke-linejoin="miter" stroke-miterlimit="10" stroke-dasharray="" stroke-dashoffset="0" font-family="Sans Serif" font-weight="normal" text-anchor="start" style="mix-blend-mode: normal"><tspan x="0" dy="0">-4</tspan></text><path d="M244.4761,236.41881l1.7486,-4.14478l-2.20732,-0.69125l5.87862,-5.12252l-1.71443,4.10799l2.18486,0.71764z" fill="#e6c245" stroke-width="0"/></g><g fill-rule="nonzero" stroke="none" stroke-linecap="butt" stroke-linejoin="miter"><text transform="translate(209.44316,234.20486) scale(0.19588,0.20747)" font-size="40" xml:space="preserve" fill="#585858" fill-rule="nonzero" stroke="none" stroke-width="1" stroke-linecap="butt" stroke-linejoin="miter" stroke-miterlimit="10" stroke-dasharray="" stroke-dashoffset="0" font-family="Sans Serif" font-weight="normal" text-anchor="start" style="mix-blend-mode: normal"><tspan x="0" dy="0">-6</tspan></text><path d="M200.35963,232.99861c0,-1.82173 3.29853,-6.42346 3.29853,-6.42346c0,0 3.29853,4.60173 3.29853,6.42346c0,1.82173 -1.4768,3.29853 -3.29853,3.29853c-1.82173,0 -3.29853,-1.4768 -3.29853,-3.29853z" fill="#0079cd" stroke-width="NaN"/></g></g></g></svg>