<svg version="1.1" xmlns="http://www.w3.org/2000/svg" xmlns:xlink="http://www.w3.org/1999/xlink" width="360.18708" height="198.43831" viewBox="0,0,360.18708,198.43831"><g transform="translate(-52.59518,-59.78984)"><g data-paper-data="{&quot;isPaintingLayer&quot;:true}" fill-rule="nonzero" stroke-linecap="butt" stroke-linejoin="miter" stroke-miterlimit="10" stroke-dasharray="" stroke-dashoffset="0" style="mix-blend-mode: normal"><path d="M61.82153,201.52714v-43.05428h195.28016v43.05428z" fill-opacity="0.10196" fill="#000000" stroke="none" stroke-width="0"/><path d="M61.82153,143.23827v-43.05428h195.28016v43.05428z" fill-opacity="0.10196" fill="#000000" stroke="none" stroke-width="0"/><path d="M61.82153,258.22815v-43.05428h195.28016v43.05428z" fill-opacity="0.10196" fill="#000000" stroke="none" stroke-width="0"/><path d="M52.59519,76.51681v-14.18787c0,-1.33052 1.08266,-2.41365 2.41365,-2.41365h127.12293c1.331,0 2.41364,1.08311 2.41364,2.41365v14.18787c0,1.33192 -1.08265,2.41412 -2.41364,2.41412h-127.12247c-1.331,0 -2.41412,-1.0822 -2.41412,-2.41412z" fill-opacity="0.50196" fill="#303133" stroke="none" stroke-width="1"/><text transform="translate(57.3538,73.13223) scale(0.30909,0.30909)" font-size="40" xml:space="preserve" fill="#ffffff" fill-rule="nonzero" stroke="#ffffff" stroke-width="1" stroke-linecap="butt" stroke-linejoin="miter" stroke-miterlimit="10" stroke-dasharray="" stroke-dashoffset="0" font-family="Sans Serif" font-weight="normal" text-anchor="start" style="mix-blend-mode: normal"><tspan x="0" dy="0">ホーム &gt; 投資</tspan></text><text transform="translate(63.56095,120.10285) scale(0.44105,0.44105)" font-size="40" xml:space="preserve" fill="#ffffff" fill-rule="nonzero" stroke="none" stroke-width="1" stroke-linecap="butt" stroke-linejoin="miter" stroke-miterlimit="10" stroke-dasharray="" stroke-dashoffset="0" font-family="Sans Serif" font-weight="normal" text-anchor="start" style="mix-blend-mode: normal"><tspan x="0" dy="0">Scratch Building Corp.</tspan></text><path d="M360.99432,124.07256v-18.52514c0,-1.17366 0.95502,-2.1291 2.1291,-2.1291h47.52975c1.17409,0 2.12909,0.95542 2.12909,2.1291v18.52514c0,1.1749 -0.95501,2.12952 -2.12909,2.12952h-47.52934c-1.17409,0 -2.12952,-0.95462 -2.12952,-2.12952z" fill="#b57548" stroke="none" stroke-width="1"/><text transform="translate(369.24611,119.89886) scale(0.44105,0.44105)" font-size="40" xml:space="preserve" fill="#ffffff" fill-rule="nonzero" stroke="none" stroke-width="1" stroke-linecap="butt" stroke-linejoin="miter" stroke-miterlimit="10" stroke-dasharray="" stroke-dashoffset="0" font-family="Sans Serif" font-weight="normal" text-anchor="start" style="mix-blend-mode: normal"><tspan x="0" dy="0">売る</tspan></text><path d="M301.38217,124.07256v-18.52514c0,-1.17366 0.95502,-2.1291 2.1291,-2.1291h47.52975c1.17409,0 2.12909,0.95542 2.12909,2.1291v18.52514c0,1.1749 -0.95501,2.12952 -2.12909,2.12952h-47.52934c-1.17409,0 -2.12952,-0.95462 -2.12952,-2.12952z" fill="#48b463" stroke="none" stroke-width="1"/><text transform="translate(309.63396,119.89886) scale(0.44105,0.44105)" font-size="40" xml:space="preserve" fill="#ffffff" fill-rule="nonzero" stroke="none" stroke-width="1" stroke-linecap="butt" stroke-linejoin="miter" stroke-miterlimit="10" stroke-dasharray="" stroke-dashoffset="0" font-family="Sans Serif" font-weight="normal" text-anchor="start" style="mix-blend-mode: normal"><tspan x="0" dy="0">買う</tspan></text><text transform="translate(63.56095,176.90258) scale(0.44105,0.44105)" font-size="40" xml:space="preserve" fill="#ffffff" fill-rule="nonzero" stroke="none" stroke-width="1" stroke-linecap="butt" stroke-linejoin="miter" stroke-miterlimit="10" stroke-dasharray="" stroke-dashoffset="0" font-family="Sans Serif" font-weight="normal" text-anchor="start" style="mix-blend-mode: normal"><tspan x="0" dy="0">Build With Invest</tspan></text><text transform="translate(63.56095,233.7023) scale(0.44105,0.44105)" font-size="40" xml:space="preserve" fill="#ffffff" fill-rule="nonzero" stroke="none" stroke-width="1" stroke-linecap="butt" stroke-linejoin="miter" stroke-miterlimit="10" stroke-dasharray="" stroke-dashoffset="0" font-family="Sans Serif" font-weight="normal" text-anchor="start" style="mix-blend-mode: normal"><tspan x="0" dy="0">kj-K Rebirth Group</tspan></text><path d="M360.99432,181.67887v-18.52514c0,-1.17366 0.95502,-2.1291 2.1291,-2.1291h47.52975c1.17409,0 2.12909,0.95542 2.12909,2.1291v18.52514c0,1.1749 -0.95501,2.12952 -2.12909,2.12952h-47.52934c-1.17409,0 -2.12952,-0.95462 -2.12952,-2.12952z" fill="#b57548" stroke="none" stroke-width="1"/><text transform="translate(369.24611,177.50517) scale(0.44105,0.44105)" font-size="40" xml:space="preserve" fill="#ffffff" fill-rule="nonzero" stroke="none" stroke-width="1" stroke-linecap="butt" stroke-linejoin="miter" stroke-miterlimit="10" stroke-dasharray="" stroke-dashoffset="0" font-family="Sans Serif" font-weight="normal" text-anchor="start" style="mix-blend-mode: normal"><tspan x="0" dy="0">売る</tspan></text><path d="M301.38216,181.67887v-18.52514c0,-1.17366 0.95502,-2.1291 2.1291,-2.1291h47.52975c1.17409,0 2.12909,0.95542 2.12909,2.1291v18.52514c0,1.1749 -0.95501,2.12952 -2.12909,2.12952h-47.52934c-1.17409,0 -2.12952,-0.95462 -2.12952,-2.12952z" fill="#48b463" stroke="none" stroke-width="1"/><text transform="translate(309.63396,177.50517) scale(0.44105,0.44105)" font-size="40" xml:space="preserve" fill="#ffffff" fill-rule="nonzero" stroke="none" stroke-width="1" stroke-linecap="butt" stroke-linejoin="miter" stroke-miterlimit="10" stroke-dasharray="" stroke-dashoffset="0" font-family="Sans Serif" font-weight="normal" text-anchor="start" style="mix-blend-mode: normal"><tspan x="0" dy="0">買う</tspan></text><path d="M360.99432,238.47859v-18.52514c0,-1.17366 0.95502,-2.1291 2.1291,-2.1291h47.52975c1.17409,0 2.12909,0.95542 2.12909,2.1291v18.52514c0,1.1749 -0.95501,2.12952 -2.12909,2.12952h-47.52934c-1.17409,0 -2.12952,-0.95462 -2.12952,-2.12952z" fill="#b57548" stroke="none" stroke-width="1"/><text transform="translate(369.24611,234.30489) scale(0.44105,0.44105)" font-size="40" xml:space="preserve" fill="#ffffff" fill-rule="nonzero" stroke="none" stroke-width="1" stroke-linecap="butt" stroke-linejoin="miter" stroke-miterlimit="10" stroke-dasharray="" stroke-dashoffset="0" font-family="Sans Serif" font-weight="normal" text-anchor="start" style="mix-blend-mode: normal"><tspan x="0" dy="0">売る</tspan></text><path d="M301.38216,238.47859v-18.52514c0,-1.17366 0.95502,-2.1291 2.1291,-2.1291h47.52975c1.17409,0 2.12909,0.95542 2.12909,2.1291v18.52514c0,1.1749 -0.95501,2.12952 -2.12909,2.12952h-47.52934c-1.17409,0 -2.12952,-0.95462 -2.12952,-2.12952z" fill="#48b463" stroke="none" stroke-width="1"/><text transform="translate(309.63396,234.30489) scale(0.44105,0.44105)" font-size="40" xml:space="preserve" fill="#ffffff" fill-rule="nonzero" stroke="none" stroke-width="1" stroke-linecap="butt" stroke-linejoin="miter" stroke-miterlimit="10" stroke-dasharray="" stroke-dashoffset="0" font-family="Sans Serif" font-weight="normal" text-anchor="start" style="mix-blend-mode: normal"><tspan x="0" dy="0">買う</tspan></text></g></g></svg>