<svg version="1.1" xmlns="http://www.w3.org/2000/svg" xmlns:xlink="http://www.w3.org/1999/xlink" width="169.80792" height="34.746" viewBox="0,0,169.80792,34.746"><g transform="translate(-20.9526,-325.25401)"><g data-paper-data="{&quot;isPaintingLayer&quot;:true}" stroke-miterlimit="10" stroke-dasharray="" stroke-dashoffset="0" style="mix-blend-mode: normal"><g fill-rule="nonzero" stroke-linejoin="miter"><path d="M177.11522,358.63279h-45.21191c-5.20777,0 -9.44384,-4.23426 -9.44384,-9.44567v-11.75937c0,-5.20594 4.23608,-9.44383 9.44384,-9.44383h45.21374c5.20777,0 9.44384,4.23791 9.44384,9.44383v11.75937c0,5.21141 -4.23791,9.44567 -9.44567,9.44567z" fill="#6b695c" stroke="none" stroke-width="1" stroke-linecap="butt"/><path d="M154.51018,353.91947v-21.22222" fill="none" stroke="#cdcdca" stroke-width="3" stroke-linecap="round"/></g><path d="M46.23772,359.88889h-15.84128c-5.20777,0 -9.44384,-4.23426 -9.44384,-9.44567v-15.74538c0,-5.20594 4.23608,-9.44383 9.44385,-9.44383h15.84311c5.20777,0 9.44384,4.23791 9.44384,9.44383v15.74539c0,5.21141 -4.23791,9.44567 -9.44568,9.44567z" fill="#59574d" fill-rule="nonzero" stroke="none" stroke-width="1" stroke-linecap="butt" stroke-linejoin="miter"/><path d="M96.97818,360h-15.84128c-5.20777,0 -9.44384,-4.23426 -9.44384,-9.44567v-15.74538c0,-5.20594 4.23608,-9.44383 9.44384,-9.44383h15.8431c5.20777,0 9.44384,4.23791 9.44384,9.44383v15.74539c0,5.21141 -4.23791,9.44567 -9.44568,9.44567z" fill="#59574d" fill-rule="nonzero" stroke="none" stroke-width="1" stroke-linecap="butt" stroke-linejoin="miter"/><g fill="#cdcdca" fill-rule="nonzero" stroke="none" stroke-width="1" stroke-linecap="butt" stroke-linejoin="miter"><path d="M49.25378,337.77688h-21.87185c-0.85178,0 -1.54464,-0.69256 -1.54464,-1.54494v-2.57533c0,-0.85149 0.69286,-1.54464 1.54464,-1.54464h21.87215c0.85178,0 1.54464,0.69315 1.54464,1.54464v2.57533c0,0.85238 -0.69315,1.54494 -1.54494,1.54494z"/><path d="M49.25378,345.51501h-21.87185c-0.85179,0 -1.54464,-0.69255 -1.54464,-1.54494v-2.57533c0,-0.85149 0.69286,-1.54464 1.54464,-1.54464h21.87215c0.85179,0 1.54464,0.69315 1.54464,1.54464v2.57533c0,0.85239 -0.69315,1.54494 -1.54494,1.54494z"/><path d="M49.25378,353.25314h-21.87185c-0.85179,0 -1.54464,-0.69255 -1.54464,-1.54494v-2.57533c0,-0.85149 0.69286,-1.54464 1.54464,-1.54464h21.87215c0.85179,0 1.54464,0.69315 1.54464,1.54464v2.57533c0,0.85239 -0.69315,1.54494 -1.54494,1.54494z"/></g><g fill-rule="nonzero" stroke-linejoin="miter"><path d="M97.56943,355.47819h-17.02223c-0.73338,0 -1.32993,-0.59629 -1.32993,-1.33019v-22.93116c0,-0.73313 0.59655,-1.32993 1.32993,-1.32993h17.02249c0.73338,0 1.32993,0.5968 1.32993,1.32993v22.93116c0,0.7339 -0.59681,1.33019 -1.33019,1.33019z" fill="#cdcdca" stroke="none" stroke-width="1" stroke-linecap="butt"/><path d="M95.24064,352.75863h-12.36463c-0.65225,0 -1.1828,-0.53033 -1.1828,-1.18303v-17.78632c0,-0.65202 0.53055,-1.1828 1.1828,-1.1828h12.36486c0.65225,0 1.1828,0.53078 1.1828,1.1828v17.78632c0,0.6527 -0.53078,1.18303 -1.18303,1.18303z" fill="#59574d" stroke="none" stroke-width="1" stroke-linecap="butt"/><g fill="none" stroke="#cdcdca" stroke-width="2.25" stroke-linecap="round"><path d="M93.56571,335.43174h-8.99205"/><path d="M84.55118,338.87508h3.7317"/><path d="M91.9921,342.38934h-7.41844"/></g></g><path d="M143.53551,355.75461h-11.38532c-3.74289,0 -6.7874,-3.04321 -6.7874,-6.78872v-11.31639c0,-3.74157 3.04452,-6.78739 6.7874,-6.78739h11.38663c3.74289,0 6.7874,3.04584 6.7874,6.78739v11.3164c0,3.7455 -3.04584,6.78872 -6.78872,6.78872z" fill="#59574d" fill-rule="nonzero" stroke="none" stroke-width="1" stroke-linecap="butt" stroke-linejoin="miter"/><g data-paper-data="{&quot;index&quot;:null}" fill="#cdcdca" fill-rule="nonzero" stroke="#cdcdca" stroke-linejoin="miter"><path d="M132.05233,350.82993l7.42384,-11.26827" stroke-width="2.5" stroke-linecap="round"/><path d="M146.26293,342.55174l-2.17976,3.44062c-0.2659,0.4197 -0.82343,0.54491 -1.24342,0.27882l-10.82117,-6.85562c-0.41955,-0.2658 -0.54481,-0.82357 -0.27892,-1.24327l2.17985,-3.44077c0.2659,-0.4197 0.82372,-0.54472 1.24327,-0.27892l10.82117,6.85562c0.42,0.26609 0.54487,0.82382 0.27897,1.24351z" data-paper-data="{&quot;index&quot;:null}" stroke-width="0" stroke-linecap="butt"/></g><path d="M165.48485,355.75462c-3.74288,0 -6.78872,-3.04322 -6.78872,-6.78872v-11.3164c0,-3.74155 3.04451,-6.78739 6.7874,-6.78739h11.38663c3.74288,0 6.7874,3.04582 6.7874,6.78739v11.31639c0,3.74551 -3.04451,6.78872 -6.7874,6.78872h-11.38532z" data-paper-data="{&quot;index&quot;:null}" fill="#59574d" fill-rule="nonzero" stroke="none" stroke-width="1" stroke-linecap="butt" stroke-linejoin="miter"/><g data-paper-data="{&quot;index&quot;:null}" stroke-width="1"><path d="M173.7705,335.56113c0.08002,-0.05334 0.21338,-0.02667 0.24005,0.08002l0.69349,2.85398c0,0 1.70705,1.25362 2.21383,2.13382c0.85353,1.467 0.8802,2.66727 0.8802,2.66727c0,0 1.89376,0.56013 2.21383,2.08047c0.32007,1.52034 -0.85353,4.40099 -5.86799,5.38788c-5.01447,0.98689 -9.04205,-0.37342 -10.9358,-3.41411c-1.89376,-3.04069 1.09358,-6.66817 0.93354,-6.45479l-0.56013,-4.77441c-0.02667,-0.10669 0.10669,-0.18671 0.21338,-0.13336l3.22739,2.10714c0,0 1.20027,-0.45344 2.45389,-0.50678c0.74684,-0.05334 1.38698,0 2.00045,0.10669z" fill="#cdcdca" fill-rule="evenodd" stroke="#cdcdca" stroke-linecap="butt" stroke-linejoin="miter"/><path d="M177.71806,343.40291c0,0 1.84042,0.48011 2.16049,2.00045c0.32007,1.52034 -0.96021,4.26763 -5.92134,5.22785c-6.45479,1.33364 -9.52215,-2.50723 -7.73508,-5.33454c1.78707,-2.85398 4.85443,-0.42677 7.09494,-0.5868c1.92044,-0.13336 2.13382,-1.81375 4.40099,-1.30696z" fill="#6b695c" fill-rule="evenodd" stroke="#cdcdca" stroke-linecap="butt" stroke-linejoin="miter"/><path d="M182.62584,343.6963c-1.25362,1.01356 -3.17405,1.04023 -3.17405,1.04023" fill="none" fill-rule="evenodd" stroke="#cdcdca" stroke-linecap="round" stroke-linejoin="round"/><path d="M182.27909,346.68365c-1.68038,0.13336 -2.72062,-0.37342 -2.72062,-0.37342" fill="none" fill-rule="evenodd" stroke="#cdcdca" stroke-linecap="round" stroke-linejoin="round"/><path d="M161.20766,343.61629c0,0 2.29385,0.74684 3.22739,1.57369" fill="none" fill-rule="evenodd" stroke="#cdcdca" stroke-linecap="round" stroke-linejoin="round"/><path d="M164.51508,346.12352c-1.14693,0.45344 -3.1207,0.16003 -3.1207,0.16003" fill="none" fill-rule="evenodd" stroke="#cdcdca" stroke-linecap="round" stroke-linejoin="round"/><g fill="none" fill-rule="nonzero" stroke="none" stroke-linecap="butt" stroke-linejoin="miter" font-family="sans-serif" font-weight="normal" font-size="12" text-anchor="start"/><g fill="none" fill-rule="nonzero" stroke="none" stroke-linecap="butt" stroke-linejoin="miter" font-family="sans-serif" font-weight="normal" font-size="12" text-anchor="start"/></g><path d="M181.31486,360h-15.84128c-5.20777,0 -9.44384,-4.23426 -9.44384,-9.44567v-15.74538c0,-5.20594 4.23608,-9.44383 9.44384,-9.44383h15.8431c5.20777,0 9.44384,4.23791 9.44384,9.44383v15.74539c0,5.21141 -4.23791,9.44567 -9.44568,9.44567z" fill-opacity="0.00392" fill="#000000" fill-rule="nonzero" stroke="none" stroke-width="1" stroke-linecap="butt" stroke-linejoin="miter"/><path d="M127.70552,360.00001c-5.20777,0 -9.44568,-4.23426 -9.44568,-9.44567v-15.74539c0,-5.20592 4.23607,-9.44383 9.44384,-9.44383h15.8431c5.20776,0 9.44384,4.23789 9.44384,9.44383v15.74538c0,5.21141 -4.23607,9.44567 -9.44384,9.44567h-15.84128z" data-paper-data="{&quot;index&quot;:null}" fill-opacity="0.00392" fill="#000000" fill-rule="nonzero" stroke="none" stroke-width="1" stroke-linecap="butt" stroke-linejoin="miter"/></g></g></svg>