<svg version="1.1" xmlns="http://www.w3.org/2000/svg" xmlns:xlink="http://www.w3.org/1999/xlink" width="377.98436" height="242.56704" viewBox="0,0,377.98436,242.56704"><defs><linearGradient x1="359.80029" y1="241.80176" x2="419.87365" y2="241.80176" gradientUnits="userSpaceOnUse" id="color-1"><stop offset="0" stop-color="#d9d76a" stop-opacity="0.50196"/><stop offset="1" stop-color="#95d96a" stop-opacity="0.50196"/></linearGradient><linearGradient x1="366.04142" y1="217.03784" x2="412.12304" y2="217.03784" gradientUnits="userSpaceOnUse" id="color-2"><stop offset="0" stop-color="#95d96a" stop-opacity="0.50196"/><stop offset="1" stop-color="#6accd9" stop-opacity="0.50196"/></linearGradient><linearGradient x1="374.70454" y1="195.87776" x2="404.96935" y2="195.87776" gradientUnits="userSpaceOnUse" id="color-3"><stop offset="0" stop-color="#6accd9" stop-opacity="0.50196"/><stop offset="1" stop-color="#d96ace" stop-opacity="0.50196"/></linearGradient></defs><g transform="translate(-50.98128,-45.67097)"><g data-paper-data="{&quot;isPaintingLayer&quot;:true}" stroke-linejoin="miter" stroke-miterlimit="10" stroke-dasharray="" stroke-dashoffset="0" style="mix-blend-mode: normal"><path d="M52.73128,286.48798v-178.29877c0,-25.25407 20.54922,-45.81206 45.81206,-45.81206h282.8602c25.26291,0 45.8121,20.55816 45.8121,45.81206v178.2988z" fill="none" fill-rule="nonzero" stroke="#34a52a" stroke-width="3.5" stroke-linecap="butt"/><g fill="#ffffff" fill-rule="nonzero" stroke="#ffffff" stroke-width="4.5" stroke-linecap="butt"><path d="M403.22354,266.49666c0,4.51987 -5.78233,8.18394 -12.91526,8.18394c-7.13282,0 -12.91526,-3.66412 -12.91526,-8.18394c0,-4.51987 5.78233,-8.18388 12.91526,-8.18388c7.13282,0 12.91526,3.66406 12.91526,8.18388z"/><path d="M420.99795,247.65673c0,26.27158 -61.37916,26.27158 -61.37916,0c0,-26.27158 13.74017,-47.56888 30.68955,-47.56888c16.94932,0 30.68955,21.2973 30.68955,47.56888z"/><path d="M414.23104,225.25162c0,20.47881 -47.84536,20.47881 -47.84536,0c0,-20.47881 10.71046,-37.08014 23.92259,-37.08014c13.21213,0 23.92265,16.60134 23.92265,37.08014z"/><path d="M406.53074,200.78456c0,13.88704 -32.4448,13.88704 -32.4448,0c0,-13.88704 7.26299,-25.14466 16.2224,-25.14466c8.95941,0 16.2224,11.25761 16.2224,25.14466z"/><path d="M399.99864,179.97698c-2.30832,1.62044 -9.90253,-5.41048 -9.90253,-5.41048c0,0 -7.81718,6.78858 -10.07304,5.09339c-2.2577,-1.69497 2.08474,-11.09314 2.08474,-11.09314c0,0 -8.87069,-5.33735 -7.95561,-8.00628c0.91491,-2.67088 11.19359,-1.44486 11.19359,-1.44486c0,0 2.33267,-10.08544 5.15412,-10.04248c2.82541,0.04452 4.83652,10.2008 4.83652,10.2008c0,0 10.3127,-0.89832 11.14013,1.80061c0.83296,2.69669 -8.20466,7.74913 -8.20466,7.74913c0,0 4.04077,9.53242 1.72675,11.15331z"/></g><g fill-rule="nonzero"><g stroke="none" stroke-width="0" stroke-linecap="butt"><path d="M403.22354,266.49666c0,4.51982 -5.78233,8.18394 -12.91526,8.18394c-7.13282,0 -12.91526,-3.66406 -12.91526,-8.18394c0,-4.51982 5.78233,-8.18394 12.91526,-8.18394c7.13282,0 12.91526,3.66406 12.91526,8.18394z" fill="#6e564d"/><path d="M420.99795,247.65667c0,26.27158 -61.37916,26.27158 -61.37916,0c0,-26.27158 13.74017,-47.56888 30.68955,-47.56888c16.94938,0 30.68955,21.2973 30.68955,47.56888z" fill="#629149"/><path d="M414.23104,225.25156c0,20.47875 -47.84536,20.47875 -47.84536,0c0,-20.47875 10.71052,-37.08014 23.92265,-37.08014c13.21213,0 23.92265,16.60134 23.92265,37.08014z" fill="#689150"/><path d="M406.53074,200.7845c0,13.88704 -32.4448,13.88704 -32.4448,0c0,-13.88704 7.26299,-25.14471 16.2224,-25.14471c8.95935,0 16.2224,11.25767 16.2224,25.14471z" fill="#6c9157"/><path d="M399.99864,179.97698c-2.30832,1.62044 -9.90253,-5.41048 -9.90253,-5.41048c0,0 -7.81718,6.78863 -10.07309,5.09345c-2.2577,-1.69502 2.0848,-11.0932 2.0848,-11.0932c0,0 -8.87069,-5.33735 -7.95567,-8.00628c0.91491,-2.67094 11.19359,-1.44486 11.19359,-1.44486c0,0 2.33267,-10.08538 5.15412,-10.04248c2.82541,0.04447 4.83652,10.2008 4.83652,10.2008c0,0 10.3127,-0.89832 11.14013,1.80061c0.83296,2.69669 -8.20466,7.74913 -8.20466,7.74913c0,0 4.04082,9.53242 1.72675,11.15331z" fill="#ffda53"/></g><path d="M419.87371,233.63151c0,0 -2.65195,9.61974 -27.77431,14.72358c-17.82435,3.62122 -32.2991,0.0286 -32.2991,0.0286" fill="none" stroke="url(#color-1)" stroke-width="3.5" stroke-linecap="round"/><path d="M412.12304,210.77055c0,0 -2.03424,7.37913 -21.30534,11.29426c-13.67285,2.77781 -24.77628,0.02196 -24.77628,0.02196" fill="none" stroke="url(#color-2)" stroke-width="3.5" stroke-linecap="round"/><path d="M404.96935,191.76163c0,0 -1.33597,4.84635 -13.99257,7.41768c-8.97991,1.82435 -16.27223,0.01441 -16.27223,0.01441" fill="none" stroke="url(#color-3)" stroke-width="3.5" stroke-linecap="round"/></g><g stroke-linecap="butt"><g><path d="M421.48065,70.67397c-1.07565,3.95626 -2.95749,7.64686 -5.52282,10.8315c-6.62035,-2.01769 -11.24098,-11.43542 -11.24098,-11.43542l2.51272,-8.24462c0,0 9.08782,-5.23978 15.70817,-3.22209c0.35307,4.07409 -0.14335,8.18693 -1.45709,12.07062z" fill="#ff2a2a" fill-rule="evenodd" stroke="#ebd436" stroke-width="1.5"/><g fill="none" fill-rule="nonzero" stroke="none" stroke-width="1" font-family="sans-serif" font-weight="normal" font-size="12" text-anchor="start"/></g><g><path d="M383.82733,46.68361c6.62035,2.01769 11.24098,11.43542 11.24098,11.43542l-2.51272,8.24462c0,0 -9.08782,5.23978 -15.70817,3.22209c-0.35307,-4.07409 0.14335,-8.18693 1.45709,-12.07062c1.07565,-3.95626 2.95749,-7.64686 5.52282,-10.8315z" fill="#ff2a2a" fill-rule="evenodd" stroke="#ebd436" stroke-width="1.5"/><g fill="none" fill-rule="nonzero" stroke="none" stroke-width="1" font-family="sans-serif" font-weight="normal" font-size="12" text-anchor="start"/></g><path d="M373.69425,78.59175c1.79471,-2.97861 20.00649,-11.84634 20.00649,-11.84634l4.13334,1.19407c0,0 -26.342,20.21818 -27.68094,21.36957c-3.16637,2.72287 2.24056,-8.55882 3.54111,-10.7173z" fill="#ff2a2a" fill-rule="nonzero" stroke="#ebd436" stroke-width="1.5"/><path d="M410.38988,101.57206c-1.27308,1.16464 -11.05707,-33.17581 -11.05707,-33.17581l4.09672,1.31421c0,0 10.30694,17.95678 10.54204,20.86323c0.2418,2.06309 -1.99565,9.54743 -3.58169,10.99837z" data-paper-data="{&quot;index&quot;:null}" fill="#ff2a2a" fill-rule="nonzero" stroke="#ebd436" stroke-width="1.5"/><g fill="#ff2a2a" fill-rule="evenodd" stroke="#ebd436" stroke-width="1.5"><path d="M393.29437,67.91043c-0.76998,-0.23467 -1.39417,-0.4249 -1.39417,-0.4249l3.24984,-10.66321c0,0 0.62419,0.19024 1.39417,0.4249l9.82268,2.99367c0.76998,0.23467 1.39417,0.4249 1.39417,0.4249l-3.24984,10.66321c0,0 -0.62419,-0.19024 -1.39417,-0.4249z"/></g></g></g></g></svg>