<svg version="1.1" xmlns="http://www.w3.org/2000/svg" xmlns:xlink="http://www.w3.org/1999/xlink" width="78.53985" height="76.1834" viewBox="0,0,78.53985,76.1834"><g transform="translate(-200.73008,-141.9083)"><g data-paper-data="{&quot;isPaintingLayer&quot;:true}" fill-rule="nonzero" stroke-linecap="butt" stroke-linejoin="miter" stroke-miterlimit="10" stroke-dasharray="" stroke-dashoffset="0" style="mix-blend-mode: normal"><path d="M200.73009,215.67758v-71.35563c0,-1.33052 1.08266,-2.41365 2.41365,-2.41365h73.71255c1.331,0 2.41364,1.08311 2.41364,2.41365v71.35563c0,1.33192 -1.08265,2.41412 -2.41364,2.41412h-73.71209c-1.331,0 -2.41412,-1.0822 -2.41412,-2.41412z" fill-opacity="0.6" fill="#404040" stroke="none" stroke-width="1"/><text transform="translate(204.80293,202.63554) scale(0.20241,0.20241)" font-size="40" xml:space="preserve" fill="#ffffff" fill-rule="nonzero" stroke="none" stroke-width="1" stroke-linecap="butt" stroke-linejoin="miter" stroke-miterlimit="10" stroke-dasharray="" stroke-dashoffset="0" font-family="Sans Serif" font-weight="normal" text-anchor="start" style="mix-blend-mode: normal"><tspan x="0" dy="0">クリスマス2023</tspan></text><path d="M204.80293,189.84976v-41.75298c0,-1.33052 1.08266,-2.41365 2.41365,-2.41365h65.56685c1.331,0 2.41364,1.08311 2.41364,2.41365v41.75298c0,1.33192 -1.08265,2.41412 -2.41364,2.41412h-65.56639c-1.331,0 -2.41412,-1.0822 -2.41412,-2.41412z" fill="#b6b6c1" stroke="#bf80ff" stroke-width="0"/><text transform="translate(204.80293,208.9586) scale(0.11571,0.11571)" font-size="40" xml:space="preserve" fill="#b3b3b3" fill-rule="nonzero" stroke="none" stroke-width="1" stroke-linecap="butt" stroke-linejoin="miter" stroke-miterlimit="10" stroke-dasharray="" stroke-dashoffset="0" font-family="Sans Serif" font-weight="normal" text-anchor="start" style="mix-blend-mode: normal"><tspan x="0" dy="0">デコレーション✨</tspan><tspan x="0" dy="48px">追加日:2023-12-25</tspan></text><path d="M206.97507,192.24716v-38.52251c0,-1.33052 1.08266,-2.41365 2.41365,-2.41365h61.22259c1.331,0 2.41364,1.08311 2.41364,2.41365v38.52251z" fill="#9494a6" stroke="#38ca28" stroke-width="1"/><path d="M264.47932,190.52765v-2.65714h3.34286v2.65714z" fill="#955d24" stroke="none" stroke-width="0"/><path d="M271.61505,184.48436c0,5.88126 -2.44644,4.70309 -5.46429,4.70309c-3.01784,0 -5.46429,1.17817 -5.46429,-4.70309c0,-5.88126 5.46429,-15.45508 5.46429,-15.45508c0,0 5.46429,9.57383 5.46429,15.45508z" fill="#249835" stroke="none" stroke-width="0"/><path d="M267.9906,172.09772c-0.43081,0.30243 -1.84816,-1.00978 -1.84816,-1.00978c0,0 -1.45896,1.267 -1.87999,0.95062c-0.42137,-0.31635 0.3891,-2.07038 0.3891,-2.07038c0,0 -1.65558,-0.99614 -1.48481,-1.49425c0.17075,-0.49849 2.08911,-0.26966 2.08911,-0.26966c0,0 0.43536,-1.88228 0.96194,-1.87428c0.52732,0.0083 0.90266,1.90383 0.90266,1.90383c0,0 1.92471,-0.16766 2.07914,0.33606c0.15546,0.5033 -1.53128,1.44626 -1.53128,1.44626c0,0 0.75416,1.77908 0.32227,2.0816z" fill="#ffda53" stroke="none" stroke-width="0"/><path d="M204.80293,189.84976v-41.75298c0,-1.33052 1.08266,-2.41365 2.41365,-2.41365h65.56685c1.331,0 2.41364,1.08311 2.41364,2.41365v41.75298c0,1.33192 -1.08265,2.41412 -2.41364,2.41412h-65.56639c-1.331,0 -2.41412,-1.0822 -2.41412,-2.41412z" fill="none" stroke="#bf80ff" stroke-width="2"/></g></g></svg>