<svg version="1.1" xmlns="http://www.w3.org/2000/svg" xmlns:xlink="http://www.w3.org/1999/xlink" width="78.53985" height="76.1834" viewBox="0,0,78.53985,76.1834"><defs><linearGradient x1="263.64413" y1="175.10696" x2="268.05125" y2="175.10696" gradientUnits="userSpaceOnUse" id="color-1"><stop offset="0" stop-color="#08ff2b"/><stop offset="1" stop-color="#2f9d05"/></linearGradient><linearGradient x1="265.75964" y1="176.20879" x2="270.16675" y2="176.20879" gradientUnits="userSpaceOnUse" id="color-2"><stop offset="0" stop-color="#08ff2b"/><stop offset="1" stop-color="#2f9d05"/></linearGradient><linearGradient x1="261.52863" y1="178.19207" x2="265.93575" y2="178.19207" gradientUnits="userSpaceOnUse" id="color-3"><stop offset="0" stop-color="#08ff2b"/><stop offset="1" stop-color="#2f9d05"/></linearGradient></defs><g transform="translate(-200.73011,-141.9083)"><g data-paper-data="{&quot;isPaintingLayer&quot;:true}" fill-rule="nonzero" stroke-linejoin="miter" stroke-miterlimit="10" stroke-dasharray="" stroke-dashoffset="0" style="mix-blend-mode: normal"><path d="M200.73012,215.67758v-71.35563c0,-1.33052 1.08266,-2.41365 2.41365,-2.41365h73.71255c1.331,0 2.41364,1.08311 2.41364,2.41365v71.35563c0,1.33192 -1.08265,2.41412 -2.41364,2.41412h-73.71209c-1.331,0 -2.41412,-1.0822 -2.41412,-2.41412z" fill-opacity="0.6" fill="#404040" stroke="none" stroke-width="1" stroke-linecap="butt"/><text transform="translate(204.80296,202.63554) scale(0.20241,0.20241)" font-size="40" xml:space="preserve" fill="#ffffff" fill-rule="nonzero" stroke="none" stroke-width="1" stroke-linecap="butt" stroke-linejoin="miter" stroke-miterlimit="10" stroke-dasharray="" stroke-dashoffset="0" font-family="Sans Serif" font-weight="normal" text-anchor="start" style="mix-blend-mode: normal"><tspan x="0" dy="0">2024!!</tspan></text><path d="M204.80297,189.84976v-41.75298c0,-1.33052 1.08266,-2.41365 2.41365,-2.41365h65.56685c1.331,0 2.41364,1.08311 2.41364,2.41365v41.75298c0,1.33192 -1.08265,2.41412 -2.41364,2.41412h-65.56639c-1.331,0 -2.41412,-1.0822 -2.41412,-2.41412z" fill="#b6b6c1" stroke="#bf80ff" stroke-width="0" stroke-linecap="butt"/><text transform="translate(204.80296,208.9586) scale(0.11571,0.11571)" font-size="40" xml:space="preserve" fill="#b3b3b3" fill-rule="nonzero" stroke="none" stroke-width="1" stroke-linecap="butt" stroke-linejoin="miter" stroke-miterlimit="10" stroke-dasharray="" stroke-dashoffset="0" font-family="Sans Serif" font-weight="normal" text-anchor="start" style="mix-blend-mode: normal"><tspan x="0" dy="0">デコレーション✨</tspan><tspan x="0" dy="48px">追加日:2023-1-01</tspan></text><path d="M206.9751,192.24716v-38.52251c0,-1.33052 1.08266,-2.41365 2.41365,-2.41365h61.22259c1.331,0 2.41364,1.08311 2.41364,2.41365v38.52251z" fill="#9494a6" stroke="#ff5858" stroke-width="1" stroke-linecap="butt"/><path d="M255.21207,184.8818h-6.24594" fill="none" stroke="#ffffff" stroke-width="4.5" stroke-linecap="round"/><path d="M251.18243,181.61951h1.81334" fill="none" stroke="#ffffff" stroke-width="5" stroke-linecap="round"/><path d="M246.79578,192.47124v-6.04446h10.58664v6.04446z" fill="#ca9b59" stroke="none" stroke-width="0" stroke-linecap="butt"/><path d="M204.80297,189.84976v-41.75298c0,-1.33052 1.08266,-2.41365 2.41365,-2.41365h65.56685c1.331,0 2.41364,1.08311 2.41364,2.41365v41.75298c0,1.33192 -1.08265,2.41412 -2.41364,2.41412h-65.56639c-1.331,0 -2.41412,-1.0822 -2.41412,-2.41412z" fill="none" stroke="#bf80ff" stroke-width="2" stroke-linecap="butt"/><path d="M265.84767,169.95043v10.31306" fill="none" stroke="url(#color-1)" stroke-width="3" stroke-linecap="round"/><path d="M267.96317,173.12368v7.93312" fill="none" stroke="url(#color-2)" stroke-width="3" stroke-linecap="round"/><path d="M263.73219,180.79237v-5.2006" fill="none" stroke="url(#color-3)" stroke-width="3" stroke-linecap="round"/><path d="M261.17438,191.92161v-10.27592h9.36251v10.27592z" fill="#ca9b59" stroke="none" stroke-width="0" stroke-linecap="butt"/><path d="M268.93841,179.50685c1.62265,0 2.93808,1.31542 2.93808,2.93808c0,1.62265 -1.31542,2.93808 -2.93808,2.93808c-0.56648,0 -1.09552,-0.16032 -1.54422,-0.43806c-0.51605,0.84474 -1.44671,1.40857 -2.50906,1.40857c-0.93822,0 -1.77372,-0.43976 -2.31163,-1.12441c-0.67227,0.12317 -1.28088,-0.03315 -1.63435,-0.65171c-0.86597,-0.51108 -1.4469,-1.45374 -1.4469,-2.53208c0,-1.62265 1.31542,-2.93808 2.93808,-2.93808c0.28953,0 0.56927,0.04188 0.83351,0.11991c0.13524,-0.0059 0.26889,-0.00034 0.40014,0.01754c0.5106,-0.86795 1.45436,-1.45048 2.53419,-1.45048c1.18559,0 2.20716,0.70223 2.67147,1.71344c0.02286,-0.00053 0.04579,-0.00079 0.06878,-0.00079z" fill="#37992c" stroke="none" stroke-width="0.5" stroke-linecap="butt"/><path d="M250.53843,178.40758c0,-0.85641 0.69426,-1.55067 1.55067,-1.55067c0.85641,0 1.55067,0.69426 1.55067,1.55067c0,0.85641 -0.69426,1.55067 -1.55067,1.55067c-0.85641,0 -1.55067,-0.69426 -1.55067,-1.55067z" fill="#f38d4a" stroke="none" stroke-width="NaN" stroke-linecap="butt"/></g></g></svg>