<svg version="1.1" xmlns="http://www.w3.org/2000/svg" xmlns:xlink="http://www.w3.org/1999/xlink" width="99.20614" height="119.40827" viewBox="0,0,99.20614,119.40827"><defs><radialGradient cx="278.9569" cy="178.23466" r="42.17246" gradientUnits="userSpaceOnUse" id="color-1"><stop offset="0" stop-color="#73fffe"/><stop offset="1" stop-color="#73fffe" stop-opacity="0"/></radialGradient><radialGradient cx="214.05694" cy="173.93466" r="42.17246" gradientUnits="userSpaceOnUse" id="color-2"><stop offset="0" stop-color="#94fffa"/><stop offset="1" stop-color="#94fffa" stop-opacity="0"/></radialGradient><radialGradient cx="214.05694" cy="173.93466" r="42.17246" gradientUnits="userSpaceOnUse" id="color-3"><stop offset="0" stop-color="#94fffa" stop-opacity="0"/><stop offset="1" stop-color="#94fffa" stop-opacity="0"/></radialGradient></defs><g transform="translate(-190.39693,-120.29588)"><g data-paper-data="{&quot;isPaintingLayer&quot;:true}" stroke-miterlimit="10" stroke-dasharray="" stroke-dashoffset="0" style="mix-blend-mode: normal"><path d="M289.60307,129.31305v101.37565c0,4.97152 -4.04218,9.01545 -9.01718,9.01545h-81.17351c-4.96979,0 -9.01545,-4.04392 -9.01545,-9.01544v-101.37738c0,-4.97152 4.04566,-9.01545 9.01545,-9.01545h81.17351c4.975,0 9.01718,4.04566 9.01718,9.01719z" fill-opacity="0.74902" fill="#d2d3d4" fill-rule="nonzero" stroke="none" stroke-width="1" stroke-linecap="butt" stroke-linejoin="miter"/><path d="M287.06513,163.26163v65.07452c0,4.97152 -4.04219,9.01545 -9.01719,9.01545l-76.09761,0.25093c-4.96979,0 -9.01545,-4.04392 -9.01545,-9.01545v-65.07627z" fill-opacity="0.85882" fill="#ffffff" fill-rule="nonzero" stroke="none" stroke-width="1" stroke-linecap="butt" stroke-linejoin="miter"/><text transform="translate(197.4876,200.16945) scale(0.28036,0.28036)" font-size="40" xml:space="preserve" fill="#000000" fill-rule="nonzero" stroke="#000000" stroke-width="1" stroke-linecap="butt" stroke-linejoin="miter" stroke-miterlimit="10" stroke-dasharray="" stroke-dashoffset="0" font-family="&quot;ヒラギノ角ゴ Pro W3&quot;, &quot;Hiragino Kaku Gothic Pro&quot;, Osaka, &quot;メイリオ&quot;, Meiryo, &quot;ＭＳ Ｐゴシック&quot;, &quot;MS PGothic&quot;" font-weight="normal" text-anchor="start" style="mix-blend-mode: normal"><tspan x="0" dy="0">プール</tspan></text><g fill-rule="nonzero" stroke="none" stroke-linecap="butt" stroke-linejoin="miter"><g fill="#45b5e6" stroke-width="0"><path d="M208.75315,213.93832l-6.05509,-6.05509l0.90827,-0.90827l6.05509,6.05509z"/><path d="M207.66481,204.70311c0.3036,0.3036 0.30354,0.79598 0,1.09952l-6.13918,6.13917c-0.3036,0.3036 -0.79592,0.30347 -1.09945,-0.00006l-2.54359,-2.54359c-0.3036,-0.3036 -0.3036,-0.79579 0,-1.0994l6.13911,-6.13911c0.30374,-0.30374 0.79586,-0.30366 1.09946,-0.00006l2.54358,2.54358z"/></g><text transform="translate(209.44316,210.32878) scale(0.19587,0.20747)" font-size="40" xml:space="preserve" fill="#585858" fill-rule="nonzero" stroke="none" stroke-width="1" stroke-linecap="butt" stroke-linejoin="miter" stroke-miterlimit="10" stroke-dasharray="" stroke-dashoffset="0" font-family="Sans Serif" font-weight="normal" text-anchor="start" style="mix-blend-mode: normal"><tspan x="0" dy="0">140,000G</tspan></text></g><g stroke-width="1"><g data-paper-data="{&quot;index&quot;:null}"><path d="M204.68463,214.69793c0.0443,-0.02953 0.11815,-0.01477 0.13292,0.04431l0.38401,1.58035c0,0 0.94524,0.69416 1.22588,1.18158c0.47263,0.81232 0.48739,1.47697 0.48739,1.47697c0,0 1.04864,0.31017 1.22589,1.15203c0.17723,0.84187 -0.47263,2.43699 -3.24931,2.98347c-2.7767,0.54647 -5.00691,-0.20678 -6.05557,-1.89052c-1.04864,-1.68374 0.60554,-3.69241 0.51693,-3.57425l-0.31017,-2.64377c-0.01477,-0.05909 0.05908,-0.10339 0.11814,-0.07385l1.78713,1.16681c0,0 0.66464,-0.25109 1.35881,-0.28063c0.41356,-0.02953 0.76802,0 1.10772,0.05909z" fill="#45b5e6" fill-rule="evenodd" stroke="#45b5e6" stroke-linecap="butt" stroke-linejoin="miter"/><path d="M209.58817,219.20268c-0.69417,0.56124 -1.7576,0.57601 -1.7576,0.57601" fill="#45b5e6" fill-rule="evenodd" stroke="#45b5e6" stroke-linecap="round" stroke-linejoin="round"/><path d="M209.39615,220.85687c-0.93048,0.07385 -1.50651,-0.20676 -1.50651,-0.20676" fill="#45b5e6" fill-rule="evenodd" stroke="#45b5e6" stroke-linecap="round" stroke-linejoin="round"/><path d="M197.72814,219.15836c0,0 1.27017,0.41356 1.78711,0.87141" fill="#45b5e6" fill-rule="evenodd" stroke="#45b5e6" stroke-linecap="round" stroke-linejoin="round"/><path d="M199.55957,220.54671c-0.6351,0.25108 -1.72804,0.08862 -1.72804,0.08862" fill="#45b5e6" fill-rule="evenodd" stroke="#45b5e6" stroke-linecap="round" stroke-linejoin="round"/><g fill="none" fill-rule="nonzero" stroke="none" stroke-linecap="butt" stroke-linejoin="miter" font-family="sans-serif" font-weight="normal" font-size="12" text-anchor="start"/><g fill="none" fill-rule="nonzero" stroke="none" stroke-linecap="butt" stroke-linejoin="miter" font-family="sans-serif" font-weight="normal" font-size="12" text-anchor="start"/></g><text transform="translate(209.44316,222.38156) scale(0.19588,0.20747)" font-size="40" xml:space="preserve" fill="#585858" fill-rule="nonzero" stroke="none" stroke-width="1" stroke-linecap="butt" stroke-linejoin="miter" stroke-miterlimit="10" stroke-dasharray="" stroke-dashoffset="0" font-family="Sans Serif" font-weight="normal" text-anchor="start" style="mix-blend-mode: normal"><tspan x="0" dy="0">700G</tspan></text></g><g fill-rule="nonzero" stroke="none" stroke-linecap="butt"><path d="M248.03087,215.93531c0.41438,-0.94222 1.30869,-1.59712 2.34778,-1.59712c1.4325,0 2.5951,1.24099 2.5951,2.77006c0,3.0114 -4.94287,7.00154 -4.94287,7.00154c0,0 -4.94286,-3.89088 -4.94286,-7.00154c0,-1.52908 1.1626,-2.77006 2.5951,-2.77006c1.03907,0 1.9334,0.65487 2.34776,1.59712z" fill="#45b5e6" stroke-width="0" stroke-linejoin="round"/><text transform="translate(253.23743,222.41856) scale(0.19589,0.20748)" font-size="40" xml:space="preserve" fill="#585858" fill-rule="nonzero" stroke="none" stroke-width="1" stroke-linecap="butt" stroke-linejoin="miter" stroke-miterlimit="10" stroke-dasharray="" stroke-dashoffset="0" font-family="Sans Serif" font-weight="normal" text-anchor="start" style="mix-blend-mode: normal"><tspan x="0" dy="0">10%</tspan></text></g><g fill-rule="nonzero" stroke="none" stroke-linecap="butt" stroke-linejoin="miter"><g fill="#45b5e6" stroke-width="0"><path d="M241.85852,206.60629l5.64578,-1.34827l3.23916,3.23917l-1.34825,5.64577l-3.23077,-3.23077l-0.02081,-1.06159h-1.04078z"/><path d="M254.06963,202.84012l-4.99544,4.99545l-0.90828,-0.90827l4.99544,-4.99545z"/></g><text transform="translate(252.97427,210.4311) scale(0.19589,0.20748)" font-size="40" xml:space="preserve" fill="#585858" fill-rule="nonzero" stroke="none" stroke-width="1" stroke-linecap="butt" stroke-linejoin="miter" stroke-miterlimit="10" stroke-dasharray="" stroke-dashoffset="0" font-family="Sans Serif" font-weight="normal" text-anchor="start" style="mix-blend-mode: normal"><tspan x="0" dy="0">620G</tspan></text></g><g fill-rule="nonzero" stroke-linejoin="miter"><g data-paper-data="{&quot;index&quot;:null}"><path d="M285.30538,126.51036v54.50438h-23.59043l-29.54254,-54.50438h53.13295" fill-opacity="0.75294" fill="#b4e0d7" stroke="none" stroke-width="1" stroke-linecap="butt"/><path d="M232.17254,126.51036l29.54254,54.50438h-15.87317l-29.54254,-54.50438h15.87317" fill-opacity="0.74902" fill="#d4fff5" stroke="none" stroke-width="1" stroke-linecap="butt"/><path d="M207.39142,126.51036l29.43221,54.50438h-8.92818l-29.54254,-54.50438h9.03849" fill-opacity="0.74902" fill="#d4fff5" stroke="none" stroke-width="1" stroke-linecap="butt"/><path d="M216.29935,126.51036l29.54254,54.50438h-9.03849l-29.43221,-54.50438h8.92818" fill-opacity="0.75294" fill="#b4e0d7" stroke="none" stroke-width="1" stroke-linecap="butt"/><path d="M194.7947,126.51036h3.63798l29.54254,54.50438h-33.18052v-54.50438" fill-opacity="0.75294" fill="#b4e0d7" stroke="none" stroke-width="1" stroke-linecap="butt"/><g stroke-width="1.512" stroke-linecap="round"><path d="" fill="#5e154d" stroke="#5e154d"/><path d="M285.30538,126.51036v54.50438h-90.61076v-54.50438h90.61076" fill="none" stroke="#666666"/></g></g><path d="M195.86531,185.46271c0,0 0,-1.95432 0,-3.7909c0,-0.4173 5.3,-13.59146 5.3,-13.59146l77.28031,0.8c0,0 5.6,9.44499 5.6,12.6821c0,1.70362 0,3.90027 0,3.90027z" fill="#bfbfbf" stroke="none" stroke-width="0" stroke-linecap="butt"/><path d="M197.78294,180.84784l3.66186,-12.20622h77.0212l3.66187,12.20622z" fill="url(#color-1)" stroke="#8fbfb2" stroke-width="4" stroke-linecap="butt"/><path d="M197.78294,180.84784l3.66186,-12.20622h77.0212l3.66187,12.20622z" data-paper-data="{&quot;index&quot;:null}" fill="url(#color-2)" stroke="#8fbfb2" stroke-width="4" stroke-linecap="butt"/><path d="M278.54921,174.48183c0.1644,0.81811 -0.822,0.95445 -0.822,0.95445l-0.70986,0.08668c-3.7947,-0.00848 -7.55778,-0.60137 -11.40923,-0.60404c-7.4376,0.56079 -14.8457,0.52864 -22.31804,0.52864c0,0 -0.02035,0 -0.05523,-0.0024c-0.03499,-0.00081 -0.05521,-0.00267 -0.05521,-0.00267l-0.70775,-0.07032c-6.88744,0 -13.88202,-0.21939 -20.73036,0.44919c-6.98389,0.34071 -13.8554,-0.37379 -20.8151,-0.37379c0,0 -1,0 -1,-0.82939c0,-0.82939 1,-0.82939 1,-0.82939c6.90124,0 13.7152,0.71804 20.63945,0.3802c6.90693,-0.67359 13.95972,-0.4556 20.906,-0.4556l0.87008,0.0754c7.42524,0.00015 14.78461,0.03033 22.17551,-0.52694c3.87372,-0.00251 7.68947,0.61213 11.49986,0.60234l0.38106,-0.06411c0,0 0.9864,-0.13636 1.1508,0.68175z" fill="#e6fff8" stroke="none" stroke-width="0.5" stroke-linecap="butt"/><path d="M277.13087,172.47181l-0.14299,-0.15753c-1.75232,0.44654 -3.66745,0.24721 -5.52356,0.24721c-3.89375,0 -7.78511,-0.0663 -11.67474,-0.06805c-6.50549,-0.37157 -13.06975,0.12586 -19.57216,0.13543l-0.75347,0.13207c-5.97558,0.39872 -11.87965,-0.1258 -17.85619,-0.47c-6.64913,0.00318 -12.9746,0.58918 -19.59012,0.20049c0,0 -0.99655,-0.06167 -0.9135,-0.80161c0.08304,-0.73994 1.07959,-0.67828 1.07959,-0.67828c6.58121,0.4246 12.87921,-0.20748 19.50079,-0.20451c5.88691,0.3336 11.71385,0.87639 17.59836,0.47501l0.57527,-0.11588c0,0 0.0461,-0.00856 0.12071,-0.01448c0.07432,-0.00769 0.12183,-0.00769 0.12183,-0.00769c6.56676,0.00402 13.19449,-0.50977 19.76565,-0.13446c3.8637,-0.00185 7.73008,0.06696 11.59799,0.06696c1.53792,0 3.42366,0.25751 4.84007,-0.1578l1.31155,0.11247c0,0 0.97014,0.18008 0.72761,0.90042c-0.24254,0.72034 -1.21268,0.54026 -1.21268,0.54026z" data-paper-data="{&quot;index&quot;:null}" fill="#e6fff8" stroke="none" stroke-width="0.5" stroke-linecap="butt"/><path d="M197.78294,180.84784l3.66186,-12.20622h77.0212l3.66187,12.20622z" data-paper-data="{&quot;index&quot;:null}" fill="url(#color-3)" stroke="#b6f3e2" stroke-width="4" stroke-linecap="butt"/><path d="M203.01846,179.14876v-7.33245l1.28639,-0.90048l2.95871,8.49022" fill="none" stroke="#666666" stroke-width="1.5" stroke-linecap="round"/><path d="M208.80974,179.14876v-7.33245l1.28639,-0.90048l2.95871,8.49022" fill="none" stroke="#666666" stroke-width="1.5" stroke-linecap="round"/><path d="M205.28084,182.53703v-3.61295h2.64874l0.33757,1.74416l1.86547,0.24399c0,0 -0.06107,-1.98815 0.04748,-1.98815c2.61437,0 5.97564,0 5.97564,0v3.61295z" fill="#b6f3e2" stroke="none" stroke-width="0" stroke-linecap="butt"/><path d="M194.84574,186.32394v-60.49176h90.21921v60.49176z" fill="none" stroke="#666666" stroke-width="2" stroke-linecap="butt"/><g stroke="#9b9b9b" stroke-linecap="butt"><path d="M197.96281,134.56859l10.39639,1.79787l-8.37769,18.00282z" fill="#ffdf00" stroke-width="0"/><path d="M208.44328,136.11427l10.46695,1.32674l-7.55649,18.36264z" fill="#005cff" stroke-width="0"/><path d="M219.81238,137.43466l10.49958,1.03732l-7.04676,18.56422z" fill="#ffdf00" stroke-width="0"/><path d="M230.43697,138.50459l10.54741,-0.26341l-4.70728,19.29063z" fill="#005cff" stroke-width="0"/><path d="M241.09019,138.27185l10.53032,-0.65535l-3.98685,19.45231z" fill="#ffdf00" stroke-width="0"/><path d="M251.40538,138.08195l10.50919,-0.935l-3.46842,19.5514z" fill="#005cff" stroke-width="0"/><path d="M262.12909,136.92544l10.47467,-1.2643l-2.85324,19.65061z" fill="#ffdf00" stroke-width="0"/><path d="M272.28901,135.81927l10.38042,-1.88789l-1.67404,19.78597z" fill="#005cff" stroke-width="0"/><path d="M284.27602,134.00051c-13.2181,2.41842 -28.30406,3.78878 -44.32067,3.78878c-16.22054,0 -31.48658,-1.40548 -44.82464,-3.88166" fill="none" stroke-width="3"/></g><g fill="none"><path d="M274.70787,180.52242c0.02846,1.25208 0.06706,2.95053 0.06706,2.95053" stroke="#666666" stroke-width="1.5" stroke-linecap="round"/><path d="M279.56265,176.66395c0.48221,1.38784 -2.69545,3.75285 -7.09751,5.28238c-4.40207,1.52953 -8.36157,1.64439 -8.84378,0.25655c-0.48221,-1.38784 2.69545,-3.75285 7.09751,-5.28238c4.40207,-1.52953 8.36157,-1.64439 8.84378,-0.25655z" stroke="#ff0000" stroke-width="3.5" stroke-linecap="butt"/><path d="M282.86162,179.058c-0.46352,1.3942 -4.42419,1.33257 -8.84643,-0.13766c-4.42223,-1.47023 -7.6314,-3.7923 -7.16788,-5.18651c0.46352,-1.3942 4.42419,-1.33257 8.84643,0.13766c4.42223,1.47023 7.6314,3.7923 7.16788,5.18651z" stroke="#ffd239" stroke-width="3.5" stroke-linecap="butt"/><path d="M274.67313,178.9934c-0.04964,-2.18392 -0.17092,-7.52045 -0.17092,-7.52045" stroke="#666666" stroke-width="1.5" stroke-linecap="round"/><path d="M282.86162,179.058c-0.46352,1.3942 -4.42419,1.33257 -8.84643,-0.13766c-4.42223,-1.47023 -7.6314,-3.7923 -7.16788,-5.18651" stroke="#ffd239" stroke-width="3.5" stroke-linecap="butt"/></g></g><path d="M286.08835,126.38078v59.3949c0,0.9386 -0.76314,1.70207 -1.7024,1.70207h-88.77223c-0.93827,0 -1.70207,-0.76347 -1.70207,-1.70207v-59.39522c0,-0.9386 0.7638,-1.70208 1.70207,-1.70208h88.77223c0.93926,0 1.7024,0.7638 1.7024,1.7024z" fill="none" fill-rule="nonzero" stroke="#666666" stroke-width="2" stroke-linecap="butt" stroke-linejoin="miter"/><g fill-rule="nonzero" stroke="none" stroke-linecap="butt" stroke-linejoin="miter"><text transform="translate(252.9769,234.29901) scale(0.19588,0.20747)" font-size="40" xml:space="preserve" fill="#585858" fill-rule="nonzero" stroke="none" stroke-width="1" stroke-linecap="butt" stroke-linejoin="miter" stroke-miterlimit="10" stroke-dasharray="" stroke-dashoffset="0" font-family="Sans Serif" font-weight="normal" text-anchor="start" style="mix-blend-mode: normal"><tspan x="0" dy="0">-7</tspan></text><path d="M244.4761,236.41881l1.7486,-4.14478l-2.20732,-0.69125l5.87862,-5.12252l-1.71443,4.10799l2.18486,0.71764z" fill="#e6c245" stroke-width="0"/></g><g fill-rule="nonzero" stroke="none" stroke-linecap="butt" stroke-linejoin="miter"><text transform="translate(209.44316,234.20486) scale(0.19588,0.20747)" font-size="40" xml:space="preserve" fill="#585858" fill-rule="nonzero" stroke="none" stroke-width="1" stroke-linecap="butt" stroke-linejoin="miter" stroke-miterlimit="10" stroke-dasharray="" stroke-dashoffset="0" font-family="Sans Serif" font-weight="normal" text-anchor="start" style="mix-blend-mode: normal"><tspan x="0" dy="0">-16</tspan></text><path d="M200.35963,232.99861c0,-1.82173 3.29853,-6.42346 3.29853,-6.42346c0,0 3.29853,4.60173 3.29853,6.42346c0,1.82173 -1.4768,3.29853 -3.29853,3.29853c-1.82173,0 -3.29853,-1.4768 -3.29853,-3.29853z" fill="#0079cd" stroke-width="NaN"/></g></g></g></svg>