<svg version="1.1" xmlns="http://www.w3.org/2000/svg" xmlns:xlink="http://www.w3.org/1999/xlink" width="99.20614" height="119.40827" viewBox="0,0,99.20614,119.40827"><defs><linearGradient x1="223.41773" y1="169.29022" x2="223.41773" y2="172.94427" gradientUnits="userSpaceOnUse" id="color-1"><stop offset="0" stop-color="#a5a5a5"/><stop offset="1" stop-color="#8c8c8c"/></linearGradient><linearGradient x1="206.53655" y1="151.90363" x2="206.53655" y2="137.02998" gradientUnits="userSpaceOnUse" id="color-2"><stop offset="0" stop-color="#fbff00"/><stop offset="1" stop-color="#fbff00" stop-opacity="0"/></linearGradient></defs><g transform="translate(-190.39693,-120.29588)"><g data-paper-data="{&quot;isPaintingLayer&quot;:true}" stroke-miterlimit="10" stroke-dasharray="" stroke-dashoffset="0" style="mix-blend-mode: normal"><path d="M289.60307,129.31305v101.37565c0,4.97152 -4.04218,9.01545 -9.01718,9.01545h-81.17351c-4.96979,0 -9.01545,-4.04392 -9.01545,-9.01544v-101.37738c0,-4.97152 4.04566,-9.01545 9.01545,-9.01545h81.17351c4.975,0 9.01718,4.04566 9.01718,9.01719z" fill-opacity="0.74902" fill="#d2d3d4" fill-rule="nonzero" stroke="none" stroke-width="1" stroke-linecap="butt" stroke-linejoin="miter"/><path d="M287.06513,163.26163v65.07452c0,4.97152 -4.04219,9.01545 -9.01719,9.01545l-76.09761,0.25093c-4.96979,0 -9.01545,-4.04392 -9.01545,-9.01545v-65.07627z" fill-opacity="0.85882" fill="#ffffff" fill-rule="nonzero" stroke="none" stroke-width="1" stroke-linecap="butt" stroke-linejoin="miter"/><text transform="translate(197.4876,200.16945) scale(0.28036,0.28036)" font-size="40" xml:space="preserve" fill="#000000" fill-rule="nonzero" stroke="#000000" stroke-width="1" stroke-linecap="butt" stroke-linejoin="miter" stroke-miterlimit="10" stroke-dasharray="" stroke-dashoffset="0" font-family="&quot;ヒラギノ角ゴ Pro W3&quot;, &quot;Hiragino Kaku Gothic Pro&quot;, Osaka, &quot;メイリオ&quot;, Meiryo, &quot;ＭＳ Ｐゴシック&quot;, &quot;MS PGothic&quot;" font-weight="normal" text-anchor="start" style="mix-blend-mode: normal"><tspan x="0" dy="0">洋風な客室</tspan></text><g fill-rule="nonzero" stroke="none" stroke-linecap="butt" stroke-linejoin="miter"><g fill="#45b5e6" stroke-width="0"><path d="M208.75315,213.93832l-6.05509,-6.05509l0.90827,-0.90827l6.05509,6.05509z"/><path d="M207.66481,204.70311c0.3036,0.3036 0.30354,0.79598 0,1.09952l-6.13918,6.13917c-0.3036,0.3036 -0.79592,0.30347 -1.09945,-0.00006l-2.54359,-2.54359c-0.3036,-0.3036 -0.3036,-0.79579 0,-1.0994l6.13911,-6.13911c0.30374,-0.30374 0.79586,-0.30366 1.09946,-0.00006l2.54358,2.54358z"/></g><text transform="translate(209.44316,210.32878) scale(0.19587,0.20747)" font-size="40" xml:space="preserve" fill="#585858" fill-rule="nonzero" stroke="none" stroke-width="1" stroke-linecap="butt" stroke-linejoin="miter" stroke-miterlimit="10" stroke-dasharray="" stroke-dashoffset="0" font-family="Sans Serif" font-weight="normal" text-anchor="start" style="mix-blend-mode: normal"><tspan x="0" dy="0">170,000G</tspan></text></g><g stroke-width="1"><g data-paper-data="{&quot;index&quot;:null}"><path d="M204.68463,214.69793c0.0443,-0.02953 0.11815,-0.01477 0.13292,0.04431l0.38401,1.58035c0,0 0.94524,0.69416 1.22588,1.18158c0.47263,0.81232 0.48739,1.47697 0.48739,1.47697c0,0 1.04864,0.31017 1.22589,1.15203c0.17723,0.84187 -0.47263,2.43699 -3.24931,2.98347c-2.7767,0.54647 -5.00691,-0.20678 -6.05557,-1.89052c-1.04864,-1.68374 0.60554,-3.69241 0.51693,-3.57425l-0.31017,-2.64377c-0.01477,-0.05909 0.05908,-0.10339 0.11814,-0.07385l1.78713,1.16681c0,0 0.66464,-0.25109 1.35881,-0.28063c0.41356,-0.02953 0.76802,0 1.10772,0.05909z" fill="#45b5e6" fill-rule="evenodd" stroke="#45b5e6" stroke-linecap="butt" stroke-linejoin="miter"/><path d="M209.58817,219.20268c-0.69417,0.56124 -1.7576,0.57601 -1.7576,0.57601" fill="#45b5e6" fill-rule="evenodd" stroke="#45b5e6" stroke-linecap="round" stroke-linejoin="round"/><path d="M209.39615,220.85687c-0.93048,0.07385 -1.50651,-0.20676 -1.50651,-0.20676" fill="#45b5e6" fill-rule="evenodd" stroke="#45b5e6" stroke-linecap="round" stroke-linejoin="round"/><path d="M197.72814,219.15836c0,0 1.27017,0.41356 1.78711,0.87141" fill="#45b5e6" fill-rule="evenodd" stroke="#45b5e6" stroke-linecap="round" stroke-linejoin="round"/><path d="M199.55957,220.54671c-0.6351,0.25108 -1.72804,0.08862 -1.72804,0.08862" fill="#45b5e6" fill-rule="evenodd" stroke="#45b5e6" stroke-linecap="round" stroke-linejoin="round"/><g fill="none" fill-rule="nonzero" stroke="none" stroke-linecap="butt" stroke-linejoin="miter" font-family="sans-serif" font-weight="normal" font-size="12" text-anchor="start"/><g fill="none" fill-rule="nonzero" stroke="none" stroke-linecap="butt" stroke-linejoin="miter" font-family="sans-serif" font-weight="normal" font-size="12" text-anchor="start"/></g><text transform="translate(209.44316,222.38156) scale(0.19588,0.20747)" font-size="40" xml:space="preserve" fill="#585858" fill-rule="nonzero" stroke="none" stroke-width="1" stroke-linecap="butt" stroke-linejoin="miter" stroke-miterlimit="10" stroke-dasharray="" stroke-dashoffset="0" font-family="Sans Serif" font-weight="normal" text-anchor="start" style="mix-blend-mode: normal"><tspan x="0" dy="0">850G</tspan></text></g><g fill-rule="nonzero" stroke="none" stroke-linecap="butt"><path d="M248.03087,215.93531c0.41438,-0.94222 1.30869,-1.59712 2.34778,-1.59712c1.4325,0 2.5951,1.24099 2.5951,2.77006c0,3.0114 -4.94287,7.00154 -4.94287,7.00154c0,0 -4.94286,-3.89088 -4.94286,-7.00154c0,-1.52908 1.1626,-2.77006 2.5951,-2.77006c1.03907,0 1.9334,0.65487 2.34776,1.59712z" fill="#45b5e6" stroke-width="0" stroke-linejoin="round"/><text transform="translate(253.23743,222.41856) scale(0.19589,0.20748)" font-size="40" xml:space="preserve" fill="#585858" fill-rule="nonzero" stroke="none" stroke-width="1" stroke-linecap="butt" stroke-linejoin="miter" stroke-miterlimit="10" stroke-dasharray="" stroke-dashoffset="0" font-family="Sans Serif" font-weight="normal" text-anchor="start" style="mix-blend-mode: normal"><tspan x="0" dy="0">15%</tspan></text></g><g fill-rule="nonzero" stroke="none" stroke-linecap="butt" stroke-linejoin="miter"><g fill="#45b5e6" stroke-width="0"><path d="M241.85852,206.60629l5.64578,-1.34827l3.23916,3.23917l-1.34825,5.64577l-3.23077,-3.23077l-0.02081,-1.06159h-1.04078z"/><path d="M254.06963,202.84012l-4.99544,4.99545l-0.90828,-0.90827l4.99544,-4.99545z"/></g><text transform="translate(252.97427,210.4311) scale(0.19589,0.20748)" font-size="40" xml:space="preserve" fill="#585858" fill-rule="nonzero" stroke="none" stroke-width="1" stroke-linecap="butt" stroke-linejoin="miter" stroke-miterlimit="10" stroke-dasharray="" stroke-dashoffset="0" font-family="Sans Serif" font-weight="normal" text-anchor="start" style="mix-blend-mode: normal"><tspan x="0" dy="0">1,200G</tspan></text></g><g fill-rule="nonzero" stroke-linejoin="miter"><g data-paper-data="{&quot;index&quot;:null}"><path d="M261.17491,134.86503v47.9725h-7.92333l-9.92247,-47.9725h17.8458" fill-opacity="0.75294" fill="#b4e0d7" stroke="none" stroke-width="1" stroke-linecap="butt"/><path d="M243.38623,134.86503l9.92247,47.9725h-5.33133l-9.92247,-47.9725h5.33133" fill-opacity="0.74902" fill="#d4fff5" stroke="none" stroke-width="1" stroke-linecap="butt"/><path d="M235.08632,134.86503l9.88542,47.9725h-2.99871l-9.92247,-47.9725h3.03576" fill-opacity="0.74902" fill="#d4fff5" stroke="none" stroke-width="1" stroke-linecap="butt"/><path d="M238.0549,134.86503l9.92247,47.9725h-3.03576l-9.88542,-47.9725h2.99871" fill-opacity="0.75294" fill="#b4e0d7" stroke="none" stroke-width="1" stroke-linecap="butt"/><path d="M230.91467,134.86503h1.22189l9.92247,47.9725h-11.14437v-47.9725" fill-opacity="0.75294" fill="#b4e0d7" stroke="none" stroke-width="1" stroke-linecap="butt"/><g stroke-linecap="round"><path d="" fill="#5e154d" stroke="#5e154d" stroke-width="1.512"/><path d="M261.23201,134.86503v47.9725h-30.4335v-47.9725h30.4335" fill="none" stroke="none" stroke-width="0"/></g></g><path d="M194.8904,186.32394v-60.49176h90.21921v60.49176zM261.15001,180.88698l-0.08333,-45.83333l-30.0625,0.02083l-0.08333,45.78599z" data-paper-data="{&quot;index&quot;:null}" fill="#d8bcaa" stroke="#666666" stroke-width="2" stroke-linecap="butt"/><path d="M207.33752,173.33721l-7.01061,3.92807c-0.3617,0.20267 -0.8207,0.07342 -1.02351,-0.28853c0,0 -2.8389,-11.52479 -1.72298,-12.15005c1.21291,-0.6796 3.79682,-2.12737 3.79682,-2.12737c0.3617,-0.20267 0.82083,-0.07316 1.02344,0.28842l5.2253,9.32584c0.20281,0.36196 0.07325,0.82096 -0.28846,1.02363z" fill="#b1acc4" stroke="none" stroke-width="1" stroke-linecap="butt"/><path d="M198.60082,181.75439v-8.7553h38.591v8.7553z" data-paper-data="{&quot;index&quot;:null}" fill="#b28059" stroke="none" stroke-width="0" stroke-linecap="butt"/><path d="M195.8775,181.75439v-19.58161h4.06419v19.58161z" data-paper-data="{&quot;index&quot;:null}" fill="#b28059" stroke="none" stroke-width="0" stroke-linecap="butt"/><path d="M235.54773,170.2761v1.97655c0,0.38139 -0.3101,0.69162 -0.69176,0.69162h-28.2884c-0.38126,0 -0.69162,-0.31023 -0.69162,-0.69162v-1.97669c0,-0.38139 0.31036,-0.69162 0.69162,-0.69162h28.2884c0.38166,0 0.69176,0.31036 0.69176,0.69176z" fill="#998290" stroke="none" stroke-width="1" stroke-linecap="butt"/><path d="M226.9595,170.04254v2.14957c0,0.41477 -0.07403,0.75216 -0.16514,0.75216h-6.75329c-0.09102,0 -0.16511,-0.33739 -0.16511,-0.75216v-2.14972c0,-0.41477 0.07409,-0.75216 0.16511,-0.75216h6.75329c0.09112,0 0.16514,0.33753 0.16514,0.75231z" fill="url(#color-1)" stroke="none" stroke-width="1" stroke-linecap="butt"/><path d="M237.60655,173.15845v6.03537c0,0.38139 -0.3101,0.69162 -0.69176,0.69162h-36.75898c-0.38126,0 -0.69162,-0.31023 -0.69162,-0.69162v-6.03551c0,-0.38139 0.31036,-0.69162 0.69162,-0.69162h36.75898c0.38166,0 0.69176,0.31036 0.69176,0.69176z" fill="#d8d4d7" stroke="none" stroke-width="1" stroke-linecap="butt"/><g data-paper-data="{&quot;index&quot;:null}" fill="none"><g stroke="#bf7736" stroke-width="2" stroke-linecap="round"><path d="M259.7842,181.62356l0.04855,-18.20964"/><path d="M251.83096,163.36846l15.99286,0.07863"/></g><g stroke="none" stroke-width="1" stroke-linecap="butt" font-family="sans-serif" font-weight="normal" font-size="12" text-anchor="start"/><g data-paper-data="{&quot;index&quot;:null}" stroke="none" stroke-width="1" stroke-linecap="butt" font-family="sans-serif" font-weight="normal" font-size="12" text-anchor="start"/></g><g fill="none"><g data-paper-data="{&quot;index&quot;:null}"><g stroke="none" stroke-width="1" stroke-linecap="butt" font-family="sans-serif" font-weight="normal" font-size="12" text-anchor="start"/><g stroke="none" stroke-width="1" stroke-linecap="butt" font-family="sans-serif" font-weight="normal" font-size="12" text-anchor="start"/><g data-paper-data="{&quot;index&quot;:null}" stroke="#bf7736" stroke-width="2" stroke-linecap="round"><path d="M274.78821,173.88166v8.28219"/><path d="M283.10727,164.89055c0,0 -1.92884,2.47825 -2.75868,3.87617c-0.88972,1.4988 -1.16842,3.16349 -2.94194,4.30569c-1.77352,1.14221 -3.26265,0.5399 -5.57031,1.17647c-2.30766,0.63657 -7.12132,3 -7.12132,3"/></g></g><g data-paper-data="{&quot;index&quot;:null}"><g stroke="none" stroke-width="1" stroke-linecap="butt" font-family="sans-serif" font-weight="normal" font-size="12" text-anchor="start"/><g stroke="none" stroke-width="1" stroke-linecap="butt" font-family="sans-serif" font-weight="normal" font-size="12" text-anchor="start"/><g data-paper-data="{&quot;index&quot;:null}" stroke="#99a3b2" stroke-width="2" stroke-linecap="round"><path d="M282.81315,164.41996c0,0 -1.92884,2.47824 -2.75868,3.87616c-0.88972,1.4988 -1.1096,3.22231 -2.88312,4.36452c-1.77352,1.14221 -3.32147,0.48107 -5.62913,1.11765c-2.30766,0.63657 -7.12132,3 -7.12132,3"/></g></g></g><path d="M195.9101,185.40644v-3.6523c0,0 24.94722,0 38.62281,0c15.49098,0 49.5575,0 49.5575,0v3.6523z" data-paper-data="{&quot;index&quot;:null}" fill="#c0c0c0" stroke="none" stroke-width="0" stroke-linecap="butt"/><g stroke="#666666" stroke-width="0" stroke-linecap="butt"><g data-paper-data="{&quot;index&quot;:null}" fill="url(#color-2)"><g><path d="M203.54948,146.33601c-0.50984,-0.48025 -0.45625,-11.02733 2.8049,-11.09188c3.22274,-0.06378 3.54518,10.84489 2.79903,11.35569c-1.86798,1.27879 -4.0145,1.23337 -5.60391,-0.26381z"/></g></g><g fill="#8e8e6c"><g><path d="M203.71731,145.94821c1.49585,-0.85371 3.51601,-0.87961 5.27401,-0.15042c0.70223,0.29127 0.39877,6.51154 -2.63425,6.47518c-3.06916,-0.0368 -3.11959,-6.0509 -2.63977,-6.32475z"/></g></g></g></g><path d="M286.08835,126.38078v59.3949c0,0.9386 -0.76314,1.70207 -1.7024,1.70207h-88.77223c-0.93827,0 -1.70207,-0.76347 -1.70207,-1.70207v-59.39522c0,-0.9386 0.7638,-1.70208 1.70207,-1.70208h88.77223c0.93926,0 1.7024,0.7638 1.7024,1.7024z" fill="none" fill-rule="nonzero" stroke="#666666" stroke-width="2" stroke-linecap="butt" stroke-linejoin="miter"/><g fill-rule="nonzero" stroke="none" stroke-linecap="butt" stroke-linejoin="miter"><text transform="translate(252.9769,234.29901) scale(0.19588,0.20747)" font-size="40" xml:space="preserve" fill="#585858" fill-rule="nonzero" stroke="none" stroke-width="1" stroke-linecap="butt" stroke-linejoin="miter" stroke-miterlimit="10" stroke-dasharray="" stroke-dashoffset="0" font-family="Sans Serif" font-weight="normal" text-anchor="start" style="mix-blend-mode: normal"><tspan x="0" dy="0">-10</tspan></text><path d="M244.4761,236.41881l1.7486,-4.14478l-2.20732,-0.69125l5.87862,-5.12252l-1.71443,4.10799l2.18486,0.71764z" fill="#e6c245" stroke-width="0"/></g><g fill-rule="nonzero" stroke="none" stroke-linecap="butt" stroke-linejoin="miter"><text transform="translate(209.44316,234.20486) scale(0.19588,0.20747)" font-size="40" xml:space="preserve" fill="#585858" fill-rule="nonzero" stroke="none" stroke-width="1" stroke-linecap="butt" stroke-linejoin="miter" stroke-miterlimit="10" stroke-dasharray="" stroke-dashoffset="0" font-family="Sans Serif" font-weight="normal" text-anchor="start" style="mix-blend-mode: normal"><tspan x="0" dy="0">-8</tspan></text><path d="M200.35963,232.99861c0,-1.82173 3.29853,-6.42346 3.29853,-6.42346c0,0 3.29853,4.60173 3.29853,6.42346c0,1.82173 -1.4768,3.29853 -3.29853,3.29853c-1.82173,0 -3.29853,-1.4768 -3.29853,-3.29853z" fill="#0079cd" stroke-width="NaN"/></g></g></g></svg>