<svg version="1.1" xmlns="http://www.w3.org/2000/svg" xmlns:xlink="http://www.w3.org/1999/xlink" width="99.20614" height="119.40827" viewBox="0,0,99.20614,119.40827"><defs><radialGradient cx="222.96101" cy="155.05463" r="8.9375" gradientUnits="userSpaceOnUse" id="color-1"><stop offset="0" stop-color="#ffffff"/><stop offset="1" stop-color="#ffffff" stop-opacity="0"/></radialGradient><radialGradient cx="257.77351" cy="154.92963" r="12.25" gradientUnits="userSpaceOnUse" id="color-2"><stop offset="0" stop-color="#ffffff"/><stop offset="1" stop-color="#ffffff" stop-opacity="0"/></radialGradient><radialGradient cx="232.52351" cy="135.30463" r="10.375" gradientUnits="userSpaceOnUse" id="color-3"><stop offset="0" stop-color="#ffffff"/><stop offset="1" stop-color="#ffffff" stop-opacity="0"/></radialGradient><radialGradient cx="238.02351" cy="139.17963" r="10.375" gradientUnits="userSpaceOnUse" id="color-4"><stop offset="0" stop-color="#ffffff"/><stop offset="1" stop-color="#ffffff" stop-opacity="0"/></radialGradient><radialGradient cx="260.02351" cy="140.92963" r="10.375" gradientUnits="userSpaceOnUse" id="color-5"><stop offset="0" stop-color="#ffffff"/><stop offset="1" stop-color="#ffffff" stop-opacity="0"/></radialGradient></defs><g transform="translate(-190.39693,-120.29588)"><g data-paper-data="{&quot;isPaintingLayer&quot;:true}" stroke-miterlimit="10" stroke-dasharray="" stroke-dashoffset="0" style="mix-blend-mode: normal"><path d="M289.60307,129.31305v101.37565c0,4.97152 -4.04218,9.01545 -9.01718,9.01545h-81.17351c-4.96979,0 -9.01545,-4.04392 -9.01545,-9.01544v-101.37738c0,-4.97152 4.04566,-9.01545 9.01545,-9.01545h81.17351c4.975,0 9.01718,4.04566 9.01718,9.01719z" fill-opacity="0.74902" fill="#d2d3d4" fill-rule="nonzero" stroke="none" stroke-width="1" stroke-linecap="butt" stroke-linejoin="miter"/><path d="M287.06513,161.2038v65.07452c0,4.97152 -4.04219,9.01545 -9.01719,9.01545l-76.09761,0.25093c-4.96979,0 -9.01545,-4.04392 -9.01545,-9.01545v-65.07627z" fill-opacity="0.85882" fill="#ffffff" fill-rule="nonzero" stroke="none" stroke-width="1" stroke-linecap="butt" stroke-linejoin="miter"/><text transform="translate(197.4876,200.16945) scale(0.28036,0.28036)" font-size="40" xml:space="preserve" fill="#000000" fill-rule="nonzero" stroke="#000000" stroke-width="1" stroke-linecap="butt" stroke-linejoin="miter" stroke-miterlimit="10" stroke-dasharray="" stroke-dashoffset="0" font-family="&quot;ヒラギノ角ゴ Pro W3&quot;, &quot;Hiragino Kaku Gothic Pro&quot;, Osaka, &quot;メイリオ&quot;, Meiryo, &quot;ＭＳ Ｐゴシック&quot;, &quot;MS PGothic&quot;" font-weight="normal" text-anchor="start" style="mix-blend-mode: normal"><tspan x="0" dy="0">部屋名</tspan></text><g fill-rule="nonzero" stroke-linecap="butt" stroke-linejoin="miter"><path d="M194.8904,186.32395v-60.49176h90.21921v60.49176z" fill="#ccab52" stroke="#666666" stroke-width="2"/><path d="M264.54814,173.99962c-10.9193,2.42651 -22.57412,1.47561 -33.74178,1.32159c-4.87829,-0.06728 -9.89267,0.27308 -14.67075,-0.67902c-2.87211,-0.57231 -6.43859,-1.10998 -8.44032,-3.44532c-4.92585,-5.74682 6.26395,-10.58561 9.87079,-11.50716c5.11394,-1.30662 10.71636,-0.61349 15.90964,-0.39838c9.14041,0.3786 18.62209,1.12546 27.53883,3.24763c6.24621,1.48658 13.23576,8.20273 3.67686,11.38903z" fill="#00fdff" stroke="none" stroke-width="0.5"/><path d="M278.57876,176.22894c-0.24286,0.41149 -0.60024,0.74735 -1.02829,0.96371c0.02375,0.18434 0.02259,0.37256 -0.00914,0.56548c-0.28247,1.71738 -2.05229,2.89583 -3.47747,3.89486c-1.42536,0.99916 -4.95943,1.00034 -6.58386,1.14928c-4.77411,0.43774 -9.73394,0.28113 -14.4382,1.07556c-9.19076,0.61712 -18.3574,0.88286 -27.57129,0.88286c-5.4966,0 -12.07781,0.23696 -17.39037,-1.40444c-7.90815,-2.44334 -9.19675,-9.66419 -6.37943,-16.49924c0.76764,-0.82875 1.3581,-1.87397 2.25061,-2.55016c-0.00712,-0.02233 -0.01413,-0.04469 -0.02103,-0.06707c-0.94414,-3.06159 0.14018,-6.62138 3.33041,-4.97449c0.0424,0.02189 0.08448,0.0486 0.12619,0.07983c0.16379,-0.22049 0.35445,-0.42717 0.57367,-0.61659c1.85153,-1.59983 9.84802,-4.60543 12.42991,-3.95996c0.15309,0.03827 0.30311,0.08286 0.44978,0.13335c1.25495,-1.2649 3.02779,-1.95361 4.81824,-1.25398c0.77726,0.30372 2.90344,2.39242 3.82443,1.71158c5.57785,-4.12339 10.5857,-3.948 16.4845,0.72587c0.71227,0.56436 1.49911,-1.06418 2.35129,-1.37978c1.97855,-0.73276 4.43595,-0.60488 6.38302,0.20474c2.00505,0.83373 2.93882,3.66836 4.6267,4.40454c0.0018,0.00078 1.52381,-1.52772 1.92598,-1.70029c1.64415,-0.70551 3.44389,-0.80184 5.07339,0.00485c4.14959,2.05426 6.25636,5.21499 8.12486,9.37584c0.13498,0.30058 0.33479,0.82548 0.50915,1.42475c1.77619,1.21452 5.82801,6.54544 3.61695,7.8089zM261.7994,166.13726c-6.89105,-1.78022 -13.90359,-3.06068 -20.82339,-4.61671c-4.69259,-1.05521 -13.60229,-0.82819 -18.7581,0.94081c-1.32276,0.45385 -6.43178,2.36975 -8.71756,2.33617c0.84349,1.17201 1.20904,2.68668 1.36587,4.22037c1.10341,-0.32295 2.3492,-0.34993 3.75461,0.02507c1.05685,0.28199 4.21567,4.31718 5.7489,3.82994c2.65234,-0.84287 4.24205,-3.3405 7.17771,-4.07296c2.98264,-0.74418 4.23179,-0.81194 7.08327,0.68665c0.81327,0.42741 1.53114,2.25926 2.21278,1.64327c1.63669,-1.47906 3.19478,-4.78126 4.6779,-6.45256c4.74666,-0.50311 6.99902,0.06461 11.04185,2.7568c1.70335,1.13429 3.43919,2.34654 4.67929,3.97447c0.29052,0.38137 -0.33124,1.46134 0.1472,1.43071c0.51336,-0.03287 0.24191,-1.00872 0.46924,-1.47018c0.56071,-1.13816 1.40867,-2.51478 2.49899,-3.50425c-0.87919,-0.80822 -1.74274,-1.51683 -2.55858,-1.7276z" fill="#666666" stroke="none" stroke-width="0.5"/><path d="M217.3915,166.68224c-0.69016,-0.55213 -0.08221,-2.00251 -0.73839,-3.15007c-0.79251,-1.38598 -2.74095,-2.48312 -2.07411,-3.0166c1.21898,-0.97518 1.08616,-0.62625 2.9375,0.125c0.94976,0.3854 2.50008,3.69276 2.45563,4.56502c-0.04904,0.96237 -1.78135,2.11608 -2.58063,1.47665z" fill="#00fdff" stroke="none" stroke-width="NaN"/><path d="M195.89099,185.40645v-3.6523h88.18031v3.6523z" fill="#c0c0c0" stroke="none" stroke-width="0"/><path d="M216.17209,159.07342l-0.51642,4.47567c0,0 -4.50607,-0.76279 -5.39834,0.42691c-0.6884,0.91786 -3.819,2.1595 -4.40277,0.70917c-0.08386,-0.20835 -0.49236,-3.16342 1.74142,-4.33389c2.87691,-1.50746 8.57611,-1.27786 8.57611,-1.27786z" fill="#7f7f7f" stroke="none" stroke-width="0"/><path d="M204.66503,166.66011c0,-2.08631 2.10695,-3.7776 4.70599,-3.7776c2.59905,0 4.70599,1.69129 4.70599,3.7776c0,2.08631 -2.10695,3.7776 -4.70599,3.7776c-2.59905,0 -4.70599,-1.69129 -4.70599,-3.7776z" fill="#666666" stroke="none" stroke-width="0"/><path d="M231.89851,155.05463c0,4.62538 -4.00146,8.375 -8.9375,8.375c-4.93604,0 -8.9375,-3.74962 -8.9375,-8.375c0,-4.62538 4.00146,-8.375 8.9375,-8.375c4.93604,0 8.9375,3.74962 8.9375,8.375z" fill="url(#color-1)" stroke="#b28059" stroke-width="0"/><path d="M270.02351,154.92963c0,4.62538 -5.48451,8.375 -12.25,8.375c-6.76549,0 -12.25,-3.74962 -12.25,-8.375c0,-4.62538 5.48451,-8.375 12.25,-8.375c6.76549,0 12.25,3.74962 12.25,8.375z" fill="url(#color-2)" stroke="#b28059" stroke-width="0"/><path d="M242.89851,135.30463c0,4.62538 -4.64504,8.375 -10.375,8.375c-5.72996,0 -10.375,-3.74962 -10.375,-8.375c0,-4.62538 4.64504,-8.375 10.375,-8.375c5.72996,0 10.375,3.74962 10.375,8.375z" fill="url(#color-3)" stroke="#b28059" stroke-width="0"/><path d="M248.39851,139.17963c0,4.62538 -4.64505,8.375 -10.375,8.375c-5.72995,0 -10.375,-3.74962 -10.375,-8.375c0,-4.62538 4.64505,-8.375 10.375,-8.375c5.72995,0 10.375,3.74962 10.375,8.375z" fill="url(#color-4)" stroke="#b28059" stroke-width="0"/><path d="M270.39851,140.92963c0,4.62538 -4.64504,8.375 -10.375,8.375c-5.72995,0 -10.375,-3.74962 -10.375,-8.375c0,-4.62538 4.64505,-8.375 10.375,-8.375c5.72996,0 10.375,3.74962 10.375,8.375z" fill="url(#color-5)" stroke="#b28059" stroke-width="0"/></g><path d="M286.08835,126.38078v59.3949c0,0.9386 -0.76314,1.70207 -1.7024,1.70207h-88.77223c-0.93827,0 -1.70207,-0.76347 -1.70207,-1.70207v-59.39522c0,-0.9386 0.7638,-1.70208 1.70207,-1.70208h88.77223c0.93926,0 1.7024,0.7638 1.7024,1.7024z" fill="none" fill-rule="nonzero" stroke="#666666" stroke-width="2" stroke-linecap="butt" stroke-linejoin="miter"/><g fill-rule="nonzero" stroke="none" stroke-linecap="butt" stroke-linejoin="miter"><g fill="#45b5e6" stroke-width="0"><path d="M208.75315,213.93832l-6.05509,-6.05509l0.90827,-0.90827l6.05509,6.05509z"/><path d="M207.66481,204.70311c0.3036,0.3036 0.30354,0.79598 0,1.09952l-6.13918,6.13917c-0.3036,0.3036 -0.79592,0.30347 -1.09945,-0.00006l-2.54359,-2.54359c-0.3036,-0.3036 -0.3036,-0.79579 0,-1.0994l6.13911,-6.13911c0.30374,-0.30374 0.79586,-0.30366 1.09946,-0.00006l2.54358,2.54358z"/></g><text transform="translate(209.44316,210.32878) scale(0.19587,0.20747)" font-size="40" xml:space="preserve" fill="#585858" fill-rule="nonzero" stroke="none" stroke-width="1" stroke-linecap="butt" stroke-linejoin="miter" stroke-miterlimit="10" stroke-dasharray="" stroke-dashoffset="0" font-family="Sans Serif" font-weight="normal" text-anchor="start" style="mix-blend-mode: normal"><tspan x="0" dy="0">10,000G</tspan></text></g><g stroke-width="1"><g data-paper-data="{&quot;index&quot;:null}"><path d="M204.68463,214.69793c0.0443,-0.02953 0.11815,-0.01477 0.13292,0.04431l0.38401,1.58035c0,0 0.94524,0.69416 1.22588,1.18158c0.47263,0.81232 0.48739,1.47697 0.48739,1.47697c0,0 1.04864,0.31017 1.22589,1.15203c0.17723,0.84187 -0.47263,2.43699 -3.24931,2.98347c-2.7767,0.54647 -5.00691,-0.20678 -6.05557,-1.89052c-1.04864,-1.68374 0.60554,-3.69241 0.51693,-3.57425l-0.31017,-2.64377c-0.01477,-0.05909 0.05908,-0.10339 0.11814,-0.07385l1.78713,1.16681c0,0 0.66464,-0.25109 1.35881,-0.28063c0.41356,-0.02953 0.76802,0 1.10772,0.05909z" fill="#45b5e6" fill-rule="evenodd" stroke="#45b5e6" stroke-linecap="butt" stroke-linejoin="miter"/><path d="M209.58817,219.20268c-0.69417,0.56124 -1.7576,0.57601 -1.7576,0.57601" fill="#45b5e6" fill-rule="evenodd" stroke="#45b5e6" stroke-linecap="round" stroke-linejoin="round"/><path d="M209.39615,220.85687c-0.93048,0.07385 -1.50651,-0.20676 -1.50651,-0.20676" fill="#45b5e6" fill-rule="evenodd" stroke="#45b5e6" stroke-linecap="round" stroke-linejoin="round"/><path d="M197.72814,219.15836c0,0 1.27017,0.41356 1.78711,0.87141" fill="#45b5e6" fill-rule="evenodd" stroke="#45b5e6" stroke-linecap="round" stroke-linejoin="round"/><path d="M199.55957,220.54671c-0.6351,0.25108 -1.72804,0.08862 -1.72804,0.08862" fill="#45b5e6" fill-rule="evenodd" stroke="#45b5e6" stroke-linecap="round" stroke-linejoin="round"/><g fill="none" fill-rule="nonzero" stroke="none" stroke-linecap="butt" stroke-linejoin="miter" font-family="sans-serif" font-weight="normal" font-size="12" text-anchor="start"/><g fill="none" fill-rule="nonzero" stroke="none" stroke-linecap="butt" stroke-linejoin="miter" font-family="sans-serif" font-weight="normal" font-size="12" text-anchor="start"/></g><text transform="translate(209.44316,222.38156) scale(0.19588,0.20747)" font-size="40" xml:space="preserve" fill="#585858" fill-rule="nonzero" stroke="none" stroke-width="1" stroke-linecap="butt" stroke-linejoin="miter" stroke-miterlimit="10" stroke-dasharray="" stroke-dashoffset="0" font-family="Sans Serif" font-weight="normal" text-anchor="start" style="mix-blend-mode: normal"><tspan x="0" dy="0">100G</tspan></text></g><g fill-rule="nonzero" stroke="none" stroke-linecap="butt"><path d="M248.95053,215.93531c0.41438,-0.94222 1.30869,-1.59712 2.34778,-1.59712c1.4325,0 2.5951,1.24099 2.5951,2.77006c0,3.0114 -4.94287,7.00154 -4.94287,7.00154c0,0 -4.94286,-3.89088 -4.94286,-7.00154c0,-1.52908 1.1626,-2.77006 2.5951,-2.77006c1.03907,0 1.9334,0.65487 2.34776,1.59712z" fill="#45b5e6" stroke-width="0" stroke-linejoin="round"/><text transform="translate(254.15709,222.41856) scale(0.19589,0.20748)" font-size="40" xml:space="preserve" fill="#585858" fill-rule="nonzero" stroke="none" stroke-width="1" stroke-linecap="butt" stroke-linejoin="miter" stroke-miterlimit="10" stroke-dasharray="" stroke-dashoffset="0" font-family="Sans Serif" font-weight="normal" text-anchor="start" style="mix-blend-mode: normal"><tspan x="0" dy="0">100%</tspan></text></g><g fill-rule="nonzero" stroke="none" stroke-linecap="butt" stroke-linejoin="miter"><g fill="#45b5e6" stroke-width="0"><path d="M241.85852,206.60629l5.64578,-1.34827l3.23916,3.23917l-1.34825,5.64577l-3.23077,-3.23077l-0.02081,-1.06159h-1.04078z"/><path d="M254.06963,202.84012l-4.99544,4.99545l-0.90828,-0.90827l4.99544,-4.99545z"/></g><text transform="translate(252.97427,210.4311) scale(0.19589,0.20748)" font-size="40" xml:space="preserve" fill="#585858" fill-rule="nonzero" stroke="none" stroke-width="1" stroke-linecap="butt" stroke-linejoin="miter" stroke-miterlimit="10" stroke-dasharray="" stroke-dashoffset="0" font-family="Sans Serif" font-weight="normal" text-anchor="start" style="mix-blend-mode: normal"><tspan x="0" dy="0">1,000G</tspan></text></g></g></g></svg>