<svg version="1.1" xmlns="http://www.w3.org/2000/svg" xmlns:xlink="http://www.w3.org/1999/xlink" width="41.25699" height="20.19708" viewBox="0,0,41.25699,20.19708"><g transform="translate(-200.65439,-172.03728)"><g data-paper-data="{&quot;isPaintingLayer&quot;:true}" stroke-miterlimit="10" stroke-dasharray="" stroke-dashoffset="0" style="mix-blend-mode: normal"><g fill-rule="evenodd" stroke-width="0.25"><path d="M200.75975,180.25901c-0.0482,-0.07551 -0.02088,-0.19924 0.07899,-0.2221l2.67102,-0.59293c0,0 1.19929,-1.56665 2.0285,-2.02233c1.38218,-0.76773 2.50059,-0.7703 2.50059,-0.7703c0,0 0.55684,-1.75343 1.97881,-2.02332c1.42197,-0.26989 4.08318,0.87665 4.90928,5.56537c0.8261,4.68872 -0.51562,8.41469 -3.38282,10.12208c-2.8672,1.70738 -6.19034,-1.14231 -5.99456,-0.9893l-4.45722,0.43308c-0.09986,0.02286 -0.17192,-0.10283 -0.12025,-0.20121l2.02248,-2.96684c0,0 -0.40005,-1.12633 -0.42646,-2.29492c-0.03582,-0.69658 0.02575,-1.29182 0.1365,-1.86121z" fill="#ffab19" stroke="#001026" stroke-linecap="butt" stroke-linejoin="miter"/><path d="M208.13673,176.72786c0,0 0.48132,-1.70522 1.90329,-1.97511c1.42197,-0.26989 3.95699,0.97355 4.75923,5.61209c1.12232,6.03665 -2.51194,8.82225 -5.11209,7.10532c-2.62498,-1.71742 -0.30738,-4.52927 -0.41485,-6.61901c-0.08856,-1.79114 -1.64969,-2.02107 -1.13559,-4.12328z" fill="#ffffff" stroke="none" stroke-linecap="butt" stroke-linejoin="miter"/><path d="M210.63893,184.60624c-0.09937,-0.00198 -0.17192,-0.10284 -0.14509,-0.20171c0.1833,-0.46854 0.60752,-1.80212 0.73659,-3.29069c0.10126,-1.34001 0.04258,-2.13646 -0.02452,-2.51058c-0.02237,-0.12471 0.10383,-0.22161 0.22704,-0.16945c0.66629,0.23695 2.51068,1.2181 2.30964,3.82359c-0.29348,2.25572 -1.88786,2.44762 -3.10366,2.34883z" fill="#ffffff" stroke="#001026" stroke-linecap="round" stroke-linejoin="round"/><path d="M208.50109,172.16228c0.92075,1.18642 0.90995,2.97557 0.90995,2.97557" fill="none" stroke="#001026" stroke-linecap="round" stroke-linejoin="round"/><path d="M211.27702,172.54068c0.09302,1.56755 -0.39829,2.52702 -0.39829,2.52702" fill="none" stroke="#001026" stroke-linecap="round" stroke-linejoin="round"/><path d="M208.62444,180.93764c0.01039,-0.52169 0.07098,-1.06724 0.24536,-1.08862c0.34829,-0.01791 1.03645,0.36858 1.05338,0.76656c0.04078,0.44816 -0.60108,1.47916 -0.99857,1.47124c-0.29861,0.0189 -0.31008,-0.65234 -0.30018,-1.1492z" fill="#001026" stroke="#001026" stroke-linecap="round" stroke-linejoin="round"/><path d="M208.02901,192.10936c0,0 0.73816,-2.12259 1.52561,-2.97674" fill="none" stroke="#001026" stroke-linecap="round" stroke-linejoin="round"/><path d="M210.42561,189.07542c0.40104,1.07665 0.09114,2.90955 0.09114,2.90955" fill="none" stroke="#001026" stroke-linecap="round" stroke-linejoin="round"/><g><path d="M205.77628,177.9483c1.13226,-0.69816 2.39974,-0.69774 2.83304,0.00675c0.4333,0.70451 -0.11116,1.83685 -1.24393,2.55985c-1.13226,0.69816 -2.39974,0.69775 -2.83304,-0.00675c-0.45815,-0.705 0.11167,-1.86171 1.24393,-2.55986z" fill="#ffffff" stroke="#001026" stroke-linecap="round" stroke-linejoin="round"/><path d="M207.19032,178.07589c0.27327,0.00545 0.29289,0.20865 0.28794,0.45707c-0.00495,0.24842 -0.03249,0.4427 -0.30576,0.43726c-0.27327,-0.00545 -0.19289,-0.20865 -0.18794,-0.45707c0.00495,-0.24842 -0.0675,-0.4427 0.20577,-0.43726" fill="#001026" stroke="none" stroke-linecap="butt" stroke-linejoin="miter"/></g><g><path d="M206.34909,184.12311c1.10792,-0.7235 2.44844,-0.64707 2.90707,0.03309c0.45567,0.82921 0.08609,1.91535 -1.02184,2.63885c-1.10842,0.74833 -2.52543,0.7698 -3.05662,-0.01121c-0.55603,-0.78151 0.06346,-1.93722 1.17138,-2.66072z" fill="#ffffff" stroke="#001026" stroke-linecap="round" stroke-linejoin="round"/><path d="M207.78699,184.30088c0.27327,0.00545 0.34289,0.20864 0.33794,0.45707c-0.00495,0.24842 -0.08249,0.4427 -0.35576,0.43726c-0.27327,-0.00545 -0.09288,-0.20864 -0.08793,-0.45707c0.02979,-0.24794 -0.16751,-0.4427 0.10576,-0.43726" fill="#001026" stroke="none" stroke-linecap="butt" stroke-linejoin="miter"/></g></g><path d="M235.80892,177.8299c10.51582,-0.48814 4.25,12.89994 4.25,12.89994h-26.81953c0,0 -1.47395,-12.53861 3.71429,-12.5891c6.52362,-0.06349 13.80105,-0.07622 18.85524,-0.31084z" data-paper-data="{&quot;index&quot;:null}" fill="#b30000" fill-rule="nonzero" stroke="none" stroke-width="0" stroke-linecap="butt" stroke-linejoin="miter"/></g></g></svg>