<svg version="1.1" xmlns="http://www.w3.org/2000/svg" xmlns:xlink="http://www.w3.org/1999/xlink" width="92.21921" height="62.49176" viewBox="0,0,92.21921,62.49176"><defs><linearGradient x1="223.41774" y1="193.21216" x2="223.41774" y2="196.86621" gradientUnits="userSpaceOnUse" id="color-1"><stop offset="0" stop-color="#a5a5a5"/><stop offset="1" stop-color="#8c8c8c"/></linearGradient><linearGradient x1="206.53656" y1="175.82557" x2="206.53656" y2="160.95192" gradientUnits="userSpaceOnUse" id="color-2"><stop offset="0" stop-color="#fbff00"/><stop offset="1" stop-color="#fbff00" stop-opacity="0"/></linearGradient></defs><g transform="translate(-193.89041,-148.75412)"><g data-paper-data="{&quot;isPaintingLayer&quot;:true}" fill-rule="nonzero" stroke-linejoin="miter" stroke-miterlimit="10" stroke-dasharray="" stroke-dashoffset="0" style="mix-blend-mode: normal"><g data-paper-data="{&quot;index&quot;:null}"><path d="M261.17492,158.78697v47.9725h-7.92333l-9.92247,-47.9725h17.8458" fill-opacity="0.75294" fill="#b4e0d7" stroke="none" stroke-width="1" stroke-linecap="butt"/><path d="M243.38624,158.78697l9.92247,47.9725h-5.33133l-9.92247,-47.9725h5.33133" fill-opacity="0.74902" fill="#d4fff5" stroke="none" stroke-width="1" stroke-linecap="butt"/><path d="M235.08633,158.78697l9.88542,47.9725h-2.99871l-9.92247,-47.9725h3.03576" fill-opacity="0.74902" fill="#d4fff5" stroke="none" stroke-width="1" stroke-linecap="butt"/><path d="M238.05491,158.78697l9.92247,47.9725h-3.03576l-9.88542,-47.9725h2.99871" fill-opacity="0.75294" fill="#b4e0d7" stroke="none" stroke-width="1" stroke-linecap="butt"/><path d="M230.91468,158.78697h1.22189l9.92247,47.9725h-11.14437v-47.9725" fill-opacity="0.75294" fill="#b4e0d7" stroke="none" stroke-width="1" stroke-linecap="butt"/><g stroke-linecap="round"><path d="" fill="#5e154d" stroke="#5e154d" stroke-width="1.512"/><path d="M261.23202,158.78697v47.9725h-30.4335v-47.9725h30.4335" fill="none" stroke="none" stroke-width="0"/></g></g><path d="M194.89041,210.24588v-60.49176h90.21921v60.49176zM261.15002,204.80892l-0.08333,-45.83333l-30.0625,0.02083l-0.08333,45.78599z" data-paper-data="{&quot;index&quot;:null}" fill="#d8bcaa" stroke="#666666" stroke-width="2" stroke-linecap="butt"/><path d="M207.33753,197.25915l-7.01061,3.92807c-0.3617,0.20267 -0.8207,0.07342 -1.02351,-0.28853c0,0 -2.8389,-11.52479 -1.72298,-12.15005c1.21291,-0.6796 3.79682,-2.12737 3.79682,-2.12737c0.3617,-0.20267 0.82083,-0.07316 1.02344,0.28842l5.2253,9.32584c0.20281,0.36196 0.07325,0.82096 -0.28846,1.02363z" fill="#b1acc4" stroke="none" stroke-width="1" stroke-linecap="butt"/><path d="M198.60083,205.67633v-8.7553h38.591v8.7553z" data-paper-data="{&quot;index&quot;:null}" fill="#b28059" stroke="none" stroke-width="0" stroke-linecap="butt"/><path d="M195.87751,205.67633v-19.58161h4.06419v19.58161z" data-paper-data="{&quot;index&quot;:null}" fill="#b28059" stroke="none" stroke-width="0" stroke-linecap="butt"/><path d="M235.54774,194.19804v1.97655c0,0.38139 -0.3101,0.69162 -0.69176,0.69162h-28.2884c-0.38126,0 -0.69162,-0.31023 -0.69162,-0.69162v-1.97669c0,-0.38139 0.31036,-0.69162 0.69162,-0.69162h28.2884c0.38166,0 0.69176,0.31036 0.69176,0.69176z" fill="#998290" stroke="none" stroke-width="1" stroke-linecap="butt"/><path d="M226.95951,193.96448v2.14957c0,0.41477 -0.07403,0.75216 -0.16514,0.75216h-6.75329c-0.09102,0 -0.16511,-0.33739 -0.16511,-0.75216v-2.14972c0,-0.41477 0.07409,-0.75216 0.16511,-0.75216h6.75329c0.09112,0 0.16514,0.33753 0.16514,0.75231z" fill="url(#color-1)" stroke="none" stroke-width="1" stroke-linecap="butt"/><path d="M237.60656,197.08039v6.03537c0,0.38139 -0.3101,0.69162 -0.69176,0.69162h-36.75898c-0.38126,0 -0.69162,-0.31023 -0.69162,-0.69162v-6.03551c0,-0.38139 0.31036,-0.69162 0.69162,-0.69162h36.75898c0.38166,0 0.69176,0.31036 0.69176,0.69176z" fill="#d8d4d7" stroke="none" stroke-width="1" stroke-linecap="butt"/><g data-paper-data="{&quot;index&quot;:null}" fill="none"><g stroke="#bf7736" stroke-width="2" stroke-linecap="round"><path d="M259.78421,205.5455l0.04855,-18.20964"/><path d="M251.83097,187.2904l15.99286,0.07863"/></g><g stroke="none" stroke-width="1" stroke-linecap="butt" font-family="sans-serif" font-weight="normal" font-size="12" text-anchor="start"/><g data-paper-data="{&quot;index&quot;:null}" stroke="none" stroke-width="1" stroke-linecap="butt" font-family="sans-serif" font-weight="normal" font-size="12" text-anchor="start"/></g><g fill="none"><g data-paper-data="{&quot;index&quot;:null}"><g stroke="none" stroke-width="1" stroke-linecap="butt" font-family="sans-serif" font-weight="normal" font-size="12" text-anchor="start"/><g stroke="none" stroke-width="1" stroke-linecap="butt" font-family="sans-serif" font-weight="normal" font-size="12" text-anchor="start"/><g data-paper-data="{&quot;index&quot;:null}" stroke="#bf7736" stroke-width="2" stroke-linecap="round"><path d="M274.78822,206.08579v-8.28219"/><path d="M283.10728,188.81249c0,0 -1.92884,2.47825 -2.75868,3.87617c-0.88972,1.4988 -1.16842,3.16349 -2.94194,4.30569c-1.77352,1.14221 -3.26265,0.5399 -5.57031,1.17647c-2.30766,0.63657 -7.12132,3 -7.12132,3"/></g></g><g data-paper-data="{&quot;index&quot;:null}"><g stroke="none" stroke-width="1" stroke-linecap="butt" font-family="sans-serif" font-weight="normal" font-size="12" text-anchor="start"/><g stroke="none" stroke-width="1" stroke-linecap="butt" font-family="sans-serif" font-weight="normal" font-size="12" text-anchor="start"/><g data-paper-data="{&quot;index&quot;:null}" stroke="#99a3b2" stroke-width="2" stroke-linecap="round"><path d="M282.81316,188.3419c0,0 -1.92884,2.47824 -2.75868,3.87616c-0.88972,1.4988 -1.1096,3.22231 -2.88312,4.36452c-1.77352,1.14221 -3.32147,0.48107 -5.62913,1.11765c-2.30766,0.63657 -7.12132,3 -7.12132,3"/></g></g></g><path d="M195.91011,209.32838v-3.6523c0,0 24.94722,0 38.62281,0c15.49098,0 49.5575,0 49.5575,0v3.6523z" data-paper-data="{&quot;index&quot;:null}" fill="#c0c0c0" stroke="none" stroke-width="0" stroke-linecap="butt"/><g stroke="#666666" stroke-width="0" stroke-linecap="butt"><g data-paper-data="{&quot;index&quot;:null}" fill="url(#color-2)"><g><path d="M203.54949,170.25795c-0.50984,-0.48025 -0.45625,-11.02733 2.8049,-11.09188c3.22274,-0.06378 3.54518,10.84489 2.79903,11.35569c-1.86798,1.27879 -4.0145,1.23337 -5.60391,-0.26381z"/></g></g><g fill="#8e8e6c"><g><path d="M203.71732,169.87015c1.49585,-0.85371 3.51601,-0.87961 5.27401,-0.15042c0.70223,0.29127 0.39877,6.51154 -2.63425,6.47518c-3.06916,-0.0368 -3.11959,-6.0509 -2.63977,-6.32475z"/></g></g></g></g></g></svg>