<svg version="1.1" xmlns="http://www.w3.org/2000/svg" xmlns:xlink="http://www.w3.org/1999/xlink" width="28.75451" height="40.7299" viewBox="0,0,28.75451,40.7299"><g transform="translate(-197.00215,-156.38523)"><g data-paper-data="{&quot;isPaintingLayer&quot;:true}" fill-rule="nonzero" stroke-miterlimit="10" stroke-dasharray="" stroke-dashoffset="0" style="mix-blend-mode: normal"><path d="M210.47814,192.89802c0,-0.51423 0.14424,-1.25292 0.94216,-1.41966c1.15118,-0.24149 2.46831,0.92419 2.82654,1.26716c-0.02649,0.13648 0.42146,2.89026 0.42146,3.12901c0,0.8072 -0.21572,0.83919 -0.29945,0.85245c-0.78821,0.11474 -2.88878,-2.09411 -3.85296,-3.37924c-0.01326,-0.06975 -0.03776,-0.22499 -0.03776,-0.44972v0z" fill="#ffc93e" stroke="#603813" stroke-width="0.65" stroke-linecap="butt" stroke-linejoin="miter"/><path d="M207.28636,196.75671c-0.57143,-0.61996 -0.65293,-2.30007 -0.65293,-3.01476c0,-0.30326 0.01549,-0.50496 0.01624,-0.51121l0.00102,-0.01552c0,0 -0.00178,-0.06474 -0.00178,-0.08848c0,-1.34591 1.23917,-1.81312 1.44916,-1.88335c0.71744,0.00874 1.95759,0.34821 2.25357,0.86044c0.03,0.05147 0.05799,0.11647 0.05799,0.1997c0,0.07303 -0.02174,0.1615 -0.08372,0.26825c-0.02875,0.04898 -0.53823,1.25292 -0.96919,2.1761l-0.30796,0.8537c-0.23049,0.74592 -0.59321,1.49238 -0.98795,1.49238c-0.31196,0.00049 -0.56521,-0.10999 -0.77445,-0.33724v0z" fill="#ffc93e" stroke="#603813" stroke-width="0.65" stroke-linecap="butt" stroke-linejoin="miter"/><path d="M206.76366,168.22137c1.50466,-0.81771 -0.04823,-3.89649 -1.55063,-6.87473c-0.82118,-1.6284 -2.28556,-4.37868 -1.80962,-4.63641c0.92069,-0.49896 5.31911,4.69165 7.10224,6.78373l1.81761,2.07037c0,0 1.29941,1.59411 2.29381,2.64556c0.01752,0.01824 0.95769,-0.12774 1.60716,-0.66748c0.52945,-0.4417 0.45944,-0.93591 0.62795,-1.97533c0.15472,-0.95494 0.32274,-2.68306 0.83519,-2.6918c0.77193,-0.01175 1.27941,3.17 1.47712,4.34865l0.10924,0.63047c0.25924,1.40187 1.61164,5.61683 1.66963,5.79555c0.0185,0.04349 0.04902,0.1 0.04902,0.1l0.01123,0.02276l0.01549,0.01899c2.08838,2.59006 3.64149,5.73055 3.64149,8.67284c0,6.23054 -5.46159,10.61645 -12.77205,10.61645c-1.3559,0 -2.68203,-0.18999 -3.9417,-0.56348l-0.06775,-0.01948c0,0 -1.97733,-0.16625 -4.50691,3.15877c-0.50744,0.66744 -0.46223,1.28966 -1.17741,1.09816c-0.23848,-0.06375 -0.41373,-0.239 -0.55669,-0.55722c-0.34199,-0.75893 -0.08953,-2.55705 0.32846,-3.70597l0.06576,-0.18049l-0.15099,-0.11948c-0.037,-0.02951 -4.13971,-3.01901 -4.55416,-7.30296c-0.36124,-3.73419 1.52513,-5.86029 2.30783,-7.02873l0.44971,-0.74894c0.56769,-1.38115 -0.50074,-3.302 -1.44366,-4.99687c-0.56295,-1.01191 -1.47165,-2.48854 -1.26641,-2.83554c0.22774,-0.38446 1.04168,0.02475 1.86361,0.41674c0.66646,0.31848 1.30767,0.76843 1.75286,0.47169c0.46298,-0.30823 0.15924,-1.08241 -0.26146,-2.15409c-0.39572,-1.00642 -1.14493,-2.59628 -0.8572,-3.25249c0.07924,-0.18049 0.21825,-0.30725 0.42496,-0.38747c0.76447,-0.29598 1.85736,0.99169 2.74206,1.99885c1.07917,1.22967 2.30308,2.62306 3.72421,1.84937v0z" fill="#ffc93e" stroke="#603813" stroke-width="0.65" stroke-linecap="round" stroke-linejoin="round"/><g stroke="none" stroke-width="0.65" stroke-linecap="butt" stroke-linejoin="miter"><path d="M208.02532,182.92075v0c0,-1.12439 0.91143,-2.03634 2.03612,-2.03683c1.12417,0 2.03558,0.91244 2.03558,2.03683c0,1.12367 -0.91119,2.03487 -2.03558,2.03487c-1.12443,0 -2.03612,-0.91119 -2.03612,-2.03487z" fill="#ffffff"/><path d="M210.33541,181.43285c0.3952,0 0.75343,0.16052 1.01267,0.41999c0.25947,0.25924 0.41995,0.61744 0.41995,1.01266c0,0.39523 -0.16048,0.75347 -0.41995,1.01267c-0.25924,0.2595 -0.61748,0.41999 -1.01267,0.41999c-0.39523,0 -0.75346,-0.16049 -1.01267,-0.41999c-0.2595,-0.25921 -0.41998,-0.61744 -0.41998,-1.01267c0,-0.39523 0.16048,-0.75342 0.41998,-1.01266c0.25921,-0.25947 0.61744,-0.41999 1.01267,-0.41999z" fill="#603813"/></g><g stroke="none" stroke-width="0.65" stroke-linecap="butt" stroke-linejoin="miter"><path d="M217.83258,182.92075v0c0,-1.12439 0.91142,-2.03634 2.03634,-2.03683c1.12417,0 2.03562,0.91244 2.03562,2.03683c0,1.12367 -0.91195,2.03487 -2.03562,2.03487c-1.12492,0 -2.03634,-0.91119 -2.03634,-2.03487z" fill="#ffffff"/><path d="M218.70978,182.86551v0c0,-0.79095 0.64095,-1.43265 1.43239,-1.43265c0.79092,0 1.43261,0.64196 1.43261,1.43265c0,0.79171 -0.6417,1.43213 -1.43261,1.43213c-0.79145,0 -1.43239,-0.64095 -1.43239,-1.43213z" fill="#603813"/></g><path d="M200.04532,194.08593c-0.49449,-0.02407 -0.92171,-0.28651 -1.23717,-0.7598c-0.77096,-1.15759 -1.0659,-3.88422 -0.23169,-6.19273c0.56966,-1.57652 3.76977,-5.2705 4.80891,-5.3994c0.08584,-0.01052 0.22141,0.01101 0.24586,0.04712c0.16375,0.10445 0.29199,0.3528 0.30937,0.65447c0.04881,0.83726 -0.23128,2.14467 -0.62331,3.44878c-0.30351,1.0158 -0.64886,2.16442 -0.87376,3.36941l-0.20351,1.1101c-0.48462,2.72025 -0.93145,3.78407 -2.19469,3.72207v0z" fill="#ffc93e" stroke="#603813" stroke-width="0.65" stroke-linecap="butt" stroke-linejoin="miter"/><path d="M213.6096,186.93117c0,0 1.55572,-1.0069 3.24921,-0.77697" fill="none" stroke="#603813" stroke-width="0.65" stroke-linecap="round" stroke-linejoin="round"/><path d="M223.89687,186.23228c0.99115,0.30166 1.81551,1.67787 1.56418,2.68322c-0.05055,0.20219 -0.22006,0.39512 -0.32156,0.58238c-0.63782,1.17669 -2.33376,1.07187 -3.44873,1.06972c-0.47,-0.0009 -0.69464,0.06058 -1.0599,-0.13422c-0.24081,-0.12843 -0.2005,-0.57149 -0.18243,-0.77155c0.00976,-0.10798 0.23128,-0.25494 0.13155,-0.29747c-0.22533,-0.0961 -0.38474,-0.20453 -0.40692,-0.46745c-0.01443,-0.1711 0.02464,-0.31472 0.0929,-0.46763c0.00429,-0.00961 0.01548,-0.03116 0.00495,-0.03117c-0.12447,-0.00009 -0.30936,-0.11692 -0.35179,-0.21099c-0.09118,-0.20213 -0.03933,-0.41271 -0.03933,-0.6132c0,-0.08364 0.14353,-0.21654 0.06405,-0.2426c-0.46942,-0.15388 -2.37463,-0.06285 -2.08059,-0.88618c0.09355,-0.26194 1.6185,-0.26884 1.84868,-0.27451c0.59544,-0.01465 1.18713,-0.22022 1.78608,-0.24763c0.35286,-0.01615 0.75056,-0.03283 0.7556,-0.0612c0.06377,-0.35885 -0.02408,-0.74705 0.03059,-1.11072c0.07773,-0.51707 0.76419,-1.10427 1.21606,-0.60327c0.24283,0.26923 0.14866,0.69859 0.15183,1.01632c0.00233,0.23391 0.18467,0.6163 0.24477,0.8567z" fill="#ffc93e" stroke="#603813" stroke-width="0.5" stroke-linecap="butt" stroke-linejoin="miter"/><path d="M216.43288,180.88392c0,0 0.40578,-1.59702 1.0075,-1.64052c0.63046,-0.04558 2.31485,0.1351 2.31485,0.1351" fill="none" stroke="#603813" stroke-width="0.5" stroke-linecap="round" stroke-linejoin="miter"/><path d="M209.75312,179.7976l2.43603,0.36672" fill="none" stroke="#603813" stroke-width="0.5" stroke-linecap="round" stroke-linejoin="miter"/></g></g></svg>