<svg version="1.1" xmlns="http://www.w3.org/2000/svg" xmlns:xlink="http://www.w3.org/1999/xlink" width="270.68377" height="200.98495" viewBox="0,0,270.68377,200.98495"><g transform="translate(-59.9521,-76.55973)"><g data-paper-data="{&quot;isPaintingLayer&quot;:true}" fill-rule="nonzero" stroke-linejoin="miter" stroke-miterlimit="10" stroke-dasharray="" stroke-dashoffset="0" style="mix-blend-mode: normal"><path d="M327.14122,95.73696h-125.0378c-1.92674,0 -3.49398,-1.56657 -3.49398,-3.49466v-12.18858c0,-1.92607 1.56724,-3.49398 3.49398,-3.49398h125.03848c1.92674,0 3.49398,1.56792 3.49398,3.49398v12.18858c0,1.92809 -1.56792,3.49466 -3.49466,3.49466z" fill-opacity="0.50196" fill="#646666" stroke="none" stroke-width="1" stroke-linecap="butt"/><text transform="translate(202.05121,89.5242) scale(0.28132,0.28132)" font-size="40" xml:space="preserve" fill="#ffffff" fill-rule="nonzero" stroke="none" stroke-width="1" stroke-linecap="butt" stroke-linejoin="miter" stroke-miterlimit="10" stroke-dasharray="" stroke-dashoffset="0" font-family="Sans Serif" font-weight="normal" text-anchor="start" style="mix-blend-mode: normal"><tspan x="0" dy="0">広告を見てgoldを増やす</tspan></text><path d="M107.61565,277.40569h-44.16957c-1.92674,0 -3.49398,-1.56657 -3.49398,-3.49466v-12.18858c0,-1.92607 1.56724,-3.49398 3.49398,-3.49398h44.17025c1.92674,0 3.49398,1.56792 3.49398,3.49398v12.18858c0,1.92809 -1.56792,3.49466 -3.49466,3.49466z" fill-opacity="0.50196" fill="#646666" stroke="none" stroke-width="1" stroke-linecap="butt"/><path d="M74.80921,269.85668c-0.22292,0.62555 -0.58477,1.21267 -1.08557,1.71346c-1.80507,1.80507 -4.73166,1.80507 -6.53673,0c-1.80507,-1.80507 -1.80507,-4.73166 0,-6.53673c1.80507,-1.80507 4.73166,-1.80507 6.53673,0" fill="none" stroke="#ffffff" stroke-width="2" stroke-linecap="butt"/><path d="M73.82492,262.7102l0.11827,2.77199l-2.78879,-0.11899" fill="none" stroke="#ffffff" stroke-width="2" stroke-linecap="round"/><text transform="translate(79.77472,271.19293) scale(0.28132,0.28132)" font-size="40" xml:space="preserve" fill="#ffffff" fill-rule="nonzero" stroke="none" stroke-width="1" stroke-linecap="butt" stroke-linejoin="miter" stroke-miterlimit="10" stroke-dasharray="" stroke-dashoffset="0" font-family="Sans Serif" font-weight="normal" text-anchor="start" style="mix-blend-mode: normal"><tspan x="0" dy="0">更新</tspan></text><path d="M122.46428,270.78737c0,-2.82045 2.28643,-5.10687 5.10688,-5.10687c2.82044,0 5.10687,2.28643 5.10687,5.10687c0,2.82044 -2.28642,5.10687 -5.10687,5.10687c-2.82045,0 -5.10688,-2.28643 -5.10688,-5.10687z" fill="none" stroke="#ffffff" stroke-width="1.5" stroke-linecap="butt"/><path d="M130.1412,271.27971h-3.06239v-3.37429" fill="none" stroke="#ffffff" stroke-width="1.5" stroke-linecap="round"/><text transform="translate(137.02471,274.16322) scale(0.28132,0.28132)" font-size="40" xml:space="preserve" fill="#ffffff" fill-rule="nonzero" stroke="none" stroke-width="1" stroke-linecap="butt" stroke-linejoin="miter" stroke-miterlimit="10" stroke-dasharray="" stroke-dashoffset="0" font-family="Sans Serif" font-weight="normal" text-anchor="start" style="mix-blend-mode: normal"><tspan x="0" dy="0">更新まで</tspan></text></g></g></svg>