<svg version="1.1" xmlns="http://www.w3.org/2000/svg" xmlns:xlink="http://www.w3.org/1999/xlink" width="32.26339" height="54.40765" viewBox="0,0,32.26339,54.40765"><defs><linearGradient x1="203.66822" y1="162.73299" x2="203.78156" y2="168.70241" gradientUnits="userSpaceOnUse" id="color-1"><stop offset="0" stop-color="#ff7a7a"/><stop offset="1" stop-color="#ff9393"/></linearGradient><linearGradient x1="203.60315" y1="159.30577" x2="203.71065" y2="164.96749" gradientUnits="userSpaceOnUse" id="color-2"><stop offset="0" stop-color="#d1f2ff"/><stop offset="1" stop-color="#ebfeff"/></linearGradient></defs><g transform="translate(-200.38437,-141.58131)"><g data-paper-data="{&quot;isPaintingLayer&quot;:true}" fill-rule="nonzero" stroke-miterlimit="10" stroke-dasharray="" stroke-dashoffset="0" style="mix-blend-mode: normal"><path d="M219.17178,178.1277v0c0,0.22473 -0.0245,0.37997 -0.03776,0.44972c-0.96418,1.28513 -3.06475,3.49398 -3.85296,3.37924c-0.08373,-0.01326 -0.29945,-0.04525 -0.29945,-0.85245c0,-0.23875 0.44795,-2.99253 0.42146,-3.12901c0.35823,-0.34297 1.67536,-1.50865 2.82654,-1.26716c0.79792,0.16674 0.94216,0.90543 0.94216,1.41966z" data-paper-data="{&quot;index&quot;:null}" fill="#ffc93e" stroke="#603813" stroke-width="0.65" stroke-linecap="butt" stroke-linejoin="miter"/><path d="M206.20201,172.22912v0c-1.35492,2.40757 -2.12659,3.26299 -3.29977,2.78905c-0.45895,-0.1855 -0.77593,-0.57523 -0.91768,-1.12518c-0.34545,-1.34588 0.27399,-4.01793 1.82311,-5.9228c1.05743,-1.30065 5.29587,-3.73397 6.3198,-3.51274c0.08497,0.01752 0.20547,0.08324 0.21696,0.1245c0.11948,0.15325 0.1595,0.43047 0.07649,0.72095c-0.23023,0.80644 -0.92566,1.94786 -1.72487,3.051c-0.62169,0.85645 -1.32666,1.8294 -1.93686,2.89207l-0.55718,0.98316z" data-paper-data="{&quot;index&quot;:null}" fill="#ffc93e" stroke="#603813" stroke-width="0.65" stroke-linecap="butt" stroke-linejoin="miter"/><path d="M222.88625,153.45104v0c1.42113,0.77369 2.64504,-0.6197 3.72421,-1.84937c0.8847,-1.00716 1.97759,-2.29483 2.74206,-1.99885c0.20671,0.08022 0.34572,0.20698 0.42496,0.38747c0.28773,0.65621 -0.46148,2.24607 -0.8572,3.25249c-0.4207,1.07168 -0.72444,1.84586 -0.26146,2.15409c0.44519,0.29674 1.0864,-0.15321 1.75286,-0.47169c0.82193,-0.39199 1.63587,-0.8012 1.86361,-0.41674c0.20524,0.347 -0.70346,1.82363 -1.26641,2.83554c-0.94292,1.69487 -2.01135,3.61572 -1.44366,4.99687l0.44971,0.74894c0.7827,1.16844 2.66907,3.29454 2.30783,7.02873c-0.41445,4.28395 -4.51716,7.27345 -4.55416,7.30296l-0.15099,0.11948l0.06576,0.18049c0.41799,1.14892 0.67045,2.94704 0.32846,3.70597c-0.14296,0.31822 -0.31821,0.49347 -0.55669,0.55722c-0.71518,0.1915 -0.66997,-0.43072 -1.17741,-1.09816c-2.52958,-3.32502 -4.50691,-3.15877 -4.50691,-3.15877l-0.06775,0.01948c-1.25967,0.37349 -2.5858,0.56348 -3.9417,0.56348c-7.31046,0 -12.77205,-4.38591 -12.77205,-10.61645c0,-2.94229 1.55311,-6.08278 3.64149,-8.67284l0.01549,-0.01899l0.01123,-0.02276c0,0 0.03052,-0.05651 0.04902,-0.1c0.05799,-0.17872 1.41039,-4.39368 1.66963,-5.79555l0.10924,-0.63047c0.19771,-1.17865 0.70519,-4.3604 1.47712,-4.34865c0.51245,0.00874 0.68047,1.73686 0.83519,2.6918c0.16851,1.03942 0.0985,1.53363 0.62795,1.97533c0.64947,0.53974 1.58964,0.68572 1.60716,0.66748c0.9944,-1.05145 2.29381,-2.64556 2.29381,-2.64556l1.81761,-2.07037c1.78313,-2.09208 6.18155,-7.28269 7.10224,-6.78373c0.47594,0.25773 -0.98844,3.00801 -1.80962,4.63641c-1.5024,2.97824 -3.05529,6.05702 -1.55063,6.87473z" data-paper-data="{&quot;index&quot;:null}" fill="#ffc93e" stroke="#603813" stroke-width="0.65" stroke-linecap="round" stroke-linejoin="round"/><g data-paper-data="{&quot;index&quot;:null}" stroke="none" stroke-width="0.65" stroke-linecap="butt" stroke-linejoin="miter"><path d="M219.58847,170.1853c-1.12439,0 -2.03558,-0.9112 -2.03558,-2.03487c0,-1.12439 0.91141,-2.03683 2.03558,-2.03683c1.12469,0.00049 2.03612,0.91244 2.03612,2.03683v0c0,1.12368 -0.91169,2.03487 -2.03612,2.03487z" fill="#ffffff"/><path d="M220.32717,167.08252c0.2595,0.25924 0.41998,0.61743 0.41998,1.01266c0,0.39523 -0.16048,0.75346 -0.41998,1.01267c-0.25921,0.2595 -0.61744,0.41999 -1.01267,0.41999c-0.39519,0 -0.75343,-0.16049 -1.01267,-0.41999c-0.25947,-0.2592 -0.41995,-0.61744 -0.41995,-1.01267c0,-0.39522 0.16048,-0.75342 0.41995,-1.01266c0.25924,-0.25947 0.61747,-0.41999 1.01267,-0.41999c0.39523,0 0.75346,0.16052 1.01267,0.41999z" fill="#603813"/></g><g data-paper-data="{&quot;index&quot;:null}" stroke="none" stroke-width="0.65" stroke-linecap="butt" stroke-linejoin="miter"><path d="M209.78099,170.1853c-1.12367,0 -2.03562,-0.9112 -2.03562,-2.03487c0,-1.12439 0.91145,-2.03683 2.03562,-2.03683c1.12492,0.00049 2.03634,0.91244 2.03634,2.03683v0c0,1.12368 -0.91142,2.03487 -2.03634,2.03487z" fill="#ffffff"/><path d="M209.50774,169.52732c-0.79091,0 -1.43261,-0.64042 -1.43261,-1.43213c0,-0.79069 0.64169,-1.43265 1.43261,-1.43265c0.79144,0 1.43239,0.6417 1.43239,1.43265v0c0,0.79118 -0.64094,1.43213 -1.43239,1.43213z" fill="#603813"/></g><path d="M215.94303,173.44705c-1.29765,1.11214 -3.15079,1.11067 -3.15079,1.11067" data-paper-data="{&quot;index&quot;:null}" fill="none" stroke="#603813" stroke-width="0.65" stroke-linecap="round" stroke-linejoin="round"/><g data-paper-data="{&quot;index&quot;:null}" stroke-linejoin="miter"><path d="M216.10459,194.73896v-14.1l13.7,0.4l-0.3,-20.2l0.5,33.9" data-paper-data="{&quot;index&quot;:null}" fill="none" stroke="#8d6547" stroke-width="2.5" stroke-linecap="round"/><path d="M227.87125,179.32229c0,0.35898 -2.73107,0.65 -6.1,0.65c-3.36893,0 -6.1,-0.29102 -6.1,-0.65c0,-0.35898 2.73107,-0.65 6.1,-0.65c3.36893,0 6.1,0.29102 6.1,0.65z" data-paper-data="{&quot;index&quot;:null}" fill="#4c4c4c" stroke="#666666" stroke-width="2" stroke-linecap="butt"/></g><g data-paper-data="{&quot;index&quot;:null}" stroke-width="0" stroke-linecap="butt" stroke-linejoin="miter"><path d="M207.06493,165.65429c0.0313,1.64841 -1.43872,3.0131 -3.28337,3.04812c-1.84465,0.03502 -3.3654,-1.27289 -3.3967,-2.9213c-0.0313,-1.64841 1.43872,-3.01311 3.28337,-3.04813c1.84465,-0.03502 3.3654,1.2729 3.3967,2.9213z" fill="url(#color-1)" stroke="none"/><path d="M206.82476,162.07649c0.02968,1.56344 -1.36456,2.85779 -3.11412,2.89101c-1.74957,0.03322 -3.19194,-1.20728 -3.22161,-2.77072c-0.02968,-1.56344 1.36457,-2.85779 3.11412,-2.89101c1.74957,-0.03322 3.19193,1.20727 3.22161,2.77072z" fill="url(#color-2)" stroke="none"/><path d="M203.28918,173.5231c-0.59233,-1.44314 -2.78272,-6.77981 -2.78272,-6.77981l6.47347,-0.1229c0,0 -1.95971,5.34358 -2.50089,6.81925c-0.26009,0.7092 -0.91203,0.76036 -1.18986,0.08346z" fill="#d66900" stroke="#000000"/></g><path d="M217.83099,178.52692v0c-0.71717,-1.04177 -0.04742,-1.98135 2.01123,-3.82432l0.83709,-0.75697c0.90654,-0.82509 1.70179,-1.72295 2.40608,-2.51539c0.90293,-1.01937 1.86756,-1.94525 2.60531,-2.34413c0.26571,-0.14389 0.54439,-0.16545 0.71935,-0.08112c0.04357,0.00179 0.13319,0.10578 0.16939,0.18432c0.43694,0.95158 -1.02156,5.61623 -2.06275,6.92995c-1.52459,1.92373 -3.99871,3.10704 -5.38875,3.06023c-0.56846,-0.01935 -1.01637,-0.24466 -1.29694,-0.65256z" data-paper-data="{&quot;index&quot;:null}" fill="#ffc93e" stroke="#603813" stroke-width="0.65" stroke-linecap="butt" stroke-linejoin="miter"/></g></g></svg>