<svg version="1.1" xmlns="http://www.w3.org/2000/svg" xmlns:xlink="http://www.w3.org/1999/xlink" width="42.508" height="26.172" viewBox="0,0,42.508,26.172"><g transform="translate(-238.03171,-157.414)"><g data-paper-data="{&quot;isPaintingLayer&quot;:true}" fill-rule="nonzero" stroke-miterlimit="10" stroke-dasharray="" stroke-dashoffset="0" style="mix-blend-mode: normal"><g stroke-width="0.5"><path d="M249.0262,179.03438v0c-0.83294,1.48007 -1.30733,2.00594 -2.02855,1.71458c-0.28214,-0.11404 -0.47701,-0.35363 -0.56415,-0.69171c-0.21237,-0.82739 0.16844,-2.47005 1.12077,-3.64107c0.65006,-0.79958 3.25567,-2.29548 3.88513,-2.15948c0.05224,0.01077 0.12631,0.05117 0.13338,0.07654c0.07345,0.09421 0.09805,0.26463 0.04702,0.44321c-0.14154,0.49576 -0.56905,1.19746 -1.06037,1.87562c-0.38219,0.52651 -0.81557,1.12463 -1.1907,1.77792l-0.34253,0.6044z" data-paper-data="{&quot;index&quot;:null}" fill="#ffc93e" stroke="#603813" stroke-linecap="butt" stroke-linejoin="miter"/><path d="M259.28293,167.49045v0c0.87365,0.47563 1.62605,-0.38096 2.28948,-1.13691c0.54387,-0.61916 1.21573,-1.41076 1.6857,-1.2288c0.12708,0.04932 0.21253,0.12724 0.26125,0.2382c0.17688,0.40341 -0.2837,1.38078 -0.52697,1.99949c-0.25863,0.65882 -0.44535,1.13475 -0.16073,1.32424c0.27368,0.18242 0.66787,-0.09419 1.07758,-0.28997c0.50529,-0.24098 1.00566,-0.49254 1.14566,-0.25619c0.12617,0.21332 -0.43246,1.12109 -0.77853,1.74316c-0.57967,1.04193 -1.23649,2.22278 -0.8875,3.07185l0.27646,0.46042c0.48117,0.71831 1.64083,2.02534 1.41875,4.32095c-0.25479,2.63358 -2.77695,4.47139 -2.7997,4.48954l-0.09282,0.07345l0.04043,0.11096c0.25696,0.70631 -3.63477,0.00385 -3.63477,0.00385l-0.04165,0.01198c-0.77439,0.22961 -1.58964,0.3464 -2.42318,0.3464c-4.49415,0 -7.85169,-2.69626 -7.85169,-6.52652c0,-1.80879 0.95478,-3.73942 2.23863,-5.33168l0.00952,-0.01167l0.0069,-0.01399c0,0 0.01876,-0.03474 0.03014,-0.06148c0.03565,-0.10987 0.86705,-2.70104 1.02641,-3.56285l0.06716,-0.38758c0.12154,-0.72458 0.43352,-2.68058 0.90807,-2.67336c0.31503,0.00537 0.41832,1.06774 0.51344,1.6548c0.10359,0.63899 0.06055,0.94281 0.38604,1.21435c0.39927,0.33181 0.97724,0.42155 0.98801,0.41034c0.61131,-0.64638 1.41013,-1.62637 1.41013,-1.62637l1.11739,-1.27277c1.09619,-1.28612 3.80014,-4.47707 4.36614,-4.17034c0.29259,0.15844 -0.60765,1.84919 -1.11247,2.85026c-0.92361,1.83089 -1.87826,3.72359 -0.95326,4.22628z" data-paper-data="{&quot;index&quot;:null}" fill="#ffc93e" stroke="#603813" stroke-linecap="round" stroke-linejoin="round"/><g data-paper-data="{&quot;index&quot;:null}" stroke="none" stroke-linecap="butt" stroke-linejoin="miter"><path d="M251.26109,176.75112c-0.69078,0 -1.25141,-0.56017 -1.25141,-1.25095c0,-0.69123 0.56032,-1.25215 1.25141,-1.25215c0.69155,0.0003 1.25185,0.56093 1.25185,1.25215v0c0,0.69079 -0.5603,1.25095 -1.25185,1.25095z" fill="#ffffff"/><path d="M251.09311,176.34662c-0.48622,0 -0.88071,-0.3937 -0.88071,-0.88041c0,-0.48608 0.39448,-0.88073 0.88071,-0.88073c0.48654,0 0.88057,0.39449 0.88057,0.88073v0c0,0.48638 -0.39402,0.88041 -0.88057,0.88041z" fill="#603813"/></g><path d="M254.92897,183.13491v0c-0.69855,-0.3414 -0.62352,-1.04676 -0.07741,-2.65519l0.21977,-0.65808c0.23641,-0.71553 0.39124,-1.43643 0.52919,-2.07341c0.17582,-0.81848 0.4129,-1.60552 0.68758,-2.04184c0.09886,-0.15727 0.24159,-0.25294 0.36075,-0.2606c0.02387,-0.01219 0.10326,0.01644 0.14635,0.04757c0.52126,0.3777 1.14835,3.31605 0.98734,4.3339c-0.23573,1.49046 -1.20348,2.87105 -1.96202,3.2656c-0.31027,0.16125 -0.61816,0.1758 -0.89155,0.04205z" data-paper-data="{&quot;index&quot;:null}" fill="#ffc93e" stroke="#603813" stroke-linecap="butt" stroke-linejoin="miter"/><path d="M252.2298,178.88107c-0.79774,0.68369 -1.93697,0.68279 -1.93697,0.68279" data-paper-data="{&quot;index&quot;:null}" fill="none" stroke="#603813" stroke-linecap="round" stroke-linejoin="round"/></g><path d="M279.78371,158.17v24.66h-10.67327l-13.36625,-24.66h24.03951" fill-opacity="0.75294" fill="#b4e0d7" stroke="none" stroke-width="1" stroke-linecap="butt" stroke-linejoin="miter"/><path d="M255.74424,158.17l13.36625,24.66h-7.18167l-13.36625,-24.66h7.18167" fill-opacity="0.74902" fill="#d4fff5" stroke="none" stroke-width="1" stroke-linecap="butt" stroke-linejoin="miter"/><path d="M244.53228,158.17l13.31633,24.66h-4.03947l-13.36625,-24.66h4.08938" fill-opacity="0.74902" fill="#d4fff5" stroke="none" stroke-width="1" stroke-linecap="butt" stroke-linejoin="miter"/><path d="M248.56257,158.17l13.36625,24.66h-4.08938l-13.31633,-24.66h4.03947" fill-opacity="0.75294" fill="#b4e0d7" stroke="none" stroke-width="1" stroke-linecap="butt" stroke-linejoin="miter"/><path d="M238.78776,158.17h1.64597l13.36625,24.66h-15.01222v-24.66" fill-opacity="0.75294" fill="#b4e0d7" stroke="none" stroke-width="1" stroke-linecap="butt" stroke-linejoin="miter"/><g stroke-width="1.512" stroke-linecap="round" stroke-linejoin="miter"><path d="" fill="#5e154d" stroke="#5e154d"/><path d="M279.78371,158.17v24.66h-40.996v-24.66h40.996" fill="none" stroke="#666666"/></g></g></g></svg>