<svg version="1.1" xmlns="http://www.w3.org/2000/svg" xmlns:xlink="http://www.w3.org/1999/xlink" width="92.21921" height="62.49176" viewBox="0,0,92.21921,62.49176"><g transform="translate(-193.89041,-148.75412)"><g data-paper-data="{&quot;isPaintingLayer&quot;:true}" fill-rule="nonzero" stroke-linecap="butt" stroke-linejoin="miter" stroke-miterlimit="10" stroke-dasharray="" stroke-dashoffset="0" style="mix-blend-mode: normal"><path d="M194.89042,210.24588v-60.49176h90.21921v60.49176z" fill="#a2e6d0" stroke="#666666" stroke-width="2"/><path d="M195.9099,209.32838v-3.6523h88.18031v3.6523z" fill="#c0c0c0" stroke="none" stroke-width="0"/><path d="M226.82839,205.62713v-44.67282h25.91705v44.67282z" fill="#f5ff00" stroke="none" stroke-width="0"/><path d="M229.55648,186.18934v-22.50692h20.46084v22.50692z" fill="#ffffff" stroke="none" stroke-width="0"/><path d="M231.26153,169.82067v-0.34101h14.6636v0.34101z" fill="#fefefe" stroke="none" stroke-width="0"/><path d="M230.92053,171.52573v-1.70507h18.41474v1.70507z" fill="#efefef" stroke="none" stroke-width="0"/><path d="M231.26153,180.05109v-2.38711h18.07373v2.38711z" fill="#efefef" stroke="none" stroke-width="0"/><path d="M229.89751,196.41976v-6.82029h9.54838v6.82029z" fill="#585858" stroke="none" stroke-width="0"/><path d="M250.69932,192.15707c0,1.60086 -1.52678,2.89861 -3.41013,2.89861c-1.88338,0 -3.41013,-1.29775 -3.41013,-2.89861c0,-1.60086 1.52678,-2.89861 3.41013,-2.89861c1.88338,0 3.41013,1.29775 3.41013,2.89861z" fill="#585858" stroke="none" stroke-width="0"/><path d="M244.90209,198.12482v-1.70507h5.1152v1.70507z" fill="#585858" stroke="none" stroke-width="0"/><path d="M230.57953,203.24002v-2.72812h19.43779v2.72812z" fill="#585858" stroke="none" stroke-width="0"/><path d="M197.41591,205.54187v-44.67282h25.91705v44.67282z" fill="#ff1c1c" stroke="none" stroke-width="0"/><path d="M200.14404,186.10408v-22.50691h20.46081v22.50691z" fill="#ffffff" stroke="none" stroke-width="0"/><path d="M201.8491,169.73541v-0.34101h14.6636v0.34101z" fill="#fefefe" stroke="none" stroke-width="0"/><path d="M201.5081,171.44048v-1.70507h18.41477v1.70507z" fill="#efefef" stroke="none" stroke-width="0"/><path d="M201.8491,179.96583v-2.38708h18.07373v2.38708z" fill="#efefef" stroke="none" stroke-width="0"/><path d="M200.48504,196.3345v-6.82029h9.54838v6.82029z" fill="#585858" stroke="none" stroke-width="0"/><path d="M221.28689,192.07183c0,1.60086 -1.52678,2.89863 -3.41016,2.89863c-1.88338,0 -3.41013,-1.29778 -3.41013,-2.89863c0,-1.60086 1.52675,-2.89863 3.41013,-2.89863c1.88338,0 3.41016,1.29778 3.41016,2.89863z" fill="#585858" stroke="none" stroke-width="0"/><path d="M215.48966,198.03956v-1.70509h5.11522v1.70509z" fill="#585858" stroke="none" stroke-width="0"/><path d="M201.16708,203.15476v-2.72809h19.43779v2.72809z" fill="#585858" stroke="none" stroke-width="0"/><path d="M256.66706,205.79762v-44.67282h25.91705v44.67282z" fill="#1c44ff" stroke="none" stroke-width="0"/><path d="M259.3952,186.35983v-22.50691h20.46082v22.50691z" fill="#ffffff" stroke="none" stroke-width="0"/><path d="M261.10024,169.99116v-0.34101h14.6636v0.34101z" fill="#fefefe" stroke="none" stroke-width="0"/><path d="M260.75924,171.69623v-1.70507h18.41477v1.70507z" fill="#efefef" stroke="none" stroke-width="0"/><path d="M261.10024,180.22158v-2.38711h18.07373v2.38711z" fill="#efefef" stroke="none" stroke-width="0"/><path d="M259.73618,196.59025v-6.82029h9.54838v6.82029z" fill="#585858" stroke="none" stroke-width="0"/><path d="M280.53803,192.32758c0,1.60086 -1.52678,2.89863 -3.41016,2.89863c-1.88338,0 -3.41013,-1.29777 -3.41013,-2.89863c0,-1.60086 1.52675,-2.89861 3.41013,-2.89861c1.88338,0 3.41016,1.29775 3.41016,2.89861z" fill="#585858" stroke="none" stroke-width="0"/><path d="M274.74082,198.29531v-1.70507h5.11522v1.70507z" fill="#585858" stroke="none" stroke-width="0"/><path d="M260.41821,203.41051v-2.72809h19.43779v2.72809z" fill="#585858" stroke="none" stroke-width="0"/></g></g></svg>