<svg version="1.1" xmlns="http://www.w3.org/2000/svg" xmlns:xlink="http://www.w3.org/1999/xlink" width="34.7308" height="34.63489" viewBox="0,0,34.7308,34.63489"><g transform="translate(-66.69305,-325.3651)"><g data-paper-data="{&quot;isPaintingLayer&quot;:true}" fill-rule="nonzero" stroke-linejoin="miter" stroke-miterlimit="10" stroke-dasharray="" stroke-dashoffset="0" style="mix-blend-mode: normal"><path d="M91.97817,359.99999h-15.84128c-5.20777,0 -9.44384,-4.23426 -9.44384,-9.44567v-15.74538c0,-5.20594 4.23608,-9.44383 9.44385,-9.44383h15.84311c5.20777,0 9.44384,4.23791 9.44384,9.44383v15.74539c0,5.21141 -4.23791,9.44567 -9.44568,9.44567z" fill="#656880" stroke="none" stroke-width="1" stroke-linecap="butt"/><g><path d="M92.56944,355.47819h-17.02223c-0.73338,0 -1.32993,-0.59629 -1.32993,-1.33019v-22.93116c0,-0.73313 0.59655,-1.32993 1.32993,-1.32993h17.02249c0.73338,0 1.32993,0.5968 1.32993,1.32993v22.93116c0,0.7339 -0.59681,1.33019 -1.33019,1.33019z" fill="#dadbe6" stroke="none" stroke-width="1" stroke-linecap="butt"/><path d="M90.24065,352.75863h-12.36463c-0.65225,0 -1.1828,-0.53033 -1.1828,-1.18303v-17.78632c0,-0.65202 0.53055,-1.1828 1.1828,-1.1828h12.36486c0.65225,0 1.1828,0.53078 1.1828,1.1828v17.78632c0,0.6527 -0.53078,1.18303 -1.18303,1.18303z" fill="#656880" stroke="none" stroke-width="1" stroke-linecap="butt"/><g fill="none" stroke="#dadbe6" stroke-width="2.25" stroke-linecap="round"><path d="M88.56572,335.43174h-8.99205"/><path d="M83.28289,338.87508h-3.7317"/><path d="M86.99211,342.38934h-7.41844"/></g></g></g></g></svg>