<svg version="1.1" xmlns="http://www.w3.org/2000/svg" xmlns:xlink="http://www.w3.org/1999/xlink" width="489.89654" height="183.7113" viewBox="0,0,489.89654,183.7113"><defs><linearGradient x1="242.56713" y1="164.28639" x2="253.32031" y2="164.28639" gradientUnits="userSpaceOnUse" id="color-1"><stop offset="0" stop-color="#d9d76a" stop-opacity="0.50196"/><stop offset="1" stop-color="#95d96a" stop-opacity="0.50196"/></linearGradient><linearGradient x1="243.8194" y1="159.97184" x2="252.06804" y2="159.97184" gradientUnits="userSpaceOnUse" id="color-2"><stop offset="0" stop-color="#95d96a" stop-opacity="0.50196"/><stop offset="1" stop-color="#6accd9" stop-opacity="0.50196"/></linearGradient><linearGradient x1="245.23501" y1="156.08285" x2="250.65243" y2="156.08285" gradientUnits="userSpaceOnUse" id="color-3"><stop offset="0" stop-color="#6accd9" stop-opacity="0.50196"/><stop offset="1" stop-color="#d96ace" stop-opacity="0.50196"/></linearGradient></defs><g transform="translate(4.94822,-142.66535)"><g data-paper-data="{&quot;isPaintingLayer&quot;:true}" stroke-linejoin="miter" stroke-miterlimit="10" stroke-dasharray="" stroke-dashoffset="0" style="mix-blend-mode: normal"><path d="M277.33599,173.85722h-58.61577v-24.12542c0,-3.12584 2.54371,-5.66844 5.66846,-5.66844h47.2778c3.12803,0 5.66952,2.54369 5.66952,5.66953z" fill="#797a80" fill-rule="nonzero" stroke="none" stroke-width="1" stroke-linecap="butt"/><path d="M410.35655,149.73289c0,-3.12584 2.54149,-5.66953 5.66952,-5.66953h47.2778c3.12475,0 5.66846,2.5426 5.66846,5.66844v24.12542h-58.61577z" fill="#802929" fill-rule="nonzero" stroke="none" stroke-width="1" stroke-linecap="butt"/><path d="M208.10515,173.85722h-58.61577v-24.12542c0,-3.12584 2.54371,-5.66844 5.66846,-5.66844h47.2778c3.12803,0 5.66952,2.54369 5.66952,5.66953z" fill="#797a80" fill-rule="nonzero" stroke="none" stroke-width="1" stroke-linecap="butt"/><path d="M138.87428,173.85722h-58.61577v-24.12542c0,-3.12584 2.54371,-5.66844 5.66846,-5.66844h47.2778c3.12803,0 5.66952,2.54369 5.66952,5.66953z" fill="#797a80" fill-rule="nonzero" stroke="none" stroke-width="1" stroke-linecap="butt"/><path d="M69.64356,173.85722h-58.61577v-24.12542c0,-3.12584 2.5437,-5.66844 5.66846,-5.66844h47.2778c3.12803,0 5.66952,2.54369 5.66952,5.66953z" fill="#797a80" fill-rule="nonzero" stroke="none" stroke-width="1" stroke-linecap="butt"/><path d="M483.69827,193.44052v131.68612h-487.39649v-131.68612z" fill-opacity="0.70196" fill="#656880" fill-rule="nonzero" stroke="#bcbdbf" stroke-width="2.5" stroke-linecap="butt"/><path d="M-3.69817,193.44052v-19.5833h487.39649v19.5833z" fill-opacity="0.70196" fill="#656880" fill-rule="nonzero" stroke="#bcbdbf" stroke-width="2.5" stroke-linecap="butt"/><g fill="none" fill-rule="nonzero" stroke="#ffffff" stroke-width="3.5" stroke-linecap="round"><path d="M434.17098,153.46683l10.9869,10.98692"/><path d="M445.15789,153.46683l-10.9869,10.98692"/></g><g fill="none" fill-rule="evenodd" stroke="#ffffff" stroke-width="2.52" stroke-linecap="round"><path d=""/><path d=""/></g><g fill="none" fill-rule="evenodd" stroke="#cc48cc" stroke-width="1.512" stroke-linecap="round"><path d=""/><path d=""/><path d=""/><path d=""/><path d=""/><path d=""/><path d=""/><path d=""/><path d=""/><path d=""/><path d=""/><path d=""/><path d=""/><path d=""/><path d=""/><path d=""/><path d=""/><path d=""/><path d=""/><path d=""/><path d=""/></g><path d="" fill="none" fill-rule="evenodd" stroke="#5e154d" stroke-width="1.512" stroke-linecap="butt"/><path d="" fill="#5e154d" fill-rule="evenodd" stroke="#5e154d" stroke-width="2.016" stroke-linecap="round"/><g fill="none" stroke="#ffffff" stroke-width="1.512"><path d="M121.60274,150.53407v3.1783c0,1.75531 -1.34943,3.1783 -3.01399,3.1783c-1.66463,0 -3.01393,-1.42299 -3.01393,-3.1783v-3.1783z" fill-rule="evenodd" stroke-linecap="round"/><path d="M115.57485,150.53407v3.1783c0.10655,1.20114 -0.44098,2.3624 -1.4135,2.99784c-0.97246,0.63537 -2.20229,0.63537 -3.17481,0c-0.97252,-0.63543 -1.52005,-1.7967 -1.41344,-2.99784v-3.1783z" fill-rule="evenodd" stroke-linecap="round"/><path d="M109.573,150.53407v3.1783c0,1.75531 -1.34943,3.1783 -3.01399,3.1783c-1.66463,0 -3.01393,-1.42299 -3.01393,-3.1783v-3.1783z" fill-rule="evenodd" stroke-linecap="round"/><path d="M103.54511,150.53407v3.1783c0.10655,1.20114 -0.44098,2.3624 -1.4135,2.99784c-0.97252,0.63537 -2.20229,0.63537 -3.17481,0c-0.97252,-0.63543 -1.52005,-1.7967 -1.4135,-2.99784v-3.1783z" fill-rule="evenodd" stroke-linecap="round"/><path d="M97.53016,167.3865v-16.85242h24.0726v16.85242z" fill-rule="nonzero" stroke-linecap="butt"/></g><text transform="translate(22.42556,164.72903) scale(0.5,0.5)" font-size="40" xml:space="preserve" fill="#ffffff" fill-rule="nonzero" stroke="none" stroke-width="1" stroke-linecap="butt" stroke-linejoin="miter" stroke-miterlimit="10" stroke-dasharray="" stroke-dashoffset="0" font-family="&quot;ヒラギノ角ゴ Pro W3&quot;, &quot;Hiragino Kaku Gothic Pro&quot;, Osaka, &quot;メイリオ&quot;, Meiryo, &quot;ＭＳ Ｐゴシック&quot;, &quot;MS PGothic&quot;" font-weight="normal" text-anchor="start" style="mix-blend-mode: normal"><tspan x="0" dy="0">ALL</tspan></text><path d="M173.44679,170.15186l3.44495,-9.31593l-4.34868,-1.55367l11.58159,-11.51353l-3.37763,9.23323l4.30444,1.613z" fill="#ffffff" fill-rule="nonzero" stroke="none" stroke-width="0" stroke-linecap="butt"/><g fill="#ffffff" fill-rule="nonzero" stroke="#ffffff" stroke-width="1.5" stroke-linecap="butt"><path d="M250.33993,168.72368c0,0.80906 -1.03504,1.46493 -2.31184,1.46493c-1.27678,0 -2.31184,-0.65588 -2.31184,-1.46493c0,-0.80906 1.03504,-1.46492 2.31184,-1.46492c1.27678,0 2.31184,0.65587 2.31184,1.46492z"/><path d="M253.52155,165.35132c0,4.70263 -10.98691,4.70263 -10.98691,0c0,-4.70263 2.4595,-8.51486 5.49345,-8.51486c3.03394,0 5.49345,3.81223 5.49345,8.51486z"/><path d="M252.31028,161.34079c0,3.66572 -8.56435,3.66572 -8.56435,0c0,-3.66572 1.91718,-6.63737 4.28216,-6.63737c2.36498,0 4.28217,2.97165 4.28217,6.63737z"/><path d="M250.93191,156.96117c0,2.48579 -5.80764,2.48579 -5.80764,0c0,-2.48579 1.30008,-4.50091 2.90382,-4.50091c1.60374,0 2.90382,2.01512 2.90382,4.50091z"/><path d="M249.76267,153.2366c-0.41319,0.29006 -1.77256,-0.96848 -1.77256,-0.96848c0,0 -1.39928,1.21516 -1.80308,0.91172c-0.40413,-0.3034 0.37317,-1.98568 0.37317,-1.98568c0,0 -1.58786,-0.95539 -1.42406,-1.43313c0.16377,-0.47809 2.00366,-0.25863 2.00366,-0.25863c0,0 0.41755,-1.8053 0.92259,-1.79761c0.50575,0.00797 0.86574,1.82595 0.86574,1.82595c0,0 1.84598,-0.1608 1.99409,0.32231c0.1491,0.48271 -1.46864,1.3871 -1.46864,1.3871c0,0 0.7233,1.70631 0.30909,1.99645z"/></g><g fill-rule="nonzero" stroke="none" stroke-width="0" stroke-linecap="butt"><path d="M250.33993,168.72368c0,0.80905 -1.03504,1.46493 -2.31184,1.46493c-1.27678,0 -2.31184,-0.65587 -2.31184,-1.46493c0,-0.80905 1.03504,-1.46493 2.31184,-1.46493c1.27678,0 2.31184,0.65587 2.31184,1.46493z" fill="#6e564d"/><path d="M253.52155,165.35131c0,4.70263 -10.98691,4.70263 -10.98691,0c0,-4.70263 2.4595,-8.51486 5.49345,-8.51486c3.03395,0 5.49345,3.81223 5.49345,8.51486z" fill="#759166"/><path d="M252.31028,161.34078c0,3.66571 -8.56435,3.66571 -8.56435,0c0,-3.66571 1.91719,-6.63737 4.28217,-6.63737c2.36498,0 4.28217,2.97165 4.28217,6.63737z" fill="#7a916d"/><path d="M250.93191,156.96116c0,2.48579 -5.80764,2.48579 -5.80764,0c0,-2.48579 1.30008,-4.50092 2.90382,-4.50092c1.60373,0 2.90382,2.01513 2.90382,4.50092z" fill="#7e9174"/><path d="M249.76267,153.2366c-0.41319,0.29006 -1.77256,-0.96848 -1.77256,-0.96848c0,0 -1.39928,1.21517 -1.80309,0.91173c-0.40413,-0.30341 0.37318,-1.98569 0.37318,-1.98569c0,0 -1.58786,-0.95539 -1.42407,-1.43313c0.16377,-0.4781 2.00366,-0.25863 2.00366,-0.25863c0,0 0.41755,-1.80529 0.92259,-1.79761c0.50575,0.00796 0.86574,1.82595 0.86574,1.82595c0,0 1.84598,-0.1608 1.99409,0.32231c0.1491,0.48271 -1.46864,1.3871 -1.46864,1.3871c0,0 0.72331,1.70631 0.30909,1.99645z" fill="#ffe894"/></g><path d="M253.32032,162.82391c0,0 -0.4747,1.72194 -4.97162,2.63553c-3.19057,0.6482 -5.78156,0.00512 -5.78156,0.00512" fill="none" fill-rule="nonzero" stroke="url(#color-1)" stroke-width="1.5" stroke-linecap="round"/><path d="M252.06804,158.84999c0,0 -0.36413,1.32087 -3.81367,2.02168c-2.44745,0.49723 -4.43497,0.00393 -4.43497,0.00393" fill="none" fill-rule="nonzero" stroke="url(#color-2)" stroke-width="1.5" stroke-linecap="round"/><path d="M250.65243,155.34606c0,0 -0.23914,0.8675 -2.50468,1.32777c-1.60741,0.32656 -2.91274,0.00258 -2.91274,0.00258" fill="none" fill-rule="nonzero" stroke="url(#color-3)" stroke-width="1.5" stroke-linecap="round"/><path d="M267.93253,148.7651c0,-2.59669 2.10504,-4.70174 4.70173,-4.70174c2.59669,0 4.70173,2.10504 4.70173,4.70174c0,2.59669 -2.10504,4.70173 -4.70173,4.70173c-2.59669,0 -4.70173,-2.10504 -4.70173,-4.70173z" fill-opacity="0.74902" fill="#ff0000" fill-rule="nonzero" stroke="none" stroke-width="0" stroke-linecap="butt"/><text transform="translate(270.46462,150.95322) scale(0.18965,0.18965)" font-size="40" xml:space="preserve" fill-opacity="0.74902" fill="#ffffff" fill-rule="nonzero" stroke="none" stroke-width="1" stroke-linecap="butt" stroke-linejoin="miter" stroke-miterlimit="10" stroke-dasharray="" stroke-dashoffset="0" font-family="Sans Serif" font-weight="normal" text-anchor="start" style="mix-blend-mode: normal"><tspan x="0" dy="0">1</tspan></text></g></g></svg>