<svg version="1.1" xmlns="http://www.w3.org/2000/svg" xmlns:xlink="http://www.w3.org/1999/xlink" width="40.61464" height="19.3958" viewBox="0,0,40.61464,19.3958"><g transform="translate(-197.67173,-166.95906)"><g data-paper-data="{&quot;isPaintingLayer&quot;:true}" stroke-miterlimit="10" stroke-dasharray="" stroke-dashoffset="0" style="mix-blend-mode: normal"><g fill-rule="evenodd" stroke-width="0.25"><path d="M201.28509,171.39592c-0.01386,-0.0885 0.06078,-0.19088 0.16144,-0.17177l2.68458,0.52819c0,0 1.72697,-0.95408 2.66933,-1.03889c1.57406,-0.14888 2.5996,0.29736 2.5996,0.29736c0,0 1.21338,-1.38286 2.62421,-1.05974c1.41083,0.32312 3.38871,2.4408 2.26481,7.06717c-1.1239,4.62638 -3.84744,7.50134 -7.15872,7.91535c-3.31128,0.41399 -5.2124,-3.52933 -5.09442,-3.31064l-4.25668,-1.39107c-0.10065,-0.01912 -0.11624,-0.16316 -0.02945,-0.23255l3.04265,-1.90652c0,0 0.08531,-1.19222 0.52983,-2.27328c0.24658,-0.65246 0.54173,-1.17302 0.87157,-1.65018z" fill="#ffab19" stroke="#001026" stroke-linecap="butt" stroke-linejoin="miter"/><path d="M209.459,171.12015c0,0 1.12486,-1.36899 2.53569,-1.04587c1.41083,0.32312 3.23425,2.47895 2.10863,7.04979c-1.3932,5.97994 -5.83961,7.07396 -7.53278,4.45827c-1.71573,-2.62609 1.53511,-4.27226 2.27485,-6.22964c0.63729,-1.67627 -0.70052,-2.51305 0.6136,-4.23256z" fill="#ffffff" stroke="none" stroke-linecap="butt" stroke-linejoin="miter"/><path d="M208.5911,179.34065c-0.09024,-0.04167 -0.11623,-0.16317 -0.052,-0.24297c0.35584,-0.35568 1.27933,-1.40713 1.99463,-2.71894c0.63023,-1.18688 0.89593,-1.93999 0.98453,-2.30962c0.02953,-0.12322 0.184,-0.16135 0.27594,-0.06416c0.5153,0.4843 1.81129,2.12285 0.58208,4.42894c-1.1736,1.9486 -2.71108,1.48489 -3.78517,0.90674z" fill="#ffffff" stroke="#001026" stroke-linecap="round" stroke-linejoin="round"/><path d="M211.62401,167.08406c0.36757,1.45611 -0.35995,3.0907 -0.35995,3.0907" fill="none" stroke="#001026" stroke-linecap="round" stroke-linejoin="round"/><path d="M214.01509,168.54411c-0.54353,1.47324 -1.37843,2.15508 -1.37843,2.15508" fill="none" stroke="#001026" stroke-linecap="round" stroke-linejoin="round"/><path d="M208.21723,175.17207c0.21876,-0.47372 0.49309,-0.94916 0.66141,-0.8988c0.32623,0.12329 0.80159,0.75335 0.65747,1.12471c-0.1424,0.42689 -1.1439,1.11387 -1.50484,0.94718c-0.28112,-0.10246 -0.0224,-0.72194 0.18597,-1.17311z" fill="#001026" stroke="#001026" stroke-linecap="round" stroke-linejoin="round"/><path d="M203.19085,185.16694c0,0 1.52754,-1.64829 2.59148,-2.11488" fill="none" stroke="#001026" stroke-linecap="round" stroke-linejoin="round"/><path d="M206.60312,183.34902c-0.06448,1.1471 -1.08353,2.7018 -1.08353,2.7018" fill="none" stroke="#001026" stroke-linecap="round" stroke-linejoin="round"/><g><path d="M206.80723,171.29134c1.31722,-0.18539 2.4781,0.32337 2.59246,1.14251c0.11434,0.81915 -0.83859,1.63803 -2.16624,1.84598c-1.31722,0.18539 -2.47812,-0.32336 -2.59246,-1.14251c-0.1369,-0.82956 0.84902,-1.6606 2.16624,-1.84599z" fill="#ffffff" stroke="#001026" stroke-linecap="round" stroke-linejoin="round"/><path d="M208.05137,171.97539c0.24814,0.1146 0.1846,0.30861 0.08043,0.53418c-0.10417,0.22558 -0.20733,0.3925 -0.45547,0.27791c-0.24814,-0.1146 -0.093,-0.2685 0.01117,-0.49408c0.10417,-0.22558 0.11573,-0.4326 0.36388,-0.31801" fill="#001026" stroke="none" stroke-linecap="butt" stroke-linejoin="miter"/></g><g><path d="M204.85524,177.17744c1.30509,-0.21837 2.5024,0.38933 2.6497,1.19633c0.08482,0.94236 -0.68938,1.78906 -1.99447,2.00743c-1.3155,0.24092 -2.62214,-0.30778 -2.79548,-1.23627c-0.19588,-0.93892 0.83515,-1.74911 2.14024,-1.96748z" fill="#ffffff" stroke="#001026" stroke-linecap="round" stroke-linejoin="round"/><path d="M206.10111,177.91702c0.24814,0.1146 0.23042,0.32865 0.12623,0.55424c-0.10417,0.22558 -0.25313,0.37244 -0.50128,0.25785c-0.24814,-0.1146 -0.0014,-0.22837 0.10279,-0.45396c0.12674,-0.21518 0.02412,-0.47272 0.27227,-0.35812" fill="#001026" stroke="none" stroke-linecap="butt" stroke-linejoin="miter"/></g></g><path d="M232.18392,173.45492c10.51582,-0.48814 4.25,12.89994 4.25,12.89994h-26.81953c0,0 -1.47395,-12.53861 3.71429,-12.5891c6.52362,-0.06349 13.80105,-0.07622 18.85524,-0.31084z" data-paper-data="{&quot;index&quot;:null}" fill="#998290" fill-rule="nonzero" stroke="none" stroke-width="0" stroke-linecap="butt" stroke-linejoin="miter"/></g></g></svg>