<svg version="1.1" xmlns="http://www.w3.org/2000/svg" xmlns:xlink="http://www.w3.org/1999/xlink" width="92.21921" height="62.49176" viewBox="0,0,92.21921,62.49176"><defs><linearGradient x1="240.00001" y1="149.75412" x2="240.00001" y2="210.24588" gradientUnits="userSpaceOnUse" id="color-1"><stop offset="0" stop-color="#bfa84d"/><stop offset="1" stop-color="#8f7d1e"/></linearGradient><linearGradient x1="240.35689" y1="149.60986" x2="240.35689" y2="169.04319" gradientUnits="userSpaceOnUse" id="color-2"><stop offset="0" stop-color="#fbff00"/><stop offset="1" stop-color="#fbff00" stop-opacity="0"/></linearGradient></defs><g transform="translate(-193.8904,-148.75412)"><g data-paper-data="{&quot;isPaintingLayer&quot;:true}" fill-rule="nonzero" stroke-linejoin="miter" stroke-miterlimit="10" stroke-dasharray="" stroke-dashoffset="0" style="mix-blend-mode: normal"><path d="M224.64044,195.29777v-30.59554h30.71921v30.59554z" fill-opacity="0.30196" fill="#b2ffd0" stroke="#8ab6c6" stroke-width="0" stroke-linecap="butt"/><path d="M194.89041,210.24588v-60.49176h90.21921v60.49176zM239.96844,194.96368c8.28427,0 15,-6.71573 15,-15c0,-8.28427 -6.71573,-15 -15,-15c-8.28427,0 -15,6.71573 -15,15c0,8.28427 6.71573,15 15,15z" data-paper-data="{&quot;index&quot;:null}" fill="url(#color-1)" stroke="#666666" stroke-width="2" stroke-linecap="butt"/><path d="M224.91849,179.96368c0,-8.28427 6.76573,-15.05 15.05,-15.05c8.28427,0 15.05,6.76573 15.05,15.05c0,8.28427 -6.76573,15.05 -15.05,15.05c-8.28427,0 -15.05,-6.76573 -15.05,-15.05z" data-paper-data="{&quot;noHover&quot;:false,&quot;origItem&quot;:[&quot;Path&quot;,{&quot;applyMatrix&quot;:true,&quot;segments&quot;:[[[479.93697,389.92736],[-16.56854,0],[16.56854,0]],[[509.93697,359.92736],[0,16.56854],[0,-16.56854]],[[479.93697,329.92736],[16.56854,0],[-16.56854,0]],[[449.93697,359.92736],[0,-16.56854],[0,16.56854]]],&quot;closed&quot;:true,&quot;fillColor&quot;:[0,0,0,1]}]}" fill-opacity="0.6" fill="#f2f2f2" stroke="none" stroke-width="0.5" stroke-linecap="butt"/><path d="M263.41731,204.39473l-11.64407,0.02125c0,0 0.91891,-6.32888 0.85234,-9.28925c-0.0603,-2.68181 -1.28793,-6.28575 -1.28793,-6.28575" data-paper-data="{&quot;index&quot;:null}" fill="none" stroke="#b36225" stroke-width="2.5" stroke-linecap="round"/><path d="M258.7426,202.28053c2.86336,0 5.18458,0.24735 5.18458,0.55246c0,0.30511 -2.32122,0.55246 -5.18458,0.55246c-2.86336,0 -5.18458,-0.24735 -5.18458,-0.55246c0,-0.30511 2.32122,-0.55246 5.18458,-0.55246z" data-paper-data="{&quot;index&quot;:null}" fill="#630000" stroke="#630000" stroke-width="2" stroke-linecap="butt"/><path d="M234.80314,199.09787v6.41967h-26.81953v-6.41967z" data-paper-data="{&quot;index&quot;:null}" fill="#dcbbbb" stroke="none" stroke-width="0" stroke-linecap="butt"/><path d="M225.89404,198.64332v6.41967h-8.09226v-6.41967z" data-paper-data="{&quot;index&quot;:null}" fill="#db6c58" stroke="none" stroke-width="0" stroke-linecap="butt"/><path d="M209.25445,198.75578v4.99223c0,0.38139 -0.3101,0.69163 -0.69176,0.69163h-9.83349c-0.38126,0 -0.69163,-0.31023 -0.69163,-0.69163v-4.99237c0,-0.38139 0.31037,-0.69162 0.69163,-0.69162h9.83349c0.38166,0 0.69176,0.31036 0.69176,0.69176z" fill="#fcfeff" stroke="none" stroke-width="1" stroke-linecap="butt"/><path d="M237.39386,204.16184v0.8589c0,0.38139 -0.3101,0.69162 -0.69176,0.69162h-38.70016c-0.38126,0 -0.69162,-0.31023 -0.69162,-0.69162v-0.85904c0,-0.38139 0.31036,-0.69162 0.69162,-0.69162h38.70016c0.38166,0 0.69176,0.31036 0.69176,0.69176z" fill="#b36225" stroke="none" stroke-width="1" stroke-linecap="butt"/><path d="M268.41112,205.42987v-8.68521l-8.43461,-0.02246l24.14543,-0.02054l-5.43,0.02054l0.181,8.68906" fill="none" stroke="#7d451a" stroke-width="2.5" stroke-linecap="round"/><path d="M195.91012,209.32838v-3.6523h88.18031v3.6523z" data-paper-data="{&quot;index&quot;:null}" fill="#c0c0c0" stroke="none" stroke-width="0" stroke-linecap="butt"/><g fill="none" stroke="#666666" stroke-width="1.25"><path d="M232.41933,193.22802v-26.5132c0,0 4.17339,-2.13813 7.61052,-2.09317c4.01723,0.05255 7.55084,2.09317 7.55084,2.09317v26.45604c0,0 -3.69499,2.18553 -7.608,2.15245c-4.34161,-0.0367 -7.55336,-2.09528 -7.55336,-2.09528z" stroke-linecap="butt"/><path d="M255.27859,180h-30.55716" stroke-linecap="round"/><path d="M240.00001,195.27858v-30.55716" stroke-linecap="round"/><path d="M226.70588,172.27628h26.25409c0,0 2.08145,3.61874 2.03649,7.68744c-0.05255,4.43828 -1.93122,7.47392 -1.93122,7.47392h-26.30219c0,0 -2.26245,-3.69498 -2.22937,-7.608c0.03671,-4.34162 2.1722,-7.55336 2.1722,-7.55336z" stroke-linecap="butt"/></g><g><g stroke="#666666"><path d="M233.91542,156.88429c3.42751,-1.95616 8.05639,-2.0155 12.0846,-0.34468c1.60905,0.6674 0.91373,14.92024 -6.03598,14.83691c-7.03252,-0.08433 -7.14808,-13.86474 -6.04864,-14.49222z" fill="url(#color-2)" stroke-width="0" stroke-linecap="butt"/><path d="M240.01008,149.79015v7.078" fill="none" stroke-width="2" stroke-linecap="round"/></g><path d="M235.4167,163v-6.91666h9.16667v6.91666z" fill="#ffda5b" stroke="#ffda5a" stroke-width="2" stroke-linecap="butt"/><path d="M235.4167,156v-1.5h9.16667v1.5z" fill="#666666" stroke="#666666" stroke-width="2" stroke-linecap="butt"/></g></g></g></svg>