<svg version="1.1" xmlns="http://www.w3.org/2000/svg" xmlns:xlink="http://www.w3.org/1999/xlink" width="99.20614" height="119.40827" viewBox="0,0,99.20614,119.40827"><g transform="translate(-190.39693,-120.29588)"><g data-paper-data="{&quot;isPaintingLayer&quot;:true}" stroke-miterlimit="10" stroke-dasharray="" stroke-dashoffset="0" style="mix-blend-mode: normal"><path d="M289.60307,129.31305v101.37565c0,4.97152 -4.04218,9.01545 -9.01718,9.01545h-81.17351c-4.96979,0 -9.01545,-4.04392 -9.01545,-9.01544v-101.37738c0,-4.97152 4.04566,-9.01545 9.01545,-9.01545h81.17351c4.975,0 9.01718,4.04566 9.01718,9.01719z" fill-opacity="0.74902" fill="#d2d3d4" fill-rule="nonzero" stroke="none" stroke-width="1" stroke-linecap="butt" stroke-linejoin="miter"/><path d="M287.06513,163.26163v65.07452c0,4.97152 -4.04219,9.01545 -9.01719,9.01545l-76.09761,0.25093c-4.96979,0 -9.01545,-4.04392 -9.01545,-9.01545v-65.07627z" fill-opacity="0.85882" fill="#ffffff" fill-rule="nonzero" stroke="none" stroke-width="1" stroke-linecap="butt" stroke-linejoin="miter"/><text transform="translate(197.4876,200.16945) scale(0.28036,0.28036)" font-size="40" xml:space="preserve" fill="#000000" fill-rule="nonzero" stroke="#000000" stroke-width="1" stroke-linecap="butt" stroke-linejoin="miter" stroke-miterlimit="10" stroke-dasharray="" stroke-dashoffset="0" font-family="&quot;ヒラギノ角ゴ Pro W3&quot;, &quot;Hiragino Kaku Gothic Pro&quot;, Osaka, &quot;メイリオ&quot;, Meiryo, &quot;ＭＳ Ｐゴシック&quot;, &quot;MS PGothic&quot;" font-weight="normal" text-anchor="start" style="mix-blend-mode: normal"><tspan x="0" dy="0">本屋</tspan></text><g fill-rule="nonzero" stroke="none" stroke-linecap="butt" stroke-linejoin="miter"><g fill="#45b5e6" stroke-width="0"><path d="M208.75315,213.93832l-6.05509,-6.05509l0.90827,-0.90827l6.05509,6.05509z"/><path d="M207.66481,204.70311c0.3036,0.3036 0.30354,0.79598 0,1.09952l-6.13918,6.13917c-0.3036,0.3036 -0.79592,0.30347 -1.09945,-0.00006l-2.54359,-2.54359c-0.3036,-0.3036 -0.3036,-0.79579 0,-1.0994l6.13911,-6.13911c0.30374,-0.30374 0.79586,-0.30366 1.09946,-0.00006l2.54358,2.54358z"/></g><text transform="translate(209.44316,210.32878) scale(0.19587,0.20747)" font-size="40" xml:space="preserve" fill="#585858" fill-rule="nonzero" stroke="none" stroke-width="1" stroke-linecap="butt" stroke-linejoin="miter" stroke-miterlimit="10" stroke-dasharray="" stroke-dashoffset="0" font-family="Sans Serif" font-weight="normal" text-anchor="start" style="mix-blend-mode: normal"><tspan x="0" dy="0">55,000G</tspan></text></g><g stroke-width="1"><g data-paper-data="{&quot;index&quot;:null}"><path d="M204.68463,214.69793c0.0443,-0.02953 0.11815,-0.01477 0.13292,0.04431l0.38401,1.58035c0,0 0.94524,0.69416 1.22588,1.18158c0.47263,0.81232 0.48739,1.47697 0.48739,1.47697c0,0 1.04864,0.31017 1.22589,1.15203c0.17723,0.84187 -0.47263,2.43699 -3.24931,2.98347c-2.7767,0.54647 -5.00691,-0.20678 -6.05557,-1.89052c-1.04864,-1.68374 0.60554,-3.69241 0.51693,-3.57425l-0.31017,-2.64377c-0.01477,-0.05909 0.05908,-0.10339 0.11814,-0.07385l1.78713,1.16681c0,0 0.66464,-0.25109 1.35881,-0.28063c0.41356,-0.02953 0.76802,0 1.10772,0.05909z" fill="#45b5e6" fill-rule="evenodd" stroke="#45b5e6" stroke-linecap="butt" stroke-linejoin="miter"/><path d="M209.58817,219.20268c-0.69417,0.56124 -1.7576,0.57601 -1.7576,0.57601" fill="#45b5e6" fill-rule="evenodd" stroke="#45b5e6" stroke-linecap="round" stroke-linejoin="round"/><path d="M209.39615,220.85687c-0.93048,0.07385 -1.50651,-0.20676 -1.50651,-0.20676" fill="#45b5e6" fill-rule="evenodd" stroke="#45b5e6" stroke-linecap="round" stroke-linejoin="round"/><path d="M197.72814,219.15836c0,0 1.27017,0.41356 1.78711,0.87141" fill="#45b5e6" fill-rule="evenodd" stroke="#45b5e6" stroke-linecap="round" stroke-linejoin="round"/><path d="M199.55957,220.54671c-0.6351,0.25108 -1.72804,0.08862 -1.72804,0.08862" fill="#45b5e6" fill-rule="evenodd" stroke="#45b5e6" stroke-linecap="round" stroke-linejoin="round"/><g fill="none" fill-rule="nonzero" stroke="none" stroke-linecap="butt" stroke-linejoin="miter" font-family="sans-serif" font-weight="normal" font-size="12" text-anchor="start"/><g fill="none" fill-rule="nonzero" stroke="none" stroke-linecap="butt" stroke-linejoin="miter" font-family="sans-serif" font-weight="normal" font-size="12" text-anchor="start"/></g><text transform="translate(209.44316,222.38156) scale(0.19588,0.20747)" font-size="40" xml:space="preserve" fill="#585858" fill-rule="nonzero" stroke="none" stroke-width="1" stroke-linecap="butt" stroke-linejoin="miter" stroke-miterlimit="10" stroke-dasharray="" stroke-dashoffset="0" font-family="Sans Serif" font-weight="normal" text-anchor="start" style="mix-blend-mode: normal"><tspan x="0" dy="0">260G</tspan></text></g><g fill-rule="nonzero" stroke="none" stroke-linecap="butt"><path d="M248.03087,215.93531c0.41438,-0.94222 1.30869,-1.59712 2.34778,-1.59712c1.4325,0 2.5951,1.24099 2.5951,2.77006c0,3.0114 -4.94287,7.00154 -4.94287,7.00154c0,0 -4.94286,-3.89088 -4.94286,-7.00154c0,-1.52908 1.1626,-2.77006 2.5951,-2.77006c1.03907,0 1.9334,0.65487 2.34776,1.59712z" fill="#45b5e6" stroke-width="0" stroke-linejoin="round"/><text transform="translate(253.23743,222.41856) scale(0.19589,0.20748)" font-size="40" xml:space="preserve" fill="#585858" fill-rule="nonzero" stroke="none" stroke-width="1" stroke-linecap="butt" stroke-linejoin="miter" stroke-miterlimit="10" stroke-dasharray="" stroke-dashoffset="0" font-family="Sans Serif" font-weight="normal" text-anchor="start" style="mix-blend-mode: normal"><tspan x="0" dy="0">6%</tspan></text></g><g fill-rule="nonzero" stroke="none" stroke-linecap="butt" stroke-linejoin="miter"><g fill="#45b5e6" stroke-width="0"><path d="M241.85852,206.60629l5.64578,-1.34827l3.23916,3.23917l-1.34825,5.64577l-3.23077,-3.23077l-0.02081,-1.06159h-1.04078z"/><path d="M254.06963,202.84012l-4.99544,4.99545l-0.90828,-0.90827l4.99544,-4.99545z"/></g><text transform="translate(252.97427,210.4311) scale(0.19589,0.20748)" font-size="40" xml:space="preserve" fill="#585858" fill-rule="nonzero" stroke="none" stroke-width="1" stroke-linecap="butt" stroke-linejoin="miter" stroke-miterlimit="10" stroke-dasharray="" stroke-dashoffset="0" font-family="Sans Serif" font-weight="normal" text-anchor="start" style="mix-blend-mode: normal"><tspan x="0" dy="0">400G</tspan></text></g><g><path d="M194.8904,186.32394v-60.49176h90.21921v60.49176z" fill="#ffd577" fill-rule="nonzero" stroke="#666666" stroke-width="2" stroke-linecap="butt" stroke-linejoin="miter"/><path d="M255.46888,185.24742v-58.28636h28.44514v58.28636z" fill="#bd8900" fill-rule="nonzero" stroke="none" stroke-width="0" stroke-linecap="butt" stroke-linejoin="miter"/><path d="M257.73743,144.58657v-4.71177h26.1547v4.71177z" fill="#a87800" fill-rule="nonzero" stroke="none" stroke-width="0" stroke-linecap="butt" stroke-linejoin="miter"/><path d="M257.91201,165.00425v-5.58433h25.82749v5.58433z" fill="#a87800" fill-rule="nonzero" stroke="none" stroke-width="0" stroke-linecap="butt" stroke-linejoin="miter"/><path d="M257.8138,139.84208v-12.87012h3.70833v12.87012z" fill="#ff1c1c" fill-rule="nonzero" stroke="none" stroke-width="0" stroke-linecap="butt" stroke-linejoin="miter"/><path d="M265.23045,139.84208v-12.87012h3.70834v12.87012z" fill="#00ceff" fill-rule="nonzero" stroke="none" stroke-width="0" stroke-linecap="butt" stroke-linejoin="miter"/><path d="M268.82974,139.95114v-12.97918h3.70834v12.97919z" fill="#ca00ff" fill-rule="nonzero" stroke="none" stroke-width="0" stroke-linecap="butt" stroke-linejoin="miter"/><path d="M276.24644,139.95114v-12.97918h3.70834v12.97919z" fill="#f5ff00" fill-rule="nonzero" stroke="none" stroke-width="0" stroke-linecap="butt" stroke-linejoin="miter"/><path d="M257.87925,159.53238v-14.94242h3.70834v14.94242z" fill="#ff1c1c" fill-rule="nonzero" stroke="none" stroke-width="0" stroke-linecap="butt" stroke-linejoin="miter"/><path d="M265.31771,159.58447l-3.4976,-14.30194l3.54939,-0.86802l3.49759,14.30194z" fill="#ca00ff" fill-rule="nonzero" stroke="none" stroke-width="0" stroke-linecap="butt" stroke-linejoin="miter"/><path d="M273.13481,159.4381v-14.94242h3.70834v14.94242z" fill="#f5ff00" fill-rule="nonzero" stroke="none" stroke-width="0" stroke-linecap="butt" stroke-linejoin="miter"/><path d="M280.17286,159.58353v-14.94242h3.70834v14.94242z" fill="#1c44ff" fill-rule="nonzero" stroke="none" stroke-width="0" stroke-linecap="butt" stroke-linejoin="miter"/><path d="M280.17286,185.17834v-20.12727h3.70834v20.12727z" data-paper-data="{&quot;index&quot;:null}" fill="#ff1c1c" fill-rule="nonzero" stroke="none" stroke-width="0" stroke-linecap="butt" stroke-linejoin="miter"/><path d="M272.75621,185.17834v-18.88617h3.70834v18.88617z" data-paper-data="{&quot;index&quot;:null}" fill="#ca00ff" fill-rule="nonzero" stroke="none" stroke-width="0" stroke-linecap="butt" stroke-linejoin="miter"/><path d="M269.04786,185.17834v-16.74243h3.70834v16.74244z" data-paper-data="{&quot;index&quot;:null}" fill="#00ceff" fill-rule="nonzero" stroke="none" stroke-width="0" stroke-linecap="butt" stroke-linejoin="miter"/><path d="M265.19414,185.2081v-18.77333h3.70834v18.77333z" data-paper-data="{&quot;index&quot;:null}" fill="#f5ff00" fill-rule="nonzero" stroke="none" stroke-width="0" stroke-linecap="butt" stroke-linejoin="miter"/><path d="M258.89051,184.71219l2.79299,-19.48391l3.5898,0.51459l-2.79299,19.48391z" data-paper-data="{&quot;index&quot;:null}" fill="#00ceff" fill-rule="nonzero" stroke="none" stroke-width="0" stroke-linecap="butt" stroke-linejoin="miter"/><g><g fill-rule="evenodd" stroke-width="0.5"><path d="M218.69742,140.86814c0.11183,-0.07455 0.2982,-0.03727 0.33549,0.11183l0.96917,3.98853c0,0 2.38566,1.75197 3.09391,2.98207c1.19283,2.05017 1.23011,3.7276 1.23011,3.7276c0,0 2.6466,0.78279 3.09391,2.90752c0.44731,2.12473 -1.19283,6.15053 -8.20071,7.52974c-7.00788,1.37921 -12.63654,-0.52186 -15.28313,-4.77132c-2.64659,-4.24946 1.52831,-9.31899 1.30465,-9.02078l-0.78279,-6.67239c-0.03728,-0.1491 0.1491,-0.26094 0.2982,-0.18638l4.51038,2.9448c0,0 1.67742,-0.63369 3.42939,-0.70825c1.04373,-0.07455 1.93835,0.00001 2.79569,0.14911z" fill="#ffab19" stroke="#001026" stroke-linecap="butt" stroke-linejoin="miter"/><path d="M224.21426,151.82727c0,0 2.57205,0.67097 3.01935,2.7957c0.44731,2.12473 -1.34193,5.96415 -8.27526,7.30608c-9.02078,1.8638 -13.30751,-3.50394 -10.81002,-7.4552c2.49749,-3.98853 6.78422,-0.59642 9.9154,-0.82008c2.68387,-0.18637 2.98208,-2.53476 6.15053,-1.82653z" fill="#ffffff" stroke="none" stroke-linecap="butt" stroke-linejoin="miter"/><path d="M212.47234,155.81579c0,-0.1491 0.14911,-0.26094 0.29821,-0.22366c0.70825,0.26093 2.72114,0.85735 4.9577,1.00645c2.0129,0.11183 3.20573,0.00001 3.76487,-0.11182c0.18637,-0.03728 0.33548,0.14911 0.26093,0.33548c-0.33549,1.00645 -1.75197,3.80215 -5.66594,3.57849c-3.39211,-0.37276 -3.7276,-2.75842 -3.61577,-4.58495z" fill="#ffffff" stroke="#001026" stroke-linecap="round" stroke-linejoin="round"/><path d="M231.07304,152.2373c-1.75197,1.41648 -4.43584,1.45376 -4.43584,1.45376" fill="none" stroke="#001026" stroke-linecap="round" stroke-linejoin="round"/><path d="M230.58845,156.41221c-2.34839,0.18637 -3.80215,-0.52186 -3.80215,-0.52186" fill="none" stroke="#001026" stroke-linecap="round" stroke-linejoin="round"/><path d="M217.91463,152.68461c0.78279,0 1.60287,0.07455 1.64014,0.33549c0.03728,0.52186 -0.52186,1.56559 -1.11828,1.60287c-0.67097,0.07455 -2.23656,-0.85735 -2.23656,-1.45377c-0.03728,-0.44731 0.96918,-0.48459 1.7147,-0.48459z" fill="#001026" stroke="#001026" stroke-linecap="round" stroke-linejoin="round"/><path d="M201.14045,152.12547c0,0 3.20573,1.04373 4.51039,2.19928" fill="none" stroke="#001026" stroke-linecap="round" stroke-linejoin="round"/><path d="M205.76268,155.62942c-1.60287,0.63369 -4.36129,0.22366 -4.36129,0.22366" fill="none" stroke="#001026" stroke-linecap="round" stroke-linejoin="round"/><g><path d="M222.31319,148.32333c1.081,1.67742 1.11828,3.57849 0.07455,4.24946c-1.04373,0.67097 -2.75842,-0.11182 -3.8767,-1.78924c-1.081,-1.67742 -1.11828,-3.5785 -0.07455,-4.24947c1.04373,-0.70825 2.7957,0.11183 3.8767,1.78925z" fill="#ffffff" stroke="#001026" stroke-linecap="round" stroke-linejoin="round"/><path d="M222.16409,150.44806c0,0.41003 -0.2982,0.74551 -0.67096,0.74551c-0.37276,0 -0.67097,-0.33548 -0.67097,-0.74551c0,-0.41003 0.29821,-0.74552 0.67097,-0.74552c0.37276,0 0.67096,0.33548 0.67096,0.74552" fill="#001026" stroke="none" stroke-linecap="butt" stroke-linejoin="miter"/></g><g><path d="M213.06875,149.36705c1.11828,1.64014 1.04373,3.65304 0.03728,4.36129c-1.23011,0.70825 -2.87025,0.18637 -3.98853,-1.45377c-1.15556,-1.64014 -1.23011,-3.76487 -0.07455,-4.58495c1.15556,-0.85735 2.90753,0.03728 4.02581,1.67742z" fill="#ffffff" stroke="#001026" stroke-linecap="round" stroke-linejoin="round"/><path d="M212.84511,151.52906c0,0.41003 -0.29821,0.74552 -0.67097,0.74552c-0.37276,0 -0.67096,-0.33548 -0.67096,-0.74552c0,-0.41003 0.2982,-0.74551 0.67096,-0.74551c0.37276,0.03728 0.67097,0.33548 0.67097,0.74551" fill="#001026" stroke="none" stroke-linecap="butt" stroke-linejoin="miter"/></g></g><path d="M196.299,184.81759v-23.6217h46.06308v23.6217z" fill="#ab7000" fill-rule="nonzero" stroke="#000000" stroke-width="1" stroke-linecap="butt" stroke-linejoin="miter"/><path d="M200.51464,178.07647v-11.90261h13.98556v11.90261z" fill="#43a700" fill-rule="nonzero" stroke="#000000" stroke-width="0.5" stroke-linecap="butt" stroke-linejoin="miter"/></g><path d="M195.90991,185.40644v-3.6523h88.18031v3.6523z" fill="#c0c0c0" fill-rule="nonzero" stroke="none" stroke-width="0" stroke-linecap="butt" stroke-linejoin="miter"/></g><path d="M286.08835,126.38078v59.3949c0,0.9386 -0.76314,1.70207 -1.7024,1.70207h-88.77223c-0.93827,0 -1.70207,-0.76347 -1.70207,-1.70207v-59.39522c0,-0.9386 0.7638,-1.70208 1.70207,-1.70208h88.77223c0.93926,0 1.7024,0.7638 1.7024,1.7024z" fill="none" fill-rule="nonzero" stroke="#666666" stroke-width="2" stroke-linecap="butt" stroke-linejoin="miter"/><g fill-rule="nonzero" stroke="none" stroke-linecap="butt" stroke-linejoin="miter"><text transform="translate(252.9769,234.29901) scale(0.19588,0.20747)" font-size="40" xml:space="preserve" fill="#585858" fill-rule="nonzero" stroke="none" stroke-width="1" stroke-linecap="butt" stroke-linejoin="miter" stroke-miterlimit="10" stroke-dasharray="" stroke-dashoffset="0" font-family="Sans Serif" font-weight="normal" text-anchor="start" style="mix-blend-mode: normal"><tspan x="0" dy="0">-4</tspan></text><path d="M244.4761,236.41881l1.7486,-4.14478l-2.20732,-0.69125l5.87862,-5.12252l-1.71443,4.10799l2.18486,0.71764z" fill="#e6c245" stroke-width="0"/></g></g></g></svg>