<svg version="1.1" xmlns="http://www.w3.org/2000/svg" xmlns:xlink="http://www.w3.org/1999/xlink" width="92.21921" height="62.49176" viewBox="0,0,92.21921,62.49176"><defs><linearGradient x1="240.0001" y1="170.3047" x2="240.0001" y2="179.88653" gradientUnits="userSpaceOnUse" id="color-1"><stop offset="0" stop-color="#93f2ff"/><stop offset="1" stop-color="#d0ffcb"/></linearGradient><linearGradient x1="240.0001" y1="179.88653" x2="240.0001" y2="185.77493" gradientUnits="userSpaceOnUse" id="color-2"><stop offset="0" stop-color="#636666"/><stop offset="1" stop-color="#a8adad"/></linearGradient></defs><g transform="translate(-193.8905,-148.67223)"><g data-paper-data="{&quot;isPaintingLayer&quot;:true}" fill-rule="nonzero" stroke-linejoin="miter" stroke-miterlimit="10" stroke-dasharray="" stroke-dashoffset="0" style="mix-blend-mode: normal"><path d="M194.89051,210.164v-60.49176h90.21921v60.49176z" fill="#d8ccb8" stroke="#666666" stroke-width="2" stroke-linecap="butt"/><path d="M195.90998,209.32841v-3.6523h88.18031v3.6523z" fill="#c0c0c0" stroke="none" stroke-width="0" stroke-linecap="butt"/><path d="M229.42783,206.74025v-5.88841h21.14435v5.88841z" fill="#666666" stroke="#666666" stroke-width="1" stroke-linecap="butt"/><path d="M229.42783,204.92843v-19.08879h21.14435v19.08879z" fill="#c9c9c9" stroke="#666666" stroke-width="1" stroke-linecap="butt"/><path d="M229.42783,165.5861v20.25355h21.14435v-20.25355z" fill="#b8b8b8" stroke="#666666" stroke-width="1" stroke-linecap="butt"/><path d="M231.58258,170.3047v9.58183h16.83505v-9.58183z" fill="url(#color-1)" stroke="#666666" stroke-width="1" stroke-linecap="butt"/><path d="M229.42782,205.64022v-40.05412" fill="none" stroke-opacity="0.68627" stroke="#6ca0b8" stroke-width="1.5" stroke-linecap="round"/><path d="M250.57218,205.8667v-40.05412" fill="none" stroke-opacity="0.68627" stroke="#6ca0b8" stroke-width="1.5" stroke-linecap="round"/><path d="M229.42782,165.5861v-3.05355h21.14435v3.05355z" fill="#f15151" stroke="#666666" stroke-width="1" stroke-linecap="butt"/><path d="M231.58258,185.77493v-5.88841h16.83504v5.88841z" fill="url(#color-2)" stroke="#666666" stroke-width="1" stroke-linecap="butt"/><g stroke="none" stroke-linecap="butt"><path d="M209.10106,197.01394c-1.26536,-0.72306 -3.00867,-0.97138 -3.98581,-1.98072c-0.14902,-0.15393 -0.28022,-0.32556 -0.38919,-0.51928c-1.5237,-2.70875 -4.21456,-7.30789 -4.80437,-10.23958c-0.36369,-1.80775 1.46879,-2.50028 1.5929,-3.89615c0.16546,-1.86099 -0.27121,-4.76007 -0.44746,-6.49027c-0.60491,-5.93816 0.7753,-14.83092 9.58186,-13.18857c3.86821,0.72139 5.5979,4.68611 6.50318,8.22646c0.16226,0.63458 1.65271,1.40127 2.02834,2.10486c0.77574,1.45305 1.34494,3.8548 1.76916,5.5517c0.7539,3.01562 -4.05892,11.86159 -5.96465,14.40809c-0.77768,1.03917 -0.44795,2.91718 -1.57488,3.56114z" fill="#2ca845" stroke-width="0.5"/><path d="M203.96574,206.34132l-2.13989,-14.62781h14.39562l-2.13989,14.62781z" fill="#bd9449" stroke-width="0"/></g><g data-paper-data="{&quot;index&quot;:null}" stroke="none" stroke-linecap="butt"><path d="M266.59013,194.55161c-1.12693,-0.64396 -0.7972,-2.52197 -1.57488,-3.56114c-1.90573,-2.54649 -6.71855,-11.39247 -5.96465,-14.40809c0.42422,-1.6969 0.99343,-4.09865 1.76916,-5.5517c0.37563,-0.7036 1.86608,-1.47028 2.02835,-2.10486c0.90527,-3.54035 2.63497,-7.50506 6.50317,-8.22645c8.80656,-1.64235 10.18676,7.25042 9.58186,13.18857c-0.17625,1.7302 -0.61292,4.62928 -0.44747,6.49027c0.12411,1.39587 1.95659,2.0884 1.59289,3.89615c-0.58981,2.93169 -3.28067,7.53082 -4.80437,10.23958c-0.10897,0.19371 -0.24017,0.36535 -0.38918,0.51928c-0.97714,1.00934 -2.72046,1.25765 -3.98582,1.98072z" fill="#2ca845" stroke-width="0.5"/><path d="M265.91868,206.34132l-2.13989,-14.6278h14.39562l-2.13989,14.6278z" fill="#bd9449" stroke-width="0"/></g></g></g></svg>