<svg version="1.1" xmlns="http://www.w3.org/2000/svg" xmlns:xlink="http://www.w3.org/1999/xlink" width="99.20614" height="119.40827" viewBox="0,0,99.20614,119.40827"><defs><linearGradient x1="239.78387" y1="153.06144" x2="239.78387" y2="167.73038" gradientUnits="userSpaceOnUse" id="color-1"><stop offset="0" stop-color="#c0c0c0"/><stop offset="1" stop-color="#c0c0c0" stop-opacity="0"/></linearGradient></defs><g transform="translate(-190.39693,-120.29588)"><g data-paper-data="{&quot;isPaintingLayer&quot;:true}" stroke-miterlimit="10" stroke-dasharray="" stroke-dashoffset="0" style="mix-blend-mode: normal"><path d="M289.60307,129.31305v101.37565c0,4.97152 -4.04218,9.01545 -9.01718,9.01545h-81.17351c-4.96979,0 -9.01545,-4.04392 -9.01545,-9.01544v-101.37738c0,-4.97152 4.04566,-9.01545 9.01545,-9.01545h81.17351c4.975,0 9.01718,4.04566 9.01718,9.01719z" fill-opacity="0.74902" fill="#d2d3d4" fill-rule="nonzero" stroke="none" stroke-width="1" stroke-linecap="butt" stroke-linejoin="miter"/><path d="M287.06513,163.26163v65.07452c0,4.97152 -4.04219,9.01545 -9.01719,9.01545l-76.09761,0.25093c-4.96979,0 -9.01545,-4.04392 -9.01545,-9.01545v-65.07627z" fill-opacity="0.85882" fill="#ffffff" fill-rule="nonzero" stroke="none" stroke-width="1" stroke-linecap="butt" stroke-linejoin="miter"/><text transform="translate(197.4876,200.16945) scale(0.28036,0.28036)" font-size="40" xml:space="preserve" fill="#000000" fill-rule="nonzero" stroke="#000000" stroke-width="1" stroke-linecap="butt" stroke-linejoin="miter" stroke-miterlimit="10" stroke-dasharray="" stroke-dashoffset="0" font-family="&quot;ヒラギノ角ゴ Pro W3&quot;, &quot;Hiragino Kaku Gothic Pro&quot;, Osaka, &quot;メイリオ&quot;, Meiryo, &quot;ＭＳ Ｐゴシック&quot;, &quot;MS PGothic&quot;" font-weight="normal" text-anchor="start" style="mix-blend-mode: normal"><tspan x="0" dy="0">サウナ</tspan></text><g fill-rule="nonzero" stroke="none" stroke-linecap="butt" stroke-linejoin="miter"><g fill="#45b5e6" stroke-width="0"><path d="M208.75315,213.93832l-6.05509,-6.05509l0.90827,-0.90827l6.05509,6.05509z"/><path d="M207.66481,204.70311c0.3036,0.3036 0.30354,0.79598 0,1.09952l-6.13918,6.13917c-0.3036,0.3036 -0.79592,0.30347 -1.09945,-0.00006l-2.54359,-2.54359c-0.3036,-0.3036 -0.3036,-0.79579 0,-1.0994l6.13911,-6.13911c0.30374,-0.30374 0.79586,-0.30366 1.09946,-0.00006l2.54358,2.54358z"/></g><text transform="translate(209.44316,210.32878) scale(0.19587,0.20747)" font-size="40" xml:space="preserve" fill="#585858" fill-rule="nonzero" stroke="none" stroke-width="1" stroke-linecap="butt" stroke-linejoin="miter" stroke-miterlimit="10" stroke-dasharray="" stroke-dashoffset="0" font-family="Sans Serif" font-weight="normal" text-anchor="start" style="mix-blend-mode: normal"><tspan x="0" dy="0">100,000G</tspan></text></g><g stroke-width="1"><g data-paper-data="{&quot;index&quot;:null}"><path d="M204.68463,214.69793c0.0443,-0.02953 0.11815,-0.01477 0.13292,0.04431l0.38401,1.58035c0,0 0.94524,0.69416 1.22588,1.18158c0.47263,0.81232 0.48739,1.47697 0.48739,1.47697c0,0 1.04864,0.31017 1.22589,1.15203c0.17723,0.84187 -0.47263,2.43699 -3.24931,2.98347c-2.7767,0.54647 -5.00691,-0.20678 -6.05557,-1.89052c-1.04864,-1.68374 0.60554,-3.69241 0.51693,-3.57425l-0.31017,-2.64377c-0.01477,-0.05909 0.05908,-0.10339 0.11814,-0.07385l1.78713,1.16681c0,0 0.66464,-0.25109 1.35881,-0.28063c0.41356,-0.02953 0.76802,0 1.10772,0.05909z" fill="#45b5e6" fill-rule="evenodd" stroke="#45b5e6" stroke-linecap="butt" stroke-linejoin="miter"/><path d="M209.58817,219.20268c-0.69417,0.56124 -1.7576,0.57601 -1.7576,0.57601" fill="#45b5e6" fill-rule="evenodd" stroke="#45b5e6" stroke-linecap="round" stroke-linejoin="round"/><path d="M209.39615,220.85687c-0.93048,0.07385 -1.50651,-0.20676 -1.50651,-0.20676" fill="#45b5e6" fill-rule="evenodd" stroke="#45b5e6" stroke-linecap="round" stroke-linejoin="round"/><path d="M197.72814,219.15836c0,0 1.27017,0.41356 1.78711,0.87141" fill="#45b5e6" fill-rule="evenodd" stroke="#45b5e6" stroke-linecap="round" stroke-linejoin="round"/><path d="M199.55957,220.54671c-0.6351,0.25108 -1.72804,0.08862 -1.72804,0.08862" fill="#45b5e6" fill-rule="evenodd" stroke="#45b5e6" stroke-linecap="round" stroke-linejoin="round"/><g fill="none" fill-rule="nonzero" stroke="none" stroke-linecap="butt" stroke-linejoin="miter" font-family="sans-serif" font-weight="normal" font-size="12" text-anchor="start"/><g fill="none" fill-rule="nonzero" stroke="none" stroke-linecap="butt" stroke-linejoin="miter" font-family="sans-serif" font-weight="normal" font-size="12" text-anchor="start"/></g><text transform="translate(209.44316,222.38156) scale(0.19588,0.20747)" font-size="40" xml:space="preserve" fill="#585858" fill-rule="nonzero" stroke="none" stroke-width="1" stroke-linecap="butt" stroke-linejoin="miter" stroke-miterlimit="10" stroke-dasharray="" stroke-dashoffset="0" font-family="Sans Serif" font-weight="normal" text-anchor="start" style="mix-blend-mode: normal"><tspan x="0" dy="0">460G</tspan></text></g><g fill-rule="nonzero" stroke="none" stroke-linecap="butt"><path d="M248.03087,215.93531c0.41438,-0.94222 1.30869,-1.59712 2.34778,-1.59712c1.4325,0 2.5951,1.24099 2.5951,2.77006c0,3.0114 -4.94287,7.00154 -4.94287,7.00154c0,0 -4.94286,-3.89088 -4.94286,-7.00154c0,-1.52908 1.1626,-2.77006 2.5951,-2.77006c1.03907,0 1.9334,0.65487 2.34776,1.59712z" fill="#45b5e6" stroke-width="0" stroke-linejoin="round"/><text transform="translate(253.23743,222.41856) scale(0.19589,0.20748)" font-size="40" xml:space="preserve" fill="#585858" fill-rule="nonzero" stroke="none" stroke-width="1" stroke-linecap="butt" stroke-linejoin="miter" stroke-miterlimit="10" stroke-dasharray="" stroke-dashoffset="0" font-family="Sans Serif" font-weight="normal" text-anchor="start" style="mix-blend-mode: normal"><tspan x="0" dy="0">12%</tspan></text></g><g fill-rule="nonzero" stroke="none" stroke-linecap="butt" stroke-linejoin="miter"><g fill="#45b5e6" stroke-width="0"><path d="M241.85852,206.60629l5.64578,-1.34827l3.23916,3.23917l-1.34825,5.64577l-3.23077,-3.23077l-0.02081,-1.06159h-1.04078z"/><path d="M254.06963,202.84012l-4.99544,4.99545l-0.90828,-0.90827l4.99544,-4.99545z"/></g><text transform="translate(252.97427,210.4311) scale(0.19589,0.20748)" font-size="40" xml:space="preserve" fill="#585858" fill-rule="nonzero" stroke="none" stroke-width="1" stroke-linecap="butt" stroke-linejoin="miter" stroke-miterlimit="10" stroke-dasharray="" stroke-dashoffset="0" font-family="Sans Serif" font-weight="normal" text-anchor="start" style="mix-blend-mode: normal"><tspan x="0" dy="0">700G</tspan></text></g><g fill-rule="nonzero" stroke-linecap="butt" stroke-linejoin="miter"><path d="M194.8904,186.32394v-60.49176h90.21921v60.49176z" fill="#e47e1d" stroke="#666666" stroke-width="2"/><path d="M195.90987,185.40644v-3.6523h88.18031v3.6523z" fill="#c0c0c0" stroke="none" stroke-width="0"/><path d="M195.90988,163.43348v-7.484h88.18031v7.484z" fill="#bfa85c" stroke="none" stroke-width="0"/><path d="M284.09015,151.51978v4.57333h-88.18031v-4.57333z" fill="#9e8d54" stroke="none" stroke-width="0"/><path d="M195.90988,178.43347v-7.484h88.18031v7.484z" fill="#bfa85c" stroke="none" stroke-width="0"/><path d="M284.09015,163.37692v7.71619h-88.18031v-7.71619z" fill="#9e8d54" stroke="none" stroke-width="0"/><g><path d="M235.63399,160.58235c0.40517,-0.13385 -0.75015,-0.53349 -0.95905,-0.96074c-0.30397,-0.62169 -0.44881,-2.3079 -0.13975,-2.93999c0.83593,-1.70969 7.62886,-3.0209 9.06503,-1.90192c1.38697,1.08065 0.34645,3.93197 0.67139,4.25334c4.00374,3.95972 -2.19896,12.49527 -5.53962,7.94029c-0.45791,0.67557 -1.16602,1.10895 -1.96073,1.10895c-1.38071,0 -2.5,-1.30813 -2.5,-2.92178c0,-0.0147 0.00009,-0.02938 0.00028,-0.04402c-0.76415,-1.79632 -0.7472,-3.8372 1.36246,-4.53414z" fill="#000000" stroke="none" stroke-width="0.5"/><path d="M233.87019,167.73038v-13.27792h11.82739v13.27792z" fill="url(#color-1)" stroke="#754c26" stroke-width="0.5"/><path d="M232.89016,182.34792v-17.09219h14.21955v17.09219z" fill="#754c26" stroke="none" stroke-width="0"/></g></g><path d="M286.08835,126.38078v59.3949c0,0.9386 -0.76314,1.70207 -1.7024,1.70207h-88.77223c-0.93827,0 -1.70207,-0.76347 -1.70207,-1.70207v-59.39522c0,-0.9386 0.7638,-1.70208 1.70207,-1.70208h88.77223c0.93926,0 1.7024,0.7638 1.7024,1.7024z" fill="none" fill-rule="nonzero" stroke="#666666" stroke-width="2" stroke-linecap="butt" stroke-linejoin="miter"/><g fill-rule="nonzero" stroke="none" stroke-linecap="butt" stroke-linejoin="miter"><text transform="translate(252.9769,234.29901) scale(0.19588,0.20747)" font-size="40" xml:space="preserve" fill="#585858" fill-rule="nonzero" stroke="none" stroke-width="1" stroke-linecap="butt" stroke-linejoin="miter" stroke-miterlimit="10" stroke-dasharray="" stroke-dashoffset="0" font-family="Sans Serif" font-weight="normal" text-anchor="start" style="mix-blend-mode: normal"><tspan x="0" dy="0">-5</tspan></text><path d="M244.4761,236.41881l1.7486,-4.14478l-2.20732,-0.69125l5.87862,-5.12252l-1.71443,4.10799l2.18486,0.71764z" fill="#e6c245" stroke-width="0"/></g><g fill-rule="nonzero" stroke="none" stroke-linecap="butt" stroke-linejoin="miter"><text transform="translate(209.44316,234.20486) scale(0.19588,0.20747)" font-size="40" xml:space="preserve" fill="#585858" fill-rule="nonzero" stroke="none" stroke-width="1" stroke-linecap="butt" stroke-linejoin="miter" stroke-miterlimit="10" stroke-dasharray="" stroke-dashoffset="0" font-family="Sans Serif" font-weight="normal" text-anchor="start" style="mix-blend-mode: normal"><tspan x="0" dy="0">-8</tspan></text><path d="M200.35963,232.99861c0,-1.82173 3.29853,-6.42346 3.29853,-6.42346c0,0 3.29853,4.60173 3.29853,6.42346c0,1.82173 -1.4768,3.29853 -3.29853,3.29853c-1.82173,0 -3.29853,-1.4768 -3.29853,-3.29853z" fill="#0079cd" stroke-width="NaN"/></g></g></g></svg>