<svg version="1.1" xmlns="http://www.w3.org/2000/svg" xmlns:xlink="http://www.w3.org/1999/xlink" width="21.98073" height="26.65538" viewBox="0,0,21.98073,26.65538"><g transform="translate(-249.68764,-169.21323)"><g data-paper-data="{&quot;isPaintingLayer&quot;:true}" fill-rule="nonzero" stroke-miterlimit="10" stroke-dasharray="" stroke-dashoffset="0" style="mix-blend-mode: normal"><path d="M263.0173,194.59473l-11.64407,0.02125c0,0 0.91891,-6.32888 0.85234,-9.28925c-0.0603,-2.68181 -1.28793,-6.28575 -1.28793,-6.28575" data-paper-data="{&quot;index&quot;:null}" fill="none" stroke="#b36225" stroke-width="2.5" stroke-linecap="round" stroke-linejoin="miter"/><path d="M258.34259,192.48053c2.86336,0 5.18458,0.24735 5.18458,0.55246c0,0.30511 -2.32122,0.55246 -5.18458,0.55246c-2.86336,0 -5.18458,-0.24735 -5.18458,-0.55246c0,-0.30511 2.32122,-0.55246 5.18458,-0.55246z" data-paper-data="{&quot;index&quot;:null}" fill="#630000" stroke="#630000" stroke-width="2" stroke-linecap="butt" stroke-linejoin="miter"/><path d="M262.66418,190.4823c-0.06349,-0.31109 -0.06742,-0.77579 0.39471,-0.97516c0.66661,-0.28821 1.60735,0.25437 1.86641,0.41764c0.00083,0.08584 0.61179,1.69649 0.64127,1.84092c0.09965,0.48833 -0.0269,0.53432 -0.07592,0.55267c-0.46268,0.16672 -2.00616,-0.91024 -2.74811,-1.56866c-0.01663,-0.04056 -0.05062,-0.13145 -0.07836,-0.26741v0z" fill="#ffc93e" stroke="#603813" stroke-width="0.5" stroke-linecap="butt" stroke-linejoin="miter"/><path d="M261.20963,193.21074c-0.42223,-0.30451 -0.67896,-1.31086 -0.7672,-1.74323c-0.03744,-0.18346 -0.05297,-0.3074 -0.05328,-0.31127l-0.0013,-0.00952c0,0 -0.00907,-0.03894 -0.012,-0.05331c-0.16616,-0.81423 0.52582,-1.24986 0.64418,-1.31828c0.43511,-0.08329 1.22727,-0.03102 1.46957,0.24232c0.02451,0.02743 0.04946,0.0633 0.05974,0.11365c0.00902,0.04418 0.00679,0.10039 -0.01753,0.17262c-0.01135,0.03318 -0.17093,0.82443 -0.31768,1.43613l-0.08091,0.55448c-0.04735,0.47972 -0.17463,0.97608 -0.41343,1.02481c-0.18866,0.03881 -0.35551,0.00324 -0.51015,-0.10841v0z" fill="#ffc93e" stroke="#603813" stroke-width="0.5" stroke-linecap="butt" stroke-linejoin="miter"/><path d="M268.82855,187.1593l-0.24036,-0.65504c-0.26464,-0.70882 -0.59605,-1.37253 -0.88847,-1.95689c-0.3757,-0.75251 -0.68432,-1.51789 -0.74332,-2.03234c-0.0213,-0.18531 0.03101,-0.35015 0.11924,-0.43147c0.01116,-0.02398 0.09118,-0.05187 0.14471,-0.05398c0.64603,-0.0316 2.98275,1.87773 3.49585,2.77658c0.75174,1.31646 0.85985,3.00658 0.51381,3.79163c-0.14176,0.32073 -0.37412,0.52619 -0.67238,0.59295c-0.76241,0.1705 -1.14629,-0.42834 -1.72908,-2.03145v0z" fill="#ffc93e" stroke="#603813" stroke-width="0.5" stroke-linecap="butt" stroke-linejoin="miter"/><path d="M257.37054,176.01227c0.80932,-0.68045 -0.51022,-2.3513 -1.78681,-3.96756c-0.69782,-0.88375 -1.92327,-2.3668 -1.66716,-2.58148c0.49539,-0.41552 3.79711,2.18162 5.13413,3.22713l1.3552,1.02812c0,0 0.98291,0.80396 1.7143,1.31729c0.01285,0.00887 0.5636,-0.19551 0.88988,-0.60222c0.26577,-0.33258 0.1624,-0.62292 0.13602,-1.27254c-0.02429,-0.59681 -0.13599,-1.66301 0.17294,-1.73156c0.46554,-0.10241 1.16536,1.7598 1.43048,2.44844l0.14392,0.36793c0.3299,0.81608 1.66842,3.19904 1.72557,3.3c0.01656,0.02402 0.042,0.05444 0.042,0.05444l0.00961,0.01238l0.01171,0.00958c1.58317,1.30908 2.91046,3.01724 3.27371,4.79723c0.7692,3.76928 -1.99342,7.09689 -6.41602,7.99942c-0.82028,0.16739 -1.64601,0.21617 -2.45417,0.14574l-0.04339,-0.00342c0,0 -1.21675,0.14354 -2.33657,2.46737c-0.22458,0.46642 -0.12042,0.83727 -0.57672,0.80971c-0.15214,-0.00912 -0.2798,-0.09351 -0.40557,-0.26838c-0.30059,-0.41691 -0.36985,-1.53588 -0.25882,-2.28255l0.0175,-0.11731l-0.10609,-0.05364c-0.02603,-0.01328 -2.87712,-1.31533 -3.65672,-3.85582c-0.67955,-2.21447 0.19916,-3.73358 0.52842,-4.53708l0.1796,-0.50861c0.17292,-0.90564 -0.71058,-1.93579 -1.49027,-2.84472c-0.46549,-0.54267 -1.19753,-1.32381 -1.11621,-1.55907c0.09031,-0.2607 0.63324,-0.11363 1.17888,0.02204c0.4425,0.11039 0.88597,0.30343 1.11866,0.06895c0.24203,-0.24363 -0.0373,-0.67448 -0.42411,-1.27088c-0.36364,-0.56 -1.01318,-1.42932 -0.92012,-1.86183c0.02565,-0.11897 0.09411,-0.21282 0.20926,-0.28687c0.42594,-0.27344 1.24608,0.37064 1.90563,0.87072c0.80468,0.61068 1.71712,1.30254 2.48135,0.65903v0z" fill="#ffc93e" stroke="#603813" stroke-width="0.5" stroke-linecap="round" stroke-linejoin="round"/><g stroke="none" stroke-width="0.5" stroke-linecap="butt" stroke-linejoin="miter"><path d="M259.94854,184.74918v0c-0.13881,-0.68022 0.29999,-1.34444 0.98033,-1.48359c0.68009,-0.13879 1.34411,0.30069 1.48292,0.98091c0.13872,0.67978 -0.30002,1.34353 -0.98024,1.48234c-0.68025,0.13882 -1.34429,-0.29987 -1.48301,-0.97966z" fill="#ffffff"/><path d="M261.16238,183.56385c0.23908,-0.04879 0.47562,0.0041 0.66449,0.12906c0.18897,0.1248 0.33028,0.32169 0.37907,0.56078c0.04879,0.2391 -0.00406,0.47564 -0.12903,0.66448c-0.1248,0.18899 -0.32171,0.33031 -0.56079,0.3791c-0.2391,0.04879 -0.47563,-0.00407 -0.66448,-0.12906c-0.18899,-0.12478 -0.3303,-0.32168 -0.37909,-0.56078c-0.04879,-0.2391 0.00407,-0.47561 0.12905,-0.66448c0.12478,-0.18897 0.32168,-0.33031 0.56078,-0.3791z" fill="#603813"/></g><g stroke="none" stroke-width="0.5" stroke-linecap="butt" stroke-linejoin="miter"><path d="M265.88163,183.53841v0c-0.13881,-0.68022 0.29998,-1.34444 0.98047,-1.48362c0.68009,-0.13879 1.34413,0.30069 1.48294,0.98091c0.13872,0.67978 -0.30048,1.34362 -0.98027,1.48234c-0.68054,0.13888 -1.34442,-0.29984 -1.48314,-0.97963z" fill="#ffffff"/><path d="M266.40549,183.3967v0c-0.09765,-0.4785 0.21088,-0.94584 0.68968,-1.04354c0.47848,-0.09764 0.94594,0.2115 1.04356,0.68984c0.09774,0.47896 -0.21141,0.94562 -0.68988,1.04326c-0.4788,0.09771 -0.94568,-0.21092 -1.04336,-0.68956z" fill="#603813"/></g><path d="M259.57937,192.92481c-0.23908,0.19047 -0.54417,0.243 -0.88342,0.15219c-0.82946,-0.22235 -2.07801,-1.36626 -2.63254,-2.77674c-0.37872,-0.96322 -0.40126,-3.98077 0.02797,-4.46425c0.03551,-0.03988 0.10714,-0.08518 0.1332,-0.0784c0.11851,-0.01834 0.27924,0.04451 0.4103,0.17729c0.36403,0.36829 0.76727,1.08867 1.11727,1.85316c0.27348,0.59473 0.58172,1.26809 0.96879,1.91848l0.35829,0.59766c0.88451,1.45883 1.11112,2.13426 0.50015,2.62061v0z" fill="#ffc93e" stroke="#603813" stroke-width="0.5" stroke-linecap="butt" stroke-linejoin="miter"/><path d="M266.08286,187.53498c0,0 -1.12091,0.22967 -2.04325,-0.28293" fill="none" stroke="#603813" stroke-width="0.5" stroke-linecap="round" stroke-linejoin="round"/></g></g></svg>