<svg version="1.1" xmlns="http://www.w3.org/2000/svg" xmlns:xlink="http://www.w3.org/1999/xlink" width="23.25269" height="26.31763" viewBox="0,0,23.25269,26.31763"><g transform="translate(-213.96239,-168.76598)"><g data-paper-data="{&quot;isPaintingLayer&quot;:true}" stroke-miterlimit="10" stroke-dasharray="" stroke-dashoffset="0" style="mix-blend-mode: normal"><g data-paper-data="{&quot;index&quot;:null}" fill-rule="evenodd" stroke-width="0.25"><path d="M231.0931,183.32724c0.04434,-0.19706 1.44952,-0.6524 1.80571,-1.2285c0.24023,-0.41665 0.50184,-0.94569 0.49319,-1.58435c0.00092,-1.44512 -0.96293,-2.75182 -0.15922,-3.03389c0.81676,-0.29671 2.72154,1.42873 1.71388,3.73719c-0.34354,0.79771 -0.8398,1.35402 -1.25928,1.7948c-0.10447,0.11711 -1.10807,1.03587 -1.91925,0.94321c-0.8112,-0.09266 -0.72094,-0.4591 -0.67502,-0.62845z" fill="#ffab19" stroke="#001026" stroke-linecap="round" stroke-linejoin="round"/><path d="M233.18371,177.59446c0.34903,-0.21445 1.0945,0.18766 1.47631,0.79114c0.3818,0.60348 0.43637,1.0728 0.45692,1.43289c-0.07637,-0.12069 -0.34619,-0.46657 -0.75853,-0.38746c-0.52314,0.08542 -0.87458,0.74465 -0.87458,0.74465c0,0 -0.15146,-0.9501 -0.33779,-1.53695c-0.12777,-0.53462 -0.28207,-0.80369 0.03768,-1.04426z" fill="#ffffff" stroke="none" stroke-linecap="butt" stroke-linejoin="miter"/></g><path d="M228.23651,183.01208c0.34519,-0.21794 1.0241,-0.31876 1.27302,0.46401c0.30195,0.91096 -0.71417,1.46663 -1.13627,1.71639c-0.4221,0.24976 -0.66034,0.36338 -1.38209,0.97738c-0.29083,0.24047 -0.60109,0.57907 -0.76373,0.76649c-0.05569,0.0831 -0.09324,0.17372 -0.09457,0.27935c0.00489,0.19314 0.00403,0.55383 -0.39244,0.79298c-0.98609,0.48318 -2.79764,-2.37029 -2.09137,-3.20308c0.72131,-0.86904 1.35829,0.05337 1.66552,0.54178c0.05746,0.0663 0.16311,0.06762 0.21128,0.00264l0.04818,-0.06498c1.04657,-1.24389 2.30978,-2.03694 2.66249,-2.273z" data-paper-data="{&quot;index&quot;:null}" fill="#ffab19" fill-rule="evenodd" stroke="#001026" stroke-width="0.25" stroke-linecap="round" stroke-linejoin="round"/><path d="M227.27926,180.58216c0.33351,-0.29427 1.00054,-0.15694 1.02015,0.39237c0,0.51008 -0.41198,1.03977 -0.6474,1.35367c-0.23542,0.31389 -1.33404,1.47138 -2.68771,0.86321c-0.56893,-0.29428 -1.90298,-1.39291 -1.19672,-2.04031c0.70626,-0.64741 1.35367,0.15694 1.82451,0.56893c0.39237,0.35313 1.58909,-1.05939 1.68718,-1.13786z" data-paper-data="{&quot;index&quot;:null}" fill="#ffab19" fill-rule="evenodd" stroke="#001026" stroke-width="0.25" stroke-linecap="round" stroke-linejoin="round"/><g data-paper-data="{&quot;index&quot;:null}" fill-rule="evenodd" stroke-width="0.25"><path d="M228.73106,183.72111c-0.23542,-0.17657 -0.47084,-0.47084 -0.78474,-0.92206c-0.25505,-0.37274 -0.5297,-1.09863 -0.5297,-1.09863c-0.17657,-0.49045 -0.29427,-1.43213 0.35313,-1.41252c0.4316,0.01962 0.82397,-0.03924 1.49099,-0.13733c1.17709,-0.23542 1.3929,-0.39236 1.88336,0.41199c0.5297,0.94168 1.88337,1.62833 0.21581,3.25665c0,0 -0.96132,0.74549 -2.1188,1.88336c-0.78474,0.76512 -2.02069,1.86374 -2.45229,2.23649c-0.0981,0.07847 -0.21582,0.11772 -0.33352,0.13733c-1.90298,0.17657 -3.3155,-0.01961 -3.3155,-0.8632c0,-1.41252 2.80542,-0.92208 2.80542,-0.92208c0,0 0.90245,-0.76511 1.31444,-1.13786z" fill="#ffab19" stroke="#001026" stroke-linecap="round" stroke-linejoin="round"/><path d="M228.90759,183.70148c0,0 -0.60817,-0.412 -1.03977,-1.29482c0,0 -0.37275,-0.49045 0.47084,-1.02015c0.88283,-0.56893 1.21635,0.05885 1.56948,0.52969c0.39237,0.60817 0,0.90245 -0.39237,1.25558c-0.3139,0.29428 -0.60817,0.5297 -0.60817,0.5297z" fill="#ffffff" stroke="none" stroke-linecap="butt" stroke-linejoin="miter"/></g><path d="M231.86996,182.09277c0.05886,-0.09809 0.03924,-0.2158 -0.01961,-0.31389c-0.2158,-0.13732 -0.51008,-0.37275 -0.80436,-0.58855c-0.49046,-0.35313 -1.19672,-1.13787 -0.2158,-1.491c0.78474,-0.29428 1.491,0.25504 2.33459,0.86321c0.43161,0.33352 0.94169,0.72588 0.76512,1.33405c-0.19618,0.68664 -1.15749,2.64848 -2.31497,2.00108c-0.84359,-0.56893 -0.17655,-1.25558 0.25505,-1.80489z" data-paper-data="{&quot;index&quot;:null}" fill="#ffab19" fill-rule="evenodd" stroke="#001026" stroke-width="0.25" stroke-linecap="round" stroke-linejoin="round"/><g data-paper-data="{&quot;index&quot;:null}" fill-rule="evenodd" stroke-width="0.25"><path d="M227.37737,170.43947c0.45123,-0.07847 0.92207,-0.1177 1.47138,-0.07847c0.92206,0.03923 1.8049,0.37275 1.8049,0.37275l2.37382,-1.54986c0.07847,-0.03923 0.17655,0.01963 0.15694,0.0981l-0.41198,3.51168c-0.11771,-0.15695 2.07954,2.51116 0.68663,4.74765c-1.39291,2.23649 -4.35528,3.23703 -8.04353,2.51115c-3.68825,-0.72588 -4.55146,-2.84468 -4.31604,-3.96292c0.23542,-1.11824 1.62833,-1.53023 1.62833,-1.53023c0,0 0.01962,-0.88284 0.6474,-1.96184c0.37274,-0.6474 1.62832,-1.56947 1.62832,-1.56947l0.51008,-2.09916c0.01962,-0.07848 0.11772,-0.09809 0.17657,-0.05886z" fill="#ffab19" stroke="#001026" stroke-linecap="butt" stroke-linejoin="miter"/><path d="M222.78667,174.63779c1.66756,-0.37275 1.82451,0.86321 3.23703,0.9613c1.64794,0.1177 3.90405,-1.66756 5.21849,0.4316c1.31444,2.07955 -0.94168,4.9046 -5.68933,3.92368c-3.64902,-0.70626 -4.5907,-2.72696 -4.35528,-3.8452c0.23542,-1.11823 1.58909,-1.47137 1.58909,-1.47137z" fill="#ffffff" stroke="none" stroke-linecap="butt" stroke-linejoin="miter"/><path d="M228.96645,176.73695c0.05885,0.96131 -0.1177,2.21688 -1.90298,2.41306c-2.05993,0.11771 -2.80542,-1.35366 -2.98199,-1.88336c-0.03923,-0.09809 0.03924,-0.19617 0.13733,-0.17656c0.29427,0.05886 0.92206,0.1177 1.98145,0.05885c1.1771,-0.07848 2.23649,-0.39237 2.60924,-0.5297c0.07847,-0.01961 0.15695,0.03925 0.15695,0.11772z" fill="#ffffff" stroke="#001026" stroke-linecap="round" stroke-linejoin="round"/><path d="M221.51147,175.61872c0,0 -1.41252,-0.01962 -2.33458,-0.76512" fill="none" stroke="#001026" stroke-linecap="round" stroke-linejoin="round"/><path d="M221.43301,176.7762c0,0 -0.76512,0.37275 -2.00108,0.27466" fill="none" stroke="#001026" stroke-linecap="round" stroke-linejoin="round"/><path d="M227.00462,175.34406c0,0.3139 -0.82397,0.80435 -1.1771,0.76512c-0.31389,-0.01961 -0.60816,-0.56893 -0.58855,-0.84359c0.01961,-0.13733 0.45121,-0.17656 0.8632,-0.17656c0.39237,0 0.92206,0.01961 0.90245,0.25503z" fill="#001026" stroke="#001026" stroke-linecap="round" stroke-linejoin="round"/><path d="M232.55661,175.95223c0.68665,-0.60817 2.37383,-1.15749 2.37383,-1.15749" fill="none" stroke="#001026" stroke-linecap="round" stroke-linejoin="round"/><path d="M234.79311,176.75658c0,0 -1.45175,0.21581 -2.29534,-0.11771" fill="none" stroke="#001026" stroke-linecap="round" stroke-linejoin="round"/><g><path d="M225.82752,171.85199c0.54932,0.35314 0.52969,1.35368 -0.03924,2.2365c-0.58855,0.88282 -1.491,1.29481 -2.04031,0.94168c-0.54932,-0.35313 -0.5297,-1.35368 0.03923,-2.2365c0.56893,-0.88283 1.49101,-1.31443 2.04032,-0.94168z" fill="#ffffff" stroke="#001026" stroke-linecap="round" stroke-linejoin="round"/><path d="M223.86568,173.91192c0,-0.2158 0.15695,-0.39237 0.35313,-0.39237c0.19618,0 0.35313,0.17657 0.35313,0.39237c0,0.2158 -0.15695,0.39237 -0.35313,0.39237c-0.19618,0 -0.35313,-0.17657 -0.35313,-0.39237" fill="#001026" stroke="none" stroke-linecap="butt" stroke-linejoin="miter"/></g><g><path d="M228.65256,173.34298c0.58855,-0.86321 1.51062,-1.33405 2.11879,-0.88283c0.60816,0.4316 0.56893,1.54985 -0.03924,2.41306c-0.58855,0.86322 -1.45176,1.13787 -2.09916,0.76512c-0.5297,-0.37274 -0.56894,-1.43213 0.01961,-2.29534z" fill="#ffffff" stroke="#001026" stroke-linecap="round" stroke-linejoin="round"/><path d="M228.77027,174.48085c0,-0.2158 0.15695,-0.37276 0.35313,-0.39237c0.19618,0 0.35313,0.17657 0.35313,0.39237c0,0.2158 -0.15695,0.39237 -0.35313,0.39237c-0.19618,0 -0.35313,-0.17657 -0.35313,-0.39237" fill="#001026" stroke="none" stroke-linecap="butt" stroke-linejoin="miter"/></g></g><path d="M229.12345,195.03315v-8.45036h7.09163l-0.0167,-11.02478l-0.00047,19.40733" fill="none" fill-rule="nonzero" stroke="#a1724b" stroke-width="2" stroke-linecap="butt" stroke-linejoin="round"/><path d="M228.88242,184.66891h5.84942" fill="none" fill-rule="nonzero" stroke="#5e5e5e" stroke-width="2" stroke-linecap="round" stroke-linejoin="miter"/><path d="M224.18348,180.23172l-4.28862,13.85189h-4.93247v-13.90454h11.42856" fill="none" fill-rule="nonzero" stroke="#ab7f5c" stroke-width="2" stroke-linecap="butt" stroke-linejoin="round"/></g></g></svg>