<svg version="1.1" xmlns="http://www.w3.org/2000/svg" xmlns:xlink="http://www.w3.org/1999/xlink" width="56" height="38" viewBox="0,0,56,38"><g transform="translate(-212,-161)"><g data-paper-data="{&quot;isPaintingLayer&quot;:true}" stroke-miterlimit="10" stroke-dasharray="" stroke-dashoffset="0" style="mix-blend-mode: normal"><path d="M213,198v-36h54v36z" fill="#d1b1c3" fill-rule="nonzero" stroke="#666666" stroke-width="2" stroke-linecap="butt" stroke-linejoin="round"/><path d="M214,197.03315v-2h52v2z" fill="#cccccc" fill-rule="nonzero" stroke="none" stroke-width="0" stroke-linecap="butt" stroke-linejoin="miter"/><g fill-rule="evenodd" stroke-width="0.25"><path d="M229.14578,169.28458c0.06441,-0.04294 0.17176,-0.02147 0.19323,0.06441l0.55823,2.29734c0,0 1.37411,1.00911 1.78205,1.71764c0.68706,1.18088 0.70853,2.14705 0.70853,2.14705c0,0 1.5244,0.45088 1.78205,1.6747c0.25765,1.22382 -0.68706,3.54263 -4.7235,4.33704c-4.03645,0.79441 -7.27849,-0.30059 -8.80289,-2.74822c-1.5244,-2.44763 0.88029,-5.36762 0.75147,-5.19585l-0.45088,-3.84321c-0.02147,-0.08588 0.08588,-0.15029 0.17176,-0.10735l2.59793,1.69617c0,0 0.96617,-0.365 1.97528,-0.40794c0.60117,-0.04294 1.11646,0 1.61029,0.08588z" fill="#ffab19" stroke="#001026" stroke-linecap="butt" stroke-linejoin="miter"/><path d="M232.32341,175.5969c0,0 1.48146,0.38647 1.73911,1.61029c0.25765,1.22382 -0.77294,3.43528 -4.76644,4.20821c-5.19585,1.07352 -7.66496,-2.01822 -6.22644,-4.29409c1.43852,-2.29734 3.90763,-0.34353 5.71115,-0.47235c1.54587,-0.10735 1.71764,-1.45999 3.54263,-1.05205z" fill="#ffffff" stroke="none" stroke-linecap="butt" stroke-linejoin="miter"/><path d="M225.56021,177.89424c0,-0.08588 0.08588,-0.15029 0.17176,-0.12882c0.40794,0.15029 1.56734,0.49382 2.85557,0.5797c1.15941,0.06441 1.84646,0 2.16852,-0.06441c0.10735,-0.02147 0.19323,0.08588 0.15029,0.19323c-0.19323,0.5797 -1.00911,2.18999 -3.26351,2.06117c-1.95381,-0.2147 -2.14705,-1.58881 -2.08264,-2.64087z" fill="#ffffff" stroke="#001026" stroke-linecap="round" stroke-linejoin="round"/><path d="M236.27398,175.83308c-1.00911,0.81588 -2.55499,0.83735 -2.55499,0.83735" fill="none" stroke="#001026" stroke-linecap="round" stroke-linejoin="round"/><path d="M235.99486,178.23777c-1.35264,0.10735 -2.18999,-0.30059 -2.18999,-0.30059" fill="none" stroke="#001026" stroke-linecap="round" stroke-linejoin="round"/><path d="M228.6949,176.09072c0.45088,0 0.92323,0.04294 0.9447,0.19323c0.02147,0.30059 -0.30059,0.90176 -0.64411,0.92323c-0.38647,0.04294 -1.28823,-0.49382 -1.28823,-0.83735c-0.02147,-0.25765 0.55823,-0.27912 0.98764,-0.27912z" fill="#001026" stroke="#001026" stroke-linecap="round" stroke-linejoin="round"/><path d="M219.03319,175.76867c0,0 1.84646,0.60117 2.59793,1.26676" fill="none" stroke="#001026" stroke-linecap="round" stroke-linejoin="round"/><path d="M221.69553,177.78689c-0.92323,0.365 -2.51205,0.12882 -2.51205,0.12882" fill="none" stroke="#001026" stroke-linecap="round" stroke-linejoin="round"/><g><path d="M231.22842,173.57868c0.62264,0.96617 0.64411,2.06117 0.04294,2.44763c-0.60117,0.38647 -1.58881,-0.06441 -2.23293,-1.03058c-0.62264,-0.96617 -0.64411,-2.06117 -0.04294,-2.44763c0.60117,-0.40794 1.61029,0.06441 2.23293,1.03058z" fill="#ffffff" stroke="#001026" stroke-linecap="round" stroke-linejoin="round"/><path d="M231.14254,174.80249c0,0.23618 -0.17176,0.42941 -0.38647,0.42941c-0.2147,0 -0.38647,-0.19323 -0.38647,-0.42941c0,-0.23618 0.17176,-0.42941 0.38647,-0.42941c0.2147,0 0.38647,0.19323 0.38647,0.42941" fill="#001026" stroke="none" stroke-linecap="butt" stroke-linejoin="miter"/></g><g><path d="M225.90374,174.17985c0.64411,0.9447 0.60117,2.10411 0.02147,2.51205c-0.70853,0.40794 -1.65323,0.10735 -2.29734,-0.83735c-0.66558,-0.9447 -0.70853,-2.16852 -0.04294,-2.64087c0.66558,-0.49382 1.6747,0.02147 2.31881,0.96617z" fill="#ffffff" stroke="#001026" stroke-linecap="round" stroke-linejoin="round"/><path d="M225.77492,175.42514c0,0.23618 -0.17176,0.42941 -0.38647,0.42941c-0.2147,0 -0.38647,-0.19323 -0.38647,-0.42941c0,-0.23618 0.17176,-0.42941 0.38647,-0.42941c0.2147,0.02147 0.38647,0.19323 0.38647,0.42941" fill="#001026" stroke="none" stroke-linecap="butt" stroke-linejoin="miter"/></g></g><path d="M238,182.77849v12.25466h-24v-12.25466z" fill="#b9a15d" fill-rule="nonzero" stroke="none" stroke-width="0" stroke-linecap="butt" stroke-linejoin="miter"/><path d="M214,182.77849v-2h24.55901v2z" fill="#9d884f" fill-rule="nonzero" stroke="none" stroke-width="0" stroke-linecap="butt" stroke-linejoin="miter"/><g fill-rule="nonzero" stroke="#4d4d4d" stroke-width="1" stroke-linecap="butt" stroke-linejoin="miter"><path d="M218.55383,163.39655v2.51355c0.07595,0.95027 -0.3136,1.86874 -1.00518,2.37124c-0.69159,0.5025 -1.56618,0.5025 -2.25822,0c-0.69159,-0.5025 -1.08114,-1.42097 -1.00518,-2.37124v-2.51355z" fill="#ffffff"/><path d="M227.12855,163.39655v2.51355c0.07595,0.95027 -0.3136,1.86874 -1.00518,2.37124c-0.69159,0.5025 -1.56618,0.5025 -2.25822,0c-0.69159,-0.5025 -1.08114,-1.42097 -1.00518,-2.37124v-2.51355z" fill="#ffffff"/><path d="M235.70326,163.39655v2.51355c0.07595,0.95027 -0.3136,1.86874 -1.00518,2.37124c-0.69159,0.5025 -1.56618,0.5025 -2.25822,0c-0.69159,-0.5025 -1.08114,-1.42097 -1.00518,-2.37124v-2.51355z" fill="#ffffff"/><path d="M244.27797,163.39655v2.51355c0.07595,0.95027 -0.3136,1.86874 -1.00518,2.37124c-0.69159,0.5025 -1.56618,0.5025 -2.25822,0c-0.69159,-0.5025 -1.08114,-1.42097 -1.00518,-2.37124v-2.51355z" fill="#ffffff"/><path d="M252.85268,163.39655v2.51355c0.07595,0.95027 -0.3136,1.86874 -1.00518,2.37124c-0.69159,0.5025 -1.56618,0.5025 -2.25822,0c-0.69159,-0.5025 -1.08114,-1.42097 -1.00518,-2.37124v-2.51355z" fill="#ffffff"/><path d="M261.4274,163.39655v2.51355c0.07595,0.95027 -0.3136,1.86874 -1.00518,2.37124c-0.69159,0.5025 -1.56618,0.5025 -2.25822,0c-0.69159,-0.5025 -1.08114,-1.42097 -1.00518,-2.37124v-2.51355z" fill="#ffffff"/><path d="M222.84119,163.39655v2.51355c0.07595,0.95027 -0.31359,1.86874 -1.00518,2.37124c-0.69159,0.5025 -1.56618,0.5025 -2.25822,0c-0.69159,-0.5025 -1.08114,-1.42097 -1.00518,-2.37124v-2.51355z" fill="#26a926"/><path d="M231.4159,163.39655v2.51355c0.07595,0.95027 -0.31359,1.86874 -1.00518,2.37124c-0.69159,0.5025 -1.56618,0.5025 -2.25822,0c-0.69159,-0.5025 -1.08114,-1.42097 -1.00518,-2.37124v-2.51355z" fill="#26a926"/><path d="M239.99062,163.39655v2.51355c0.07595,0.95027 -0.31359,1.86874 -1.00518,2.37124c-0.69159,0.5025 -1.56618,0.5025 -2.25822,0c-0.69159,-0.5025 -1.08114,-1.42097 -1.00518,-2.37124v-2.51355z" fill="#26a926"/><path d="M248.56533,163.39655v2.51355c0.07595,0.95027 -0.31359,1.86874 -1.00518,2.37124c-0.69159,0.5025 -1.56618,0.5025 -2.25822,0c-0.69159,-0.5025 -1.08114,-1.42097 -1.00518,-2.37124v-2.51355z" fill="#26a926"/><path d="M257.14004,163.39655v2.51355c0.07595,0.95027 -0.31359,1.86874 -1.00518,2.37124c-0.69159,0.5025 -1.56618,0.5025 -2.25822,0c-0.69159,-0.5025 -1.08114,-1.42097 -1.00518,-2.37124v-2.51355z" fill="#26a926"/><path d="M265.71475,163.39655v2.51355c0.07595,0.95027 -0.31359,1.86874 -1.00518,2.37124c-0.69159,0.5025 -1.56618,0.5025 -2.25822,0c-0.69159,-0.5025 -1.08114,-1.42097 -1.00518,-2.37124v-2.51355z" fill="#26a926"/></g><path d="M266,172.62375v22.4094h-8.08371v-22.4094z" fill="#7e5733" fill-rule="nonzero" stroke="none" stroke-width="0" stroke-linecap="butt" stroke-linejoin="miter"/><path d="M246.49312,172.62375v22.4094h-8.08371v-22.4094z" fill="#7e5733" fill-rule="nonzero" stroke="none" stroke-width="0" stroke-linecap="butt" stroke-linejoin="miter"/></g></g></svg>