<svg version="1.1" xmlns="http://www.w3.org/2000/svg" xmlns:xlink="http://www.w3.org/1999/xlink" width="56" height="38" viewBox="0,0,56,38"><defs><linearGradient x1="240.00006" y1="173.07965" x2="240.00006" y2="178.78509" gradientUnits="userSpaceOnUse" id="color-1"><stop offset="0" stop-color="#93f2ff"/><stop offset="1" stop-color="#d0ffcb"/></linearGradient><linearGradient x1="240.00006" y1="178.78509" x2="240.00006" y2="182.29131" gradientUnits="userSpaceOnUse" id="color-2"><stop offset="0" stop-color="#636666"/><stop offset="1" stop-color="#a8adad"/></linearGradient></defs><g transform="translate(-212,-161)"><g stroke-miterlimit="10"><path d="M213,198v-36h54v36z" fill="#bfb4a3" stroke="#666666" stroke-width="2" stroke-linecap="butt" stroke-linejoin="round"/><path d="M214,197.03315v-2h52v2z" fill="#cccccc" stroke="none" stroke-width="0" stroke-linecap="butt" stroke-linejoin="miter"/><path d="M226.41204,176.87961c1.16646,1.69482 1.69681,3.6532 0.28354,5.37528c-0.27551,0.33571 -1.14746,1.10778 -1.99855,1.58577c0.13903,2.59602 -1.69895,5.4434 -3.34148,5.0112c-0.23442,0.06669 -0.51397,0.08189 -0.84316,0.03596c-0.72909,-0.10173 -1.90672,-1.72806 -2.73014,-3.30262c-0.21067,-0.12536 -0.41023,-0.27233 -0.59198,-0.42711c-1.70829,-1.45483 -1.44716,-4.10749 -0.0276,-5.66727c0.06461,-0.07099 0.16423,-0.16015 0.28855,-0.2563c-0.34043,-1.62936 -0.1583,-3.7691 -0.03289,-4.97573c0.0921,-0.88618 0.62399,-1.67988 1.29708,-2.22066c-0.00007,-0.0066 -0.0001,-0.01322 -0.0001,-0.01984c0,-1.07944 0.87506,-1.9545 1.9545,-1.9545c0.44084,0 0.84759,0.14595 1.17457,0.39217c2.1655,0.56823 4.28607,3.58472 4.20796,5.97186c0.17206,0.19692 0.30267,0.36895 0.3597,0.45181z" fill="#208029" stroke="none" stroke-width="0.5" stroke-linecap="butt" stroke-linejoin="miter"/><path d="M219.00829,194.03315l-0.83279,-6.40169h6.08816l-0.83279,6.40169z" fill="#997e4d" stroke="#997e4d" stroke-width="2" stroke-linecap="butt" stroke-linejoin="round"/><path d="M253.94766,176.4278c-0.07812,-2.38715 2.04245,-5.40363 4.20796,-5.97186c0.32698,-0.24622 0.73373,-0.39217 1.17458,-0.39217c1.07944,0 1.9545,0.87506 1.9545,1.9545c0,0.00662 -0.00003,0.01323 -0.0001,0.01984c0.67308,0.54078 1.20497,1.33449 1.29708,2.22066c0.12541,1.20663 0.30754,3.34637 -0.03289,4.97573c0.12432,0.09616 0.22395,0.18532 0.28855,0.2563c1.41956,1.55979 1.68068,4.21244 -0.0276,5.66728c-0.18174,0.15478 -0.3813,0.30174 -0.59197,0.4271c-0.82343,1.57456 -2.00106,3.20088 -2.73015,3.30262c-0.32919,0.04593 -0.60874,0.03074 -0.84316,-0.03595c-1.64254,0.4322 -3.48052,-2.41518 -3.34148,-5.0112c-0.85109,-0.47798 -1.72304,-1.25005 -1.99855,-1.58577c-1.41326,-1.72207 -0.88292,-3.68046 0.28354,-5.37528c0.05703,-0.08286 0.18765,-0.25489 0.3597,-0.45181z" fill="#208029" stroke="none" stroke-width="0.5" stroke-linecap="butt" stroke-linejoin="miter"/><path d="M256.56913,194.03315l-0.83279,-6.40169h6.08816l-0.83279,6.40169z" fill="#997e4d" stroke="#997e4d" stroke-width="2" stroke-linecap="butt" stroke-linejoin="round"/><path d="M233.70486,194.77499v-3.50622h12.59028v3.50622z" fill="#666666" stroke="#666666" stroke-width="1" stroke-linecap="butt" stroke-linejoin="miter"/><path d="M233.70486,193.69615v-11.36631h12.59028v11.36631z" fill="#c9c9c9" stroke="#666666" stroke-width="1" stroke-linecap="butt" stroke-linejoin="miter"/><path d="M246.29515,170.26998v12.05986h-12.59028v-12.05986z" fill="#b8b8b8" stroke="#666666" stroke-width="1" stroke-linecap="butt" stroke-linejoin="miter"/><path d="M245.01223,173.07965v5.70545h-10.02433v-5.70545z" fill="url(#color-1)" stroke="#666666" stroke-width="1" stroke-linecap="butt" stroke-linejoin="miter"/><path d="M233.70486,194.11998v-23.85" fill="none" stroke-opacity="0.68627" stroke="#6ca0b8" stroke-width="1.5" stroke-linecap="round" stroke-linejoin="miter"/><path d="M246.29515,194.25484v-23.85" fill="none" stroke-opacity="0.68627" stroke="#6ca0b8" stroke-width="1.5" stroke-linecap="round" stroke-linejoin="miter"/><path d="M233.70486,170.26998v-1.81822h12.59028v1.81822z" fill="#f15151" stroke="#666666" stroke-width="1" stroke-linecap="butt" stroke-linejoin="miter"/><path d="M234.9879,182.29131v-3.50622h10.02433v3.50622z" fill="url(#color-2)" stroke="#666666" stroke-width="1" stroke-linecap="butt" stroke-linejoin="miter"/></g></g></svg>