<svg version="1.1" xmlns="http://www.w3.org/2000/svg" xmlns:xlink="http://www.w3.org/1999/xlink" width="127.67523" height="36" viewBox="0,0,127.67523,36"><g transform="translate(-4.71888,-324.68573)"><g data-paper-data="{&quot;isPaintingLayer&quot;:true}" fill-rule="nonzero" stroke-miterlimit="10" stroke-dasharray="" stroke-dashoffset="0" style="mix-blend-mode: normal"><path d="M40.73565,331.97338v21.42611c0,4.01796 -3.26688,7.28624 -7.28765,7.28624h-21.44288c-4.01656,0 -7.28624,-3.26828 -7.28624,-7.28624v-21.42751c0,-4.01796 3.26969,-7.28624 7.28624,-7.28624h21.44288c4.02078,0 7.28765,3.26969 7.28765,7.28765z" fill="#808080" stroke="none" stroke-width="1" stroke-linecap="butt" stroke-linejoin="miter"/><path d="M86.56488,331.97337v21.42611c0,4.01796 -3.26688,7.28624 -7.28765,7.28624h-21.44288c-4.01656,0 -7.28624,-3.26828 -7.28624,-7.28624v-21.42751c0,-4.01796 3.26969,-7.28624 7.28624,-7.28624h21.44288c4.02078,0 7.28765,3.26969 7.28765,7.28765z" fill="#808080" stroke="none" stroke-width="1" stroke-linecap="butt" stroke-linejoin="miter"/><path d="M10.94155,334.27396h23.57143" fill="none" stroke="#ffffff" stroke-width="4" stroke-linecap="round" stroke-linejoin="miter"/><path d="M10.94155,342.68573h23.57143" fill="none" stroke="#ffffff" stroke-width="4" stroke-linecap="round" stroke-linejoin="miter"/><path d="M34.51298,351.09749h-23.57143" fill="none" stroke="#ffffff" stroke-width="4" stroke-linecap="round" stroke-linejoin="miter"/><path d="M56.77078,351.09749v-16.82353h23.57143v16.82353z" fill="none" stroke="#ffffff" stroke-width="4" stroke-linecap="butt" stroke-linejoin="round"/><path d="M61.7837,339.90465h7.41697" fill="none" stroke="#ffffff" stroke-width="4" stroke-linecap="round" stroke-linejoin="miter"/><path d="M61.7837,345.71646h3.37638" fill="none" stroke="#ffffff" stroke-width="4" stroke-linecap="round" stroke-linejoin="miter"/><path d="M132.39411,331.97337v21.42611c0,4.01796 -3.26688,7.28624 -7.28765,7.28624h-21.44288c-4.01656,0 -7.28624,-3.26828 -7.28624,-7.28624v-21.42751c0,-4.01796 3.26969,-7.28624 7.28624,-7.28624h21.44288c4.02078,0 7.28765,3.26969 7.28765,7.28765z" fill="#808080" stroke="none" stroke-width="1" stroke-linecap="butt" stroke-linejoin="miter"/><path d="M107.11407,345.63885l-2.90424,-7.27693l17.44755,-6.96335l2.90424,7.27693z" fill="#ffffff" stroke="#ffffff" stroke-width="4" stroke-linecap="butt" stroke-linejoin="round"/><path d="M115.81684,342.16556l4.71232,11.80732" fill="none" stroke="#ffffff" stroke-width="4" stroke-linecap="round" stroke-linejoin="miter"/></g></g></svg>