<svg version="1.1" xmlns="http://www.w3.org/2000/svg" xmlns:xlink="http://www.w3.org/1999/xlink" width="56" height="38" viewBox="0,0,56,38"><defs><linearGradient x1="240" y1="180.85455" x2="240" y2="195.03318" gradientUnits="userSpaceOnUse" id="color-1"><stop offset="0" stop-color="#9a8053"/><stop offset="1" stop-color="#af9260"/></linearGradient><linearGradient x1="240" y1="186.66137" x2="240" y2="189.22636" gradientUnits="userSpaceOnUse" id="color-2"><stop offset="0" stop-color="#7a5c43"/><stop offset="1" stop-color="#9e7357"/></linearGradient><linearGradient x1="240" y1="178.28955" x2="240" y2="180.85455" gradientUnits="userSpaceOnUse" id="color-3"><stop offset="0" stop-color="#7a5c43"/><stop offset="1" stop-color="#9e7357"/></linearGradient><linearGradient x1="240.20131" y1="178.56259" x2="240.20131" y2="186.66137" gradientUnits="userSpaceOnUse" id="color-4"><stop offset="0" stop-color="#636363"/><stop offset="1" stop-color="#232323"/></linearGradient><radialGradient cx="226.10627" cy="173.32769" r="8.80458" gradientUnits="userSpaceOnUse" id="color-5"><stop offset="0" stop-color="#d9d9d9" stop-opacity="0.34902"/><stop offset="1" stop-color="#d9d9d9" stop-opacity="0"/></radialGradient><radialGradient cx="244.36537" cy="170.43324" r="7.09777" gradientUnits="userSpaceOnUse" id="color-6"><stop offset="0" stop-color="#d9d9d9" stop-opacity="0.34902"/><stop offset="1" stop-color="#d9d9d9" stop-opacity="0"/></radialGradient><radialGradient cx="242.44188" cy="173.87375" r="10.64665" gradientUnits="userSpaceOnUse" id="color-7"><stop offset="0" stop-color="#d9d9d9" stop-opacity="0.34902"/><stop offset="1" stop-color="#d9d9d9" stop-opacity="0"/></radialGradient><radialGradient cx="222.68387" cy="177.33422" r="8.46566" gradientUnits="userSpaceOnUse" id="color-8"><stop offset="0" stop-color="#d9d9d9" stop-opacity="0.34902"/><stop offset="1" stop-color="#d9d9d9" stop-opacity="0"/></radialGradient><radialGradient cx="226.106" cy="183.87158" r="11.1616" gradientUnits="userSpaceOnUse" id="color-9"><stop offset="0" stop-color="#d9d9d9" stop-opacity="0.34902"/><stop offset="1" stop-color="#d9d9d9" stop-opacity="0"/></radialGradient><radialGradient cx="256.11081" cy="179.15181" r="9.8892" gradientUnits="userSpaceOnUse" id="color-10"><stop offset="0" stop-color="#d9d9d9" stop-opacity="0.34902"/><stop offset="1" stop-color="#d9d9d9" stop-opacity="0"/></radialGradient><radialGradient cx="252.03248" cy="183.47178" r="8.80458" gradientUnits="userSpaceOnUse" id="color-11"><stop offset="0" stop-color="#d9d9d9" stop-opacity="0.34902"/><stop offset="1" stop-color="#d9d9d9" stop-opacity="0"/></radialGradient><radialGradient cx="256.7145" cy="187.21066" r="7.09776" gradientUnits="userSpaceOnUse" id="color-12"><stop offset="0" stop-color="#d9d9d9" stop-opacity="0.34902"/><stop offset="1" stop-color="#d9d9d9" stop-opacity="0"/></radialGradient></defs><g transform="translate(-212,-161)"><g stroke-miterlimit="10"><path d="M213,198v-36h54v36z" fill="#b96530" stroke="#666666" stroke-width="2" stroke-linejoin="round"/><path d="M266,180.85455v14.17863h-52v-14.17863z" fill="url(#color-1)" stroke="none" stroke-width="0" stroke-linejoin="miter"/><path d="M214,189.22636v-2.56499h52v2.56499z" fill="url(#color-2)" stroke="none" stroke-width="0" stroke-linejoin="miter"/><path d="M214,180.85455v-2.565h52v2.565z" fill="url(#color-3)" stroke="none" stroke-width="0" stroke-linejoin="miter"/><path d="M214,197.03318v-2h52v2z" fill="#cccccc" stroke="none" stroke-width="0" stroke-linejoin="miter"/><path d="M244.0406,183.98466c0,0.68235 1.58592,2.82868 -4.15705,2.66816c-4.08468,-0.11417 -4.10594,-2.1159 -4.10594,-2.81426c0,-0.9407 0.51956,-1.76004 1.28737,-2.18674c-0.04565,-0.18895 -0.06984,-0.38627 -0.06984,-0.58924c0,-1.38071 1.11929,-2.5 2.5,-2.5c0.87473,0 1.64453,0.44924 2.09127,1.12959c0.17347,-0.03809 0.35369,-0.05816 0.5386,-0.05816c1.38071,0 2.5,1.11929 2.5,2.5c0,0.61756 -0.22392,1.18282 -0.595,1.61902c0.00701,0.07627 0.01059,0.15353 0.01059,0.23163z" fill="url(#color-4)" stroke="none" stroke-width="0.5" stroke-linejoin="miter"/><path d="M235.37338,195.03318v-11.61364h9.25325v11.61364z" fill="#69391b" stroke="none" stroke-width="0" stroke-linejoin="miter"/><g stroke="none" stroke-width="0" stroke-linejoin="miter"><path d="M234.91085,173.32769c0,4.86263 -3.94195,8.80458 -8.80458,8.80458c-4.86263,0 -8.80457,-3.94195 -8.80457,-8.80457c0,-4.86263 3.94195,-8.80458 8.80458,-8.80458c4.86263,0 8.80458,3.94194 8.80458,8.80458z" fill="url(#color-5)"/><path d="M251.46313,170.43324c0,3.92 -3.17777,7.09776 -7.09776,7.09776c-3.91999,0 -7.09777,-3.17777 -7.09777,-7.09776c0,-3.91999 3.17777,-7.09776 7.09777,-7.09776c3.92,0 7.09776,3.17776 7.09776,7.09776z" fill="url(#color-6)"/><path d="M253.08852,173.87375c0,5.87998 -4.76666,10.64665 -10.64664,10.64665c-5.87998,0 -10.64665,-4.76667 -10.64665,-10.64665c0,-5.87998 4.76667,-10.64665 10.64665,-10.64665c5.87998,0 10.64664,4.76667 10.64664,10.64665z" fill="url(#color-7)"/><path d="M231.14953,177.33422c0,4.67545 -3.7902,8.46565 -8.46565,8.46565c-4.67545,0 -8.46566,-3.7902 -8.46566,-8.46565c0,-4.67545 3.79021,-8.46565 8.46566,-8.46565c4.67545,0 8.46565,3.7902 8.46565,8.46565z" fill="url(#color-8)"/><path d="M237.2676,183.87158c0,6.16439 -4.99721,11.1616 -11.1616,11.1616c-6.16439,0 -11.1616,-4.99721 -11.1616,-11.1616c0,-6.16439 4.99722,-11.1616 11.1616,-11.1616c6.16439,0 11.1616,4.99721 11.1616,11.1616z" fill="url(#color-9)"/><path d="M266,179.15181c0,5.46166 -4.42754,9.8892 -9.88919,9.8892c-5.46166,0 -9.8892,-4.42754 -9.8892,-9.8892c0,-5.46166 4.42754,-9.8892 9.8892,-9.8892c5.46166,0 9.88919,4.42754 9.88919,9.8892z" fill="url(#color-10)"/><path d="M260.83706,183.47178c0,4.86263 -3.94195,8.80458 -8.80458,8.80458c-4.86263,0 -8.80458,-3.94195 -8.80458,-8.80457c0,-4.86263 3.94195,-8.80458 8.80458,-8.80458c4.86263,0 8.80458,3.94194 8.80458,8.80458z" fill="url(#color-11)"/><path d="M263.81228,187.21066c0,3.92 -3.17777,7.09776 -7.09776,7.09776c-3.91999,0 -7.09776,-3.17776 -7.09776,-7.09776c0,-3.91999 3.17777,-7.09776 7.09776,-7.09776c3.91999,0 7.09776,3.17777 7.09776,7.09776z" fill="url(#color-12)"/></g></g></g></svg>