<svg version="1.1" xmlns="http://www.w3.org/2000/svg" xmlns:xlink="http://www.w3.org/1999/xlink" width="56" height="38" viewBox="0,0,56,38"><g transform="translate(-212,-161)"><g data-paper-data="{&quot;isPaintingLayer&quot;:true}" fill-rule="nonzero" stroke-miterlimit="10" stroke-dasharray="" stroke-dashoffset="0" style="mix-blend-mode: normal"><path d="M213,198v-36h54v36z" fill="#a8dae2" stroke="#666666" stroke-width="2" stroke-linecap="butt" stroke-linejoin="round"/><path d="M231.25652,188.58405l-3.99633,-14.20757h2.90483l3.99632,14.20757z" fill="#ffffff" stroke="none" stroke-width="0" stroke-linecap="butt" stroke-linejoin="miter"/><path d="M228.17915,188.58405l-3.99632,-14.20757h1.61655l3.99632,14.20757z" fill="#ffffff" stroke="none" stroke-width="0" stroke-linecap="butt" stroke-linejoin="miter"/><path d="M217.50783,188.58405v-14.20757h17.34736v14.20757z" fill-opacity="0.70196" fill="#a3cccc" stroke="#666666" stroke-width="1.5" stroke-linecap="butt" stroke-linejoin="round"/><path d="M251.72467,195.00724v-21.7533h11.42548v21.7533z" data-paper-data="{&quot;index&quot;:null}" fill="#6b4e1d" stroke="#666666" stroke-width="1.5" stroke-linecap="butt" stroke-linejoin="round"/><path d="M240.29919,195.00724v-21.7533h11.42548v21.7533z" data-paper-data="{&quot;index&quot;:null}" fill="#6b4e1d" stroke="#666666" stroke-width="1.5" stroke-linecap="butt" stroke-linejoin="round"/><path d="M253.96535,183.31731v-7.22265h6.94412v7.22265z" data-paper-data="{&quot;index&quot;:null}" fill="#9cd0db" stroke="#666666" stroke-width="1.5" stroke-linecap="butt" stroke-linejoin="round"/><path d="M242.53987,183.31731v-7.22265h6.94412v7.22265z" data-paper-data="{&quot;index&quot;:null}" fill="#9cd0db" stroke="#666666" stroke-width="1.5" stroke-linecap="butt" stroke-linejoin="round"/><path d="M255.73641,185.96102h-1.77106" data-paper-data="{&quot;index&quot;:null}" fill="none" stroke="#666666" stroke-width="1.5" stroke-linecap="round" stroke-linejoin="miter"/><path d="M247.71293,185.96102h1.77106" data-paper-data="{&quot;index&quot;:null}" fill="none" stroke="#666666" stroke-width="1.5" stroke-linecap="round" stroke-linejoin="miter"/><path d="M214,197.03315v-2h52v2z" fill="#cccccc" stroke="none" stroke-width="0" stroke-linecap="butt" stroke-linejoin="miter"/><path d="M213,170.96053v-8.96052h54v8.96052z" fill="#ff3636" stroke="#666666" stroke-width="2" stroke-linecap="butt" stroke-linejoin="round"/><path d="M218.14787,166.48026h22.79605" fill="none" stroke="#ffffff" stroke-width="4" stroke-linecap="round" stroke-linejoin="miter"/><path d="M245.96398,166.48026h15.88815" data-paper-data="{&quot;index&quot;:null}" fill="none" stroke="#ffffff" stroke-width="4" stroke-linecap="round" stroke-linejoin="miter"/></g></g></svg>