<svg version="1.1" xmlns="http://www.w3.org/2000/svg" xmlns:xlink="http://www.w3.org/1999/xlink" width="466.80782" height="200.87535" viewBox="0,0,466.80782,200.87535"><g transform="translate(-6.59609,-152.52857)"><g stroke-miterlimit="10"><path d="M92.79164,322.28822v23.21956c0,4.35428 -3.54033,7.89613 -7.89765,7.89613h-23.23773c-4.35276,0 -7.89613,-3.54185 -7.89613,-7.89613v-23.22108c0,-4.35428 3.54337,-7.89613 7.89613,-7.89613h23.23773c4.35733,0 7.89765,3.54337 7.89765,7.89765z" fill-opacity="0.74902" fill="#bf6969" stroke="none" stroke-width="1" stroke-linecap="butt" stroke-linejoin="miter"/><path d="M14.49374,314.39057h23.23773c4.35276,0 7.89613,3.54185 7.89613,7.89613v23.22108c0,4.35428 -3.54337,7.89613 -7.89613,7.89613h-23.23773c-4.35732,0 -7.89765,-3.54185 -7.89765,-7.89613v-23.21956c0,-4.35428 3.54032,-7.89765 7.89765,-7.89765z" fill-opacity="0.74902" fill="#77a5d9" stroke="none" stroke-width="1" stroke-linecap="butt" stroke-linejoin="miter"/><path d="M336.30683,161.40851v23.21956c0,4.35428 -3.54033,7.89613 -7.89765,7.89613h-176.81936c-4.35276,0 -7.89613,-3.54185 -7.89613,-7.89613v-23.22108c0,-4.35428 3.54337,-7.89613 7.89613,-7.89613h176.81936c4.35733,0 7.89765,3.54337 7.89765,7.89765z" fill-opacity="0.74902" fill="#77a5d9" stroke="none" stroke-width="1" stroke-linecap="butt" stroke-linejoin="miter"/><path d="M336.30683,208.74956v23.21956c0,4.35428 -3.54033,7.89613 -7.89765,7.89613h-176.81936c-4.35276,0 -7.89613,-3.54185 -7.89613,-7.89613v-23.22108c0,-4.35428 3.54337,-7.89613 7.89613,-7.89613h176.81936c4.35733,0 7.89765,3.54337 7.89765,7.89765z" fill-opacity="0.74902" fill="#77a5d9" stroke="none" stroke-width="1" stroke-linecap="butt" stroke-linejoin="miter"/><path d="M336.30683,256.0906v23.21956c0,4.35428 -3.54033,7.89613 -7.89765,7.89613h-176.81936c-4.35276,0 -7.89613,-3.54185 -7.89613,-7.89613v-23.22108c0,-4.35428 3.54337,-7.89613 7.89613,-7.89613h176.81936c4.35733,0 7.89765,3.54337 7.89765,7.89765z" fill-opacity="0.74902" fill="#77a5d9" stroke="none" stroke-width="1" stroke-linecap="butt" stroke-linejoin="miter"/><path d="M473.40391,322.28822v23.21956c0,4.35428 -3.54033,7.89613 -7.89765,7.89613h-23.23773c-4.35276,0 -7.89613,-3.54185 -7.89613,-7.89613v-23.22108c0,-4.35428 3.54337,-7.89613 7.89613,-7.89613h23.23773c4.35733,0 7.89765,3.54337 7.89765,7.89765z" fill-opacity="0.74902" fill="#77a5d9" stroke="none" stroke-width="1" stroke-linecap="butt" stroke-linejoin="miter"/><path d="M426.23987,322.28822v23.21956c0,4.35428 -3.54033,7.89613 -7.89765,7.89613h-23.23773c-4.35276,0 -7.89613,-3.54185 -7.89613,-7.89613v-23.22108c0,-4.35428 3.54337,-7.89613 7.89613,-7.89613h23.23773c4.35733,0 7.89765,3.54337 7.89765,7.89765z" fill-opacity="0.74902" fill="#77a5d9" stroke="none" stroke-width="1" stroke-linecap="butt" stroke-linejoin="miter"/><text transform="translate(187.40826,228.24737) scale(0.6574,0.6574)" font-size="40" xml:space="preserve" fill="#ffffff" stroke="none" stroke-width="1" stroke-linecap="butt" stroke-linejoin="miter" font-family="Sans Serif" font-weight="normal" text-anchor="start"><tspan x="0" dy="0">続きから</tspan></text><text transform="translate(187.40826,180.90633) scale(0.6574,0.6574)" font-size="40" xml:space="preserve" fill="#ffffff" stroke="none" stroke-width="1" stroke-linecap="butt" stroke-linejoin="miter" font-family="Sans Serif" font-weight="normal" text-anchor="start"><tspan x="0" dy="0">初めから</tspan></text><text transform="translate(213.70413,275.58841) scale(0.6574,0.6574)" font-size="40" xml:space="preserve" fill="#ffffff" stroke="none" stroke-width="1" stroke-linecap="butt" stroke-linejoin="miter" font-family="Sans Serif" font-weight="normal" text-anchor="start"><tspan x="0" dy="0">設定</tspan></text><path d="M446.86877,327.40432c0,-3.87669 3.14271,-7.01938 7.0194,-7.01938c3.87669,0 7.01938,3.14269 7.01938,7.01938c0,3.87669 -3.14269,7.01939 -7.01938,7.01939v3.90194" fill="none" stroke="#ffffff" stroke-width="3.5" stroke-linecap="round" stroke-linejoin="round"/><path d="M451.3011,344.8225c0,-1.42879 1.15826,-2.58706 2.58705,-2.58706c1.42879,0 2.58706,1.15827 2.58706,2.58706c0,1.42879 -1.15827,2.58705 -2.58706,2.58705c-1.42879,0 -2.58705,-1.15826 -2.58705,-2.58705z" fill="#ffffff" stroke="none" stroke-width="0" stroke-linecap="butt" stroke-linejoin="miter"/><path d="M403.92853,332.10501h2.79557v13.72908" fill="none" stroke="#ffffff" stroke-width="5" stroke-linecap="round" stroke-linejoin="miter"/><path d="M406.7241,321.75768c1.42879,0 2.58706,1.15826 2.58706,2.58705c0,1.42879 -1.15828,2.58705 -2.58706,2.58705c-1.42879,0 -2.58704,-1.15826 -2.58704,-2.58705c0,-1.42879 1.15825,-2.58705 2.58704,-2.58705z" fill="#ffffff" stroke="none" stroke-width="0" stroke-linecap="butt" stroke-linejoin="miter"/><path d="M27.18052,326.68388v17.84629l-9.04751,0.04487c-1.90941,0 -3.46377,-1.5537 -3.46377,-3.46377v-14.42805c0,-1.91008 1.55436,-3.46378 3.46378,-3.46378h5.58306c1.91142,0 3.46445,1.55437 3.46445,3.46445z" fill="none" stroke="#ffffff" stroke-width="3.5" stroke-linecap="butt" stroke-linejoin="miter"/><path d="M37.55445,330.56278v10.5485c0,1.91008 -1.55303,3.46377 -3.46445,3.46377l-6.90949,-0.04487v-13.96806c0,-1.91008 1.55436,-3.46377 3.46378,-3.46377h3.44571c1.91142,0 3.46445,1.55436 3.46445,3.46444z" fill="none" stroke="#ffffff" stroke-width="3.5" stroke-linecap="butt" stroke-linejoin="miter"/><path d="M82.5561,324.65379c-0.15813,0.63367 -0.29389,1.49258 -0.40689,2.57826c-0.0459,0.54304 -0.02353,0.98387 0.06788,1.32326c0.15736,0.56579 0.14694,0.93913 -0.03394,1.11963c-0.24915,0.22601 -0.58816,0.33901 -1.01781,0.33901c-0.49791,0 -0.82651,-0.14771 -0.98387,-0.44392c-0.02353,-0.91097 -0.01196,-1.76564 0.03394,-2.56322c0.04435,-0.97962 0.06788,-1.49219 0.06788,-1.5377c-0.02353,0 -0.05708,-0.02276 -0.10182,-0.06865c-2.10388,0.09141 -4.0828,0.22716 -5.93714,0.40843c-0.04551,0.22716 -0.04551,0.58932 0,1.08761c0.08986,0.70271 0.13576,1.11075 0.13576,1.22337c-0.09025,0.70271 -0.13576,1.74481 -0.13576,3.12747c0.08986,0.58932 0.13576,3.11628 0.13576,7.58052v2.48184c0,0.38529 0.05592,0.6572 0.16816,0.81571h2.08305c0.38066,-0.04512 0.68844,0.04551 0.92409,0.27152c0.23488,0.22639 0.35251,0.49753 0.35251,0.81378c0,0.49714 -0.23719,0.84811 -0.71235,1.05213c-0.29427,0.11262 -0.81417,0.13576 -1.56046,0.06788c-0.36177,-0.02314 -0.89362,-0.02314 -1.59478,0c-0.63328,0.07868 -1.65071,0.15774 -3.05303,0.23719c-1.22144,0.04512 -1.96773,-0.12457 -2.23925,-0.50871c-0.18127,-0.27113 -0.18127,-0.55422 0,-0.84811c0.31626,-0.49714 1.14199,-0.74629 2.47683,-0.74629c0.47477,0 0.76827,-0.03934 0.88166,-0.1184c0.113,-0.07906 0.1697,-0.23179 0.1697,-0.4578c0,-0.20287 0,-0.39455 0,-0.57543c0,-0.33824 0,-0.83499 0,-1.48949c0.06788,-1.15048 0.06788,-2.86636 0,-5.14611c-0.09063,-3.27248 -0.04551,-6.14965 0.13576,-8.63265c-0.02276,-0.02237 -0.05669,-0.05631 -0.10259,-0.10182c-0.8188,0.04551 -2.13782,0.02276 -3.95706,-0.06827c-0.2048,0 -0.89902,0.0459 -2.08112,0.13614c0.29389,2.05837 0.47477,3.60764 0.54265,4.64781c0,0.13576 -0.02276,0.44122 -0.06788,0.91599c-0.02276,0.33901 -0.30546,0.50871 -0.84811,0.50871c-0.29427,0 -0.46359,-0.10105 -0.50871,-0.30276c-0.02276,-0.04435 -0.15851,-0.65064 -0.40728,-1.81693c-0.13576,-0.76249 -0.32821,-1.8393 -0.57659,-3.23006c0,-0.08871 -0.07945,-0.36909 -0.23719,-0.84078c-0.13499,-0.38144 -0.20248,-0.67301 -0.20248,-0.87472c0,-0.15659 0.10683,-0.35367 0.32243,-0.58855c0.21482,-0.23526 0.53725,-0.38722 0.9669,-0.45472c0.06788,0 0.17471,0 0.32243,0c0.14656,0 0.26535,0 0.35598,0c2.69165,0 3.86759,0 3.52819,0c1.83197,0.06827 3.46031,0.06827 4.88501,0c2.03523,-0.08986 4.0477,-0.27113 6.03857,-0.54265c0.13576,-0.06788 0.33901,-0.13576 0.61014,-0.20325c0.49791,-0.04512 0.9048,0.06788 1.22183,0.3394c0.31626,0.27075 0.42926,0.6329 0.33901,1.0853z" fill="#ffffff" stroke="#ffffff" stroke-width="1" stroke-linecap="butt" stroke-linejoin="miter"/></g></g></svg>