<svg version="1.1" xmlns="http://www.w3.org/2000/svg" xmlns:xlink="http://www.w3.org/1999/xlink" width="56" height="38" viewBox="0,0,56,38"><defs><linearGradient x1="240" y1="176.51137" x2="240" y2="199.79059" gradientUnits="userSpaceOnUse" id="color-1"><stop offset="0" stop-color="#4da9ff" stop-opacity="0.8"/><stop offset="1" stop-color="#ffffff" stop-opacity="0.6"/></linearGradient><linearGradient x1="240" y1="168.74133" x2="240" y2="184.1867" gradientUnits="userSpaceOnUse" id="color-2"><stop offset="0" stop-color="#4da9ff" stop-opacity="0.8"/><stop offset="1" stop-color="#ffffff" stop-opacity="0.6"/></linearGradient></defs><g transform="translate(-212,-161)"><g stroke-miterlimit="10"><path d="M213,198v-36h54v36z" fill-opacity="0.30196" fill="#a3cccc" stroke="#666666" stroke-width="2" stroke-linecap="butt" stroke-linejoin="round"/><path d="M225.43994,162.91815v34.0663h-11.43993v-34.0663z" fill="#99bfa9" stroke="none" stroke-width="0" stroke-linecap="butt" stroke-linejoin="miter"/><path d="M266,162.91815v34.0663h-11.43993v-34.0663z" fill="#99bfa9" stroke="none" stroke-width="0" stroke-linecap="butt" stroke-linejoin="miter"/><path d="M217.41032,189.08213v5.79182" fill="none" stroke="#cd8f4e" stroke-width="1.5" stroke-linecap="round" stroke-linejoin="miter"/><path d="M219.7435,189.08213h-4.66635v-8.46679" fill="none" stroke="#cd8f4e" stroke-width="1.5" stroke-linecap="round" stroke-linejoin="miter"/><path d="M262.58968,194.87395v-5.79182" fill="none" stroke="#cd8f4e" stroke-width="1.5" stroke-linecap="round" stroke-linejoin="miter"/><path d="M264.92286,180.61535v8.46678h-4.66636" fill="none" stroke="#cd8f4e" stroke-width="1.5" stroke-linecap="round" stroke-linejoin="miter"/><path d="M214,196.98445v-2h52v2z" fill="#cccccc" stroke="none" stroke-width="0" stroke-linecap="butt" stroke-linejoin="miter"/><path d="M240,189.71057v-16.50974" fill="none" stroke="#666666" stroke-width="2.5" stroke-linecap="round" stroke-linejoin="miter"/><path d="M242.80033,179.26415h-5.60065" fill="none" stroke="#666666" stroke-width="2.5" stroke-linecap="round" stroke-linejoin="miter"/><path d="M250.44643,188.15098c0,6.42838 -4.67702,3.06819 -10.44643,3.06819c-5.76941,0 -10.44643,3.3602 -10.44643,-3.06818c0,-6.42838 4.67702,-13.78247 10.44643,-13.78247c5.76941,0 10.44643,7.35408 10.44643,13.78247z" fill="url(#color-1)" stroke="none" stroke-width="0" stroke-linecap="butt" stroke-linejoin="miter"/><path d="M246.93104,176.46401c0,4.26513 -3.10313,2.03569 -6.93104,2.03569c-3.8279,0 -6.93104,2.22944 -6.93104,-2.03569c0,-4.26513 3.10313,-9.14444 6.93104,-9.14444c3.8279,0 6.93104,4.87931 6.93104,9.14444z" fill="url(#color-2)" stroke="none" stroke-width="0" stroke-linecap="butt" stroke-linejoin="miter"/><path d="M227.45942,195.40863v-6.62338h25.08117v6.62338z" fill="#666666" stroke="none" stroke-width="0" stroke-linecap="butt" stroke-linejoin="miter"/></g></g></svg>