<svg version="1.1" xmlns="http://www.w3.org/2000/svg" xmlns:xlink="http://www.w3.org/1999/xlink" width="56" height="38" viewBox="0,0,56,38"><defs><linearGradient x1="240" y1="162" x2="240" y2="198" gradientUnits="userSpaceOnUse" id="color-1"><stop offset="0" stop-color="#dbc78b"/><stop offset="1" stop-color="#a8a28d"/></linearGradient></defs><g transform="translate(-212,-161)"><g stroke-miterlimit="10"><path d="M213,198v-36h54v36z" fill="url(#color-1)" fill-rule="nonzero" stroke="#666666" stroke-width="2" stroke-linecap="butt" stroke-linejoin="round"/><path d="M260.57377,196.03318v-10.88115h4.42623v10.88115z" fill="none" fill-rule="nonzero" stroke="#b98054" stroke-width="2" stroke-linecap="butt" stroke-linejoin="miter"/><path d="M238.53484,196.03318v-10.88115h15.30738v10.88115z" fill="none" fill-rule="nonzero" stroke="#b98054" stroke-width="2" stroke-linecap="butt" stroke-linejoin="miter"/><g fill-rule="evenodd" stroke-width="0.25"><path d="M224.67026,169.28461c0.06441,-0.04294 0.17176,-0.02147 0.19323,0.06441l0.55823,2.29734c0,0 1.37411,1.00911 1.78205,1.71764c0.68706,1.18088 0.70853,2.14705 0.70853,2.14705c0,0 1.5244,0.45088 1.78205,1.6747c0.25765,1.22382 -0.68706,3.54263 -4.7235,4.33704c-4.03645,0.79441 -7.27849,-0.30059 -8.80289,-2.74822c-1.5244,-2.44763 0.88029,-5.36762 0.75147,-5.19585l-0.45088,-3.84321c-0.02147,-0.08588 0.08588,-0.15029 0.17176,-0.10735l2.59793,1.69617c0,0 0.96617,-0.365 1.97528,-0.40794c0.60117,-0.04294 1.11646,0 1.61029,0.08588z" fill="#ffab19" stroke="#001026" stroke-linecap="butt" stroke-linejoin="miter"/><path d="M227.84789,175.59693c0,0 1.48146,0.38647 1.73911,1.61029c0.25765,1.22382 -0.77294,3.43528 -4.76644,4.20821c-5.19585,1.07352 -7.66496,-2.01822 -6.22644,-4.29409c1.43852,-2.29734 3.90763,-0.34353 5.71115,-0.47235c1.54587,-0.10735 1.71764,-1.45999 3.54263,-1.05205z" fill="#ffffff" stroke="none" stroke-linecap="butt" stroke-linejoin="miter"/><path d="M221.08469,177.89428c0,-0.08588 0.08588,-0.15029 0.17176,-0.12882c0.40794,0.15029 1.56734,0.49382 2.85557,0.5797c1.15941,0.06441 1.84646,0 2.16852,-0.06441c0.10735,-0.02147 0.19323,0.08588 0.15029,0.19323c-0.19323,0.5797 -1.00911,2.18999 -3.26351,2.06117c-1.95381,-0.2147 -2.14705,-1.58881 -2.08264,-2.64087z" fill="#ffffff" stroke="#001026" stroke-linecap="round" stroke-linejoin="round"/><path d="M231.79846,175.83312c-1.00911,0.81588 -2.55499,0.83735 -2.55499,0.83735" fill="none" stroke="#001026" stroke-linecap="round" stroke-linejoin="round"/><path d="M231.51934,178.23779c-1.35264,0.10735 -2.18999,-0.30059 -2.18999,-0.30059" fill="none" stroke="#001026" stroke-linecap="round" stroke-linejoin="round"/><path d="M224.21938,176.09076c0.45088,0 0.92323,0.04294 0.9447,0.19323c0.02147,0.30059 -0.30059,0.90176 -0.64411,0.92323c-0.38647,0.04294 -1.28823,-0.49382 -1.28823,-0.83735c-0.02147,-0.25765 0.55823,-0.27912 0.98764,-0.27912z" fill="#001026" stroke="#001026" stroke-linecap="round" stroke-linejoin="round"/><path d="M214.55767,175.76869c0,0 1.84646,0.60117 2.59793,1.26676" fill="none" stroke="#001026" stroke-linecap="round" stroke-linejoin="round"/><path d="M217.22001,177.78693c-0.92323,0.365 -2.51205,0.12882 -2.51205,0.12882" fill="none" stroke="#001026" stroke-linecap="round" stroke-linejoin="round"/><g><path d="M226.7529,173.57872c0.62264,0.96617 0.64411,2.06117 0.04294,2.44763c-0.60117,0.38647 -1.58881,-0.06441 -2.23293,-1.03058c-0.62264,-0.96617 -0.64411,-2.06117 -0.04294,-2.44763c0.60117,-0.40794 1.61029,0.06441 2.23293,1.03058z" fill="#ffffff" stroke="#001026" stroke-linecap="round" stroke-linejoin="round"/><path d="M226.66702,174.80252c0,0.23618 -0.17176,0.42941 -0.38647,0.42941c-0.2147,0 -0.38647,-0.19323 -0.38647,-0.42941c0,-0.23618 0.17176,-0.42941 0.38647,-0.42941c0.2147,0 0.38647,0.19323 0.38647,0.42941" fill="#001026" stroke="none" stroke-linecap="butt" stroke-linejoin="miter"/></g><g><path d="M221.42822,174.17987c0.64411,0.9447 0.60117,2.10411 0.02147,2.51205c-0.70853,0.40794 -1.65323,0.10735 -2.29734,-0.83735c-0.66558,-0.9447 -0.70853,-2.16852 -0.04294,-2.64087c0.66558,-0.49382 1.6747,0.02147 2.31881,0.96617z" fill="#ffffff" stroke="#001026" stroke-linecap="round" stroke-linejoin="round"/><path d="M221.2994,175.42518c0,0.23618 -0.17176,0.42941 -0.38647,0.42941c-0.2147,0 -0.38647,-0.19323 -0.38647,-0.42941c0,-0.23618 0.17176,-0.42941 0.38647,-0.42941c0.2147,0.02147 0.38647,0.19323 0.38647,0.42941" fill="#001026" stroke="none" stroke-linecap="butt" stroke-linejoin="miter"/></g></g><path d="M231.79846,181.32882v13.70433h-17.79846v-13.70433z" fill="#b98054" fill-rule="nonzero" stroke="none" stroke-width="0" stroke-linecap="butt" stroke-linejoin="miter"/><path d="M214,197.03318v-2h52v2z" fill="#cccccc" fill-rule="nonzero" stroke="none" stroke-width="0" stroke-linecap="butt" stroke-linejoin="miter"/><path d="M237.17189,191.96455v-9.31412h17.96023v9.31412z" fill="#d7c1ae" fill-rule="nonzero" stroke="none" stroke-width="0" stroke-linecap="butt" stroke-linejoin="miter"/><path d="M259.24735,191.96455v-9.31412h6.75266v9.31412z" fill="#d7c1ae" fill-rule="nonzero" stroke="none" stroke-width="0" stroke-linecap="butt" stroke-linejoin="miter"/><path d="" fill="#d6d19e" fill-rule="nonzero" stroke="none" stroke-width="0" stroke-linecap="butt" stroke-linejoin="miter"/><path d="M238.74092,179.66569l2.36272,1.33254" fill="none" fill-rule="nonzero" stroke="#a6734b" stroke-width="1" stroke-linecap="round" stroke-linejoin="miter"/><path d="M238.30603,179.42041c0.40019,-0.70958 1.44823,-0.87669 2.34086,-0.37326c0.89263,0.50343 1.29184,1.48677 0.89165,2.19635c0,0 -3.23252,-1.82307 -3.23251,-1.82309z" fill="#d6d19e" fill-rule="nonzero" stroke="none" stroke-width="0" stroke-linecap="butt" stroke-linejoin="miter"/><path d="M242.03154,179.44959l1.83398,1.99865" fill="none" fill-rule="nonzero" stroke="#a6734b" stroke-width="1" stroke-linecap="round" stroke-linejoin="miter"/><path d="M241.69397,179.0817c0.60024,-0.55079 1.64852,-0.38516 2.3414,0.36993c0.69287,0.75509 0.76797,1.81371 0.16773,2.3645c0,0 -2.50914,-2.73441 -2.50913,-2.73443z" fill="#d6d19e" fill-rule="nonzero" stroke="none" stroke-width="0" stroke-linecap="butt" stroke-linejoin="miter"/><path d="M254.22576,179.39348l-4.51531,1.95153l-2.14286,-1.95153" fill="none" fill-rule="nonzero" stroke="#a6734b" stroke-width="1" stroke-linecap="round" stroke-linejoin="miter"/><path d="M250.47575,178.80036l2.00893,2.65944l-0.53571,0.32526l-3.38648,-3.06122" fill="none" fill-rule="nonzero" stroke="#a6734b" stroke-width="1" stroke-linecap="round" stroke-linejoin="miter"/><path d="M260.82009,178.93455l0.49807,1.11115" fill="none" fill-rule="nonzero" stroke="#945137" stroke-width="0.5" stroke-linecap="round" stroke-linejoin="miter"/><path d="M260.78938,180.03032l-0.45158,-1.00744" fill="none" fill-rule="nonzero" stroke="#379454" stroke-width="0.5" stroke-linecap="round" stroke-linejoin="miter"/><path d="M261.1331,178.50957l0.7637,1.70376l-1.51116,0.67737l-0.7637,-1.70376" fill="none" fill-rule="nonzero" stroke="#cbac95" stroke-width="1" stroke-linecap="round" stroke-linejoin="miter"/><path d="M263.75916,178.97038l0.49807,1.11114" fill="none" fill-rule="nonzero" stroke="#945137" stroke-width="0.5" stroke-linecap="round" stroke-linejoin="miter"/><path d="M263.27687,179.0587l0.45158,1.00744" fill="none" fill-rule="nonzero" stroke="#379454" stroke-width="0.5" stroke-linecap="round" stroke-linejoin="miter"/><path d="M264.07217,178.5454l0.7637,1.70376l-1.51116,0.67737l-0.7637,-1.70377" fill="none" fill-rule="nonzero" stroke="#cbac95" stroke-width="1" stroke-linecap="round" stroke-linejoin="miter"/><path d="M259.97434,182.65043l-0.85231,-2.37459h6.87798l-0.85231,2.37459z" fill="#d1782f" fill-rule="nonzero" stroke="none" stroke-width="0" stroke-linecap="butt" stroke-linejoin="miter"/><path d="M248.06687,182.65043l-0.85232,-2.37459h6.87798l-0.85232,2.37459z" fill="#d1782f" fill-rule="nonzero" stroke="none" stroke-width="0" stroke-linecap="butt" stroke-linejoin="miter"/><path d="M239.06378,182.65043l-0.85232,-2.37459h6.87798l-0.85232,2.37459z" fill="#d1782f" fill-rule="nonzero" stroke="none" stroke-width="0" stroke-linecap="butt" stroke-linejoin="miter"/></g></g></svg>