<svg version="1.1" xmlns="http://www.w3.org/2000/svg" xmlns:xlink="http://www.w3.org/1999/xlink" width="56" height="38" viewBox="0,0,56,38"><defs><linearGradient x1="258.61403" y1="165.37081" x2="258.61403" y2="178.02746" gradientUnits="userSpaceOnUse" id="color-1"><stop offset="0" stop-color="#ffef62" stop-opacity="0"/><stop offset="1" stop-color="#ffef62"/></linearGradient><linearGradient x1="242.57782" y1="165.37081" x2="242.57782" y2="178.02746" gradientUnits="userSpaceOnUse" id="color-2"><stop offset="0" stop-color="#ffef62" stop-opacity="0"/><stop offset="1" stop-color="#ffef62"/></linearGradient></defs><g transform="translate(-212,-161.04333)"><g stroke-miterlimit="10"><path d="M213,198.04333v-36h54v36z" fill="#a09c85" fill-rule="nonzero" stroke="#666666" stroke-width="2" stroke-linecap="butt" stroke-linejoin="round"/><path d="M235.6009,195.03315v-9.03879h13.95386v9.03879z" fill="#392406" fill-rule="nonzero" stroke="none" stroke-width="0" stroke-linecap="butt" stroke-linejoin="miter"/><path d="M236.1634,185.49005l0.96568,-5.89488h10.8975l0.96568,5.89488z" fill="#d9d6bf" fill-rule="nonzero" stroke="#857762" stroke-width="1" stroke-linecap="butt" stroke-linejoin="miter"/><path d="M214,197.03315v-2h52v2z" fill="#661f1f" fill-rule="nonzero" stroke="none" stroke-width="0" stroke-linecap="butt" stroke-linejoin="miter"/><path d="M238.28287,182.84923l1.85188,-1.85188l1.85188,1.85188l-1.85188,1.85188z" fill="#40afdc" fill-rule="nonzero" stroke="none" stroke-width="0" stroke-linecap="butt" stroke-linejoin="miter"/><path d="M242.98675,182.84923l1.85188,-1.85188l1.85188,1.85188l-1.85188,1.85188z" fill="#4cdbcc" fill-rule="nonzero" stroke="none" stroke-width="0" stroke-linecap="butt" stroke-linejoin="miter"/><path d="M251.63711,195.03315v-9.03879h13.95386v9.03879z" fill="#392406" fill-rule="nonzero" stroke="none" stroke-width="0" stroke-linecap="butt" stroke-linejoin="miter"/><path d="M252.19961,185.49005l0.96568,-5.89488h10.8975l0.96568,5.89488z" fill="#d9d6bf" fill-rule="nonzero" stroke="#857762" stroke-width="1" stroke-linecap="butt" stroke-linejoin="miter"/><path d="M260.87484,184.70111l-1.85188,-1.85188l1.85188,-1.85188l1.85188,1.85188z" fill="#a95bbd" fill-rule="nonzero" stroke="none" stroke-width="0" stroke-linecap="butt" stroke-linejoin="miter"/><path d="M256.17096,184.70111l-1.85188,-1.85188l1.85188,-1.85188l1.85188,1.85188z" fill="#6c3791" fill-rule="nonzero" stroke="none" stroke-width="0" stroke-linecap="butt" stroke-linejoin="miter"/><path d="M231.30974,182.77849v12.25466h-17.30974v-12.25466z" fill="#392406" fill-rule="nonzero" stroke="none" stroke-width="0" stroke-linecap="butt" stroke-linejoin="miter"/><g fill-rule="evenodd" stroke-width="0.25"><path d="M224.54157,167.50133c0.06441,-0.04294 0.17176,-0.02147 0.19323,0.06441l0.55823,2.29734c0,0 1.37411,1.00911 1.78205,1.71764c0.68706,1.18088 0.70853,2.14705 0.70853,2.14705c0,0 1.5244,0.45088 1.78205,1.6747c0.25765,1.22382 -0.68706,3.54263 -4.7235,4.33704c-4.03645,0.79441 -7.27849,-0.30059 -8.80289,-2.74822c-1.5244,-2.44763 0.88029,-5.36762 0.75147,-5.19585l-0.45088,-3.84321c-0.02147,-0.08588 0.08588,-0.15029 0.17176,-0.10735l2.59793,1.69617c0,0 0.96617,-0.365 1.97528,-0.40794c0.60117,-0.04294 1.11646,0 1.61029,0.08588z" fill="#ffab19" stroke="#001026" stroke-linecap="butt" stroke-linejoin="miter"/><path d="M227.7192,173.81365c0,0 1.48146,0.38647 1.73911,1.61029c0.25765,1.22382 -0.77294,3.43528 -4.76644,4.20821c-5.19585,1.07352 -7.66496,-2.01822 -6.22644,-4.29409c1.43852,-2.29734 3.90763,-0.34353 5.71115,-0.47235c1.54587,-0.10735 1.71764,-1.45999 3.54263,-1.05205z" fill="#ffffff" stroke="none" stroke-linecap="butt" stroke-linejoin="miter"/><path d="M220.956,176.11101c0,-0.08588 0.08588,-0.15029 0.17176,-0.12882c0.40794,0.15029 1.56734,0.49382 2.85557,0.5797c1.15941,0.06441 1.84646,0 2.16852,-0.06441c0.10735,-0.02147 0.19323,0.08588 0.15029,0.19323c-0.19323,0.5797 -1.00911,2.18999 -3.26351,2.06117c-1.95381,-0.2147 -2.14705,-1.58881 -2.08264,-2.64087z" fill="#ffffff" stroke="#001026" stroke-linecap="round" stroke-linejoin="round"/><path d="M231.66977,174.04985c-1.00911,0.81588 -2.55499,0.83735 -2.55499,0.83735" fill="none" stroke="#001026" stroke-linecap="round" stroke-linejoin="round"/><path d="M231.39065,176.45451c-1.35264,0.10735 -2.18999,-0.30059 -2.18999,-0.30059" fill="none" stroke="#001026" stroke-linecap="round" stroke-linejoin="round"/><path d="M224.09069,174.30748c0.45088,0 0.92323,0.04294 0.9447,0.19323c0.02147,0.30059 -0.30059,0.90176 -0.64411,0.92323c-0.38647,0.04294 -1.28823,-0.49382 -1.28823,-0.83735c-0.02147,-0.25765 0.55823,-0.27912 0.98764,-0.27912z" fill="#001026" stroke="#001026" stroke-linecap="round" stroke-linejoin="round"/><path d="M214.42898,173.98542c0,0 1.84646,0.60117 2.59793,1.26676" fill="none" stroke="#001026" stroke-linecap="round" stroke-linejoin="round"/><path d="M217.09132,176.00366c-0.92323,0.365 -2.51205,0.12882 -2.51205,0.12882" fill="none" stroke="#001026" stroke-linecap="round" stroke-linejoin="round"/><g><path d="M226.62421,171.79545c0.62264,0.96617 0.64411,2.06117 0.04294,2.44763c-0.60117,0.38647 -1.58881,-0.06441 -2.23293,-1.03058c-0.62264,-0.96617 -0.64411,-2.06117 -0.04294,-2.44763c0.60117,-0.40794 1.61029,0.06441 2.23293,1.03058z" fill="#ffffff" stroke="#001026" stroke-linecap="round" stroke-linejoin="round"/><path d="M226.53833,173.01924c0,0.23618 -0.17176,0.42941 -0.38647,0.42941c-0.2147,0 -0.38647,-0.19323 -0.38647,-0.42941c0,-0.23618 0.17176,-0.42941 0.38647,-0.42941c0.2147,0 0.38647,0.19323 0.38647,0.42941" fill="#001026" stroke="none" stroke-linecap="butt" stroke-linejoin="miter"/></g><g><path d="M221.29953,172.3966c0.64411,0.9447 0.60117,2.10411 0.02147,2.51205c-0.70853,0.40794 -1.65323,0.10735 -2.29734,-0.83735c-0.66558,-0.9447 -0.70853,-2.16852 -0.04294,-2.64087c0.66558,-0.49382 1.6747,0.02147 2.31881,0.96617z" fill="#ffffff" stroke="#001026" stroke-linecap="round" stroke-linejoin="round"/><path d="M221.17071,173.64191c0,0.23618 -0.17176,0.42941 -0.38647,0.42941c-0.2147,0 -0.38647,-0.19323 -0.38647,-0.42941c0,-0.23618 0.17176,-0.42941 0.38647,-0.42941c0.2147,0.02147 0.38647,0.19323 0.38647,0.42941" fill="#001026" stroke="none" stroke-linecap="butt" stroke-linejoin="miter"/></g></g><path d="M214,182.77849v-3.36882h17.86875v3.36882z" fill="#51422e" fill-rule="nonzero" stroke="none" stroke-width="0" stroke-linecap="butt" stroke-linejoin="miter"/><path d="M260.9458,171.69914c0,3.49504 -1.04397,2.90662 -2.33176,2.90662c-1.2878,0 -2.33176,0.58842 -2.33176,-2.90662c0,-3.49504 1.04397,-6.32833 2.33176,-6.32833c1.2878,0 2.33176,2.83329 2.33176,6.32833z" fill="url(#color-1)" fill-rule="nonzero" stroke="none" stroke-width="0" stroke-linecap="butt" stroke-linejoin="miter"/><path d="M260.9458,173.55947c0,1.56097 -1.04397,2.82638 -2.33176,2.82638c-1.2878,0 -2.33176,-1.26541 -2.33176,-2.82638c0,-1.56097 1.04397,-1.88425 2.33176,-1.88425c1.2878,0 2.33176,0.32329 2.33176,1.88425z" fill="#90867e" fill-rule="nonzero" stroke="none" stroke-width="0" stroke-linecap="butt" stroke-linejoin="miter"/><path d="M244.90959,171.69914c0,3.49504 -1.04397,2.90662 -2.33176,2.90662c-1.2878,0 -2.33176,0.58842 -2.33176,-2.90662c0,-3.49504 1.04397,-6.32833 2.33176,-6.32833c1.2878,0 2.33176,2.83329 2.33176,6.32833z" fill="url(#color-2)" fill-rule="nonzero" stroke="none" stroke-width="0" stroke-linecap="butt" stroke-linejoin="miter"/><path d="M244.90959,173.55947c0,1.56097 -1.04397,2.82638 -2.33176,2.82638c-1.2878,0 -2.33176,-1.26541 -2.33176,-2.82638c0,-1.56097 1.04397,-1.88425 2.33176,-1.88425c1.2878,0 2.33176,0.32329 2.33176,1.88425z" fill="#90867e" fill-rule="nonzero" stroke="none" stroke-width="0" stroke-linecap="butt" stroke-linejoin="miter"/></g></g></svg>