<svg version="1.1" xmlns="http://www.w3.org/2000/svg" xmlns:xlink="http://www.w3.org/1999/xlink" width="56" height="38" viewBox="0,0,56,38"><g transform="translate(-212,-161)"><g stroke-miterlimit="10"><path d="M213,198v-36h54v36z" fill="#8b510e" stroke="#666666" stroke-width="2" stroke-linecap="butt" stroke-linejoin="round"/><path d="M235.14408,176.71344l-2.88223,15.43388" fill="none" stroke="#999999" stroke-width="1.5" stroke-linecap="round" stroke-linejoin="miter"/><path d="M230.68529,182.39999c-0.55499,0.14455 -2.84542,0.85645 -3.32309,0.35801c-1.9067,-1.9896 6.73641,-3.59549 8.29572,-4.5306c0.28898,-0.1733 1.49444,-1.46749 2.22467,-2.10666c0.1011,-0.12939 0.23336,-0.23324 0.38548,-0.3003c0.12327,-0.05434 0.25958,-0.08451 0.40295,-0.08451c0.55229,0 1,0.44771 1,1c0,0.34762 -0.17737,0.65382 -0.44655,0.83302c-0.79316,2.36691 -6.84322,4.38931 -8.53918,4.83103z" fill="#9b958c" stroke="none" stroke-width="0.5" stroke-linecap="butt" stroke-linejoin="miter"/><path d="M246.34452,185.37592c0.05112,1.60349 0.9629,2.60117 0.75747,4.30823c1.31831,0.19893 2.41316,0.6687 2.82504,1.52608c0.80999,1.68609 -7.9565,2.55624 -6.98319,0.85294h-1.29622c-3.67888,-0.91972 -0.34663,-2.32596 3.15884,-2.48116c0.39445,-2.07681 -0.78058,-4.0578 0.05338,-6.15218c-0.08873,-0.34122 0.1592,-0.64556 0.48627,-0.94612c0.15268,-0.25603 0.36173,-0.53198 0.59738,-0.52439c0.10822,-0.10004 0.20903,-0.2017 0.29354,-0.30614c0.33491,-0.41387 -1.31972,0.25613 -1.58387,-0.20613l-0.49247,-0.86182c0.26371,-0.4615 0.79824,-0.7564 1.44299,-0.89677c1.57062,-0.34195 3.79533,0.23309 4.35281,1.55073c0.38126,0.90111 -1.52973,1.91203 -2.9378,2.49098c-0.2806,0.59343 -0.6838,1.34368 -0.67417,1.64575z" fill="#9b958c" stroke="none" stroke-width="0.5" stroke-linecap="butt" stroke-linejoin="miter"/><path d="M248.63418,183.05433c-4.49843,-0.83984 -8.35312,-3.03474 -12.40149,-5.02181c-1.07569,-0.52798 -3.5764,-1.38843 -4.14075,-2.37603c-0.29474,-0.17395 -0.49247,-0.49479 -0.49247,-0.86182c0,-0.55228 0.44772,-1 1,-1c0.37372,0 0.69956,0.20501 0.87119,0.50869c2.6794,0.64393 7.17337,4.25636 9.10868,4.79232c3.2203,0.89182 5.836,1.86276 9.22206,2.16127c0.67718,0.0597 3.03112,0.06443 2.62038,1.29665c-0.31998,0.95993 -5.35986,1.29775 -5.78761,0.50073z" fill="#bcb4aa" stroke="none" stroke-width="0.5" stroke-linecap="butt" stroke-linejoin="miter"/><path d="M220.69961,195.03315v-6.52102" fill="none" stroke="#999999" stroke-width="1.5" stroke-linecap="round" stroke-linejoin="miter"/><path d="M216.23434,188.51213l1.72971,-5.23444h7.85166l-1.72971,5.23444z" fill="#d9d9d9" stroke="#999999" stroke-width="1.5" stroke-linecap="butt" stroke-linejoin="round"/><path d="M219.23805,185.06058h3.86905" fill="none" stroke="#666666" stroke-width="1" stroke-linecap="round" stroke-linejoin="miter"/><path d="M218.79162,186.66772h1.78571" fill="none" stroke="#666666" stroke-width="1" stroke-linecap="round" stroke-linejoin="miter"/><path d="M231.87838,170.30277c0.52869,0 0.75998,0.79254 0.8006,1.79639c0.46789,0.90674 0.28795,1.95032 -0.28436,2.83562c-0.11343,0.46971 -0.25198,0.85345 -0.40071,1.07002c-0.81563,1.18758 -4.5228,2.1779 -5.90724,1.56426c-0.20296,-0.08996 -0.80761,-0.50118 -0.74048,-0.71622c-0.01714,-0.05801 -0.02626,-0.11885 -0.02626,-0.18154c0,-0.39995 0.37113,-0.72418 0.82895,-0.72418c0.05569,0 0.1101,0.0048 0.16271,0.01395c0.19802,-0.13803 0.43115,-0.23358 0.68688,-0.3026c0.5422,-0.14634 1.18593,-0.17342 1.8117,-0.23318c0.63921,-0.70916 1.21871,-1.4371 0.35619,-2.02692c-0.11642,-0.07961 -0.27816,-0.15883 -0.47578,-0.23801c-2.18914,0.1969 -6.78516,-0.23063 -7.42636,-0.79078c-0.33886,-0.29603 -0.41377,-1.70388 0.08709,-2.19937c0.21938,-0.85445 2.23994,-1.63985 3.14839,-1.88455c2.60758,-0.70238 5.7859,0.23384 7.211,2.03933c0.05454,-0.01422 0.11049,-0.02222 0.16765,-0.02222z" fill="#e6dccf" stroke="none" stroke-width="0.5" stroke-linecap="butt" stroke-linejoin="miter"/><path d="M234.59926,177.90635c-1.84983,-0.18258 -0.54777,-3.8075 0.25736,-3.79037c0.142,-0.0774 0.30483,-0.12139 0.47794,-0.12139c0.47109,0 0.8661,0.32575 0.97206,0.76429c0.99075,1.30332 0.451,3.36049 -1.70736,3.14747z" fill="#e6dccf" stroke="none" stroke-width="0.5" stroke-linecap="butt" stroke-linejoin="miter"/><path d="M237.10643,179.15587c-1.41016,-0.65895 -0.48389,-3.20306 0.92148,-3.10614c0.11835,-0.04933 0.2482,-0.07656 0.38442,-0.07656c0.01488,0 0.02968,0.00032 0.0444,0.00096c0.73696,0.02277 0.98236,0.37136 0.9416,0.83135c0.00921,0.05452 0.014,0.11055 0.014,0.16769c0,0.32063 -0.15089,0.60601 -0.38554,0.78901c-0.52291,0.83775 -1.4577,1.60989 -1.92036,1.39369z" fill="#e6dccf" stroke="none" stroke-width="0.5" stroke-linecap="butt" stroke-linejoin="miter"/><path d="M234.58235,183.35588c-0.55499,0.14455 -2.84542,0.85645 -3.32309,0.35801c-1.9067,-1.9896 6.73641,-3.59549 8.29572,-4.5306c0.28898,-0.1733 1.49444,-1.46749 2.22467,-2.10666c0.1011,-0.12939 0.23336,-0.23324 0.38548,-0.3003c0.12327,-0.05434 0.25958,-0.08451 0.40295,-0.08451c0.55229,0 1,0.44771 1,1c0,0.34762 -0.17737,0.65382 -0.44655,0.83302c-0.79316,2.36691 -6.84322,4.38931 -8.53918,4.83103z" fill="#e6dccf" stroke="none" stroke-width="0.5" stroke-linecap="butt" stroke-linejoin="miter"/><path d="M227.68578,182.16236c0.30905,-0.38212 0.94909,-0.65627 1.65236,-0.75793c1.28023,-0.18506 2.76998,0.20153 2.85387,1.54913c0.08739,1.40375 -4.13005,0.51691 -4.26031,-0.13439z" fill="#e6dccf" stroke="none" stroke-width="0.5" stroke-linecap="butt" stroke-linejoin="miter"/><path d="" fill="#e6dccf" stroke="none" stroke-width="0.5" stroke-linecap="butt" stroke-linejoin="miter"/><path d="" fill="#e6dccf" stroke="none" stroke-width="0.5" stroke-linecap="butt" stroke-linejoin="miter"/><path d="M256.43286,180.91829c2.21048,-1.37786 0.37549,-4.32689 1.68682,-5.63823c0.66667,-0.66667 1.08333,-0.66667 1.75,0c2.10561,2.10561 -2.09326,7.72573 -4.27625,7.84664c-0.87398,0.04841 -2.18671,0.59869 -2.62099,-0.16129c-0.29474,-0.17395 -0.49247,-0.49479 -0.49247,-0.86182c0,-0.55228 0.44772,-1 1,-1c0.13594,0 0.26555,0.02713 0.3837,0.07626c0.71789,0.01386 1.53277,0.38446 2.56918,-0.26157z" fill="#e6dccf" stroke="none" stroke-width="0.5" stroke-linecap="butt" stroke-linejoin="miter"/><path d="M248.25628,185.48621c0.05112,1.60349 0.9629,2.60117 0.75748,4.30823c1.31831,0.19893 2.41316,0.6687 2.82504,1.52609c0.80999,1.6861 -7.95651,2.55624 -6.98319,0.85294h-1.29622c-3.67888,-0.91972 -0.34663,-2.32596 3.15884,-2.48116c0.39446,-2.07681 -0.78058,-4.0578 0.05337,-6.15218c-0.08873,-0.34122 0.15921,-0.64556 0.48627,-0.94612c0.15268,-0.25603 0.36172,-0.53199 0.59738,-0.52439c0.10822,-0.10004 0.20903,-0.20171 0.29355,-0.30615c0.33491,-0.41388 -1.31972,0.25614 -1.58387,-0.20612l-0.49247,-0.86182c0.26371,-0.4615 0.79824,-0.7564 1.44299,-0.89677c1.57062,-0.34195 3.79533,0.23309 4.35281,1.55073c0.38125,0.90111 -1.52973,1.91203 -2.93781,2.49098c-0.2806,0.59343 -0.6838,1.34368 -0.67417,1.64575z" fill="#e6dccf" stroke="none" stroke-width="0.5" stroke-linecap="butt" stroke-linejoin="miter"/><path d="M245.81468,182.08147c-0.48577,0.27758 -4.45812,-0.30175 -4.24756,-1.35457c0.14317,-0.71587 3.40701,-2.53654 3.90628,-1.66283c0.29474,0.17395 0.49247,0.49479 0.49247,0.86182c0,0.03865 -0.00219,0.07678 -0.00646,0.11428c0.01347,0.59431 0.65656,1.58342 -0.14472,2.0413z" fill="#e6dccf" stroke="none" stroke-width="0.5" stroke-linecap="butt" stroke-linejoin="miter"/><path d="M249.44763,173.25832c0.7498,0.7498 0.48417,1.97489 -0.65957,1.875c-0.94209,-0.08228 -1.89879,-0.23748 -2.846,-0.32351c-1.27998,-0.11626 -2.55372,-0.03271 -3.79938,0.00278c-0.01878,0.00105 -0.0377,0.00158 -0.05675,0.00158c-0.1539,0 -0.29968,-0.03477 -0.42991,-0.09687c-0.36209,0.80037 -0.74261,1.55906 -1.30136,1.87834c-0.17395,0.29474 -0.49479,0.49247 -0.86182,0.49247c-0.55228,0 -1,-0.44772 -1,-1c0,-0.18177 0.0485,-0.35222 0.13326,-0.4991c0.12203,-2.44345 4.86426,-6.20375 7.44918,-6.24558c0.76664,-0.01241 5.36971,0.26425 3.21277,2.19415c-1.17068,1.04745 -4.58723,-0.62052 -6.36752,0.9812c-0.02842,0.02557 -0.05635,0.05235 -0.08383,0.08028c2.2122,-0.54243 5.80101,-0.15066 6.61093,0.65926z" fill="#e6dccf" stroke="none" stroke-width="0.5" stroke-linecap="butt" stroke-linejoin="miter"/><path d="M227.776,194.93349v-2h24.448v2z" fill="#999999" stroke="#999999" stroke-width="2" stroke-linecap="butt" stroke-linejoin="round"/><path d="M214,197.03315v-2h52v2z" fill="#cccccc" stroke="none" stroke-width="0" stroke-linecap="butt" stroke-linejoin="miter"/></g></g></svg>