<svg version="1.1" xmlns="http://www.w3.org/2000/svg" xmlns:xlink="http://www.w3.org/1999/xlink" width="56" height="38" viewBox="0,0,56,38"><defs><linearGradient x1="225.5" y1="162" x2="225.5" y2="169.47989" gradientUnits="userSpaceOnUse" id="color-1"><stop offset="0" stop-color="#e9dad9"/><stop offset="1" stop-color="#cfada7"/></linearGradient><linearGradient x1="218.13163" y1="163.74709" x2="218.13163" y2="167.65895" gradientUnits="userSpaceOnUse" id="color-2"><stop offset="0" stop-color="#7c583a"/><stop offset="1" stop-color="#59391d"/></linearGradient><linearGradient x1="218.33916" y1="164.23629" x2="218.33916" y2="167.7328" gradientUnits="userSpaceOnUse" id="color-3"><stop offset="0" stop-color="#e8af4a"/><stop offset="1" stop-color="#b57d28"/></linearGradient></defs><g transform="translate(-212,-161)"><g stroke-miterlimit="10"><path d="M237.32363,187.08564v-14h24v14z" fill-opacity="0.70196" fill="#a3cccc" fill-rule="nonzero" stroke="#666666" stroke-width="2" stroke-linecap="butt" stroke-linejoin="round"/><path d="M257.14985,187l-4.42147,-14h3.21386l4.42146,14z" fill-opacity="0.40392" fill="#cccccc" fill-rule="nonzero" stroke="none" stroke-width="0" stroke-linecap="butt" stroke-linejoin="miter"/><path d="M253.7451,187.08564l-4.42147,-14h1.78852l4.42146,14z" fill-opacity="0.40392" fill="#cccccc" fill-rule="nonzero" stroke="none" stroke-width="0" stroke-linecap="butt" stroke-linejoin="miter"/><path d="M213,198v-36h54v36zM261.32363,187v-14h-24v14z" fill="#e9e0ae" fill-rule="nonzero" stroke="#666666" stroke-width="2" stroke-linecap="butt" stroke-linejoin="round"/><g fill-rule="evenodd" stroke-width="0.25"><path d="M229.14578,169.28458c0.06441,-0.04294 0.17176,-0.02147 0.19323,0.06441l0.55823,2.29734c0,0 1.37411,1.00911 1.78205,1.71764c0.68706,1.18088 0.70853,2.14705 0.70853,2.14705c0,0 1.5244,0.45088 1.78205,1.6747c0.25765,1.22382 -0.68706,3.54263 -4.7235,4.33704c-4.03645,0.79441 -7.27849,-0.30059 -8.80289,-2.74822c-1.5244,-2.44763 0.88029,-5.36762 0.75147,-5.19585l-0.45088,-3.84321c-0.02147,-0.08588 0.08588,-0.15029 0.17176,-0.10735l2.59793,1.69617c0,0 0.96617,-0.365 1.97528,-0.40794c0.60117,-0.04294 1.11646,0 1.61029,0.08588z" fill="#ffab19" stroke="#001026" stroke-linecap="butt" stroke-linejoin="miter"/><path d="M232.32341,175.5969c0,0 1.48146,0.38647 1.73911,1.61029c0.25765,1.22382 -0.77294,3.43528 -4.76644,4.20821c-5.19585,1.07352 -7.66496,-2.01822 -6.22644,-4.29409c1.43852,-2.29734 3.90763,-0.34353 5.71115,-0.47235c1.54587,-0.10735 1.71764,-1.45999 3.54263,-1.05205z" fill="#ffffff" stroke="none" stroke-linecap="butt" stroke-linejoin="miter"/><path d="M225.56021,177.89424c0,-0.08588 0.08588,-0.15029 0.17176,-0.12882c0.40794,0.15029 1.56734,0.49382 2.85557,0.5797c1.15941,0.06441 1.84646,0 2.16852,-0.06441c0.10735,-0.02147 0.19323,0.08588 0.15029,0.19323c-0.19323,0.5797 -1.00911,2.18999 -3.26351,2.06117c-1.95381,-0.2147 -2.14705,-1.58881 -2.08264,-2.64087z" fill="#ffffff" stroke="#001026" stroke-linecap="round" stroke-linejoin="round"/><path d="M236.27398,175.83308c-1.00911,0.81588 -2.55499,0.83735 -2.55499,0.83735" fill="none" stroke="#001026" stroke-linecap="round" stroke-linejoin="round"/><path d="M235.99486,178.23777c-1.35264,0.10735 -2.18999,-0.30059 -2.18999,-0.30059" fill="none" stroke="#001026" stroke-linecap="round" stroke-linejoin="round"/><path d="M228.6949,176.09072c0.45088,0 0.92323,0.04294 0.9447,0.19323c0.02147,0.30059 -0.30059,0.90176 -0.64411,0.92323c-0.38647,0.04294 -1.28823,-0.49382 -1.28823,-0.83735c-0.02147,-0.25765 0.55823,-0.27912 0.98764,-0.27912z" fill="#001026" stroke="#001026" stroke-linecap="round" stroke-linejoin="round"/><path d="M219.03319,175.76867c0,0 1.84646,0.60117 2.59793,1.26676" fill="none" stroke="#001026" stroke-linecap="round" stroke-linejoin="round"/><path d="M221.69553,177.78689c-0.92323,0.365 -2.51205,0.12882 -2.51205,0.12882" fill="none" stroke="#001026" stroke-linecap="round" stroke-linejoin="round"/><g><path d="M231.22842,173.57868c0.62264,0.96617 0.64411,2.06117 0.04294,2.44763c-0.60117,0.38647 -1.58881,-0.06441 -2.23293,-1.03058c-0.62264,-0.96617 -0.64411,-2.06117 -0.04294,-2.44763c0.60117,-0.40794 1.61029,0.06441 2.23293,1.03058z" fill="#ffffff" stroke="#001026" stroke-linecap="round" stroke-linejoin="round"/><path d="M231.14254,174.80249c0,0.23618 -0.17176,0.42941 -0.38647,0.42941c-0.2147,0 -0.38647,-0.19323 -0.38647,-0.42941c0,-0.23618 0.17176,-0.42941 0.38647,-0.42941c0.2147,0 0.38647,0.19323 0.38647,0.42941" fill="#001026" stroke="none" stroke-linecap="butt" stroke-linejoin="miter"/></g><g><path d="M225.90374,174.17985c0.64411,0.9447 0.60117,2.10411 0.02147,2.51205c-0.70853,0.40794 -1.65323,0.10735 -2.29734,-0.83735c-0.66558,-0.9447 -0.70853,-2.16852 -0.04294,-2.64087c0.66558,-0.49382 1.6747,0.02147 2.31881,0.96617z" fill="#ffffff" stroke="#001026" stroke-linecap="round" stroke-linejoin="round"/><path d="M225.77492,175.42514c0,0.23618 -0.17176,0.42941 -0.38647,0.42941c-0.2147,0 -0.38647,-0.19323 -0.38647,-0.42941c0,-0.23618 0.17176,-0.42941 0.38647,-0.42941c0.2147,0.02147 0.38647,0.19323 0.38647,0.42941" fill="#001026" stroke="none" stroke-linecap="butt" stroke-linejoin="miter"/></g></g><path d="M214,197.03315v-2h52v2z" fill="#cccccc" fill-rule="nonzero" stroke="none" stroke-width="0" stroke-linecap="butt" stroke-linejoin="miter"/><path d="M253.60905,180.17907h11.42856v13.90454h-4.93247l-4.28862,-13.85189" fill="none" fill-rule="nonzero" stroke="#ab7f5c" stroke-width="2" stroke-linecap="butt" stroke-linejoin="round"/><path d="M243.80209,194.96534l-0.00047,-19.40733l-0.0167,11.02478h7.09163v8.45036" fill="none" fill-rule="nonzero" stroke="#a1724b" stroke-width="2" stroke-linecap="butt" stroke-linejoin="round"/><path d="M251.11758,184.66891h-5.84942" fill="none" fill-rule="nonzero" stroke="#5e5e5e" stroke-width="2" stroke-linecap="round" stroke-linejoin="miter"/><path d="M238,182.77849v12.25466h-24v-12.25466z" fill="#b9a15d" fill-rule="nonzero" stroke="none" stroke-width="0" stroke-linecap="butt" stroke-linejoin="miter"/><path d="M214,182.77849v-2h24.55901v2z" fill="#9d884f" fill-rule="nonzero" stroke="none" stroke-width="0" stroke-linecap="butt" stroke-linejoin="miter"/><path d="M213,169.47989v-7.47989h25v7.47989z" fill="url(#color-1)" fill-rule="nonzero" stroke="#666666" stroke-width="2" stroke-linecap="butt" stroke-linejoin="round"/><g fill="none" fill-rule="nonzero" stroke-linecap="round" stroke-linejoin="miter"><path d="M231.43626,166.13364h2.40673" stroke="#b75700" stroke-width="3"/><path d="M230.9266,165.27601c0,0 2.84187,0 3.3862,0c0.09024,0 0.86684,0.40202 -0.02345,0.38281c-0.24195,-0.00522 -0.41051,-0.42346 -0.77154,-0.35694c-0.21292,0.03922 -0.4268,0.31997 -0.87496,0.3052c-0.25324,-0.00835 -0.4969,-0.31364 -0.67772,-0.29631c-0.40041,0.03836 -0.55227,0.3779 -0.82174,0.35212c-0.17199,-0.01646 -0.47628,-0.01722 -0.52051,-0.09959c-0.04513,-0.08404 0.17158,-0.24954 0.17158,-0.24954" stroke="#d67693" stroke-width="1.5"/><path d="M231.05874,165.125l-0.33033,0.18877" stroke="#cecece" stroke-width="0.5"/><path d="M233.21064,165.62522l0.33978,0.27371" stroke="#cecece" stroke-width="0.5"/><path d="M233.89019,164.66253l-0.23595,0.16989" stroke="#cecece" stroke-width="0.5"/><path d="M231.70997,164.94568l0.30202,0.2454" stroke="#5b76cf" stroke-width="0.5"/><path d="M234.90951,165.3232l-0.16044,0.31146" stroke="#5b76cf" stroke-width="0.5"/><path d="M231.09649,165.68185l0.22652,0.33034" stroke="#a1cf5b" stroke-width="0.5"/><path d="M233.10682,164.63422l-0.51909,0.11326" stroke="#a1cf5b" stroke-width="0.5"/></g><g fill-rule="nonzero" stroke-linejoin="miter"><path d="M215.65679,166.53139c-0.14796,-1.35466 0.84044,-2.5923 2.20765,-2.76434c1.36721,-0.17204 2.5955,0.78665 2.74346,2.14131c0.14796,1.35466 -0.96372,1.46356 -2.33093,1.6356c-1.36721,0.17204 -2.47222,0.34208 -2.62018,-1.01258z" fill="url(#color-2)" stroke="none" stroke-width="0" stroke-linecap="butt"/><path d="M216.67365,165.73064c0,0 0.29209,0.25177 0.56447,0.23043c0.2153,-0.01686 -0.03938,-1.02823 0.17101,-1.07978c0.27826,-0.06818 0.82744,0.78927 0.87108,0.87419c0.04388,0.08536 0.78548,-0.95739 0.80923,-0.86495c0.05614,0.21856 -0.30562,0.93788 -0.13827,1.02076c0.16735,0.08288 0.7611,-0.23177 0.7611,-0.23177" fill="none" stroke="#bd3e20" stroke-width="2.5" stroke-linecap="round"/><path d="M216.67365,166.0979c0,0 0.34424,-0.18875 0.5758,-0.4256c0.12456,-0.1274 -0.02665,-0.46246 0.06332,-0.46841c0.22954,-0.01517 0.67538,0.2938 0.89183,0.20182c0.18032,-0.07662 0.09488,-0.5361 0.25002,-0.52817c0.24313,0.01243 0.2535,0.78541 0.38223,0.77735c0.25028,-0.01567 0.47535,-0.242 0.47535,-0.242" fill="none" stroke="#289600" stroke-width="2.5" stroke-linecap="round"/><path d="M215.84665,166.50283c0.00202,-1.25394 1.11959,-2.2687 2.49616,-2.26654c1.37657,0.00216 2.49087,1.02042 2.48885,2.27436c-0.00202,1.25394 -1.11791,1.22389 -2.49448,1.22173c-1.37657,-0.00216 -2.49255,0.02439 -2.49053,-1.22955z" fill="url(#color-3)" stroke="none" stroke-width="0" stroke-linecap="butt"/></g><g fill="none" fill-rule="nonzero" stroke-linecap="round" stroke-linejoin="miter"><path d="M224.08576,167.12179h2.82847" stroke="#cd9438" stroke-width="2"/><path d="M224.24131,166.23041h2.51738" stroke="#de4141" stroke-width="1.5"/><path d="M224.17525,166.65454h2.6495" stroke="#69351c" stroke-width="1.5"/><path d="M226.24805,165.05373l-0.73174,0.42742l-0.73175,-0.42742" stroke="#eaa73b" stroke-width="2"/><path d="M226.91423,165.50138c0,0 -0.24609,-0.01804 -0.49914,-0.00359c-0.30902,0.01764 -0.67055,0.0644 -1.13275,0.01003c-0.3919,-0.0461 -0.44937,0.06128 -0.63596,0.05868c-0.20218,-0.00282 -0.56062,-0.10452 -0.56062,-0.10452" stroke="#5f8e23" stroke-width="1"/><path d="M224.08576,164.3581h2.82847" stroke="#cd9438" stroke-width="2"/></g></g></g></svg>