<svg version="1.1" xmlns="http://www.w3.org/2000/svg" xmlns:xlink="http://www.w3.org/1999/xlink" width="480" height="385.85903" viewBox="0,0,480,385.85903"><g transform="translate(0,25.85903)"><g data-paper-data="{&quot;isPaintingLayer&quot;:true}" fill-rule="nonzero" stroke-linejoin="miter" stroke-miterlimit="10" stroke-dasharray="" stroke-dashoffset="0" style="mix-blend-mode: normal"><path d="M0,360v-385.85903h480v385.85903z" fill-opacity="0.6" fill="#000000" stroke="none" stroke-width="0" stroke-linecap="butt"/><path d="M332.24517,96.54726v166.907c0,4.35428 -3.54033,7.89613 -7.89765,7.89613h-168.69656c-4.35276,0 -7.89613,-3.54185 -7.89613,-7.89613v-166.90852c0,-4.35428 3.54337,-7.89613 7.89613,-7.89613h168.69656c4.35733,0 7.89765,3.54337 7.89765,7.89765z" fill-opacity="0.70196" fill="#404040" stroke="#808080" stroke-width="4" stroke-linecap="butt"/><path d="M332.24517,96.54726v23.0605h-184.49034v-23.06202c0,-4.35428 3.54337,-7.89613 7.89613,-7.89613h168.69656c4.35733,0 7.89765,3.54337 7.89765,7.89765z" fill="#808080" stroke="none" stroke-width="0" stroke-linecap="butt"/><text transform="translate(152.66767,110.12869) scale(0.5,0.5)" font-size="40" xml:space="preserve" fill="#ffffff" fill-rule="nonzero" stroke="none" stroke-width="1" stroke-linecap="butt" stroke-linejoin="miter" stroke-miterlimit="10" stroke-dasharray="" stroke-dashoffset="0" font-family="Sans Serif" font-weight="normal" text-anchor="start" style="mix-blend-mode: normal"><tspan x="0" dy="0">確認</tspan></text><g fill="none" stroke="#ffffff" stroke-width="2.5" stroke-linecap="round"><path d="M323.38763,110.9615l-13.66564,-13.66564"/><path d="M309.72198,110.96151l13.66565,-13.66565"/></g><path d="M321.91452,240.58953v15.38738c0,3.45524 -2.80935,6.26579 -6.267,6.26579h-64.20307c-3.45403,0 -6.26579,-2.81055 -6.26579,-6.26579v-15.38859c0,-3.45524 2.81176,-6.26579 6.26579,-6.26579h64.20307c3.45766,0 6.267,2.81176 6.267,6.267z" fill-opacity="0.74902" fill="#959da6" stroke="none" stroke-width="1" stroke-linecap="butt"/><path d="M164.36535,234.32253h64.20308c3.45403,0 6.26579,2.81055 6.26579,6.26579v15.38859c0,3.45524 -2.81176,6.26579 -6.26579,6.26579h-64.20308c-3.45765,0 -6.267,-2.81055 -6.267,-6.26579v-15.38738c0,-3.45524 2.80934,-6.267 6.267,-6.267z" data-paper-data="{&quot;index&quot;:null}" fill-opacity="0.74902" fill="#a65353" stroke="none" stroke-width="1" stroke-linecap="butt"/><text transform="translate(174.88728,252.59841) scale(0.35965,0.35965)" font-size="40" xml:space="preserve" fill-opacity="0.85098" fill="#ffffff" fill-rule="nonzero" stroke="none" stroke-width="1" stroke-linecap="butt" stroke-linejoin="miter" stroke-miterlimit="10" stroke-dasharray="" stroke-dashoffset="0" font-family="Sans Serif" font-weight="normal" text-anchor="start" style="mix-blend-mode: normal"><tspan x="0" dy="0">閉じる</tspan></text><text transform="translate(269.16059,252.59841) scale(0.35965,0.35965)" font-size="40" xml:space="preserve" fill-opacity="0.85098" fill="#ffffff" fill-rule="nonzero" stroke="none" stroke-width="1" stroke-linecap="butt" stroke-linejoin="miter" stroke-miterlimit="10" stroke-dasharray="" stroke-dashoffset="0" font-family="Sans Serif" font-weight="normal" text-anchor="start" style="mix-blend-mode: normal"><tspan x="0" dy="0">戻る</tspan></text><text transform="translate(152.91993,140.34239) scale(0.311,0.311)" font-size="40" xml:space="preserve" fill-opacity="0.85098" fill="#ffffff" fill-rule="nonzero" stroke="none" stroke-width="1" stroke-linecap="butt" stroke-linejoin="miter" stroke-miterlimit="10" stroke-dasharray="" stroke-dashoffset="0" font-family="Sans Serif" font-weight="normal" text-anchor="start" style="mix-blend-mode: normal"><tspan x="0" dy="0">ワールド設定を閉じると</tspan><tspan x="0" dy="48px">変更した設定は保存されません</tspan><tspan x="0" dy="48px">本当に閉じますか？</tspan></text></g></g></svg>