<svg version="1.1" xmlns="http://www.w3.org/2000/svg" xmlns:xlink="http://www.w3.org/1999/xlink" width="108.5" height="61.5" viewBox="0,0,108.5,61.5"><defs><linearGradient x1="217.905" y1="170.805" x2="217.905" y2="186.075" gradientUnits="userSpaceOnUse" id="color-1"><stop offset="0" stop-color="#666666" stop-opacity="0"/><stop offset="1" stop-color="#666666"/></linearGradient></defs><g transform="translate(-185.905,-149.125)"><g stroke-miterlimit="10"><path d="M290.655,152.875v54h-101v-54z" fill="#333333" stroke="#333333" stroke-width="7.5" stroke-linecap="butt" stroke-linejoin="round"/><g stroke-linecap="butt"><path d="M205.905,179.435v-14h24v14z" fill-opacity="0.70196" fill="#a3cccc" stroke="#666666" stroke-width="2" stroke-linejoin="round"/><path d="M225.73122,179.435l-4.42147,-14h3.21386l4.42146,14z" fill-opacity="0.40392" fill="#cccccc" stroke="none" stroke-width="0" stroke-linejoin="miter"/><path d="M222.32647,179.435l-4.42147,-14h1.78852l4.42146,14z" fill-opacity="0.40392" fill="#cccccc" stroke="none" stroke-width="0" stroke-linejoin="miter"/><path d="M190.905,190.435v-36h54v36zM229.905,179.435v-14h-24v14z" fill="#cdbeb2" stroke="#666666" stroke-width="2" stroke-linejoin="round"/></g><path d="M190.905,190.435v-19.62h54v19.62z" fill="url(#color-1)" stroke="none" stroke-width="1" stroke-linecap="butt" stroke-linejoin="miter"/><text transform="translate(201.265,201.895) scale(0.23,0.23)" font-size="40" xml:space="preserve" fill="#ffffff" stroke="none" stroke-width="1" stroke-linecap="butt" stroke-linejoin="miter" font-family="Sans Serif" font-weight="400" text-anchor="start"><tspan x="0" dy="0">750G</tspan></text><text transform="translate(191.905,186.975) scale(0.21,0.21)" font-size="40" xml:space="preserve" fill="#ffffff" stroke="none" stroke-width="1" stroke-linecap="butt" stroke-linejoin="miter" font-family="Sans Serif" font-weight="400" text-anchor="start"><tspan x="0" dy="0">廊下</tspan></text><path d="M191.855,200.155l-0.95,-2.39l5.74,-2.29l0.95,2.39z" fill="#ffffff" stroke="#ffffff" stroke-width="1.25" stroke-linecap="butt" stroke-linejoin="round"/><path d="M194.725,199.015l1.55,3.88" fill="none" stroke="#ffffff" stroke-width="1.25" stroke-linecap="round" stroke-linejoin="miter"/></g></g></svg>