<svg version="1.1" xmlns="http://www.w3.org/2000/svg" xmlns:xlink="http://www.w3.org/1999/xlink" width="108.5" height="61.5" viewBox="0,0,108.5,61.5"><defs><linearGradient x1="217.905" y1="170.805" x2="217.905" y2="186.075" gradientUnits="userSpaceOnUse" id="color-1"><stop offset="0" stop-color="#666666" stop-opacity="0"/><stop offset="1" stop-color="#666666"/></linearGradient></defs><g transform="translate(-185.905,-149.125)"><g stroke-miterlimit="10"><path d="M290.655,152.875v54h-101v-54z" fill="#333333" fill-rule="nonzero" stroke="#333333" stroke-width="7.5" stroke-linecap="butt" stroke-linejoin="round"/><g fill-rule="nonzero"><path d="M190.905,190.435v-36h54v36z" fill="#88b570" stroke="#666666" stroke-width="2" stroke-linecap="butt" stroke-linejoin="round"/><path d="M215.3189,173.76382v13.70433h-23.41389v-13.70433z" fill="#b98054" stroke="none" stroke-width="0" stroke-linecap="butt" stroke-linejoin="miter"/><path d="M197.22576,166.78292c-1.39028,0.35487 -1.87604,3.16198 -1.87604,3.16198c0,0 -0.96697,-2.60895 -2.36527,-2.70182" fill="none" stroke="#3f7934" stroke-width="1" stroke-linecap="round" stroke-linejoin="miter"/><path d="M195.12946,170.29789l-0.10369,-4.60665" fill="none" stroke="#3f7934" stroke-width="1" stroke-linecap="round" stroke-linejoin="miter"/><path d="M194.857,162.0498c0.28049,-0.08392 0.55396,0.14606 0.7784,0.5069c0.1154,-0.27917 0.4309,-0.37262 1.22742,-0.03341c1.42558,0.60711 -0.34406,3.36545 -1.73353,3.48333c-1.87178,0.15879 -3.00642,-2.24117 -2.20875,-3.11536c0.05631,-0.25043 0.2398,-0.46543 0.50178,-0.54993c0.32793,-0.10577 0.67554,0.02626 0.85636,0.30058c0.07539,-0.27876 0.25491,-0.49534 0.57833,-0.59211z" fill="#e88742" stroke="none" stroke-width="0.5" stroke-linecap="butt" stroke-linejoin="miter"/><path d="M197.55176,168.52815c0.01266,0.33227 -0.02753,0.63591 -0.50352,0.88598c0.28111,0.50243 0.4459,1.11291 0.4459,1.77121c0,1.71569 -1.11929,2.57849 -2.5,2.57849c-1.38071,0 -2.5,-0.86281 -2.5,-2.57849c0,-0.47105 0.28972,-1.29896 0.44071,-1.69897c-0.25501,-0.1902 -0.35415,-0.46923 -0.35415,-0.92801c0,-0.69036 4.94173,-0.79968 4.97107,-0.0302z" fill="#e8cd90" stroke="none" stroke-width="0.5" stroke-linecap="butt" stroke-linejoin="miter"/><path d="M225.5274,186.4556v-28.23434h17.39741v28.23434z" fill="#a6a6a6" stroke="#808080" stroke-width="2" stroke-linecap="butt" stroke-linejoin="miter"/><path d="M230.02243,172.94114l-0.76077,2.37743l-1.19823,-2.11116" fill="none" stroke="#3f7934" stroke-width="1" stroke-linecap="round" stroke-linejoin="miter"/><path d="M228.57949,171.10576c0,-0.41422 0.33578,-0.75 0.75,-0.75c0.26808,0 0.5033,0.14064 0.63591,0.35217c0.13753,-0.16851 0.34687,-0.27609 0.58133,-0.27609c0.41422,0 0.75,0.33578 0.75,0.75c0,0.05408 -0.00572,0.10681 -0.0166,0.15764c0.30693,0.09398 0.53012,0.37955 0.53012,0.71725c0,0.41422 -0.33578,0.75 -0.75,0.75c-0.09067,0 -0.17758,-0.01609 -0.25804,-0.04557c-0.00038,0.41388 -0.33603,0.74929 -0.75,0.74929c-0.33187,0 -0.61339,-0.21555 -0.71221,-0.51429c-0.075,0.02517 -0.15529,0.0388 -0.23876,0.0388c-0.41422,0 -0.75,-0.33578 -0.75,-0.75c0,-0.29695 0.17258,-0.5536 0.42291,-0.67511c-0.12096,-0.13317 -0.19467,-0.31002 -0.19467,-0.5041z" fill="#d84141" stroke="none" stroke-width="0.5" stroke-linecap="butt" stroke-linejoin="miter"/><path d="M229.30223,171.94261c0,-0.41422 0.33578,-0.75 0.75,-0.75c0.41422,0 0.75,0.33578 0.75,0.75c0,0.41422 -0.33578,0.75 -0.75,0.75c-0.41422,0 -0.75,-0.33578 -0.75,-0.75z" fill="#ffc159" stroke="none" stroke-width="0.5" stroke-linecap="butt" stroke-linejoin="miter"/><path d="M231.96241,173.34054l-1.10313,2.43449" fill="none" stroke="#3f7934" stroke-width="1" stroke-linecap="round" stroke-linejoin="miter"/><path d="M226.56216,172.11379c0,-0.41422 0.33578,-0.75 0.75,-0.75c0.26808,0 0.50331,0.14065 0.63592,0.35217c0.13753,-0.16851 0.34687,-0.27609 0.58133,-0.27609c0.41422,0 0.75,0.33578 0.75,0.75c0,0.05408 -0.00572,0.10682 -0.01659,0.15765c0.30693,0.09398 0.53012,0.37954 0.53012,0.71725c0,0.41422 -0.33578,0.75 -0.75,0.75c-0.09067,0 -0.17757,-0.01608 -0.25803,-0.04556c-0.00038,0.41388 -0.33603,0.74928 -0.75,0.74928c-0.33187,0 -0.61339,-0.21555 -0.71221,-0.51429c-0.075,0.02517 -0.15529,0.0388 -0.23876,0.0388c-0.41422,0 -0.75,-0.33578 -0.75,-0.75c0,-0.29695 0.17258,-0.5536 0.42291,-0.67511c-0.12096,-0.13317 -0.19468,-0.31002 -0.19468,-0.5041z" fill="#ff4d4d" stroke="none" stroke-width="0.5" stroke-linecap="butt" stroke-linejoin="miter"/><path d="M231.08752,171.92359c0,-0.41422 0.33578,-0.75 0.75,-0.75c0.26808,0 0.5033,0.14065 0.63591,0.35217c0.13753,-0.16851 0.34687,-0.27609 0.58133,-0.27609c0.41422,0 0.75,0.33578 0.75,0.75c0,0.05408 -0.00572,0.10681 -0.0166,0.15764c0.30693,0.09398 0.53012,0.37955 0.53012,0.71725c0,0.41422 -0.33578,0.75 -0.75,0.75c-0.09067,0 -0.17758,-0.01609 -0.25804,-0.04557c-0.00038,0.41388 -0.33603,0.74929 -0.75,0.74929c-0.33187,0 -0.61339,-0.21555 -0.71221,-0.51429c-0.075,0.02517 -0.15528,0.03881 -0.23876,0.03881c-0.41422,0 -0.75,-0.33578 -0.75,-0.75c0,-0.29695 0.17257,-0.5536 0.4229,-0.67511c-0.12096,-0.13317 -0.19467,-0.31003 -0.19467,-0.5041z" fill="#ff4d4d" stroke="none" stroke-width="0.5" stroke-linecap="butt" stroke-linejoin="miter"/><path d="M227.2849,172.95064c0,-0.41422 0.33578,-0.75 0.75,-0.75c0.41422,0 0.75,0.33578 0.75,0.75c0,0.41422 -0.33578,0.75 -0.75,0.75c-0.41422,0 -0.75,-0.33578 -0.75,-0.75z" fill="#ffc159" stroke="none" stroke-width="0.5" stroke-linecap="butt" stroke-linejoin="miter"/><path d="M231.81026,172.76045c0,-0.41422 0.33578,-0.75 0.75,-0.75c0.41422,0 0.75,0.33578 0.75,0.75c0,0.41422 -0.33578,0.75 -0.75,0.75c-0.41422,0 -0.75,-0.33578 -0.75,-0.75z" fill="#ffc159" stroke="none" stroke-width="0.5" stroke-linecap="butt" stroke-linejoin="miter"/><path d="M240.74094,174.04849l-3.08115,2.16822l-1.84489,-3.06213" fill="none" stroke="#3f7934" stroke-width="1" stroke-linecap="round" stroke-linejoin="miter"/><path d="M239.61879,173.0785l-1.14117,2.43449l-0.91294,-2.28234" fill="none" stroke="#3f7934" stroke-width="1" stroke-linecap="round" stroke-linejoin="miter"/><path d="M240.21261,163.50115l-3.27134,1.69273l-0.77979,-1.92096" fill="none" stroke="#3f7934" stroke-width="1" stroke-linecap="round" stroke-linejoin="miter"/><path d="M238.99537,163.12076l-0.45646,2.28234l-1.10313,-2.45351" fill="none" stroke="#3f7934" stroke-width="1" stroke-linecap="round" stroke-linejoin="miter"/><path d="M232.757,162.75939l-3.13821,2.58665l-1.52155,-2.0541" fill="none" stroke="#3f7934" stroke-width="1" stroke-linecap="round" stroke-linejoin="miter"/><path d="M231.84407,161.67529l-0.7798,3.59467l-1.44548,-2.54861" fill="none" stroke="#3f7934" stroke-width="1" stroke-linecap="round" stroke-linejoin="miter"/><path d="M231.92015,160.66726l-0.0951,1.23626" fill="none" stroke="#4f58b8" stroke-width="1.25" stroke-linecap="round" stroke-linejoin="miter"/><path d="M233.70797,161.96058l-1.06509,0.8749" fill="none" stroke="#4f58b8" stroke-width="1.25" stroke-linecap="round" stroke-linejoin="miter"/><path d="M229.86605,162.98763l-0.8749,-1.14117" fill="none" stroke="#4f58b8" stroke-width="1.25" stroke-linecap="round" stroke-linejoin="miter"/><path d="M227.10823,162.53116l1.12214,0.83686" fill="none" stroke="#4f58b8" stroke-width="1.25" stroke-linecap="round" stroke-linejoin="miter"/><path d="M236.57048,163.24851c-0.41364,0.41365 -2.33326,-0.11275 -1.89962,-0.98003c-0.00076,-0.01379 -0.00113,-0.02767 -0.00113,-0.04164c0,-0.41422 0.33578,-0.75 0.75,-0.75c0.31095,0 0.5777,0.18924 0.69138,0.45883c0.53183,0.28611 0.81846,0.95376 0.45938,1.31284z" fill="#8246a3" stroke="none" stroke-width="0.5" stroke-linecap="butt" stroke-linejoin="miter"/><path d="M237.7615,161.73398c0.20286,0.23539 0.23375,0.56072 0.10404,0.82274c0.0299,1.01509 -0.51387,0.83526 -0.97974,0.3511c-0.09713,-0.04359 -0.18648,-0.10864 -0.26057,-0.19462c-0.09973,-0.11572 -0.15789,-0.25319 -0.17585,-0.39417c-0.33162,-0.59236 -0.35022,-1.17375 0.61038,-0.83356c0.25262,-0.04548 0.52205,0.03999 0.70174,0.24851z" fill="#8246a3" stroke="none" stroke-width="0.5" stroke-linecap="butt" stroke-linejoin="miter"/><path d="M238.37851,162.68331c-0.00337,-0.03197 -0.01961,-0.32539 0.00202,-0.56902c0.00091,-0.01251 0.00214,-0.02493 0.00366,-0.03726c0.04569,-0.37045 0.36151,-0.65725 0.74432,-0.65725c0.41421,0 0.75,0.33579 0.75,0.75c0,0.08335 -0.0136,0.16353 -0.03869,0.23843c-0.06638,0.75768 -1.35855,1.24898 -1.46131,0.2751z" fill="#8246a3" stroke="none" stroke-width="0.5" stroke-linecap="butt" stroke-linejoin="miter"/><path d="M241.23967,162.16155c0.35855,0 0.65834,0.2516 0.73243,0.58788c0.97316,1.37616 -4.4912,1.62591 -1.35549,-0.25552c0.13463,-0.20045 0.36344,-0.33236 0.62305,-0.33236z" fill="#8246a3" stroke="none" stroke-width="0.5" stroke-linecap="butt" stroke-linejoin="miter"/><path d="M234.68874,172.94113c0,-0.29825 0.17409,-0.55583 0.42619,-0.67669c1.87704,-2.63812 1.1699,3.46983 -0.05684,1.32305c-0.22106,-0.13046 -0.36935,-0.37109 -0.36935,-0.64636z" fill="#b5cea7" stroke="none" stroke-width="0.5" stroke-linecap="butt" stroke-linejoin="miter"/><path d="M237.49472,173.40584c-0.20227,-0.02254 -0.86116,-0.19838 -0.87866,-0.51334c-0.07621,-0.11739 -0.12047,-0.25744 -0.12047,-0.40783c0,-0.41421 0.33579,-0.75 0.75,-0.75c0.1347,0 0.26111,0.03551 0.37037,0.09768c0.87494,0.02094 0.95836,1.69382 -0.12124,1.5735z" fill="#b5cea7" stroke="none" stroke-width="0.5" stroke-linecap="butt" stroke-linejoin="miter"/><path d="M238.97543,172.76119c0.01469,-0.18885 -0.04715,-1.02772 0.32212,-1.07924c0.12679,-0.09811 0.28587,-0.1565 0.4586,-0.1565c0.41421,0 0.75,0.33579 0.75,0.75c0,0.0606 -0.00719,0.11953 -0.02076,0.17597c0.37858,1.0874 -1.58558,1.28183 -1.50996,0.30978z" fill="#b5cea7" stroke="none" stroke-width="0.5" stroke-linecap="butt" stroke-linejoin="miter"/><path d="M240.73345,172.91263c0.03538,-0.02251 0.07047,-0.04252 0.10522,-0.06015c0.13436,-0.12701 0.31564,-0.20488 0.51512,-0.20488c0.41421,0 0.75,0.33579 0.75,0.75c0,0.04532 -0.00402,0.08971 -0.01172,0.13282c0.06814,0.31144 0.00804,0.65488 -0.23337,0.90678c-0.95854,1.00022 -1.91143,-0.62544 -1.13404,-1.48057z" fill="#b5cea7" stroke="none" stroke-width="0.5" stroke-linecap="butt" stroke-linejoin="miter"/><path d="M233.08701,164.15086c0.01484,0.22931 -0.03224,0.43887 -0.58974,0.61146c0.32925,0.34676 0.52226,0.76806 0.52226,1.22239c0,1.18408 -1.31097,1.77954 -2.92812,1.77954c-1.61715,0 -2.92812,-0.59546 -2.92812,-1.77954c0,-0.32509 0.33933,-0.89648 0.51617,-1.17254c-0.29868,-0.13127 -0.4148,-0.32384 -0.4148,-0.64046c0,-0.47645 5.78799,-0.5519 5.82235,-0.02085z" fill="#e8cd90" stroke="none" stroke-width="0.5" stroke-linecap="butt" stroke-linejoin="miter"/><path d="M241.18755,164.17171c0,0.31662 -0.11613,0.50919 -0.4148,0.64046c0.17685,0.27606 0.51617,0.84745 0.51617,1.17254c0,1.18408 -1.31096,1.77954 -2.92812,1.77954c-1.61716,0 -2.92812,-0.59546 -2.92812,-1.77954c0,-0.45433 0.193,-0.87563 0.52225,-1.22239c-0.5575,-0.17258 -0.60458,-0.38215 -0.58974,-0.61146c0.03436,-0.53106 5.82236,-0.4556 5.82236,0.02085z" fill="#e8cd90" stroke="none" stroke-width="0.5" stroke-linecap="butt" stroke-linejoin="miter"/><path d="M233.08701,174.64959c0.01484,0.22931 -0.03224,0.43887 -0.58974,0.61146c0.32925,0.34676 0.52226,0.76807 0.52226,1.22239c0,1.18408 -1.31097,1.77953 -2.92812,1.77953c-1.61715,0 -2.92812,-0.59546 -2.92812,-1.77953c0,-0.32509 0.33933,-0.89648 0.51617,-1.17254c-0.29868,-0.13127 -0.4148,-0.32384 -0.4148,-0.64046c0,-0.47645 5.78799,-0.5519 5.82235,-0.02085z" fill="#e8cd90" stroke="none" stroke-width="0.5" stroke-linecap="butt" stroke-linejoin="miter"/><path d="M241.18755,174.67044c0,0.31662 -0.11613,0.50919 -0.4148,0.64046c0.17685,0.27606 0.51617,0.84745 0.51617,1.17254c0,1.18408 -1.31096,1.77953 -2.92812,1.77953c-1.61716,0 -2.92812,-0.59546 -2.92812,-1.77953c0,-0.45433 0.193,-0.87564 0.52225,-1.22239c-0.5575,-0.17258 -0.60458,-0.38215 -0.58974,-0.61146c0.03436,-0.53106 5.82236,-0.4556 5.82236,0.02085z" fill="#e8cd90" stroke="none" stroke-width="0.5" stroke-linecap="butt" stroke-linejoin="miter"/><path d="M225.5274,168.49934h17.39741" fill="none" stroke="#808080" stroke-width="2" stroke-linecap="round" stroke-linejoin="miter"/><path d="M225.5274,186.4556v-7.67819h17.39741v7.67819z" fill="#bfbfbf" stroke="#808080" stroke-width="2" stroke-linecap="butt" stroke-linejoin="miter"/></g><path d="M254.675,178.975l-1.96,2.07l-1.96,-2.07" fill="none" fill-rule="nonzero" stroke="#eeeeee" stroke-width="4" stroke-linecap="round" stroke-linejoin="miter"/><path d="M190.905,190.435v-19.62h54v19.62z" fill="url(#color-1)" fill-rule="nonzero" stroke="none" stroke-width="1" stroke-linecap="butt" stroke-linejoin="miter"/><text transform="translate(201.265,201.895) scale(0.23,0.23)" font-size="40" xml:space="preserve" fill="#ffffff" fill-rule="nonzero" stroke="none" stroke-width="1" stroke-linecap="butt" stroke-linejoin="miter" font-family="Sans Serif" font-weight="400" text-anchor="start"><tspan x="0" dy="0">130,000G</tspan></text><text transform="translate(259.725,161.015) scale(0.23,0.23)" font-size="40" xml:space="preserve" fill="#eeeeee" fill-rule="nonzero" stroke="none" stroke-width="1" stroke-linecap="butt" stroke-linejoin="miter" font-family="Sans Serif" font-weight="400" text-anchor="start"><tspan x="0" dy="0">7,800G</tspan></text><text transform="translate(259.725,171.865) scale(0.23,0.23)" font-size="40" xml:space="preserve" fill="#eeeeee" fill-rule="nonzero" stroke="none" stroke-width="1" stroke-linecap="butt" stroke-linejoin="miter" font-family="Sans Serif" font-weight="400" text-anchor="start"><tspan x="0" dy="0">500G</tspan></text><text transform="translate(259.725,182.715) scale(0.23,0.23)" font-size="40" xml:space="preserve" fill="#eeeeee" fill-rule="nonzero" stroke="none" stroke-width="1" stroke-linecap="butt" stroke-linejoin="miter" font-family="Sans Serif" font-weight="400" text-anchor="start"><tspan x="0" dy="0">8%</tspan></text><text transform="translate(259.725,193.565) scale(0.23,0.23)" font-size="40" xml:space="preserve" fill="#eeeeee" fill-rule="nonzero" stroke="none" stroke-width="1" stroke-linecap="butt" stroke-linejoin="miter" font-family="Sans Serif" font-weight="400" text-anchor="start"><tspan x="0" dy="0">-3</tspan></text><text transform="translate(259.725,204.415) scale(0.23,0.23)" font-size="40" xml:space="preserve" fill="#eeeeee" fill-rule="nonzero" stroke="none" stroke-width="1" stroke-linecap="butt" stroke-linejoin="miter" font-family="Sans Serif" font-weight="400" text-anchor="start"><tspan x="0" dy="0">-7</tspan></text><text transform="translate(191.905,186.975) scale(0.21,0.21)" font-size="40" xml:space="preserve" fill="#ffffff" fill-rule="nonzero" stroke="none" stroke-width="1" stroke-linecap="butt" stroke-linejoin="miter" font-family="Sans Serif" font-weight="400" text-anchor="start"><tspan x="0" dy="0">花屋</tspan></text><path d="M254.295,186.785c0.32,-0.29 0.47,-0.2 0.33,0.21l-0.87,2.69c-0.13,0.42 0.09,0.86 0.51,0.99l0.32,0.1c0.41,0.13 0.49,0.48 0.17,0.77l-3.61,3.35c-0.32,0.29 -0.47,0.2 -0.33,-0.21l0.87,-2.69c0.13,-0.42 -0.09,-0.86 -0.51,-0.99l-0.31,-0.1c-0.41,-0.13 -0.49,-0.48 -0.17,-0.77zM250.055,203.115c0,-1.47 2.66,-5.49 2.66,-5.49c0,0 2.66,4.02 2.66,5.49c0,1.47 -1.19,2.66 -2.66,2.66c-1.47,0 -2.66,-1.19 -2.66,-2.66z" fill="#eeeeee" fill-rule="nonzero" stroke="#eeeeee" stroke-width="0.65" stroke-linecap="butt" stroke-linejoin="miter"/><path d="M191.855,200.155l-0.95,-2.39l5.74,-2.29l0.95,2.39zM255.835,159.085l-0.04,3.17l-0.94,-0.33l-0.55,-1.77l-1.56,1.03l-3.15,-1.11l1.97,-2.49z" fill="#ffffff" fill-rule="nonzero" stroke="#ffffff" stroke-width="1.25" stroke-linecap="butt" stroke-linejoin="round"/><path d="M194.725,199.015l1.55,3.88M255.115,154.335l-1.41,3.99" fill="none" fill-rule="nonzero" stroke="#ffffff" stroke-width="1.25" stroke-linecap="round" stroke-linejoin="miter"/><path d="M253.445,166.095c0.03,-0.02 0.09,-0.01 0.09,0.03l0.27,1.13c0,0 0.67,0.49 0.87,0.84c0.34,0.58 0.35,1.05 0.35,1.05c0,0 0.75,0.22 0.87,0.82c0.13,0.6 -0.34,1.73 -2.31,2.13c-1.98,0.39 -3.57,-0.15 -4.31,-1.35c-0.75,-1.2 0.43,-2.63 0.37,-2.55l-0.22,-1.89c-0.01,-0.04 0.04,-0.07 0.09,-0.05l1.27,0.83c0,0 0.47,-0.18 0.97,-0.2c0.29,-0.02 0.55,0 0.79,0.04z" fill="#eeeeee" fill-rule="nonzero" stroke="#eeeeee" stroke-width="0.65" stroke-linecap="butt" stroke-linejoin="miter"/><path d="M256.945,169.305c-0.49,0.4 -1.25,0.41 -1.25,0.41M256.805,170.485c-0.66,0.05 -1.07,-0.15 -1.07,-0.15M248.495,169.275c0,0 0.91,0.29 1.27,0.62M249.795,170.265c-0.45,0.18 -1.23,0.06 -1.23,0.06" fill="none" fill-rule="nonzero" stroke="#eeeeee" stroke-width="0.65" stroke-linecap="round" stroke-linejoin="miter"/><text transform="translate(196.51457,208.46654) scale(0.11803,0.11803)" font-size="40" xml:space="preserve" fill="#cccccc" fill-rule="nonzero" stroke="none" stroke-width="1" stroke-linecap="butt" stroke-linejoin="miter" font-family="Sans Serif" font-weight="400" text-anchor="start"><tspan x="0" dy="0">Lv.5</tspan></text><path d="M192.39673,206.48984c0.35371,-0.09488 0.62995,-0.37113 0.72483,-0.72484l0.2162,-0.80411c0.10269,-0.38013 0.64197,-0.38013 0.74406,0l0.21679,0.80411c0.09488,0.35371 0.37113,0.62996 0.72423,0.72484l0.80411,0.21619c0.38013,0.10269 0.38013,0.64196 0,0.74465l-0.80411,0.2162c-0.35311,0.09488 -0.62935,0.37113 -0.72423,0.72423l-0.21679,0.80411c-0.10209,0.38013 -0.64137,0.38013 -0.74406,0l-0.2162,-0.80411c-0.09488,-0.35311 -0.37112,-0.62935 -0.72483,-0.72423l-0.80411,-0.2162c-0.38013,-0.10269 -0.38013,-0.64196 0,-0.74465z" fill="#cccccc" fill-rule="evenodd" stroke="none" stroke-width="1" stroke-linecap="butt" stroke-linejoin="miter"/></g></g></svg>