<svg version="1.1" xmlns="http://www.w3.org/2000/svg" xmlns:xlink="http://www.w3.org/1999/xlink" width="56" height="38" viewBox="0,0,56,38"><defs><linearGradient x1="240" y1="185.83669" x2="240" y2="194.00422" gradientUnits="userSpaceOnUse" id="color-1"><stop offset="0" stop-color="#94fffa"/><stop offset="1" stop-color="#afe4e2"/></linearGradient></defs><g transform="translate(-212,-161)"><g data-paper-data="{&quot;isPaintingLayer&quot;:true}" fill-rule="nonzero" stroke-miterlimit="10" stroke-dasharray="" stroke-dashoffset="0" style="mix-blend-mode: normal"><path d="M213,198v-36h54v36z" fill-opacity="0.70196" fill="#a3cccc" stroke="#666666" stroke-width="2" stroke-linecap="butt" stroke-linejoin="round"/><path d="M255.2272,197.04678l-10.87259,-34.07996h7.90303l10.87257,34.07996z" fill-opacity="0.40392" fill="#cccccc" stroke="none" stroke-width="0" stroke-linecap="butt" stroke-linejoin="miter"/><path d="M246.66213,197.04678l-10.87259,-34.07996h4.39805l10.87257,34.07996z" fill-opacity="0.40392" fill="#cccccc" stroke="none" stroke-width="0" stroke-linecap="butt" stroke-linejoin="miter"/><path d="M214,197.03318v-12.22177h52v12.22177z" fill="#cccccc" stroke="none" stroke-width="0" stroke-linecap="butt" stroke-linejoin="miter"/><path d="M215.37546,194.00422l1.44136,-8.16753h46.36636l1.44136,8.16753z" fill="url(#color-1)" stroke="#9cd6c6" stroke-width="1.5" stroke-linecap="butt" stroke-linejoin="miter"/><path d="M218.75789,188.4375h42.48422" fill="none" stroke="#e1fdfb" stroke-width="1" stroke-linecap="round" stroke-linejoin="miter"/><path d="M218.35611,190.62906h43.28779" fill="none" stroke="#e1fdfb" stroke-width="1" stroke-linecap="round" stroke-linejoin="miter"/><path d="M217.53299,193.40169v-3.45831l0.84476,-0.58541l0.7713,3.4904" fill="none" stroke="#4c4c4c" stroke-width="1" stroke-linecap="round" stroke-linejoin="miter"/><path d="M220.57354,193.40169v-3.45831l0.84476,-0.58541l0.77131,3.4904" fill="none" stroke="#4c4c4c" stroke-width="1" stroke-linecap="round" stroke-linejoin="miter"/><path d="M226.05661,168.55017h6.21143l-3.10572,8.16753z" fill="#3c71ff" stroke="none" stroke-width="0" stroke-linecap="butt" stroke-linejoin="miter"/><path d="M233.47299,169.21981h6.21143l-3.10572,8.16753z" fill="#fffa3d" stroke="none" stroke-width="0" stroke-linecap="butt" stroke-linejoin="miter"/><path d="M240.88937,169.21981h6.21142l-3.10572,8.16753z" fill="#3c71ff" stroke="none" stroke-width="0" stroke-linecap="butt" stroke-linejoin="miter"/><path d="M248.30575,168.55017h6.21143l-3.10572,8.16753z" fill="#fffa3d" stroke="none" stroke-width="0" stroke-linecap="butt" stroke-linejoin="miter"/><path d="M255.72214,167.88052h6.21142l-3.10571,8.16753z" fill="#3c71ff" stroke="none" stroke-width="0" stroke-linecap="butt" stroke-linejoin="miter"/><path d="M218.06644,167.88052h6.21142l-3.10572,8.16753z" fill="#fffa3d" stroke="none" stroke-width="0" stroke-linecap="butt" stroke-linejoin="miter"/><path d="M214.66193,166.60227c0,0 16.91343,2.96591 25.36373,2.96591c8.44174,0 25.31241,-2.96591 25.31241,-2.96591" fill="none" stroke="#b4b4b4" stroke-width="1.5" stroke-linecap="round" stroke-linejoin="miter"/><path d="M261.0582,192.87987v1.77166" fill="none" stroke="#767676" stroke-width="1.5" stroke-linecap="round" stroke-linejoin="miter"/><path d="M264.35918,192.07005c0.1354,0.58034 -1.62122,1.48625 -3.92352,2.02341c-2.3023,0.53716 -4.27846,0.50215 -4.41386,-0.07819c-0.1354,-0.58034 1.62123,-1.48625 3.92353,-2.02341c2.3023,-0.53716 4.27845,-0.50216 4.41385,0.07818z" fill="none" stroke="#ed5252" stroke-width="1.5" stroke-linecap="butt" stroke-linejoin="miter"/><path d="M261.0582,190.88676v1.77166" fill="none" stroke="#767676" stroke-width="1.5" stroke-linecap="round" stroke-linejoin="miter"/><path d="M265.08905,192.71709c-0.1536,0.61429 -2.12988,0.58524 -4.41413,-0.06487c-2.28425,-0.65011 -4.01149,-1.6751 -3.85789,-2.28939c0.1536,-0.61429 2.12988,-0.58525 4.41414,0.06487c2.28425,0.65011 4.01148,1.67511 3.85788,2.2894z" fill="none" stroke="#edd253" stroke-width="1.5" stroke-linecap="butt" stroke-linejoin="miter"/><path d="M261.0582,191.17465v-3.08153" fill="none" stroke="#767676" stroke-width="1.5" stroke-linecap="round" stroke-linejoin="miter"/></g></g></svg>