<svg version="1.1" xmlns="http://www.w3.org/2000/svg" xmlns:xlink="http://www.w3.org/1999/xlink" width="487.5" height="490.58478" viewBox="0,0,487.5,490.58478"><defs><linearGradient x1="240" y1="-162.83478" x2="240" y2="-3.72967" gradientUnits="userSpaceOnUse" id="color-1"><stop offset="0" stop-color="#00d0ff" stop-opacity="0"/><stop offset="1" stop-color="#00d0ff" stop-opacity="0.50196"/></linearGradient><linearGradient x1="49.25078" y1="263.14389" x2="49.25078" y2="286.03389" gradientUnits="userSpaceOnUse" id="color-2"><stop offset="0" stop-color="#666666" stop-opacity="0"/><stop offset="1" stop-color="#666666"/></linearGradient></defs><g transform="translate(3.75,162.83477)"><g stroke-miterlimit="10"><path d="M0,-3.72967v-159.1051h480v159.10511z" fill="url(#color-1)" stroke="none" stroke-width="0" stroke-linecap="butt" stroke-linejoin="miter"/><path d="M0,324v-323.99999h480v324z" fill="none" stroke-opacity="0.50196" stroke="#00d0ff" stroke-width="7.5" stroke-linecap="butt" stroke-linejoin="miter"/><path d="M91.8702,236.24289v81.378h-85.45843v-81.378z" fill="#333333" stroke="#333333" stroke-width="7.5" stroke-linecap="butt" stroke-linejoin="round"/><g stroke-linecap="butt"><path d="M31.25078,276.08389v-21h36v21z" fill-opacity="0.70196" fill="#a3cccc" stroke="#666666" stroke-width="2" stroke-linejoin="round"/><path d="M60.99011,276.08389l-6.6322,-21h4.82079l6.63219,21z" fill-opacity="0.40392" fill="#cccccc" stroke="none" stroke-width="0" stroke-linejoin="miter"/><path d="M55.88299,276.08389l-6.6322,-21h2.68278l6.63219,21z" fill-opacity="0.40392" fill="#cccccc" stroke="none" stroke-width="0" stroke-linejoin="miter"/><path d="M8.75078,292.58389v-54h81v54zM67.25078,276.08389v-21h-36v21z" fill="#cdbeb2" stroke="#666666" stroke-width="3" stroke-linejoin="round"/></g><text transform="translate(24.29078,309.76389) scale(0.34,0.34)" font-size="40" xml:space="preserve" fill="#ffffff" stroke="none" stroke-width="1" stroke-linecap="butt" stroke-linejoin="miter" font-family="Sans Serif" font-weight="400" text-anchor="start"><tspan x="0" dy="0">35,000G</tspan></text><path d="M8.75078,292.58389v-29.43h81v29.43z" fill="url(#color-2)" stroke="none" stroke-width="1" stroke-linecap="butt" stroke-linejoin="miter"/><text transform="translate(10.25078,287.39389) scale(0.31,0.31)" font-size="40" xml:space="preserve" fill="#ffffff" stroke="none" stroke-width="1" stroke-linecap="butt" stroke-linejoin="miter" font-family="Sans Serif" font-weight="400" text-anchor="start"><tspan x="0" dy="0">増設</tspan></text><path d="M10.18078,307.15389l-1.43,-3.59l8.61,-3.43l1.43,3.59z" fill="#ffffff" stroke="#ffffff" stroke-width="2" stroke-linecap="butt" stroke-linejoin="round"/><path d="M14.48078,305.44389l2.32,5.82" fill="none" stroke="#ffffff" stroke-width="2" stroke-linecap="round" stroke-linejoin="miter"/></g></g></svg>