<svg version="1.1" xmlns="http://www.w3.org/2000/svg" xmlns:xlink="http://www.w3.org/1999/xlink" width="109.68083" height="61.5" viewBox="0,0,109.68083,61.5"><defs><linearGradient x1="201.03976" y1="160.93624" x2="201.03976" y2="173.59289" gradientUnits="userSpaceOnUse" id="color-1"><stop offset="0" stop-color="#ffef62" stop-opacity="0"/><stop offset="1" stop-color="#ffef62"/></linearGradient><linearGradient x1="217.905" y1="170.805" x2="217.905" y2="186.075" gradientUnits="userSpaceOnUse" id="color-2"><stop offset="0" stop-color="#666666" stop-opacity="0"/><stop offset="1" stop-color="#666666"/></linearGradient></defs><g transform="translate(-185.905,-149.125)"><g stroke-miterlimit="10"><path d="M290.655,152.875v54h-101v-54z" fill="#333333" fill-rule="nonzero" stroke="#333333" stroke-width="7.5" stroke-linecap="butt" stroke-linejoin="round"/><g fill-rule="nonzero"><path d="M215.05984,186.45798v-25.52174h17.64586v25.52174z" fill-opacity="0.70196" fill="#a3cccc" stroke="none" stroke-width="0" stroke-linecap="butt" stroke-linejoin="round"/><path d="M226.8911,186.45798l-6.15967,-25.52174h4.47731l6.15965,25.52174z" fill-opacity="0.40392" fill="#cccccc" stroke="none" stroke-width="0" stroke-linecap="butt" stroke-linejoin="miter"/><path d="M222.14785,186.45798l-6.15967,-25.52174h2.49163l6.15966,25.52174z" fill-opacity="0.40392" fill="#cccccc" stroke="none" stroke-width="0" stroke-linecap="butt" stroke-linejoin="miter"/><path d="M190.905,190.44096v-36h54v36zM232.7057,186.45798v-25.52174h-17.64586v25.52174z" fill="#cdbeb2" stroke="#666666" stroke-width="2" stroke-linecap="butt" stroke-linejoin="round"/><path d="M193.95266,178.41082l3.42568,-1.74622l2.67419,5.24615l-3.42568,1.74622z" fill="#a9a3bf" stroke="#a9a3bf" stroke-width="1.5" stroke-linecap="butt" stroke-linejoin="round"/><path d="M199.59064,181.10824v-1.53055h16.98161v1.53055z" fill="#8a7a99" stroke="#897a99" stroke-width="1.5" stroke-linecap="butt" stroke-linejoin="round"/><path d="M207.27356,181.10824v-2h5.41802v2z" fill="#959199" stroke="#959199" stroke-width="1.5" stroke-linecap="butt" stroke-linejoin="round"/><path d="M191.905,187.47411v-11.01504h3.48747v4.96992h22.51253v6.04512z" fill="#bf8956" stroke="none" stroke-width="1" stroke-linecap="butt" stroke-linejoin="miter"/><path d="M195.74917,184.95331v-3.84507h21.48946v3.84507z" fill="#cccccc" stroke="#cccccc" stroke-width="1.5" stroke-linecap="butt" stroke-linejoin="round"/><path d="M237.97998,187.47411v-5.79182" fill="none" stroke="#bf8956" stroke-width="1.5" stroke-linecap="round" stroke-linejoin="miter"/><path d="M234.97967,177.48654h-8.28326" fill="none" stroke="#bf8956" stroke-width="1.5" stroke-linecap="round" stroke-linejoin="miter"/><path d="M230.83804,187.47411v-9.98757" fill="none" stroke="#bf8956" stroke-width="1.5" stroke-linecap="round" stroke-linejoin="miter"/><path d="M243.10477,175.38577c0,0 -1.12991,3.67633 -2.48415,4.892c-0.87121,0.78206 -3.11413,1.00826 -4.85393,1.7811c-1.69398,0.75248 -2.89721,2.06218 -2.89721,2.06218" fill="none" stroke="#bf8956" stroke-width="1.5" stroke-linecap="round" stroke-linejoin="miter"/><path d="M242.84005,175.12106c0,0 -1.12991,3.67633 -2.48415,4.892c-0.87121,0.78206 -3.11413,1.00826 -4.85393,1.7811c-1.69397,0.75248 -2.8972,2.06218 -2.8972,2.06218" fill="none" stroke="#b3b3b3" stroke-width="1.5" stroke-linecap="round" stroke-linejoin="miter"/><path d="M203.37153,167.26457c0,3.49504 -1.04397,2.90662 -2.33176,2.90662c-1.2878,0 -2.33176,0.58842 -2.33176,-2.90662c0,-3.49504 1.04397,-6.32833 2.33176,-6.32833c1.2878,0 2.33176,2.83329 2.33176,6.32833z" fill="url(#color-1)" stroke="none" stroke-width="0" stroke-linecap="butt" stroke-linejoin="miter"/><path d="M203.37153,169.1249c0,1.56097 -1.04397,2.82638 -2.33176,2.82638c-1.2878,0 -2.33176,-1.26541 -2.33176,-2.82638c0,-1.56097 1.04397,-1.88425 2.33176,-1.88425c1.2878,0 2.33176,0.32329 2.33176,1.88425z" fill="#90867e" stroke="none" stroke-width="0" stroke-linecap="butt" stroke-linejoin="miter"/></g><path d="M254.675,178.975l-1.96,2.07l-1.96,-2.07" fill="none" fill-rule="nonzero" stroke="#eeeeee" stroke-width="4" stroke-linecap="round" stroke-linejoin="miter"/><path d="M190.905,190.435v-19.62h54v19.62z" fill="url(#color-2)" fill-rule="nonzero" stroke="none" stroke-width="1" stroke-linecap="butt" stroke-linejoin="miter"/><text transform="translate(201.265,201.895) scale(0.23,0.23)" font-size="40" xml:space="preserve" fill="#ffffff" fill-rule="nonzero" stroke="none" stroke-width="1" stroke-linecap="butt" stroke-linejoin="miter" font-family="Sans Serif" font-weight="400" text-anchor="start"><tspan x="0" dy="0">310,000G</tspan></text><text transform="translate(259.725,161.015) scale(0.23,0.23)" font-size="40" xml:space="preserve" fill="#eeeeee" fill-rule="nonzero" stroke="none" stroke-width="1" stroke-linecap="butt" stroke-linejoin="miter" font-family="Sans Serif" font-weight="400" text-anchor="start"><tspan x="0" dy="0">15,000G</tspan></text><text transform="translate(259.725,171.865) scale(0.23,0.23)" font-size="40" xml:space="preserve" fill="#eeeeee" fill-rule="nonzero" stroke="none" stroke-width="1" stroke-linecap="butt" stroke-linejoin="miter" font-family="Sans Serif" font-weight="400" text-anchor="start"><tspan x="0" dy="0">1,700G</tspan></text><text transform="translate(259.725,182.715) scale(0.23,0.23)" font-size="40" xml:space="preserve" fill="#eeeeee" fill-rule="nonzero" stroke="none" stroke-width="1" stroke-linecap="butt" stroke-linejoin="miter" font-family="Sans Serif" font-weight="400" text-anchor="start"><tspan x="0" dy="0">10%</tspan></text><text transform="translate(259.725,193.565) scale(0.23,0.23)" font-size="40" xml:space="preserve" fill="#eeeeee" fill-rule="nonzero" stroke="none" stroke-width="1" stroke-linecap="butt" stroke-linejoin="miter" font-family="Sans Serif" font-weight="400" text-anchor="start"><tspan x="0" dy="0">-6</tspan></text><text transform="translate(259.725,204.415) scale(0.23,0.23)" font-size="40" xml:space="preserve" fill="#eeeeee" fill-rule="nonzero" stroke="none" stroke-width="1" stroke-linecap="butt" stroke-linejoin="miter" font-family="Sans Serif" font-weight="400" text-anchor="start"><tspan x="0" dy="0">-3</tspan></text><text transform="translate(191.905,186.975) scale(0.21,0.21)" font-size="40" xml:space="preserve" fill="#ffffff" fill-rule="nonzero" stroke="none" stroke-width="1" stroke-linecap="butt" stroke-linejoin="miter" font-family="Sans Serif" font-weight="400" text-anchor="start"><tspan x="0" dy="0">洋風な客室</tspan></text><path d="M254.295,186.785c0.32,-0.29 0.47,-0.2 0.33,0.21l-0.87,2.69c-0.13,0.42 0.09,0.86 0.51,0.99l0.32,0.1c0.41,0.13 0.49,0.48 0.17,0.77l-3.61,3.35c-0.32,0.29 -0.47,0.2 -0.33,-0.21l0.87,-2.69c0.13,-0.42 -0.09,-0.86 -0.51,-0.99l-0.31,-0.1c-0.41,-0.13 -0.49,-0.48 -0.17,-0.77zM250.055,203.115c0,-1.47 2.66,-5.49 2.66,-5.49c0,0 2.66,4.02 2.66,5.49c0,1.47 -1.19,2.66 -2.66,2.66c-1.47,0 -2.66,-1.19 -2.66,-2.66z" fill="#eeeeee" fill-rule="nonzero" stroke="#eeeeee" stroke-width="0.65" stroke-linecap="butt" stroke-linejoin="miter"/><path d="M191.855,200.155l-0.95,-2.39l5.74,-2.29l0.95,2.39zM255.835,159.085l-0.04,3.17l-0.94,-0.33l-0.55,-1.77l-1.56,1.03l-3.15,-1.11l1.97,-2.49z" fill="#ffffff" fill-rule="nonzero" stroke="#ffffff" stroke-width="1.25" stroke-linecap="butt" stroke-linejoin="round"/><path d="M194.725,199.015l1.55,3.88M255.115,154.335l-1.41,3.99" fill="none" fill-rule="nonzero" stroke="#ffffff" stroke-width="1.25" stroke-linecap="round" stroke-linejoin="miter"/><path d="M253.445,166.095c0.03,-0.02 0.09,-0.01 0.09,0.03l0.27,1.13c0,0 0.67,0.49 0.87,0.84c0.34,0.58 0.35,1.05 0.35,1.05c0,0 0.75,0.22 0.87,0.82c0.13,0.6 -0.34,1.73 -2.31,2.13c-1.98,0.39 -3.57,-0.15 -4.31,-1.35c-0.75,-1.2 0.43,-2.63 0.37,-2.55l-0.22,-1.89c-0.01,-0.04 0.04,-0.07 0.09,-0.05l1.27,0.83c0,0 0.47,-0.18 0.97,-0.2c0.29,-0.02 0.55,0 0.79,0.04z" fill="#eeeeee" fill-rule="nonzero" stroke="#eeeeee" stroke-width="0.65" stroke-linecap="butt" stroke-linejoin="miter"/><path d="M256.945,169.305c-0.49,0.4 -1.25,0.41 -1.25,0.41M256.805,170.485c-0.66,0.05 -1.07,-0.15 -1.07,-0.15M248.495,169.275c0,0 0.91,0.29 1.27,0.62M249.795,170.265c-0.45,0.18 -1.23,0.06 -1.23,0.06" fill="none" fill-rule="nonzero" stroke="#eeeeee" stroke-width="0.65" stroke-linecap="round" stroke-linejoin="miter"/><text transform="translate(196.51457,208.46654) scale(0.11803,0.11803)" font-size="40" xml:space="preserve" fill="#cccccc" fill-rule="nonzero" stroke="none" stroke-width="1" stroke-linecap="butt" stroke-linejoin="miter" font-family="Sans Serif" font-weight="400" text-anchor="start"><tspan x="0" dy="0">Lv.13</tspan></text><path d="M192.39673,206.48984c0.35371,-0.09488 0.62995,-0.37113 0.72483,-0.72484l0.2162,-0.80411c0.10269,-0.38013 0.64197,-0.38013 0.74406,0l0.21679,0.80411c0.09488,0.35371 0.37113,0.62996 0.72423,0.72484l0.80411,0.21619c0.38013,0.10269 0.38013,0.64196 0,0.74465l-0.80411,0.2162c-0.35311,0.09488 -0.62935,0.37113 -0.72423,0.72423l-0.21679,0.80411c-0.10209,0.38013 -0.64137,0.38013 -0.74406,0l-0.2162,-0.80411c-0.09488,-0.35311 -0.37112,-0.62935 -0.72483,-0.72423l-0.80411,-0.2162c-0.38013,-0.10269 -0.38013,-0.64196 0,-0.74465z" fill="#cccccc" fill-rule="evenodd" stroke="none" stroke-width="1" stroke-linecap="butt" stroke-linejoin="miter"/></g></g></svg>