<svg version="1.1" xmlns="http://www.w3.org/2000/svg" xmlns:xlink="http://www.w3.org/1999/xlink" width="56" height="38" viewBox="0,0,56,38"><defs><radialGradient cx="243.347" cy="169.6619" r="5.76077" gradientUnits="userSpaceOnUse" id="color-1"><stop offset="0" stop-color="#ac8c4f"/><stop offset="1" stop-color="#ac8c4f" stop-opacity="0"/></radialGradient><radialGradient cx="225.90949" cy="169.6619" r="5.76077" gradientUnits="userSpaceOnUse" id="color-2"><stop offset="0" stop-color="#ac8c4f"/><stop offset="1" stop-color="#ac8c4f" stop-opacity="0"/></radialGradient></defs><g transform="translate(-212,-161)"><g stroke-miterlimit="10"><path d="M213,198v-36h54v36z" fill="#746343" stroke="#666666" stroke-width="2" stroke-linecap="butt" stroke-linejoin="round"/><path d="M240.50775,189.21456l-5.46457,-16.30757h3.97206l5.46456,16.30757z" fill="#ffffff" stroke="none" stroke-width="0" stroke-linecap="butt" stroke-linejoin="miter"/><path d="M236.29976,189.21456l-5.46456,-16.30757h2.21047l5.46456,16.30757z" fill="#ffffff" stroke="none" stroke-width="0" stroke-linecap="butt" stroke-linejoin="miter"/><path d="M221.70783,189.21456v-16.30757h23.72072v16.30757z" fill-opacity="0.70196" fill="#a3cccc" stroke="#666666" stroke-width="1.5" stroke-linecap="butt" stroke-linejoin="round"/><path d="M254.0249,195.03315v-20.40484h10.71723v20.40484z" fill="#6b4e1d" stroke="#666666" stroke-width="1.5" stroke-linecap="butt" stroke-linejoin="round"/><path d="M256.12668,184.06786v-6.77493h6.51366v6.77493z" fill="#9cd0db" stroke="#666666" stroke-width="1.5" stroke-linecap="butt" stroke-linejoin="round"/><path d="M257.78796,186.54769h-1.66127" fill="none" stroke="#666666" stroke-width="1.5" stroke-linecap="round" stroke-linejoin="miter"/><path d="M218.82984,195.03315h1.50257" fill="none" stroke="#cd9355" stroke-width="1.5" stroke-linecap="round" stroke-linejoin="miter"/><path d="M219.58112,184.91379v10.11936" fill="none" stroke="#cd9355" stroke-width="1.5" stroke-linecap="round" stroke-linejoin="miter"/><path d="M215.1312,184.91379h8.89983" fill="none" stroke="#cd9355" stroke-width="1.5" stroke-linecap="round" stroke-linejoin="miter"/><path d="M220.6116,180.43411l-1.21658,1.18761l-0.46345,-1.68004" fill="none" stroke="#2ea73c" stroke-width="1" stroke-linecap="round" stroke-linejoin="miter"/><path d="M219.75709,179.7534l-0.07242,2.15798l-1.0283,-1.34693" fill="none" stroke="#2ea73c" stroke-width="1" stroke-linecap="round" stroke-linejoin="miter"/><path d="M218.37406,184.33588v-2.9841h2.41412v2.9841z" fill="#6b6b6b" stroke="none" stroke-width="0" stroke-linecap="butt" stroke-linejoin="miter"/><path d="M231.74083,195.03315v-8.81458h2.79079v3.97709h18.01524v4.8375z" fill="#9f6e57" stroke="none" stroke-width="1" stroke-linecap="butt" stroke-linejoin="miter"/><path d="M234.53162,190.19566v-2.0066h3.55367v2.0066z" fill="#bfbfbf" stroke="none" stroke-width="0" stroke-linecap="butt" stroke-linejoin="miter"/><path d="M238.08527,190.19566v-1.60046h14.01157v1.60046z" fill="#a01e1e" stroke="none" stroke-width="0" stroke-linecap="butt" stroke-linejoin="miter"/><path d="M230.77619,190.45067h-4.27457l-0.75162,-6.95856" fill="none" stroke="#b37431" stroke-width="1.5" stroke-linecap="round" stroke-linejoin="miter"/><path d="M228.26309,195.03315v-4.58248" fill="none" stroke="#b37431" stroke-width="1.5" stroke-linecap="round" stroke-linejoin="miter"/><path d="M224.80444,190.45067h-4.27457l-0.75162,-6.95856" fill="none" stroke="#b37431" stroke-width="1.5" stroke-linecap="round" stroke-linejoin="miter"/><path d="M222.29135,195.03315v-4.58248" fill="none" stroke="#b37431" stroke-width="1.5" stroke-linecap="round" stroke-linejoin="miter"/><path d="M230.87248,190.10393h-4.06157l-0.71417,-6.61182" fill="none" stroke="#b3a291" stroke-width="1.5" stroke-linecap="round" stroke-linejoin="miter"/><path d="M243.42614,162v4.38362" fill="none" stroke="#666666" stroke-width="2" stroke-linecap="round" stroke-linejoin="miter"/><path d="M249.18691,171.89113c0,3.04172 -2.57918,5.50752 -5.76077,5.50752c-3.18159,0 -5.76077,-2.4658 -5.76077,-5.50752c0,-3.04172 2.57918,-5.50752 5.76077,-5.50752c3.18159,0 5.76077,2.4658 5.76077,5.50752z" fill="url(#color-1)" stroke="none" stroke-width="0" stroke-linecap="butt" stroke-linejoin="miter"/><path d="M240.4458,168.96147c0,-1.42371 1.33434,-2.57786 2.98034,-2.57786c1.646,0 2.98034,1.15415 2.98034,2.57786c0,1.42371 -1.33434,1.22605 -2.98034,1.22605c-1.646,0 -2.98034,0.19766 -2.98034,-1.22605z" fill="#666666" stroke="#666666" stroke-width="2" stroke-linecap="butt" stroke-linejoin="miter"/><path d="M225.98863,162v4.38362" fill="none" stroke="#666666" stroke-width="2" stroke-linecap="round" stroke-linejoin="miter"/><path d="M231.7494,171.89113c0,3.04172 -2.57918,5.50752 -5.76077,5.50752c-3.18159,0 -5.76077,-2.4658 -5.76077,-5.50752c0,-3.04172 2.57918,-5.50752 5.76077,-5.50752c3.18159,0 5.76077,2.4658 5.76077,5.50752z" fill="url(#color-2)" stroke="none" stroke-width="0" stroke-linecap="butt" stroke-linejoin="miter"/><path d="M223.00829,168.96147c0,-1.42371 1.33434,-2.57786 2.98034,-2.57786c1.646,0 2.98034,1.15415 2.98034,2.57786c0,1.42371 -1.33434,1.22605 -2.98034,1.22605c-1.646,0 -2.98034,0.19766 -2.98034,-1.22605z" fill="#666666" stroke="#666666" stroke-width="2" stroke-linecap="butt" stroke-linejoin="miter"/><path d="M214,197.03315v-2h52v2z" fill="#cccccc" stroke="none" stroke-width="0" stroke-linecap="butt" stroke-linejoin="miter"/></g></g></svg>