<svg version="1.1" xmlns="http://www.w3.org/2000/svg" xmlns:xlink="http://www.w3.org/1999/xlink" width="1460.00001" height="38" viewBox="0,0,1460.00001,38"><g transform="translate(490,-161)"><g stroke-miterlimit="10"><path d="M-488.99999,198v-36h1458.00001v36z" fill="#4c4c4c" stroke="#666666" stroke-width="2" stroke-linecap="butt" stroke-linejoin="round"/><path d="M98.17606,196.03315v-5.28841h283.6479v5.28841z" fill="#bfbfbf" stroke="#c0c0c0" stroke-width="2" stroke-linecap="butt" stroke-linejoin="round"/><path d="M154.5865,184.42877v-15.16435h28.57324v15.16435z" fill="#428033" stroke="#c0c0c0" stroke-width="2" stroke-linecap="butt" stroke-linejoin="round"/><path d="M203.6167,190.74475v-4.35637h16.17496v4.35637z" fill="none" stroke="#c0c0c0" stroke-width="2" stroke-linecap="butt" stroke-linejoin="miter"/><path d="M200.33116,187.77454v-7.67867h23.12515v7.67867z" fill="#00ffff" stroke="none" stroke-width="0" stroke-linecap="butt" stroke-linejoin="miter"/><path d="M200.33116,187.77454v-2.40134h23.12515v2.40134z" fill="#00cccc" stroke="none" stroke-width="0" stroke-linecap="butt" stroke-linejoin="miter"/><g stroke-linejoin="miter"><path d="M320.50893,189.25042v-21.3733h12.88624v21.3733z" fill="#436bc5" stroke="#666666" stroke-width="1" stroke-linecap="butt"/><path d="M322.23276,179.96123v-9.90316h9.4386v9.90316z" fill="#ffffff" stroke="none" stroke-width="0" stroke-linecap="butt"/><path d="M329.76191,173.29671h-5.61973" fill="none" stroke="#e6e6e6" stroke-width="1" stroke-linecap="round"/><path d="M324.14219,176.83977h5.61973" fill="none" stroke="#e6e6e6" stroke-width="1" stroke-linecap="round"/><path d="M322.23276,184.21579v-2.96269h4.09105v2.96269z" fill="#666666" stroke="none" stroke-width="0" stroke-linecap="butt"/><path d="M331.67134,182.39856c0,0.74678 -0.77941,1.35216 -1.74087,1.35216c-0.96146,0 -1.74088,-0.60538 -1.74088,-1.35216c0,-0.74678 0.77942,-1.35215 1.74088,-1.35215c0.96146,0 1.74087,0.60537 1.74087,1.35215z" fill="#585858" stroke="none" stroke-width="0" stroke-linecap="butt"/><path d="M328.40357,184.58612h3.05379" fill="none" stroke="#666666" stroke-width="1" stroke-linecap="round"/><path d="M322.23276,187.38518v-1.25844h9.4386v1.25844z" fill="#666666" stroke="none" stroke-width="0" stroke-linecap="butt"/></g><path d="M111.5448,190.74475v-4.35637h16.17496v4.35637z" fill="none" stroke="#c0c0c0" stroke-width="2" stroke-linecap="butt" stroke-linejoin="miter"/><path d="M108.25927,187.77454v-7.67867h23.12515v7.67867z" fill="#00ffff" stroke="none" stroke-width="0" stroke-linecap="butt" stroke-linejoin="miter"/><path d="M108.25927,187.77454v-2.40134h23.12515v2.40134z" fill="#00cccc" stroke="none" stroke-width="0" stroke-linecap="butt" stroke-linejoin="miter"/><path d="M352.28026,190.74475v-4.35637h16.17496v4.35637z" fill="none" stroke="#c0c0c0" stroke-width="2" stroke-linecap="butt" stroke-linejoin="miter"/><path d="M348.6156,187.77454v-7.67867h23.12515v7.67867z" fill="#00ffff" stroke="none" stroke-width="0" stroke-linecap="butt" stroke-linejoin="miter"/><path d="M348.6156,187.77454v-2.40134h23.12515v2.40134z" fill="#00cccc" stroke="none" stroke-width="0" stroke-linecap="butt" stroke-linejoin="miter"/><g stroke-linejoin="miter"><path d="M302.96749,189.25042v-21.3733h12.88624v21.3733z" fill="#d42a2a" stroke="#666666" stroke-width="1" stroke-linecap="butt"/><path d="M304.6913,179.96123v-9.90316h9.4386v9.90316z" fill="#ffffff" stroke="none" stroke-width="0" stroke-linecap="butt"/><path d="M312.22047,173.29671h-5.61973" fill="none" stroke="#e6e6e6" stroke-width="1" stroke-linecap="round"/><path d="M306.60074,176.83977h5.61973" fill="none" stroke="#e6e6e6" stroke-width="1" stroke-linecap="round"/><path d="M304.6913,184.21579v-2.96269h4.09105v2.96269z" fill="#666666" stroke="none" stroke-width="0" stroke-linecap="butt"/><path d="M314.12989,182.39856c0,0.74678 -0.77941,1.35216 -1.74087,1.35216c-0.96146,0 -1.74088,-0.60538 -1.74088,-1.35216c0,-0.74678 0.77942,-1.35215 1.74088,-1.35215c0.96146,0 1.74087,0.60537 1.74087,1.35215z" fill="#585858" stroke="none" stroke-width="0" stroke-linecap="butt"/><path d="M310.86213,184.58612h3.05379" fill="none" stroke="#666666" stroke-width="1" stroke-linecap="round"/><path d="M304.6913,187.38518v-1.25844h9.4386v1.25844z" fill="#666666" stroke="none" stroke-width="0" stroke-linecap="butt"/></g><path d="M380.5468,191.90869h-281.0936" fill="none" stroke="#d3e600" stroke-width="2" stroke-linecap="round" stroke-linejoin="miter"/></g></g></svg>