<svg version="1.1" xmlns="http://www.w3.org/2000/svg" xmlns:xlink="http://www.w3.org/1999/xlink" width="56" height="38" viewBox="0,0,56,38"><defs><linearGradient x1="245.94548" y1="173.11579" x2="245.94548" y2="182.7183" gradientUnits="userSpaceOnUse" id="color-1"><stop offset="0" stop-color="#aac8d6" stop-opacity="0.87059"/><stop offset="1" stop-color="#aac8d6" stop-opacity="0"/></linearGradient></defs><g transform="translate(-212,-161)"><g stroke-miterlimit="10"><path d="M213,198v-36h54v36z" fill="#ce95c9" fill-rule="nonzero" stroke="#666666" stroke-width="2" stroke-linecap="butt" stroke-linejoin="round"/><g fill-rule="evenodd" stroke-width="0.25"><path d="M249.34679,168.11987c0.49383,-0.08588 1.00912,-0.12882 1.61029,-0.08588c1.00911,0.04294 1.97528,0.40794 1.97528,0.40794l2.59793,-1.69617c0.08588,-0.04294 0.19323,0.02147 0.17176,0.10735l-0.45088,3.84321c-0.12882,-0.17177 2.27587,2.74822 0.75147,5.19585c-1.5244,2.44763 -4.76644,3.54263 -8.80289,2.74822c-4.03644,-0.79441 -4.98115,-3.11322 -4.7235,-4.33704c0.25765,-1.22382 1.78205,-1.6747 1.78205,-1.6747c0,0 0.02147,-0.96617 0.70853,-2.14705c0.40794,-0.70853 1.78205,-1.71764 1.78205,-1.71764l0.55823,-2.29734c0.02147,-0.08588 0.12882,-0.10735 0.19323,-0.06441z" fill="#ffab19" stroke="#001026" stroke-linecap="butt" stroke-linejoin="miter"/><path d="M244.3227,172.71454c1.82499,-0.40794 1.99676,0.9447 3.54263,1.05205c1.80352,0.12882 4.27263,-1.82499 5.71115,0.47235c1.43852,2.27587 -1.03059,5.36761 -6.22644,4.29409c-3.9935,-0.77293 -5.02409,-2.98439 -4.76644,-4.20821c0.25765,-1.22382 1.73911,-1.61029 1.73911,-1.61029z" fill="#ffffff" stroke="none" stroke-linecap="butt" stroke-linejoin="miter"/><path d="M251.08592,175.01189c0.06441,1.05206 -0.12883,2.42617 -2.08264,2.64087c-2.2544,0.12882 -3.07028,-1.48147 -3.26351,-2.06117c-0.04294,-0.10735 0.04294,-0.2147 0.15029,-0.19323c0.32206,0.06441 1.00911,0.12882 2.16852,0.06441c1.28823,-0.08588 2.44763,-0.42941 2.85557,-0.5797c0.08588,-0.02147 0.17176,0.04294 0.17176,0.12882z" fill="#ffffff" stroke="#001026" stroke-linecap="round" stroke-linejoin="round"/><path d="M242.92713,173.78808c0,0 -1.54588,-0.02147 -2.55499,-0.83735" fill="none" stroke="#001026" stroke-linecap="round" stroke-linejoin="round"/><path d="M242.84125,175.0548c0,0 -0.83735,0.40794 -2.18999,0.30059" fill="none" stroke="#001026" stroke-linecap="round" stroke-linejoin="round"/><path d="M247.95122,173.20835c0.42941,0 1.00911,0.02147 0.98764,0.27912c0,0.34353 -0.90176,0.88029 -1.28823,0.83735c-0.34352,-0.02147 -0.66558,-0.62264 -0.64411,-0.92323c0.02147,-0.15029 0.49382,-0.19323 0.9447,-0.19323z" fill="#001026" stroke="#001026" stroke-linecap="round" stroke-linejoin="round"/><path d="M255.015,174.15306c0.75147,-0.66559 2.59793,-1.26676 2.59793,-1.26676" fill="none" stroke="#001026" stroke-linecap="round" stroke-linejoin="round"/><path d="M257.46264,175.03336c0,0 -1.58882,0.23618 -2.51205,-0.12882" fill="none" stroke="#001026" stroke-linecap="round" stroke-linejoin="round"/><g><path d="M247.65063,169.66575c0.60117,0.38646 0.5797,1.48146 -0.04294,2.44763c-0.64412,0.96617 -1.63176,1.41705 -2.23293,1.03058c-0.60117,-0.38646 -0.5797,-1.48146 0.04294,-2.44763c0.62264,-0.96617 1.63176,-1.43852 2.23293,-1.03058z" fill="#ffffff" stroke="#001026" stroke-linecap="round" stroke-linejoin="round"/><path d="M245.50358,171.92012c0,-0.23618 0.17177,-0.42941 0.38647,-0.42941c0.21471,0 0.38647,0.19323 0.38647,0.42941c0,0.23618 -0.17177,0.42941 -0.38647,0.42941c-0.21471,0 -0.38647,-0.19323 -0.38647,-0.42941" fill="#001026" stroke="none" stroke-linecap="butt" stroke-linejoin="miter"/></g><g><path d="M253.06119,170.33131c0.66559,0.47235 0.62264,1.69617 -0.04294,2.64087c-0.64411,0.9447 -1.58881,1.24529 -2.29734,0.83735c-0.5797,-0.40794 -0.62264,-1.56735 0.02147,-2.51205c0.64411,-0.9447 1.65323,-1.45999 2.31881,-0.96617z" fill="#ffffff" stroke="#001026" stroke-linecap="round" stroke-linejoin="round"/><path d="M250.8712,172.54279c0,-0.23618 0.17177,-0.40794 0.38647,-0.42941c0.21471,0 0.38647,0.19323 0.38647,0.42941c0,0.23618 -0.17177,0.42941 -0.38647,0.42941c-0.21471,0 -0.38647,-0.19323 -0.38647,-0.42941" fill="#001026" stroke="none" stroke-linecap="butt" stroke-linejoin="miter"/></g></g><path d="M265.5,178.38775v4.33055h-39.10905l0.84728,-4.33055z" fill="#a6cbd2" fill-rule="nonzero" stroke="none" stroke-width="0" stroke-linecap="butt" stroke-linejoin="miter"/><g fill-rule="nonzero" stroke="#666666" stroke-width="0.5" stroke-linecap="butt" stroke-linejoin="round"><path d="M256.31996,181.83336v-2.93724h8.10564v2.93724z" fill="#ce95c9"/><path d="M246.85866,181.83336v-2.93724h8.10565v2.93724z" fill="#cfc595"/><path d="M237.39736,181.83336v-2.93724h8.10565v2.93724z" fill="#a0cfbb"/><path d="M227.93606,181.83336v-2.93724h8.10565v2.93724z" fill="#c2cdcf"/></g><path d="M226.39095,194.53315v-11.81485h39.10905v11.81485z" fill="#73a8bf" fill-rule="nonzero" stroke="#666666" stroke-width="1" stroke-linecap="butt" stroke-linejoin="miter"/><path d="M265.5,173.11579v9.60251h-39.10905l1.69456,-9.60251z" fill="url(#color-1)" fill-rule="nonzero" stroke="#666666" stroke-width="1" stroke-linecap="butt" stroke-linejoin="miter"/><path d="M214,197.03315v-2h52v2z" fill="#cccccc" fill-rule="nonzero" stroke="none" stroke-width="0" stroke-linecap="butt" stroke-linejoin="miter"/><path d="M224.18348,180.23172l-4.28862,13.85189h-4.93247v-13.90454h11.42856" fill="none" fill-rule="nonzero" stroke="#b37d50" stroke-width="2" stroke-linecap="butt" stroke-linejoin="round"/><path d="M229.12345,195.03315v-8.45036h7.09163l-0.0167,-11.02478l-0.00047,19.40733" fill="none" fill-rule="nonzero" stroke="#a1724b" stroke-width="2" stroke-linecap="butt" stroke-linejoin="round"/><path d="M234.73184,184.66891h-5.84942" fill="none" fill-rule="nonzero" stroke="#5e5e5e" stroke-width="2" stroke-linecap="round" stroke-linejoin="miter"/></g></g></svg>