<svg version="1.1" xmlns="http://www.w3.org/2000/svg" xmlns:xlink="http://www.w3.org/1999/xlink" width="108.5" height="61.5" viewBox="0,0,108.5,61.5"><defs><linearGradient x1="203.405" y1="154.435" x2="203.405" y2="161.91489" gradientUnits="userSpaceOnUse" id="color-1"><stop offset="0" stop-color="#e9dad9"/><stop offset="1" stop-color="#cfada7"/></linearGradient><linearGradient x1="196.03663" y1="156.18209" x2="196.03663" y2="160.09395" gradientUnits="userSpaceOnUse" id="color-2"><stop offset="0" stop-color="#7c583a"/><stop offset="1" stop-color="#59391d"/></linearGradient><linearGradient x1="196.24416" y1="156.67129" x2="196.24416" y2="160.1678" gradientUnits="userSpaceOnUse" id="color-3"><stop offset="0" stop-color="#e8af4a"/><stop offset="1" stop-color="#b57d28"/></linearGradient><linearGradient x1="217.905" y1="170.805" x2="217.905" y2="186.075" gradientUnits="userSpaceOnUse" id="color-4"><stop offset="0" stop-color="#666666" stop-opacity="0"/><stop offset="1" stop-color="#666666"/></linearGradient></defs><g transform="translate(-185.905,-149.125)"><g stroke-miterlimit="10"><path d="M290.655,152.875v54h-101v-54z" fill="#333333" fill-rule="nonzero" stroke="#333333" stroke-width="7.5" stroke-linecap="butt" stroke-linejoin="round"/><g><path d="M215.22863,179.52064v-14h24v14z" fill-opacity="0.70196" fill="#a3cccc" fill-rule="nonzero" stroke="#666666" stroke-width="2" stroke-linecap="butt" stroke-linejoin="round"/><path d="M235.05486,179.435l-4.42147,-14h3.21386l4.42146,14z" fill-opacity="0.40392" fill="#cccccc" fill-rule="nonzero" stroke="none" stroke-width="0" stroke-linecap="butt" stroke-linejoin="miter"/><path d="M231.65011,179.52064l-4.42147,-14h1.78852l4.42146,14z" fill-opacity="0.40392" fill="#cccccc" fill-rule="nonzero" stroke="none" stroke-width="0" stroke-linecap="butt" stroke-linejoin="miter"/><path d="M190.905,190.435v-36h54v36zM239.22863,179.435v-14h-24v14z" fill="#e9e0ae" fill-rule="nonzero" stroke="#666666" stroke-width="2" stroke-linecap="butt" stroke-linejoin="round"/><g fill="#000000" fill-rule="evenodd" stroke="none" stroke-width="0.25" stroke-linecap="butt" stroke-linejoin="miter" font-family="&quot;Helvetica Neue&quot;, Helvetica, Arial, sans-serif" font-weight="400" font-size="16" text-anchor="start"><g/><g/></g><path d="M231.51405,172.61407h11.42856v13.90454h-4.93247l-4.28862,-13.85189" fill="none" fill-rule="nonzero" stroke="#ab7f5c" stroke-width="2" stroke-linecap="butt" stroke-linejoin="round"/><path d="M221.70709,187.40034l-0.00047,-19.40733l-0.0167,11.02478h7.09163v8.45036" fill="none" fill-rule="nonzero" stroke="#a1724b" stroke-width="2" stroke-linecap="butt" stroke-linejoin="round"/><path d="M229.02258,177.10391h-5.84942" fill="none" fill-rule="nonzero" stroke="#5e5e5e" stroke-width="2" stroke-linecap="round" stroke-linejoin="miter"/><path d="M215.905,175.21349v12.25466h-24v-12.25466z" fill="#b9a15d" fill-rule="nonzero" stroke="none" stroke-width="0" stroke-linecap="butt" stroke-linejoin="miter"/><path d="M191.905,175.21349v-2h24.55901v2z" fill="#9d884f" fill-rule="nonzero" stroke="none" stroke-width="0" stroke-linecap="butt" stroke-linejoin="miter"/><path d="M190.905,161.91489v-7.47989h25v7.47989z" fill="url(#color-1)" fill-rule="nonzero" stroke="#666666" stroke-width="2" stroke-linecap="butt" stroke-linejoin="round"/><g fill="none" fill-rule="nonzero" stroke-linecap="round" stroke-linejoin="miter"><path d="M211.748,158.56864h-2.40673" stroke="#b75700" stroke-width="3"/><path d="M208.83161,157.71101c0,0 2.84187,0 3.3862,0c0.09024,0 0.86684,0.40202 -0.02345,0.38281c-0.24195,-0.00522 -0.41051,-0.42346 -0.77154,-0.35694c-0.21292,0.03922 -0.4268,0.31997 -0.87496,0.3052c-0.25324,-0.00835 -0.4969,-0.31364 -0.67772,-0.29631c-0.40041,0.03836 -0.55227,0.3779 -0.82174,0.35212c-0.17199,-0.01646 -0.47628,-0.01722 -0.52051,-0.09959c-0.04513,-0.08404 0.17158,-0.24954 0.17158,-0.24954" stroke="#d67693" stroke-width="1.5"/><path d="M208.63342,157.74877l0.33033,-0.18877" stroke="#cecece" stroke-width="0.5"/><path d="M211.11565,158.06022l0.33978,0.27371" stroke="#cecece" stroke-width="0.5"/><path d="M211.79519,157.09753l-0.23595,0.16989" stroke="#cecece" stroke-width="0.5"/><path d="M209.61497,157.38068l0.30202,0.2454" stroke="#5b76cf" stroke-width="0.5"/><path d="M212.81452,157.7582l-0.16044,0.31146" stroke="#5b76cf" stroke-width="0.5"/><path d="M209.22801,158.44719l-0.22652,-0.33034" stroke="#a1cf5b" stroke-width="0.5"/><path d="M211.01183,157.06922l-0.51909,0.11326" stroke="#a1cf5b" stroke-width="0.5"/></g><g fill-rule="nonzero" stroke-linejoin="miter"><path d="M193.56179,158.96639c-0.14796,-1.35466 0.84044,-2.5923 2.20765,-2.76434c1.36721,-0.17204 2.5955,0.78665 2.74346,2.14131c0.14796,1.35466 -0.96372,1.46356 -2.33093,1.6356c-1.36721,0.17204 -2.47222,0.34208 -2.62018,-1.01258z" fill="url(#color-2)" stroke="none" stroke-width="0" stroke-linecap="butt"/><path d="M194.57865,158.16564c0,0 0.29209,0.25177 0.56447,0.23043c0.2153,-0.01686 -0.03938,-1.02823 0.17101,-1.07978c0.27826,-0.06818 0.82744,0.78927 0.87108,0.87419c0.04388,0.08536 0.78548,-0.95739 0.80923,-0.86495c0.05614,0.21856 -0.30562,0.93788 -0.13827,1.02076c0.16735,0.08288 0.7611,-0.23177 0.7611,-0.23177" fill="none" stroke="#bd3e20" stroke-width="2.5" stroke-linecap="round"/><path d="M194.57865,158.5329c0,0 0.34424,-0.18875 0.5758,-0.4256c0.12456,-0.1274 -0.02665,-0.46246 0.06332,-0.46841c0.22954,-0.01517 0.67538,0.2938 0.89183,0.20182c0.18032,-0.07662 0.09488,-0.5361 0.25002,-0.52817c0.24313,0.01243 0.2535,0.78541 0.38223,0.77735c0.25028,-0.01567 0.47535,-0.242 0.47535,-0.242" fill="none" stroke="#289600" stroke-width="2.5" stroke-linecap="round"/><path d="M193.75165,158.93783c0.00202,-1.25394 1.11959,-2.2687 2.49616,-2.26654c1.37657,0.00216 2.49087,1.02042 2.48885,2.27436c-0.00202,1.25394 -1.11791,1.22389 -2.49448,1.22173c-1.37657,-0.00216 -2.49255,0.02439 -2.49053,-1.22955z" fill="url(#color-3)" stroke="none" stroke-width="0" stroke-linecap="butt"/></g><g fill="none" fill-rule="nonzero" stroke-linecap="round" stroke-linejoin="miter"><path d="M201.99076,159.55679h2.82847" stroke="#cd9438" stroke-width="2"/><path d="M204.66369,158.66541h-2.51738" stroke="#de4141" stroke-width="1.5"/><path d="M204.72976,159.08954h-2.6495" stroke="#69351c" stroke-width="1.5"/><path d="M204.15306,157.48873l-0.73174,0.42742l-0.73175,-0.42742" stroke="#eaa73b" stroke-width="2"/><path d="M204.81924,157.93638c0,0 -0.24609,-0.01804 -0.49914,-0.00359c-0.30902,0.01764 -0.67055,0.0644 -1.13275,0.01003c-0.3919,-0.0461 -0.44937,0.06128 -0.63596,0.05868c-0.20218,-0.00282 -0.56062,-0.10452 -0.56062,-0.10452" stroke="#5f8e23" stroke-width="1"/><path d="M204.81923,156.7931h-2.82847" stroke="#cd9438" stroke-width="2"/></g></g><path d="M254.675,178.975l-1.96,2.07l-1.96,-2.07" fill="none" fill-rule="nonzero" stroke="#eeeeee" stroke-width="4" stroke-linecap="round" stroke-linejoin="miter"/><path d="M190.905,190.435v-19.62h54v19.62z" fill="url(#color-4)" fill-rule="nonzero" stroke="none" stroke-width="1" stroke-linecap="butt" stroke-linejoin="miter"/><text transform="translate(201.265,201.895) scale(0.23,0.23)" font-size="40" xml:space="preserve" fill="#ffffff" fill-rule="nonzero" stroke="none" stroke-width="1" stroke-linecap="butt" stroke-linejoin="miter" font-family="Sans Serif" font-weight="400" text-anchor="start"><tspan x="0" dy="0">7,500G</tspan></text><text transform="translate(259.72501,161.015) scale(0.23,0.23)" font-size="40" xml:space="preserve" fill="#eeeeee" fill-rule="nonzero" stroke="none" stroke-width="1" stroke-linecap="butt" stroke-linejoin="miter" font-family="Sans Serif" font-weight="400" text-anchor="start"><tspan x="0" dy="0">1,100G</tspan></text><text transform="translate(259.72501,171.865) scale(0.23,0.23)" font-size="40" xml:space="preserve" fill="#eeeeee" fill-rule="nonzero" stroke="none" stroke-width="1" stroke-linecap="butt" stroke-linejoin="miter" font-family="Sans Serif" font-weight="400" text-anchor="start"><tspan x="0" dy="0">170G</tspan></text><text transform="translate(259.72501,182.715) scale(0.23,0.23)" font-size="40" xml:space="preserve" fill="#eeeeee" fill-rule="nonzero" stroke="none" stroke-width="1" stroke-linecap="butt" stroke-linejoin="miter" font-family="Sans Serif" font-weight="400" text-anchor="start"><tspan x="0" dy="0">4%</tspan></text><text transform="translate(259.72501,193.565) scale(0.23,0.23)" font-size="40" xml:space="preserve" fill="#eeeeee" fill-rule="nonzero" stroke="none" stroke-width="1" stroke-linecap="butt" stroke-linejoin="miter" font-family="Sans Serif" font-weight="400" text-anchor="start"><tspan x="0" dy="0">-4</tspan></text><text transform="translate(259.72501,204.415) scale(0.23,0.23)" font-size="40" xml:space="preserve" fill="#eeeeee" fill-rule="nonzero" stroke="none" stroke-width="1" stroke-linecap="butt" stroke-linejoin="miter" font-family="Sans Serif" font-weight="400" text-anchor="start"><tspan x="0" dy="0">-4</tspan></text><text transform="translate(191.905,186.975) scale(0.21,0.21)" font-size="40" xml:space="preserve" fill="#ffffff" fill-rule="nonzero" stroke="none" stroke-width="1" stroke-linecap="butt" stroke-linejoin="miter" font-family="Sans Serif" font-weight="400" text-anchor="start"><tspan x="0" dy="0">フードコート</tspan></text><path d="M254.295,186.785c0.32,-0.29 0.47,-0.2 0.33,0.21l-0.87,2.69c-0.13,0.42 0.09,0.86 0.51,0.99l0.32,0.1c0.41,0.13 0.49,0.48 0.17,0.77l-3.61,3.35c-0.32,0.29 -0.47,0.2 -0.33,-0.21l0.87,-2.69c0.13,-0.42 -0.09,-0.86 -0.51,-0.99l-0.31,-0.1c-0.41,-0.13 -0.49,-0.48 -0.17,-0.77zM250.055,203.115c0,-1.47 2.66,-5.49 2.66,-5.49c0,0 2.66,4.02 2.66,5.49c0,1.47 -1.19,2.66 -2.66,2.66c-1.47,0 -2.66,-1.19 -2.66,-2.66z" fill="#eeeeee" fill-rule="nonzero" stroke="#eeeeee" stroke-width="0.65" stroke-linecap="butt" stroke-linejoin="miter"/><path d="M191.855,200.155l-0.95,-2.39l5.74,-2.29l0.95,2.39zM255.835,159.085l-0.04,3.17l-0.94,-0.33l-0.55,-1.77l-1.56,1.03l-3.15,-1.11l1.97,-2.49z" fill="#ffffff" fill-rule="nonzero" stroke="#ffffff" stroke-width="1.25" stroke-linecap="butt" stroke-linejoin="round"/><path d="M196.275,202.895l-1.55,-3.88M253.705,158.325l1.41,-3.99" fill="none" fill-rule="nonzero" stroke="#ffffff" stroke-width="1.25" stroke-linecap="round" stroke-linejoin="miter"/><path d="M253.445,166.095c0.03,-0.02 0.09,-0.01 0.09,0.03l0.27,1.13c0,0 0.67,0.49 0.87,0.84c0.34,0.58 0.35,1.05 0.35,1.05c0,0 0.75,0.22 0.87,0.82c0.13,0.6 -0.34,1.73 -2.31,2.13c-1.98,0.39 -3.57,-0.15 -4.31,-1.35c-0.75,-1.2 0.43,-2.63 0.37,-2.55l-0.22,-1.89c-0.01,-0.04 0.04,-0.07 0.09,-0.05l1.27,0.83c0,0 0.47,-0.18 0.97,-0.2c0.29,-0.02 0.55,0 0.79,0.04z" fill="#eeeeee" fill-rule="nonzero" stroke="#eeeeee" stroke-width="0.65" stroke-linecap="butt" stroke-linejoin="miter"/><path d="M256.945,169.305c-0.49,0.4 -1.25,0.41 -1.25,0.41M256.805,170.485c-0.66,0.05 -1.07,-0.15 -1.07,-0.15M248.495,169.275c0,0 0.91,0.29 1.27,0.62M249.795,170.265c-0.45,0.18 -1.23,0.06 -1.23,0.06" fill="none" fill-rule="nonzero" stroke="#eeeeee" stroke-width="0.65" stroke-linecap="round" stroke-linejoin="miter"/></g></g></svg>