<svg version="1.1" xmlns="http://www.w3.org/2000/svg" xmlns:xlink="http://www.w3.org/1999/xlink" width="56" height="38" viewBox="0,0,56,38"><g transform="translate(-212,-161)"><g stroke-miterlimit="10"><path d="M213,198v-36h54v36z" fill="#afbcbb" stroke="#666666" stroke-width="2" stroke-linecap="butt" stroke-linejoin="round"/><path d="M213,173.02723v-11.02723h11.02723v11.02723z" fill="#ccc0ad" stroke="#666666" stroke-width="2" stroke-linecap="butt" stroke-linejoin="round"/><path d="M260.26639,194.03315v-7.7813h3.22495v7.7813z" fill="#608080" stroke="#666666" stroke-width="2" stroke-linecap="butt" stroke-linejoin="round"/><path d="M253.6682,194.03315v-6.16029h6.59819v6.16029z" fill="#99938a" stroke="#666666" stroke-width="2" stroke-linecap="butt" stroke-linejoin="round"/><path d="M242.23582,194.03315v-21.00592h7.83114v21.00592z" fill="#ccc4b8" stroke="#666666" stroke-width="2" stroke-linecap="butt" stroke-linejoin="round"/><path d="M234.40468,194.03315v-21.00592h7.83114v21.00592z" fill="#ccc4b8" stroke="#666666" stroke-width="2" stroke-linecap="butt" stroke-linejoin="round"/><path d="M226.57354,194.03315v-21.00592h7.83114v21.00592z" fill="#ccc4b8" stroke="#666666" stroke-width="2" stroke-linecap="butt" stroke-linejoin="round"/><path d="M216.28543,168.69891c0,-1.23137 2.22819,-4.59878 2.22819,-4.59878c0,0 2.22819,3.36742 2.22819,4.59878c0,1.23137 -0.99682,2.22819 -2.22819,2.22819c-1.23137,0 -2.22819,-0.99682 -2.22819,-2.22819z" fill="#99ffff" stroke="#99ffff" stroke-width="0.5" stroke-linecap="butt" stroke-linejoin="miter"/><path d="M261.52482,162l0.05034,15.20036c0,2.94992 -2.39848,5.34943 -5.35046,5.34943h-6.15773" fill="none" stroke="#666666" stroke-width="3.5" stroke-linecap="butt" stroke-linejoin="miter"/><path d="M250.44324,192.8463h3.22495" fill="none" stroke="#666666" stroke-width="1.5" stroke-linecap="round" stroke-linejoin="miter"/><path d="M253.6682,191.03416h-3.22495" fill="none" stroke="#666666" stroke-width="1.5" stroke-linecap="round" stroke-linejoin="miter"/><path d="M217.93457,195.19663l-0.05034,-7.49876c0,-2.94992 2.39848,-5.34943 5.35046,-5.34943h3.33885" fill="none" stroke="#666666" stroke-width="3.5" stroke-linecap="butt" stroke-linejoin="miter"/><path d="M214,197.03315v-2h52v2z" fill="#cccccc" stroke="none" stroke-width="0" stroke-linecap="butt" stroke-linejoin="miter"/><path d="M257.65167,162l0.03332,10.06211c0,1.95274 -1.58771,3.54114 -3.54182,3.54114h-4.0762" fill="none" stroke="#666666" stroke-width="3.5" stroke-linecap="butt" stroke-linejoin="miter"/></g></g></svg>