<svg version="1.1" xmlns="http://www.w3.org/2000/svg" xmlns:xlink="http://www.w3.org/1999/xlink" width="56" height="38" viewBox="0,0,56,38"><defs><radialGradient cx="239.92086" cy="169.68471" r="5.76077" gradientUnits="userSpaceOnUse" id="color-1"><stop offset="0" stop-color="#876d3e"/><stop offset="1" stop-color="#876d3e" stop-opacity="0"/></radialGradient></defs><g transform="translate(-212,-161)"><g data-paper-data="{&quot;isPaintingLayer&quot;:true}" fill-rule="nonzero" stroke-miterlimit="10" stroke-dasharray="" stroke-dashoffset="0" style="mix-blend-mode: normal"><path d="M213,198v-36h54v36z" fill="#2c405e" stroke="#666666" stroke-width="2" stroke-linecap="butt" stroke-linejoin="round"/><path d="M214,197.03315v-2h52v2z" fill="#cccccc" stroke="none" stroke-width="0" stroke-linecap="butt" stroke-linejoin="miter"/><path d="M214,195.03315v-11.01504h3.48747v4.96992h22.51253v6.04512z" fill="#775241" stroke="none" stroke-width="1" stroke-linecap="butt" stroke-linejoin="miter"/><path d="M217.48747,188.98804v-2.50752h4.44079v2.50752z" fill="#bfbfbf" stroke="none" stroke-width="0" stroke-linecap="butt" stroke-linejoin="miter"/><path d="M221.92826,188.98804v-2h17.5094v2z" fill="#800000" stroke="none" stroke-width="0" stroke-linecap="butt" stroke-linejoin="miter"/><path d="M240,162.02281v4.38362" fill="none" stroke="#666666" stroke-width="2" stroke-linecap="round" stroke-linejoin="miter"/><path d="M245.76077,171.91394c0,3.04172 -2.57918,5.50752 -5.76077,5.50752c-3.18159,0 -5.76077,-2.4658 -5.76077,-5.50752c0,-3.04172 2.57918,-5.50752 5.76077,-5.50752c3.18159,0 5.76077,2.4658 5.76077,5.50752z" fill="url(#color-1)" stroke="none" stroke-width="0" stroke-linecap="butt" stroke-linejoin="miter"/><path d="M237.01966,168.98428c0,-1.42371 1.33434,-2.57786 2.98034,-2.57786c1.646,0 2.98034,1.15415 2.98034,2.57786c0,1.42371 -1.33434,1.22605 -2.98034,1.22605c-1.646,0 -2.98034,0.19766 -2.98034,-1.22605z" fill="#666666" stroke="#666666" stroke-width="2" stroke-linecap="butt" stroke-linejoin="miter"/><path d="M253.60905,180.17907h11.42856v13.90454h-4.93247l-4.28862,-13.85189" data-paper-data="{&quot;index&quot;:null}" fill="none" stroke="#735841" stroke-width="2" stroke-linecap="butt" stroke-linejoin="round"/><path d="M243.80209,194.96534l-0.00047,-19.40733l-0.0167,11.02478h7.09163v8.45036" data-paper-data="{&quot;index&quot;:null}" fill="none" stroke="#735841" stroke-width="2" stroke-linecap="butt" stroke-linejoin="round"/><path d="M251.11758,184.66891h-5.84942" data-paper-data="{&quot;index&quot;:null}" fill="none" stroke="#5e5e5e" stroke-width="2" stroke-linecap="round" stroke-linejoin="miter"/></g></g></svg>