<svg version="1.1" xmlns="http://www.w3.org/2000/svg" xmlns:xlink="http://www.w3.org/1999/xlink" width="56" height="38" viewBox="0,0,56,38"><defs><linearGradient x1="227.1975" y1="184.56472" x2="227.1975" y2="194.63243" gradientUnits="userSpaceOnUse" id="color-1"><stop offset="0" stop-color="#8494ac"/><stop offset="1" stop-color="#636f81"/></linearGradient><linearGradient x1="219.175" y1="170.89315" x2="235.22" y2="170.89315" gradientUnits="userSpaceOnUse" id="color-2"><stop offset="0" stop-color="#894b4b"/><stop offset="1" stop-color="#7d4b89"/></linearGradient><linearGradient x1="227.1975" y1="174.78961" x2="227.1975" y2="180.11163" gradientUnits="userSpaceOnUse" id="color-3"><stop offset="0" stop-color="#c22d82"/><stop offset="1" stop-color="#4f2dc2"/></linearGradient><linearGradient x1="252.8025" y1="184.56472" x2="252.8025" y2="194.63243" gradientUnits="userSpaceOnUse" id="color-4"><stop offset="0" stop-color="#62806e"/><stop offset="1" stop-color="#43574b"/></linearGradient><linearGradient x1="252.8025" y1="172.95065" x2="252.8025" y2="184.53565" gradientUnits="userSpaceOnUse" id="color-5"><stop offset="0" stop-color="#478dd1"/><stop offset="1" stop-color="#7aa2d1"/></linearGradient><linearGradient x1="252.8025" y1="168.92565" x2="252.8025" y2="172.95065" gradientUnits="userSpaceOnUse" id="color-6"><stop offset="0" stop-color="#768eb0"/><stop offset="1" stop-color="#76b08c"/></linearGradient><linearGradient x1="252.8025" y1="180.80876" x2="252.8025" y2="184.53565" gradientUnits="userSpaceOnUse" id="color-7"><stop offset="0" stop-color="#31a447"/><stop offset="1" stop-color="#91672b"/></linearGradient></defs><g transform="translate(-212,-161)"><g data-paper-data="{&quot;isPaintingLayer&quot;:true}" fill-rule="nonzero" stroke-miterlimit="10" stroke-dasharray="" stroke-dashoffset="0" style="mix-blend-mode: normal"><path d="M213,198v-36h54v36z" fill="#66859c" stroke="#666666" stroke-width="2" stroke-linecap="butt" stroke-linejoin="round"/><path d="" fill="#ff0000" stroke="none" stroke-width="1" stroke-linecap="butt" stroke-linejoin="miter"/><path d="M221.08143,194.63242v-4.79458l-2.0907,-0.945v-4.32812h16.41354v4.32813l-2.0907,0.945v4.79458z" fill="url(#color-1)" stroke="#4d4d4d" stroke-width="1" stroke-linecap="butt" stroke-linejoin="miter"/><path d="M233.56107,172.95065v11.585h-12.72714v-11.585z" fill="#695699" stroke="#4d4d4d" stroke-width="1" stroke-linecap="butt" stroke-linejoin="miter"/><path d="M214,197.03315v-2h52v2z" fill="#cccccc" stroke="none" stroke-width="0" stroke-linecap="butt" stroke-linejoin="miter"/><path d="M219.175,172.90565v-4.025h16.045v4.025z" fill="url(#color-2)" stroke="#4d4d4d" stroke-width="1" stroke-linecap="butt" stroke-linejoin="miter"/><path d="M221.1,170.79065h8.325" fill="none" stroke="#bdbdbd" stroke-width="1.5" stroke-linecap="round" stroke-linejoin="miter"/><path d="M231.45,170.79065h1.845" fill="none" stroke="#bdbdbd" stroke-width="1.5" stroke-linecap="round" stroke-linejoin="miter"/><path d="M231.59011,174.78961v5.32202h-5.52016v-0.92941h-3.26506v-4.39261z" data-paper-data="{&quot;index&quot;:null}" fill="url(#color-3)" stroke="#000000" stroke-width="0.5" stroke-linecap="butt" stroke-linejoin="round"/><path d="M223.68721,183.30713h4.36337" fill="none" stroke="#ffffff" stroke-width="0.5" stroke-linecap="round" stroke-linejoin="miter"/><path d="M227.1975,181.62592c0,-0.12779 0.1036,-0.23139 0.23139,-0.23139c0.12779,0 0.23139,0.1036 0.23139,0.23139c0,0.12779 -0.1036,0.23139 -0.23139,0.23139c-0.12779,0 -0.23139,-0.1036 -0.23139,-0.23139z" fill="none" stroke="#ffffff" stroke-width="0.5" stroke-linecap="butt" stroke-linejoin="miter"/><path d="M246.68643,194.63243v-4.79458l-2.0907,-0.945v-4.32813h16.41354v4.32812l-2.0907,0.945v4.79458z" data-paper-data="{&quot;index&quot;:null}" fill="url(#color-4)" stroke="#4d4d4d" stroke-width="1" stroke-linecap="butt" stroke-linejoin="miter"/><path d="M259.16607,172.95065v11.585h-12.72714v-11.585z" data-paper-data="{&quot;index&quot;:null}" fill="url(#color-5)" stroke="#4d4d4d" stroke-width="1" stroke-linecap="butt" stroke-linejoin="miter"/><path d="M244.78,172.95065v-4.025h16.045v4.025z" data-paper-data="{&quot;index&quot;:null}" fill="url(#color-6)" stroke="#4d4d4d" stroke-width="1" stroke-linecap="butt" stroke-linejoin="miter"/><path d="M259.16607,180.80876v3.72689h-12.72714v-3.72689z" data-paper-data="{&quot;index&quot;:null}" fill="url(#color-7)" stroke="#4d4d4d" stroke-width="1" stroke-linecap="butt" stroke-linejoin="miter"/><path d="M255.14303,175.05482v5.55178h-4.68106v-5.55178z" data-paper-data="{&quot;index&quot;:null}" fill="#cdbeb2" stroke="#4d4d4d" stroke-width="1" stroke-linecap="butt" stroke-linejoin="miter"/><path d="M249.56497,179.40226v0.72581" fill="none" stroke="#ffab19" stroke-width="0.5" stroke-linecap="round" stroke-linejoin="miter"/><path d="M257.42442,175.21332v0.72581" fill="none" stroke="#ffab19" stroke-width="0.5" stroke-linecap="round" stroke-linejoin="miter"/><path d="M256.98894,174.75709h0.82949" fill="none" stroke="#e61717" stroke-width="0.5" stroke-linecap="round" stroke-linejoin="miter"/><path d="M248.07629,170.93815h9.45242" fill="none" stroke="#bdbdbd" stroke-width="1.5" stroke-linecap="round" stroke-linejoin="miter"/></g></g></svg>