<svg version="1.1" xmlns="http://www.w3.org/2000/svg" xmlns:xlink="http://www.w3.org/1999/xlink" width="492.99943" height="185.97847" viewBox="0,0,492.99943,185.97847"><g transform="translate(20,0)"><g stroke-miterlimit="10"><path d="M-20,4v-4h20v4z" fill="none" stroke="none" stroke-width="0" stroke-linejoin="miter"/><path d="M161.55661,183.47847v-143.01976h308.94282v143.01976z" fill="#4d4d4d" stroke="#4d4d4d" stroke-width="5" stroke-linejoin="round"/><path d="M146.4045,76.81882v11.05252c0,3.45524 -2.80935,6.26579 -6.267,6.26579h-121.77883c-3.45403,0 -6.26579,-2.81055 -6.26579,-6.26579v-11.05373c0,-3.45524 2.81176,-6.26579 6.26579,-6.26579h121.77883c3.45766,0 6.267,2.81176 6.267,6.267z" fill-opacity="0.30196" fill="#ffffff" stroke="none" stroke-width="1" stroke-linejoin="miter"/><text transform="translate(172.89321,66.83863) scale(0.41787,0.41787)" font-size="40" xml:space="preserve" fill="#ffffff" stroke="#ffffff" stroke-width="1" stroke-linejoin="miter" font-family="Sans Serif" font-weight="normal" text-anchor="start"><tspan x="0" dy="0">ゲーム</tspan></text><text transform="translate(172.89321,86.89639) scale(0.41787,0.41787)" font-size="40" xml:space="preserve" fill="#bfbfbf" stroke="none" stroke-width="1" stroke-linejoin="miter" font-family="Sans Serif" font-weight="normal" text-anchor="start"><tspan x="0" dy="0">上へ移動 (↑)</tspan></text><text transform="translate(172.89321,106.95415) scale(0.41787,0.41787)" font-size="40" xml:space="preserve" fill="#bfbfbf" stroke="none" stroke-width="1" stroke-linejoin="miter" font-family="Sans Serif" font-weight="normal" text-anchor="start"><tspan x="0" dy="0">下へ移動 (↓)</tspan></text><text transform="translate(172.89321,127.01191) scale(0.41787,0.41787)" font-size="40" xml:space="preserve" fill="#bfbfbf" stroke="none" stroke-width="1" stroke-linejoin="miter" font-family="Sans Serif" font-weight="normal" text-anchor="start"><tspan x="0" dy="0">右へ移動 (→)</tspan></text><text transform="translate(172.89321,147.06967) scale(0.41787,0.41787)" font-size="40" xml:space="preserve" fill="#bfbfbf" stroke="none" stroke-width="1" stroke-linejoin="miter" font-family="Sans Serif" font-weight="normal" text-anchor="start"><tspan x="0" dy="0">左へ移動 (←)</tspan></text><text transform="translate(172.89321,167.12743) scale(0.41787,0.41787)" font-size="40" xml:space="preserve" fill="#bfbfbf" stroke="none" stroke-width="1" stroke-linejoin="miter" font-family="Sans Serif" font-weight="normal" text-anchor="start"><tspan x="0" dy="0">カメラを戻す</tspan></text></g></g></svg>