<svg version="1.1" xmlns="http://www.w3.org/2000/svg" xmlns:xlink="http://www.w3.org/1999/xlink" width="56" height="38" viewBox="0,0,56,38"><g transform="translate(-212,-161)"><g stroke-miterlimit="10"><path d="M213,198v-36h54v36z" fill="#bca694" fill-rule="nonzero" stroke="#666666" stroke-width="2" stroke-linecap="butt" stroke-linejoin="round"/><path d="M214,197.03315v-2h52v2z" fill="#cccccc" fill-rule="nonzero" stroke="none" stroke-width="0" stroke-linecap="butt" stroke-linejoin="miter"/><path d="M225.14297,195.03315v-24.09159h12.02922v24.09159z" fill="#595043" fill-rule="nonzero" stroke="none" stroke-width="NaN" stroke-linecap="butt" stroke-linejoin="miter"/><path d="M242.82781,195.03315v-24.09159h12.02922v24.09159z" fill="#595043" fill-rule="nonzero" stroke="none" stroke-width="NaN" stroke-linecap="butt" stroke-linejoin="miter"/><g><path d="M221.56685,170.94915c0.02275,-0.01516 0.06068,-0.00758 0.06826,0.02276l0.1972,0.81157c0,0 0.48542,0.35648 0.62953,0.60678c0.24271,0.41716 0.2503,0.75847 0.2503,0.75847c0,0 0.53851,0.15929 0.62953,0.59161c0.09101,0.43232 -0.24271,1.25149 -1.66864,1.53212c-1.42593,0.28063 -2.57122,-0.10619 -3.10974,-0.97084c-0.53852,-0.86466 0.31097,-1.89619 0.26546,-1.83551l-0.15927,-1.35766c-0.00758,-0.03034 0.03033,-0.05309 0.06067,-0.03793l0.91775,0.5992c0,0 0.34132,-0.12895 0.6978,-0.14411c0.21237,-0.01516 0.39441,0 0.56886,0.03034z" fill="#bb0000" fill-rule="evenodd" stroke="#bb0000" stroke-width="0.25" stroke-linecap="butt" stroke-linejoin="miter"/><path d="M224.08498,173.26249c-0.35648,0.28822 -0.90258,0.2958 -0.90258,0.2958" fill="#bb0000" fill-rule="evenodd" stroke="#bb0000" stroke-width="0.25" stroke-linecap="round" stroke-linejoin="round"/><path d="M223.98638,174.11198c-0.47784,0.03793 -0.77364,-0.10618 -0.77364,-0.10618" fill="#bb0000" fill-rule="evenodd" stroke="#bb0000" stroke-width="0.25" stroke-linecap="round" stroke-linejoin="round"/><path d="M217.99444,173.23974c0,0 0.65229,0.21237 0.91775,0.4475" fill="#bb0000" fill-rule="evenodd" stroke="#bb0000" stroke-width="0.25" stroke-linecap="round" stroke-linejoin="round"/><path d="M218.93494,173.9527c-0.32614,0.12894 -0.88741,0.04551 -0.88741,0.04551" fill="#bb0000" fill-rule="evenodd" stroke="#bb0000" stroke-width="0.25" stroke-linecap="round" stroke-linejoin="round"/><g fill="none" fill-rule="nonzero" stroke="none" stroke-width="1" stroke-linecap="butt" stroke-linejoin="miter" font-family="sans-serif" font-weight="normal" font-size="12" text-anchor="start"/><g fill="none" fill-rule="nonzero" stroke="none" stroke-width="1" stroke-linecap="butt" stroke-linejoin="miter" font-family="sans-serif" font-weight="normal" font-size="12" text-anchor="start"/></g><g><path d="M259.08544,171.55593c0.17445,-0.03034 0.35648,-0.0455 0.56885,-0.03034c0.35648,0.01516 0.6978,0.14411 0.6978,0.14411l0.91775,-0.5992c0.03034,-0.01516 0.06826,0.00759 0.06068,0.03793l-0.15927,1.35766c-0.04551,-0.06068 0.80398,0.97085 0.26546,1.83551c-0.53852,0.86466 -1.68381,1.25148 -3.10974,0.97084c-1.42593,-0.28063 -1.75966,-1.0998 -1.66864,-1.53212c0.09102,-0.43232 0.62953,-0.59161 0.62953,-0.59161c0,0 0.00759,-0.34132 0.25029,-0.75847c0.14411,-0.25029 0.62953,-0.60678 0.62953,-0.60678l0.19721,-0.81157c0.00759,-0.03034 0.04552,-0.03792 0.06826,-0.02276z" fill="#0047ba" fill-rule="evenodd" stroke="#0047ba" stroke-width="0.25" stroke-linecap="butt" stroke-linejoin="miter"/><path d="M256.8176,173.5583c0,0 -0.5461,-0.00758 -0.90258,-0.2958" fill="#0047ba" fill-rule="evenodd" stroke="#0047ba" stroke-width="0.25" stroke-linecap="round" stroke-linejoin="round"/><path d="M256.78727,174.0058c0,0 -0.2958,0.14411 -0.77364,0.10618" fill="#0047ba" fill-rule="evenodd" stroke="#0047ba" stroke-width="0.25" stroke-linecap="round" stroke-linejoin="round"/><path d="M261.08781,173.68724c0.26547,-0.23513 0.91775,-0.4475 0.91775,-0.4475" fill="#0047ba" fill-rule="evenodd" stroke="#0047ba" stroke-width="0.25" stroke-linecap="round" stroke-linejoin="round"/><path d="M261.95247,173.99821c0,0 -0.56127,0.08343 -0.88741,-0.04551" fill="#0047ba" fill-rule="evenodd" stroke="#0047ba" stroke-width="0.25" stroke-linecap="round" stroke-linejoin="round"/><g fill="none" fill-rule="nonzero" stroke="none" stroke-width="1" stroke-linecap="butt" stroke-linejoin="miter" font-family="sans-serif" font-weight="normal" font-size="12" text-anchor="start"/><g fill="none" fill-rule="nonzero" stroke="none" stroke-width="1" stroke-linecap="butt" stroke-linejoin="miter" font-family="sans-serif" font-weight="normal" font-size="12" text-anchor="start"/></g><path d="M235.7199,195.03315c0,0 0.19896,-8.36584 -3.98821,-9.37806c-0.09592,-0.04081 -0.52755,-1.41554 0.14205,-1.76481c0.6696,-0.34928 5.3305,-0.32051 5.3305,-0.32051l-0.03205,11.46339z" fill="#8d8882" fill-rule="nonzero" stroke="none" stroke-width="NaN" stroke-linecap="butt" stroke-linejoin="miter"/><path d="M242.82781,195.03315l-0.03205,-11.46339c0,0 4.6609,-0.02876 5.3305,0.32051c0.6696,0.34928 0.23798,1.724 0.14205,1.76481c-4.18717,1.01222 -3.98821,9.37806 -3.98821,9.37806z" fill="#8d8882" fill-rule="nonzero" stroke="none" stroke-width="NaN" stroke-linecap="butt" stroke-linejoin="miter"/></g></g></svg>