<svg version="1.1" xmlns="http://www.w3.org/2000/svg" xmlns:xlink="http://www.w3.org/1999/xlink" width="24.69922" height="29.89688" viewBox="0,0,24.69922,29.89688"><g transform="translate(-227.58098,-166.26127)"><g stroke-miterlimit="10"><g fill-rule="evenodd" stroke-width="0.25"><path d="M237.01594,190.41414c0.15694,0.07847 0.49047,0.25504 0.01962,0.92207c-0.47084,0.66702 -1.82452,0.80435 -1.98146,0.80435c-0.60817,0.01961 -1.35366,0.01962 -2.17763,-0.25504c-2.39344,-0.78474 -2.41306,-3.35474 -1.64794,-3.76673c0.7455,-0.41199 1.07901,1.17711 2.15802,2.13841c0.47084,0.4316 1.03977,0.58854 1.51061,0.68663c0.66702,0.1177 1.94221,-0.62779 2.11878,-0.5297z" fill="#ffab19" stroke="#001026" stroke-linecap="round" stroke-linejoin="round"/><path d="M232.15059,188.82506c0.3139,0.5297 0.92207,1.27519 0.92207,1.27519c0,0 -0.72588,-0.17657 -1.13787,0.15695c-0.33352,0.25504 -0.25503,0.68664 -0.2158,0.82397c-0.25504,-0.25504 -0.56894,-0.60817 -0.76512,-1.29481c-0.19618,-0.68664 0,-1.51061 0.39237,-1.62832c0.39237,-0.07847 0.49045,0.21579 0.80435,0.66702z" fill="#ffffff" stroke="none" stroke-linecap="butt" stroke-linejoin="miter"/></g><path d="M237.99686,192.45446c-0.35313,0.23542 -1.56947,1.09864 -3.11932,1.58909l-0.07847,0.01962c-0.07847,0.01961 -0.11771,0.11771 -0.07847,0.19618c0.33352,0.47084 0.94169,1.41251 -0.13733,1.74603c-1.03977,0.33352 -2.98199,-2.43268 -2.15802,-3.15856c0.37275,-0.27466 0.70627,-0.13733 0.88282,-0.05885c0.09809,0.03923 0.19618,0.03924 0.29427,0.01962c0.23542,-0.07847 0.66702,-0.23542 1.00053,-0.41199c0.84359,-0.4316 1.03977,-0.60816 1.43214,-0.90244c0.39237,-0.29428 1.29481,-1.02015 2.02069,-0.39237c0.62778,0.5297 0.27466,1.11825 -0.05886,1.35367z" fill="#ffab19" fill-rule="evenodd" stroke="#001026" stroke-width="0.25" stroke-linecap="round" stroke-linejoin="round"/><g fill-rule="evenodd" stroke-width="0.25"><path d="M241.1358,192.94492c0.41199,0.37275 1.31444,1.13786 1.31444,1.13786c0,0 2.80542,-0.49044 2.80542,0.92208c0,0.84359 -1.41252,1.03977 -3.3155,0.8632c-0.1177,-0.01961 -0.23542,-0.05886 -0.33352,-0.13733c-0.4316,-0.37275 -1.66755,-1.47137 -2.45229,-2.23649c-1.15748,-1.13787 -2.1188,-1.88336 -2.1188,-1.88336c-1.66756,-1.62832 -0.31389,-2.31497 0.21581,-3.25665c0.49046,-0.80435 0.70627,-0.64741 1.88336,-0.41199c0.66702,0.09809 1.05939,0.15695 1.49099,0.13733c0.6474,-0.01961 0.5297,0.92207 0.35313,1.41252c0,0 -0.27465,0.72589 -0.5297,1.09863c-0.3139,0.45122 -0.54932,0.74549 -0.78474,0.92206z" fill="#ffab19" stroke="#001026" stroke-linecap="round" stroke-linejoin="round"/><path d="M239.48786,191.49315c0,0 -0.29427,-0.23542 -0.60817,-0.5297c-0.39237,-0.35313 -0.78474,-0.64741 -0.39237,-1.25558c0.35313,-0.47084 0.68665,-1.09862 1.56948,-0.52969c0.84359,0.5297 0.47084,1.02015 0.47084,1.02015c-0.4316,0.88282 -1.03977,1.29482 -1.03977,1.29482z" fill="#ffffff" stroke="none" stroke-linecap="butt" stroke-linejoin="miter"/></g><path d="M235.60056,187.49786c0.03851,0.10772 0.14197,0.1672 0.25513,0.1839c0.24303,-0.07977 0.61169,-0.158 0.96517,-0.24867c0.58407,-0.15527 1.63872,-0.20367 1.28968,0.77871c-0.27013,0.79338 -1.14275,0.99108 -2.14797,1.25764c-0.53159,0.1222 -1.15844,0.26776 -1.51669,-0.25445c-0.40649,-0.58714 -1.31371,-2.57457 -0.0791,-3.05895c0.97488,-0.29145 1.08276,0.65976 1.23377,1.34183z" fill="#ffab19" fill-rule="evenodd" stroke="#001026" stroke-width="0.25" stroke-linecap="round" stroke-linejoin="round"/><g fill-rule="evenodd" stroke-width="0.25"><path d="M242.70527,176.66166c0.05885,-0.03923 0.15695,-0.01962 0.17657,0.05886l0.51008,2.09916c0,0 1.25558,0.92207 1.62832,1.56947c0.62778,1.079 0.6474,1.96184 0.6474,1.96184c0,0 1.39291,0.41199 1.62833,1.53023c0.23542,1.11824 -0.62779,3.23704 -4.31604,3.96292c-3.68825,0.72588 -6.65062,-0.27466 -8.04353,-2.51115c-1.39291,-2.23649 0.80434,-4.9046 0.68663,-4.74765l-0.41198,-3.51168c-0.01961,-0.07847 0.07847,-0.13733 0.15694,-0.0981l2.37382,1.54986c0,0 0.88284,-0.33352 1.8049,-0.37275c0.54931,-0.03923 1.02015,0 1.47138,0.07847z" fill="#ffab19" stroke="#001026" stroke-linecap="butt" stroke-linejoin="miter"/><path d="M245.60879,182.42947c0,0 1.35367,0.35314 1.58909,1.47137c0.23542,1.11824 -0.70626,3.13894 -4.35528,3.8452c-4.74765,0.98092 -7.00377,-1.84413 -5.68933,-3.92368c1.31444,-2.09916 3.57055,-0.3139 5.21849,-0.4316c1.41252,-0.09809 1.56947,-1.33405 3.23703,-0.9613z" fill="#ffffff" stroke="none" stroke-linecap="butt" stroke-linejoin="miter"/><path d="M239.42901,184.52863c0,-0.07847 0.07848,-0.13733 0.15695,-0.11772c0.37275,0.13733 1.43214,0.45122 2.60924,0.5297c1.05939,0.05885 1.68718,0.00001 1.98145,-0.05885c0.09809,-0.01961 0.17656,0.07847 0.13733,0.17656c-0.17657,0.5297 -0.92206,2.00107 -2.98199,1.88336c-1.78528,-0.19618 -1.96183,-1.45175 -1.90298,-2.41306z" fill="#ffffff" stroke="#001026" stroke-linecap="round" stroke-linejoin="round"/><path d="M249.21857,182.64527c-0.92206,0.7455 -2.33458,0.76512 -2.33458,0.76512" fill="none" stroke="#001026" stroke-linecap="round" stroke-linejoin="round"/><path d="M248.96353,184.84253c-1.23596,0.09809 -2.00108,-0.27466 -2.00108,-0.27466" fill="none" stroke="#001026" stroke-linecap="round" stroke-linejoin="round"/><path d="M242.29329,182.8807c0.41199,0 0.84359,0.03923 0.8632,0.17656c0.01961,0.27466 -0.27466,0.82398 -0.58855,0.84359c-0.35313,0.03923 -1.1771,-0.45122 -1.1771,-0.76512c-0.01961,-0.23542 0.51008,-0.25503 0.90245,-0.25503z" fill="#001026" stroke="#001026" stroke-linecap="round" stroke-linejoin="round"/><path d="M233.46502,182.58641c0,0 1.68718,0.54932 2.37383,1.15749" fill="none" stroke="#001026" stroke-linecap="round" stroke-linejoin="round"/><path d="M235.89769,184.43054c-0.84359,0.33352 -2.29534,0.11771 -2.29534,0.11771" fill="none" stroke="#001026" stroke-linecap="round" stroke-linejoin="round"/><g><path d="M244.60826,180.58534c0.56893,0.88282 0.58855,1.88337 0.03923,2.2365c-0.54931,0.35313 -1.45176,-0.05886 -2.04031,-0.94168c-0.56893,-0.88282 -0.58856,-1.88336 -0.03924,-2.2365c0.54931,-0.37275 1.47139,0.05885 2.04032,0.94168z" fill="#ffffff" stroke="#001026" stroke-linecap="round" stroke-linejoin="round"/><path d="M244.52978,181.70359c0,0.2158 -0.15695,0.39237 -0.35313,0.39237c-0.19618,0 -0.35313,-0.17657 -0.35313,-0.39237c0,-0.2158 0.15695,-0.39237 0.35313,-0.39237c0.19618,0 0.35313,0.17657 0.35313,0.39237" fill="#001026" stroke="none" stroke-linecap="butt" stroke-linejoin="miter"/></g><g><path d="M239.7429,181.13466c0.58855,0.86321 0.54931,1.9226 0.01961,2.29534c-0.6474,0.37275 -1.51061,0.0981 -2.09916,-0.76512c-0.60817,-0.86321 -0.6474,-1.98146 -0.03924,-2.41306c0.60817,-0.45122 1.53024,0.01962 2.11879,0.88283z" fill="#ffffff" stroke="#001026" stroke-linecap="round" stroke-linejoin="round"/><path d="M239.62519,182.27252c0,0.2158 -0.15695,0.39237 -0.35313,0.39237c-0.19618,0 -0.35313,-0.17657 -0.35313,-0.39237c0,-0.2158 0.15695,-0.39237 0.35313,-0.39237c0.19618,0.01961 0.35313,0.17657 0.35313,0.39237" fill="#001026" stroke="none" stroke-linecap="butt" stroke-linejoin="miter"/></g></g><path d="M241.73326,188.00454c0.11986,0.03758 1.74717,0.92032 1.98487,0.44899c0.2895,-0.55463 0.60137,-1.53894 1.49425,-1.19152c0.89288,0.34741 0.04773,1.85485 -0.37586,2.33532c-1.04121,1.05744 -2.48465,0.37684 -2.81783,0.16961c-0.33318,-0.20723 -0.90913,-0.55159 -1.094,-1.02699c-0.18081,-0.51907 0.39109,-0.88882 0.80858,-0.73543z" fill="#ffab19" fill-rule="evenodd" stroke="#001026" stroke-width="0.25" stroke-linecap="round" stroke-linejoin="round"/><g fill-rule="nonzero" stroke-width="1" stroke-linecap="butt" stroke-linejoin="miter"><path d="M251.7802,176.56618c-0.00224,0.31379 -0.0488,0.62569 -0.13828,0.92646c0.00033,0.06233 -0.01388,0.12388 -0.04148,0.17976v0.0484c-0.0484,0.11062 -0.09679,0.22816 -0.15211,0.33187h-0.0484l-5.53111,9.43744c-0.0089,0.00013 -0.26373,0.22081 -0.56078,0.08727c-0.26148,-0.11754 -0.20094,-0.43467 -0.20666,-0.43296l1.77687,-8.23443c-1.09759,-0.31462 -2.24623,-0.41093 -3.38089,-0.28347c-1.12751,-0.01126 -2.24379,0.22475 -3.27027,0.69139l-0.70521,-0.13136c-0.96582,-0.35978 -1.98422,-0.55832 -3.01445,-0.58768h-0.00691c-1.6939,-0.10371 -3.1389,0.07605 -3.59522,0.40792l1.76304,8.13764c-0.0081,0.00712 0.0165,0.51289 -0.21663,0.59562c-0.23313,0.08272 -0.63615,-0.28235 -0.64069,-0.29141l-5.4758,-9.40288h-0.04148c-0.04148,-0.08297 -0.06914,-0.16593 -0.10371,-0.2489l-0.10371,-0.17285c-0.03385,-0.08431 -0.03385,-0.17842 0,-0.26272c-0.06484,-0.27647 -0.09732,-0.55953 -0.09679,-0.8435c0,-5.01256 5.3306,-9.76931 11.89187,-9.76931c6.60275,0 11.94027,4.75675 11.89879,9.81771zM248.57907,177.90056c-0.30759,0.10964 -0.60394,0.24856 -0.88498,0.41484c0.00685,0.03888 0.00685,0.07866 0,0.11754l-1.59019,7.28723l4.57008,-7.8196c-0.68584,-0.18663 -1.40907,-0.18663 -2.09491,0zM231.32202,177.99735c-0.71771,-0.22388 -1.48328,-0.24542 -2.21244,-0.06222l4.54933,7.78503l-1.58328,-7.28723v-0.05531c-0.23698,-0.14892 -0.48688,-0.27619 -0.7467,-0.38026z" fill="#001026" stroke="none"/><path d="M251.64192,177.50545c0.00033,0.06233 -0.01388,0.12388 -0.04148,0.17976v0.0484c-0.0484,0.11062 -0.09679,0.22816 -0.15211,0.33187h-0.0484l-0.76053,-0.16491c-0.68584,-0.18663 -1.40907,-0.18663 -2.09491,0c-0.30759,0.10964 -0.60395,0.24856 -0.88498,0.41484c0.00685,0.03888 -0.78126,0.6074 -0.78126,0.6074c-1.09759,-0.31462 -2.24623,-0.41092 -3.38089,-0.28347c-1.12751,-0.01126 -2.24379,0.22474 -3.27027,0.69139l-0.70522,-0.13136c-0.96582,-0.35978 -1.98421,-0.55832 -3.01445,-0.58768h-0.00691c-1.6939,-0.10371 -3.1389,0.07605 -3.59522,0.40792l-0.82967,-0.64197c-0.23698,-0.14892 -0.48688,-0.27619 -0.7467,-0.38026h-0.00691c-0.71771,-0.22388 -1.48328,-0.24542 -2.21244,-0.06222l-0.81583,0.12342c-0.04148,-0.08297 -0.06914,-0.16593 -0.10371,-0.2489c0,0 -0.13755,-0.35127 -0.10371,-0.43557c-0.06484,-0.27646 -0.09732,-0.55952 -0.0968,-0.84349c0,-5.01256 5.3306,-9.76932 11.89188,-9.76932c6.60275,0 11.94027,4.75675 11.89879,9.81771c0,0 -0.04881,0.62569 -0.13829,0.92646z" fill="#ff8080" stroke="#001026"/></g></g></g></svg>