<svg version="1.1" xmlns="http://www.w3.org/2000/svg" xmlns:xlink="http://www.w3.org/1999/xlink" width="480" height="385.85903" viewBox="0,0,480,385.85903"><g transform="translate(0,25.85903)"><g stroke-miterlimit="10"><path d="M0,360v-385.85903h480v385.85903z" fill-opacity="0.6" fill="#000000" stroke="none" stroke-width="0" stroke-linecap="butt" stroke-linejoin="miter"/><path d="M332.24517,96.54726v166.907c0,4.35428 -3.54033,7.89613 -7.89765,7.89613h-168.69656c-4.35276,0 -7.89613,-3.54185 -7.89613,-7.89613v-166.90852c0,-4.35428 3.54337,-7.89613 7.89613,-7.89613h168.69656c4.35733,0 7.89765,3.54337 7.89765,7.89765z" fill-opacity="0.70196" fill="#404040" stroke="#808080" stroke-width="4" stroke-linecap="butt" stroke-linejoin="miter"/><path d="M332.24517,96.54726v23.0605h-184.49034v-23.06202c0,-4.35428 3.54337,-7.89613 7.89613,-7.89613h168.69656c4.35733,0 7.89765,3.54337 7.89765,7.89765z" fill="#808080" stroke="none" stroke-width="0" stroke-linecap="butt" stroke-linejoin="miter"/><text transform="translate(152.66767,110.12869) scale(0.5,0.5)" font-size="40" xml:space="preserve" fill="#ffffff" stroke="none" stroke-width="1" stroke-linecap="butt" stroke-linejoin="miter" font-family="Sans Serif" font-weight="normal" text-anchor="start"><tspan x="0" dy="0">地下鉄(Lv.2)</tspan></text><g fill="none" stroke="#ffffff" stroke-width="2.5" stroke-linecap="round" stroke-linejoin="miter"><path d="M309.72199,97.29586l13.66564,13.66564"/><path d="M309.72198,110.96151l13.66565,-13.66565"/></g><path d="M321.91452,240.58953v15.38738c0,3.45524 -2.80935,6.26579 -6.267,6.26579h-64.20307c-3.45403,0 -6.26579,-2.81055 -6.26579,-6.26579v-15.38859c0,-3.45524 2.81176,-6.26579 6.26579,-6.26579h64.20307c3.45766,0 6.267,2.81176 6.267,6.267z" fill-opacity="0.74902" fill="#959da6" stroke="none" stroke-width="1" stroke-linecap="butt" stroke-linejoin="miter"/><path d="M164.36535,234.32253h64.20308c3.45403,0 6.26579,2.81055 6.26579,6.26579v15.38859c0,3.45524 -2.81176,6.26579 -6.26579,6.26579h-64.20308c-3.45765,0 -6.267,-2.81055 -6.267,-6.26579v-15.38738c0,-3.45524 2.80934,-6.267 6.267,-6.267z" fill-opacity="0.74902" fill="#77a5d9" stroke="none" stroke-width="1" stroke-linecap="butt" stroke-linejoin="miter"/><text transform="translate(182.08029,252.59842) scale(0.35965,0.35965)" font-size="40" xml:space="preserve" fill-opacity="0.85098" fill="#ffffff" stroke="none" stroke-width="1" stroke-linecap="butt" stroke-linejoin="miter" font-family="Sans Serif" font-weight="normal" text-anchor="start"><tspan x="0" dy="0">建築</tspan></text><text transform="translate(269.16059,252.59842) scale(0.35965,0.35965)" font-size="40" xml:space="preserve" fill-opacity="0.85098" fill="#ffffff" stroke="none" stroke-width="1" stroke-linecap="butt" stroke-linejoin="miter" font-family="Sans Serif" font-weight="normal" text-anchor="start"><tspan x="0" dy="0">戻る</tspan></text><text transform="translate(152.91993,140.34239) scale(0.311,0.311)" font-size="40" xml:space="preserve" fill-opacity="0.85098" fill="#ffffff" stroke="none" stroke-width="1" stroke-linecap="butt" stroke-linejoin="miter" font-family="Sans Serif" font-weight="normal" text-anchor="start"><tspan x="0" dy="0">地下鉄を拡張すると</tspan><tspan x="0" dy="48px">来客がさらに増えます！</tspan></text><text transform="translate(175.77926,223.35802) scale(0.35846,0.35846)" font-size="40" xml:space="preserve" fill="#ffffff" stroke="none" stroke-width="1" stroke-linecap="butt" stroke-linejoin="miter" font-family="Sans Serif" font-weight="400" text-anchor="start"><tspan x="0" dy="0">750,000G</tspan></text><text transform="translate(261.32489,223.41522) scale(0.35846,0.35846)" font-size="40" xml:space="preserve" fill="#ffffff" stroke="none" stroke-width="1" stroke-linecap="butt" stroke-linejoin="miter" font-family="Sans Serif" font-weight="400" text-anchor="start"><tspan x="0" dy="0">45,000G</tspan></text><path d="M163.94245,220.64621l-1.48059,-3.72485l8.94587,-3.569l1.48059,3.72485zM258.18688,220.40729l-0.06234,4.94049l-1.465,-0.51431l-0.85718,-2.75857l-2.43128,1.60527l-4.90932,-1.72995l3.07027,-3.8807z" fill="#ffffff" stroke="#ffffff" stroke-width="2.5" stroke-linecap="butt" stroke-linejoin="round"/><path d="M168.41539,218.8695l2.4157,6.04704M257.06475,213.00434l-2.19751,6.21847" fill="none" stroke="#ffffff" stroke-width="2.5" stroke-linecap="round" stroke-linejoin="miter"/></g></g></svg>