<svg version="1.1" xmlns="http://www.w3.org/2000/svg" xmlns:xlink="http://www.w3.org/1999/xlink" width="56" height="38" viewBox="0,0,56,38"><g transform="translate(-212,-161)"><g data-paper-data="{&quot;isPaintingLayer&quot;:true}" fill-rule="nonzero" stroke-miterlimit="10" stroke-dasharray="" stroke-dashoffset="0" style="mix-blend-mode: normal"><path d="M213,198v-36h54v36z" fill="#8cd9ff" stroke="#666666" stroke-width="2" stroke-linecap="butt" stroke-linejoin="round"/><g stroke="none" stroke-width="0" stroke-linecap="butt" stroke-linejoin="miter"><path d="M215.91256,190.45477v-12.01336h4.9697v12.01336z" fill="#ffffff"/><path d="M215.91256,190.45477v-1.13918l4.9697,-3.83681v1.13918z" fill="#ff1b1b"/><path d="M215.91256,181.22462v-1.13918l2.10929,-1.62846l1.48276,-0.00557z" fill="#ff1b1b"/><path d="M215.91256,188.14112v-1.13918l4.9697,-3.83681v1.13918z" fill="#1c83ff"/><path d="M217.36946,190.47999l3.5128,-2.71203v1.13918l-2.03413,1.57043z" fill="#1c83ff"/><path d="M215.91256,183.51381v-1.13918l4.9697,-3.83681v1.13918z" fill="#1c83ff"/><path d="M215.91256,185.82746v-1.13918l4.9697,-3.83681v1.13918z" fill="#ff1b1b"/></g><path d="M259.16628,195.03315l-5.5289,-21.7533h4.01882l5.52889,21.7533z" fill="#ffffff" stroke="none" stroke-width="0" stroke-linecap="butt" stroke-linejoin="miter"/><path d="M254.90876,195.03315l-5.5289,-21.7533h2.23649l5.52888,21.7533z" fill="#ffffff" stroke="none" stroke-width="0" stroke-linecap="butt" stroke-linejoin="miter"/><path d="M240.14502,195.03315v-21.7533h24v21.7533z" fill-opacity="0.70196" fill="#a3cccc" stroke="#666666" stroke-width="2" stroke-linecap="butt" stroke-linejoin="round"/><path d="M224.4691,195.0919v-21.7533h11.42548v21.7533z" fill="#9f742b" stroke="#666666" stroke-width="2" stroke-linecap="butt" stroke-linejoin="round"/><path d="M226.70978,183.40197v-7.22265h6.94412v7.22265z" fill="#9cd0db" stroke="#666666" stroke-width="2" stroke-linecap="butt" stroke-linejoin="round"/><path d="M233.6539,186.04568h-1.77106" fill="none" stroke="#666666" stroke-width="2" stroke-linecap="round" stroke-linejoin="miter"/><path d="M216.26475,178.44141h4.26533" fill="none" stroke="#bfbfbf" stroke-width="2.5" stroke-linecap="round" stroke-linejoin="miter"/><path d="M216.26475,190.45477h4.26533" fill="none" stroke="#bfbfbf" stroke-width="2.5" stroke-linecap="round" stroke-linejoin="miter"/><path d="M218.39741,195.03315v-4.57838" fill="none" stroke="#bfbfbf" stroke-width="2.5" stroke-linecap="round" stroke-linejoin="miter"/><path d="M214,197.03315v-2h52v2z" fill="#cccccc" stroke="none" stroke-width="0" stroke-linecap="butt" stroke-linejoin="miter"/></g></g></svg>