<svg version="1.1" xmlns="http://www.w3.org/2000/svg" xmlns:xlink="http://www.w3.org/1999/xlink" width="56" height="38" viewBox="0,0,56,38"><defs><radialGradient cx="253.89621" cy="186.7802" r="9.31529" gradientUnits="userSpaceOnUse" id="color-1"><stop offset="0" stop-color="#ffffff" stop-opacity="0.4"/><stop offset="1" stop-color="#ffffff" stop-opacity="0"/></radialGradient><radialGradient cx="249.56102" cy="172.95058" r="9.31529" gradientUnits="userSpaceOnUse" id="color-2"><stop offset="0" stop-color="#ffffff" stop-opacity="0.4"/><stop offset="1" stop-color="#ffffff" stop-opacity="0"/></radialGradient><radialGradient cx="223.5857" cy="171.66077" r="9.31529" gradientUnits="userSpaceOnUse" id="color-3"><stop offset="0" stop-color="#ffffff" stop-opacity="0.4"/><stop offset="1" stop-color="#ffffff" stop-opacity="0"/></radialGradient><radialGradient cx="229.64064" cy="189.10902" r="9.31529" gradientUnits="userSpaceOnUse" id="color-4"><stop offset="0" stop-color="#ffffff" stop-opacity="0.4"/><stop offset="1" stop-color="#ffffff" stop-opacity="0"/></radialGradient></defs><g transform="translate(-212,-161)"><g stroke-miterlimit="10"><path d="M213,198v-36h54v36z" fill="#4d453d" stroke="#666666" stroke-width="2" stroke-linecap="butt" stroke-linejoin="round"/><path d="M227.19066,166.94928c0.38225,-0.09079 0.77253,-0.14302 1.17247,-0.14612c0.04636,-0.00036 0.09254,-0.00042 0.13853,-0.00018c1.57314,-1.64415 3.78918,-2.6681 6.24438,-2.6681c2.55635,0 4.85344,1.11006 6.43552,2.87445c0.90238,-0.3196 1.87365,-0.49353 2.88555,-0.49353c1.99489,0 3.8319,0.676 5.29444,1.81142c6.79354,0.32317 12.72097,7.45716 14.33542,13.47464c1.09635,4.0864 -0.57756,6.20049 -3.10827,7.28663c-2.58091,3.47509 0.20374,6.01877 -3.58943,6.80351c-2.28282,0.47227 -29.01962,-0.39196 -31.21969,-0.39196c-4.77236,0 -8.64112,-3.86876 -8.64112,-8.64112c0,-0.94074 0.15033,-1.84637 0.42828,-2.69417c-0.80384,-1.70967 -1.46813,-3.69649 -1.59341,-5.02216c-0.10914,-1.15483 0.52243,-2.45474 1.34826,-3.7114c0.34615,-4.08748 3.53758,-7.36427 7.58612,-7.8422c0.71568,-0.31258 1.48188,-0.53103 2.28297,-0.6397z" fill="#807973" stroke="none" stroke-width="0.5" stroke-linecap="butt" stroke-linejoin="miter"/><path d="M220.69961,188.51213v6.52102" fill="none" stroke="#999999" stroke-width="1.5" stroke-linecap="round" stroke-linejoin="miter"/><path d="M216.23434,188.51213l1.72971,-5.23444h7.85166l-1.72971,5.23444z" fill="#d9d9d9" stroke="#999999" stroke-width="1.5" stroke-linecap="butt" stroke-linejoin="round"/><path d="M219.23805,185.06058h3.86905" fill="none" stroke="#666666" stroke-width="1" stroke-linecap="round" stroke-linejoin="miter"/><path d="M218.79162,186.66772h1.78571" fill="none" stroke="#666666" stroke-width="1" stroke-linecap="round" stroke-linejoin="miter"/><path d="M226.05783,195.16395l2.57962,-4.7293" fill="none" stroke="#5bf792" stroke-width="2" stroke-linecap="round" stroke-linejoin="miter"/><path d="M233.0443,191.22287l-2.57962,3.40366" fill="none" stroke="#5bf792" stroke-width="2" stroke-linecap="round" stroke-linejoin="miter"/><path d="M255.90258,186.7802l-4.87261,-1.57643" fill="none" stroke="#f7f75c" stroke-width="2" stroke-linecap="round" stroke-linejoin="miter"/><path d="M255.40099,189.61061l-2.25717,-0.85987" fill="none" stroke="#f7f75c" stroke-width="2" stroke-linecap="round" stroke-linejoin="miter"/><path d="M253.17965,172.69978l-2.18551,2.00637" fill="none" stroke="#f75c99" stroke-width="2" stroke-linecap="round" stroke-linejoin="miter"/><path d="M247.84127,170.22765l-1.57643,4.22771" fill="none" stroke="#f75c99" stroke-width="2" stroke-linecap="round" stroke-linejoin="miter"/><path d="M223.08411,169.6544l5.44586,2.29299" fill="none" stroke="#5cf7e7" stroke-width="2" stroke-linecap="round" stroke-linejoin="miter"/><path d="M220.57614,172.16236l3.86943,1.54061" fill="none" stroke="#5cf7e7" stroke-width="2" stroke-linecap="round" stroke-linejoin="miter"/><path d="M244.58092,186.7802c0,-5.14469 4.1706,-9.31529 9.31529,-9.31529c5.14469,0 9.31529,4.1706 9.31529,9.31529c0,5.14469 -4.1706,9.31529 -9.31529,9.31529c-5.14469,0 -9.31529,-4.1706 -9.31529,-9.31529z" fill="url(#color-1)" stroke="none" stroke-width="0" stroke-linecap="butt" stroke-linejoin="miter"/><path d="M240.24573,172.95058c0,-5.14469 4.1706,-9.31529 9.31529,-9.31529c5.14469,0 9.31529,4.1706 9.31529,9.31529c0,5.14469 -4.1706,9.31529 -9.31529,9.31529c-5.14469,0 -9.31529,-4.1706 -9.31529,-9.31529z" fill="url(#color-2)" stroke="none" stroke-width="0" stroke-linecap="butt" stroke-linejoin="miter"/><path d="M214.27041,171.66077c0,-5.14469 4.1706,-9.31529 9.31529,-9.31529c5.14469,0 9.31529,4.1706 9.31529,9.31529c0,5.14469 -4.1706,9.31529 -9.31529,9.31529c-5.14469,0 -9.31529,-4.1706 -9.31529,-9.31529z" fill="url(#color-3)" stroke="none" stroke-width="0" stroke-linecap="butt" stroke-linejoin="miter"/><path d="M220.32535,189.10902c0,-5.14469 4.1706,-9.31529 9.31529,-9.31529c5.14469,0 9.31529,4.1706 9.31529,9.31529c0,5.14469 -4.1706,9.31529 -9.31529,9.31529c-5.14469,0 -9.31529,-4.1706 -9.31529,-9.31529z" fill="url(#color-4)" stroke="none" stroke-width="0" stroke-linecap="butt" stroke-linejoin="miter"/><path d="M214,197.03315v-2h52v2z" fill="#cccccc" stroke="none" stroke-width="0" stroke-linecap="butt" stroke-linejoin="miter"/></g></g></svg>