<svg version="1.1" xmlns="http://www.w3.org/2000/svg" xmlns:xlink="http://www.w3.org/1999/xlink" width="109.68083" height="61.5" viewBox="0,0,109.68083,61.5"><defs><linearGradient x1="217.90506" y1="165.51464" x2="217.90506" y2="171.22009" gradientUnits="userSpaceOnUse" id="color-1"><stop offset="0" stop-color="#93f2ff"/><stop offset="1" stop-color="#d0ffcb"/></linearGradient><linearGradient x1="217.90506" y1="171.22009" x2="217.90506" y2="174.7263" gradientUnits="userSpaceOnUse" id="color-2"><stop offset="0" stop-color="#636666"/><stop offset="1" stop-color="#a8adad"/></linearGradient><linearGradient x1="217.905" y1="170.805" x2="217.905" y2="186.075" gradientUnits="userSpaceOnUse" id="color-3"><stop offset="0" stop-color="#666666" stop-opacity="0"/><stop offset="1" stop-color="#666666"/></linearGradient></defs><g transform="translate(-185.905,-149.125)"><g stroke-miterlimit="10"><path d="M290.655,152.875v54h-101v-54z" fill="#333333" fill-rule="nonzero" stroke="#333333" stroke-width="7.5" stroke-linecap="butt" stroke-linejoin="round"/><g fill-rule="nonzero"><path d="M190.905,190.435v-36h54v36z" fill="#bfb4a3" stroke="#666666" stroke-width="2" stroke-linecap="butt" stroke-linejoin="round"/><path d="M204.31704,169.31461c1.16646,1.69482 1.69681,3.6532 0.28354,5.37528c-0.27551,0.33571 -1.14746,1.10778 -1.99855,1.58577c0.13903,2.59602 -1.69895,5.4434 -3.34148,5.0112c-0.23442,0.06669 -0.51397,0.08189 -0.84316,0.03596c-0.72909,-0.10173 -1.90672,-1.72806 -2.73014,-3.30262c-0.21067,-0.12536 -0.41023,-0.27233 -0.59198,-0.42711c-1.70829,-1.45483 -1.44716,-4.10749 -0.0276,-5.66727c0.06461,-0.07099 0.16423,-0.16015 0.28855,-0.2563c-0.34043,-1.62936 -0.1583,-3.7691 -0.03289,-4.97573c0.0921,-0.88618 0.62399,-1.67988 1.29708,-2.22066c-0.00007,-0.0066 -0.0001,-0.01322 -0.0001,-0.01984c0,-1.07944 0.87506,-1.9545 1.9545,-1.9545c0.44084,0 0.84759,0.14595 1.17457,0.39217c2.1655,0.56823 4.28607,3.58472 4.20796,5.97186c0.17206,0.19692 0.30267,0.36895 0.3597,0.45181z" fill="#208029" stroke="none" stroke-width="0.5" stroke-linecap="butt" stroke-linejoin="miter"/><path d="M196.91329,186.46815l-0.83279,-6.40169h6.08816l-0.83279,6.40169z" fill="#997e4d" stroke="#997e4d" stroke-width="2" stroke-linecap="butt" stroke-linejoin="round"/><path d="M231.85266,168.8628c-0.07812,-2.38715 2.04245,-5.40363 4.20796,-5.97186c0.32698,-0.24622 0.73373,-0.39217 1.17458,-0.39217c1.07944,0 1.9545,0.87506 1.9545,1.9545c0,0.00662 -0.00003,0.01323 -0.0001,0.01984c0.67308,0.54078 1.20497,1.33449 1.29708,2.22066c0.12541,1.20663 0.30754,3.34637 -0.03289,4.97573c0.12432,0.09616 0.22395,0.18532 0.28855,0.2563c1.41956,1.55979 1.68068,4.21244 -0.0276,5.66728c-0.18174,0.15478 -0.3813,0.30174 -0.59197,0.4271c-0.82343,1.57456 -2.00106,3.20088 -2.73015,3.30262c-0.32919,0.04593 -0.60874,0.03074 -0.84316,-0.03595c-1.64254,0.4322 -3.48052,-2.41518 -3.34148,-5.0112c-0.85109,-0.47798 -1.72304,-1.25005 -1.99855,-1.58577c-1.41326,-1.72207 -0.88292,-3.68046 0.28354,-5.37528c0.05703,-0.08286 0.18765,-0.25489 0.3597,-0.45181z" fill="#208029" stroke="none" stroke-width="0.5" stroke-linecap="butt" stroke-linejoin="miter"/><path d="M234.47413,186.46815l-0.83279,-6.40169h6.08816l-0.83279,6.40169z" fill="#997e4d" stroke="#997e4d" stroke-width="2" stroke-linecap="butt" stroke-linejoin="round"/><path d="M211.60987,187.20998v-3.50622h12.59028v3.50622z" fill="#666666" stroke="#666666" stroke-width="1" stroke-linecap="butt" stroke-linejoin="miter"/><path d="M211.60987,186.13115v-11.36632h12.59028v11.36632z" fill="#c9c9c9" stroke="#666666" stroke-width="1" stroke-linecap="butt" stroke-linejoin="miter"/><path d="M224.20015,162.70498v12.05986h-12.59028v-12.05986z" fill="#b8b8b8" stroke="#666666" stroke-width="1" stroke-linecap="butt" stroke-linejoin="miter"/><path d="M222.91723,165.51464v5.70544h-10.02433v-5.70544z" fill="url(#color-1)" stroke="#666666" stroke-width="1" stroke-linecap="butt" stroke-linejoin="miter"/><path d="M211.60986,186.55498v-23.85" fill="none" stroke-opacity="0.68627" stroke="#6ca0b8" stroke-width="1.5" stroke-linecap="round" stroke-linejoin="miter"/><path d="M224.20015,186.68983v-23.85" fill="none" stroke-opacity="0.68627" stroke="#6ca0b8" stroke-width="1.5" stroke-linecap="round" stroke-linejoin="miter"/><path d="M211.60986,162.70498v-1.81822h12.59028v1.81822z" fill="#f15151" stroke="#666666" stroke-width="1" stroke-linecap="butt" stroke-linejoin="miter"/><path d="M212.8929,174.7263v-3.50622h10.02433v3.50622z" fill="url(#color-2)" stroke="#666666" stroke-width="1" stroke-linecap="butt" stroke-linejoin="miter"/></g><path d="M190.905,190.435v-19.62h54v19.62z" fill="url(#color-3)" fill-rule="nonzero" stroke="none" stroke-width="1" stroke-linecap="butt" stroke-linejoin="miter"/><text transform="translate(201.265,201.895) scale(0.23,0.23)" font-size="40" xml:space="preserve" fill="#ffffff" fill-rule="nonzero" stroke="none" stroke-width="1" stroke-linecap="butt" stroke-linejoin="miter" font-family="Sans Serif" font-weight="400" text-anchor="start"><tspan x="0" dy="0">680,000G</tspan></text><text transform="translate(259.725,161.015) scale(0.23,0.23)" font-size="40" xml:space="preserve" fill="#eeeeee" fill-rule="nonzero" stroke="none" stroke-width="1" stroke-linecap="butt" stroke-linejoin="miter" font-family="Sans Serif" font-weight="400" text-anchor="start"><tspan x="0" dy="0">23,000G</tspan></text><text transform="translate(259.725,171.865) scale(0.23,0.23)" font-size="40" xml:space="preserve" fill="#eeeeee" fill-rule="nonzero" stroke="none" stroke-width="1" stroke-linecap="butt" stroke-linejoin="miter" font-family="Sans Serif" font-weight="400" text-anchor="start"><tspan x="0" dy="0">30G</tspan></text><text transform="translate(259.725,193.565) scale(0.23,0.23)" font-size="40" xml:space="preserve" fill="#eeeeee" fill-rule="nonzero" stroke="none" stroke-width="1" stroke-linecap="butt" stroke-linejoin="miter" font-family="Sans Serif" font-weight="400" text-anchor="start"><tspan x="0" dy="0">-12</tspan></text><text transform="translate(191.905,186.975) scale(0.21,0.21)" font-size="40" xml:space="preserve" fill="#ffffff" fill-rule="nonzero" stroke="none" stroke-width="1" stroke-linecap="butt" stroke-linejoin="miter" font-family="Sans Serif" font-weight="400" text-anchor="start"><tspan x="0" dy="0">ATM</tspan></text><path d="M254.295,186.785c0.32,-0.29 0.47,-0.2 0.33,0.21l-0.87,2.69c-0.13,0.42 0.09,0.86 0.51,0.99l0.32,0.1c0.41,0.13 0.49,0.48 0.17,0.77l-3.61,3.35c-0.32,0.29 -0.47,0.2 -0.33,-0.21l0.87,-2.69c0.13,-0.42 -0.09,-0.86 -0.51,-0.99l-0.31,-0.1c-0.41,-0.13 -0.49,-0.48 -0.17,-0.77z" fill="#eeeeee" fill-rule="nonzero" stroke="#eeeeee" stroke-width="0.65" stroke-linecap="butt" stroke-linejoin="miter"/><path d="M191.855,200.155l-0.95,-2.39l5.74,-2.29l0.95,2.39zM255.835,159.085l-0.04,3.17l-0.94,-0.33l-0.55,-1.77l-1.56,1.03l-3.15,-1.11l1.97,-2.49z" fill="#ffffff" fill-rule="nonzero" stroke="#ffffff" stroke-width="1.25" stroke-linecap="butt" stroke-linejoin="round"/><path d="M194.725,199.015l1.55,3.88M255.115,154.335l-1.41,3.99" fill="none" fill-rule="nonzero" stroke="#ffffff" stroke-width="1.25" stroke-linecap="round" stroke-linejoin="miter"/><path d="M253.445,166.095c0.03,-0.02 0.09,-0.01 0.09,0.03l0.27,1.13c0,0 0.67,0.49 0.87,0.84c0.34,0.58 0.35,1.05 0.35,1.05c0,0 0.75,0.22 0.87,0.82c0.13,0.6 -0.34,1.73 -2.31,2.13c-1.98,0.39 -3.57,-0.15 -4.31,-1.35c-0.75,-1.2 0.43,-2.63 0.37,-2.55l-0.22,-1.89c-0.01,-0.04 0.04,-0.07 0.09,-0.05l1.27,0.83c0,0 0.47,-0.18 0.97,-0.2c0.29,-0.02 0.55,0 0.79,0.04z" fill="#eeeeee" fill-rule="nonzero" stroke="#eeeeee" stroke-width="0.65" stroke-linecap="butt" stroke-linejoin="miter"/><path d="M256.945,169.305c-0.49,0.4 -1.25,0.41 -1.25,0.41M256.805,170.485c-0.66,0.05 -1.07,-0.15 -1.07,-0.15M248.495,169.275c0,0 0.91,0.29 1.27,0.62M249.795,170.265c-0.45,0.18 -1.23,0.06 -1.23,0.06" fill="none" fill-rule="nonzero" stroke="#eeeeee" stroke-width="0.65" stroke-linecap="round" stroke-linejoin="miter"/><text transform="translate(196.51457,208.46654) scale(0.11803,0.11803)" font-size="40" xml:space="preserve" fill="#cccccc" fill-rule="nonzero" stroke="none" stroke-width="1" stroke-linecap="butt" stroke-linejoin="miter" font-family="Sans Serif" font-weight="400" text-anchor="start"><tspan x="0" dy="0">Lv.15</tspan></text><path d="M192.39673,206.48984c0.35371,-0.09488 0.62995,-0.37113 0.72483,-0.72484l0.2162,-0.80411c0.10269,-0.38013 0.64197,-0.38013 0.74406,0l0.21679,0.80411c0.09488,0.35371 0.37113,0.62996 0.72423,0.72484l0.80411,0.21619c0.38013,0.10269 0.38013,0.64196 0,0.74465l-0.80411,0.2162c-0.35311,0.09488 -0.62935,0.37113 -0.72423,0.72423l-0.21679,0.80411c-0.10209,0.38013 -0.64137,0.38013 -0.74406,0l-0.2162,-0.80411c-0.09488,-0.35311 -0.37112,-0.62935 -0.72483,-0.72423l-0.80411,-0.2162c-0.38013,-0.10269 -0.38013,-0.64196 0,-0.74465z" fill="#cccccc" fill-rule="evenodd" stroke="none" stroke-width="1" stroke-linecap="butt" stroke-linejoin="miter"/></g></g></svg>