<svg version="1.1" xmlns="http://www.w3.org/2000/svg" xmlns:xlink="http://www.w3.org/1999/xlink" width="1460.00001" height="407.68973" viewBox="0,0,1460.00001,407.68973"><defs><linearGradient x1="240.00002" y1="0" x2="240.00002" y2="360" gradientUnits="userSpaceOnUse" id="color-1"><stop offset="0" stop-color="#1e6388"/><stop offset="1" stop-color="#bef2c5"/></linearGradient><radialGradient cx="426.91683" cy="215.63371" r="5.76077" gradientUnits="userSpaceOnUse" id="color-2"><stop offset="0" stop-color="#e0d475"/><stop offset="1" stop-color="#e0d475" stop-opacity="0"/></radialGradient><radialGradient cx="426.91683" cy="251.63967" r="5.76077" gradientUnits="userSpaceOnUse" id="color-3"><stop offset="0" stop-color="#e0d475"/><stop offset="1" stop-color="#e0d475" stop-opacity="0"/></radialGradient><linearGradient x1="427.17316" y1="187.11313" x2="427.17316" y2="206.01092" gradientUnits="userSpaceOnUse" id="color-4"><stop offset="0" stop-color="#6b6b6b"/><stop offset="1" stop-color="#525252"/></linearGradient><linearGradient x1="427.03486" y1="192.93797" x2="427.03486" y2="200.22777" gradientUnits="userSpaceOnUse" id="color-5"><stop offset="0" stop-color="#46ffff"/><stop offset="1" stop-color="#54908e"/></linearGradient><linearGradient x1="408.46337" y1="195.21191" x2="408.46337" y2="199.59564" gradientUnits="userSpaceOnUse" id="color-6"><stop offset="0" stop-color="#606060"/><stop offset="1" stop-color="#5b5b5b"/></linearGradient><radialGradient cx="436.43463" cy="190.43771" r="7.41598" gradientUnits="userSpaceOnUse" id="color-7"><stop offset="0" stop-color="#ffffff" stop-opacity="0.50196"/><stop offset="1" stop-color="#ffffff" stop-opacity="0"/></radialGradient><radialGradient cx="421.05523" cy="192.87567" r="5.97836" gradientUnits="userSpaceOnUse" id="color-8"><stop offset="0" stop-color="#ffffff" stop-opacity="0.50196"/><stop offset="1" stop-color="#ffffff" stop-opacity="0"/></radialGradient><radialGradient cx="422.67536" cy="189.97777" r="8.96753" gradientUnits="userSpaceOnUse" id="color-9"><stop offset="0" stop-color="#ffffff" stop-opacity="0.50196"/><stop offset="1" stop-color="#ffffff" stop-opacity="0"/></radialGradient><radialGradient cx="439.31727" cy="187.06306" r="7.13051" gradientUnits="userSpaceOnUse" id="color-10"><stop offset="0" stop-color="#ffffff" stop-opacity="0.50196"/><stop offset="1" stop-color="#ffffff" stop-opacity="0"/></radialGradient><radialGradient cx="436.43484" cy="181.55673" r="9.40127" gradientUnits="userSpaceOnUse" id="color-11"><stop offset="0" stop-color="#ffffff" stop-opacity="0.50196"/><stop offset="1" stop-color="#ffffff" stop-opacity="0"/></radialGradient><radialGradient cx="411.1622" cy="185.53213" r="8.32954" gradientUnits="userSpaceOnUse" id="color-12"><stop offset="0" stop-color="#ffffff" stop-opacity="0.50196"/><stop offset="1" stop-color="#ffffff" stop-opacity="0"/></radialGradient><radialGradient cx="414.5973" cy="181.89348" r="7.41598" gradientUnits="userSpaceOnUse" id="color-13"><stop offset="0" stop-color="#ffffff" stop-opacity="0.50196"/><stop offset="1" stop-color="#ffffff" stop-opacity="0"/></radialGradient><radialGradient cx="410.65371" cy="178.74427" r="5.97835" gradientUnits="userSpaceOnUse" id="color-14"><stop offset="0" stop-color="#ffffff" stop-opacity="0.50196"/><stop offset="1" stop-color="#ffffff" stop-opacity="0"/></radialGradient><linearGradient x1="240.00002" y1="300.39265" x2="240.00002" y2="407.68972" gradientUnits="userSpaceOnUse" id="color-15"><stop offset="0" stop-color="#cc9d7a"/><stop offset="1" stop-color="#594536"/></linearGradient><linearGradient x1="240.00002" y1="280.64271" x2="240.00002" y2="289.81816" gradientUnits="userSpaceOnUse" id="color-16"><stop offset="0" stop-color="#f2b6d8" stop-opacity="0.74902"/><stop offset="1" stop-color="#f2b6d8" stop-opacity="0"/></linearGradient><linearGradient x1="239.96267" y1="33.23787" x2="239.96267" y2="96.87962" gradientTransform="translate(-40.98456,-61.06923) scale(0.7541,0.7541)" gradientUnits="userSpaceOnUse" id="color-17"><stop offset="0" stop-color="#0044b0"/><stop offset="1" stop-color="#00b049"/></linearGradient><linearGradient x1="240.00001" y1="85.20357" x2="240.00001" y2="109.20357" gradientTransform="translate(-368.27149,-206.40712) scale(2,2)" gradientUnits="userSpaceOnUse" id="color-18"><stop offset="0" stop-color="#cc0ab9"/><stop offset="1" stop-color="#310acc"/></linearGradient><linearGradient x1="240.00001" y1="85.20357" x2="240.00001" y2="109.20357" gradientTransform="translate(-368.27149,-206.40712) scale(2,2)" gradientUnits="userSpaceOnUse" id="color-19"><stop offset="0" stop-color="#cc0ab9"/><stop offset="1" stop-color="#310acc"/></linearGradient></defs><g transform="translate(489.99999,0)"><g data-paper-data="{&quot;isPaintingLayer&quot;:true}" stroke-miterlimit="10" stroke-dasharray="" stroke-dashoffset="0" style="mix-blend-mode: normal"><path d="M0.00002,360v-360h480v360z" fill="url(#color-1)" fill-rule="nonzero" stroke="none" stroke-width="0" stroke-linecap="butt" stroke-linejoin="miter"/><path d="M-188.27187,244.84769l219.23304,-204.96216l219.23304,204.96216z" fill-opacity="0.74902" fill="#4f4f4f" fill-rule="nonzero" stroke="none" stroke-width="0" stroke-linecap="butt" stroke-linejoin="miter"/><path d="M-126.80726,244.84769l220.94685,-206.79509l130.74328,60.25836l144.84203,146.53673z" fill-opacity="0.96863" fill="#6b6b6b" fill-rule="nonzero" stroke="none" stroke-width="0" stroke-linecap="butt" stroke-linejoin="miter"/><path d="M31.65414,38.96546l52.62745,49.9564l-47.76378,0.23732l-43.02481,5.8144l-16.5394,-4.50913z" fill="#bfbfbf" fill-rule="nonzero" stroke="none" stroke-width="0" stroke-linecap="round" stroke-linejoin="miter"/><path d="M121.39775,10.79663l23.84133,10.37955l21.58383,33.12127l29.27683,3.97982l29.1687,40.05167l-28.64295,12.7534l-67.80137,-13.14721l-69.08671,14.3702l-28.77623,-15.44033z" fill="#eaeaea" fill-rule="nonzero" stroke="none" stroke-width="0" stroke-linecap="round" stroke-linejoin="miter"/><path d="M-188.27187,280.81984l283.9252,-118.21443l269.68063,118.21443z" fill="#56712e" fill-rule="nonzero" stroke="none" stroke-width="0" stroke-linecap="butt" stroke-linejoin="miter"/><path d="M62.11169,252.03036c0,-5.14568 1.92045,-8.55944 6.25,-10.9375c3.76748,-2.06934 17.30494,-3.25075 21.86022,-2.57615c2.33066,0 4.51235,0.63786 6.38001,1.74854c0.7333,0.33696 1.42904,0.73046 2.04714,1.19034c7.35076,-2.30189 15.13912,-4.34716 22.63723,-5.41832c0.64509,-0.10269 1.30663,-0.15604 1.98063,-0.15604c1.87761,0 3.65853,0.41398 5.25646,1.15563c1.47306,0.52323 2.84715,1.31814 4.16243,2.69888c3.08203,3.23543 3.79654,7.70178 2.74033,11.68206c2.46239,2.24932 3.58446,5.40894 3.58446,9.12723c0,13.04975 -14.92704,13.39204 -25.47138,12.40013c-4.7751,3.73228 -12.63993,3.72684 -18.14953,5.4425c-1.42166,0.4427 -4.64616,2.11238 -5.24541,2.12089c-10.54912,0.14983 -15.79738,-8.14899 -13.33844,-16.34821c-7.53687,0.24827 -14.69414,-1.18389 -14.69414,-12.12997z" fill-opacity="0.50196" fill="#ffbfe3" fill-rule="nonzero" stroke="none" stroke-width="0.5" stroke-linecap="butt" stroke-linejoin="miter"/><path d="M68.1936,199.47667c0,-5.6476 2.10777,-9.39435 6.85965,-12.00439c4.13497,-2.27119 18.99293,-3.56785 23.99255,-2.82744c2.55801,0 4.95251,0.70008 7.00234,1.91909c0.80483,0.36982 1.56844,0.80172 2.24683,1.30645c8.06778,-2.52642 16.61584,-4.77121 24.84534,-5.94685c0.70801,-0.11272 1.43409,-0.17126 2.17383,-0.17126c2.06076,0 4.01538,0.45435 5.76918,1.26835c1.61675,0.57428 3.12487,1.44671 4.56845,2.96214c3.38267,3.55102 4.16688,8.45304 3.00763,12.82157c2.70258,2.46873 3.93411,5.93654 3.93411,10.01754c0,14.32268 -16.38308,14.69836 -27.95596,13.60969c-5.24088,4.09634 -13.87288,4.09037 -19.91991,5.97337c-1.56033,0.48588 -5.09937,2.31843 -5.75707,2.32777c-11.57812,0.16445 -17.33832,-8.94387 -14.63952,-17.94287c-8.27205,0.27249 -16.12746,-1.29937 -16.12746,-13.31317z" fill-opacity="0.50196" fill="#ffbfe3" fill-rule="nonzero" stroke="none" stroke-width="0.5" stroke-linecap="butt" stroke-linejoin="miter"/><path d="M27.86071,214.42425c-9.69073,1.10881 -25.55439,3.89052 -25.55439,-11.25185c0,-2.49528 0.71512,-5.06006 1.95313,-7.22656c2.32819,-4.07433 6.53895,-4.43229 10.54688,-5.27344c5.42349,-1.13824 11.08175,-1.4001 16.5991,-2.21502c0.0309,-0.16165 0.06376,-0.32238 0.09926,-0.48185c0.22234,-0.99893 0.5477,-1.94911 1.13699,-2.77438c2.56537,-3.59272 5.63106,-5.00987 8.8612,-5.16075c0.5513,-0.07432 1.11401,-0.11269 1.68567,-0.11269c2.40337,0 4.64832,0.67828 6.55387,1.85386c2.54769,1.03587 5.02498,2.3794 7.27308,3.6008c5.88784,3.19887 17.46297,8.10772 16.31057,16.77639c-0.32883,2.47352 -0.71512,5.06005 -1.95312,7.22656c-0.60859,1.06504 -1.52231,1.95291 -2.55087,2.6763c-0.92209,1.23525 -2.06714,2.29431 -3.37554,3.11755c-5.27992,4.64061 -12.96137,8.89078 -17.26487,9.96666c-6.45191,1.61298 -15.37852,-4.53576 -14.97616,-11.46963c-2.10786,0.34487 -3.97683,0.59155 -5.34478,0.74807z" fill-opacity="0.50196" fill="#ffbfe3" fill-rule="nonzero" stroke="none" stroke-width="0.5" stroke-linecap="butt" stroke-linejoin="miter"/><path d="M382.5221,163.11003l0.36835,4.9113c0,0 0.2363,3.30753 0.2684,3.64138c0.10568,1.09909 0.40152,4.17609 0.40152,4.17609l0.05051,0.70683c0,0 0.2766,1.16065 0.37624,1.58587c0.06568,0.28027 0.16345,0.71718 0.16345,0.71718c0,0 0.14542,0.13926 0.18491,0.37608c0.05447,0.32674 0.01401,0.80359 0.07521,1.03547c0.12424,0.47081 0.38962,0.97537 0.44189,1.11222c0.15081,0.39485 0.57912,1.51629 0.57912,1.51629l0.89324,1.51359c0,0 0.73274,0.71706 1.03229,1.18274c0.31635,0.4918 0.81815,1.69397 0.81815,1.69397l0.46515,1.68267l0.39808,1.4939l0.38246,2.34018l0.39283,1.19739l0.98314,1.89268l1.38629,1.8312l1.77563,2.22055l1.25661,1.25661l0.02771,0.01387l0.03197,-0.00222c0,0 9.92416,4.79605 5.10033,4.67494c-5.50939,-0.13834 -33.10157,1.93394 -41.49259,0.29601c-5.16637,-1.00849 6.52742,-5.99202 6.65219,-6.12799c0.47662,-0.51943 1.2127,-1.61318 1.2127,-1.61318l0.63127,-1.02582l0.56779,-1.29519l0.19545,-0.45605l0.42373,-1.42802l0.18502,-0.74012l0.17795,-1.51264v-0.72136l0.26694,-1.92819v-6.25792l0.02345,-0.0938l-0.01486,-0.09553l0.0804,-0.88431v-3.125l-0.04316,-0.12946l-0.53555,-1.34425l-0.0045,-0.03946l-0.02132,-0.03351l-0.4168,-1.54325l-0.15121,-0.49686l0.01869,-0.03329l-0.00288,-0.01153l-0.03943,-0.80814l-0.22751,-0.97147v-1.77959l0.19873,-1.28163l0.16997,-1.5297l1.10476,-6.18433z" fill="#b87e48" fill-rule="nonzero" stroke="none" stroke-width="0.5" stroke-linecap="butt" stroke-linejoin="miter"/><path d="M393.60496,165.41955c-9.87847,3.13535 -14.91621,0.05174 -14.91621,0.05174c0,0 -1.11248,4.27591 -18.37245,3.24871c-7.91931,-0.4713 -9.8148,-6.19213 -9.8148,-6.19213c0,0 -11.55526,-1.04621 -12.75247,-15.91515c-1.52404,-9.60502 4.86207,-14.21974 4.86207,-14.21974c0,0 -0.65738,-12.02235 12.33709,-14.89267c3.71882,-2.3099 13.87984,1.37014 13.87984,1.37014c0,0 4.4337,-6.23855 10.84238,-5.21917c15.87381,2.52493 19.34446,8.14634 19.34446,8.14634c0,0 7.85917,-0.71587 12.04312,5.69941c2.29248,3.82968 3.34859,11.56592 1.49752,16.92081c-4.29323,12.41973 -10.7232,9.78687 -10.7232,9.78687c0,0 3.06598,7.63041 -8.22738,11.21484z" fill="#ffbfe3" fill-rule="nonzero" stroke="none" stroke-width="0" stroke-linecap="butt" stroke-linejoin="miter"/><path d="M26.81035,231.53463l1.27186,7.11969l0.19567,1.76106l0.22879,1.47547v2.04875l-0.26192,1.1184l-0.0454,0.93037l-0.00332,0.01327l0.02151,0.03833l-0.17408,0.572l-0.47983,1.77666l-0.02455,0.03858l-0.00519,0.04543l-0.61655,1.54756l-0.04968,0.14904v3.59765l0.09256,1.01806l-0.0171,0.10997l0.02699,0.10798v7.20442l0.30731,2.21983v0.83046l0.20487,1.74142l0.21301,0.85206l0.48782,1.644l0.22501,0.52503l0.65367,1.49109l0.72675,1.18097c0,0 0.84741,1.25917 1.39612,1.85716c0.14364,0.15653 13.60608,5.89381 7.65831,7.05483c-9.66014,1.88567 -41.42556,-0.50004 -47.76822,-0.34078c-5.55342,0.13943 5.87174,-5.38201 5.87174,-5.38201l0.03681,0.00255l0.0319,-0.01596l1.44667,-1.44667l2.04419,-2.5564l1.59596,-2.10816l1.13184,-2.17894l0.45225,-1.37849l0.44031,-2.69413l0.45829,-1.71985l0.5355,-1.93717c0,0 0.5777,-1.38398 0.9419,-1.95017c0.34485,-0.53611 1.18842,-1.36163 1.18842,-1.36163l1.02834,-1.74251c0,0 0.49308,-1.29105 0.6667,-1.74562c0.06018,-0.15755 0.3657,-0.73843 0.50873,-1.28044c0.07045,-0.26695 0.02388,-0.81593 0.08659,-1.19208c0.04545,-0.27264 0.21287,-0.43296 0.21287,-0.43296c0,0 0.11255,-0.50299 0.18817,-0.82565c0.11471,-0.48953 0.43315,-1.82572 0.43315,-1.82572l0.05815,-0.81373c0,0 0.34059,-3.5424 0.46225,-4.80772c0.03695,-0.38434 0.30899,-4.19212 0.30899,-4.19212l0.42406,-5.65412z" fill="#b87e48" fill-rule="nonzero" stroke="none" stroke-width="0.5" stroke-linecap="butt" stroke-linejoin="miter"/><path d="M-1.13055,234.6825c-13.00145,-4.12656 -9.47175,-12.91105 -9.47175,-12.91105c0,0 -7.40248,3.03107 -12.34505,-11.2671c-2.13103,-6.1648 -0.91519,-15.07113 1.72402,-19.48003c4.81675,-7.38557 13.8646,-6.56142 13.8646,-6.56142c0,0 3.99558,-6.47163 22.27025,-9.37845c7.37798,-1.17356 12.48226,6.00856 12.48226,6.00856c0,0 11.69784,-4.23665 15.97912,-1.57738c14.95985,3.30445 14.20304,17.14515 14.20304,17.14515c0,0 7.35198,5.31268 5.59744,16.37043c-1.37829,17.11782 -14.68124,18.32227 -14.68124,18.32227c0,0 -2.18218,6.58608 -11.29926,7.12866c-19.87048,1.18257 -21.15123,-3.74006 -21.15123,-3.74006c0,0 -5.79968,3.54999 -17.17224,-0.05957z" fill="#ffbfe3" fill-rule="nonzero" stroke="none" stroke-width="0" stroke-linecap="butt" stroke-linejoin="miter"/><path d="M37.27884,280.81984l354.32001,-84.21422l199.28583,84.21422z" fill="#80a845" fill-rule="nonzero" stroke="none" stroke-width="0" stroke-linecap="butt" stroke-linejoin="miter"/><path d="M228.60885,212.80902l1.10477,6.18433l0.16996,1.5297l0.19873,1.28163v1.77959l-0.22751,0.97147l-0.03943,0.80814l-0.00288,0.01153l0.01868,0.0333l-0.15121,0.49685l-0.41679,1.54325l-0.02132,0.03352l-0.0045,0.03946l-0.53555,1.34425l-0.04316,0.12946v3.12501l0.0804,0.88431l-0.01485,0.09553l0.02344,0.09379v6.25793l0.26694,1.9282v0.72136l0.17795,1.51263l0.18502,0.74012l0.42373,1.42802l0.19545,0.45605l0.56779,1.29519l0.63128,1.02582c0,0 0.73608,1.09374 1.2127,1.61317c0.12477,0.13596 11.81856,5.1195 6.65219,6.12799c-8.39103,1.63794 -35.98321,-0.43434 -41.4926,-0.296c-4.82383,0.12111 5.10033,-4.67494 5.10033,-4.67494l0.03197,0.00221l0.02771,-0.01387l1.25661,-1.25661l1.77563,-2.22055l1.38629,-1.8312l0.98314,-1.89267l0.39283,-1.19739l0.38246,-2.34019l0.39808,-1.4939l0.46515,-1.68267c0,0 0.5018,-1.20216 0.81815,-1.69396c0.29954,-0.46568 1.03229,-1.18275 1.03229,-1.18275l0.89324,-1.51359c0,0 0.4283,-1.12143 0.57911,-1.51628c0.05228,-0.13685 0.31766,-0.64141 0.4419,-1.11222c0.06119,-0.23188 0.02074,-0.70874 0.07521,-1.03547c0.03948,-0.23682 0.18491,-0.37608 0.18491,-0.37608c0,0 0.09776,-0.43691 0.16345,-0.71717c0.09964,-0.42521 0.37624,-1.58587 0.37624,-1.58587l0.05051,-0.70682c0,0 0.29585,-3.07701 0.40152,-4.1761c0.03209,-0.33384 0.26839,-3.64137 0.26839,-3.64137l0.36835,-4.9113z" fill="#b87e48" fill-rule="nonzero" stroke="none" stroke-width="0.5" stroke-linecap="butt" stroke-linejoin="miter"/><path d="M204.33872,215.54334c-11.29336,-3.58443 -8.22738,-11.21484 -8.22738,-11.21484c0,0 -6.42997,2.63286 -10.7232,-9.78687c-1.85107,-5.35489 -0.79496,-13.09113 1.49752,-16.92081c4.18394,-6.41528 12.04312,-5.69941 12.04312,-5.69941c0,0 3.47065,-5.62141 19.34446,-8.14634c6.40868,-1.01938 10.84238,5.21917 10.84238,5.21917c0,0 10.16102,-3.68005 13.87984,-1.37015c12.99448,2.87033 12.33709,14.89268 12.33709,14.89268c0,0 6.38611,4.61472 4.86207,14.21974c-1.19721,14.86894 -12.75247,15.91515 -12.75247,15.91515c0,0 -1.89549,5.72082 -9.8148,6.19212c-17.25996,1.02721 -18.37246,-3.2487 -18.37246,-3.2487c0,0 -5.03774,3.08361 -14.91621,-0.05174z" fill="#ffbfe3" fill-rule="nonzero" stroke="none" stroke-width="0" stroke-linecap="butt" stroke-linejoin="miter"/><path d="M511.14583,212.80902l1.10477,6.18433l0.16997,1.5297l0.19873,1.28163v1.77959l-0.22751,0.97147l-0.03943,0.80814l-0.00288,0.01153l0.01868,0.0333l-0.15121,0.49685l-0.41679,1.54325l-0.02132,0.03352l-0.0045,0.03946l-0.53555,1.34425l-0.04315,0.12946v3.12501l0.0804,0.88431l-0.01485,0.09553l0.02344,0.09379v6.25793l0.26693,1.9282v0.72136l0.17795,1.51263l0.18502,0.74012l0.42374,1.42802l0.19545,0.45605l0.56779,1.29519l0.63127,1.02582c0,0 0.73608,1.09374 1.2127,1.61317c0.12477,0.13596 11.81856,5.1195 6.65219,6.12799c-8.39103,1.63794 -35.98321,-0.43434 -41.4926,-0.296c-4.82383,0.12111 5.10033,-4.67494 5.10033,-4.67494l0.03197,0.00221l0.02771,-0.01387l1.25661,-1.25661l1.77563,-2.22055l1.38629,-1.8312l0.98314,-1.89267l0.39283,-1.19739l0.38246,-2.34019l0.39808,-1.4939l0.46515,-1.68267c0,0 0.5018,-1.20216 0.81815,-1.69396c0.29955,-0.46568 1.03229,-1.18275 1.03229,-1.18275l0.89324,-1.51359c0,0 0.4283,-1.12143 0.57911,-1.51628c0.05228,-0.13685 0.31766,-0.64141 0.44189,-1.11222c0.06119,-0.23188 0.02075,-0.70874 0.07522,-1.03547c0.03948,-0.23682 0.18491,-0.37608 0.18491,-0.37608c0,0 0.09776,-0.43691 0.16345,-0.71717c0.09964,-0.42521 0.37624,-1.58587 0.37624,-1.58587l0.05051,-0.70682c0,0 0.29584,-3.07701 0.40152,-4.1761c0.0321,-0.33384 0.26839,-3.64137 0.26839,-3.64137l0.36835,-4.9113z" fill="#b87e48" fill-rule="nonzero" stroke="none" stroke-width="0.5" stroke-linecap="butt" stroke-linejoin="miter"/><path d="M486.87573,215.54334c-11.29336,-3.58443 -8.22738,-11.21484 -8.22738,-11.21484c0,0 -6.42997,2.63286 -10.7232,-9.78687c-1.85107,-5.35489 -0.79496,-13.09113 1.49752,-16.92081c4.18394,-6.41528 12.04312,-5.69941 12.04312,-5.69941c0,0 3.47065,-5.62141 19.34446,-8.14634c6.40868,-1.01938 10.84238,5.21917 10.84238,5.21917c0,0 10.16102,-3.68005 13.87984,-1.37015c12.99447,2.87033 12.33709,14.89268 12.33709,14.89268c0,0 6.38611,4.61472 4.86207,14.21974c-1.19722,14.86894 -12.75247,15.91515 -12.75247,15.91515c0,0 -1.89549,5.72082 -9.8148,6.19212c-17.25997,1.02721 -18.37246,-3.2487 -18.37246,-3.2487c0,0 -5.03774,3.08361 -14.91621,-0.05174z" fill="#ffbfe3" fill-rule="nonzero" stroke="none" stroke-width="0" stroke-linecap="butt" stroke-linejoin="miter"/><g><g fill-rule="nonzero"><path d="M345.99597,279.97777v-36h54v36z" fill="#a77546" stroke="#666666" stroke-width="2" stroke-linecap="butt" stroke-linejoin="round"/><path d="M363.71339,276.50738v-22.89365h18.56517v22.89365z" fill="#a0a0a0" stroke="#666666" stroke-width="2" stroke-linecap="butt" stroke-linejoin="round"/><path d="M372.99597,276.50738v-22.89365" fill="none" stroke="#666666" stroke-width="2" stroke-linecap="round" stroke-linejoin="miter"/><path d="M346.99597,279.01092v-2h52v2z" fill="#cccccc" stroke="none" stroke-width="0" stroke-linecap="butt" stroke-linejoin="miter"/><path d="M383.67011,247.12517v3.50158h-21.34824v-3.50158z" fill="#303030" stroke="#666666" stroke-width="2" stroke-linecap="butt" stroke-linejoin="round"/><path d="M359.58857,258.1447v6.18372" fill="none" stroke="#666666" stroke-width="2" stroke-linecap="round" stroke-linejoin="miter"/><path d="M359.58857,268.72034v2.92968" fill="none" stroke="#666666" stroke-width="2" stroke-linecap="round" stroke-linejoin="miter"/></g><g fill-rule="nonzero"><path d="M345.99597,243.97777v-36h54v36z" fill="#a77546" stroke="#666666" stroke-width="2" stroke-linecap="butt" stroke-linejoin="round"/><path d="M363.71339,240.50738v-22.89365h18.56517v22.89365z" fill="#a0a0a0" stroke="#666666" stroke-width="2" stroke-linecap="butt" stroke-linejoin="round"/><path d="M372.99597,240.50738v-22.89365" fill="none" stroke="#666666" stroke-width="2" stroke-linecap="round" stroke-linejoin="miter"/><path d="M346.99597,243.01092v-2h52v2z" fill="#cccccc" stroke="none" stroke-width="0" stroke-linecap="butt" stroke-linejoin="miter"/><path d="M383.67011,211.12517v3.50158h-21.34824v-3.50158z" fill="#303030" stroke="#666666" stroke-width="2" stroke-linecap="butt" stroke-linejoin="round"/><path d="M359.58857,228.32842v-6.18372" fill="none" stroke="#666666" stroke-width="2" stroke-linecap="round" stroke-linejoin="miter"/><path d="M359.58857,232.72034v2.92968" fill="none" stroke="#666666" stroke-width="2" stroke-linecap="round" stroke-linejoin="miter"/></g><g fill-rule="nonzero"><path d="M345.99597,207.97777v-36h54v36z" fill="#a77546" stroke="#666666" stroke-width="2" stroke-linecap="butt" stroke-linejoin="round"/><path d="M363.71339,204.50738v-22.89365h18.56517v22.89365z" fill="#a0a0a0" stroke="#666666" stroke-width="2" stroke-linecap="butt" stroke-linejoin="round"/><path d="M372.99597,204.50738v-22.89365" fill="none" stroke="#666666" stroke-width="2" stroke-linecap="round" stroke-linejoin="miter"/><path d="M346.99597,207.01092v-2h52v2z" fill="#cccccc" stroke="none" stroke-width="0" stroke-linecap="butt" stroke-linejoin="miter"/><path d="M383.67011,175.12517v3.50158h-21.34824v-3.50158z" fill="#303030" stroke="#666666" stroke-width="2" stroke-linecap="butt" stroke-linejoin="round"/><path d="M359.58857,192.32842v-6.18372" fill="none" stroke="#666666" stroke-width="2" stroke-linecap="round" stroke-linejoin="miter"/><path d="M359.58857,196.72034v2.92968" fill="none" stroke="#666666" stroke-width="2" stroke-linecap="round" stroke-linejoin="miter"/></g><g><path d="M291.99597,279.97777v-36h54v36z" fill="#bf7530" fill-rule="nonzero" stroke="#666666" stroke-width="2" stroke-linecap="butt" stroke-linejoin="round"/><g stroke-width="0.25"><g fill-rule="evenodd"><g><path d="M319.82351,261.29585c0.4756,-0.09908 1.0503,-0.25762 1.5259,-0.69359c1.08993,-0.97103 1.42682,-2.5762 2.17986,-2.16004c0.77286,0.41616 0.75304,3.01217 -1.66462,3.80485c-0.83231,0.27744 -1.58535,0.27743 -2.19968,0.25762c-0.15853,0 -1.5259,-0.13872 -2.00151,-0.81249c-0.4756,-0.67377 -0.13872,-0.85213 0.01981,-0.9314c0.17836,-0.09908 1.46645,0.65396 2.14023,0.53506z" fill="#ffab19" stroke="#001026" stroke-linecap="round" stroke-linejoin="round"/><path d="M323.41039,258.48185c0.39634,0.1189 0.59451,0.95121 0.39634,1.6448c-0.19817,0.69359 -0.51524,1.0503 -0.77286,1.30792c0.03964,-0.13872 0.1189,-0.57469 -0.21799,-0.83231c-0.41616,-0.33689 -1.14938,-0.15853 -1.14938,-0.15853c0,0 0.61433,-0.75304 0.9314,-1.2881c0.31707,-0.45579 0.41615,-0.75304 0.81249,-0.67377z" fill="#ffffff" stroke="none" stroke-linecap="butt" stroke-linejoin="miter"/></g><path d="M314.57205,259.09618c0,0.51524 -0.41616,1.0503 -0.65396,1.36737c-0.2378,0.31707 -1.34755,1.48627 -2.71492,0.87195c-0.57469,-0.29725 -1.92224,-1.407 -1.20883,-2.06096c0.71341,-0.65396 1.36737,0.15853 1.84297,0.57469c0.39634,0.35671 1.60517,-1.07011 1.70425,-1.14938c0.33689,-0.29725 1.01066,-0.15854 1.03048,0.39634z" fill="#ffab19" stroke="#001026" stroke-linecap="round" stroke-linejoin="round"/><g><path d="M315.00802,261.87054c-0.2378,-0.17836 -0.47561,-0.4756 -0.79268,-0.93139c-0.25762,-0.37652 -0.53505,-1.10975 -0.53505,-1.10975c-0.17836,-0.49543 -0.29725,-1.44663 0.35671,-1.42682c0.43597,0.01981 0.83231,-0.03964 1.50608,-0.13872c1.18901,-0.2378 1.407,-0.39633 1.90242,0.41616c0.53506,0.95121 1.90242,1.6448 0.21799,3.28961c0,0 -0.97103,0.75304 -2.14023,1.90242c-0.79268,0.77286 -2.04114,1.8826 -2.47711,2.25912c-0.09908,0.07927 -0.21799,0.11891 -0.33689,0.13872c-1.92224,0.17836 -3.34905,-0.01982 -3.34905,-0.87195c0,-1.42682 2.83381,-0.9314 2.83381,-0.9314c0,0 0.91158,-0.77286 1.32773,-1.14938z" fill="#ffab19" stroke="#001026" stroke-linecap="round" stroke-linejoin="round"/><path d="M314.13608,260.54281c0,0 -0.37652,-0.49542 0.4756,-1.03048c0.89176,-0.57469 1.22865,0.05945 1.58535,0.53506c0.39634,0.61432 0,0.91158 -0.39634,1.26828c-0.31707,0.29725 -0.61432,0.53506 -0.61432,0.53506c0,0 -0.61433,-0.41616 -1.0503,-1.30792z" fill="#ffffff" stroke="none" stroke-linecap="butt" stroke-linejoin="miter"/></g><path d="M318.15889,259.90867c-0.21799,-0.13872 -0.51524,-0.37652 -0.81249,-0.59451c-0.49543,-0.35671 -1.20883,-1.14938 -0.21799,-1.50608c0.79268,-0.29725 1.50608,0.25762 2.35821,0.87195c0.43597,0.33689 0.95121,0.73323 0.77286,1.34755c-0.19817,0.69359 -1.1692,2.67528 -2.3384,2.02132c-0.85213,-0.57469 -0.17835,-1.26828 0.25762,-1.82316c0.05945,-0.09908 0.03964,-0.21799 -0.01981,-0.31707z" fill="#ffab19" stroke="#001026" stroke-linecap="round" stroke-linejoin="round"/><g><path d="M313.64063,248.4545c0.45579,-0.07927 0.93139,-0.1189 1.48627,-0.07927c0.9314,0.03964 1.82316,0.37652 1.82316,0.37652l2.39784,-1.56553c0.07927,-0.03964 0.17835,0.01982 0.15854,0.09909l-0.41616,3.54723c-0.1189,-0.15853 2.10059,2.53656 0.69359,4.79569c-1.407,2.25912 -4.39935,3.26979 -8.12493,2.53656c-3.72558,-0.73323 -4.59752,-2.87345 -4.35972,-4.00301c0.2378,-1.12956 1.6448,-1.54572 1.6448,-1.54572c0,0 0.01981,-0.89176 0.65396,-1.98169c0.37652,-0.65396 1.6448,-1.58535 1.6448,-1.58535l0.51524,-2.12041c0.01981,-0.07927 0.1189,-0.09909 0.17835,-0.05945z" fill="#ffab19" stroke="#001026" stroke-linecap="butt" stroke-linejoin="miter"/><path d="M312.27326,253.66635c1.66462,0.1189 3.94356,-1.68444 5.2713,0.43597c1.32773,2.10059 -0.95121,4.95422 -5.74691,3.96338c-3.68595,-0.71341 -4.63715,-2.75455 -4.39935,-3.88411c0.2378,-1.12956 1.60517,-1.48627 1.60517,-1.48627c1.68444,-0.37652 1.84297,0.87195 3.26979,0.97103z" fill="#ffffff" stroke="none" stroke-linecap="butt" stroke-linejoin="miter"/><path d="M313.32358,257.25321c-2.08077,0.1189 -2.83381,-1.36737 -3.01216,-1.90242c-0.03964,-0.09908 0.03963,-0.19816 0.13872,-0.17835c0.29725,0.05945 0.9314,0.1189 2.00151,0.05945c1.18901,-0.07927 2.25913,-0.39634 2.63565,-0.53506c0.07927,-0.01981 0.15853,0.03964 0.15853,0.11891c0.05945,0.97103 -0.11891,2.23931 -1.92224,2.43748z" fill="#ffffff" stroke="#001026" stroke-linecap="round" stroke-linejoin="round"/><path d="M307.71539,253.68616c0,0 -1.42682,-0.01982 -2.35821,-0.77286" fill="none" stroke="#001026" stroke-linecap="round" stroke-linejoin="round"/><path d="M307.63612,254.85536c0,0 -0.77286,0.37652 -2.02132,0.27743" fill="none" stroke="#001026" stroke-linecap="round" stroke-linejoin="round"/><path d="M313.26414,253.40873c0,0.31707 -0.83231,0.81249 -1.18901,0.77286c-0.31707,-0.01981 -0.61432,-0.57469 -0.59451,-0.85213c0.01981,-0.13872 0.45579,-0.17835 0.87195,-0.17835c0.39634,0 0.9314,0.01981 0.91158,0.25762z" fill="#001026" stroke="#001026" stroke-linecap="round" stroke-linejoin="round"/><path d="M318.87232,254.02305c0.69359,-0.61432 2.39785,-1.1692 2.39785,-1.1692" fill="none" stroke="#001026" stroke-linecap="round" stroke-linejoin="round"/><path d="M321.13142,254.83555c0,0 -1.46645,0.21799 -2.31857,-0.1189" fill="none" stroke="#001026" stroke-linecap="round" stroke-linejoin="round"/><g><path d="M312.07512,249.88132c0.55488,0.35671 0.53506,1.36737 -0.03963,2.25912c-0.59451,0.89176 -1.50608,1.30792 -2.06096,0.95121c-0.55488,-0.35671 -0.53505,-1.36737 0.03964,-2.25912c0.57469,-0.89176 1.50608,-1.32773 2.06096,-0.95121z" fill="#ffffff" stroke="#001026" stroke-linecap="round" stroke-linejoin="round"/><path d="M310.09341,251.9621c0,-0.21799 0.15853,-0.39634 0.35671,-0.39634c0.19817,0 0.35671,0.17835 0.35671,0.39634c0,0.21799 -0.15853,0.39634 -0.35671,0.39634c-0.19817,0 -0.35671,-0.17836 -0.35671,-0.39634" fill="#001026" stroke="none" stroke-linecap="butt" stroke-linejoin="miter"/></g><g><path d="M317.06896,250.49564c0.61432,0.43597 0.57469,1.56553 -0.03963,2.43748c-0.59451,0.87195 -1.46645,1.14938 -2.12041,0.77286c-0.53506,-0.37652 -0.57469,-1.44663 0.01982,-2.31857c0.59451,-0.87195 1.5259,-1.34755 2.14022,-0.89176z" fill="#ffffff" stroke="#001026" stroke-linecap="round" stroke-linejoin="round"/><path d="M315.04766,252.53678c0,-0.21799 0.15853,-0.37652 0.35671,-0.39633c0.19817,0 0.35671,0.17835 0.35671,0.39633c0,0.21799 -0.15853,0.39634 -0.35671,0.39634c-0.19817,0 -0.35671,-0.17836 -0.35671,-0.39634" fill="#001026" stroke="none" stroke-linecap="butt" stroke-linejoin="miter"/></g></g></g><path d="M309.79892,250.0967c0,0 0.22641,-0.6708 0.41371,-0.89353c0.29819,-0.35461 1.20312,-1.02918 1.20312,-1.02918c0,0 4.29911,0.31032 5.63332,0.5861c1.26994,0.2625 2.18863,1.03072 2.18863,1.03072c0,0 0.28274,0.75243 0.34604,1.0848c0.0501,0.26304 0.13463,0.79421 0.13463,0.79421c0,0 -1.27538,-0.78548 -3.00187,-1.23887c-1.09058,-0.2864 -2.75488,-0.32641 -3.4287,-0.40752c-1.08991,-0.13119 -3.48888,0.07326 -3.48888,0.07326z" fill="#ffe0b3" fill-rule="nonzero" stroke="none" stroke-linecap="butt" stroke-linejoin="miter"/></g><path d="M292.99597,279.01092v-2h52v2z" fill="#cccccc" fill-rule="nonzero" stroke="none" stroke-width="0" stroke-linecap="butt" stroke-linejoin="miter"/><path d="M339.81737,264.75626v12.25466h-46.82138v-12.25466z" fill="#b9a15d" fill-rule="nonzero" stroke="none" stroke-width="0" stroke-linecap="butt" stroke-linejoin="miter"/><path d="M292.99597,264.75626v-3.36882h47.38039v3.36882z" fill="#9d884f" fill-rule="nonzero" stroke="none" stroke-width="0" stroke-linecap="butt" stroke-linejoin="miter"/><path d="M304.28774,260.30759v1.07985h-11.29176v-1.07985z" fill="#858585" fill-rule="nonzero" stroke="none" stroke-width="0" stroke-linecap="butt" stroke-linejoin="miter"/><path d="M307.74538,258.57427c0,0 -1.19196,1.79788 -2.02012,1.44295c-0.82816,-0.35493 0,-2.30871 0,-2.30871l4.61742,1.87583" fill="none" fill-rule="nonzero" stroke="#000000" stroke-width="0.25" stroke-linecap="round" stroke-linejoin="miter"/><path d="M308.10568,275.81712v-8.86549" fill="none" fill-rule="nonzero" stroke="#808080" stroke-width="1.5" stroke-linecap="round" stroke-linejoin="miter"/><path d="M303.8376,268.14544v-2.3876h8.5362v2.3876z" fill="#f23d3d" fill-rule="nonzero" stroke="#f23d3d" stroke-width="1" stroke-linecap="butt" stroke-linejoin="round"/><path d="M306.35719,277.01092v-2.3876h3.49699v2.3876z" fill="#333333" fill-rule="nonzero" stroke="none" stroke-width="0" stroke-linecap="butt" stroke-linejoin="miter"/><path d="M329.88626,275.81712v-8.86549" fill="none" fill-rule="nonzero" stroke="#808080" stroke-width="1.5" stroke-linecap="round" stroke-linejoin="miter"/><path d="M325.61816,268.14544v-2.3876h8.5362v2.3876z" fill="#f23d3d" fill-rule="nonzero" stroke="#f23d3d" stroke-width="1" stroke-linecap="butt" stroke-linejoin="round"/><path d="M328.13779,277.01092v-2.3876h3.49699v2.3876z" fill="#333333" fill-rule="nonzero" stroke="none" stroke-width="0" stroke-linecap="butt" stroke-linejoin="miter"/></g><g fill-rule="nonzero"><path d="M417.05128,223.75559c0,-5.52285 4.52715,-10.05 10.05,-10.05c5.52285,0 10.05,4.52715 10.05,10.05c0,5.52285 -4.52715,10.05 -10.05,10.05c-5.52285,0 -10.05,-4.52715 -10.05,-10.05z" fill-opacity="0.70196" fill="#cccccc" stroke="none" stroke-width="0.5" stroke-linecap="butt" stroke-linejoin="miter"/><path d="M399.99597,243.97777v-36h54v36zM427.10129,233.75559c5.52285,0 10,-4.47715 10,-10c0,-5.52285 -4.47715,-10 -10,-10c-5.52285,0 -10,4.47715 -10,10c0,5.52285 4.47715,10 10,10z" fill="#9d8e4b" stroke="#666666" stroke-width="2" stroke-linecap="butt" stroke-linejoin="round"/><path d="M423.5556,232.84892v-18.04511" fill="none" stroke="#666666" stroke-width="2" stroke-linecap="round" stroke-linejoin="miter"/><path d="M430.43635,232.84892v-18.04511" fill="none" stroke="#666666" stroke-width="2" stroke-linecap="round" stroke-linejoin="miter"/><path d="M436.01855,227.26673h-18.04511" fill="none" stroke="#666666" stroke-width="2" stroke-linecap="round" stroke-linejoin="miter"/><path d="M436.01855,220.38599h-18.04511" fill="none" stroke="#666666" stroke-width="2" stroke-linecap="round" stroke-linejoin="miter"/><path d="M409.92578,239.55891v-2.47312h15.92325v2.47312z" fill="#ccadad" stroke="#ccadad" stroke-width="1.5" stroke-linecap="butt" stroke-linejoin="round"/><path d="M417.20397,239.55891v-2.9072h2.4704v2.9072z" fill="#cc7777" stroke="#cc7777" stroke-width="1.5" stroke-linecap="butt" stroke-linejoin="round"/><path d="M404.01514,239.55891v-3.63067h5.91064v3.63067z" fill="#cccccc" stroke="#cccccc" stroke-width="1.5" stroke-linecap="butt" stroke-linejoin="round"/><path d="M403.43635,240.32578v-0.76687h23.55963v0.76687z" fill="none" stroke="#995d26" stroke-width="2" stroke-linecap="butt" stroke-linejoin="round"/><path d="M442.50637,240.6879h-7.65345c0,0 1.37815,-5.42688 -0.46036,-11.07737" fill="none" stroke="#995d26" stroke-width="2" stroke-linecap="round" stroke-linejoin="miter"/><path d="M436.69435,239.30683h5.5243" fill="none" stroke="#8f3d3d" stroke-width="1.5" stroke-linecap="round" stroke-linejoin="miter"/><path d="M452.00893,242.007l-7.00745,0.00443v-7.73977h-5.46505h12.48721z" fill="none" stroke="#72461c" stroke-width="2" stroke-linecap="butt" stroke-linejoin="miter"/><path d="M400.99597,242.98215v-2h52v2z" fill="#cccccc" stroke="none" stroke-width="0" stroke-linecap="butt" stroke-linejoin="miter"/><path d="M426.99597,212.35543v-4.38362" fill="none" stroke="#666666" stroke-width="2" stroke-linecap="round" stroke-linejoin="miter"/><path d="M432.75676,217.86294c0,3.04172 -2.57918,5.50752 -5.76077,5.50752c-3.18159,0 -5.76077,-2.4658 -5.76077,-5.50752c0,-3.04172 2.57918,-5.50752 5.76077,-5.50752c3.18159,0 5.76077,2.4658 5.76077,5.50752z" fill="url(#color-2)" stroke="none" stroke-width="0" stroke-linecap="butt" stroke-linejoin="miter"/><path d="M424.05593,217.40409v-4.66523h5.88013v4.66523z" fill="#ffe281" stroke="none" stroke-width="0" stroke-linecap="butt" stroke-linejoin="miter"/><path d="M424.40141,213.1223v-0.76687h5.18911v0.76687z" fill="none" stroke="#666666" stroke-width="2" stroke-linecap="butt" stroke-linejoin="miter"/></g><g fill-rule="nonzero"><path d="M417.05128,259.76155c0,-5.52285 4.52715,-10.05 10.05,-10.05c5.52285,0 10.05,4.52715 10.05,10.05c0,5.52285 -4.52715,10.05 -10.05,10.05c-5.52285,0 -10.05,-4.52715 -10.05,-10.05z" fill-opacity="0.70196" fill="#cccccc" stroke="none" stroke-width="0.5" stroke-linecap="butt" stroke-linejoin="miter"/><path d="M399.99597,279.98373v-36h54v36zM427.10129,269.76155c5.52285,0 10,-4.47715 10,-10c0,-5.52285 -4.47715,-10 -10,-10c-5.52285,0 -10,4.47715 -10,10c0,5.52285 4.47715,10 10,10z" fill="#9d8e4b" stroke="#666666" stroke-width="2" stroke-linecap="butt" stroke-linejoin="round"/><path d="M423.5556,268.85488v-18.04511" fill="none" stroke="#666666" stroke-width="2" stroke-linecap="round" stroke-linejoin="miter"/><path d="M430.43635,250.80977v18.04511" fill="none" stroke="#666666" stroke-width="2" stroke-linecap="round" stroke-linejoin="miter"/><path d="M436.01855,263.27269h-18.04511" fill="none" stroke="#666666" stroke-width="2" stroke-linecap="round" stroke-linejoin="miter"/><path d="M436.01855,256.39195h-18.04511" fill="none" stroke="#666666" stroke-width="2" stroke-linecap="round" stroke-linejoin="miter"/><path d="M409.92578,275.56487v-2.47312h15.92325v2.47312z" fill="#ccadad" stroke="#ccadad" stroke-width="1.5" stroke-linecap="butt" stroke-linejoin="round"/><path d="M417.20397,275.56487v-2.9072h2.4704v2.9072z" fill="#cc7777" stroke="#cc7777" stroke-width="1.5" stroke-linecap="butt" stroke-linejoin="round"/><path d="M404.01514,275.56487v-3.63067h5.91064v3.63067z" fill="#cccccc" stroke="#cccccc" stroke-width="1.5" stroke-linecap="butt" stroke-linejoin="round"/><path d="M403.43635,276.33174v-0.76687h23.55963v0.76687z" fill="none" stroke="#995d26" stroke-width="2" stroke-linecap="butt" stroke-linejoin="round"/><path d="M442.50637,276.69386h-7.65345c0,0 1.37815,-5.42688 -0.46036,-11.07737" fill="none" stroke="#995d26" stroke-width="2" stroke-linecap="round" stroke-linejoin="miter"/><path d="M442.21864,275.31279h-5.5243" fill="none" stroke="#8f3d3d" stroke-width="1.5" stroke-linecap="round" stroke-linejoin="miter"/><path d="M452.00893,278.01296l-7.00745,0.00443v-7.73977h-5.46505h12.48721z" fill="none" stroke="#72461c" stroke-width="2" stroke-linecap="butt" stroke-linejoin="miter"/><path d="M400.99597,278.98811v-2h52v2z" fill="#cccccc" stroke="none" stroke-width="0" stroke-linecap="butt" stroke-linejoin="miter"/><path d="M426.99597,243.97777v4.38362" fill="none" stroke="#666666" stroke-width="2" stroke-linecap="round" stroke-linejoin="miter"/><path d="M432.75676,253.8689c0,3.04172 -2.57918,5.50752 -5.76077,5.50752c-3.18159,0 -5.76077,-2.4658 -5.76077,-5.50752c0,-3.04172 2.57918,-5.50752 5.76077,-5.50752c3.18159,0 5.76077,2.4658 5.76077,5.50752z" fill="url(#color-3)" stroke="none" stroke-width="0" stroke-linecap="butt" stroke-linejoin="miter"/><path d="M424.05593,253.41005v-4.66523h5.88013v4.66523z" fill="#ffe281" stroke="none" stroke-width="0" stroke-linecap="butt" stroke-linejoin="miter"/><path d="M424.40141,249.12826v-0.76687h5.18911v0.76687z" fill="none" stroke="#666666" stroke-width="2" stroke-linecap="butt" stroke-linejoin="miter"/></g><g fill-rule="nonzero" stroke-linecap="butt"><path d="M291.99597,207.97777v-11.01623h54v11.01623z" fill-opacity="0.70196" fill="#a3cccc" stroke="#666666" stroke-width="2" stroke-linejoin="round"/><path d="M292.99597,207.01092v-2h52v2z" fill="#cccccc" stroke="none" stroke-width="0" stroke-linejoin="miter"/></g><g fill-rule="nonzero"><path d="M399.99597,207.97777v-22.44564h54v22.44564z" fill="#ad843f" stroke="#666666" stroke-width="2" stroke-linecap="butt" stroke-linejoin="round"/><path d="M453.99597,171.97777v4.03485h-54v-4.03485z" fill="#ad843f" stroke="#666666" stroke-width="2" stroke-linecap="butt" stroke-linejoin="round"/><path d="M399.99597,207.97777v-36h54v36z" fill="none" stroke="#666666" stroke-width="2" stroke-linecap="butt" stroke-linejoin="round"/><path d="M422.09755,188.03747c0.77869,0 0.68839,0.31494 1.26341,0.64208c0.14709,-0.1146 1.50721,-1.06026 2.94494,-1.35683c2.35003,-0.48477 5.98587,-0.23047 6.06755,1.85357c0.2167,0.14871 0.40763,0.31801 0.56725,0.50376c0.2092,-0.09638 2.14778,-1.01077 4.02066,-1.01077c0.80291,0 1.54122,0.20652 2.12488,0.55229c1.13643,0.10708 3.121,1.85556 3.27924,2.1506c2.01989,-0.55696 4.01421,0.09239 5.13232,1.2469c1.06491,0.3593 2.87119,3.27307 3.03841,3.77254c0.07031,0.21001 0.08964,0.41338 0.06584,0.60823c0.30176,0.59575 0.16642,3.2448 -0.1278,3.62205c-0.29652,0.58598 0.11744,1.44505 -0.40102,2.10243c-1.12824,1.43055 -2.33739,0.3516 -4.2374,2.7069c-5.23557,0.77424 -34.56822,0.73404 -35.86322,0.11026c-0.5959,-0.13457 -1.12312,-0.38724 -1.53284,-0.72156c-0.34674,-0.22708 -2.63477,-1.34692 -3.44675,-2.57454c-1.3486,-2.03892 -1.32557,-4.63752 -1.41443,-5.8649c-0.12036,-1.66248 2.24655,-4.21515 3.18309,-4.86998c0.23666,-0.28726 6.71891,-2.05754 7.28594,-2.22128c0.7416,-0.81016 3.56515,-2.06523 5.71101,-2.16587c0.91506,-0.04292 2.19181,0.91414 2.33893,0.91414zM439.91673,194.95009c-4.82539,-0.36617 -7.49735,-1.8525 -12.51166,-1.9467c-2.90339,-0.05454 -9.72979,-0.08276 -13.35736,1.29752c-2.63743,1.00353 -2.67535,2.73095 -2.94184,3.08992c-0.71533,0.5921 1.4551,0.64182 3.45904,1.4136c2.00394,0.77178 3.17844,-1.20757 6.54165,-0.23416c1.82205,0.52735 1.10661,2.00342 2.39123,1.53145c1.24471,-0.4573 1.54348,-1.38028 3.35548,-1.80302c2.79562,-0.65222 4.95813,1.90337 5.61173,1.83528c0.72473,-0.0755 2.25122,-1.93006 2.25122,-1.93006c0,0 2.41831,-0.67523 2.9359,-0.57144c1.55313,0.31143 3.0722,1.33859 3.83254,1.44159c0.67949,0.09204 2.16396,-2.20264 1.4106,-2.75975c-0.84616,-0.62573 -1.59711,-1.2594 -2.97852,-1.36423z" fill="url(#color-4)" stroke="none" stroke-width="0.5" stroke-linecap="butt" stroke-linejoin="miter"/><path d="M442.94526,196.31345c0.75336,0.55711 -0.73183,2.86112 -1.41132,2.76908c-0.76033,-0.10299 -2.37843,-1.14352 -3.93157,-1.45495c-0.51759,-0.10378 -2.83721,0.58662 -2.83721,0.58662c0,0 -1.53356,1.8716 -2.25829,1.9471c-0.6536,0.06809 -2.86325,-2.46511 -5.65887,-1.81289c-1.812,0.42274 -2.14097,1.33122 -3.38568,1.78853c-1.28463,0.47197 -0.58113,-1.02348 -2.40318,-1.55083c-3.36321,-0.97341 -4.53952,0.99884 -6.54345,0.22706c-2.00394,-0.77178 -4.17507,-0.82774 -3.45974,-1.41984c0.26649,-0.35897 0.30512,-2.09758 2.94254,-3.10111c3.62757,-1.38028 10.50834,-1.39312 13.41173,-1.33857c5.01431,0.0942 7.73073,1.62394 12.55613,1.99012c1.38141,0.10483 2.13275,0.74394 2.97891,1.36968z" fill="url(#color-5)" stroke="none" stroke-width="0.5" stroke-linecap="butt" stroke-linejoin="miter"/><path d="M411.1622,192.44131l1.07478,4.03485" fill="none" stroke-opacity="0.61961" stroke="#48e8e8" stroke-width="1" stroke-linecap="round" stroke-linejoin="miter"/><path d="M400.99597,207.01092v-2h52v2z" fill="#cccccc" stroke="none" stroke-width="0" stroke-linecap="butt" stroke-linejoin="miter"/><path d="M406.20734,192.93797v-1.12512h5v1.12512z" fill="#8fa02f" stroke="none" stroke-width="0" stroke-linecap="butt" stroke-linejoin="miter"/><path d="M406.20734,198.00945v-7.35228h1.67189v7.35228z" fill="#8fa02f" stroke="none" stroke-width="0" stroke-linecap="butt" stroke-linejoin="miter"/><path d="M405.96337,197.40378c0,-1.21053 1.11929,-2.19187 2.5,-2.19187c1.38071,0 2.5,0.98134 2.5,2.19187c0,1.21053 -1.11929,2.19187 -2.5,2.19187c-1.38071,0 -2.5,-0.98133 -2.5,-2.19187z" fill="url(#color-6)" stroke="none" stroke-width="0.5" stroke-linecap="butt" stroke-linejoin="miter"/><path d="M429.01865,190.43771c0,-4.09573 3.32025,-7.41598 7.41598,-7.41598c4.09573,0 7.41598,3.32025 7.41598,7.41598c0,4.09573 -3.32025,7.41598 -7.41598,7.41598c-4.09573,0 -7.41598,-3.32024 -7.41598,-7.41598z" fill="url(#color-7)" stroke="none" stroke-width="0" stroke-linecap="butt" stroke-linejoin="miter"/><path d="M415.07686,192.87567c0,-3.30176 2.6766,-5.97835 5.97835,-5.97835c3.30176,0 5.97836,2.6766 5.97836,5.97835c0,3.30176 -2.6766,5.97835 -5.97836,5.97835c-3.30176,0 -5.97835,-2.67659 -5.97835,-5.97835z" fill="url(#color-8)" stroke="none" stroke-width="0" stroke-linecap="butt" stroke-linejoin="miter"/><path d="M413.70783,189.97777c0,-4.95263 4.0149,-8.96753 8.96753,-8.96753c4.95263,0 8.96753,4.0149 8.96753,8.96753c0,4.95263 -4.0149,8.96753 -8.96753,8.96753c-4.95263,0 -8.96753,-4.0149 -8.96753,-8.96753z" fill="url(#color-9)" stroke="none" stroke-width="0" stroke-linecap="butt" stroke-linejoin="miter"/><path d="M432.18676,187.06306c0,-3.93807 3.19244,-7.13051 7.13051,-7.13051c3.93807,0 7.13051,3.19244 7.13051,7.13051c0,3.93807 -3.19244,7.13051 -7.13051,7.13051c-3.93807,0 -7.13051,-3.19244 -7.13051,-7.13051z" fill="url(#color-10)" stroke="none" stroke-width="0" stroke-linecap="butt" stroke-linejoin="miter"/><path d="M427.03359,181.55673c0,-5.19218 4.20909,-9.40127 9.40127,-9.40127c5.19218,0 9.40127,4.20909 9.40127,9.40127c0,5.19218 -4.20909,9.40127 -9.40127,9.40127c-5.19218,0 -9.40127,-4.20909 -9.40127,-9.40127z" fill="url(#color-11)" stroke="none" stroke-width="0" stroke-linecap="butt" stroke-linejoin="miter"/><path d="M402.83266,185.53213c0,-4.60028 3.72926,-8.32954 8.32954,-8.32954c4.60028,0 8.32954,3.72926 8.32954,8.32954c0,4.60028 -3.72926,8.32954 -8.32954,8.32954c-4.60028,0 -8.32954,-3.72926 -8.32954,-8.32954z" fill="url(#color-12)" stroke="none" stroke-width="0" stroke-linecap="butt" stroke-linejoin="miter"/><path d="M407.18132,181.89348c0,-4.09573 3.32025,-7.41598 7.41598,-7.41598c4.09573,0 7.41598,3.32025 7.41598,7.41598c0,4.09573 -3.32025,7.41598 -7.41598,7.41598c-4.09573,0 -7.41598,-3.32024 -7.41598,-7.41598z" fill="url(#color-13)" stroke="none" stroke-width="0" stroke-linecap="butt" stroke-linejoin="miter"/><path d="M404.67535,178.74427c0,-3.30176 2.6766,-5.97835 5.97835,-5.97835c3.30176,0 5.97835,2.67659 5.97835,5.97835c0,3.30176 -2.6766,5.97835 -5.97835,5.97835c-3.30176,0 -5.97835,-2.6766 -5.97835,-5.97835z" fill="url(#color-14)" stroke="none" stroke-width="0" stroke-linecap="butt" stroke-linejoin="miter"/></g><g fill-rule="nonzero"><path d="M294.91805,242.02972v-31.32468h48.15584v31.32468z" fill="none" stroke="#cca366" stroke-width="4" stroke-linecap="butt" stroke-linejoin="miter"/><path d="M291.99597,243.97777v-11.01623h54v11.01623z" fill-opacity="0.70196" fill="#a3cccc" stroke="#666666" stroke-width="2" stroke-linecap="butt" stroke-linejoin="round"/><path d="M291.99597,243.97777v-36h54v36z" fill="none" stroke="#666666" stroke-width="2" stroke-linecap="butt" stroke-linejoin="round"/><g fill="none" stroke="#cd8f4e" stroke-width="1.5" stroke-linecap="round" stroke-linejoin="miter"><path d="M306.49869,230.86415h-8.28326"/><path d="M302.35705,230.86415v9.98757"/><path d="M296.40629,235.0599v5.79182"/><path d="M298.73948,235.0599h-4.66635v-8.46679"/><path d="M308.30782,235.0599v5.79182"/><path d="M310.64099,226.59312v8.46678h-4.66636"/><path d="M341.58567,235.0599v5.79182"/><path d="M343.91885,226.59312v8.46678h-4.66636"/><path d="M329.68414,240.85172v-5.79182"/><path d="M332.01731,235.0599h-4.66636v-8.46678"/><path d="M331.49325,230.86415h8.28326"/><path d="M335.63491,230.86415v9.98757"/></g><path d="M292.99597,243.01092v-2h52v2z" fill="#cccccc" stroke="none" stroke-width="0" stroke-linecap="butt" stroke-linejoin="miter"/></g></g><g fill-rule="nonzero" stroke="none" stroke-width="0" stroke-linecap="butt" stroke-linejoin="round"><path d="M0.00002,407.68972v-107.29707h480v107.29708z" fill="url(#color-15)"/><path d="M480.00002,280.64271v19.74994h-480v-19.74994z" fill="#9dc364"/><path d="M480.00002,280.64271v14.99994h-480v-14.99994z" fill="#80a845"/><path d="M480.00002,280.64271v9.17545h-480v-9.17545z" fill="url(#color-16)"/></g><g fill-rule="nonzero"><path d="M-488.99998,356.98691v-36h1458.00001v36z" fill="#4c4c4c" stroke="#666666" stroke-width="2" stroke-linecap="butt" stroke-linejoin="round"/><path d="M98.17608,355.02006v-5.28841h283.6479v5.28841z" fill="#bfbfbf" stroke="#c0c0c0" stroke-width="2" stroke-linecap="butt" stroke-linejoin="round"/><path d="M154.5865,343.41568v-15.16435h28.57324v15.16435z" fill="#428033" stroke="#c0c0c0" stroke-width="2" stroke-linecap="butt" stroke-linejoin="round"/><path d="M203.61673,349.73166v-4.35637h16.17496v4.35637z" fill="none" stroke="#c0c0c0" stroke-width="2" stroke-linecap="butt" stroke-linejoin="miter"/><path d="M200.33117,346.76145v-7.67867h23.12515v7.67867z" fill="#00ffff" stroke="none" stroke-width="0" stroke-linecap="butt" stroke-linejoin="miter"/><path d="M200.33117,346.76145v-2.40134h23.12515v2.40134z" fill="#00cccc" stroke="none" stroke-width="0" stroke-linecap="butt" stroke-linejoin="miter"/><g stroke-linejoin="miter"><path d="M320.50892,348.23733v-21.3733h12.88624v21.3733z" fill="#436bc5" stroke="#666666" stroke-width="1" stroke-linecap="butt"/><path d="M322.23276,338.94814v-9.90316h9.4386v9.90316z" fill="#ffffff" stroke="none" stroke-width="0" stroke-linecap="butt"/><path d="M324.14216,332.28362h5.61973" fill="none" stroke="#e6e6e6" stroke-width="1" stroke-linecap="round"/><path d="M324.14221,335.82668h5.61973" fill="none" stroke="#e6e6e6" stroke-width="1" stroke-linecap="round"/><path d="M322.23276,343.2027v-2.96269h4.09105v2.96269z" fill="#666666" stroke="none" stroke-width="0" stroke-linecap="butt"/><path d="M331.67134,341.38547c0,0.74678 -0.77941,1.35216 -1.74087,1.35216c-0.96146,0 -1.74088,-0.60538 -1.74088,-1.35216c0,-0.74678 0.77942,-1.35215 1.74088,-1.35215c0.96146,0 1.74087,0.60537 1.74087,1.35215z" fill="#585858" stroke="none" stroke-width="0" stroke-linecap="butt"/><path d="M328.40357,343.57303h3.05379" fill="none" stroke="#666666" stroke-width="1" stroke-linecap="round"/><path d="M322.23276,346.37209v-1.25844h9.4386v1.25844z" fill="#666666" stroke="none" stroke-width="0" stroke-linecap="butt"/></g><path d="M111.54482,349.73166v-4.35637h16.17496v4.35637z" fill="none" stroke="#c0c0c0" stroke-width="2" stroke-linecap="butt" stroke-linejoin="miter"/><path d="M108.25929,346.76145v-7.67867h23.12515v7.67867z" fill="#00ffff" stroke="none" stroke-width="0" stroke-linecap="butt" stroke-linejoin="miter"/><path d="M108.25929,346.76145v-2.40134h23.12515v2.40134z" fill="#00cccc" stroke="none" stroke-width="0" stroke-linecap="butt" stroke-linejoin="miter"/><path d="M352.28028,349.73166v-4.35637h16.17496v4.35637z" fill="none" stroke="#c0c0c0" stroke-width="2" stroke-linecap="butt" stroke-linejoin="miter"/><path d="M348.61561,346.76145v-7.67867h23.12515v7.67867z" fill="#00ffff" stroke="none" stroke-width="0" stroke-linecap="butt" stroke-linejoin="miter"/><path d="M348.61561,346.76145v-2.40134h23.12515v2.40134z" fill="#00cccc" stroke="none" stroke-width="0" stroke-linecap="butt" stroke-linejoin="miter"/><g stroke-linejoin="miter"><path d="M302.96751,348.23733v-21.3733h12.88624v21.3733z" fill="#d42a2a" stroke="#666666" stroke-width="1" stroke-linecap="butt"/><path d="M304.69131,338.94814v-9.90316h9.4386v9.90316z" fill="#ffffff" stroke="none" stroke-width="0" stroke-linecap="butt"/><path d="M312.22048,332.28362h-5.61973" fill="none" stroke="#e6e6e6" stroke-width="1" stroke-linecap="round"/><path d="M306.60075,335.82668h5.61973" fill="none" stroke="#e6e6e6" stroke-width="1" stroke-linecap="round"/><path d="M304.69131,343.2027v-2.96269h4.09105v2.96269z" fill="#666666" stroke="none" stroke-width="0" stroke-linecap="butt"/><path d="M314.12989,341.38547c0,0.74678 -0.77941,1.35216 -1.74087,1.35216c-0.96146,0 -1.74088,-0.60538 -1.74088,-1.35216c0,-0.74678 0.77942,-1.35215 1.74088,-1.35215c0.96146,0 1.74087,0.60537 1.74087,1.35215z" fill="#585858" stroke="none" stroke-width="0" stroke-linecap="butt"/><path d="M310.86214,343.57303h3.05379" fill="none" stroke="#666666" stroke-width="1" stroke-linecap="round"/><path d="M304.69131,346.37209v-1.25844h9.4386v1.25844z" fill="#666666" stroke="none" stroke-width="0" stroke-linecap="butt"/></g><path d="M380.54683,350.8956h-281.0936" fill="none" stroke="#d3e600" stroke-width="2" stroke-linecap="round" stroke-linejoin="miter"/></g><g fill-rule="nonzero" stroke-linejoin="miter"><g><path d="M-112.76079,327.67378c0,-0.76038 0.88414,-1.55819 1.77429,-1.55819c7.03858,0 93.66012,0 107.73499,0c1.24242,0 2.34206,0.72199 2.34206,1.40979c0,2.43741 -0.1037,25.05525 -0.30476,25.47351c-0.31144,0.6479 -110.77797,-0.05447 -111.17744,-0.4162c-0.49933,-0.45216 -0.36915,-22.28283 -0.36915,-24.9089z" fill="#cccccc" stroke="#000000" stroke-width="0" stroke-linecap="butt"/><path d="M-112.51282,346.38692v-3.36372h12.62808v3.36372z" fill="#ff2121" stroke="none" stroke-width="0" stroke-linecap="butt"/><path d="M-112.66123,329.26165v-1.73133h111.73763v1.73133z" fill="#ff2121" stroke="none" stroke-width="0" stroke-linecap="butt"/><path d="M-108.26577,340.48935c0,-2.53296 0,-8.29532 0,-9.61436c0,-0.5268 0.38442,-1.03459 0.93279,-1.03459c1.08049,0 2.79751,0 3.46467,0c0.52524,0 1.19931,0.46156 1.19931,0.95098c0,1.32987 0,7.54639 0,9.94878c0,0.59085 -0.44771,0.95098 -1.06605,0.95098c-1.08356,0 -2.69107,0 -3.33141,0c-0.52524,0 -1.19931,-0.46384 -1.19931,-1.20179z" fill="#30f1d5" stroke="none" stroke-width="0" stroke-linecap="butt"/><path d="M-87.40507,340.57415c0,-2.53296 0,-8.29532 0,-9.61436c0,-0.5268 0.38442,-1.03459 0.93279,-1.03459c1.08049,0 2.79751,0 3.46467,0c0.52524,0 1.19931,0.46156 1.19931,0.95098c0,1.32987 0,7.54639 0,9.94878c0,0.59085 -0.44771,0.95098 -1.06605,0.95098c-1.08356,0 -2.69107,0 -3.33141,0c-0.52524,0 -1.19931,-0.46384 -1.19931,-1.20179z" fill="#30f1d5" stroke="none" stroke-width="0" stroke-linecap="butt"/><g><path d="M-99.19221,340.98095c0,-2.56921 0,-8.41404 0,-9.75196c0,-0.53434 0.25628,-1.0494 0.62186,-1.0494c0.72033,0 1.86501,0 2.30978,0c0.35016,0 0.79954,0.46817 0.79954,0.9646c0,1.34891 0,7.65439 0,10.09115c0,0.5993 -0.29848,0.9646 -0.7107,0.9646c-0.72237,0 -1.79404,0 -2.22094,0c-0.35016,0 -0.79954,-0.47048 -0.79954,-1.21899z" fill="#30f1d5" stroke="none" stroke-width="0" stroke-linecap="butt"/><path d="M-94.61303,340.98095c0,-2.56921 0,-8.41404 0,-9.75196c0,-0.53434 0.25628,-1.0494 0.62186,-1.0494c0.72033,0 1.86501,0 2.30978,0c0.35016,0 0.79954,0.46817 0.79954,0.9646c0,1.34891 0,7.65439 0,10.09115c0,0.5993 -0.29848,0.9646 -0.7107,0.9646c-0.72237,0 -1.79404,0 -2.22094,0c-0.35016,0 -0.79954,-0.47048 -0.79954,-1.21899z" fill="#30f1d5" stroke="none" stroke-width="0" stroke-linecap="butt"/><path d="M-95.01349,350.05451v-20.35191" fill="none" stroke="#000000" stroke-width="0.5" stroke-linecap="round"/><path d="M-99.74341,350.2241v-20.60631h9.32796v20.60631z" fill="none" stroke="#000000" stroke-width="0.5" stroke-linecap="round"/></g><g><path d="M-78.16191,341.06575c0,-2.56921 0,-8.41404 0,-9.75196c0,-0.53434 0.25628,-1.0494 0.62186,-1.0494c0.72033,0 1.86501,0 2.30978,0c0.35016,0 0.79954,0.46817 0.79954,0.9646c0,1.34891 0,7.65439 0,10.09115c0,0.5993 -0.29848,0.9646 -0.7107,0.9646c-0.72237,0 -1.79404,0 -2.22094,0c-0.35016,0 -0.79954,-0.47048 -0.79954,-1.21899z" fill="#30f1d5" stroke="none" stroke-width="0" stroke-linecap="butt"/><path d="M-73.58274,341.06575c0,-2.56921 0,-8.41404 0,-9.75196c0,-0.53434 0.25628,-1.0494 0.62186,-1.0494c0.72033,0 1.86501,0 2.30978,0c0.35016,0 0.79954,0.46817 0.79954,0.9646c0,1.34891 0,7.65439 0,10.09115c0,0.5993 -0.29848,0.9646 -0.7107,0.9646c-0.72237,0 -1.79404,0 -2.22094,0c-0.35016,0 -0.79954,-0.47048 -0.79954,-1.21899z" fill="#30f1d5" stroke="none" stroke-width="0" stroke-linecap="butt"/><path d="M-73.98319,329.78741v20.35191" fill="none" stroke="#000000" stroke-width="0.5" stroke-linecap="round"/><path d="M-78.71311,350.30891v-20.60631h9.32796v20.60631z" fill="none" stroke="#000000" stroke-width="0.5" stroke-linecap="round"/></g><path d="M-66.03557,340.57415c0,-2.53296 0,-8.29532 0,-9.61436c0,-0.5268 0.38442,-1.03459 0.93279,-1.03459c1.08049,0 2.79751,0 3.46467,0c0.52524,0 1.19931,0.46156 1.19931,0.95098c0,1.32987 0,7.54639 0,9.94878c0,0.59085 -0.44771,0.95098 -1.06605,0.95098c-1.08356,0 -2.69107,0 -3.33141,0c-0.52524,0 -1.19931,-0.46384 -1.19931,-1.20179z" fill="#30f1d5" stroke="none" stroke-width="0" stroke-linecap="butt"/><g><path d="M-56.4532,341.15056c0,-2.56921 0,-8.41404 0,-9.75196c0,-0.53434 0.25628,-1.0494 0.62186,-1.0494c0.72033,0 1.86501,0 2.30978,0c0.35016,0 0.79954,0.46817 0.79954,0.9646c0,1.34891 0,7.65439 0,10.09115c0,0.5993 -0.29848,0.9646 -0.7107,0.9646c-0.72237,0 -1.79404,0 -2.22094,0c-0.35016,0 -0.79954,-0.47048 -0.79954,-1.21899z" fill="#30f1d5" stroke="none" stroke-width="0" stroke-linecap="butt"/><path d="M-51.87404,341.15056c0,-2.56921 0,-8.41404 0,-9.75196c0,-0.53434 0.25628,-1.0494 0.62186,-1.0494c0.72033,0 1.86501,0 2.30978,0c0.35016,0 0.79954,0.46817 0.79954,0.9646c0,1.34891 0,7.65439 0,10.09115c0,0.5993 -0.29848,0.9646 -0.7107,0.9646c-0.72237,0 -1.79404,0 -2.22094,0c-0.35016,0 -0.79954,-0.47048 -0.79954,-1.21899z" fill="#30f1d5" stroke="none" stroke-width="0" stroke-linecap="butt"/><path d="M-52.27448,350.22411v-20.35191" fill="none" stroke="#000000" stroke-width="0.5" stroke-linecap="round"/><path d="M-57.00442,350.3937v-20.60631h9.32796v20.60631z" fill="none" stroke="#000000" stroke-width="0.5" stroke-linecap="round"/></g><path d="M-44.07246,340.74375c0,-2.53296 0,-8.29532 0,-9.61436c0,-0.5268 0.38442,-1.03459 0.93279,-1.03459c1.08049,0 2.79751,0 3.46467,0c0.52524,0 1.19931,0.46156 1.19931,0.95098c0,1.32987 0,7.54639 0,9.94878c0,0.59085 -0.44771,0.95098 -1.06605,0.95098c-1.08356,0 -2.69107,0 -3.33141,0c-0.52524,0 -1.19931,-0.46384 -1.19931,-1.20179z" fill="#30f1d5" stroke="none" stroke-width="0" stroke-linecap="butt"/><g><path d="M-34.49012,341.40495c0,-2.56921 0,-8.41404 0,-9.75196c0,-0.53434 0.25628,-1.0494 0.62186,-1.0494c0.72033,0 1.86501,0 2.30978,0c0.35016,0 0.79954,0.46817 0.79954,0.9646c0,1.34891 0,7.65439 0,10.09115c0,0.5993 -0.29848,0.9646 -0.7107,0.9646c-0.72237,0 -1.79404,0 -2.22094,0c-0.35016,0 -0.79954,-0.47048 -0.79954,-1.21899z" fill="#30f1d5" stroke="none" stroke-width="0" stroke-linecap="butt"/><path d="M-29.91094,341.40495c0,-2.56921 0,-8.41404 0,-9.75196c0,-0.53434 0.25628,-1.0494 0.62186,-1.0494c0.72033,0 1.86501,0 2.30978,0c0.35016,0 0.79954,0.46817 0.79954,0.9646c0,1.34891 0,7.65439 0,10.09115c0,0.5993 -0.29848,0.9646 -0.7107,0.9646c-0.72237,0 -1.79404,0 -2.22094,0c-0.35016,0 -0.79954,-0.47048 -0.79954,-1.21899z" fill="#30f1d5" stroke="none" stroke-width="0" stroke-linecap="butt"/><path d="M-30.3114,330.1266v20.35191" fill="none" stroke="#000000" stroke-width="0.5" stroke-linecap="round"/><path d="M-35.04132,350.64811v-20.60631h9.32796v20.60631z" fill="none" stroke="#000000" stroke-width="0.5" stroke-linecap="round"/></g><path d="M-22.78777,340.82854c0,-2.53296 0,-8.29532 0,-9.61436c0,-0.5268 0.38442,-1.03459 0.93279,-1.03459c1.08049,0 2.79751,0 3.46467,0c0.52524,0 1.19931,0.46156 1.19931,0.95098c0,1.32987 0,7.54639 0,9.94878c0,0.59085 -0.44771,0.95098 -1.06605,0.95098c-1.08356,0 -2.69107,0 -3.33141,0c-0.52524,0 -1.19931,-0.46384 -1.19931,-1.20179z" fill="#30f1d5" stroke="none" stroke-width="0" stroke-linecap="butt"/><path d="M-90.27412,346.30213v-3.36372h11.41968v3.36372z" fill="#ff2121" stroke="none" stroke-width="0" stroke-linecap="butt"/><path d="M-69.24382,346.13253v-3.36372h12.09808v3.36372z" fill="#ff2121" stroke="none" stroke-width="0" stroke-linecap="butt"/><path d="M-47.53511,346.04774v-3.36372h12.26768v3.36372z" fill="#ff2121" stroke="none" stroke-width="0" stroke-linecap="butt"/><g><path d="M-13.799,341.48975c0,-2.56921 0,-8.41404 0,-9.75196c0,-0.53434 0.25628,-1.0494 0.62186,-1.0494c0.72033,0 1.86501,0 2.30978,0c0.35016,0 0.79954,0.46817 0.79954,0.9646c0,1.34891 0,7.65439 0,10.09115c0,0.5993 -0.29848,0.9646 -0.7107,0.9646c-0.72237,0 -1.79404,0 -2.22094,0c-0.35016,0 -0.79954,-0.47048 -0.79954,-1.21899z" fill="#30f1d5" stroke="none" stroke-width="0" stroke-linecap="butt"/><path d="M-9.21982,341.48975c0,-2.56921 0,-8.41404 0,-9.75196c0,-0.53434 0.25628,-1.0494 0.62186,-1.0494c0.72033,0 1.86501,0 2.30978,0c0.35016,0 0.79954,0.46817 0.79954,0.9646c0,1.34891 0,7.65439 0,10.09115c0,0.5993 -0.29848,0.9646 -0.7107,0.9646c-0.72237,0 -1.79404,0 -2.22094,0c-0.35016,0 -0.79954,-0.47048 -0.79954,-1.21899z" fill="#30f1d5" stroke="none" stroke-width="0" stroke-linecap="butt"/><path d="M-9.62029,330.21139v20.35191" fill="none" stroke="#000000" stroke-width="0.5" stroke-linecap="round"/><path d="M-14.3502,350.7329v-20.60631h9.32796v20.60631z" fill="none" stroke="#000000" stroke-width="0.5" stroke-linecap="round"/></g><path d="M-25.57201,346.21733v-3.36372h11.08049v3.36372z" fill="#ff2121" stroke="none" stroke-width="0" stroke-linecap="butt"/><path d="M-4.88091,346.04774v-3.36372h4.04212v3.36372z" fill="#ff2121" stroke="none" stroke-width="0" stroke-linecap="butt"/><path d="M-109.94057,354.06906v-1.78079h16.12606v1.78079z" fill="#323232" stroke="none" stroke-width="0" stroke-linecap="butt"/><path d="M-104.91094,354.03939c0,0.87423 -0.753,1.58293 -1.68186,1.58293c-0.92886,0 -1.68186,-0.7087 -1.68186,-1.58293c0,-0.87423 0.75299,-1.58293 1.68186,-1.58293c0.92886,0 1.68186,0.7087 1.68186,1.58293z" fill="#323232" stroke="none" stroke-width="0" stroke-linecap="butt"/><path d="M-95.61125,354.13832c0,0.87423 -0.753,1.58293 -1.68186,1.58293c-0.92886,0 -1.68186,-0.7087 -1.68186,-1.58293c0,-0.87423 0.75299,-1.58293 1.68186,-1.58293c0.92886,0 1.68186,0.7087 1.68186,1.58293z" fill="#323232" stroke="none" stroke-width="0" stroke-linecap="butt"/><path d="M-87.23548,354.66266v-1.78079h31.26279v1.78079c0,0 -6.03742,0 -12.08575,0c-3.95275,0 -7.91016,0 -10.19009,0c-3.66403,0 -8.98695,0 -8.98695,0z" fill="#323232" stroke="none" stroke-width="0" stroke-linecap="butt"/><path d="M-77.85279,355.42445l-2.27546,-1.38506l18.50045,-0.09893l-1.48399,1.48399z" fill="#323232" stroke="none" stroke-width="0" stroke-linecap="butt"/><path d="M-47.95912,354.26694v-1.78079h16.12606v1.78079z" fill="#323232" stroke="none" stroke-width="0" stroke-linecap="butt"/><path d="M-42.92947,354.23725c0,0.87423 -0.753,1.58293 -1.68186,1.58293c-0.92886,0 -1.68186,-0.7087 -1.68186,-1.58293c0,-0.87423 0.75299,-1.58293 1.68186,-1.58293c0.92886,0 1.68186,0.7087 1.68186,1.58293z" fill="#323232" stroke="none" stroke-width="0" stroke-linecap="butt"/><path d="M-33.62978,354.33619c0,0.87423 -0.753,1.58293 -1.68186,1.58293c-0.92886,0 -1.68186,-0.7087 -1.68186,-1.58293c0,-0.87423 0.75299,-1.58293 1.68186,-1.58293c0.92886,0 1.68186,0.7087 1.68186,1.58293z" fill="#323232" stroke="none" stroke-width="0" stroke-linecap="butt"/><path d="M-27.57895,354.26694v-1.78079h22.5567v1.78079c0,0 -4.35612,0 -8.7201,0c-2.85198,0 -5.70733,0 -7.35234,0c-2.64367,0 -6.48426,0 -6.48426,0z" fill="#323232" stroke="none" stroke-width="0" stroke-linecap="butt"/><path d="M-22.70748,355.02872l-2.11727,-1.38506l17.21432,-0.09893l-1.38083,1.48399z" fill="#323232" stroke="none" stroke-width="0" stroke-linecap="butt"/></g><g><path d="M117.82796,351.25756c-0.04973,0.78198 -0.53595,1.36353 -1.14234,1.38388c-11.09008,0.37216 -114.63116,0.97174 -114.93899,0.35743c-0.20959,-0.41825 -0.31769,-23.03609 -0.31769,-25.47351c0,-0.6878 1.14633,-1.40979 2.44149,-1.40979c14.67235,0 104.37741,0.11872 111.71478,0.11872c0.92794,0 2.44321,1.51013 2.44321,2.27051c0,2.25301 0.09988,18.03013 -0.20045,22.75276z" fill="#cccccc" stroke="#000000" stroke-width="0" stroke-linecap="butt"/><path d="M100.4042,346.38693v-3.36372h17.52526v3.36372z" fill="#ff2121" stroke="none" stroke-width="0" stroke-linecap="butt"/><path d="M114.26087,341.86075c-0.4269,0 -1.49857,0 -2.22094,0c-0.41222,0 -0.7107,-0.36529 -0.7107,-0.9646c0,-2.43677 0,-8.74225 0,-10.09115c0,-0.49643 0.44938,-0.9646 0.79954,-0.9646c0.44477,0 1.58945,0 2.30978,0c0.36558,0 0.62186,0.51506 0.62186,1.0494c0,1.33791 0,7.18274 0,9.75196c0,0.74851 -0.44938,1.21899 -0.79954,1.21899z" fill="#30f1d5" stroke="none" stroke-width="0" stroke-linecap="butt"/><path d="M1.44305,329.02421v-1.73133l115.7741,0.11872l0.71232,1.61261z" fill="#ff2121" stroke="none" stroke-width="0" stroke-linecap="butt"/><path d="M107.58593,341.69115c-0.64035,0 -2.24786,0 -3.33141,0c-0.61834,0 -1.06605,-0.36014 -1.06605,-0.95098c0,-2.40239 0,-8.6189 0,-9.94878c0,-0.48942 0.67407,-0.95098 1.19931,-0.95098c0.66716,0 2.38418,0 3.46467,0c0.54838,0 0.93279,0.50779 0.93279,1.03459c0,1.31904 0,7.0814 0,9.61436c0,0.73795 -0.67407,1.20179 -1.19931,1.20179z" fill="#30f1d5" stroke="none" stroke-width="0" stroke-linecap="butt"/><path d="M86.72524,341.77595c-0.64035,0 -2.24786,0 -3.33141,0c-0.61834,0 -1.06605,-0.36014 -1.06605,-0.95098c0,-2.40239 0,-8.6189 0,-9.94878c0,-0.48942 0.67407,-0.95098 1.19931,-0.95098c0.66716,0 2.38418,0 3.46467,0c0.54838,0 0.93279,0.50779 0.93279,1.03459c0,1.31904 0,7.0814 0,9.61436c0,0.73795 -0.67407,1.20179 -1.19931,1.20179z" fill="#30f1d5" stroke="none" stroke-width="0" stroke-linecap="butt"/><path d="M98.91213,342.19994c-0.4269,0 -1.49857,0 -2.22094,0c-0.41222,0 -0.7107,-0.36529 -0.7107,-0.9646c0,-2.43677 0,-8.74225 0,-10.09115c0,-0.49643 0.44938,-0.9646 0.79954,-0.9646c0.44477,0 1.58945,0 2.30978,0c0.36558,0 0.62186,0.51506 0.62186,1.0494c0,1.33791 0,7.18274 0,9.75196c0,0.74851 -0.44938,1.21899 -0.79954,1.21899z" fill="#30f1d5" stroke="none" stroke-width="0" stroke-linecap="butt"/><path d="M94.33296,342.19994c-0.4269,0 -1.49857,0 -2.22094,0c-0.41222,0 -0.7107,-0.36529 -0.7107,-0.9646c0,-2.43677 0,-8.74225 0,-10.09115c0,-0.49643 0.44938,-0.9646 0.79954,-0.9646c0.44477,0 1.58945,0 2.30978,0c0.36558,0 0.62186,0.51506 0.62186,1.0494c0,1.33791 0,7.18274 0,9.75196c0,0.74851 -0.44938,1.21899 -0.79954,1.21899z" fill="#30f1d5" stroke="none" stroke-width="0" stroke-linecap="butt"/><path d="M95.53297,329.70259v20.35191" fill="none" stroke="#000000" stroke-width="0.5" stroke-linecap="round"/><path d="M90.93492,350.2241v-20.60631h9.32796v20.60631z" fill="none" stroke="#000000" stroke-width="0.5" stroke-linecap="round"/><path d="M77.88185,342.28474c-0.4269,0 -1.49857,0 -2.22094,0c-0.41222,0 -0.7107,-0.36529 -0.7107,-0.9646c0,-2.43677 0,-8.74225 0,-10.09115c0,-0.49643 0.44938,-0.9646 0.79954,-0.9646c0.44477,0 1.58945,0 2.30978,0c0.36558,0 0.62186,0.51506 0.62186,1.0494c0,1.33791 0,7.18274 0,9.75196c0,0.74851 -0.44938,1.21899 -0.79954,1.21899z" fill="#30f1d5" stroke="none" stroke-width="0" stroke-linecap="butt"/><path d="M73.30265,342.28474c-0.4269,0 -1.49857,0 -2.22094,0c-0.41222,0 -0.7107,-0.36529 -0.7107,-0.9646c0,-2.43677 0,-8.74225 0,-10.09115c0,-0.49643 0.44938,-0.9646 0.79954,-0.9646c0.44477,0 1.58945,0 2.30978,0c0.36558,0 0.62186,0.51506 0.62186,1.0494c0,1.33791 0,7.18274 0,9.75196c0,0.74851 -0.44938,1.21899 -0.79954,1.21899z" fill="#30f1d5" stroke="none" stroke-width="0" stroke-linecap="butt"/><path d="M74.50266,350.13931v-20.35191" fill="none" stroke="#000000" stroke-width="0.5" stroke-linecap="round"/><path d="M69.90461,350.30891v-20.60631h9.32796v20.60631z" fill="none" stroke="#000000" stroke-width="0.5" stroke-linecap="round"/><path d="M65.35571,341.77595c-0.64035,0 -2.24786,0 -3.33141,0c-0.61834,0 -1.06605,-0.36014 -1.06605,-0.95098c0,-2.40239 0,-8.6189 0,-9.94878c0,-0.48942 0.67407,-0.95098 1.19931,-0.95098c0.66716,0 2.38418,0 3.46467,0c0.54838,0 0.93279,0.50779 0.93279,1.03459c0,1.31904 0,7.0814 0,9.61436c0,0.73795 -0.67407,1.20179 -1.19931,1.20179z" fill="#30f1d5" stroke="none" stroke-width="0" stroke-linecap="butt"/><path d="M56.17315,342.36954c-0.4269,0 -1.49857,0 -2.22094,0c-0.41222,0 -0.7107,-0.36529 -0.7107,-0.9646c0,-2.43677 0,-8.74225 0,-10.09115c0,-0.49643 0.44938,-0.9646 0.79954,-0.9646c0.44477,0 1.58945,0 2.30978,0c0.36558,0 0.62186,0.51506 0.62186,1.0494c0,1.33791 0,7.18274 0,9.75196c0,0.74851 -0.44938,1.21899 -0.79954,1.21899z" fill="#30f1d5" stroke="none" stroke-width="0" stroke-linecap="butt"/><path d="M51.59395,342.36954c-0.4269,0 -1.49857,0 -2.22094,0c-0.41222,0 -0.7107,-0.36529 -0.7107,-0.9646c0,-2.43677 0,-8.74225 0,-10.09115c0,-0.49643 0.44938,-0.9646 0.79954,-0.9646c0.44477,0 1.58945,0 2.30978,0c0.36558,0 0.62186,0.51506 0.62186,1.0494c0,1.33791 0,7.18274 0,9.75196c0,0.74851 -0.44938,1.21899 -0.79954,1.21899z" fill="#30f1d5" stroke="none" stroke-width="0" stroke-linecap="butt"/><path d="M52.79396,329.8722v20.35191" fill="none" stroke="#000000" stroke-width="0.5" stroke-linecap="round"/><path d="M48.19593,350.3937v-20.60631h9.32796v20.60631z" fill="none" stroke="#000000" stroke-width="0.5" stroke-linecap="round"/><path d="M43.39262,341.94554c-0.64035,0 -2.24786,0 -3.33141,0c-0.61834,0 -1.06605,-0.36014 -1.06605,-0.95098c0,-2.40239 0,-8.6189 0,-9.94878c0,-0.48942 0.67407,-0.95098 1.19931,-0.95098c0.66716,0 2.38418,0 3.46467,0c0.54838,0 0.93279,0.50779 0.93279,1.03459c0,1.31904 0,7.0814 0,9.61436c0,0.73795 -0.67407,1.20179 -1.19931,1.20179z" fill="#30f1d5" stroke="none" stroke-width="0" stroke-linecap="butt"/><path d="M34.21003,342.62395c-0.4269,0 -1.49857,0 -2.22094,0c-0.41222,0 -0.7107,-0.36529 -0.7107,-0.9646c0,-2.43677 0,-8.74225 0,-10.09115c0,-0.49643 0.44938,-0.9646 0.79954,-0.9646c0.44477,0 1.58945,0 2.30978,0c0.36558,0 0.62186,0.51506 0.62186,1.0494c0,1.33791 0,7.18274 0,9.75196c0,0.74851 -0.44938,1.21899 -0.79954,1.21899z" fill="#30f1d5" stroke="none" stroke-width="0" stroke-linecap="butt"/><path d="M29.63086,342.62395c-0.4269,0 -1.49857,0 -2.22094,0c-0.41222,0 -0.7107,-0.36529 -0.7107,-0.9646c0,-2.43677 0,-8.74225 0,-10.09115c0,-0.49643 0.44938,-0.9646 0.79954,-0.9646c0.44477,0 1.58945,0 2.30978,0c0.36558,0 0.62186,0.51506 0.62186,1.0494c0,1.33791 0,7.18274 0,9.75196c0,0.74851 -0.44938,1.21899 -0.79954,1.21899z" fill="#30f1d5" stroke="none" stroke-width="0" stroke-linecap="butt"/><path d="M30.83085,330.1266v20.35191" fill="none" stroke="#000000" stroke-width="0.5" stroke-linecap="round"/><path d="M26.23281,350.64811v-20.60631h9.32796v20.60631z" fill="none" stroke="#000000" stroke-width="0.5" stroke-linecap="round"/><path d="M22.10791,342.03034c-0.64035,0 -2.24786,0 -3.33141,0c-0.61834,0 -1.06605,-0.36014 -1.06605,-0.95098c0,-2.40239 0,-8.6189 0,-9.94878c0,-0.48942 0.67407,-0.95098 1.19931,-0.95098c0.66716,0 2.38418,0 3.46467,0c0.54838,0 0.93279,0.50779 0.93279,1.03459c0,1.31904 0,7.0814 0,9.61436c0,0.73795 -0.67407,1.20179 -1.19931,1.20179z" fill="#30f1d5" stroke="none" stroke-width="0" stroke-linecap="butt"/><path d="M79.3739,346.30214v-3.36372h11.41968v3.36372z" fill="#ff2121" stroke="none" stroke-width="0" stroke-linecap="butt"/><path d="M57.66519,346.13254v-3.36372h12.09808v3.36372z" fill="#ff2121" stroke="none" stroke-width="0" stroke-linecap="butt"/><path d="M35.78689,346.04773v-3.36372h12.26768v3.36372z" fill="#ff2121" stroke="none" stroke-width="0" stroke-linecap="butt"/><path d="M13.51892,342.70875c-0.4269,0 -1.49857,0 -2.22094,0c-0.41222,0 -0.7107,-0.36529 -0.7107,-0.9646c0,-2.43677 0,-8.74225 0,-10.09115c0,-0.49643 0.44938,-0.9646 0.79954,-0.9646c0.44477,0 1.58945,0 2.30978,0c0.36558,0 0.62186,0.51506 0.62186,1.0494c0,1.33791 0,7.18274 0,9.75196c0,0.74851 -0.44938,1.21899 -0.79954,1.21899z" fill="#30f1d5" stroke="none" stroke-width="0" stroke-linecap="butt"/><path d="M8.93974,342.70875c-0.4269,0 -1.49857,0 -2.22094,0c-0.41222,0 -0.7107,-0.36529 -0.7107,-0.9646c0,-2.43677 0,-8.74225 0,-10.09115c0,-0.49643 0.44938,-0.9646 0.79954,-0.9646c0.44477,0 1.58945,0 2.30978,0c0.36558,0 0.62186,0.51506 0.62186,1.0494c0,1.33791 0,7.18274 0,9.75196c0,0.74851 -0.44938,1.21899 -0.79954,1.21899z" fill="#30f1d5" stroke="none" stroke-width="0" stroke-linecap="butt"/><path d="M10.13974,330.21139v20.35191" fill="none" stroke="#000000" stroke-width="0.5" stroke-linecap="round"/><path d="M5.54171,350.7329v-20.60631h9.32796v20.60631z" fill="none" stroke="#000000" stroke-width="0.5" stroke-linecap="round"/><path d="M15.011,346.21734v-3.36372h11.08049v3.36372z" fill="#ff2121" stroke="none" stroke-width="0" stroke-linecap="butt"/><path d="M1.28405,346.12194v-3.36372h4.04212v3.36372z" fill="#ff2121" stroke="none" stroke-width="0" stroke-linecap="butt"/><path d="M97.45035,354.06907v-1.78079h16.12606v1.78079z" fill="#323232" stroke="none" stroke-width="0" stroke-linecap="butt"/><path d="M110.22863,352.45645c0.92886,0 1.68186,0.7087 1.68186,1.58293c0,0.87423 -0.75299,1.58293 -1.68186,1.58293c-0.92886,0 -1.68186,-0.7087 -1.68186,-1.58293c0,-0.87423 0.753,-1.58293 1.68186,-1.58293z" fill="#323232" stroke="none" stroke-width="0" stroke-linecap="butt"/><path d="M100.92896,352.5554c0.92886,0 1.68186,0.7087 1.68186,1.58293c0,0.87423 -0.75299,1.58293 -1.68186,1.58293c-0.92886,0 -1.68186,-0.7087 -1.68186,-1.58293c0,-0.87423 0.753,-1.58293 1.68186,-1.58293z" fill="#323232" stroke="none" stroke-width="0" stroke-linecap="butt"/><path d="M78.76798,354.66266c-2.27993,0 -6.23734,0 -10.19009,0c-6.04833,0 -12.08575,0 -12.08575,0v-1.78079h31.26279v1.78079c0,0 -5.32293,0 -8.98695,0z" fill="#323232" stroke="none" stroke-width="0" stroke-linecap="butt"/><path d="M63.63124,355.42445l-1.48399,-1.48399l18.50045,0.09893l-2.27546,1.38506z" fill="#323232" stroke="none" stroke-width="0" stroke-linecap="butt"/><path d="M32.35251,354.26694v-1.78079h16.12606v1.78079z" fill="#323232" stroke="none" stroke-width="0" stroke-linecap="butt"/><path d="M45.13079,352.65433c0.92886,0 1.68186,0.7087 1.68186,1.58293c0,0.87423 -0.75299,1.58293 -1.68186,1.58293c-0.92886,0 -1.68186,-0.7087 -1.68186,-1.58293c0,-0.87423 0.753,-1.58293 1.68186,-1.58293z" fill="#323232" stroke="none" stroke-width="0" stroke-linecap="butt"/><path d="M35.83111,352.75326c0.92886,0 1.68186,0.7087 1.68186,1.58293c0,0.87423 -0.75299,1.58293 -1.68186,1.58293c-0.92886,0 -1.68186,-0.7087 -1.68186,-1.58293c0,-0.87423 0.753,-1.58293 1.68186,-1.58293z" fill="#323232" stroke="none" stroke-width="0" stroke-linecap="butt"/><path d="M21.61414,354.26694c-1.64502,0 -4.50036,0 -7.35234,0c-4.36398,0 -8.7201,0 -8.7201,0v-1.78079h22.5567v1.78079c0,0 -3.84059,0 -6.48426,0z" fill="#323232" stroke="none" stroke-width="0" stroke-linecap="butt"/><path d="M9.51073,355.02872l-1.38083,-1.48399l17.21432,0.09893l-2.11727,1.38506z" fill="#323232" stroke="none" stroke-width="0" stroke-linecap="butt"/></g><path d="M-99.56602,326.1476l2.14285,-1.83334l17.71429,0.07143l2.64286,1.76191z" fill="#cccccc" stroke="none" stroke-width="0" stroke-linecap="butt"/><path d="M-45.85173,326.23688l2.14285,-1.83333l17.71429,0.07143l2.64286,1.7619z" fill="#cccccc" stroke="none" stroke-width="0" stroke-linecap="butt"/><path d="M15.60797,326.16244l2.14285,-1.83334l17.71428,0.07143l2.64286,1.7619z" fill="#cccccc" stroke="none" stroke-width="0" stroke-linecap="butt"/><path d="M69.32226,326.25173l2.14285,-1.83334l17.71429,0.07143l2.64286,1.76191z" fill="#cccccc" stroke="none" stroke-width="0" stroke-linecap="butt"/></g><text transform="translate(54.34881,80.98268) scale(1.32608,1.32608)" font-size="40" xml:space="preserve" fill="#ffffff" fill-rule="nonzero" stroke="#000000" stroke-width="9" stroke-linecap="butt" stroke-linejoin="miter" stroke-miterlimit="10" stroke-dasharray="" stroke-dashoffset="0" font-family="&quot;Microsoft YaHei&quot;, &quot;&quot;, STXihei, &quot;&quot;" font-weight="normal" text-anchor="start" style="mix-blend-mode: normal"><tspan x="0" dy="0"></tspan></text><text transform="translate(54.34881,80.98268) scale(1.32608,1.32608)" font-size="40" xml:space="preserve" fill="#ffffff" fill-rule="nonzero" stroke="#ffffff" stroke-width="4" stroke-linecap="butt" stroke-linejoin="miter" stroke-miterlimit="10" stroke-dasharray="" stroke-dashoffset="0" font-family="&quot;Microsoft YaHei&quot;, &quot;&quot;, STXihei, &quot;&quot;" font-weight="normal" text-anchor="start" style="mix-blend-mode: normal"><tspan x="0" dy="0"></tspan></text><text transform="translate(54.34881,80.98268) scale(1.32608,1.32608)" font-size="40" xml:space="preserve" fill="url(#color-17)" fill-rule="nonzero" stroke="#ffffff" stroke-width="0" stroke-linecap="butt" stroke-linejoin="miter" stroke-miterlimit="10" stroke-dasharray="" stroke-dashoffset="0" font-family="&quot;Microsoft YaHei&quot;, &quot;&quot;, STXihei, &quot;&quot;" font-weight="normal" text-anchor="start" style="mix-blend-mode: normal"><tspan x="0" dy="0"></tspan></text><g fill-rule="nonzero" stroke-linecap="butt" stroke-linejoin="miter" font-family="&quot;Microsoft YaHei&quot;, &quot;&quot;, STXihei, &quot;&quot;" font-weight="normal" font-size="40" text-anchor="start"><text transform="translate(184.13575,103.20356) scale(0.5,0.5)" font-size="40" xml:space="preserve" fill="#ffffff" fill-rule="nonzero" stroke="#ffffff" stroke-width="5" stroke-linecap="butt" stroke-linejoin="miter" stroke-miterlimit="10" stroke-dasharray="" stroke-dashoffset="0" font-family="&quot;Microsoft YaHei&quot;, &quot;&quot;, STXihei, &quot;&quot;" font-weight="normal" text-anchor="start" style="mix-blend-mode: normal"><tspan x="0" dy="0">8</tspan></text><text transform="translate(184.13575,103.20356) scale(0.5,0.5)" font-size="40" xml:space="preserve" fill="url(#color-18)" fill-rule="nonzero" stroke="url(#color-19)" stroke-width="1" stroke-linecap="butt" stroke-linejoin="miter" stroke-miterlimit="10" stroke-dasharray="" stroke-dashoffset="0" font-family="&quot;Microsoft YaHei&quot;, &quot;&quot;, STXihei, &quot;&quot;" font-weight="normal" text-anchor="start" style="mix-blend-mode: normal"><tspan x="0" dy="0">8</tspan></text></g><g fill-rule="nonzero" stroke="none" stroke-width="0.5" stroke-linecap="butt" stroke-linejoin="miter"><path d="M306.30204,82.63026c4.01315,-2.25744 9.68548,-0.86106 14.09502,-1.06233c8.31383,-0.37947 16.60748,-0.7027 24.92167,-1.05639c5.11162,-0.21745 10.0612,-1.0882 15.09505,0.17026c0.54366,0.13591 4.44183,6.23928 4.19484,6.79741c-0.2995,0.67678 -1.19812,1.19397 -1.10157,1.92774c0.15431,1.17278 1.32963,1.97952 1.76062,3.08109c0.10541,0.26944 -0.46212,0.83888 -0.17303,0.85053c8.338,0.33601 13.13934,-3.99727 17.99422,2.65621c0.54669,0.74922 2.60925,2.56178 2.2141,3.87468c-2.64442,8.7863 -7.42493,7.27641 -14.97663,9.33636c-1.90364,0.51927 -18.05417,-0.21363 -21.75545,-0.00259c-7.32256,0.41751 -15.54449,1.19057 -22.86787,1.54523c-6.37525,0.30875 -14.34704,1.19805 -20.78228,0.0199c-3.30012,-0.60417 -8.45612,-4.29257 -7.02882,-8.15469c0.70507,-1.90784 1.64065,-3.7451 2.76889,-5.43745c0.28759,-0.43139 1.24743,-0.24918 1.35965,-0.75535c0.31351,-1.41416 -1.0336,-3.83573 0.99115,-4.63719c-0.29726,-0.8075 -0.45956,-1.68025 -0.45956,-2.59092c0,-2.44071 1.16586,-4.60913 2.97107,-5.97871c0.2309,-0.22353 0.48835,-0.42034 0.77893,-0.58379z" fill="#9966ff"/><path d="M312.14812,87.85057c0,-0.68592 0.55248,-1.24281 1.23672,-1.24993l0.49781,-0.28446c0.19452,0.11115 0.36638,0.25286 0.51776,0.42139c2.35834,-0.56771 5.7856,-0.54697 6.6852,0.95237c0.67789,1.12983 0.35978,2.38797 -0.37631,3.43865c-0.3644,0.52014 -1.91089,1.24867 -1.29376,1.39865c3.22453,0.78364 5.13362,1.37519 4.54581,5.33257c-0.46517,3.13169 -4.33204,5.18372 -7.16393,5.72454c-1.19326,0.22789 -3.89092,0.82864 -3.89092,-1.04024c0,-0.13881 0.01557,-0.26292 0.04477,-0.3739c-1.42554,-0.99028 -0.57858,-6.44271 -0.49745,-7.6709c0.07367,-1.11526 -0.129,-4.00068 -0.03836,-5.87606c-0.16744,-0.21265 -0.26734,-0.481 -0.26734,-0.77266zM316.33099,101.12817c2.72975,-0.54913 5.2481,-2.16123 5.15463,-5.09607c-0.05302,-1.66496 -4.10134,-1.02741 -6.33155,-1.27145c-0.17985,1.66205 -0.38973,3.20097 -0.40062,4.22858c-0.00577,0.54431 0.11814,1.49349 -0.04962,2.24047c0.58884,-0.03894 1.20066,-0.01573 1.62717,-0.10152zM317.51977,90.77392c0.04411,-0.02768 1.45992,-1.40837 1.35896,-1.43409c-0.68953,-0.1757 -2.19739,-0.05786 -3.54812,-0.02101c0.08772,0.76734 0.09712,1.61933 0.06146,2.49955c0.84011,-0.44877 1.74102,-0.80181 2.1277,-1.04445z" fill="#ffffff"/><path d="M325.18892,96.88759l0.23699,-0.71098l0.0483,-0.0759l0.01952,-0.08783l0.52139,-1.04276l0.10982,-0.12813l0.07909,-0.14906l0.42658,-0.47398l0.08565,-0.05772l0.0626,-0.08216l0.47398,-0.37919l0.12088,-0.05541l0.10097,-0.08654l0.37919,-0.18959l0.22129,-0.04918l0.21335,-0.07658l0.47398,-0.0474l0.06281,0.00919l0.06158,-0.0154h0.52138l0.05607,0.01402l0.0571,-0.00888l0.52139,0.0474l0.06413,0.02237l0.06785,-0.00323l0.47398,0.0948l0.11252,0.0533l0.12311,0.01858l0.53891,0.22454l0.63311,0.22611l0.13966,0.0931l0.15675,0.06003l0.46235,0.32364l0.55696,0.37131l0.05586,0.06145l0.07389,0.0379l0.37919,0.33178l0.02427,0.03495l0.03648,0.02189l0.60591,0.6059l0.01377,0.00276l0.01927,0.03029l0.02463,0.02463l0.14777,0.24629l0.1542,0.24231l0.01101,0.03304l0.01847,0.03079l-0.00369,0.01354l0.1638,0.49141l0.04941,0.64234l-0.03291,0.03678l0.01299,0.04762l-0.19133,0.31888l-0.00077,0.00347l-0.0474,0.0948l-0.03598,0.04197l-0.03137,0.0523l-0.00253,0.04549l-0.18813,0.16125l-0.16125,0.18813l-0.06226,0.00346l-0.07749,0.06642l-0.18959,0.0948l-0.13439,0.02986l-0.12147,0.06478l-0.33261,0.08315l-0.38105,0.12702l-0.04886,0.00376l-0.04325,0.02307l-0.56878,0.1422h-0.06562l-0.06077,0.02476l-0.66357,0.0948l-0.01122,-0.00116l-0.01051,0.00407l-0.75838,0.0948l-0.03932,-0.00477l-0.03775,0.01198l-0.75838,0.0474l-0.03925,-0.00724l-0.03872,0.00968h-0.71379l-0.57508,0.04108l-0.61989,0.08855l-0.01122,-0.00116l-0.01051,0.00407l-0.35388,0.04424l-0.23516,0.03919l0.04978,0.12941l0.23385,0.40924l0.37505,0.34095l0.00468,0.00702l0.00738,0.00408l0.59902,0.55908l0.69554,0.38641l0.76396,0.38198l0.80756,0.14683l1.07728,0.08977l0.01673,0.0057l0.0175,-0.00236l0.69103,0.07678l0.67954,-0.10193l0.45001,-0.15l0.3926,-0.14276l0.13396,-0.08038l0.61633,-0.18757l1.09866,0.61632l0.0268,1.25944l-0.45554,0.45555l-0.23699,0.14219l-0.1157,0.03521l-0.10025,0.06767l-0.52138,0.18959l-0.01725,0.0018l-0.01464,0.00932l-0.56878,0.18959l-0.10895,0.00838l-0.10091,0.04193l-0.94797,0.1422l-0.16209,-0.01562l-0.16137,0.02181l-0.83608,-0.09289l-1.12042,-0.09337l-0.05832,-0.01985l-0.06148,0.00401l-1.04277,-0.18959l-0.16192,-0.07325l-0.17349,-0.03856l-0.94797,-0.47398l-0.02114,-0.01812l-0.02689,-0.00722l-0.85318,-0.47398l-0.11186,-0.10465l-0.13398,-0.07424l-0.70499,-0.65798l-0.51531,-0.46847l-0.10878,-0.16317l-0.13568,-0.14158l-0.37919,-0.66358l-0.02606,-0.09267l-0.05532,-0.07878l-0.23699,-0.61618l-0.02168,-0.17654l-0.05732,-0.16837l-0.04739,-0.56878l0.00855,-0.05235l-0.01287,-0.05146v-0.71098l0.0154,-0.06158l-0.00919,-0.0628l0.04739,-0.47398l0.03441,-0.09586l0.00159,-0.10184l0.18959,-0.71098l0.01894,-0.03422zM327.77299,97.13405l0.65273,-0.09324l0.04485,0.00464l0.04286,-0.01403l0.66358,-0.0474l0.04487,0.00787l0.04419,-0.01104h0.71935l0.68078,-0.04255l0.70907,-0.08863l0.55325,-0.07904l-0.01127,-0.00986l-0.50065,-0.33376l-0.00982,-0.01081l-0.01364,-0.00522l-0.33609,-0.23527l-0.50507,-0.18038l-0.02757,-0.01838l-0.03278,-0.00494l-0.45453,-0.18939l-0.28713,-0.05743l-0.39841,-0.03622h-0.40234l-0.18306,0.01831l-0.055,0.0275l-0.29073,0.23259l-0.24496,0.27218l-0.40596,0.81193l-0.02888,0.08664z" fill="#ffffff"/><path d="M343.40847,99.48504c-0.03037,0.87669 0.43529,2.98191 -1.25,2.98191c-1.75513,0 -1.40337,-3.90703 -0.9208,-6.7618c-0.988,-0.19121 -1.97055,-0.38003 -2.87108,-0.39537c-0.01024,-0.00017 -0.02068,-0.0003 -0.03127,-0.00039c-0.67591,-0.0166 -1.21873,-0.56971 -1.21873,-1.24961c0,-0.45799 0.24631,-0.85845 0.61368,-1.07614c0.1227,-0.09747 0.28814,-0.15539 0.54201,-0.17035c0.03114,-0.00232 0.06259,-0.00351 0.09431,-0.00351c1.14607,-0.01953 2.29235,-0.03118 3.43867,-0.03439c0.0582,-0.6632 0.06598,-2.12295 0.85136,-2.06879c0.16462,-0.0798 0.34939,-0.12456 0.54461,-0.12456c0.69036,0 1.25,0.55965 1.25,1.25c0,0.27602 -0.08946,0.53113 -0.24097,0.73794c0.01196,0.07 0.02231,0.14053 0.03114,0.21156c0.7277,0.00577 1.45536,0.01513 2.18293,0.02823c1.39317,0.02507 1.45395,1.5148 0.625,2.34375c-0.81847,0.81848 -1.90792,1.01525 -3.10581,0.95351c-0.22942,1.13769 -0.49744,2.29198 -0.53506,3.378z" fill="#ffffff"/><path d="M349.91418,94.05978c0,-0.02329 0.00064,-0.04642 0.00189,-0.0694l-0.00864,-0.01727l0.01262,-0.03534c0.02092,-0.216 0.09683,-0.41592 0.21354,-0.58558l0.07616,-0.11424l0.00106,-0.01913l0.24552,-0.21044l0.23927,-0.21752l0.01911,0.00131l0.17483,-0.08741l0.11424,-0.02538l0.10137,-0.05849l0.33179,-0.0948l0.02137,-0.00071l0.01886,-0.01006l0.37919,-0.0948h0.0169l0.01511,-0.00755l0.42659,-0.0948l0.13761,0.00362l0.13355,-0.03339h1.80115l0.13842,0.0346l0.14265,-0.00259l0.61618,0.14219l0.09464,0.04829l0.10505,0.01586l0.56878,0.23699l0.0978,0.07279l0.1148,0.041l0.42658,0.28439l0.10814,0.11895l0.13275,0.09066l0.35479,0.39913l0.35321,0.35321l0.07083,0.11804l0.09987,0.09475l0.33179,0.52138l0.0398,0.11938l0.07231,0.10299l0.22235,0.57811l0.2673,0.57915l0.01818,0.09588l0.04877,0.08454l0.18959,0.66358l0.00127,0.03812l0.01706,0.03411l0.18959,0.85318l-0.00253,0.09631l0.02953,0.0917l0.04072,0.61084l0.11963,0.51839l-0.00157,0.08635l0.02845,0.08155l0.04739,0.52138l-0.00888,0.05711l0.01401,0.05606v0.25541l0.02312,0.11563l-0.01305,0.274v0.31221l-0.01557,0.01493l-0.00202,0.04236l-0.4628,0.40309l-0.42911,0.41123l-0.03254,-0.00915l-0.02549,0.0222l-0.56385,-0.18795l-0.5908,-0.16617l-0.01996,-0.03742l-0.02047,-0.00682l-0.13365,-0.28216l-0.0774,-0.14513l-0.28992,1.03082l-0.56844,0.30317l-0.18959,0.0474h-0.15389l-0.08953,0.02238l-0.13578,0.07241l-0.18959,0.0474h-0.1491l-0.0492,0.02109l-0.00125,0.00218l-0.00923,0.00231l-0.12337,0.05288l-0.24835,0.04006l-0.24405,0.06101h-0.13423l-0.00939,0.00151l-0.002,-0.00151h-0.25054l-0.68115,0.08514l-0.07842,-0.00951l-0.07663,0.01916h-1.46936l-0.0938,-0.02345l-0.09627,0.00892l-0.61618,-0.0948l-0.0161,-0.00676l-0.01743,0.00114l-0.41571,-0.07559l-0.00922,0.00425l-0.0279,-0.011l-0.06856,-0.01246l-0.24883,-0.11257l-0.2541,-0.1001l-0.0567,-0.0405l-0.02733,-0.01236l-0.00338,-0.00957l-0.24438,-0.17456l-0.06775,-0.07953l-0.08958,-0.05376l-0.42659,-0.42659l-0.05251,-0.08751l-0.05797,-0.02297l-0.09349,-0.22947l-0.12749,-0.21247l0.01641,-0.06017l-0.0385,-0.09451l-0.0474,-0.33179l0.00926,-0.08949l-0.02182,-0.08728v-0.75838l0.03732,-0.14929v-0.15389l0.06236,-0.24943l-0.00195,-0.00473l0.00722,-0.01634l0.02717,-0.10868l0.12158,-0.22795l0.10441,-0.23631l0.06878,-0.08843l0.0084,-0.01576l0.00493,-0.00138l0.24968,-0.32102l0.00693,-0.00544l0.00367,-0.008l0.37919,-0.47398l0.1054,-0.0803l0.07914,-0.10628l0.51339,-0.42004l0.60829,-0.51471l0.13455,-0.06621l0.11386,-0.09759l0.56878,-0.2844l0.14533,-0.0323l0.13261,-0.06766l0.61618,-0.1422l0.14265,0.00259l0.13842,-0.0346h1.23236l0.13842,0.0346l0.14265,-0.00259l0.61618,0.1422l0.18068,0.09219l0.19337,0.06123l0.44278,0.27248l-0.13413,-0.34873l-0.19094,-0.30004l-0.28216,-0.28216l-0.01934,-0.03223l-0.03104,-0.0212l-0.27224,-0.30627l-0.19185,-0.1279l-0.35982,-0.14992l-0.37491,-0.08652h-1.52157l-0.27659,0.06146l-0.34303,0.08575l-0.06687,0.0191c-0.08351,0.08145 -0.17839,0.15131 -0.28202,0.20697l-0.0273,0.02482l-0.01876,-0.00129c-0.16462,0.0798 -0.34939,0.12456 -0.54461,0.12456c-0.69036,0 -1.25,-0.55965 -1.25,-1.25zM356.79984,100.57057l-0.02311,-0.02697l-0.19073,-0.38146l-0.2767,-0.38046l-0.37133,-0.4051l-0.44293,-0.29528l-0.02389,-0.02628l-0.03274,-0.01378l-0.52283,-0.39212l-0.3928,-0.24173l-0.27787,-0.06412h-0.94764l-0.33255,0.07674l-0.30174,0.15087l-0.50179,0.42459l-0.00953,0.00469l-0.00635,0.00852l-0.41927,0.34304l-0.29142,0.36427l-0.15802,0.20317v0.35342l0.03472,0.03472l0.01993,0.01424l0.22938,0.0417l0.5049,0.07768h1.29593l0.68115,-0.08514l0.07842,0.00951l0.07663,-0.01916h0.21741l0.09596,-0.04113l0.24835,-0.04005l0.13254,-0.03314l0.0079,-0.01382l0.27317,-0.06829l0.26516,-0.0947l0.03788,0.01894l0.04879,-0.0122h0.08311l0.0403,-0.01008h0.64424l0.51153,0.53378z" fill="#ffffff"/></g></g></g></svg>