<svg version="1.1" xmlns="http://www.w3.org/2000/svg" xmlns:xlink="http://www.w3.org/1999/xlink" width="721.24996" height="72.79411" viewBox="0,0,721.24996,72.79411"><g transform="translate(123.77871,-146.0285)"><g stroke-miterlimit="10"><g><path d="M67.57499,168.4571c0,-0.76038 0.88414,-1.55819 1.77429,-1.55819c7.03858,0 93.66012,0 107.73499,0c1.24242,0 2.34206,0.72199 2.34206,1.40979c0,2.43741 -0.1037,25.05525 -0.30476,25.47351c-0.31144,0.6479 -110.77797,-0.05447 -111.17744,-0.4162c-0.49933,-0.45216 -0.36915,-22.28283 -0.36915,-24.9089z" fill="#cccccc" stroke="#000000" stroke-width="0" stroke-linecap="butt"/><path d="M67.82297,187.17024v-3.36372h12.62808v3.36372z" fill="#ff2121" stroke="none" stroke-width="0" stroke-linecap="butt"/><path d="M67.67457,170.04497v-1.73133h111.73763v1.73133z" fill="#ff2121" stroke="none" stroke-width="0" stroke-linecap="butt"/><path d="M72.07002,181.27267c0,-2.53296 0,-8.29532 0,-9.61436c0,-0.5268 0.38442,-1.03459 0.93279,-1.03459c1.08049,0 2.79751,0 3.46467,0c0.52524,0 1.19931,0.46156 1.19931,0.95098c0,1.32987 0,7.54639 0,9.94878c0,0.59085 -0.44771,0.95098 -1.06605,0.95098c-1.08356,0 -2.69107,0 -3.33141,0c-0.52524,0 -1.19931,-0.46384 -1.19931,-1.20179z" fill="#30f1d5" stroke="none" stroke-width="0" stroke-linecap="butt"/><path d="M92.93073,181.35747c0,-2.53296 0,-8.29532 0,-9.61436c0,-0.5268 0.38442,-1.03459 0.93279,-1.03459c1.08049,0 2.79751,0 3.46467,0c0.52524,0 1.19931,0.46156 1.19931,0.95098c0,1.32987 0,7.54639 0,9.94878c0,0.59085 -0.44771,0.95098 -1.06605,0.95098c-1.08356,0 -2.69107,0 -3.33141,0c-0.52524,0 -1.19931,-0.46384 -1.19931,-1.20179z" fill="#30f1d5" stroke="none" stroke-width="0" stroke-linecap="butt"/><g><path d="M81.14358,181.76427c0,-2.56921 0,-8.41404 0,-9.75196c0,-0.53434 0.25628,-1.0494 0.62186,-1.0494c0.72033,0 1.86501,0 2.30978,0c0.35016,0 0.79954,0.46817 0.79954,0.9646c0,1.34891 0,7.65439 0,10.09115c0,0.5993 -0.29848,0.9646 -0.7107,0.9646c-0.72237,0 -1.79404,0 -2.22094,0c-0.35016,0 -0.79954,-0.47048 -0.79954,-1.21899z" fill="#30f1d5" stroke="none" stroke-width="0" stroke-linecap="butt"/><path d="M85.72276,181.76427c0,-2.56921 0,-8.41404 0,-9.75196c0,-0.53434 0.25628,-1.0494 0.62186,-1.0494c0.72033,0 1.86501,0 2.30978,0c0.35016,0 0.79954,0.46817 0.79954,0.9646c0,1.34891 0,7.65439 0,10.09115c0,0.5993 -0.29848,0.9646 -0.7107,0.9646c-0.72237,0 -1.79404,0 -2.22094,0c-0.35016,0 -0.79954,-0.47048 -0.79954,-1.21899z" fill="#30f1d5" stroke="none" stroke-width="0" stroke-linecap="butt"/><path d="M85.3223,190.83783v-20.35191" fill="none" stroke="#000000" stroke-width="0.5" stroke-linecap="round"/><path d="M80.59238,191.00742v-20.60631h9.32796v20.60631z" fill="none" stroke="#000000" stroke-width="0.5" stroke-linecap="round"/></g><g><path d="M102.17389,181.84907c0,-2.56921 0,-8.41404 0,-9.75196c0,-0.53434 0.25628,-1.0494 0.62186,-1.0494c0.72033,0 1.86501,0 2.30978,0c0.35016,0 0.79954,0.46817 0.79954,0.9646c0,1.34891 0,7.65439 0,10.09115c0,0.5993 -0.29848,0.9646 -0.7107,0.9646c-0.72237,0 -1.79404,0 -2.22094,0c-0.35016,0 -0.79954,-0.47048 -0.79954,-1.21899z" fill="#30f1d5" stroke="none" stroke-width="0" stroke-linecap="butt"/><path d="M106.75306,181.84907c0,-2.56921 0,-8.41404 0,-9.75196c0,-0.53434 0.25628,-1.0494 0.62186,-1.0494c0.72033,0 1.86501,0 2.30978,0c0.35016,0 0.79954,0.46817 0.79954,0.9646c0,1.34891 0,7.65439 0,10.09115c0,0.5993 -0.29848,0.9646 -0.7107,0.9646c-0.72237,0 -1.79404,0 -2.22094,0c-0.35016,0 -0.79954,-0.47048 -0.79954,-1.21899z" fill="#30f1d5" stroke="none" stroke-width="0" stroke-linecap="butt"/><path d="M106.35261,190.92264v-20.35191" fill="none" stroke="#000000" stroke-width="0.5" stroke-linecap="round"/><path d="M101.62268,191.09223v-20.60631h9.32796v20.60631z" fill="none" stroke="#000000" stroke-width="0.5" stroke-linecap="round"/></g><path d="M114.30023,181.35747c0,-2.53296 0,-8.29532 0,-9.61436c0,-0.5268 0.38442,-1.03459 0.93279,-1.03459c1.08049,0 2.79751,0 3.46467,0c0.52524,0 1.19931,0.46156 1.19931,0.95098c0,1.32987 0,7.54639 0,9.94878c0,0.59085 -0.44771,0.95098 -1.06605,0.95098c-1.08356,0 -2.69107,0 -3.33141,0c-0.52524,0 -1.19931,-0.46384 -1.19931,-1.20179z" fill="#30f1d5" stroke="none" stroke-width="0" stroke-linecap="butt"/><g><path d="M123.88259,181.93388c0,-2.56921 0,-8.41404 0,-9.75196c0,-0.53434 0.25628,-1.0494 0.62186,-1.0494c0.72033,0 1.86501,0 2.30978,0c0.35016,0 0.79954,0.46817 0.79954,0.9646c0,1.34891 0,7.65439 0,10.09115c0,0.5993 -0.29848,0.9646 -0.7107,0.9646c-0.72237,0 -1.79404,0 -2.22094,0c-0.35016,0 -0.79954,-0.47048 -0.79954,-1.21899z" fill="#30f1d5" stroke="none" stroke-width="0" stroke-linecap="butt"/><path d="M128.46177,181.93388c0,-2.56921 0,-8.41404 0,-9.75196c0,-0.53434 0.25628,-1.0494 0.62186,-1.0494c0.72033,0 1.86501,0 2.30978,0c0.35016,0 0.79954,0.46817 0.79954,0.9646c0,1.34891 0,7.65439 0,10.09115c0,0.5993 -0.29848,0.9646 -0.7107,0.9646c-0.72237,0 -1.79404,0 -2.22094,0c-0.35016,0 -0.79954,-0.47048 -0.79954,-1.21899z" fill="#30f1d5" stroke="none" stroke-width="0" stroke-linecap="butt"/><path d="M128.06131,170.65551v20.35191" fill="none" stroke="#000000" stroke-width="0.5" stroke-linecap="round"/><path d="M123.33139,191.17702v-20.60631h9.32796v20.60631z" fill="none" stroke="#000000" stroke-width="0.5" stroke-linecap="round"/></g><path d="M136.26333,181.52707c0,-2.53296 0,-8.29532 0,-9.61436c0,-0.5268 0.38442,-1.03459 0.93279,-1.03459c1.08049,0 2.79751,0 3.46467,0c0.52524,0 1.19931,0.46156 1.19931,0.95098c0,1.32987 0,7.54639 0,9.94878c0,0.59085 -0.44771,0.95098 -1.06605,0.95098c-1.08356,0 -2.69107,0 -3.33141,0c-0.52524,0 -1.19931,-0.46384 -1.19931,-1.20179z" fill="#30f1d5" stroke="none" stroke-width="0" stroke-linecap="butt"/><g><path d="M145.84569,182.18827c0,-2.56921 0,-8.41404 0,-9.75196c0,-0.53434 0.25628,-1.0494 0.62186,-1.0494c0.72033,0 1.86501,0 2.30978,0c0.35016,0 0.79954,0.46817 0.79954,0.9646c0,1.34891 0,7.65439 0,10.09115c0,0.5993 -0.29848,0.9646 -0.7107,0.9646c-0.72237,0 -1.79404,0 -2.22094,0c-0.35016,0 -0.79954,-0.47048 -0.79954,-1.21899z" fill="#30f1d5" stroke="none" stroke-width="0" stroke-linecap="butt"/><path d="M150.42487,182.18827c0,-2.56921 0,-8.41404 0,-9.75196c0,-0.53434 0.25628,-1.0494 0.62186,-1.0494c0.72033,0 1.86501,0 2.30978,0c0.35016,0 0.79954,0.46817 0.79954,0.9646c0,1.34891 0,7.65439 0,10.09115c0,0.5993 -0.29848,0.9646 -0.7107,0.9646c-0.72237,0 -1.79404,0 -2.22094,0c-0.35016,0 -0.79954,-0.47048 -0.79954,-1.21899z" fill="#30f1d5" stroke="none" stroke-width="0" stroke-linecap="butt"/><path d="M150.02441,170.90992v20.35191" fill="none" stroke="#000000" stroke-width="0.5" stroke-linecap="round"/><path d="M145.29449,191.43143v-20.60631h9.32796v20.60631z" fill="none" stroke="#000000" stroke-width="0.5" stroke-linecap="round"/></g><path d="M157.54804,181.61186c0,-2.53296 0,-8.29532 0,-9.61436c0,-0.5268 0.38442,-1.03459 0.93279,-1.03459c1.08049,0 2.79751,0 3.46467,0c0.52524,0 1.19931,0.46156 1.19931,0.95098c0,1.32987 0,7.54639 0,9.94878c0,0.59085 -0.44771,0.95098 -1.06605,0.95098c-1.08356,0 -2.69107,0 -3.33141,0c-0.52524,0 -1.19931,-0.46384 -1.19931,-1.20179z" fill="#30f1d5" stroke="none" stroke-width="0" stroke-linecap="butt"/><path d="M90.06167,187.08545v-3.36372h11.41968v3.36372z" fill="#ff2121" stroke="none" stroke-width="0" stroke-linecap="butt"/><path d="M111.09198,186.91585v-3.36372h12.09808v3.36372z" fill="#ff2121" stroke="none" stroke-width="0" stroke-linecap="butt"/><path d="M132.80068,186.83106v-3.36372h12.26768v3.36372z" fill="#ff2121" stroke="none" stroke-width="0" stroke-linecap="butt"/><g><path d="M166.5368,182.27307c0,-2.56921 0,-8.41404 0,-9.75196c0,-0.53434 0.25628,-1.0494 0.62186,-1.0494c0.72033,0 1.86501,0 2.30978,0c0.35016,0 0.79954,0.46817 0.79954,0.9646c0,1.34891 0,7.65439 0,10.09115c0,0.5993 -0.29848,0.9646 -0.7107,0.9646c-0.72237,0 -1.79404,0 -2.22094,0c-0.35016,0 -0.79954,-0.47048 -0.79954,-1.21899z" fill="#30f1d5" stroke="none" stroke-width="0" stroke-linecap="butt"/><path d="M171.11597,182.27307c0,-2.56921 0,-8.41404 0,-9.75196c0,-0.53434 0.25628,-1.0494 0.62186,-1.0494c0.72033,0 1.86501,0 2.30978,0c0.35016,0 0.79954,0.46817 0.79954,0.9646c0,1.34891 0,7.65439 0,10.09115c0,0.5993 -0.29848,0.9646 -0.7107,0.9646c-0.72237,0 -1.79404,0 -2.22094,0c-0.35016,0 -0.79954,-0.47048 -0.79954,-1.21899z" fill="#30f1d5" stroke="none" stroke-width="0" stroke-linecap="butt"/><path d="M170.71552,191.34663v-20.35191" fill="none" stroke="#000000" stroke-width="0.5" stroke-linecap="round"/><path d="M165.98559,191.51622v-20.60631h9.32796v20.60631z" fill="none" stroke="#000000" stroke-width="0.5" stroke-linecap="round"/></g><path d="M154.76378,187.00065v-3.36372h11.08049v3.36372z" fill="#ff2121" stroke="none" stroke-width="0" stroke-linecap="butt"/><path d="M175.45489,186.83106v-3.36372h4.04212v3.36372z" fill="#ff2121" stroke="none" stroke-width="0" stroke-linecap="butt"/><path d="M70.39523,194.85238v-1.78079h16.12606v1.78079z" fill="#323232" stroke="none" stroke-width="0" stroke-linecap="butt"/><path d="M75.42487,194.82271c0,0.87423 -0.753,1.58293 -1.68186,1.58293c-0.92886,0 -1.68186,-0.7087 -1.68186,-1.58293c0,-0.87423 0.75299,-1.58293 1.68186,-1.58293c0.92886,0 1.68186,0.7087 1.68186,1.58293z" fill="#323232" stroke="none" stroke-width="0" stroke-linecap="butt"/><path d="M84.72456,194.92164c0,0.87423 -0.753,1.58293 -1.68186,1.58293c-0.92886,0 -1.68186,-0.7087 -1.68186,-1.58293c0,-0.87423 0.75299,-1.58293 1.68186,-1.58293c0.92886,0 1.68186,0.7087 1.68186,1.58293z" fill="#323232" stroke="none" stroke-width="0" stroke-linecap="butt"/><path d="M93.10033,195.44598v-1.78079h31.26279v1.78079c0,0 -6.03742,0 -12.08575,0c-3.95275,0 -7.91016,0 -10.19009,0c-3.66403,0 -8.98695,0 -8.98695,0z" fill="#323232" stroke="none" stroke-width="0" stroke-linecap="butt"/><path d="M102.48301,196.20777l-2.27546,-1.38506l18.50045,-0.09893l-1.48399,1.48399z" fill="#323232" stroke="none" stroke-width="0" stroke-linecap="butt"/><path d="M132.37668,195.05026v-1.78079h16.12606v1.78079z" fill="#323232" stroke="none" stroke-width="0" stroke-linecap="butt"/><path d="M137.40632,195.02057c0,0.87423 -0.753,1.58293 -1.68186,1.58293c-0.92886,0 -1.68186,-0.7087 -1.68186,-1.58293c0,-0.87423 0.75299,-1.58293 1.68186,-1.58293c0.92886,0 1.68186,0.7087 1.68186,1.58293z" fill="#323232" stroke="none" stroke-width="0" stroke-linecap="butt"/><path d="M146.70601,195.11951c0,0.87423 -0.753,1.58293 -1.68186,1.58293c-0.92886,0 -1.68186,-0.7087 -1.68186,-1.58293c0,-0.87423 0.75299,-1.58293 1.68186,-1.58293c0.92886,0 1.68186,0.7087 1.68186,1.58293z" fill="#323232" stroke="none" stroke-width="0" stroke-linecap="butt"/><path d="M152.75686,195.05026v-1.78079h22.5567v1.78079c0,0 -4.35612,0 -8.7201,0c-2.85198,0 -5.70733,0 -7.35234,0c-2.64367,0 -6.48426,0 -6.48426,0z" fill="#323232" stroke="none" stroke-width="0" stroke-linecap="butt"/><path d="M157.62831,195.81204l-2.11727,-1.38506l17.21432,-0.09893l-1.38083,1.48399z" fill="#323232" stroke="none" stroke-width="0" stroke-linecap="butt"/></g><g><path d="M181.63516,168.4571c0,-0.76038 0.88414,-1.55819 1.77429,-1.55819c7.03858,0 93.66012,0 107.73499,0c1.24242,0 2.34206,0.72199 2.34206,1.40979c0,2.43741 -0.1037,25.05525 -0.30476,25.47351c-0.31144,0.6479 -110.77797,-0.05447 -111.17744,-0.4162c-0.49933,-0.45216 -0.36915,-22.28283 -0.36915,-24.9089z" fill="#cccccc" stroke="#000000" stroke-width="0" stroke-linecap="butt"/><path d="M181.88314,187.17024v-3.36372h12.62808v3.36372z" fill="#ff2121" stroke="none" stroke-width="0" stroke-linecap="butt"/><path d="M181.73474,170.04497v-1.73133h111.73763v1.73133z" fill="#ff2121" stroke="none" stroke-width="0" stroke-linecap="butt"/><path d="M186.13019,181.27267c0,-2.53296 0,-8.29532 0,-9.61436c0,-0.5268 0.38442,-1.03459 0.93279,-1.03459c1.08049,0 2.79751,0 3.46467,0c0.52524,0 1.19931,0.46156 1.19931,0.95098c0,1.32987 0,7.54639 0,9.94878c0,0.59085 -0.44771,0.95098 -1.06605,0.95098c-1.08356,0 -2.69107,0 -3.33141,0c-0.52524,0 -1.19931,-0.46384 -1.19931,-1.20179z" fill="#30f1d5" stroke="none" stroke-width="0" stroke-linecap="butt"/><path d="M206.99089,181.35747c0,-2.53296 0,-8.29532 0,-9.61436c0,-0.5268 0.38442,-1.03459 0.93279,-1.03459c1.08049,0 2.79751,0 3.46467,0c0.52524,0 1.19931,0.46156 1.19931,0.95098c0,1.32987 0,7.54639 0,9.94878c0,0.59085 -0.44771,0.95098 -1.06605,0.95098c-1.08356,0 -2.69107,0 -3.33141,0c-0.52524,0 -1.19931,-0.46384 -1.19931,-1.20179z" fill="#30f1d5" stroke="none" stroke-width="0" stroke-linecap="butt"/><g><path d="M195.20375,181.76427c0,-2.56921 0,-8.41404 0,-9.75196c0,-0.53434 0.25628,-1.0494 0.62186,-1.0494c0.72033,0 1.86501,0 2.30978,0c0.35016,0 0.79954,0.46817 0.79954,0.9646c0,1.34891 0,7.65439 0,10.09115c0,0.5993 -0.29848,0.9646 -0.7107,0.9646c-0.72237,0 -1.79404,0 -2.22094,0c-0.35016,0 -0.79954,-0.47048 -0.79954,-1.21899z" fill="#30f1d5" stroke="none" stroke-width="0" stroke-linecap="butt"/><path d="M199.78293,181.76427c0,-2.56921 0,-8.41404 0,-9.75196c0,-0.53434 0.25628,-1.0494 0.62186,-1.0494c0.72033,0 1.86501,0 2.30978,0c0.35016,0 0.79954,0.46817 0.79954,0.9646c0,1.34891 0,7.65439 0,10.09115c0,0.5993 -0.29848,0.9646 -0.7107,0.9646c-0.72237,0 -1.79404,0 -2.22094,0c-0.35016,0 -0.79954,-0.47048 -0.79954,-1.21899z" fill="#30f1d5" stroke="none" stroke-width="0" stroke-linecap="butt"/><path d="M199.38247,170.48592v20.35191" fill="none" stroke="#000000" stroke-width="0.5" stroke-linecap="round"/><path d="M194.65255,191.00742v-20.60631h9.32796v20.60631z" fill="none" stroke="#000000" stroke-width="0.5" stroke-linecap="round"/></g><g><path d="M216.23405,181.84907c0,-2.56921 0,-8.41404 0,-9.75196c0,-0.53434 0.25628,-1.0494 0.62186,-1.0494c0.72033,0 1.86501,0 2.30978,0c0.35016,0 0.79954,0.46817 0.79954,0.9646c0,1.34891 0,7.65439 0,10.09115c0,0.5993 -0.29848,0.9646 -0.7107,0.9646c-0.72237,0 -1.79404,0 -2.22094,0c-0.35016,0 -0.79954,-0.47048 -0.79954,-1.21899z" fill="#30f1d5" stroke="none" stroke-width="0" stroke-linecap="butt"/><path d="M220.81323,181.84907c0,-2.56921 0,-8.41404 0,-9.75196c0,-0.53434 0.25628,-1.0494 0.62186,-1.0494c0.72033,0 1.86501,0 2.30978,0c0.35016,0 0.79954,0.46817 0.79954,0.9646c0,1.34891 0,7.65439 0,10.09115c0,0.5993 -0.29848,0.9646 -0.7107,0.9646c-0.72237,0 -1.79404,0 -2.22094,0c-0.35016,0 -0.79954,-0.47048 -0.79954,-1.21899z" fill="#30f1d5" stroke="none" stroke-width="0" stroke-linecap="butt"/><path d="M220.41277,170.57073v20.35191" fill="none" stroke="#000000" stroke-width="0.5" stroke-linecap="round"/><path d="M215.68285,191.09223v-20.60631h9.32796v20.60631z" fill="none" stroke="#000000" stroke-width="0.5" stroke-linecap="round"/></g><path d="M228.3604,181.35747c0,-2.53296 0,-8.29532 0,-9.61436c0,-0.5268 0.38442,-1.03459 0.93279,-1.03459c1.08049,0 2.79751,0 3.46467,0c0.52524,0 1.19931,0.46156 1.19931,0.95098c0,1.32987 0,7.54639 0,9.94878c0,0.59085 -0.44771,0.95098 -1.06605,0.95098c-1.08356,0 -2.69107,0 -3.33141,0c-0.52524,0 -1.19931,-0.46384 -1.19931,-1.20179z" fill="#30f1d5" stroke="none" stroke-width="0" stroke-linecap="butt"/><g><path d="M237.94276,181.93388c0,-2.56921 0,-8.41404 0,-9.75196c0,-0.53434 0.25628,-1.0494 0.62186,-1.0494c0.72033,0 1.86501,0 2.30978,0c0.35016,0 0.79954,0.46817 0.79954,0.9646c0,1.34891 0,7.65439 0,10.09115c0,0.5993 -0.29848,0.9646 -0.7107,0.9646c-0.72237,0 -1.79404,0 -2.22094,0c-0.35016,0 -0.79954,-0.47048 -0.79954,-1.21899z" fill="#30f1d5" stroke="none" stroke-width="0" stroke-linecap="butt"/><path d="M242.52193,181.93388c0,-2.56921 0,-8.41404 0,-9.75196c0,-0.53434 0.25628,-1.0494 0.62186,-1.0494c0.72033,0 1.86501,0 2.30978,0c0.35016,0 0.79954,0.46817 0.79954,0.9646c0,1.34891 0,7.65439 0,10.09115c0,0.5993 -0.29848,0.9646 -0.7107,0.9646c-0.72237,0 -1.79404,0 -2.22094,0c-0.35016,0 -0.79954,-0.47048 -0.79954,-1.21899z" fill="#30f1d5" stroke="none" stroke-width="0" stroke-linecap="butt"/><path d="M242.12148,170.65552v20.35191" fill="none" stroke="#000000" stroke-width="0.5" stroke-linecap="round"/><path d="M237.39155,191.17702v-20.60631h9.32796v20.60631z" fill="none" stroke="#000000" stroke-width="0.5" stroke-linecap="round"/></g><path d="M250.3235,181.52707c0,-2.53296 0,-8.29532 0,-9.61436c0,-0.5268 0.38442,-1.03459 0.93279,-1.03459c1.08049,0 2.79751,0 3.46467,0c0.52524,0 1.19931,0.46156 1.19931,0.95098c0,1.32987 0,7.54639 0,9.94878c0,0.59085 -0.44771,0.95098 -1.06605,0.95098c-1.08356,0 -2.69107,0 -3.33141,0c-0.52524,0 -1.19931,-0.46384 -1.19931,-1.20179z" fill="#30f1d5" stroke="none" stroke-width="0" stroke-linecap="butt"/><g><path d="M259.90585,182.18827c0,-2.56921 0,-8.41404 0,-9.75196c0,-0.53434 0.25628,-1.0494 0.62186,-1.0494c0.72033,0 1.86501,0 2.30978,0c0.35016,0 0.79954,0.46817 0.79954,0.9646c0,1.34891 0,7.65439 0,10.09115c0,0.5993 -0.29848,0.9646 -0.7107,0.9646c-0.72237,0 -1.79404,0 -2.22094,0c-0.35016,0 -0.79954,-0.47048 -0.79954,-1.21899z" fill="#30f1d5" stroke="none" stroke-width="0" stroke-linecap="butt"/><path d="M264.48503,182.18827c0,-2.56921 0,-8.41404 0,-9.75196c0,-0.53434 0.25628,-1.0494 0.62186,-1.0494c0.72033,0 1.86501,0 2.30978,0c0.35016,0 0.79954,0.46817 0.79954,0.9646c0,1.34891 0,7.65439 0,10.09115c0,0.5993 -0.29848,0.9646 -0.7107,0.9646c-0.72237,0 -1.79404,0 -2.22094,0c-0.35016,0 -0.79954,-0.47048 -0.79954,-1.21899z" fill="#30f1d5" stroke="none" stroke-width="0" stroke-linecap="butt"/><path d="M264.08457,170.90992v20.35191" fill="none" stroke="#000000" stroke-width="0.5" stroke-linecap="round"/><path d="M259.35465,191.43143v-20.60631h9.32796v20.60631z" fill="none" stroke="#000000" stroke-width="0.5" stroke-linecap="round"/></g><path d="M271.6082,181.61186c0,-2.53296 0,-8.29532 0,-9.61436c0,-0.5268 0.38442,-1.03459 0.93279,-1.03459c1.08049,0 2.79751,0 3.46467,0c0.52524,0 1.19931,0.46156 1.19931,0.95098c0,1.32987 0,7.54639 0,9.94878c0,0.59085 -0.44771,0.95098 -1.06605,0.95098c-1.08356,0 -2.69107,0 -3.33141,0c-0.52524,0 -1.19931,-0.46384 -1.19931,-1.20179z" fill="#30f1d5" stroke="none" stroke-width="0" stroke-linecap="butt"/><path d="M204.12184,187.08545v-3.36372h11.41968v3.36372z" fill="#ff2121" stroke="none" stroke-width="0" stroke-linecap="butt"/><path d="M225.15214,186.91585v-3.36372h12.09808v3.36372z" fill="#ff2121" stroke="none" stroke-width="0" stroke-linecap="butt"/><path d="M246.86085,186.83106v-3.36372h12.26768v3.36372z" fill="#ff2121" stroke="none" stroke-width="0" stroke-linecap="butt"/><g><path d="M280.59696,182.27307c0,-2.56921 0,-8.41404 0,-9.75196c0,-0.53434 0.25628,-1.0494 0.62186,-1.0494c0.72033,0 1.86501,0 2.30978,0c0.35016,0 0.79954,0.46817 0.79954,0.9646c0,1.34891 0,7.65439 0,10.09115c0,0.5993 -0.29848,0.9646 -0.7107,0.9646c-0.72237,0 -1.79404,0 -2.22094,0c-0.35016,0 -0.79954,-0.47048 -0.79954,-1.21899z" fill="#30f1d5" stroke="none" stroke-width="0" stroke-linecap="butt"/><path d="M285.17614,182.27307c0,-2.56921 0,-8.41404 0,-9.75196c0,-0.53434 0.25628,-1.0494 0.62186,-1.0494c0.72033,0 1.86501,0 2.30978,0c0.35016,0 0.79954,0.46817 0.79954,0.9646c0,1.34891 0,7.65439 0,10.09115c0,0.5993 -0.29848,0.9646 -0.7107,0.9646c-0.72237,0 -1.79404,0 -2.22094,0c-0.35016,0 -0.79954,-0.47048 -0.79954,-1.21899z" fill="#30f1d5" stroke="none" stroke-width="0" stroke-linecap="butt"/><path d="M284.77568,170.99471v20.35191" fill="none" stroke="#000000" stroke-width="0.5" stroke-linecap="round"/><path d="M280.04576,191.51622v-20.60631h9.32796v20.60631z" fill="none" stroke="#000000" stroke-width="0.5" stroke-linecap="round"/></g><path d="M268.82395,187.00065v-3.36372h11.08049v3.36372z" fill="#ff2121" stroke="none" stroke-width="0" stroke-linecap="butt"/><path d="M289.51506,186.83106v-3.36372h4.04212v3.36372z" fill="#ff2121" stroke="none" stroke-width="0" stroke-linecap="butt"/><path d="M184.45539,194.85238v-1.78079h16.12606v1.78079z" fill="#323232" stroke="none" stroke-width="0" stroke-linecap="butt"/><path d="M189.48503,194.82271c0,0.87423 -0.753,1.58293 -1.68186,1.58293c-0.92886,0 -1.68186,-0.7087 -1.68186,-1.58293c0,-0.87423 0.75299,-1.58293 1.68186,-1.58293c0.92886,0 1.68186,0.7087 1.68186,1.58293z" fill="#323232" stroke="none" stroke-width="0" stroke-linecap="butt"/><path d="M198.78472,194.92164c0,0.87423 -0.753,1.58293 -1.68186,1.58293c-0.92886,0 -1.68186,-0.7087 -1.68186,-1.58293c0,-0.87423 0.75299,-1.58293 1.68186,-1.58293c0.92886,0 1.68186,0.7087 1.68186,1.58293z" fill="#323232" stroke="none" stroke-width="0" stroke-linecap="butt"/><path d="M207.16049,195.44598v-1.78079h31.26279v1.78079c0,0 -6.03742,0 -12.08575,0c-3.95275,0 -7.91016,0 -10.19009,0c-3.66403,0 -8.98695,0 -8.98695,0z" fill="#323232" stroke="none" stroke-width="0" stroke-linecap="butt"/><path d="M216.54318,196.20777l-2.27546,-1.38506l18.50045,-0.09893l-1.48399,1.48399z" fill="#323232" stroke="none" stroke-width="0" stroke-linecap="butt"/><path d="M246.43685,195.05026v-1.78079h16.12606v1.78079z" fill="#323232" stroke="none" stroke-width="0" stroke-linecap="butt"/><path d="M251.46649,195.02057c0,0.87423 -0.753,1.58293 -1.68186,1.58293c-0.92886,0 -1.68186,-0.7087 -1.68186,-1.58293c0,-0.87423 0.75299,-1.58293 1.68186,-1.58293c0.92886,0 1.68186,0.7087 1.68186,1.58293z" fill="#323232" stroke="none" stroke-width="0" stroke-linecap="butt"/><path d="M260.76618,195.11951c0,0.87423 -0.753,1.58293 -1.68186,1.58293c-0.92886,0 -1.68186,-0.7087 -1.68186,-1.58293c0,-0.87423 0.75299,-1.58293 1.68186,-1.58293c0.92886,0 1.68186,0.7087 1.68186,1.58293z" fill="#323232" stroke="none" stroke-width="0" stroke-linecap="butt"/><path d="M266.81702,195.05026v-1.78079h22.5567v1.78079c0,0 -4.35612,0 -8.7201,0c-2.85198,0 -5.70733,0 -7.35234,0c-2.64367,0 -6.48426,0 -6.48426,0z" fill="#323232" stroke="none" stroke-width="0" stroke-linecap="butt"/><path d="M271.68848,195.81204l-2.11727,-1.38506l17.21432,-0.09893l-1.38083,1.48399z" fill="#323232" stroke="none" stroke-width="0" stroke-linecap="butt"/></g><g><path d="M412.22392,192.04088c-0.04973,0.78198 -0.53595,1.36353 -1.14234,1.38388c-11.09008,0.37216 -114.63116,0.97174 -114.93899,0.35743c-0.20959,-0.41825 -0.31769,-23.03609 -0.31769,-25.47351c0,-0.6878 1.14633,-1.40979 2.44149,-1.40979c14.67235,0 104.37741,0.11872 111.71478,0.11872c0.92794,0 2.44321,1.51013 2.44321,2.27051c0,2.25301 0.09988,18.03013 -0.20045,22.75276z" fill="#cccccc" stroke="#000000" stroke-width="0" stroke-linecap="butt"/><path d="M394.80017,187.17025v-3.36372h17.52526v3.36372z" fill="#ff2121" stroke="none" stroke-width="0" stroke-linecap="butt"/><path d="M408.65684,182.64407c-0.4269,0 -1.49857,0 -2.22094,0c-0.41222,0 -0.7107,-0.36529 -0.7107,-0.9646c0,-2.43677 0,-8.74225 0,-10.09115c0,-0.49643 0.44938,-0.9646 0.79954,-0.9646c0.44477,0 1.58945,0 2.30978,0c0.36558,0 0.62186,0.51506 0.62186,1.0494c0,1.33791 0,7.18274 0,9.75196c0,0.74851 -0.44938,1.21899 -0.79954,1.21899z" fill="#30f1d5" stroke="none" stroke-width="0" stroke-linecap="butt"/><path d="M295.83902,169.80753v-1.73133l115.7741,0.11872l0.71232,1.61261z" fill="#ff2121" stroke="none" stroke-width="0" stroke-linecap="butt"/><path d="M401.98189,182.47447c-0.64035,0 -2.24786,0 -3.33141,0c-0.61834,0 -1.06605,-0.36014 -1.06605,-0.95098c0,-2.40239 0,-8.6189 0,-9.94878c0,-0.48942 0.67407,-0.95098 1.19931,-0.95098c0.66716,0 2.38418,0 3.46467,0c0.54838,0 0.93279,0.50779 0.93279,1.03459c0,1.31904 0,7.0814 0,9.61436c0,0.73795 -0.67407,1.20179 -1.19931,1.20179z" fill="#30f1d5" stroke="none" stroke-width="0" stroke-linecap="butt"/><path d="M381.12119,182.55927c-0.64035,0 -2.24786,0 -3.33141,0c-0.61834,0 -1.06605,-0.36014 -1.06605,-0.95098c0,-2.40239 0,-8.6189 0,-9.94878c0,-0.48942 0.67407,-0.95098 1.19931,-0.95098c0.66716,0 2.38418,0 3.46467,0c0.54838,0 0.93279,0.50779 0.93279,1.03459c0,1.31904 0,7.0814 0,9.61436c0,0.73795 -0.67407,1.20179 -1.19931,1.20179z" fill="#30f1d5" stroke="none" stroke-width="0" stroke-linecap="butt"/><path d="M393.3081,182.98326c-0.4269,0 -1.49857,0 -2.22094,0c-0.41222,0 -0.7107,-0.36529 -0.7107,-0.9646c0,-2.43677 0,-8.74225 0,-10.09115c0,-0.49643 0.44938,-0.9646 0.79954,-0.9646c0.44477,0 1.58945,0 2.30978,0c0.36558,0 0.62186,0.51506 0.62186,1.0494c0,1.33791 0,7.18274 0,9.75196c0,0.74851 -0.44938,1.21899 -0.79954,1.21899z" fill="#30f1d5" stroke="none" stroke-width="0" stroke-linecap="butt"/><path d="M388.72892,182.98326c-0.4269,0 -1.49857,0 -2.22094,0c-0.41222,0 -0.7107,-0.36529 -0.7107,-0.9646c0,-2.43677 0,-8.74225 0,-10.09115c0,-0.49643 0.44938,-0.9646 0.79954,-0.9646c0.44477,0 1.58945,0 2.30978,0c0.36558,0 0.62186,0.51506 0.62186,1.0494c0,1.33791 0,7.18274 0,9.75196c0,0.74851 -0.44938,1.21899 -0.79954,1.21899z" fill="#30f1d5" stroke="none" stroke-width="0" stroke-linecap="butt"/><path d="M389.92892,170.48591v20.35191" fill="none" stroke="#000000" stroke-width="0.5" stroke-linecap="round"/><path d="M385.33089,191.00742v-20.60631h9.32796v20.60631z" fill="none" stroke="#000000" stroke-width="0.5" stroke-linecap="round"/><path d="M372.2778,183.06806c-0.4269,0 -1.49857,0 -2.22094,0c-0.41222,0 -0.7107,-0.36529 -0.7107,-0.9646c0,-2.43677 0,-8.74225 0,-10.09115c0,-0.49643 0.44938,-0.9646 0.79954,-0.9646c0.44477,0 1.58945,0 2.30978,0c0.36558,0 0.62186,0.51506 0.62186,1.0494c0,1.33791 0,7.18274 0,9.75196c0,0.74851 -0.44938,1.21899 -0.79954,1.21899z" fill="#30f1d5" stroke="none" stroke-width="0" stroke-linecap="butt"/><path d="M367.69862,183.06806c-0.4269,0 -1.49857,0 -2.22094,0c-0.41222,0 -0.7107,-0.36529 -0.7107,-0.9646c0,-2.43677 0,-8.74225 0,-10.09115c0,-0.49643 0.44938,-0.9646 0.79954,-0.9646c0.44477,0 1.58945,0 2.30978,0c0.36558,0 0.62186,0.51506 0.62186,1.0494c0,1.33791 0,7.18274 0,9.75196c0,0.74851 -0.44938,1.21899 -0.79954,1.21899z" fill="#30f1d5" stroke="none" stroke-width="0" stroke-linecap="butt"/><path d="M368.89862,190.92263v-20.35191" fill="none" stroke="#000000" stroke-width="0.5" stroke-linecap="round"/><path d="M364.30058,191.09223v-20.60631h9.32796v20.60631z" fill="none" stroke="#000000" stroke-width="0.5" stroke-linecap="round"/><path d="M359.75168,182.55927c-0.64035,0 -2.24786,0 -3.33141,0c-0.61834,0 -1.06605,-0.36014 -1.06605,-0.95098c0,-2.40239 0,-8.6189 0,-9.94878c0,-0.48942 0.67407,-0.95098 1.19931,-0.95098c0.66716,0 2.38418,0 3.46467,0c0.54838,0 0.93279,0.50779 0.93279,1.03459c0,1.31904 0,7.0814 0,9.61436c0,0.73795 -0.67407,1.20179 -1.19931,1.20179z" fill="#30f1d5" stroke="none" stroke-width="0" stroke-linecap="butt"/><path d="M350.5691,183.15286c-0.4269,0 -1.49857,0 -2.22094,0c-0.41222,0 -0.7107,-0.36529 -0.7107,-0.9646c0,-2.43677 0,-8.74225 0,-10.09115c0,-0.49643 0.44938,-0.9646 0.79954,-0.9646c0.44477,0 1.58945,0 2.30978,0c0.36558,0 0.62186,0.51506 0.62186,1.0494c0,1.33791 0,7.18274 0,9.75196c0,0.74851 -0.44938,1.21899 -0.79954,1.21899z" fill="#30f1d5" stroke="none" stroke-width="0" stroke-linecap="butt"/><path d="M345.98992,183.15286c-0.4269,0 -1.49857,0 -2.22094,0c-0.41222,0 -0.7107,-0.36529 -0.7107,-0.9646c0,-2.43677 0,-8.74225 0,-10.09115c0,-0.49643 0.44938,-0.9646 0.79954,-0.9646c0.44477,0 1.58945,0 2.30978,0c0.36558,0 0.62186,0.51506 0.62186,1.0494c0,1.33791 0,7.18274 0,9.75196c0,0.74851 -0.44938,1.21899 -0.79954,1.21899z" fill="#30f1d5" stroke="none" stroke-width="0" stroke-linecap="butt"/><path d="M347.18991,191.00743v-20.35191" fill="none" stroke="#000000" stroke-width="0.5" stroke-linecap="round"/><path d="M342.59188,191.17702v-20.60631h9.32796v20.60631z" fill="none" stroke="#000000" stroke-width="0.5" stroke-linecap="round"/><path d="M337.78858,182.72886c-0.64035,0 -2.24786,0 -3.33141,0c-0.61834,0 -1.06605,-0.36014 -1.06605,-0.95098c0,-2.40239 0,-8.6189 0,-9.94878c0,-0.48942 0.67407,-0.95098 1.19931,-0.95098c0.66716,0 2.38418,0 3.46467,0c0.54838,0 0.93279,0.50779 0.93279,1.03459c0,1.31904 0,7.0814 0,9.61436c0,0.73795 -0.67407,1.20179 -1.19931,1.20179z" fill="#30f1d5" stroke="none" stroke-width="0" stroke-linecap="butt"/><path d="M328.606,183.40727c-0.4269,0 -1.49857,0 -2.22094,0c-0.41222,0 -0.7107,-0.36529 -0.7107,-0.9646c0,-2.43677 0,-8.74225 0,-10.09115c0,-0.49643 0.44938,-0.9646 0.79954,-0.9646c0.44477,0 1.58945,0 2.30978,0c0.36558,0 0.62186,0.51506 0.62186,1.0494c0,1.33791 0,7.18274 0,9.75196c0,0.74851 -0.44938,1.21899 -0.79954,1.21899z" fill="#30f1d5" stroke="none" stroke-width="0" stroke-linecap="butt"/><path d="M324.02682,183.40727c-0.4269,0 -1.49857,0 -2.22094,0c-0.41222,0 -0.7107,-0.36529 -0.7107,-0.9646c0,-2.43677 0,-8.74225 0,-10.09115c0,-0.49643 0.44938,-0.9646 0.79954,-0.9646c0.44477,0 1.58945,0 2.30978,0c0.36558,0 0.62186,0.51506 0.62186,1.0494c0,1.33791 0,7.18274 0,9.75196c0,0.74851 -0.44938,1.21899 -0.79954,1.21899z" fill="#30f1d5" stroke="none" stroke-width="0" stroke-linecap="butt"/><path d="M325.22682,191.26183v-20.35191" fill="none" stroke="#000000" stroke-width="0.5" stroke-linecap="round"/><path d="M320.62878,191.43143v-20.60631h9.32796v20.60631z" fill="none" stroke="#000000" stroke-width="0.5" stroke-linecap="round"/><path d="M316.50388,182.81366c-0.64035,0 -2.24786,0 -3.33141,0c-0.61834,0 -1.06605,-0.36014 -1.06605,-0.95098c0,-2.40239 0,-8.6189 0,-9.94878c0,-0.48942 0.67407,-0.95098 1.19931,-0.95098c0.66716,0 2.38418,0 3.46467,0c0.54838,0 0.93279,0.50779 0.93279,1.03459c0,1.31904 0,7.0814 0,9.61436c0,0.73795 -0.67407,1.20179 -1.19931,1.20179z" fill="#30f1d5" stroke="none" stroke-width="0" stroke-linecap="butt"/><path d="M373.76987,187.08546v-3.36372h11.41968v3.36372z" fill="#ff2121" stroke="none" stroke-width="0" stroke-linecap="butt"/><path d="M352.06116,186.91586v-3.36372h12.09808v3.36372z" fill="#ff2121" stroke="none" stroke-width="0" stroke-linecap="butt"/><path d="M330.18286,186.83105v-3.36372h12.26768v3.36372z" fill="#ff2121" stroke="none" stroke-width="0" stroke-linecap="butt"/><path d="M307.91489,183.49207c-0.4269,0 -1.49857,0 -2.22094,0c-0.41222,0 -0.7107,-0.36529 -0.7107,-0.9646c0,-2.43677 0,-8.74225 0,-10.09115c0,-0.49643 0.44938,-0.9646 0.79954,-0.9646c0.44477,0 1.58945,0 2.30978,0c0.36558,0 0.62186,0.51506 0.62186,1.0494c0,1.33791 0,7.18274 0,9.75196c0,0.74851 -0.44938,1.21899 -0.79954,1.21899z" fill="#30f1d5" stroke="none" stroke-width="0" stroke-linecap="butt"/><path d="M303.33571,183.49207c-0.4269,0 -1.49857,0 -2.22094,0c-0.41222,0 -0.7107,-0.36529 -0.7107,-0.9646c0,-2.43677 0,-8.74225 0,-10.09115c0,-0.49643 0.44938,-0.9646 0.79954,-0.9646c0.44477,0 1.58945,0 2.30978,0c0.36558,0 0.62186,0.51506 0.62186,1.0494c0,1.33791 0,7.18274 0,9.75196c0,0.74851 -0.44938,1.21899 -0.79954,1.21899z" fill="#30f1d5" stroke="none" stroke-width="0" stroke-linecap="butt"/><path d="M304.53571,170.99471v20.35191" fill="none" stroke="#000000" stroke-width="0.5" stroke-linecap="round"/><path d="M299.93767,191.51622v-20.60631h9.32796v20.60631z" fill="none" stroke="#000000" stroke-width="0.5" stroke-linecap="round"/><path d="M309.40696,187.00066v-3.36372h11.08049v3.36372z" fill="#ff2121" stroke="none" stroke-width="0" stroke-linecap="butt"/><path d="M295.68002,186.90526v-3.36372h4.04212v3.36372z" fill="#ff2121" stroke="none" stroke-width="0" stroke-linecap="butt"/><path d="M391.84632,194.85239v-1.78079h16.12606v1.78079z" fill="#323232" stroke="none" stroke-width="0" stroke-linecap="butt"/><path d="M404.6246,193.23977c0.92886,0 1.68186,0.7087 1.68186,1.58293c0,0.87423 -0.75299,1.58293 -1.68186,1.58293c-0.92886,0 -1.68186,-0.7087 -1.68186,-1.58293c0,-0.87423 0.753,-1.58293 1.68186,-1.58293z" fill="#323232" stroke="none" stroke-width="0" stroke-linecap="butt"/><path d="M395.32491,193.33872c0.92886,0 1.68186,0.7087 1.68186,1.58293c0,0.87423 -0.75299,1.58293 -1.68186,1.58293c-0.92886,0 -1.68186,-0.7087 -1.68186,-1.58293c0,-0.87423 0.753,-1.58293 1.68186,-1.58293z" fill="#323232" stroke="none" stroke-width="0" stroke-linecap="butt"/><path d="M373.16394,195.44598c-2.27993,0 -6.23734,0 -10.19009,0c-6.04833,0 -12.08575,0 -12.08575,0v-1.78079h31.26279v1.78079c0,0 -5.32293,0 -8.98695,0z" fill="#323232" stroke="none" stroke-width="0" stroke-linecap="butt"/><path d="M358.02721,196.20777l-1.48399,-1.48399l18.50045,0.09893l-2.27546,1.38506z" fill="#323232" stroke="none" stroke-width="0" stroke-linecap="butt"/><path d="M326.74848,195.05026v-1.78079h16.12606v1.78079z" fill="#323232" stroke="none" stroke-width="0" stroke-linecap="butt"/><path d="M339.52676,193.43765c0.92886,0 1.68186,0.7087 1.68186,1.58293c0,0.87423 -0.75299,1.58293 -1.68186,1.58293c-0.92886,0 -1.68186,-0.7087 -1.68186,-1.58293c0,-0.87423 0.753,-1.58293 1.68186,-1.58293z" fill="#323232" stroke="none" stroke-width="0" stroke-linecap="butt"/><path d="M330.22707,193.53658c0.92886,0 1.68186,0.7087 1.68186,1.58293c0,0.87423 -0.75299,1.58293 -1.68186,1.58293c-0.92886,0 -1.68186,-0.7087 -1.68186,-1.58293c0,-0.87423 0.753,-1.58293 1.68186,-1.58293z" fill="#323232" stroke="none" stroke-width="0" stroke-linecap="butt"/><path d="M316.01011,195.05026c-1.64502,0 -4.50036,0 -7.35234,0c-4.36398,0 -8.7201,0 -8.7201,0v-1.78079h22.5567v1.78079c0,0 -3.84059,0 -6.48426,0z" fill="#323232" stroke="none" stroke-width="0" stroke-linecap="butt"/><path d="M303.90669,195.81204l-1.38083,-1.48399l17.21432,0.09893l-2.11727,1.38506z" fill="#323232" stroke="none" stroke-width="0" stroke-linecap="butt"/></g><g fill="#cccccc" stroke="none" stroke-width="0" stroke-linecap="butt"><path d="M84.08924,167.33092l2.14285,-1.83334l17.71428,0.07143l2.64286,1.76191z"/><path d="M137.80353,167.04521l2.14285,-1.83333l17.71429,0.07143l2.64286,1.7619z"/></g><path d="M194.82994,166.93092l2.14285,-1.83334l17.71429,0.07143l2.64286,1.76191z" fill="#cccccc" stroke="none" stroke-width="0" stroke-linecap="butt"/><path d="M248.54423,167.0202l2.14285,-1.83333l17.71429,0.07143l2.64286,1.7619z" fill="#cccccc" stroke="none" stroke-width="0" stroke-linecap="butt"/><path d="M310.00394,166.94576l2.14285,-1.83334l17.71428,0.07143l2.64286,1.7619z" fill="#cccccc" stroke="none" stroke-width="0" stroke-linecap="butt"/><path d="M363.71823,167.03505l2.14285,-1.83334l17.71429,0.07143l2.64286,1.76191z" fill="#cccccc" stroke="none" stroke-width="0" stroke-linecap="butt"/><path d="M-123.7787,218.82261v-72.79411h721.24996v72.79411z" fill="none" stroke="none" stroke-width="0" stroke-linecap="butt"/></g></g></svg>