<svg version="1.1" xmlns="http://www.w3.org/2000/svg" xmlns:xlink="http://www.w3.org/1999/xlink" width="493.51309" height="213.10369" viewBox="0,0,493.51309,213.10369"><g transform="translate(20,0)"><g stroke-miterlimit="10"><path d="M146.4045,154.69078v11.05252c0,3.45524 -2.80935,6.26579 -6.267,6.26579h-121.77883c-3.45403,0 -6.26579,-2.81055 -6.26579,-6.26579v-11.05373c0,-3.45524 2.81176,-6.26579 6.26579,-6.26579h121.77883c3.45766,0 6.267,2.81176 6.267,6.267z" fill-opacity="0.30196" fill="#ffffff" stroke="none" stroke-width="1" stroke-linejoin="miter"/><path d="M-20,4v-4h20v4z" fill="none" stroke="none" stroke-width="0" stroke-linejoin="miter"/><path d="M161.55661,210.60369v-170.14498h308.94282v170.14498z" fill="#4d4d4d" stroke="#4d4d4d" stroke-width="5" stroke-linejoin="round"/><text transform="translate(172.89321,66.83863) scale(0.41787,0.41787)" font-size="40" xml:space="preserve" fill="#ffffff" stroke="#ffffff" stroke-width="1" stroke-linejoin="miter" font-family="Sans Serif" font-weight="normal" text-anchor="start"><tspan x="0" dy="0">データ</tspan></text><text transform="translate(172.89321,84.25687) scale(0.34455,0.34455)" font-size="40" xml:space="preserve" fill="#bfbfbf" stroke="none" stroke-width="1" stroke-linejoin="miter" font-family="Sans Serif" font-weight="normal" text-anchor="start"><tspan x="0" dy="0">オブジェクトプールの参考：@yossansan</tspan><tspan x="0" dy="48px">コマンドの参考：@wood_sword</tspan><tspan x="0" dy="48px">電車のイラスト：@qqqgggg</tspan><tspan x="0" dy="48px">効果音：効果音ラボ</tspan></text><text transform="translate(172.89321,161.17585) scale(0.41787,0.41787)" font-size="40" xml:space="preserve" fill="#ffffff" stroke="#ffffff" stroke-width="1" stroke-linejoin="miter" font-family="Sans Serif" font-weight="normal" text-anchor="start"><tspan x="0" dy="0">サーバー</tspan></text><text transform="translate(172.89321,178.59409) scale(0.34455,0.34455)" font-size="40" xml:space="preserve" fill="#bfbfbf" stroke="none" stroke-width="1" stroke-linejoin="miter" font-family="Sans Serif" font-weight="normal" text-anchor="start"><tspan x="0" dy="0">データベース：ScPay,@Masaabu-YT,@Fun_117</tspan><tspan x="0" dy="48px">@ScraKit：@Masaabu-YT</tspan></text></g></g></svg>