<svg version="1.1" xmlns="http://www.w3.org/2000/svg" xmlns:xlink="http://www.w3.org/1999/xlink" width="108.5" height="61.5" viewBox="0,0,108.5,61.5"><defs><linearGradient x1="230.905" y1="155.40185" x2="230.905" y2="172.41004" gradientUnits="userSpaceOnUse" id="color-1"><stop offset="0" stop-color="#514d4a"/><stop offset="1" stop-color="#847f7a"/></linearGradient><linearGradient x1="204.905" y1="172.45996" x2="204.905" y2="189.46815" gradientUnits="userSpaceOnUse" id="color-2"><stop offset="0" stop-color="#9d958d"/><stop offset="1" stop-color="#b4aaa2"/></linearGradient><linearGradient x1="217.905" y1="170.805" x2="217.905" y2="186.075" gradientUnits="userSpaceOnUse" id="color-3"><stop offset="0" stop-color="#666666" stop-opacity="0"/><stop offset="1" stop-color="#666666"/></linearGradient></defs><g transform="translate(-185.905,-149.125)"><g stroke-miterlimit="10"><path d="M290.655,152.875v54h-101v-54z" fill="#333333" stroke="#333333" stroke-width="7.5" stroke-linecap="butt" stroke-linejoin="round"/><g><path d="M190.905,190.435v-36h54v36z" fill="#cdbeb2" stroke="#666666" stroke-width="2" stroke-linecap="butt" stroke-linejoin="round"/><path d="M243.905,155.40185v17.00819h-26v-17.00819z" fill="url(#color-1)" stroke="none" stroke-width="0" stroke-linecap="butt" stroke-linejoin="miter"/><path d="M191.905,189.46815v-17.00819h26v17.00819z" fill="url(#color-2)" stroke="none" stroke-width="0" stroke-linecap="butt" stroke-linejoin="miter"/><path d="M192.89183,172.41004h25.01317" fill="none" stroke="#717171" stroke-width="2" stroke-linecap="round" stroke-linejoin="miter"/><path d="M217.905,176.34901h-25.01317" fill="none" stroke="#717171" stroke-width="2" stroke-linecap="round" stroke-linejoin="miter"/><path d="M217.905,180.28798h-25.01317" fill="none" stroke="#717171" stroke-width="2" stroke-linecap="round" stroke-linejoin="miter"/><path d="M217.905,184.22696h-25.01317" fill="none" stroke="#717171" stroke-width="2" stroke-linecap="round" stroke-linejoin="miter"/><path d="M217.905,154.93091v35.00819" fill="none" stroke="#666666" stroke-width="2" stroke-linecap="round" stroke-linejoin="miter"/></g><path d="M190.905,190.435v-19.62h54v19.62z" fill="url(#color-3)" stroke="none" stroke-width="1" stroke-linecap="butt" stroke-linejoin="miter"/><text transform="translate(201.265,201.895) scale(0.23,0.23)" font-size="40" xml:space="preserve" fill="#ffffff" stroke="none" stroke-width="1" stroke-linecap="butt" stroke-linejoin="miter" font-family="Sans Serif" font-weight="400" text-anchor="start"><tspan x="0" dy="0">1,500G</tspan></text><text transform="translate(259.725,161.015) scale(0.23,0.23)" font-size="40" xml:space="preserve" fill="#eeeeee" stroke="none" stroke-width="1" stroke-linecap="butt" stroke-linejoin="miter" font-family="Sans Serif" font-weight="400" text-anchor="start"><tspan x="0" dy="0">100G</tspan></text><text transform="translate(191.905,186.975) scale(0.21,0.21)" font-size="40" xml:space="preserve" fill="#ffffff" stroke="none" stroke-width="1" stroke-linecap="butt" stroke-linejoin="miter" font-family="Sans Serif" font-weight="400" text-anchor="start"><tspan x="0" dy="0">階段</tspan></text><path d="M191.855,200.155l-0.95,-2.39l5.74,-2.29l0.95,2.39zM255.835,159.085l-0.04,3.17l-0.94,-0.33l-0.55,-1.77l-1.56,1.03l-3.15,-1.11l1.97,-2.49z" fill="#ffffff" stroke="#ffffff" stroke-width="1.25" stroke-linecap="butt" stroke-linejoin="round"/><path d="M194.725,199.015l1.55,3.88M255.115,154.335l-1.41,3.99" fill="none" stroke="#ffffff" stroke-width="1.25" stroke-linecap="round" stroke-linejoin="miter"/></g></g></svg>