<svg version="1.1" xmlns="http://www.w3.org/2000/svg" xmlns:xlink="http://www.w3.org/1999/xlink" width="56" height="38" viewBox="0,0,56,38"><g transform="translate(-212,-161)"><g stroke-miterlimit="10"><path d="M228,187.08564v-14h24v14z" fill-opacity="0.70196" fill="#a3cccc" stroke="#666666" stroke-width="2" stroke-linecap="butt" stroke-linejoin="round"/><path d="M247.82622,187l-4.42147,-14h3.21386l4.42146,14z" fill-opacity="0.40392" fill="#cccccc" stroke="none" stroke-width="0" stroke-linecap="butt" stroke-linejoin="miter"/><path d="M244.42147,187.08564l-4.42147,-14h1.78852l4.42146,14z" fill-opacity="0.40392" fill="#cccccc" stroke="none" stroke-width="0" stroke-linecap="butt" stroke-linejoin="miter"/><path d="M213,198v-36h54v36zM252,187v-14h-24v14z" fill="#e5f0b9" stroke="#666666" stroke-width="2" stroke-linecap="butt" stroke-linejoin="round"/><path d="M214,197.03315v-2h52v2z" fill="#cccccc" stroke="none" stroke-width="0" stroke-linecap="butt" stroke-linejoin="miter"/><path d="M224.18348,180.23172l-4.28862,13.85189h-4.93247v-13.90454h11.42856" fill="none" stroke="#ab7f5c" stroke-width="2" stroke-linecap="butt" stroke-linejoin="round"/><path d="M229.12345,195.03315v-8.45036h7.09163l-0.0167,-11.02478l-0.00047,19.40733" fill="none" stroke="#a1724b" stroke-width="2" stroke-linecap="butt" stroke-linejoin="round"/><path d="M228.88242,184.66891h5.84942" fill="none" stroke="#5e5e5e" stroke-width="2" stroke-linecap="round" stroke-linejoin="miter"/><path d="M257.36028,175.98025h7.64714v6.01568h-7.63532" fill="none" stroke="#7e5733" stroke-width="2" stroke-linecap="butt" stroke-linejoin="miter"/><path d="M265.00741,181.99593v6.01568h-7.63532" fill="none" stroke="#7e5733" stroke-width="2" stroke-linecap="butt" stroke-linejoin="miter"/><path d="M265.00741,188.01161v6.01568h-7.63532" fill="none" stroke="#7e5733" stroke-width="2" stroke-linecap="butt" stroke-linejoin="miter"/></g></g></svg>