<svg version="1.1" xmlns="http://www.w3.org/2000/svg" xmlns:xlink="http://www.w3.org/1999/xlink" width="108.5" height="61.5" viewBox="0,0,108.5,61.5"><defs><linearGradient x1="217.905" y1="170.805" x2="217.905" y2="186.075" gradientUnits="userSpaceOnUse" id="color-1"><stop offset="0" stop-color="#666666" stop-opacity="0"/><stop offset="1" stop-color="#666666"/></linearGradient></defs><g transform="translate(-185.905,-149.125)"><g stroke-miterlimit="10"><path d="M290.655,152.875v54h-101v-54z" fill="#333333" fill-rule="nonzero" stroke="#333333" stroke-width="7.5" stroke-linecap="butt" stroke-linejoin="round"/><g><path d="M190.905,190.435v-36h54v36z" fill="#dbd58e" fill-rule="nonzero" stroke="#666666" stroke-width="2" stroke-linecap="butt" stroke-linejoin="round"/><path d="M243.905,165.05875v22.4094h-8.08371v-22.4094z" fill="#7e5733" fill-rule="nonzero" stroke="none" stroke-width="0" stroke-linecap="butt" stroke-linejoin="miter"/><g fill-rule="evenodd" stroke-width="0.25"><path d="M202.83011,162.90855c0.06441,-0.04294 0.17176,-0.02147 0.19323,0.06441l0.55823,2.29734c0,0 1.37411,1.00911 1.78205,1.71764c0.68706,1.18088 0.70853,2.14705 0.70853,2.14705c0,0 1.5244,0.45088 1.78205,1.6747c0.25765,1.22382 -0.68706,3.54263 -4.7235,4.33704c-4.03645,0.79441 -7.27849,-0.30059 -8.80289,-2.74822c-1.5244,-2.44763 0.88029,-5.36762 0.75147,-5.19585l-0.45088,-3.84321c-0.02147,-0.08588 0.08588,-0.15029 0.17176,-0.10735l2.59793,1.69617c0,0 0.96617,-0.365 1.97528,-0.40794c0.60117,-0.04294 1.11646,0 1.61029,0.08588z" fill="#ffab19" stroke="#001026" stroke-linecap="butt" stroke-linejoin="miter"/><path d="M206.00774,169.22087c0,0 1.48146,0.38647 1.73911,1.61029c0.25765,1.22382 -0.77294,3.43528 -4.76644,4.20821c-5.19585,1.07352 -7.66496,-2.01822 -6.22644,-4.29409c1.43852,-2.29734 3.90763,-0.34353 5.71115,-0.47235c1.54587,-0.10735 1.71764,-1.45999 3.54263,-1.05205z" fill="#ffffff" stroke="none" stroke-linecap="butt" stroke-linejoin="miter"/><path d="M199.24454,171.51823c0,-0.08588 0.08588,-0.15029 0.17176,-0.12882c0.40794,0.15029 1.56734,0.49382 2.85557,0.5797c1.15941,0.06441 1.84646,0 2.16852,-0.06441c0.10735,-0.02147 0.19323,0.08588 0.15029,0.19323c-0.19323,0.5797 -1.00911,2.18999 -3.26351,2.06117c-1.95381,-0.2147 -2.14705,-1.58881 -2.08264,-2.64087z" fill="#ffffff" stroke="#001026" stroke-linecap="round" stroke-linejoin="round"/><path d="M209.95831,169.45707c-1.00911,0.81588 -2.55499,0.83735 -2.55499,0.83735" fill="none" stroke="#001026" stroke-linecap="round" stroke-linejoin="round"/><path d="M209.67919,171.86173c-1.35264,0.10735 -2.18999,-0.30059 -2.18999,-0.30059" fill="none" stroke="#001026" stroke-linecap="round" stroke-linejoin="round"/><path d="M202.37923,169.7147c0.45088,0 0.92323,0.04294 0.9447,0.19323c0.02147,0.30059 -0.30059,0.90176 -0.64411,0.92323c-0.38647,0.04294 -1.28823,-0.49382 -1.28823,-0.83735c-0.02147,-0.25765 0.55823,-0.27912 0.98764,-0.27912z" fill="#001026" stroke="#001026" stroke-linecap="round" stroke-linejoin="round"/><path d="M192.71752,169.39264c0,0 1.84646,0.60117 2.59793,1.26676" fill="none" stroke="#001026" stroke-linecap="round" stroke-linejoin="round"/><path d="M195.37986,171.41088c-0.92323,0.365 -2.51205,0.12882 -2.51205,0.12882" fill="none" stroke="#001026" stroke-linecap="round" stroke-linejoin="round"/><g><path d="M204.91275,167.20267c0.62264,0.96617 0.64411,2.06117 0.04294,2.44763c-0.60117,0.38647 -1.58881,-0.06441 -2.23293,-1.03058c-0.62264,-0.96617 -0.64411,-2.06117 -0.04294,-2.44763c0.60117,-0.40794 1.61029,0.06441 2.23293,1.03058z" fill="#ffffff" stroke="#001026" stroke-linecap="round" stroke-linejoin="round"/><path d="M204.82687,168.42646c0,0.23618 -0.17176,0.42941 -0.38647,0.42941c-0.2147,0 -0.38647,-0.19323 -0.38647,-0.42941c0,-0.23618 0.17176,-0.42941 0.38647,-0.42941c0.2147,0 0.38647,0.19323 0.38647,0.42941" fill="#001026" stroke="none" stroke-linecap="butt" stroke-linejoin="miter"/></g><g><path d="M199.58807,167.80382c0.64411,0.9447 0.60117,2.10411 0.02147,2.51205c-0.70853,0.40794 -1.65323,0.10735 -2.29734,-0.83735c-0.66558,-0.9447 -0.70853,-2.16852 -0.04294,-2.64087c0.66558,-0.49382 1.6747,0.02147 2.31881,0.96617z" fill="#ffffff" stroke="#001026" stroke-linecap="round" stroke-linejoin="round"/><path d="M199.45925,169.04913c0,0.23618 -0.17176,0.42941 -0.38647,0.42941c-0.2147,0 -0.38647,-0.19323 -0.38647,-0.42941c0,-0.23618 0.17176,-0.42941 0.38647,-0.42941c0.2147,0.02147 0.38647,0.19323 0.38647,0.42941" fill="#001026" stroke="none" stroke-linecap="butt" stroke-linejoin="miter"/></g></g><path d="M222.58033,174.95277v12.51539h-30.67532v-12.51539z" fill="#8c8c8c" fill-rule="nonzero" stroke="none" stroke-width="0" stroke-linecap="butt" stroke-linejoin="miter"/><path d="M211.14946,174.73572v-12.51539h10.05627v12.51539z" fill="#c3c0a2" fill-rule="nonzero" stroke="#808080" stroke-width="1" stroke-linecap="butt" stroke-linejoin="miter"/><path d="M221.20573,170.59372h-10.05627" fill="none" fill-rule="nonzero" stroke="#808080" stroke-width="1" stroke-linecap="round" stroke-linejoin="miter"/><path d="M221.20573,166.36234h-10.05627" fill="none" fill-rule="nonzero" stroke="#808080" stroke-width="1" stroke-linecap="round" stroke-linejoin="miter"/><path d="M212.73392,173.50728l1.07496,-0.64868" fill="none" fill-rule="nonzero" stroke="#9a6427" stroke-width="1.5" stroke-linecap="round" stroke-linejoin="miter"/><path d="M214.51746,173.50728l1.07496,-0.64868" fill="none" fill-rule="nonzero" stroke="#ab6f2b" stroke-width="1.5" stroke-linecap="round" stroke-linejoin="miter"/><path d="M216.73566,173.56288l1.07496,-0.64868" fill="none" fill-rule="nonzero" stroke="#a56b29" stroke-width="1.5" stroke-linecap="round" stroke-linejoin="miter"/><path d="M218.5364,173.56288l1.07496,-0.64868" fill="none" fill-rule="nonzero" stroke="#915e24" stroke-width="1.5" stroke-linecap="round" stroke-linejoin="miter"/><path d="M214.39979,168.08573l-1.29665,1.17316l-0.58041,-1.3831" fill="none" fill-rule="nonzero" stroke="#da922e" stroke-width="0.5" stroke-linecap="round" stroke-linejoin="miter"/><path d="M213.90582,167.69056v1.44484l-1.02497,-1.67947" fill="none" fill-rule="nonzero" stroke="#da922e" stroke-width="0.5" stroke-linecap="round" stroke-linejoin="miter"/><path d="M213.22662,169.02425l0.27168,-1.67947" fill="none" fill-rule="nonzero" stroke="#da922e" stroke-width="0.5" stroke-linecap="round" stroke-linejoin="miter"/><path d="M212.77206,170.10532l-0.24698,-1.65198h1.94599l-0.24698,1.65198z" fill="#f5d4c3" fill-rule="nonzero" stroke="none" stroke-width="0" stroke-linecap="butt" stroke-linejoin="miter"/><path d="M216.93134,168.08572l-1.29665,1.17316l-0.58041,-1.38309" fill="none" fill-rule="nonzero" stroke="#da922e" stroke-width="0.5" stroke-linecap="round" stroke-linejoin="miter"/><path d="M216.43738,167.69056v1.44485l-1.02497,-1.67948" fill="none" fill-rule="nonzero" stroke="#da922e" stroke-width="0.5" stroke-linecap="round" stroke-linejoin="miter"/><path d="M216.02986,167.34479l-0.27168,1.67947" fill="none" fill-rule="nonzero" stroke="#da922e" stroke-width="0.5" stroke-linecap="round" stroke-linejoin="miter"/><path d="M215.30362,170.10532l-0.24698,-1.65199h1.94599l-0.24698,1.65199z" fill="#f5d4c3" fill-rule="nonzero" stroke="none" stroke-width="0" stroke-linecap="butt" stroke-linejoin="miter"/><path d="M219.54935,168.08572l-1.29665,1.17316l-0.58041,-1.38309" fill="none" fill-rule="nonzero" stroke="#da922e" stroke-width="0.5" stroke-linecap="round" stroke-linejoin="miter"/><path d="M219.05539,167.69056v1.44485l-1.02498,-1.67948" fill="none" fill-rule="nonzero" stroke="#da922e" stroke-width="0.5" stroke-linecap="round" stroke-linejoin="miter"/><path d="M218.64787,167.34479l-0.27168,1.67947" fill="none" fill-rule="nonzero" stroke="#da922e" stroke-width="0.5" stroke-linecap="round" stroke-linejoin="miter"/><path d="M217.92162,170.10532l-0.24698,-1.65199h1.94599l-0.24698,1.65199z" fill="#f5d4c3" fill-rule="nonzero" stroke="none" stroke-width="0" stroke-linecap="butt" stroke-linejoin="miter"/><path d="M212.80652,164.86811l0.69155,-0.13584" fill="none" fill-rule="nonzero" stroke="#a96b2f" stroke-width="2" stroke-linecap="round" stroke-linejoin="miter"/><path d="M214.44895,164.86811l0.69155,-0.13584" fill="none" fill-rule="nonzero" stroke="#835425" stroke-width="2" stroke-linecap="round" stroke-linejoin="miter"/><path d="M216.77057,164.73227l-0.69154,0.13584" fill="none" fill-rule="nonzero" stroke="#a77e56" stroke-width="2" stroke-linecap="round" stroke-linejoin="miter"/><path d="M218.27716,164.73227l-0.69155,0.13584" fill="none" fill-rule="nonzero" stroke="#a96b2f" stroke-width="2" stroke-linecap="round" stroke-linejoin="miter"/><path d="M219.68496,164.73227l-0.69155,0.13584" fill="none" fill-rule="nonzero" stroke="#cb8d4e" stroke-width="2" stroke-linecap="round" stroke-linejoin="miter"/><path d="M243.905,155.40185v1.65199h-52v-1.65199z" fill="#ffe14c" fill-rule="nonzero" stroke="none" stroke-width="0" stroke-linecap="butt" stroke-linejoin="miter"/><path d="M243.905,157.05384v1.65198h-52v-1.65198z" fill="#f0f0f0" fill-rule="nonzero" stroke="none" stroke-width="0" stroke-linecap="butt" stroke-linejoin="miter"/><path d="M243.905,158.70582v1.65198h-52v-1.65198z" fill="#53c2e5" fill-rule="nonzero" stroke="none" stroke-width="0" stroke-linecap="butt" stroke-linejoin="miter"/></g><path d="M254.675,178.975l-1.96,2.07l-1.96,-2.07" fill="none" fill-rule="nonzero" stroke="#eeeeee" stroke-width="4" stroke-linecap="round" stroke-linejoin="miter"/><path d="M190.905,190.435v-19.62h54v19.62z" fill="url(#color-1)" fill-rule="nonzero" stroke="none" stroke-width="1" stroke-linecap="butt" stroke-linejoin="miter"/><text transform="translate(201.265,201.895) scale(0.23,0.23)" font-size="40" xml:space="preserve" fill="#ffffff" fill-rule="nonzero" stroke="none" stroke-width="1" stroke-linecap="butt" stroke-linejoin="miter" font-family="Sans Serif" font-weight="400" text-anchor="start"><tspan x="0" dy="0">230,000G</tspan></text><text transform="translate(259.725,161.015) scale(0.23,0.23)" font-size="40" xml:space="preserve" fill="#eeeeee" fill-rule="nonzero" stroke="none" stroke-width="1" stroke-linecap="butt" stroke-linejoin="miter" font-family="Sans Serif" font-weight="400" text-anchor="start"><tspan x="0" dy="0">9,800G</tspan></text><text transform="translate(259.725,171.865) scale(0.23,0.23)" font-size="40" xml:space="preserve" fill="#eeeeee" fill-rule="nonzero" stroke="none" stroke-width="1" stroke-linecap="butt" stroke-linejoin="miter" font-family="Sans Serif" font-weight="400" text-anchor="start"><tspan x="0" dy="0">650G</tspan></text><text transform="translate(259.725,182.715) scale(0.23,0.23)" font-size="40" xml:space="preserve" fill="#eeeeee" fill-rule="nonzero" stroke="none" stroke-width="1" stroke-linecap="butt" stroke-linejoin="miter" font-family="Sans Serif" font-weight="400" text-anchor="start"><tspan x="0" dy="0">8%</tspan></text><text transform="translate(259.725,193.565) scale(0.23,0.23)" font-size="40" xml:space="preserve" fill="#eeeeee" fill-rule="nonzero" stroke="none" stroke-width="1" stroke-linecap="butt" stroke-linejoin="miter" font-family="Sans Serif" font-weight="400" text-anchor="start"><tspan x="0" dy="0">-7</tspan></text><text transform="translate(259.725,204.415) scale(0.23,0.23)" font-size="40" xml:space="preserve" fill="#eeeeee" fill-rule="nonzero" stroke="none" stroke-width="1" stroke-linecap="butt" stroke-linejoin="miter" font-family="Sans Serif" font-weight="400" text-anchor="start"><tspan x="0" dy="0">-1</tspan></text><text transform="translate(191.905,186.975) scale(0.21,0.21)" font-size="40" xml:space="preserve" fill="#ffffff" fill-rule="nonzero" stroke="none" stroke-width="1" stroke-linecap="butt" stroke-linejoin="miter" font-family="Sans Serif" font-weight="400" text-anchor="start"><tspan x="0" dy="0">コンビニ</tspan></text><path d="M254.295,186.785c0.32,-0.29 0.47,-0.2 0.33,0.21l-0.87,2.69c-0.13,0.42 0.09,0.86 0.51,0.99l0.32,0.1c0.41,0.13 0.49,0.48 0.17,0.77l-3.61,3.35c-0.32,0.29 -0.47,0.2 -0.33,-0.21l0.87,-2.69c0.13,-0.42 -0.09,-0.86 -0.51,-0.99l-0.31,-0.1c-0.41,-0.13 -0.49,-0.48 -0.17,-0.77zM250.055,203.115c0,-1.47 2.66,-5.49 2.66,-5.49c0,0 2.66,4.02 2.66,5.49c0,1.47 -1.19,2.66 -2.66,2.66c-1.47,0 -2.66,-1.19 -2.66,-2.66z" fill="#eeeeee" fill-rule="nonzero" stroke="#eeeeee" stroke-width="0.65" stroke-linecap="butt" stroke-linejoin="miter"/><path d="M191.855,200.155l-0.95,-2.39l5.74,-2.29l0.95,2.39zM255.835,159.085l-0.04,3.17l-0.94,-0.33l-0.55,-1.77l-1.56,1.03l-3.15,-1.11l1.97,-2.49z" fill="#ffffff" fill-rule="nonzero" stroke="#ffffff" stroke-width="1.25" stroke-linecap="butt" stroke-linejoin="round"/><path d="M194.725,199.015l1.55,3.88M255.115,154.335l-1.41,3.99" fill="none" fill-rule="nonzero" stroke="#ffffff" stroke-width="1.25" stroke-linecap="round" stroke-linejoin="miter"/><path d="M253.445,166.095c0.03,-0.02 0.09,-0.01 0.09,0.03l0.27,1.13c0,0 0.67,0.49 0.87,0.84c0.34,0.58 0.35,1.05 0.35,1.05c0,0 0.75,0.22 0.87,0.82c0.13,0.6 -0.34,1.73 -2.31,2.13c-1.98,0.39 -3.57,-0.15 -4.31,-1.35c-0.75,-1.2 0.43,-2.63 0.37,-2.55l-0.22,-1.89c-0.01,-0.04 0.04,-0.07 0.09,-0.05l1.27,0.83c0,0 0.47,-0.18 0.97,-0.2c0.29,-0.02 0.55,0 0.79,0.04z" fill="#eeeeee" fill-rule="nonzero" stroke="#eeeeee" stroke-width="0.65" stroke-linecap="butt" stroke-linejoin="miter"/><path d="M256.945,169.305c-0.49,0.4 -1.25,0.41 -1.25,0.41M256.805,170.485c-0.66,0.05 -1.07,-0.15 -1.07,-0.15M248.495,169.275c0,0 0.91,0.29 1.27,0.62M249.795,170.265c-0.45,0.18 -1.23,0.06 -1.23,0.06" fill="none" fill-rule="nonzero" stroke="#eeeeee" stroke-width="0.65" stroke-linecap="round" stroke-linejoin="miter"/><text transform="translate(196.51457,208.46654) scale(0.11803,0.11803)" font-size="40" xml:space="preserve" fill="#cccccc" fill-rule="nonzero" stroke="none" stroke-width="1" stroke-linecap="butt" stroke-linejoin="miter" font-family="Sans Serif" font-weight="400" text-anchor="start"><tspan x="0" dy="0">Lv.7</tspan></text><path d="M192.39673,206.48984c0.35371,-0.09488 0.62995,-0.37113 0.72483,-0.72484l0.2162,-0.80411c0.10269,-0.38013 0.64197,-0.38013 0.74406,0l0.21679,0.80411c0.09488,0.35371 0.37113,0.62996 0.72423,0.72484l0.80411,0.21619c0.38013,0.10269 0.38013,0.64196 0,0.74465l-0.80411,0.2162c-0.35311,0.09488 -0.62935,0.37113 -0.72423,0.72423l-0.21679,0.80411c-0.10209,0.38013 -0.64137,0.38013 -0.74406,0l-0.2162,-0.80411c-0.09488,-0.35311 -0.37112,-0.62935 -0.72483,-0.72423l-0.80411,-0.2162c-0.38013,-0.10269 -0.38013,-0.64196 0,-0.74465z" fill="#cccccc" fill-rule="evenodd" stroke="none" stroke-width="1" stroke-linecap="butt" stroke-linejoin="miter"/></g></g></svg>