<svg version="1.1" xmlns="http://www.w3.org/2000/svg" xmlns:xlink="http://www.w3.org/1999/xlink" width="56" height="38" viewBox="0,0,56,38"><defs><linearGradient x1="240.17717" y1="177.13536" x2="240.17717" y2="196.03315" gradientUnits="userSpaceOnUse" id="color-1"><stop offset="0" stop-color="#6b6b6b"/><stop offset="1" stop-color="#525252"/></linearGradient><linearGradient x1="240.03887" y1="182.9602" x2="240.03887" y2="190.25" gradientUnits="userSpaceOnUse" id="color-2"><stop offset="0" stop-color="#46ffff"/><stop offset="1" stop-color="#54908e"/></linearGradient><linearGradient x1="221.4674" y1="185.23414" x2="221.4674" y2="189.61787" gradientUnits="userSpaceOnUse" id="color-3"><stop offset="0" stop-color="#606060"/><stop offset="1" stop-color="#5b5b5b"/></linearGradient><radialGradient cx="249.43864" cy="180.45994" r="7.41598" gradientUnits="userSpaceOnUse" id="color-4"><stop offset="0" stop-color="#ffffff" stop-opacity="0.50196"/><stop offset="1" stop-color="#ffffff" stop-opacity="0"/></radialGradient><radialGradient cx="234.05924" cy="182.8979" r="5.97836" gradientUnits="userSpaceOnUse" id="color-5"><stop offset="0" stop-color="#ffffff" stop-opacity="0.50196"/><stop offset="1" stop-color="#ffffff" stop-opacity="0"/></radialGradient><radialGradient cx="235.67937" cy="180" r="8.96753" gradientUnits="userSpaceOnUse" id="color-6"><stop offset="0" stop-color="#ffffff" stop-opacity="0.50196"/><stop offset="1" stop-color="#ffffff" stop-opacity="0"/></radialGradient><radialGradient cx="252.32128" cy="177.08529" r="7.13051" gradientUnits="userSpaceOnUse" id="color-7"><stop offset="0" stop-color="#ffffff" stop-opacity="0.50196"/><stop offset="1" stop-color="#ffffff" stop-opacity="0"/></radialGradient><radialGradient cx="249.43887" cy="171.57896" r="9.40127" gradientUnits="userSpaceOnUse" id="color-8"><stop offset="0" stop-color="#ffffff" stop-opacity="0.50196"/><stop offset="1" stop-color="#ffffff" stop-opacity="0"/></radialGradient><radialGradient cx="224.16621" cy="175.55436" r="8.32954" gradientUnits="userSpaceOnUse" id="color-9"><stop offset="0" stop-color="#ffffff" stop-opacity="0.50196"/><stop offset="1" stop-color="#ffffff" stop-opacity="0"/></radialGradient><radialGradient cx="227.60133" cy="171.91571" r="7.41598" gradientUnits="userSpaceOnUse" id="color-10"><stop offset="0" stop-color="#ffffff" stop-opacity="0.50196"/><stop offset="1" stop-color="#ffffff" stop-opacity="0"/></radialGradient><radialGradient cx="223.65772" cy="168.7665" r="5.97835" gradientUnits="userSpaceOnUse" id="color-11"><stop offset="0" stop-color="#ffffff" stop-opacity="0.50196"/><stop offset="1" stop-color="#ffffff" stop-opacity="0"/></radialGradient></defs><g transform="translate(-212,-161)"><g stroke-miterlimit="10"><path d="M213,198v-22.44564h54v22.44564z" fill="#ad843f" stroke="#666666" stroke-width="2" stroke-linecap="butt" stroke-linejoin="round"/><path d="M213,162v4.03485h54v-4.03485z" fill="#ad843f" stroke="#666666" stroke-width="2" stroke-linecap="butt" stroke-linejoin="round"/><path d="M213,198v-36h54v36z" fill="none" stroke="#666666" stroke-width="2" stroke-linecap="butt" stroke-linejoin="round"/><path d="M235.10156,178.0597c0.77869,0 0.68839,0.31494 1.26341,0.64208c0.14709,-0.1146 1.50721,-1.06026 2.94494,-1.35683c2.35003,-0.48477 5.98587,-0.23047 6.06755,1.85357c0.2167,0.14871 0.40763,0.31801 0.56725,0.50376c0.2092,-0.09638 2.14778,-1.01077 4.02066,-1.01077c0.80291,0 1.54122,0.20652 2.12488,0.55229c1.13643,0.10708 3.121,1.85556 3.27924,2.1506c2.01989,-0.55696 4.01421,0.09239 5.13232,1.2469c1.06491,0.3593 2.87119,3.27307 3.03841,3.77254c0.07031,0.21001 0.08964,0.41338 0.06584,0.60823c0.30176,0.59575 0.16642,3.2448 -0.1278,3.62205c-0.29652,0.58598 0.11744,1.44505 -0.40102,2.10243c-1.12824,1.43055 -2.33739,0.3516 -4.2374,2.7069c-5.23557,0.77424 -34.56822,0.73404 -35.86322,0.11026c-0.5959,-0.13457 -1.12312,-0.38724 -1.53284,-0.72156c-0.34674,-0.22708 -2.63477,-1.34692 -3.44675,-2.57454c-1.3486,-2.03892 -1.32557,-4.63752 -1.41443,-5.8649c-0.12036,-1.66248 2.24655,-4.21515 3.18309,-4.86998c0.23666,-0.28726 6.71891,-2.05754 7.28594,-2.22128c0.7416,-0.81016 3.56515,-2.06523 5.71101,-2.16587c0.91506,-0.04292 2.19181,0.91414 2.33893,0.91414zM252.92076,184.97232c-4.82539,-0.36617 -7.49735,-1.8525 -12.51166,-1.9467c-2.90339,-0.05454 -9.72979,-0.08276 -13.35736,1.29752c-2.63743,1.00353 -2.67535,2.73095 -2.94184,3.08992c-0.71533,0.5921 1.4551,0.64182 3.45904,1.4136c2.00394,0.77178 3.17844,-1.20757 6.54165,-0.23416c1.82205,0.52735 1.10661,2.00342 2.39123,1.53145c1.24471,-0.4573 1.54348,-1.38028 3.35548,-1.80302c2.79562,-0.65222 4.95813,1.90337 5.61173,1.83528c0.72473,-0.0755 2.25122,-1.93006 2.25122,-1.93006c0,0 2.41831,-0.67523 2.9359,-0.57144c1.55313,0.31143 3.0722,1.33859 3.83254,1.44159c0.67949,0.09204 2.16396,-2.20264 1.4106,-2.75975c-0.84616,-0.62573 -1.59711,-1.2594 -2.97852,-1.36423z" fill="url(#color-1)" stroke="none" stroke-width="0.5" stroke-linecap="butt" stroke-linejoin="miter"/><path d="M255.94927,186.33568c0.75336,0.55711 -0.73183,2.86112 -1.41132,2.76908c-0.76033,-0.10299 -2.37843,-1.14352 -3.93157,-1.45495c-0.51759,-0.10378 -2.83721,0.58662 -2.83721,0.58662c0,0 -1.53356,1.8716 -2.25829,1.9471c-0.6536,0.06809 -2.86325,-2.46511 -5.65887,-1.81289c-1.812,0.42274 -2.14097,1.33122 -3.38568,1.78853c-1.28463,0.47197 -0.58113,-1.02348 -2.40318,-1.55083c-3.36321,-0.97341 -4.53952,0.99884 -6.54345,0.22706c-2.00394,-0.77178 -4.17507,-0.82774 -3.45974,-1.41984c0.26649,-0.35897 0.30512,-2.09758 2.94254,-3.10111c3.62757,-1.38028 10.50834,-1.39312 13.41173,-1.33857c5.01431,0.0942 7.73073,1.62394 12.55613,1.99012c1.38141,0.10483 2.13275,0.74394 2.97891,1.36968z" fill="url(#color-2)" stroke="none" stroke-width="0.5" stroke-linecap="butt" stroke-linejoin="miter"/><path d="M225.24099,186.49839l-1.07478,-4.03485" fill="none" stroke-opacity="0.61961" stroke="#48e8e8" stroke-width="1" stroke-linecap="round" stroke-linejoin="miter"/><path d="M214,197.03315v-2h52v2z" fill="#cccccc" stroke="none" stroke-width="0" stroke-linecap="butt" stroke-linejoin="miter"/><path d="M219.21135,182.9602v-1.12512h5v1.12512z" fill="#8fa02f" stroke="none" stroke-width="0" stroke-linecap="butt" stroke-linejoin="miter"/><path d="M219.21135,188.03168v-7.35228h1.67189v7.35228z" fill="#8fa02f" stroke="none" stroke-width="0" stroke-linecap="butt" stroke-linejoin="miter"/><path d="M218.9674,187.42601c0,-1.21053 1.11929,-2.19187 2.5,-2.19187c1.38071,0 2.5,0.98134 2.5,2.19187c0,1.21053 -1.11929,2.19187 -2.5,2.19187c-1.38071,0 -2.5,-0.98133 -2.5,-2.19187z" fill="url(#color-3)" stroke="none" stroke-width="0.5" stroke-linecap="butt" stroke-linejoin="miter"/><path d="M242.02266,180.45994c0,-4.09573 3.32025,-7.41598 7.41598,-7.41598c4.09573,0 7.41598,3.32025 7.41598,7.41598c0,4.09573 -3.32025,7.41598 -7.41598,7.41598c-4.09573,0 -7.41598,-3.32024 -7.41598,-7.41598z" fill="url(#color-4)" stroke="none" stroke-width="0" stroke-linecap="butt" stroke-linejoin="miter"/><path d="M228.08089,182.8979c0,-3.30176 2.6766,-5.97835 5.97835,-5.97835c3.30176,0 5.97836,2.6766 5.97836,5.97835c0,3.30176 -2.6766,5.97835 -5.97836,5.97835c-3.30176,0 -5.97835,-2.67659 -5.97835,-5.97835z" fill="url(#color-5)" stroke="none" stroke-width="0" stroke-linecap="butt" stroke-linejoin="miter"/><path d="M226.71184,180c0,-4.95263 4.0149,-8.96753 8.96753,-8.96753c4.95263,0 8.96753,4.0149 8.96753,8.96753c0,4.95263 -4.0149,8.96753 -8.96753,8.96753c-4.95263,0 -8.96753,-4.0149 -8.96753,-8.96753z" fill="url(#color-6)" stroke="none" stroke-width="0" stroke-linecap="butt" stroke-linejoin="miter"/><path d="M245.19077,177.08529c0,-3.93807 3.19244,-7.13051 7.13051,-7.13051c3.93807,0 7.13051,3.19244 7.13051,7.13051c0,3.93807 -3.19244,7.13051 -7.13051,7.13051c-3.93807,0 -7.13051,-3.19244 -7.13051,-7.13051z" fill="url(#color-7)" stroke="none" stroke-width="0" stroke-linecap="butt" stroke-linejoin="miter"/><path d="M240.0376,171.57896c0,-5.19218 4.20909,-9.40127 9.40127,-9.40127c5.19218,0 9.40127,4.20909 9.40127,9.40127c0,5.19218 -4.20909,9.40127 -9.40127,9.40127c-5.19218,0 -9.40127,-4.20909 -9.40127,-9.40127z" fill="url(#color-8)" stroke="none" stroke-width="0" stroke-linecap="butt" stroke-linejoin="miter"/><path d="M215.83667,175.55436c0,-4.60028 3.72926,-8.32954 8.32954,-8.32954c4.60028,0 8.32954,3.72926 8.32954,8.32954c0,4.60028 -3.72926,8.32954 -8.32954,8.32954c-4.60028,0 -8.32954,-3.72926 -8.32954,-8.32954z" fill="url(#color-9)" stroke="none" stroke-width="0" stroke-linecap="butt" stroke-linejoin="miter"/><path d="M220.18535,171.91571c0,-4.09573 3.32025,-7.41598 7.41598,-7.41598c4.09573,0 7.41598,3.32025 7.41598,7.41598c0,4.09573 -3.32025,7.41598 -7.41598,7.41598c-4.09573,0 -7.41598,-3.32024 -7.41598,-7.41598z" fill="url(#color-10)" stroke="none" stroke-width="0" stroke-linecap="butt" stroke-linejoin="miter"/><path d="M217.67936,168.7665c0,-3.30176 2.6766,-5.97835 5.97835,-5.97835c3.30176,0 5.97835,2.67659 5.97835,5.97835c0,3.30176 -2.6766,5.97835 -5.97835,5.97835c-3.30176,0 -5.97835,-2.6766 -5.97835,-5.97835z" fill="url(#color-11)" stroke="none" stroke-width="0" stroke-linecap="butt" stroke-linejoin="miter"/></g></g></svg>