<svg version="1.1" xmlns="http://www.w3.org/2000/svg" xmlns:xlink="http://www.w3.org/1999/xlink" width="1460.00001" height="38" viewBox="0,0,1460.00001,38"><g transform="translate(490,-161)"><g stroke-miterlimit="10"><path d="M-489,198v-36h1458.00001v36z" fill="#4c4c4c" stroke="#666666" stroke-width="2" stroke-linecap="butt" stroke-linejoin="round"/><path d="M136.34786,196.03315v-5.28841h207.30429v5.28841z" fill="#bfbfbf" stroke="#c0c0c0" stroke-width="2" stroke-linecap="butt" stroke-linejoin="round"/><path d="M154.58649,184.42877v-15.16435h28.57324v15.16435z" fill="#428033" stroke="#c0c0c0" stroke-width="2" stroke-linecap="butt" stroke-linejoin="round"/><path d="M203.61669,190.74475v-4.35637h16.17496v4.35637z" fill="none" stroke="#c0c0c0" stroke-width="2" stroke-linecap="butt" stroke-linejoin="miter"/><path d="M200.33116,187.77454v-7.67867h23.12515v7.67867z" fill="#00ffff" stroke="none" stroke-width="0" stroke-linecap="butt" stroke-linejoin="miter"/><path d="M200.33116,187.77454v-2.40134h23.12515v2.40134z" fill="#00cccc" stroke="none" stroke-width="0" stroke-linecap="butt" stroke-linejoin="miter"/><path d="M342.37499,191.90869h-204.74999" fill="none" stroke="#d3e600" stroke-width="2" stroke-linecap="round" stroke-linejoin="miter"/><g stroke-linejoin="miter"><path d="M272.84582,189.25042v-21.3733h12.88624v21.3733z" fill="#d42a2a" stroke="#666666" stroke-width="1" stroke-linecap="butt"/><path d="M274.56964,179.96123v-9.90316h9.4386v9.90316z" fill="#ffffff" stroke="none" stroke-width="0" stroke-linecap="butt"/><path d="M282.0988,173.29671h-5.61973" fill="none" stroke="#e6e6e6" stroke-width="1" stroke-linecap="round"/><path d="M276.47907,176.83977h5.61973" fill="none" stroke="#e6e6e6" stroke-width="1" stroke-linecap="round"/><path d="M274.56964,184.21579v-2.96269h4.09105v2.96269z" fill="#666666" stroke="none" stroke-width="0" stroke-linecap="butt"/><path d="M284.00823,182.39856c0,0.74678 -0.77941,1.35216 -1.74087,1.35216c-0.96146,0 -1.74088,-0.60538 -1.74088,-1.35216c0,-0.74678 0.77942,-1.35215 1.74088,-1.35215c0.96146,0 1.74087,0.60537 1.74087,1.35215z" fill="#585858" stroke="none" stroke-width="0" stroke-linecap="butt"/><path d="M280.74046,184.58612h3.05379" fill="none" stroke="#666666" stroke-width="1" stroke-linecap="round"/><path d="M274.56964,187.38518v-1.25844h9.4386v1.25844z" fill="#666666" stroke="none" stroke-width="0" stroke-linecap="butt"/></g></g></g></svg>