<svg version="1.1" xmlns="http://www.w3.org/2000/svg" xmlns:xlink="http://www.w3.org/1999/xlink" width="56" height="38" viewBox="0,0,56,38"><g transform="translate(-212,-161)"><g stroke-miterlimit="10"><path d="M213,198v-36h54v36z" fill="#bf7530" fill-rule="nonzero" stroke="#666666" stroke-width="2" stroke-linecap="butt" stroke-linejoin="round"/><g stroke-width="0.25"><g fill-rule="evenodd"><g><path d="M240.82754,179.31808c0.4756,-0.09908 1.0503,-0.25762 1.5259,-0.69359c1.08993,-0.97103 1.42682,-2.5762 2.17986,-2.16004c0.77286,0.41616 0.75304,3.01217 -1.66462,3.80485c-0.83231,0.27744 -1.58535,0.27743 -2.19968,0.25762c-0.15853,0 -1.5259,-0.13872 -2.00151,-0.81249c-0.4756,-0.67377 -0.13872,-0.85213 0.01981,-0.9314c0.17836,-0.09908 1.46645,0.65396 2.14023,0.53506z" fill="#ffab19" stroke="#001026" stroke-linecap="round" stroke-linejoin="round"/><path d="M244.4144,176.50408c0.39634,0.1189 0.59451,0.95121 0.39634,1.6448c-0.19817,0.69359 -0.51524,1.0503 -0.77286,1.30792c0.03964,-0.13872 0.1189,-0.57469 -0.21799,-0.83231c-0.41616,-0.33689 -1.14938,-0.15853 -1.14938,-0.15853c0,0 0.61433,-0.75304 0.9314,-1.2881c0.31707,-0.45579 0.41615,-0.75304 0.81249,-0.67377z" fill="#ffffff" stroke="none" stroke-linecap="butt" stroke-linejoin="miter"/></g><path d="M235.57606,177.11841c0,0.51524 -0.41616,1.0503 -0.65396,1.36737c-0.2378,0.31707 -1.34755,1.48627 -2.71492,0.87195c-0.57469,-0.29725 -1.92224,-1.407 -1.20883,-2.06096c0.71341,-0.65396 1.36737,0.15853 1.84297,0.57469c0.39634,0.35671 1.60517,-1.07011 1.70425,-1.14938c0.33689,-0.29725 1.01066,-0.15854 1.03048,0.39634z" fill="#ffab19" stroke="#001026" stroke-linecap="round" stroke-linejoin="round"/><g><path d="M236.01203,179.89277c-0.2378,-0.17836 -0.47561,-0.4756 -0.79268,-0.93139c-0.25762,-0.37652 -0.53505,-1.10975 -0.53505,-1.10975c-0.17836,-0.49543 -0.29725,-1.44663 0.35671,-1.42682c0.43597,0.01981 0.83231,-0.03964 1.50608,-0.13872c1.18901,-0.2378 1.407,-0.39633 1.90242,0.41616c0.53506,0.95121 1.90242,1.6448 0.21799,3.28961c0,0 -0.97103,0.75304 -2.14023,1.90242c-0.79268,0.77286 -2.04114,1.8826 -2.47711,2.25912c-0.09908,0.07927 -0.21799,0.11891 -0.33689,0.13872c-1.92224,0.17836 -3.34905,-0.01982 -3.34905,-0.87195c0,-1.42682 2.83381,-0.9314 2.83381,-0.9314c0,0 0.91158,-0.77286 1.32773,-1.14938z" fill="#ffab19" stroke="#001026" stroke-linecap="round" stroke-linejoin="round"/><path d="M235.14009,178.56504c0,0 -0.37652,-0.49542 0.4756,-1.03048c0.89176,-0.57469 1.22865,0.05945 1.58535,0.53506c0.39634,0.61432 0,0.91158 -0.39634,1.26828c-0.31707,0.29725 -0.61432,0.53506 -0.61432,0.53506c0,0 -0.61433,-0.41616 -1.0503,-1.30792z" fill="#ffffff" stroke="none" stroke-linecap="butt" stroke-linejoin="miter"/></g><path d="M239.16292,177.9309c-0.21799,-0.13872 -0.51524,-0.37652 -0.81249,-0.59451c-0.49543,-0.35671 -1.20883,-1.14938 -0.21799,-1.50608c0.79268,-0.29725 1.50608,0.25762 2.35821,0.87195c0.43597,0.33689 0.95121,0.73323 0.77286,1.34755c-0.19817,0.69359 -1.1692,2.67528 -2.3384,2.02132c-0.85213,-0.57469 -0.17835,-1.26828 0.25762,-1.82316c0.05945,-0.09908 0.03964,-0.21799 -0.01981,-0.31707z" fill="#ffab19" stroke="#001026" stroke-linecap="round" stroke-linejoin="round"/><g><path d="M234.64467,166.47673c0.45579,-0.07927 0.93139,-0.1189 1.48627,-0.07927c0.9314,0.03964 1.82316,0.37652 1.82316,0.37652l2.39784,-1.56553c0.07927,-0.03964 0.17835,0.01982 0.15854,0.09909l-0.41616,3.54723c-0.1189,-0.15853 2.10059,2.53656 0.69359,4.79569c-1.407,2.25912 -4.39935,3.26979 -8.12493,2.53656c-3.72558,-0.73323 -4.59752,-2.87345 -4.35972,-4.00301c0.2378,-1.12956 1.6448,-1.54572 1.6448,-1.54572c0,0 0.01981,-0.89176 0.65396,-1.98169c0.37652,-0.65396 1.6448,-1.58535 1.6448,-1.58535l0.51524,-2.12041c0.01981,-0.07927 0.1189,-0.09909 0.17835,-0.05945z" fill="#ffab19" stroke="#001026" stroke-linecap="butt" stroke-linejoin="miter"/><path d="M233.2773,171.68858c1.66462,0.1189 3.94356,-1.68444 5.2713,0.43597c1.32773,2.10059 -0.95121,4.95422 -5.74691,3.96338c-3.68595,-0.71341 -4.63715,-2.75455 -4.39935,-3.88411c0.2378,-1.12956 1.60517,-1.48627 1.60517,-1.48627c1.68444,-0.37652 1.84297,0.87195 3.26979,0.97103z" fill="#ffffff" stroke="none" stroke-linecap="butt" stroke-linejoin="miter"/><path d="M234.3276,175.27544c-2.08077,0.1189 -2.83381,-1.36737 -3.01216,-1.90242c-0.03964,-0.09908 0.03963,-0.19816 0.13872,-0.17835c0.29725,0.05945 0.9314,0.1189 2.00151,0.05945c1.18901,-0.07927 2.25913,-0.39634 2.63565,-0.53506c0.07927,-0.01981 0.15853,0.03964 0.15853,0.11891c0.05945,0.97103 -0.11891,2.23931 -1.92224,2.43748z" fill="#ffffff" stroke="#001026" stroke-linecap="round" stroke-linejoin="round"/><path d="M228.71942,171.70839c0,0 -1.42682,-0.01982 -2.35821,-0.77286" fill="none" stroke="#001026" stroke-linecap="round" stroke-linejoin="round"/><path d="M228.64015,172.87759c0,0 -0.77286,0.37652 -2.02132,0.27743" fill="none" stroke="#001026" stroke-linecap="round" stroke-linejoin="round"/><path d="M234.26815,171.43096c0,0.31707 -0.83231,0.81249 -1.18901,0.77286c-0.31707,-0.01981 -0.61432,-0.57469 -0.59451,-0.85213c0.01981,-0.13872 0.45579,-0.17835 0.87195,-0.17835c0.39634,0 0.9314,0.01981 0.91158,0.25762z" fill="#001026" stroke="#001026" stroke-linecap="round" stroke-linejoin="round"/><path d="M239.87633,172.04528c0.69359,-0.61432 2.39785,-1.1692 2.39785,-1.1692" fill="none" stroke="#001026" stroke-linecap="round" stroke-linejoin="round"/><path d="M242.13546,172.85778c0,0 -1.46645,0.21799 -2.31857,-0.1189" fill="none" stroke="#001026" stroke-linecap="round" stroke-linejoin="round"/><g><path d="M233.07913,167.90355c0.55488,0.35671 0.53506,1.36737 -0.03963,2.25912c-0.59451,0.89176 -1.50608,1.30792 -2.06096,0.95121c-0.55488,-0.35671 -0.53505,-1.36737 0.03964,-2.25912c0.57469,-0.89176 1.50608,-1.32773 2.06096,-0.95121z" fill="#ffffff" stroke="#001026" stroke-linecap="round" stroke-linejoin="round"/><path d="M231.09744,169.98433c0,-0.21799 0.15853,-0.39634 0.35671,-0.39634c0.19817,0 0.35671,0.17835 0.35671,0.39634c0,0.21799 -0.15853,0.39634 -0.35671,0.39634c-0.19817,0 -0.35671,-0.17836 -0.35671,-0.39634" fill="#001026" stroke="none" stroke-linecap="butt" stroke-linejoin="miter"/></g><g><path d="M238.07299,168.51787c0.61432,0.43597 0.57469,1.56553 -0.03963,2.43748c-0.59451,0.87195 -1.46645,1.14938 -2.12041,0.77286c-0.53506,-0.37652 -0.57469,-1.44663 0.01982,-2.31857c0.59451,-0.87195 1.5259,-1.34755 2.14022,-0.89176z" fill="#ffffff" stroke="#001026" stroke-linecap="round" stroke-linejoin="round"/><path d="M236.05167,170.55901c0,-0.21799 0.15853,-0.37652 0.35671,-0.39633c0.19817,0 0.35671,0.17835 0.35671,0.39633c0,0.21799 -0.15853,0.39634 -0.35671,0.39634c-0.19817,0 -0.35671,-0.17836 -0.35671,-0.39634" fill="#001026" stroke="none" stroke-linecap="butt" stroke-linejoin="miter"/></g></g></g><path d="M230.80295,168.11893c0,0 0.22641,-0.6708 0.41371,-0.89353c0.29819,-0.35461 1.20312,-1.02918 1.20312,-1.02918c0,0 4.29911,0.31032 5.63332,0.5861c1.26994,0.2625 2.18863,1.03072 2.18863,1.03072c0,0 0.28274,0.75243 0.34604,1.0848c0.0501,0.26304 0.13463,0.79421 0.13463,0.79421c0,0 -1.27538,-0.78548 -3.00187,-1.23887c-1.09058,-0.2864 -2.75488,-0.32641 -3.4287,-0.40752c-1.08991,-0.13119 -3.48888,0.07326 -3.48888,0.07326z" fill="#ffe0b3" fill-rule="nonzero" stroke="none" stroke-linecap="butt" stroke-linejoin="miter"/></g><path d="M214,197.03315v-2h52v2z" fill="#cccccc" fill-rule="nonzero" stroke="none" stroke-width="0" stroke-linecap="butt" stroke-linejoin="miter"/><path d="M260.82138,182.77849v12.25466h-46.82138v-12.25466z" fill="#b9a15d" fill-rule="nonzero" stroke="none" stroke-width="0" stroke-linecap="butt" stroke-linejoin="miter"/><path d="M214,182.77849v-3.36882h47.38039v3.36882z" fill="#9d884f" fill-rule="nonzero" stroke="none" stroke-width="0" stroke-linecap="butt" stroke-linejoin="miter"/><path d="M225.29176,178.32982v1.07985h-11.29176v-1.07985z" fill="#858585" fill-rule="nonzero" stroke="none" stroke-width="0" stroke-linecap="butt" stroke-linejoin="miter"/><path d="M231.3467,177.60657l-4.61742,-1.87583c0,0 -0.82816,1.95378 0,2.30871c0.82816,0.35493 2.02012,-1.44295 2.02012,-1.44295" fill="none" fill-rule="nonzero" stroke="#000000" stroke-width="0.25" stroke-linecap="round" stroke-linejoin="miter"/><path d="M229.10971,193.83935v-8.86549" fill="none" fill-rule="nonzero" stroke="#808080" stroke-width="1.5" stroke-linecap="round" stroke-linejoin="miter"/><path d="M224.84161,186.16767v-2.3876h8.5362v2.3876z" fill="#f23d3d" fill-rule="nonzero" stroke="#f23d3d" stroke-width="1" stroke-linecap="butt" stroke-linejoin="round"/><path d="M227.36122,195.03315v-2.3876h3.49699v2.3876z" fill="#333333" fill-rule="nonzero" stroke="none" stroke-width="0" stroke-linecap="butt" stroke-linejoin="miter"/><path d="M250.89029,193.83935v-8.86549" fill="none" fill-rule="nonzero" stroke="#808080" stroke-width="1.5" stroke-linecap="round" stroke-linejoin="miter"/><path d="M246.62219,186.16767v-2.3876h8.5362v2.3876z" fill="#f23d3d" fill-rule="nonzero" stroke="#f23d3d" stroke-width="1" stroke-linecap="butt" stroke-linejoin="round"/><path d="M249.1418,195.03315v-2.3876h3.49699v2.3876z" fill="#333333" fill-rule="nonzero" stroke="none" stroke-width="0" stroke-linecap="butt" stroke-linejoin="miter"/></g></g></svg>