<svg version="1.1" xmlns="http://www.w3.org/2000/svg" xmlns:xlink="http://www.w3.org/1999/xlink" width="108.5" height="61.5" viewBox="0,0,108.5,61.5"><defs><linearGradient x1="217.905" y1="170.805" x2="217.905" y2="186.075" gradientUnits="userSpaceOnUse" id="color-1"><stop offset="0" stop-color="#666666" stop-opacity="0"/><stop offset="1" stop-color="#666666"/></linearGradient></defs><g transform="translate(-185.905,-149.125)"><g stroke-miterlimit="10"><path d="M290.655,152.875v54h-101v-54z" fill="#333333" stroke="#333333" stroke-width="7.5" stroke-linecap="butt" stroke-linejoin="round"/><g><path d="M205.905,179.52064v-14h24v14z" fill-opacity="0.70196" fill="#a3cccc" stroke="#666666" stroke-width="2" stroke-linecap="butt" stroke-linejoin="round"/><path d="M225.73122,179.435l-4.42147,-14h3.21386l4.42146,14z" fill-opacity="0.40392" fill="#cccccc" stroke="none" stroke-width="0" stroke-linecap="butt" stroke-linejoin="miter"/><path d="M222.32647,179.52064l-4.42147,-14h1.78852l4.42146,14z" fill-opacity="0.40392" fill="#cccccc" stroke="none" stroke-width="0" stroke-linecap="butt" stroke-linejoin="miter"/><path d="M190.905,190.435v-36h54v36zM229.905,179.435v-14h-24v14z" fill="#e5f0b9" stroke="#666666" stroke-width="2" stroke-linecap="butt" stroke-linejoin="round"/><path d="M202.08848,172.66672l-4.28862,13.85189h-4.93247v-13.90454h11.42856" fill="none" stroke="#ab7f5c" stroke-width="2" stroke-linecap="butt" stroke-linejoin="round"/><path d="M207.02845,187.46815v-8.45036h7.09163l-0.0167,-11.02478l-0.00047,19.40733" fill="none" stroke="#a1724b" stroke-width="2" stroke-linecap="butt" stroke-linejoin="round"/><path d="M206.78742,177.10391h5.84942" fill="none" stroke="#5e5e5e" stroke-width="2" stroke-linecap="round" stroke-linejoin="miter"/><path d="M235.26528,168.41525h7.64714v6.01568h-7.63532" fill="none" stroke="#7e5733" stroke-width="2" stroke-linecap="butt" stroke-linejoin="miter"/><path d="M242.91241,174.43093v6.01568h-7.63532" fill="none" stroke="#7e5733" stroke-width="2" stroke-linecap="butt" stroke-linejoin="miter"/><path d="M242.91241,180.44661v6.01568h-7.63532" fill="none" stroke="#7e5733" stroke-width="2" stroke-linecap="butt" stroke-linejoin="miter"/></g><path d="M190.905,190.435v-19.62h54v19.62z" fill="url(#color-1)" stroke="none" stroke-width="1" stroke-linecap="butt" stroke-linejoin="miter"/><text transform="translate(201.265,201.895) scale(0.23,0.23)" font-size="40" xml:space="preserve" fill="#ffffff" stroke="none" stroke-width="1" stroke-linecap="butt" stroke-linejoin="miter" font-family="Sans Serif" font-weight="400" text-anchor="start"><tspan x="0" dy="0">3,000G</tspan></text><text transform="translate(259.725,161.015) scale(0.23,0.23)" font-size="40" xml:space="preserve" fill="#eeeeee" stroke="none" stroke-width="1" stroke-linecap="butt" stroke-linejoin="miter" font-family="Sans Serif" font-weight="400" text-anchor="start"><tspan x="0" dy="0">500G</tspan></text><text transform="translate(259.725,171.865) scale(0.23,0.23)" font-size="40" xml:space="preserve" fill="#eeeeee" stroke="none" stroke-width="1" stroke-linecap="butt" stroke-linejoin="miter" font-family="Sans Serif" font-weight="400" text-anchor="start"><tspan x="0" dy="0">70G</tspan></text><text transform="translate(259.725,193.565) scale(0.23,0.23)" font-size="40" xml:space="preserve" fill="#eeeeee" stroke="none" stroke-width="1" stroke-linecap="butt" stroke-linejoin="miter" font-family="Sans Serif" font-weight="400" text-anchor="start"><tspan x="0" dy="0">-2</tspan></text><text transform="translate(191.905,186.975) scale(0.21,0.21)" font-size="40" xml:space="preserve" fill="#ffffff" stroke="none" stroke-width="1" stroke-linecap="butt" stroke-linejoin="miter" font-family="Sans Serif" font-weight="400" text-anchor="start"><tspan x="0" dy="0">オフィス</tspan></text><path d="M254.295,186.785c0.32,-0.29 0.47,-0.2 0.33,0.21l-0.87,2.69c-0.13,0.42 0.09,0.86 0.51,0.99l0.32,0.1c0.41,0.13 0.49,0.48 0.17,0.77l-3.61,3.35c-0.32,0.29 -0.47,0.2 -0.33,-0.21l0.87,-2.69c0.13,-0.42 -0.09,-0.86 -0.51,-0.99l-0.31,-0.1c-0.41,-0.13 -0.49,-0.48 -0.17,-0.77z" fill="#eeeeee" stroke="#eeeeee" stroke-width="0.65" stroke-linecap="butt" stroke-linejoin="miter"/><path d="M191.855,200.155l-0.95,-2.39l5.74,-2.29l0.95,2.39zM255.835,159.085l-0.04,3.17l-0.94,-0.33l-0.55,-1.77l-1.56,1.03l-3.15,-1.11l1.97,-2.49z" fill="#ffffff" stroke="#ffffff" stroke-width="1.25" stroke-linecap="butt" stroke-linejoin="round"/><path d="M194.725,199.015l1.55,3.88M255.115,154.335l-1.41,3.99" fill="none" stroke="#ffffff" stroke-width="1.25" stroke-linecap="round" stroke-linejoin="miter"/><path d="M253.445,166.095c0.03,-0.02 0.09,-0.01 0.09,0.03l0.27,1.13c0,0 0.67,0.49 0.87,0.84c0.34,0.58 0.35,1.05 0.35,1.05c0,0 0.75,0.22 0.87,0.82c0.13,0.6 -0.34,1.73 -2.31,2.13c-1.98,0.39 -3.57,-0.15 -4.31,-1.35c-0.75,-1.2 0.43,-2.63 0.37,-2.55l-0.22,-1.89c-0.01,-0.04 0.04,-0.07 0.09,-0.05l1.27,0.83c0,0 0.47,-0.18 0.97,-0.2c0.29,-0.02 0.55,0 0.79,0.04z" fill="#eeeeee" stroke="#eeeeee" stroke-width="0.65" stroke-linecap="butt" stroke-linejoin="miter"/><path d="M256.945,169.305c-0.49,0.4 -1.25,0.41 -1.25,0.41M256.805,170.485c-0.66,0.05 -1.07,-0.15 -1.07,-0.15M248.495,169.275c0,0 0.91,0.29 1.27,0.62M249.795,170.265c-0.45,0.18 -1.23,0.06 -1.23,0.06" fill="none" stroke="#eeeeee" stroke-width="0.65" stroke-linecap="round" stroke-linejoin="miter"/></g></g></svg>