<svg version="1.1" xmlns="http://www.w3.org/2000/svg" xmlns:xlink="http://www.w3.org/1999/xlink" width="1136.78933" height="330.00001" viewBox="0,0,1136.78933,330.00001"><g transform="translate(275.85619,0)"><g stroke="none" stroke-width="0" stroke-miterlimit="10"><path d="M-275.85619,330.00001l309.10736,-288.98615l309.10737,288.98615z" fill-opacity="0.74902" fill="#4f4f4f" stroke-linecap="butt"/><path d="M-189.19426,330.00001l311.52375,-291.57049l184.34133,84.9612l204.21985,206.60929z" fill-opacity="0.96863" fill="#6b6b6b" stroke-linecap="butt"/><path d="M160.84821,330.00001l350.04247,-327.25659l350.04247,327.25659z" fill-opacity="0.96863" fill="#999999" stroke-linecap="butt"/><path d="M-42.89675,112.32755l23.31971,6.35764l60.66278,-8.19801l67.34448,-0.33461l-74.20201,-70.43596z" fill="#bfbfbf" stroke-linecap="round"/><path d="M33.25117,121.352l40.57301,21.77007l97.40872,-20.26125l95.59646,18.53689l40.38509,-17.98164l-41.12637,-56.4708l-41.27884,-5.61134l-30.43209,-46.6993l-33.61505,-14.63463z" fill="#eaeaea" stroke-linecap="round"/><path d="M376.59337,127.93779l40.70351,8.62181l43.04107,-12.71717l100.1271,17.89026l50.72578,-10.34617l45.75944,6.25081l-145.88654,-137.30235l-38.03573,10.67372z" fill="#e4e4e4" stroke-linecap="round"/></g></g></svg>