<svg version="1.1" xmlns="http://www.w3.org/2000/svg" xmlns:xlink="http://www.w3.org/1999/xlink" width="235.72551" height="36.00004" viewBox="0,0,235.72551,36.00004"><g transform="translate(-4.7189,-324.68573)"><g data-paper-data="{&quot;isPaintingLayer&quot;:true}" stroke-miterlimit="10" stroke-dasharray="" stroke-dashoffset="0" style="mix-blend-mode: normal"><path d="M240.44441,331.9734v21.42611c0,4.01796 -3.26688,7.28624 -7.28765,7.28624h-21.44288c-4.01656,0 -7.28624,-3.26828 -7.28624,-7.28624v-21.42751c0,-4.01796 3.26969,-7.28624 7.28624,-7.28624h21.44288c4.02078,0 7.28765,3.26969 7.28765,7.28765z" fill="#808080" fill-rule="nonzero" stroke="none" stroke-width="1" stroke-linecap="butt" stroke-linejoin="miter"/><path d="M68.55649,360.68578v-35.99999h72.03354v35.99999z" fill="#808080" fill-rule="nonzero" stroke="none" stroke-width="0" stroke-linecap="butt" stroke-linejoin="miter"/><path d="M186.41925,360.68577v-35.99999h36.01677v35.99999z" fill="#808080" fill-rule="nonzero" stroke="none" stroke-width="0" stroke-linecap="butt" stroke-linejoin="miter"/><path d="M40.73567,331.97337v21.42611c0,4.01796 -3.26688,7.28624 -7.28765,7.28624h-21.44288c-4.01656,0 -7.28624,-3.26828 -7.28624,-7.28624v-21.42751c0,-4.01796 3.26969,-7.28624 7.28624,-7.28624h21.44288c4.02078,0 7.28765,3.26969 7.28765,7.28765z" fill="#808080" fill-rule="nonzero" stroke="none" stroke-width="1" stroke-linecap="butt" stroke-linejoin="miter"/><path d="M158.59841,331.97342v21.42611c0,4.01796 -3.26688,7.28624 -7.28765,7.28624h-21.44288c-4.01656,0 -7.28624,-3.26828 -7.28624,-7.28624v-21.42751c0,-4.01796 3.26969,-7.28624 7.28624,-7.28624h21.44288c4.02078,0 7.28765,3.26969 7.28765,7.28765z" fill="#808080" fill-rule="nonzero" stroke="none" stroke-width="1" stroke-linecap="butt" stroke-linejoin="miter"/><path d="M86.56488,331.97339v21.42611c0,4.01796 -3.26688,7.28624 -7.28765,7.28624h-21.44288c-4.01656,0 -7.28624,-3.26828 -7.28624,-7.28624v-21.42751c0,-4.01796 3.26969,-7.28624 7.28624,-7.28624h21.44288c4.02078,0 7.28765,3.26969 7.28765,7.28765z" fill="#808080" fill-rule="nonzero" stroke="none" stroke-width="1" stroke-linecap="butt" stroke-linejoin="miter"/><path d="M204.42764,331.97342v21.42611c0,4.01796 -3.26688,7.28624 -7.28765,7.28624h-21.44288c-4.01656,0 -7.28624,-3.26828 -7.28624,-7.28624v-21.42751c0,-4.01796 3.26969,-7.28624 7.28624,-7.28624h21.44288c4.02078,0 7.28765,3.26969 7.28765,7.28765z" fill="#808080" fill-rule="nonzero" stroke="none" stroke-width="1" stroke-linecap="butt" stroke-linejoin="miter"/><path d="M122.58165,331.97342v21.42611c0,4.01796 -3.26688,7.28624 -7.28765,7.28624h-21.44288c-4.01656,0 -7.28624,-3.26828 -7.28624,-7.28624v-21.42751c0,-4.01796 3.26969,-7.28624 7.28624,-7.28624h21.44288c4.02078,0 7.28765,3.26969 7.28765,7.28765z" fill="#808080" fill-rule="nonzero" stroke="none" stroke-width="1" stroke-linecap="butt" stroke-linejoin="miter"/><path d="M100.62749,334.27398v4.60641c0.13919,1.7415 -0.57471,3.42471 -1.84213,4.34561c-1.26743,0.9209 -2.87023,0.9209 -4.13849,0c-1.26743,-0.9209 -1.98133,-2.60412 -1.84213,-4.34561v-4.60641z" fill="none" fill-rule="nonzero" stroke="#ffffff" stroke-width="3" stroke-linecap="butt" stroke-linejoin="miter"/><path d="M108.48464,334.27398v4.60641c0.13919,1.7415 -0.57471,3.42471 -1.84213,4.34561c-1.26743,0.9209 -2.87023,0.9209 -4.13849,0c-1.26743,-0.9209 -1.98133,-2.60412 -1.84213,-4.34561v-4.60641z" fill="none" fill-rule="nonzero" stroke="#ffffff" stroke-width="3" stroke-linecap="butt" stroke-linejoin="miter"/><path d="M116.34178,334.27398v4.60641c0.13919,1.7415 -0.57471,3.42471 -1.84213,4.34561c-1.26743,0.9209 -2.87023,0.9209 -4.13849,0c-1.26743,-0.9209 -1.98133,-2.60412 -1.84213,-4.34561v-4.60641z" fill="none" fill-rule="nonzero" stroke="#ffffff" stroke-width="3" stroke-linecap="butt" stroke-linejoin="miter"/><path d="M92.78754,351.09758v-16.82353h23.57143v16.82353z" fill="none" fill-rule="nonzero" stroke="#ffffff" stroke-width="4" stroke-linecap="butt" stroke-linejoin="round"/><path d="M144.27623,333.16625c0.74415,-0.69215 1.08898,-0.4631 0.77616,0.506l-2.03537,6.30559c-0.3178,0.98457 0.21695,2.00821 1.18328,2.32085l0.74217,0.24012c0.97172,0.31441 1.14834,1.125 0.40655,1.81443l-8.44875,7.85225c-0.74448,0.69191 -1.08958,0.4627 -0.77675,-0.50642l2.03538,-6.30559c0.3178,-0.98457 -0.21607,-2.00756 -1.1813,-2.31943l-0.74133,-0.23955c-0.97063,-0.31362 -1.14661,-1.12378 -0.40514,-1.81342z" fill="#ffffff" fill-rule="evenodd" stroke="#ffffff" stroke-width="2" stroke-linecap="butt" stroke-linejoin="miter"/><path d="M229.20762,347.39996h3.60314" fill="none" fill-rule="nonzero" stroke="#ffffff" stroke-width="4" stroke-linecap="round" stroke-linejoin="miter"/><path d="M234.06584,350.42697l-3.13937,-7.80796" fill="none" fill-rule="nonzero" stroke="#ffffff" stroke-width="4" stroke-linecap="round" stroke-linejoin="miter"/><path d="M213.32535,349.79198h9.11382" fill="none" fill-rule="nonzero" stroke="#ffffff" stroke-width="4" stroke-linecap="round" stroke-linejoin="miter"/><path d="M225.97914,344.55941h-15.17294v-8.90187h8.63693l2.91431,8.90822" fill="none" fill-rule="nonzero" stroke="#ffffff" stroke-width="3" stroke-linecap="round" stroke-linejoin="miter"/><path d="M176.31851,352.78653v-16.66752h8.33376v8.33376h8.33376v8.33376z" fill="none" fill-rule="nonzero" stroke="#ffffff" stroke-width="3" stroke-linecap="butt" stroke-linejoin="round"/><path d="M194.43556,339.88627v-10.43359M199.65235,334.66947h-10.4336" fill="none" fill-rule="nonzero" stroke="#ffffff" stroke-width="3" stroke-linecap="round" stroke-linejoin="round"/><path d="M31.06106,334.35204l-16.66752,16.66752M14.39354,334.35204l16.66752,16.66752" fill="none" fill-rule="nonzero" stroke="#ffffff" stroke-width="4" stroke-linecap="round" stroke-linejoin="round"/><path d="M62.58914,352.60553v-10.22976h-4.2624l10.22975,-10.22976l10.22975,10.22976h-4.2624v10.22976h-11.93471" fill="none" fill-rule="nonzero" stroke="#ffffff" stroke-width="4" stroke-linecap="round" stroke-linejoin="round"/></g></g></svg>