<svg version="1.1" xmlns="http://www.w3.org/2000/svg" xmlns:xlink="http://www.w3.org/1999/xlink" width="108.5" height="61.5" viewBox="0,0,108.5,61.5"><defs><linearGradient x1="217.905" y1="170.805" x2="217.905" y2="186.075" gradientUnits="userSpaceOnUse" id="color-1"><stop offset="0" stop-color="#666666" stop-opacity="0"/><stop offset="1" stop-color="#666666"/></linearGradient></defs><g transform="translate(-185.905,-149.125)"><g stroke-miterlimit="10"><path d="M290.655,152.875v54h-101v-54z" fill="#333333" fill-rule="nonzero" stroke="#333333" stroke-width="7.5" stroke-linecap="butt" stroke-linejoin="round"/><g stroke-linecap="butt"><path d="M190.905,190.435v-36h54v36z" fill="#d1b1c3" fill-rule="nonzero" stroke="#666666" stroke-width="2" stroke-linejoin="round"/><g fill="#000000" fill-rule="evenodd" stroke="none" stroke-width="0.25" stroke-linejoin="miter" font-family="&quot;Helvetica Neue&quot;, Helvetica, Arial, sans-serif" font-weight="400" font-size="16" text-anchor="start"><g/><g/></g><path d="M215.905,175.21349v12.25466h-24v-12.25466z" fill="#b9a15d" fill-rule="nonzero" stroke="none" stroke-width="0" stroke-linejoin="miter"/><path d="M191.905,175.21349v-2h24.55901v2z" fill="#9d884f" fill-rule="nonzero" stroke="none" stroke-width="0" stroke-linejoin="miter"/><g fill-rule="nonzero" stroke="#4d4d4d" stroke-width="1" stroke-linejoin="miter"><path d="M196.45883,155.83155v2.51355c0.07595,0.95027 -0.3136,1.86874 -1.00518,2.37124c-0.69159,0.5025 -1.56618,0.5025 -2.25822,0c-0.69159,-0.5025 -1.08114,-1.42097 -1.00518,-2.37124v-2.51355z" fill="#ffffff"/><path d="M205.03355,155.83155v2.51355c0.07595,0.95027 -0.3136,1.86874 -1.00518,2.37124c-0.69159,0.5025 -1.56618,0.5025 -2.25822,0c-0.69159,-0.5025 -1.08114,-1.42097 -1.00518,-2.37124v-2.51355z" fill="#ffffff"/><path d="M213.60826,155.83155v2.51355c0.07595,0.95027 -0.3136,1.86874 -1.00518,2.37124c-0.69159,0.5025 -1.56618,0.5025 -2.25822,0c-0.69159,-0.5025 -1.08114,-1.42097 -1.00518,-2.37124v-2.51355z" fill="#ffffff"/><path d="M222.18297,155.83155v2.51355c0.07595,0.95027 -0.3136,1.86874 -1.00518,2.37124c-0.69159,0.5025 -1.56618,0.5025 -2.25822,0c-0.69159,-0.5025 -1.08114,-1.42097 -1.00518,-2.37124v-2.51355z" fill="#ffffff"/><path d="M230.75768,155.83155v2.51355c0.07595,0.95027 -0.3136,1.86874 -1.00518,2.37124c-0.69159,0.5025 -1.56618,0.5025 -2.25822,0c-0.69159,-0.5025 -1.08114,-1.42097 -1.00518,-2.37124v-2.51355z" fill="#ffffff"/><path d="M239.3324,155.83155v2.51355c0.07595,0.95027 -0.3136,1.86874 -1.00518,2.37124c-0.69159,0.5025 -1.56618,0.5025 -2.25822,0c-0.69159,-0.5025 -1.08114,-1.42097 -1.00518,-2.37124v-2.51355z" fill="#ffffff"/><path d="M200.74619,155.83155v2.51355c0.07595,0.95027 -0.31359,1.86874 -1.00518,2.37124c-0.69159,0.5025 -1.56618,0.5025 -2.25822,0c-0.69159,-0.5025 -1.08114,-1.42097 -1.00518,-2.37124v-2.51355z" fill="#26a926"/><path d="M209.3209,155.83155v2.51355c0.07595,0.95027 -0.31359,1.86874 -1.00518,2.37124c-0.69159,0.5025 -1.56618,0.5025 -2.25822,0c-0.69159,-0.5025 -1.08114,-1.42097 -1.00518,-2.37124v-2.51355z" fill="#26a926"/><path d="M217.89562,155.83155v2.51355c0.07595,0.95027 -0.31359,1.86874 -1.00518,2.37124c-0.69159,0.5025 -1.56618,0.5025 -2.25822,0c-0.69159,-0.5025 -1.08114,-1.42097 -1.00518,-2.37124v-2.51355z" fill="#26a926"/><path d="M226.47033,155.83155v2.51355c0.07595,0.95027 -0.31359,1.86874 -1.00518,2.37124c-0.69159,0.5025 -1.56618,0.5025 -2.25822,0c-0.69159,-0.5025 -1.08114,-1.42097 -1.00518,-2.37124v-2.51355z" fill="#26a926"/><path d="M235.04504,155.83155v2.51355c0.07595,0.95027 -0.31359,1.86874 -1.00518,2.37124c-0.69159,0.5025 -1.56618,0.5025 -2.25822,0c-0.69159,-0.5025 -1.08114,-1.42097 -1.00518,-2.37124v-2.51355z" fill="#26a926"/><path d="M243.61975,155.83155v2.51355c0.07595,0.95027 -0.31359,1.86874 -1.00518,2.37124c-0.69159,0.5025 -1.56618,0.5025 -2.25822,0c-0.69159,-0.5025 -1.08114,-1.42097 -1.00518,-2.37124v-2.51355z" fill="#26a926"/></g><path d="M243.905,165.05875v22.4094h-8.08371v-22.4094z" fill="#7e5733" fill-rule="nonzero" stroke="none" stroke-width="0" stroke-linejoin="miter"/><path d="M224.39812,165.05875v22.4094h-8.08371v-22.4094z" fill="#7e5733" fill-rule="nonzero" stroke="none" stroke-width="0" stroke-linejoin="miter"/></g><path d="M254.675,178.975l-1.96,2.07l-1.96,-2.07" fill="none" fill-rule="nonzero" stroke="#eeeeee" stroke-width="4" stroke-linecap="round" stroke-linejoin="miter"/><path d="M190.905,190.435v-19.62h54v19.62z" fill="url(#color-1)" fill-rule="nonzero" stroke="none" stroke-width="1" stroke-linecap="butt" stroke-linejoin="miter"/><text transform="translate(201.265,201.895) scale(0.23,0.23)" font-size="40" xml:space="preserve" fill="#ffffff" fill-rule="nonzero" stroke="none" stroke-width="1" stroke-linecap="butt" stroke-linejoin="miter" font-family="Sans Serif" font-weight="400" text-anchor="start"><tspan x="0" dy="0">40,000G</tspan></text><text transform="translate(259.725,161.015) scale(0.23,0.23)" font-size="40" xml:space="preserve" fill="#eeeeee" fill-rule="nonzero" stroke="none" stroke-width="1" stroke-linecap="butt" stroke-linejoin="miter" font-family="Sans Serif" font-weight="400" text-anchor="start"><tspan x="0" dy="0">2,500G</tspan></text><text transform="translate(259.725,171.865) scale(0.23,0.23)" font-size="40" xml:space="preserve" fill="#eeeeee" fill-rule="nonzero" stroke="none" stroke-width="1" stroke-linecap="butt" stroke-linejoin="miter" font-family="Sans Serif" font-weight="400" text-anchor="start"><tspan x="0" dy="0">300G</tspan></text><text transform="translate(259.725,182.715) scale(0.23,0.23)" font-size="40" xml:space="preserve" fill="#eeeeee" fill-rule="nonzero" stroke="none" stroke-width="1" stroke-linecap="butt" stroke-linejoin="miter" font-family="Sans Serif" font-weight="400" text-anchor="start"><tspan x="0" dy="0">5%</tspan></text><text transform="translate(259.725,193.565) scale(0.23,0.23)" font-size="40" xml:space="preserve" fill="#eeeeee" fill-rule="nonzero" stroke="none" stroke-width="1" stroke-linecap="butt" stroke-linejoin="miter" font-family="Sans Serif" font-weight="400" text-anchor="start"><tspan x="0" dy="0">-5</tspan></text><text transform="translate(191.905,186.975) scale(0.21,0.21)" font-size="40" xml:space="preserve" fill="#ffffff" fill-rule="nonzero" stroke="none" stroke-width="1" stroke-linecap="butt" stroke-linejoin="miter" font-family="Sans Serif" font-weight="400" text-anchor="start"><tspan x="0" dy="0">売店</tspan></text><path d="M254.295,186.785c0.32,-0.29 0.47,-0.2 0.33,0.21l-0.87,2.69c-0.13,0.42 0.09,0.86 0.51,0.99l0.32,0.1c0.41,0.13 0.49,0.48 0.17,0.77l-3.61,3.35c-0.32,0.29 -0.47,0.2 -0.33,-0.21l0.87,-2.69c0.13,-0.42 -0.09,-0.86 -0.51,-0.99l-0.31,-0.1c-0.41,-0.13 -0.49,-0.48 -0.17,-0.77z" fill="#eeeeee" fill-rule="nonzero" stroke="#eeeeee" stroke-width="0.65" stroke-linecap="butt" stroke-linejoin="miter"/><path d="M191.855,200.155l-0.95,-2.39l5.74,-2.29l0.95,2.39zM255.835,159.085l-0.04,3.17l-0.94,-0.33l-0.55,-1.77l-1.56,1.03l-3.15,-1.11l1.97,-2.49z" fill="#ffffff" fill-rule="nonzero" stroke="#ffffff" stroke-width="1.25" stroke-linecap="butt" stroke-linejoin="round"/><path d="M194.725,199.015l1.55,3.88M255.115,154.335l-1.41,3.99" fill="none" fill-rule="nonzero" stroke="#ffffff" stroke-width="1.25" stroke-linecap="round" stroke-linejoin="miter"/><path d="M253.445,166.095c0.03,-0.02 0.09,-0.01 0.09,0.03l0.27,1.13c0,0 0.67,0.49 0.87,0.84c0.34,0.58 0.35,1.05 0.35,1.05c0,0 0.75,0.22 0.87,0.82c0.13,0.6 -0.34,1.73 -2.31,2.13c-1.98,0.39 -3.57,-0.15 -4.31,-1.35c-0.75,-1.2 0.43,-2.63 0.37,-2.55l-0.22,-1.89c-0.01,-0.04 0.04,-0.07 0.09,-0.05l1.27,0.83c0,0 0.47,-0.18 0.97,-0.2c0.29,-0.02 0.55,0 0.79,0.04z" fill="#eeeeee" fill-rule="nonzero" stroke="#eeeeee" stroke-width="0.65" stroke-linecap="butt" stroke-linejoin="miter"/><path d="M256.945,169.305c-0.49,0.4 -1.25,0.41 -1.25,0.41M256.805,170.485c-0.66,0.05 -1.07,-0.15 -1.07,-0.15M248.495,169.275c0,0 0.91,0.29 1.27,0.62M249.795,170.265c-0.45,0.18 -1.23,0.06 -1.23,0.06" fill="none" fill-rule="nonzero" stroke="#eeeeee" stroke-width="0.65" stroke-linecap="round" stroke-linejoin="miter"/><text transform="translate(196.51457,208.46654) scale(0.11803,0.11803)" font-size="40" xml:space="preserve" fill="#cccccc" fill-rule="nonzero" stroke="none" stroke-width="1" stroke-linecap="butt" stroke-linejoin="miter" font-family="Sans Serif" font-weight="400" text-anchor="start"><tspan x="0" dy="0">Lv.2</tspan></text><path d="M192.39673,206.48984c0.35371,-0.09488 0.62995,-0.37113 0.72483,-0.72484l0.2162,-0.80411c0.10269,-0.38013 0.64197,-0.38013 0.74406,0l0.21679,0.80411c0.09488,0.35371 0.37113,0.62996 0.72423,0.72484l0.80411,0.21619c0.38013,0.10269 0.38013,0.64196 0,0.74465l-0.80411,0.2162c-0.35311,0.09488 -0.62935,0.37113 -0.72423,0.72423l-0.21679,0.80411c-0.10209,0.38013 -0.64137,0.38013 -0.74406,0l-0.2162,-0.80411c-0.09488,-0.35311 -0.37112,-0.62935 -0.72483,-0.72423l-0.80411,-0.2162c-0.38013,-0.10269 -0.38013,-0.64196 0,-0.74465z" fill="#cccccc" fill-rule="evenodd" stroke="none" stroke-width="1" stroke-linecap="butt" stroke-linejoin="miter"/></g></g></svg>