<svg version="1.1" xmlns="http://www.w3.org/2000/svg" xmlns:xlink="http://www.w3.org/1999/xlink" width="56" height="38" viewBox="0,0,56,38"><g transform="translate(-212,-161)"><g data-paper-data="{&quot;isPaintingLayer&quot;:true}" fill-rule="nonzero" stroke-miterlimit="10" stroke-dasharray="" stroke-dashoffset="0" style="mix-blend-mode: normal"><path d="M213,198v-36h54v36z" fill="#88c1b8" stroke="#666666" stroke-width="2" stroke-linecap="butt" stroke-linejoin="round"/><g stroke-linejoin="miter"><path d="M216.10357,194.69606v-24.80427h14.95482v24.80427z" fill="#d42a2a" stroke="#666666" stroke-width="1" stroke-linecap="butt"/><path d="M218.1041,183.91571v-11.49287h10.95375v11.49287z" fill="#ffffff" stroke="none" stroke-width="0" stroke-linecap="butt"/><path d="M220.32005,176.18137h6.52184" fill="none" stroke="#e6e6e6" stroke-width="1" stroke-linecap="round"/><path d="M220.32005,180.29318h6.52184" fill="none" stroke="#e6e6e6" stroke-width="1" stroke-linecap="round"/><path d="M218.1041,188.85324v-3.43828h4.74778v3.43828z" fill="#666666" stroke="none" stroke-width="0" stroke-linecap="butt"/><path d="M229.05784,186.7443c0,0.86665 -0.90453,1.56921 -2.02033,1.56921c-1.1158,0 -2.02033,-0.70256 -2.02033,-1.56921c0,-0.86665 0.90453,-1.56921 2.02033,-1.56921c1.1158,0 2.02033,0.70256 2.02033,1.56921z" fill="#585858" stroke="none" stroke-width="0" stroke-linecap="butt"/><path d="M225.26551,189.28302h3.544" fill="none" stroke="#666666" stroke-width="1" stroke-linecap="round"/><path d="M218.1041,192.5314v-1.46046h10.95375v1.46046z" fill="#666666" stroke="none" stroke-width="0" stroke-linecap="butt"/></g><g stroke-linejoin="miter"><path d="M232.52259,194.69606v-24.80427h14.95482v24.80427z" fill="#e8dc50" stroke="#666666" stroke-width="1" stroke-linecap="butt"/><path d="M234.52312,183.91571v-11.49287h10.95375v11.49287z" fill="#ffffff" stroke="none" stroke-width="0" stroke-linecap="butt"/><path d="M236.73908,176.18137h6.52184" fill="none" stroke="#e6e6e6" stroke-width="1" stroke-linecap="round"/><path d="M236.73908,180.29318h6.52184" fill="none" stroke="#e6e6e6" stroke-width="1" stroke-linecap="round"/><path d="M234.52312,188.85324v-3.43828h4.74778v3.43828z" fill="#666666" stroke="none" stroke-width="0" stroke-linecap="butt"/><path d="M245.47687,186.7443c0,0.86665 -0.90453,1.56921 -2.02033,1.56921c-1.1158,0 -2.02033,-0.70256 -2.02033,-1.56921c0,-0.86665 0.90453,-1.56921 2.02033,-1.56921c1.1158,0 2.02033,0.70256 2.02033,1.56921z" fill="#585858" stroke="none" stroke-width="0" stroke-linecap="butt"/><path d="M241.68454,189.28302h3.544" fill="none" stroke="#666666" stroke-width="1" stroke-linecap="round"/><path d="M234.52312,192.5314v-1.46046h10.95375v1.46046z" fill="#666666" stroke="none" stroke-width="0" stroke-linecap="butt"/></g><g stroke-linejoin="miter"><path d="M248.94162,194.69606v-24.80427h14.95482v24.80427z" fill="#436bc5" stroke="#666666" stroke-width="1" stroke-linecap="butt"/><path d="M250.94215,183.91571v-11.49287h10.95375v11.49287z" fill="#ffffff" stroke="none" stroke-width="0" stroke-linecap="butt"/><path d="M253.1581,176.18137h6.52184" fill="none" stroke="#e6e6e6" stroke-width="1" stroke-linecap="round"/><path d="M253.1581,180.29318h6.52184" fill="none" stroke="#e6e6e6" stroke-width="1" stroke-linecap="round"/><path d="M250.94215,188.85324v-3.43828h4.74778v3.43828z" fill="#666666" stroke="none" stroke-width="0" stroke-linecap="butt"/><path d="M261.89589,186.7443c0,0.86665 -0.90453,1.56921 -2.02033,1.56921c-1.1158,0 -2.02033,-0.70256 -2.02033,-1.56921c0,-0.86665 0.90453,-1.56921 2.02033,-1.56921c1.1158,0 2.02033,0.70256 2.02033,1.56921z" fill="#585858" stroke="none" stroke-width="0" stroke-linecap="butt"/><path d="M258.10356,189.28302h3.544" fill="none" stroke="#666666" stroke-width="1" stroke-linecap="round"/><path d="M250.94215,192.5314v-1.46046h10.95375v1.46046z" fill="#666666" stroke="none" stroke-width="0" stroke-linecap="butt"/></g><path d="M214,197.03315v-2h52v2z" fill="#cccccc" stroke="none" stroke-width="0" stroke-linecap="butt" stroke-linejoin="miter"/></g></g></svg>