<svg version="1.1" xmlns="http://www.w3.org/2000/svg" xmlns:xlink="http://www.w3.org/1999/xlink" width="370.90183" height="31.35784" viewBox="0,0,370.90183,31.35784"><g transform="translate(-62.93281,-71.95458)"><g fill-opacity="0.00392" fill="#808080" stroke="none" stroke-miterlimit="10"><path d="M94.30524,78.30249v18.66322c0,3.49985 -2.8456,6.34668 -6.3479,6.34668h-18.67784c-3.49863,0 -6.34668,-2.84684 -6.34668,-6.34668v-18.66445c0,-3.49985 2.84806,-6.34668 6.34668,-6.34668h18.67784c3.5023,0 6.3479,2.84807 6.3479,6.34791z"/><path d="M130.44029,78.30249v18.66322c0,3.49985 -2.8456,6.34668 -6.3479,6.34668h-18.67784c-3.49863,0 -6.34668,-2.84684 -6.34668,-6.34668v-18.66444c0,-3.49985 2.84807,-6.34668 6.34668,-6.34668h18.67784c3.5023,0 6.3479,2.84807 6.3479,6.34791z"/><path d="M166.56869,78.30252v18.66322c0,3.49985 -2.84561,6.34668 -6.3479,6.34668h-18.67783c-3.49863,0 -6.34668,-2.84684 -6.34668,-6.34668v-18.66444c0,-3.49985 2.84806,-6.34668 6.34668,-6.34668h18.67783c3.5023,0 6.3479,2.84806 6.3479,6.3479z"/><path d="M202.71052,78.3025v18.66322c0,3.49985 -2.84561,6.34668 -6.3479,6.34668h-18.67784c-3.49863,0 -6.34668,-2.84684 -6.34668,-6.34668v-18.66444c0,-3.49985 2.84806,-6.34668 6.34668,-6.34668h18.67784c3.5023,0 6.3479,2.84806 6.3479,6.3479z"/><path d="M397.70624,78.30249v18.66322c0,3.49985 -2.84561,6.34668 -6.34791,6.34668h-18.67783c-3.49863,0 -6.34668,-2.84684 -6.34668,-6.34668v-18.66445c0,-3.49985 2.84807,-6.34668 6.34668,-6.34668h18.67783c3.5023,0 6.34791,2.84806 6.34791,6.3479z"/><path d="M433.83465,78.3025v18.66322c0,3.49985 -2.84561,6.34668 -6.34791,6.34668h-18.67783c-3.49863,0 -6.34668,-2.84684 -6.34668,-6.34668v-18.66444c0,-3.49985 2.84807,-6.34668 6.34668,-6.34668h18.67783c3.5023,0 6.34791,2.84806 6.34791,6.3479z"/></g></g></svg>