<svg version="1.1" xmlns="http://www.w3.org/2000/svg" xmlns:xlink="http://www.w3.org/1999/xlink" width="480" height="385.85903" viewBox="0,0,480,385.85903"><g transform="translate(-0.00002,25.85903)"><g stroke-miterlimit="10"><path d="M0.00002,360v-385.85903h480v385.85903z" fill-opacity="0.6" fill="#000000" stroke="none" stroke-width="0" stroke-linecap="butt"/><path d="M460.18091,37.67956v284.6424c0,4.35428 -3.54033,7.89613 -7.89765,7.89613h-424.56797c-4.35276,0 -7.89613,-3.54185 -7.89613,-7.89613v-284.64392c0,-4.35428 3.54337,-7.89613 7.89613,-7.89613h424.56797c4.35733,0 7.89765,3.54337 7.89765,7.89765z" fill-opacity="0.70196" fill="#404040" stroke="#808080" stroke-width="4" stroke-linecap="butt"/><path d="M460.18091,37.67956v23.0605h-440.36175v-23.06202c0,-4.35428 3.54337,-7.89613 7.89613,-7.89613h424.56797c4.35733,0 7.89765,3.54337 7.89765,7.89765z" fill="#808080" stroke="none" stroke-width="0" stroke-linecap="butt"/><text transform="translate(24.73198,51.26099) scale(0.5,0.5)" font-size="40" xml:space="preserve" fill="#ffffff" stroke="none" stroke-width="1" stroke-linecap="butt" font-family="Sans Serif" font-weight="normal" text-anchor="start"><tspan x="0" dy="0">画像選択</tspan></text><g fill="none" stroke="#ffffff" stroke-width="2.5" stroke-linecap="round"><path d="M437.65773,38.42816l13.66564,13.66564"/><path d="M437.65772,52.09381l13.66565,-13.66565"/></g></g></g></svg>