<svg version="1.1" xmlns="http://www.w3.org/2000/svg" xmlns:xlink="http://www.w3.org/1999/xlink" width="56" height="38" viewBox="0,0,56,38"><g transform="translate(-212,-161)"><g stroke-miterlimit="10"><path d="M213,198v-36h54v36z" fill="#59422d" fill-rule="nonzero" stroke="#666666" stroke-width="2" stroke-linecap="butt" stroke-linejoin="round"/><path d="M214,197.03318v-2h52v2z" fill="#cccccc" fill-rule="nonzero" stroke="none" stroke-width="0" stroke-linecap="butt" stroke-linejoin="miter"/><g fill-rule="evenodd" stroke-width="0.25"><path d="M257.628,171.00224c0.49383,-0.08588 1.00912,-0.12882 1.61029,-0.08588c1.00911,0.04294 1.97528,0.40794 1.97528,0.40794l2.59793,-1.69617c0.08588,-0.04294 0.19323,0.02147 0.17176,0.10735l-0.45088,3.84321c-0.12882,-0.17177 2.27587,2.74822 0.75147,5.19585c-1.5244,2.44763 -4.76644,3.54263 -8.80289,2.74822c-4.03644,-0.79441 -4.98115,-3.11322 -4.7235,-4.33704c0.25765,-1.22382 1.78205,-1.6747 1.78205,-1.6747c0,0 0.02147,-0.96617 0.70853,-2.14705c0.40794,-0.70853 1.78205,-1.71764 1.78205,-1.71764l0.55823,-2.29734c0.02147,-0.08588 0.12882,-0.10735 0.19323,-0.06441z" fill="#ffab19" stroke="#001026" stroke-linecap="butt" stroke-linejoin="miter"/><path d="M252.60391,175.59691c1.82499,-0.40794 1.99676,0.9447 3.54263,1.05205c1.80352,0.12882 4.27263,-1.82499 5.71115,0.47235c1.43852,2.27587 -1.03059,5.36761 -6.22644,4.29409c-3.9935,-0.77293 -5.02409,-2.98439 -4.76644,-4.20821c0.25765,-1.22382 1.73911,-1.61029 1.73911,-1.61029z" fill="#ffffff" stroke="none" stroke-linecap="butt" stroke-linejoin="miter"/><path d="M259.36713,177.89424c0.06441,1.05206 -0.12883,2.42617 -2.08264,2.64087c-2.2544,0.12882 -3.07028,-1.48147 -3.26351,-2.06117c-0.04294,-0.10735 0.04294,-0.2147 0.15029,-0.19323c0.32206,0.06441 1.00911,0.12882 2.16852,0.06441c1.28823,-0.08588 2.44763,-0.42941 2.85557,-0.5797c0.08588,-0.02147 0.17176,0.04294 0.17176,0.12882z" fill="#ffffff" stroke="#001026" stroke-linecap="round" stroke-linejoin="round"/><path d="M251.20834,176.67043c0,0 -1.54588,-0.02147 -2.55499,-0.83735" fill="none" stroke="#001026" stroke-linecap="round" stroke-linejoin="round"/><path d="M251.12246,177.93718c0,0 -0.83735,0.40794 -2.18999,0.30059" fill="none" stroke="#001026" stroke-linecap="round" stroke-linejoin="round"/><path d="M256.23242,176.09071c0.42941,0 1.00911,0.02147 0.98764,0.27912c0,0.34353 -0.90176,0.88029 -1.28823,0.83735c-0.34352,-0.02147 -0.66558,-0.62264 -0.64411,-0.92323c0.02147,-0.15029 0.49382,-0.19323 0.9447,-0.19323z" fill="#001026" stroke="#001026" stroke-linecap="round" stroke-linejoin="round"/><path d="M263.29621,177.03543c0.75147,-0.66559 2.59793,-1.26676 2.59793,-1.26676" fill="none" stroke="#001026" stroke-linecap="round" stroke-linejoin="round"/><path d="M265.74385,177.91571c0,0 -1.58882,0.23618 -2.51205,-0.12882" fill="none" stroke="#001026" stroke-linecap="round" stroke-linejoin="round"/><g><path d="M255.93184,172.5481c0.60117,0.38646 0.5797,1.48146 -0.04294,2.44763c-0.64412,0.96617 -1.63176,1.41705 -2.23293,1.03058c-0.60117,-0.38646 -0.5797,-1.48146 0.04294,-2.44763c0.62264,-0.96617 1.63176,-1.43852 2.23293,-1.03058z" fill="#ffffff" stroke="#001026" stroke-linecap="round" stroke-linejoin="round"/><path d="M253.78479,174.80249c0,-0.23618 0.17177,-0.42941 0.38647,-0.42941c0.21471,0 0.38647,0.19323 0.38647,0.42941c0,0.23618 -0.17177,0.42941 -0.38647,0.42941c-0.21471,0 -0.38647,-0.19323 -0.38647,-0.42941" fill="#001026" stroke="none" stroke-linecap="butt" stroke-linejoin="miter"/></g><g><path d="M261.3424,173.21368c0.66559,0.47235 0.62264,1.69617 -0.04294,2.64087c-0.64411,0.9447 -1.58881,1.24529 -2.29734,0.83735c-0.5797,-0.40794 -0.62264,-1.56735 0.02147,-2.51205c0.64411,-0.9447 1.65323,-1.45999 2.31881,-0.96617z" fill="#ffffff" stroke="#001026" stroke-linecap="round" stroke-linejoin="round"/><path d="M259.15241,175.42514c0,-0.23618 0.17177,-0.40794 0.38647,-0.42941c0.21471,0 0.38647,0.19323 0.38647,0.42941c0,0.23618 -0.17177,0.42941 -0.38647,0.42941c-0.21471,0 -0.38647,-0.19323 -0.38647,-0.42941" fill="#001026" stroke="none" stroke-linecap="butt" stroke-linejoin="miter"/></g></g><path d="M266,182.77849v12.25466h-16.89244v-12.25466z" fill="#b9a15d" fill-rule="nonzero" stroke="none" stroke-width="0" stroke-linecap="butt" stroke-linejoin="miter"/><path d="M248.54855,182.77849v-2h17.45145v2z" fill="#9d884f" fill-rule="nonzero" stroke="none" stroke-width="0" stroke-linecap="butt" stroke-linejoin="miter"/><path d="M225.31105,170.86015v24.173h-11.31105v-24.173z" fill="#d94141" fill-rule="nonzero" stroke="none" stroke-width="0" stroke-linecap="butt" stroke-linejoin="miter"/><path d="M224.56866,174.29127v15.00267h-9.82627v-15.00267z" fill="#9ccccc" fill-rule="nonzero" stroke="#808080" stroke-width="1.5" stroke-linecap="butt" stroke-linejoin="miter"/><path d="M214.74239,181.7926h9.82627" fill="none" fill-rule="nonzero" stroke="#808080" stroke-width="1.5" stroke-linecap="round" stroke-linejoin="miter"/><path d="M215.81211,188.55549l0.45687,-4.26403h1.44836l0.45686,4.26403z" fill="#80460d" fill-rule="nonzero" stroke="none" stroke-width="0" stroke-linecap="butt" stroke-linejoin="miter"/><path d="M216.16976,185.17718c0.25349,0.03805 1.35824,0.03368 1.63681,-0.01259l0.11927,1.1131c-0.33077,-0.06627 -1.59623,-0.0778 -1.87045,-0.03303z" fill="#800d0d" fill-rule="nonzero" stroke="none" stroke-width="0" stroke-linecap="butt" stroke-linejoin="miter"/><path d="M218.47448,188.55549l0.45687,-4.26403h1.44836l0.45686,4.26403z" fill="#80460d" fill-rule="nonzero" stroke="none" stroke-width="0" stroke-linecap="butt" stroke-linejoin="miter"/><path d="M218.83213,185.17718c0.25349,0.03805 1.35824,0.03368 1.63681,-0.01259l0.11927,1.1131c-0.33077,-0.06627 -1.59623,-0.0778 -1.87045,-0.03303z" fill="#800d0d" fill-rule="nonzero" stroke="none" stroke-width="0" stroke-linecap="butt" stroke-linejoin="miter"/><path d="M221.13684,188.55549l0.45687,-4.26403h1.44836l0.45686,4.26403z" fill="#80460d" fill-rule="nonzero" stroke="none" stroke-width="0" stroke-linecap="butt" stroke-linejoin="miter"/><path d="M221.49449,185.17718c0.25349,0.03805 1.35824,0.03368 1.63681,-0.01259l0.11926,1.1131c-0.33077,-0.06627 -1.59623,-0.0778 -1.87045,-0.03303z" fill="#800d0d" fill-rule="nonzero" stroke="none" stroke-width="0" stroke-linecap="butt" stroke-linejoin="miter"/><path d="M215.81211,181.0386l0.45687,-4.26403h1.44836l0.45686,4.26403z" fill="#27632b" fill-rule="nonzero" stroke="none" stroke-width="0" stroke-linecap="butt" stroke-linejoin="miter"/><path d="M216.16976,177.66029c0.25349,0.03805 1.35824,0.03368 1.63681,-0.01259l0.11927,1.11309c-0.33077,-0.06627 -1.59623,-0.0778 -1.87045,-0.03303z" fill="#22ad99" fill-rule="nonzero" stroke="none" stroke-width="0" stroke-linecap="butt" stroke-linejoin="miter"/><path d="M218.47448,181.0386l0.45687,-4.26403h1.44836l0.45686,4.26403z" fill="#27632b" fill-rule="nonzero" stroke="none" stroke-width="0" stroke-linecap="butt" stroke-linejoin="miter"/><path d="M218.83213,177.66029c0.25349,0.03805 1.35824,0.03368 1.63681,-0.01259l0.11927,1.11309c-0.33077,-0.06627 -1.59623,-0.0778 -1.87045,-0.03303z" fill="#22ad99" fill-rule="nonzero" stroke="none" stroke-width="0" stroke-linecap="butt" stroke-linejoin="miter"/><path d="M221.13684,181.0386l0.45687,-4.26403h1.44836l0.45686,4.26403z" fill="#27632b" fill-rule="nonzero" stroke="none" stroke-width="0" stroke-linecap="butt" stroke-linejoin="miter"/><path d="M221.49449,177.66029c0.25349,0.03805 1.35824,0.03368 1.63681,-0.01259l0.11926,1.11309c-0.33077,-0.06627 -1.59623,-0.0778 -1.87045,-0.03303z" fill="#22ad99" fill-rule="nonzero" stroke="none" stroke-width="0" stroke-linecap="butt" stroke-linejoin="miter"/><path d="M242.20348,188.44998v6.58317h-16.89244v-6.58317z" fill="#b9a15d" fill-rule="nonzero" stroke="none" stroke-width="0" stroke-linecap="butt" stroke-linejoin="miter"/><path d="M225.31105,188.44998v-2h17.45145v2z" fill="#9d884f" fill-rule="nonzero" stroke="none" stroke-width="0" stroke-linecap="butt" stroke-linejoin="miter"/><path d="M238.41575,182.7194l-0.72479,1.13445l-1.16597,-0.91387" fill="none" fill-rule="nonzero" stroke="#9d7a21" stroke-width="1.5" stroke-linecap="round" stroke-linejoin="miter"/><path d="M235.4063,183.38116l0.55147,1.30777l3.78151,-1.33929" fill="none" fill-rule="nonzero" stroke="#9d7a21" stroke-width="1.5" stroke-linecap="round" stroke-linejoin="miter"/><path d="M235.38248,186.44998l-0.93401,-2.56435h6.00915l-0.93401,2.56435z" fill="#915d35" fill-rule="nonzero" stroke="none" stroke-width="0" stroke-linecap="butt" stroke-linejoin="miter"/><path d="M230.82792,184.97318l-0.43118,-2.05075l2.38997,-0.50251l0.43118,2.05075z" fill="#611c1c" fill-rule="nonzero" stroke="none" stroke-width="0" stroke-linecap="butt" stroke-linejoin="miter"/><path d="M229.37317,185.37949l0.60663,-2.7705l2.15483,0.47182l-0.60663,2.7705z" fill="#782323" fill-rule="nonzero" stroke="none" stroke-width="0" stroke-linecap="butt" stroke-linejoin="miter"/><path d="M228.24516,185.33842l-0.62543,-2.76632l2.15158,-0.48644l0.62543,2.76632z" fill="#a22f2f" fill-rule="nonzero" stroke="none" stroke-width="0" stroke-linecap="butt" stroke-linejoin="miter"/><path d="M228.32618,186.44998l-0.93401,-2.56436h6.00915l-0.93401,2.56436z" fill="#915d35" fill-rule="nonzero" stroke="none" stroke-width="0" stroke-linecap="butt" stroke-linejoin="miter"/></g></g></svg>