<svg version="1.1" xmlns="http://www.w3.org/2000/svg" xmlns:xlink="http://www.w3.org/1999/xlink" width="108.5" height="61.5" viewBox="0,0,108.5,61.5"><defs><linearGradient x1="217.905" y1="170.805" x2="217.905" y2="186.075" gradientUnits="userSpaceOnUse" id="color-1"><stop offset="0" stop-color="#666666" stop-opacity="0"/><stop offset="1" stop-color="#666666"/></linearGradient></defs><g transform="translate(-185.905,-149.125)"><g stroke-miterlimit="10"><path d="M290.655,152.875v54h-101v-54z" fill="#333333" stroke="#333333" stroke-width="7.5" stroke-linecap="butt" stroke-linejoin="round"/><g><path d="M190.905,190.435v-36h54v36z" fill="#afbcbb" stroke="#666666" stroke-width="2" stroke-linecap="butt" stroke-linejoin="round"/><path d="M190.905,165.46223v-11.02723h11.02723v11.02723z" fill="#ccc0ad" stroke="#666666" stroke-width="2" stroke-linecap="butt" stroke-linejoin="round"/><path d="M238.17139,186.46815v-5.51612h3.22495v5.51612z" fill="#608080" stroke="#666666" stroke-width="2" stroke-linecap="butt" stroke-linejoin="round"/><path d="M231.5732,186.46815v-4.367h6.59819v4.367z" fill="#99938a" stroke="#666666" stroke-width="2" stroke-linecap="butt" stroke-linejoin="round"/><path d="M216.80178,186.46815v-17.93954h11.17018v17.93954z" fill="#ccc4b8" stroke="#666666" stroke-width="2" stroke-linecap="butt" stroke-linejoin="round"/><path d="M205.6316,186.46815v-17.93954h11.17018v17.93954z" fill="#ccc4b8" stroke="#666666" stroke-width="2" stroke-linecap="butt" stroke-linejoin="round"/><path d="M194.19043,161.13391c0,-1.23137 2.22819,-4.59878 2.22819,-4.59878c0,0 2.22819,3.36742 2.22819,4.59878c0,1.23137 -0.99682,2.22819 -2.22819,2.22819c-1.23137,0 -2.22819,-0.99682 -2.22819,-2.22819z" fill="#99ffff" stroke="#99ffff" stroke-width="0.5" stroke-linecap="butt" stroke-linejoin="miter"/><path d="M239.42982,154.435l0.05034,15.20036c0,2.94992 -2.39848,5.34943 -5.35046,5.34943h-6.15773" fill="none" stroke="#666666" stroke-width="3.5" stroke-linecap="butt" stroke-linejoin="miter"/><path d="M228.34824,185.2813h3.22495" fill="none" stroke="#666666" stroke-width="1.5" stroke-linecap="round" stroke-linejoin="miter"/><path d="M196.9689,187.83298l-0.05034,-7.49876c0,-2.94992 2.39848,-5.34943 5.35046,-5.34943h3.33885" fill="none" stroke="#666666" stroke-width="3.5" stroke-linecap="butt" stroke-linejoin="miter"/></g><path d="M190.905,190.435v-19.62h54v19.62z" fill="url(#color-1)" stroke="none" stroke-width="1" stroke-linecap="butt" stroke-linejoin="miter"/><text transform="translate(201.265,201.895) scale(0.23,0.23)" font-size="40" xml:space="preserve" fill="#ffffff" stroke="none" stroke-width="1" stroke-linecap="butt" stroke-linejoin="miter" font-family="Sans Serif" font-weight="400" text-anchor="start"><tspan x="0" dy="0">38,000G</tspan></text><text transform="translate(259.725,161.015) scale(0.23,0.23)" font-size="40" xml:space="preserve" fill="#eeeeee" stroke="none" stroke-width="1" stroke-linecap="butt" stroke-linejoin="miter" font-family="Sans Serif" font-weight="400" text-anchor="start"><tspan x="0" dy="0">420G</tspan></text><text transform="translate(259.725,193.565) scale(0.23,0.23)" font-size="40" xml:space="preserve" fill="#eeeeee" stroke="none" stroke-width="1" stroke-linecap="butt" stroke-linejoin="miter" font-family="Sans Serif" font-weight="400" text-anchor="start"><tspan x="0" dy="0">-3</tspan></text><text transform="translate(259.725,204.415) scale(0.23,0.23)" font-size="40" xml:space="preserve" fill="#eeeeee" stroke="none" stroke-width="1" stroke-linecap="butt" stroke-linejoin="miter" font-family="Sans Serif" font-weight="400" text-anchor="start"><tspan x="0" dy="0">+30</tspan></text><text transform="translate(191.905,186.975) scale(0.21,0.21)" font-size="40" xml:space="preserve" fill="#ffffff" stroke="none" stroke-width="1" stroke-linecap="butt" stroke-linejoin="miter" font-family="Sans Serif" font-weight="400" text-anchor="start"><tspan x="0" dy="0">小さな給水室</tspan></text><path d="M254.295,186.785c0.32,-0.29 0.47,-0.2 0.33,0.21l-0.87,2.69c-0.13,0.42 0.09,0.86 0.51,0.99l0.32,0.1c0.41,0.13 0.49,0.48 0.17,0.77l-3.61,3.35c-0.32,0.29 -0.47,0.2 -0.33,-0.21l0.87,-2.69c0.13,-0.42 -0.09,-0.86 -0.51,-0.99l-0.31,-0.1c-0.41,-0.13 -0.49,-0.48 -0.17,-0.77zM250.055,203.115c0,-1.47 2.66,-5.49 2.66,-5.49c0,0 2.66,4.02 2.66,5.49c0,1.47 -1.19,2.66 -2.66,2.66c-1.47,0 -2.66,-1.19 -2.66,-2.66z" fill="#eeeeee" stroke="#eeeeee" stroke-width="0.65" stroke-linecap="butt" stroke-linejoin="miter"/><path d="M191.855,200.155l-0.95,-2.39l5.74,-2.29l0.95,2.39zM255.835,159.085l-0.04,3.17l-0.94,-0.33l-0.55,-1.77l-1.56,1.03l-3.15,-1.11l1.97,-2.49z" fill="#ffffff" stroke="#ffffff" stroke-width="1.25" stroke-linecap="butt" stroke-linejoin="round"/><path d="M194.725,199.015l1.55,3.88M255.115,154.335l-1.41,3.99" fill="none" stroke="#ffffff" stroke-width="1.25" stroke-linecap="round" stroke-linejoin="miter"/></g></g></svg>