<svg version="1.1" xmlns="http://www.w3.org/2000/svg" xmlns:xlink="http://www.w3.org/1999/xlink" width="168.8995" height="186.34449" viewBox="0,0,168.8995,186.34449"><g transform="translate(-158.09835,-75.89821)"><g data-paper-data="{&quot;isPaintingLayer&quot;:true}" fill-rule="nonzero" stroke="none" stroke-linecap="butt" stroke-linejoin="miter" stroke-miterlimit="10" stroke-dasharray="" stroke-dashoffset="0" style="mix-blend-mode: normal"><path d="M306.11177,96.78429v-20.88608h20.88608v20.88608z" fill-opacity="0.74902" fill="#959da6" stroke-width="0"/><path d="M321.91452,240.58953v15.38738c0,3.45524 -2.80935,6.26579 -6.267,6.26579h-64.20307c-3.45403,0 -6.26579,-2.81055 -6.26579,-6.26579v-15.38859c0,-3.45524 2.81176,-6.26579 6.26579,-6.26579h64.20307c3.45766,0 6.267,2.81176 6.267,6.267z" fill-opacity="0.74902" fill="#959da6" stroke-width="1"/><path d="M164.36535,234.32253h64.20308c3.45403,0 6.26579,2.81055 6.26579,6.26579v15.38859c0,3.45524 -2.81176,6.26579 -6.26579,6.26579h-64.20308c-3.45765,0 -6.267,-2.81055 -6.267,-6.26579v-15.38738c0,-3.45524 2.80934,-6.267 6.267,-6.267z" data-paper-data="{&quot;index&quot;:null}" fill-opacity="0.74902" fill="#959da6" stroke-width="1"/></g></g></svg>