<svg version="1.1" xmlns="http://www.w3.org/2000/svg" xmlns:xlink="http://www.w3.org/1999/xlink" width="56.00534" height="38" viewBox="0,0,56.00534,38"><g transform="translate(-211.99466,-161)"><g stroke-miterlimit="10"><path d="M213,198v-36h54v36z" fill="#bfbdac" stroke="#666666" stroke-width="2" stroke-linecap="butt" stroke-linejoin="round"/><path d="M253.15471,186.33395l-6.29996,6.37807" fill="none" stroke="#59531f" stroke-width="1.5" stroke-linecap="round" stroke-linejoin="miter"/><path d="M252.12509,175.08931l-5.27034,8.93489" fill="none" stroke="#59531f" stroke-width="1.5" stroke-linecap="round" stroke-linejoin="miter"/><path d="M252.12509,186.33395l-5.27034,-8.9349" fill="none" stroke="#80772d" stroke-width="1.5" stroke-linecap="round" stroke-linejoin="miter"/><path d="M246.85475,187.43857l5.27034,2.92899" fill="none" stroke="#80772d" stroke-width="1.5" stroke-linecap="round" stroke-linejoin="miter"/><path d="M246.85475,185.03229l5.27034,7.74156" fill="none" stroke="#a69b3a" stroke-width="1.5" stroke-linecap="round" stroke-linejoin="miter"/><path d="M246.85475,183.77965l5.27034,-2.92899" fill="none" stroke="#a69b3a" stroke-width="1.5" stroke-linecap="round" stroke-linejoin="miter"/><path d="M214,197.03315v-2h52v2z" fill="#cccccc" stroke="none" stroke-width="0" stroke-linecap="butt" stroke-linejoin="miter"/><path d="M213,173.02723v-11.02723h11.02723v11.02723z" fill="#ccc0ad" stroke="#666666" stroke-width="2" stroke-linecap="butt" stroke-linejoin="round"/><path d="M252.12509,194.09848v-21.07125h11.02723v21.07125z" fill="#353535" stroke="#666666" stroke-width="2" stroke-linecap="butt" stroke-linejoin="round"/><path d="M229.92471,194.03315v-18.88498h16.93005v18.88498z" fill="#c0b3a8" stroke="#666666" stroke-width="2" stroke-linecap="butt" stroke-linejoin="round"/><path d="M212.99466,194.03315v-18.88498h16.93004v18.88498z" fill="#c0b3a8" stroke="#666666" stroke-width="2" stroke-linecap="butt" stroke-linejoin="round"/><path d="M236.8242,190.91434v-12.64736h3.13107v12.64736z" fill="#807773" stroke="#807773" stroke-width="1.5" stroke-linecap="butt" stroke-linejoin="round"/><path d="M219.89415,190.91434v-12.64736h3.13107v12.64736z" fill="#807773" stroke="#807773" stroke-width="1.5" stroke-linecap="butt" stroke-linejoin="round"/><path d="M231.94144,190.91434v-12.64736h3.13107v12.64736z" fill="#807773" stroke="#807773" stroke-width="1.5" stroke-linecap="butt" stroke-linejoin="round"/><path d="M215.0114,190.91434v-12.64736h3.13107v12.64736z" fill="#807773" stroke="#807773" stroke-width="1.5" stroke-linecap="butt" stroke-linejoin="round"/><path d="M241.70695,190.91434v-12.64736h3.13107v12.64736z" fill="#807773" stroke="#807773" stroke-width="1.5" stroke-linecap="butt" stroke-linejoin="round"/><path d="M224.7769,190.91434v-12.64736h3.13107v12.64736z" fill="#807773" stroke="#807773" stroke-width="1.5" stroke-linecap="butt" stroke-linejoin="round"/><path d="M261.47057,173.02723v-11.02723" fill="none" stroke="#666666" stroke-width="2" stroke-linecap="round" stroke-linejoin="miter"/><path d="M258.86726,173.02723v-11.02723" fill="none" stroke="#666666" stroke-width="2" stroke-linecap="round" stroke-linejoin="miter"/><path d="M256.26396,173.02723v-11.02723" fill="none" stroke="#666666" stroke-width="2" stroke-linecap="round" stroke-linejoin="miter"/><path d="M219.82875,164.11689c0.26806,-0.24293 0.3937,-0.16754 0.27643,0.17591l-0.72877,2.25332c-0.10889,0.35182 0.07539,0.7204 0.42721,0.82929l0.26806,0.08376c0.34345,0.10889 0.41046,0.40207 0.1424,0.645l-3.02398,2.80618c-0.26806,0.24293 -0.3937,0.16754 -0.27643,-0.17591l0.72877,-2.25332c0.10889,-0.35182 -0.07539,-0.7204 -0.42721,-0.82929l-0.25968,-0.08376c-0.34345,-0.10889 -0.41046,-0.40207 -0.1424,-0.645z" fill="#fff599" stroke="#fff599" stroke-width="0.5" stroke-linecap="butt" stroke-linejoin="miter"/></g></g></svg>