<svg version="1.1" xmlns="http://www.w3.org/2000/svg" xmlns:xlink="http://www.w3.org/1999/xlink" width="56" height="38" viewBox="0,0,56,38"><defs><radialGradient cx="226.19658" cy="176.35221" r="12" gradientUnits="userSpaceOnUse" id="color-1"><stop offset="0" stop-color="#fff266" stop-opacity="0.30196"/><stop offset="1" stop-color="#fff266" stop-opacity="0"/></radialGradient><radialGradient cx="253.80342" cy="176.35221" r="12" gradientUnits="userSpaceOnUse" id="color-2"><stop offset="0" stop-color="#fff266" stop-opacity="0.30196"/><stop offset="1" stop-color="#fff266" stop-opacity="0"/></radialGradient><radialGradient cx="240" cy="182.90462" r="12" gradientUnits="userSpaceOnUse" id="color-3"><stop offset="0" stop-color="#fff266" stop-opacity="0.30196"/><stop offset="1" stop-color="#fff266" stop-opacity="0"/></radialGradient></defs><g transform="translate(-212,-161.04333)"><g stroke-miterlimit="10"><path d="M213,198.04333v-36h54v36z" fill="#2b2c50" stroke="#666666" stroke-width="2" stroke-linecap="butt" stroke-linejoin="round"/><path d="M214,197.03315v-2h52v2z" fill="#cccccc" stroke="none" stroke-width="0" stroke-linecap="butt" stroke-linejoin="miter"/><path d="M220.53419,184.31652v-15.92862h11.32478v15.92862z" fill="#342356" stroke="none" stroke-width="0" stroke-linecap="butt" stroke-linejoin="miter"/><path d="M248.14103,184.31652v-15.92862h11.32478v15.92862z" fill="#454d3c" stroke="none" stroke-width="0" stroke-linecap="butt" stroke-linejoin="miter"/><path d="M237.40247,194.39213v-9.10256h5.25641v9.10256z" fill="#a66a11" stroke="#a66a11" stroke-width="1.5" stroke-linecap="butt" stroke-linejoin="miter"/><path d="M238.84698,184.31652h2.30605" fill="none" stroke="#840f0f" stroke-width="1.5" stroke-linecap="round" stroke-linejoin="miter"/><path d="M238.5881,182.90462l1.4119,-1.4119l1.4119,1.4119l-1.4119,1.4119z" fill="#40afdc" stroke="none" stroke-width="0" stroke-linecap="butt" stroke-linejoin="miter"/><path d="M242.65888,180v5.28956h-5.25641v-5.28956z" fill="none" stroke="#404040" stroke-width="1.5" stroke-linecap="butt" stroke-linejoin="miter"/><path d="M253.3259,179.72037c-0.27562,-0.13288 -0.36692,-0.35693 0.00731,-0.66111c0.03707,-0.30122 0.11661,-0.62862 0.21724,-0.9327c-0.30065,-0.13491 -0.37213,-0.38272 0.22296,-0.72277c0.00303,-0.00513 0.00615,-0.01021 0.00935,-0.01522c-0.21081,-0.0275 -0.00593,-0.25223 1.15365,-0.83833c0.50781,-0.33904 1.56207,-0.5506 2.10975,-0.49698c0.68849,-0.19018 1.61381,-0.0706 1.84474,0.32218c0.00212,-0.00002 0.00423,-0.00004 0.00635,-0.00004c0.10892,0 0.20971,0.03483 0.29183,0.09396c0.51153,0.06903 0.36661,4.53332 0.00273,4.77621c0.13604,0.41773 -0.03246,0.91949 -0.87145,1.07698c-0.04826,0.01551 -0.09972,0.02389 -0.15312,0.02389c-0.05295,0 -0.10398,-0.00823 -0.15187,-0.02348c-0.09873,0.06211 -0.21286,0.11976 -0.33722,0.17154c-0.4773,0.19872 -1.10515,0.3109 -1.59035,0.25625c-0.47851,0.13153 -0.95968,0.18815 -1.0596,0.01328c-0.14737,-0.08697 -0.24624,-0.2474 -0.24624,-0.43091c0,-0.03469 0.00353,-0.06857 0.01026,-0.10127c-0.74721,-0.2165 -1.93285,-1.29056 -1.34342,-1.92883c-0.05043,-0.15418 -0.10607,-0.37926 -0.12289,-0.58263z" fill="#5db085" stroke="none" stroke-width="0.5" stroke-linecap="butt" stroke-linejoin="miter"/><path d="M254.42986,168.90793l0.04764,0.07145c0.05079,0.07384 0.08226,0.16199 0.08711,0.25718c0.05275,0.07126 0.10329,0.14928 0.14956,0.23081c0.25842,-0.03909 0.30557,0.26349 0.23946,0.65349c0.02246,0.17287 -0.00296,0.32026 -0.09891,0.40548c-0.01817,0.05862 -0.03791,0.11731 -0.05897,0.17538c0.04137,0.07279 0.06499,0.15697 0.06499,0.24668c0,0.22015 -0.14229,0.40707 -0.33991,0.47383c0.21333,0.40763 0.12931,0.96473 -0.71581,1.13084c-0.00939,0.0031 -0.0189,0.00593 -0.02853,0.00848c-0.25201,0.52845 -0.82409,1.1273 -1.18824,0.88453c-0.05039,-0.00342 -0.09872,-0.01431 -0.14391,-0.03155c-0.04275,0.50148 -0.25958,0.93279 -0.65858,0.51644c-0.02545,-0.00751 -0.05007,-0.01698 -0.07366,-0.02825c-0.01576,0.15356 -0.10101,0.28653 -0.22379,0.36694c-0.11967,0.2632 -0.30098,0.37674 -0.50473,0.05023c-0.38463,0.38318 -0.95991,0.67697 -1.16977,0.30971c-0.0694,-0.04096 -0.12805,-0.09821 -0.17067,-0.16648c-0.03064,0.58472 -0.30194,1.13253 -0.75492,0.43044c-0.34965,0.01128 -0.2993,-6.10322 -0.2993,-6.10322c0,0 5.84093,-0.08895 5.84093,0.11759z" fill="#5d87b0" stroke="none" stroke-width="0.5" stroke-linecap="butt" stroke-linejoin="miter"/><path d="M252.06273,180.53489c0.45553,1.47837 4.47373,2.07293 5.54982,1.5937c0.68619,-0.30559 -0.73077,-2.28567 -0.9118,-3.49033c-1.09131,0.57384 -2.59318,0.40536 -4.00172,-0.13574c-0.0139,0.11096 -0.06418,0.21062 -0.13851,0.28667c-0.11209,0.50598 -0.75436,0.91306 -0.4978,1.74571zM258.38379,182.89505c-1.27208,1.48409 -6.57626,-0.28057 -7.25379,-1.98956c-0.12691,-0.32011 0.05917,-1.81712 0.43099,-2.5415c-0.27154,0.24766 -0.59504,0.40953 -0.91555,0.40502c-0.64898,-0.00911 -0.40467,-0.7086 0.02218,-1.3473c-0.16527,-0.11587 -0.32359,-0.23531 -0.47362,-0.35733c-0.66309,0.18537 -1.28379,0.05099 -0.67218,-0.62433c-1.18828,-1.27983 -1.31056,-2.64756 1.02886,-3.07916c0.01067,-0.01429 0.0221,-0.028 0.03421,-0.04105c-0.04429,-0.86516 0.38688,-2.05426 1.0254,-2.16792c0.4289,-0.07635 1.0689,0.55391 1.47436,1.21535c0.05582,-0.07607 0.10783,-0.14986 0.15132,-0.2205c1.13828,-1.84878 1.99624,-0.58906 2.22075,0.46403c1.46252,-0.31691 1.73193,0.15399 1.48697,0.63231c0.30077,0.0199 0.54579,0.30483 0.73638,0.70012c0.48194,-0.17964 1.04253,-0.407 1.46855,-0.38672c0.80578,0.03837 -0.05774,0.98019 -1.093,1.57105c0.05294,0.25761 0.08989,0.50783 0.11106,0.7252c0.522,0.12846 0.95898,0.4216 0.98782,0.87677c0.02413,0.38081 -0.53926,0.42527 -1.14531,0.33196c-0.15994,0.44868 -0.3839,0.80858 -0.6572,1.0905c0.72046,0.95869 1.72482,3.93455 1.03181,4.74306zM251.7051,176.38619c0.07826,-0.0508 0.17163,-0.08032 0.27188,-0.08032c0.27614,0 0.5,0.22386 0.5,0.5c0,0.18854 -0.10434,0.3527 -0.25844,0.43788c-0.00995,0.04919 -0.0224,0.0986 -0.03719,0.148c0.22851,0.04251 0.45658,0.06802 0.67479,0.0791c1.01097,0.05134 3.30784,0.22589 4.08602,-0.70311c-0.20331,-0.08691 -0.34193,-0.1763 -0.36228,-0.24864c-0.09213,-0.0907 -0.14925,-0.21684 -0.14925,-0.35634c0,-0.27614 0.22386,-0.5 0.5,-0.5c0.12608,0 0.24126,0.04666 0.32921,0.12366c-0.00734,-0.09555 -0.02416,-0.18982 -0.04838,-0.28247c-0.46313,0.14133 -0.87849,0.14047 -1.10557,-0.12025c-0.19546,-0.06796 -0.33574,-0.25379 -0.33574,-0.4724c0,-0.24499 0.1762,-0.44882 0.40878,-0.49169c0.10858,-0.0659 0.23055,-0.11153 0.36755,-0.15097c-0.10607,-0.1561 -0.19621,-0.29509 -0.24545,-0.41301c-0.41076,0.21204 -0.91289,0.24063 -1.2707,-0.18523c-0.57248,-0.07437 -0.61633,-1.36505 -0.71784,-1.32385c-0.52817,0.21436 -0.4887,1.23054 -1.10713,1.41932c-0.05254,0.01875 -0.10913,0.02897 -0.16812,0.02897c-0.27614,0 -0.5,-0.22386 -0.5,-0.5c0,-0.11202 0.03684,-0.21545 0.09907,-0.29881c-0.34448,-0.39651 -0.68425,-0.77696 -0.77107,-0.48288c-0.07422,0.25136 -0.19335,0.98696 -0.37898,1.28748c-0.00093,0.27534 -0.22443,0.49827 -0.5,0.49827c-0.1144,0 -0.21982,-0.03842 -0.30407,-0.10306c-0.34425,0.48449 -0.73681,1.10736 -0.60048,1.72599c0.14786,-0.13263 0.32463,-0.28702 0.3744,-0.30102c0.0907,-0.09213 0.21685,-0.14926 0.35634,-0.14926c0.27614,0 0.5,0.22386 0.5,0.5c0,0.08398 -0.0207,0.16312 -0.05728,0.2326c-0.02775,0.24712 -0.23304,0.46191 -0.50182,0.6232c0.07797,0.05546 0.15961,0.10684 0.2442,0.15434c0.2816,-0.33657 0.56727,-0.58773 0.70756,-0.59552z" fill="#3a3a3a" stroke="none" stroke-width="0.5" stroke-linecap="butt" stroke-linejoin="miter"/><path d="M252.51932,178.76087c0.07433,-0.07604 0.12791,-0.18 0.14182,-0.29097c1.40855,0.5411 2.98408,0.70725 4.07539,0.13341c0.18102,1.20466 1.60436,3.2466 0.91818,3.55219c-1.0761,0.47923 -5.18637,-0.13981 -5.64191,-1.61819c-0.25656,-0.83265 0.39444,-1.27047 0.50653,-1.77644z" fill="#afa25d" stroke="none" stroke-width="0.5" stroke-linecap="butt" stroke-linejoin="miter"/><path d="M250.95794,177.01223c-0.08459,-0.04749 -0.1685,-0.10206 -0.24647,-0.15752c0.26879,-0.16129 0.47176,-0.38001 0.49951,-0.62713c0.03658,-0.06948 0.05576,-0.15175 0.05576,-0.23573c0,-0.27614 -0.22728,-0.51095 -0.50342,-0.51095c-0.1395,0 -0.16764,0.03728 -0.25834,0.12941c-0.04978,0.014 -0.32361,0.19226 -0.47147,0.32489c-0.13633,-0.61863 0.25588,-1.26686 0.60013,-1.75135c0.08426,0.06464 0.18956,0.10353 0.30396,0.10353c0.27557,0 0.50338,-0.2345 0.50431,-0.50984c0.18562,-0.30052 0.31934,-1.05318 0.39356,-1.30455c0.08683,-0.29408 0.43303,0.08232 0.77752,0.47883c-0.06223,0.08336 -0.04752,0.27228 -0.04752,0.3843c0,0.27614 0.17171,0.41483 0.44785,0.41483c0.05899,0 0.12145,-0.01293 0.17399,-0.03169c0.61843,-0.18878 0.60931,-1.20681 1.13747,-1.42117c0.10151,-0.0412 0.16989,1.26413 0.74238,1.33849c0.35781,0.42586 0.86942,0.41225 1.28018,0.2002c0.04924,0.11792 0.14181,0.26457 0.24788,0.42067c-0.137,0.03943 -0.2587,0.0863 -0.36728,0.1522c-0.23259,0.04288 -0.40779,0.25617 -0.40779,0.50116c0,0.2186 0.13946,0.41399 0.33491,0.48195c0.22708,0.26073 0.54391,0.24456 1.00704,0.10323c0.02423,0.09265 0.13905,0.2064 0.14639,0.30195c-0.08795,-0.077 -0.20299,-0.1243 -0.32906,-0.1243c-0.27614,0 -0.50309,0.23325 -0.50309,0.50939c0,0.1395 0.05536,0.26922 0.14749,0.35992c0.02035,0.07234 0.15868,0.16225 0.36198,0.24916c-0.77819,0.929 -3.13374,0.77775 -4.14471,0.72641c-0.21821,-0.01109 -0.45696,-0.0414 -0.68547,-0.08391c0.01478,-0.0494 0.07937,-0.18414 0.08932,-0.23333c0.1541,-0.08518 0.20539,-0.16458 0.20539,-0.35312c0,-0.27614 -0.23593,-0.51066 -0.51207,-0.51066c-0.10026,0 -0.19501,0.02773 -0.27327,0.07853c-0.14029,0.00779 -0.42547,0.2596 -0.70707,0.59617z" fill="#afa25d" stroke="none" stroke-width="0.5" stroke-linecap="butt" stroke-linejoin="miter"/><path d="M248.14103,184.31652v-15.92862h11.32478v15.92862z" fill="none" stroke="#99620f" stroke-width="1.5" stroke-linecap="butt" stroke-linejoin="miter"/><path d="M231.71023,183.97209c-0.69499,0.72959 -9.94987,1.5292 -11.19134,-0.28232c-0.42151,-0.61506 -0.28994,-6.7413 -0.28767,-6.76063c0.13201,-2.13576 0.96645,-2.28385 1.47713,-1.77352c0.13369,-0.22566 0.35418,-0.37847 0.62433,-0.46999c1.10571,-0.37456 3.04313,0.27779 3.26366,1.16531c0.5077,0.19629 1.03803,0.53306 1.37544,0.86588c0.34709,-0.33601 0.80022,-0.69956 1.22246,-0.95405c0.17615,-1.30815 0.93993,-1.45963 1.47215,-1.1388c0.24025,-0.29718 0.50811,-0.38863 0.77848,-0.3432c1.08755,0.18274 1.70567,2.8503 1.66179,2.90648c0.41907,1.87276 0.10858,6.25467 -0.39643,6.78483z" fill="#0c6839" stroke="none" stroke-width="0.5" stroke-linecap="butt" stroke-linejoin="miter"/><path d="M227.92195,178.04879c0.65246,0.76042 -0.01217,3.27051 -0.74348,2.50213c-0.13786,0.29536 -0.51392,0.46962 -0.95168,0.52473c-0.08421,0.04712 -0.17189,0.05703 -0.2609,0.01864c-0.6579,0.01281 -1.37306,-0.22269 -1.61207,-0.7007c-0.02211,-0.04199 -0.12932,-0.48212 -0.14582,-0.9373c-0.01798,-0.49604 0.05866,-1.00995 0.13636,-1.04602c0.01793,-0.10396 0.08728,-0.21771 0.2214,-0.34019c0.04281,-0.16956 0.13925,-0.31778 0.27022,-0.42556c0.22826,-0.35793 0.4945,-0.53226 0.74903,-0.3002c0.16419,-0.08259 0.3907,-0.12089 0.68812,-0.08978c0.14604,0.01527 0.69337,0.20404 0.9675,0.459c0.02473,0.01886 0.04992,0.03908 0.0756,0.06069c0.20691,-0.01651 0.42212,0.06058 0.60572,0.27456z" fill="#a71414" stroke="none" stroke-width="0.5" stroke-linecap="butt" stroke-linejoin="miter"/><path d="M220.53419,184.31652v-15.92862h11.32478v15.92862z" fill="none" stroke="#99620f" stroke-width="1.5" stroke-linecap="butt" stroke-linejoin="miter"/><path d="M214.19658,176.35221c0,-6.62742 5.37258,-12 12,-12c6.62742,0 12,5.37258 12,12c0,6.62742 -5.37258,12 -12,12c-6.62742,0 -12,-5.37258 -12,-12z" fill="url(#color-1)" stroke="none" stroke-width="0" stroke-linecap="butt" stroke-linejoin="miter"/><path d="M241.80342,176.35221c0,-6.62742 5.37258,-12 12,-12c6.62742,0 12,5.37258 12,12c0,6.62742 -5.37258,12 -12,12c-6.62742,0 -12,-5.37258 -12,-12z" fill="url(#color-2)" stroke="none" stroke-width="0" stroke-linecap="butt" stroke-linejoin="miter"/><path d="M228,182.90462c0,-6.62742 5.37258,-12 12,-12c6.62742,0 12,5.37258 12,12c0,6.62742 -5.37258,12 -12,12c-6.62742,0 -12,-5.37258 -12,-12z" fill="url(#color-3)" stroke="none" stroke-width="0" stroke-linecap="butt" stroke-linejoin="miter"/></g></g></svg>