<svg version="1.1" xmlns="http://www.w3.org/2000/svg" xmlns:xlink="http://www.w3.org/1999/xlink" width="119.80338" height="109.97942" viewBox="0,0,119.80338,109.97942"><defs><linearGradient x1="240" y1="130.13322" x2="240" y2="214.18559" gradientUnits="userSpaceOnUse" id="color-1"><stop offset="0" stop-color="#6778f4"/><stop offset="1" stop-color="#96bcee"/></linearGradient><linearGradient x1="239.99999" y1="190.24904" x2="239.99999" y2="213.21874" gradientUnits="userSpaceOnUse" id="color-2"><stop offset="0" stop-color="#bf7a39"/><stop offset="1" stop-color="#99622e"/></linearGradient></defs><g transform="translate(-180.09831,-125.01029)"><g stroke-miterlimit="10"><path d="M186.71885,125.0103h106.56358c3.64888,0 6.61926,2.9691 6.61926,6.61926v96.74089c0,3.65016 -2.97038,6.61926 -6.61926,6.61926h-106.56358c-3.65271,0 -6.62054,-2.9691 -6.62054,-6.61926v-96.73962c0,-3.65016 2.96782,-6.62054 6.62054,-6.62054z" fill-opacity="0.74902" fill="#959da6" stroke="none" stroke-width="1" stroke-linejoin="miter"/><text transform="translate(183.96509,228.67163) scale(0.40239,0.40239)" font-size="40" xml:space="preserve" fill="#ffffff" stroke="none" stroke-width="1" stroke-linejoin="miter" font-family="Sans Serif" font-weight="normal" text-anchor="start"><tspan x="0" dy="0">草原</tspan></text><path d="M183.96509,214.18559v-84.05236h112.06981v84.05236z" fill="url(#color-1)" stroke="#949ca6" stroke-width="2" stroke-linejoin="round"/><path d="M184.96509,213.21874v-22.9697h110.0698v22.9697z" fill="url(#color-2)" stroke="none" stroke-width="0" stroke-linejoin="round"/><path d="M295.0349,181.70778v8.54126h-110.0698v-8.54126z" fill="#578a32" stroke="none" stroke-width="0" stroke-linejoin="round"/><path d="M295.0349,181.70778v6.48702h-110.0698v-6.48702z" fill="#6eaf3f" stroke="none" stroke-width="0" stroke-linejoin="round"/></g></g></svg>