<svg version="1.1" xmlns="http://www.w3.org/2000/svg" xmlns:xlink="http://www.w3.org/1999/xlink" width="492.99943" height="352.99943" viewBox="0,0,492.99943,352.99943"><g transform="translate(20,0)"><g stroke-miterlimit="10"><path d="M-20,4v-4h20v4z" fill="none" stroke="none" stroke-width="0" stroke-linecap="butt" stroke-linejoin="miter"/><path d="M161.55661,350.49943v-310.04072h308.94282v310.04072z" fill="#4d4d4d" stroke="#4d4d4d" stroke-width="5" stroke-linecap="butt" stroke-linejoin="round"/><path d="M146.4045,50.8615v11.05252c0,3.45524 -2.80935,6.26579 -6.267,6.26579h-121.77883c-3.45403,0 -6.26579,-2.81055 -6.26579,-6.26579v-11.05373c0,-3.45524 2.81176,-6.26579 6.26579,-6.26579h121.77883c3.45766,0 6.267,2.81176 6.267,6.267z" fill-opacity="0.30196" fill="#ffffff" stroke="none" stroke-width="1" stroke-linecap="butt" stroke-linejoin="miter"/><path d="M229.65913,81.88195h125" fill="none" stroke="#ffffff" stroke-width="11" stroke-linecap="round" stroke-linejoin="miter"/><text transform="translate(172.89321,66.83863) scale(0.41787,0.41787)" font-size="40" xml:space="preserve" fill="#ffffff" stroke="#ffffff" stroke-width="1" stroke-linecap="butt" stroke-linejoin="miter" font-family="Sans Serif" font-weight="normal" text-anchor="start"><tspan x="0" dy="0">音量</tspan></text><text transform="translate(172.89321,86.89639) scale(0.41787,0.41787)" font-size="40" xml:space="preserve" fill="#bfbfbf" stroke="none" stroke-width="1" stroke-linecap="butt" stroke-linejoin="miter" font-family="Sans Serif" font-weight="normal" text-anchor="start"><tspan x="0" dy="0">音楽</tspan></text><text transform="translate(172.89321,106.95415) scale(0.41787,0.41787)" font-size="40" xml:space="preserve" fill="#bfbfbf" stroke="none" stroke-width="1" stroke-linecap="butt" stroke-linejoin="miter" font-family="Sans Serif" font-weight="normal" text-anchor="start"><tspan x="0" dy="0">効果音</tspan></text><text transform="translate(172.89321,127.01191) scale(0.41787,0.41787)" font-size="40" xml:space="preserve" fill="#bfbfbf" stroke="none" stroke-width="1" stroke-linecap="butt" stroke-linejoin="miter" font-family="Sans Serif" font-weight="normal" text-anchor="start"><tspan x="0" dy="0">自然の音</tspan></text><path d="M246.37393,101.93971h125" fill="none" stroke="#ffffff" stroke-width="11" stroke-linecap="round" stroke-linejoin="miter"/><path d="M388.08873,121.99747h-125" fill="none" stroke="#ffffff" stroke-width="11" stroke-linecap="round" stroke-linejoin="miter"/></g></g></svg>