<svg version="1.1" xmlns="http://www.w3.org/2000/svg" xmlns:xlink="http://www.w3.org/1999/xlink" width="108.5" height="61.5" viewBox="0,0,108.5,61.5"><defs><radialGradient cx="221.252" cy="162.0969" r="5.76077" gradientUnits="userSpaceOnUse" id="color-1"><stop offset="0" stop-color="#ac8c4f"/><stop offset="1" stop-color="#ac8c4f" stop-opacity="0"/></radialGradient><radialGradient cx="203.81449" cy="162.0969" r="5.76077" gradientUnits="userSpaceOnUse" id="color-2"><stop offset="0" stop-color="#ac8c4f"/><stop offset="1" stop-color="#ac8c4f" stop-opacity="0"/></radialGradient><linearGradient x1="217.905" y1="170.805" x2="217.905" y2="186.075" gradientUnits="userSpaceOnUse" id="color-3"><stop offset="0" stop-color="#666666" stop-opacity="0"/><stop offset="1" stop-color="#666666"/></linearGradient></defs><g transform="translate(-185.905,-149.125)"><g stroke-miterlimit="10"><path d="M290.655,152.875v54h-101v-54z" fill="#333333" fill-rule="nonzero" stroke="#333333" stroke-width="7.5" stroke-linecap="butt" stroke-linejoin="round"/><g fill-rule="nonzero"><path d="M190.905,190.435v-36h54v36z" fill="#746343" stroke="#666666" stroke-width="2" stroke-linecap="butt" stroke-linejoin="round"/><path d="M218.41275,181.64956l-5.46457,-16.30757h3.97206l5.46456,16.30757z" fill="#ffffff" stroke="none" stroke-width="0" stroke-linecap="butt" stroke-linejoin="miter"/><path d="M214.20476,181.64956l-5.46456,-16.30757h2.21047l5.46456,16.30757z" fill="#ffffff" stroke="none" stroke-width="0" stroke-linecap="butt" stroke-linejoin="miter"/><path d="M199.61283,181.64956v-16.30757h23.72072v16.30757z" fill-opacity="0.70196" fill="#a3cccc" stroke="#666666" stroke-width="1.5" stroke-linecap="butt" stroke-linejoin="round"/><path d="M231.9299,187.46815v-20.40484h10.71723v20.40484z" fill="#6b4e1d" stroke="#666666" stroke-width="1.5" stroke-linecap="butt" stroke-linejoin="round"/><path d="M234.03168,176.50286v-6.77493h6.51366v6.77493z" fill="#9cd0db" stroke="#666666" stroke-width="1.5" stroke-linecap="butt" stroke-linejoin="round"/><path d="M235.69296,178.98269h-1.66127" fill="none" stroke="#666666" stroke-width="1.5" stroke-linecap="round" stroke-linejoin="miter"/><path d="M196.73484,187.46815h1.50257" fill="none" stroke="#cd9355" stroke-width="1.5" stroke-linecap="round" stroke-linejoin="miter"/><path d="M197.48612,177.34879v10.11936" fill="none" stroke="#cd9355" stroke-width="1.5" stroke-linecap="round" stroke-linejoin="miter"/><path d="M193.0362,177.34879h8.89983" fill="none" stroke="#cd9355" stroke-width="1.5" stroke-linecap="round" stroke-linejoin="miter"/><path d="M198.5166,172.86911l-1.21658,1.18761l-0.46345,-1.68004" fill="none" stroke="#2ea73c" stroke-width="1" stroke-linecap="round" stroke-linejoin="miter"/><path d="M197.66209,172.1884l-0.07242,2.15798l-1.0283,-1.34693" fill="none" stroke="#2ea73c" stroke-width="1" stroke-linecap="round" stroke-linejoin="miter"/><path d="M196.27906,176.77088v-2.9841h2.41412v2.9841z" fill="#6b6b6b" stroke="none" stroke-width="0" stroke-linecap="butt" stroke-linejoin="miter"/><path d="M209.64583,187.46815v-8.81458h2.79079v3.97709h18.01524v4.8375z" fill="#9f6e57" stroke="none" stroke-width="1" stroke-linecap="butt" stroke-linejoin="miter"/><path d="M212.43662,182.63066v-2.0066h3.55367v2.0066z" fill="#bfbfbf" stroke="none" stroke-width="0" stroke-linecap="butt" stroke-linejoin="miter"/><path d="M215.99027,182.63066v-1.60046h14.01157v1.60046z" fill="#a01e1e" stroke="none" stroke-width="0" stroke-linecap="butt" stroke-linejoin="miter"/><path d="M208.68119,182.88567h-4.27457l-0.75162,-6.95856" fill="none" stroke="#b37431" stroke-width="1.5" stroke-linecap="round" stroke-linejoin="miter"/><path d="M206.16809,187.46815v-4.58248" fill="none" stroke="#b37431" stroke-width="1.5" stroke-linecap="round" stroke-linejoin="miter"/><path d="M202.70944,182.88567h-4.27457l-0.75162,-6.95856" fill="none" stroke="#b37431" stroke-width="1.5" stroke-linecap="round" stroke-linejoin="miter"/><path d="M200.19635,187.46815v-4.58248" fill="none" stroke="#b37431" stroke-width="1.5" stroke-linecap="round" stroke-linejoin="miter"/><path d="M208.77748,182.53893h-4.06157l-0.71417,-6.61182" fill="none" stroke="#b3a291" stroke-width="1.5" stroke-linecap="round" stroke-linejoin="miter"/><path d="M221.33114,154.435v4.38362" fill="none" stroke="#666666" stroke-width="2" stroke-linecap="round" stroke-linejoin="miter"/><path d="M227.09191,164.32613c0,3.04172 -2.57918,5.50752 -5.76077,5.50752c-3.18159,0 -5.76077,-2.4658 -5.76077,-5.50752c0,-3.04172 2.57918,-5.50752 5.76077,-5.50752c3.18159,0 5.76077,2.4658 5.76077,5.50752z" fill="url(#color-1)" stroke="none" stroke-width="0" stroke-linecap="butt" stroke-linejoin="miter"/><path d="M218.3508,161.39647c0,-1.42371 1.33434,-2.57786 2.98034,-2.57786c1.646,0 2.98034,1.15415 2.98034,2.57786c0,1.42371 -1.33434,1.22605 -2.98034,1.22605c-1.646,0 -2.98034,0.19766 -2.98034,-1.22605z" fill="#666666" stroke="#666666" stroke-width="2" stroke-linecap="butt" stroke-linejoin="miter"/><path d="M203.89363,154.435v4.38362" fill="none" stroke="#666666" stroke-width="2" stroke-linecap="round" stroke-linejoin="miter"/><path d="M209.6544,164.32613c0,3.04172 -2.57918,5.50752 -5.76077,5.50752c-3.18159,0 -5.76077,-2.4658 -5.76077,-5.50752c0,-3.04172 2.57918,-5.50752 5.76077,-5.50752c3.18159,0 5.76077,2.4658 5.76077,5.50752z" fill="url(#color-2)" stroke="none" stroke-width="0" stroke-linecap="butt" stroke-linejoin="miter"/><path d="M200.91329,161.39647c0,-1.42371 1.33434,-2.57786 2.98034,-2.57786c1.646,0 2.98034,1.15415 2.98034,2.57786c0,1.42371 -1.33434,1.22605 -2.98034,1.22605c-1.646,0 -2.98034,0.19766 -2.98034,-1.22605z" fill="#666666" stroke="#666666" stroke-width="2" stroke-linecap="butt" stroke-linejoin="miter"/></g><path d="M254.675,178.975l-1.96,2.07l-1.96,-2.07" fill="none" fill-rule="nonzero" stroke="#eeeeee" stroke-width="4" stroke-linecap="round" stroke-linejoin="miter"/><path d="M190.905,190.435v-19.62h54v19.62z" fill="url(#color-3)" fill-rule="nonzero" stroke="none" stroke-width="1" stroke-linecap="butt" stroke-linejoin="miter"/><text transform="translate(201.265,201.895) scale(0.23,0.23)" font-size="40" xml:space="preserve" fill="#ffffff" fill-rule="nonzero" stroke="none" stroke-width="1" stroke-linecap="butt" stroke-linejoin="miter" font-family="Sans Serif" font-weight="400" text-anchor="start"><tspan x="0" dy="0">95,000G</tspan></text><text transform="translate(259.725,161.015) scale(0.23,0.23)" font-size="40" xml:space="preserve" fill="#eeeeee" fill-rule="nonzero" stroke="none" stroke-width="1" stroke-linecap="butt" stroke-linejoin="miter" font-family="Sans Serif" font-weight="400" text-anchor="start"><tspan x="0" dy="0">7,500G</tspan></text><text transform="translate(259.725,171.865) scale(0.23,0.23)" font-size="40" xml:space="preserve" fill="#eeeeee" fill-rule="nonzero" stroke="none" stroke-width="1" stroke-linecap="butt" stroke-linejoin="miter" font-family="Sans Serif" font-weight="400" text-anchor="start"><tspan x="0" dy="0">620G</tspan></text><text transform="translate(259.725,182.715) scale(0.23,0.23)" font-size="40" xml:space="preserve" fill="#eeeeee" fill-rule="nonzero" stroke="none" stroke-width="1" stroke-linecap="butt" stroke-linejoin="miter" font-family="Sans Serif" font-weight="400" text-anchor="start"><tspan x="0" dy="0">5%</tspan></text><text transform="translate(259.725,193.565) scale(0.23,0.23)" font-size="40" xml:space="preserve" fill="#eeeeee" fill-rule="nonzero" stroke="none" stroke-width="1" stroke-linecap="butt" stroke-linejoin="miter" font-family="Sans Serif" font-weight="400" text-anchor="start"><tspan x="0" dy="0">-7</tspan></text><text transform="translate(191.905,186.975) scale(0.21,0.21)" font-size="40" xml:space="preserve" fill="#ffffff" fill-rule="nonzero" stroke="none" stroke-width="1" stroke-linecap="butt" stroke-linejoin="miter" font-family="Sans Serif" font-weight="400" text-anchor="start"><tspan x="0" dy="0">家具屋</tspan></text><path d="M254.295,186.785c0.32,-0.29 0.47,-0.2 0.33,0.21l-0.87,2.69c-0.13,0.42 0.09,0.86 0.51,0.99l0.32,0.1c0.41,0.13 0.49,0.48 0.17,0.77l-3.61,3.35c-0.32,0.29 -0.47,0.2 -0.33,-0.21l0.87,-2.69c0.13,-0.42 -0.09,-0.86 -0.51,-0.99l-0.31,-0.1c-0.41,-0.13 -0.49,-0.48 -0.17,-0.77z" fill="#eeeeee" fill-rule="nonzero" stroke="#eeeeee" stroke-width="0.65" stroke-linecap="butt" stroke-linejoin="miter"/><path d="M191.855,200.155l-0.95,-2.39l5.74,-2.29l0.95,2.39zM255.835,159.085l-0.04,3.17l-0.94,-0.33l-0.55,-1.77l-1.56,1.03l-3.15,-1.11l1.97,-2.49z" fill="#ffffff" fill-rule="nonzero" stroke="#ffffff" stroke-width="1.25" stroke-linecap="butt" stroke-linejoin="round"/><path d="M194.725,199.015l1.55,3.88M255.115,154.335l-1.41,3.99" fill="none" fill-rule="nonzero" stroke="#ffffff" stroke-width="1.25" stroke-linecap="round" stroke-linejoin="miter"/><path d="M253.445,166.095c0.03,-0.02 0.09,-0.01 0.09,0.03l0.27,1.13c0,0 0.67,0.49 0.87,0.84c0.34,0.58 0.35,1.05 0.35,1.05c0,0 0.75,0.22 0.87,0.82c0.13,0.6 -0.34,1.73 -2.31,2.13c-1.98,0.39 -3.57,-0.15 -4.31,-1.35c-0.75,-1.2 0.43,-2.63 0.37,-2.55l-0.22,-1.89c-0.01,-0.04 0.04,-0.07 0.09,-0.05l1.27,0.83c0,0 0.47,-0.18 0.97,-0.2c0.29,-0.02 0.55,0 0.79,0.04z" fill="#eeeeee" fill-rule="nonzero" stroke="#eeeeee" stroke-width="0.65" stroke-linecap="butt" stroke-linejoin="miter"/><path d="M256.945,169.305c-0.49,0.4 -1.25,0.41 -1.25,0.41M256.805,170.485c-0.66,0.05 -1.07,-0.15 -1.07,-0.15M248.495,169.275c0,0 0.91,0.29 1.27,0.62M249.795,170.265c-0.45,0.18 -1.23,0.06 -1.23,0.06" fill="none" fill-rule="nonzero" stroke="#eeeeee" stroke-width="0.65" stroke-linecap="round" stroke-linejoin="miter"/><text transform="translate(196.51457,208.46654) scale(0.11803,0.11803)" font-size="40" xml:space="preserve" fill="#cccccc" fill-rule="nonzero" stroke="none" stroke-width="1" stroke-linecap="butt" stroke-linejoin="miter" font-family="Sans Serif" font-weight="400" text-anchor="start"><tspan x="0" dy="0">Lv.4</tspan></text><path d="M192.39673,206.48984c0.35371,-0.09488 0.62995,-0.37113 0.72483,-0.72484l0.2162,-0.80411c0.10269,-0.38013 0.64197,-0.38013 0.74406,0l0.21679,0.80411c0.09488,0.35371 0.37113,0.62996 0.72423,0.72484l0.80411,0.21619c0.38013,0.10269 0.38013,0.64196 0,0.74465l-0.80411,0.2162c-0.35311,0.09488 -0.62935,0.37113 -0.72423,0.72423l-0.21679,0.80411c-0.10209,0.38013 -0.64137,0.38013 -0.74406,0l-0.2162,-0.80411c-0.09488,-0.35311 -0.37112,-0.62935 -0.72483,-0.72423l-0.80411,-0.2162c-0.38013,-0.10269 -0.38013,-0.64196 0,-0.74465z" fill="#cccccc" fill-rule="evenodd" stroke="none" stroke-width="1" stroke-linecap="butt" stroke-linejoin="miter"/></g></g></svg>