<svg version="1.1" xmlns="http://www.w3.org/2000/svg" xmlns:xlink="http://www.w3.org/1999/xlink" width="480" height="385.85903" viewBox="0,0,480,385.85903"><g transform="translate(0,25.85903)"><g data-paper-data="{&quot;isPaintingLayer&quot;:true}" fill-rule="nonzero" stroke-linejoin="miter" stroke-miterlimit="10" stroke-dasharray="" stroke-dashoffset="0" style="mix-blend-mode: normal"><path d="M0,360v-385.85903h480v385.85903z" fill-opacity="0.6" fill="#000000" stroke="none" stroke-width="0" stroke-linecap="butt"/><path d="M332.24517,78.75983v202.48186c0,4.35428 -3.54033,7.89613 -7.89765,7.89613h-168.69656c-4.35276,0 -7.89613,-3.54185 -7.89613,-7.89613v-202.48338c0,-4.35428 3.54337,-7.89613 7.89613,-7.89613h168.69656c4.35733,0 7.89765,3.54337 7.89765,7.89765z" fill-opacity="0.70196" fill="#404040" stroke="#808080" stroke-width="4" stroke-linecap="butt"/><path d="M332.24517,78.75983v23.0605h-184.49034v-23.06202c0,-4.35428 3.54337,-7.89613 7.89613,-7.89613h168.69656c4.35733,0 7.89765,3.54337 7.89765,7.89765z" fill="#808080" stroke="none" stroke-width="0" stroke-linecap="butt"/><text transform="translate(152.66767,92.34126) scale(0.5,0.5)" font-size="40" xml:space="preserve" fill="#ffffff" fill-rule="nonzero" stroke="none" stroke-width="1" stroke-linecap="butt" stroke-linejoin="miter" stroke-miterlimit="10" stroke-dasharray="" stroke-dashoffset="0" font-family="Sans Serif" font-weight="normal" text-anchor="start" style="mix-blend-mode: normal"><tspan x="0" dy="0">ログイン</tspan></text><g fill="none" stroke="#ffffff" stroke-width="2.5" stroke-linecap="round"><path d="M323.38763,93.17407l-13.66564,-13.66564"/><path d="M323.38763,79.50843l-13.66565,13.66565"/></g><path d="M321.91499,117.61291v15.38738c0,3.45524 -2.80935,6.26579 -6.267,6.26579h-151.29718c-3.45403,0 -6.26579,-2.81055 -6.26579,-6.26579v-15.38859c0,-3.45524 2.81176,-6.26579 6.26579,-6.26579h151.29718c3.45766,0 6.267,2.81176 6.267,6.267z" fill-opacity="0.74902" fill="#959da6" stroke="none" stroke-width="1" stroke-linecap="butt"/><path d="M321.91452,153.11924v15.38738c0,3.45524 -2.80935,6.26579 -6.267,6.26579h-151.29718c-3.45403,0 -6.26579,-2.81055 -6.26579,-6.26579v-15.38859c0,-3.45524 2.81176,-6.26579 6.26579,-6.26579h151.29718c3.45766,0 6.267,2.81176 6.267,6.267z" fill-opacity="0.74902" fill="#959da6" stroke="none" stroke-width="1" stroke-linecap="butt"/><text transform="translate(194.4623,129.62181) scale(0.35965,0.35965)" font-size="40" xml:space="preserve" fill-opacity="0.85098" fill="#ffffff" fill-rule="nonzero" stroke="none" stroke-width="1" stroke-linecap="butt" stroke-linejoin="miter" stroke-miterlimit="10" stroke-dasharray="" stroke-dashoffset="0" font-family="Sans Serif" font-weight="normal" text-anchor="start" style="mix-blend-mode: normal"><tspan x="0" dy="0">Scratchでログイン</tspan></text><text transform="translate(199.99324,165.12814) scale(0.35965,0.35965)" font-size="40" xml:space="preserve" fill-opacity="0.85098" fill="#ffffff" fill-rule="nonzero" stroke="none" stroke-width="1" stroke-linecap="butt" stroke-linejoin="miter" stroke-miterlimit="10" stroke-dasharray="" stroke-dashoffset="0" font-family="Sans Serif" font-weight="normal" text-anchor="start" style="mix-blend-mode: normal"><tspan x="0" dy="0">ScPayでログイン</tspan></text><path d="M164.59848,123.55995c0,-2.34649 2.13104,-4.24869 4.7598,-4.24869c0.62316,0 1.21835,0.10689 1.76381,0.30126c0.85005,-0.70689 1.99032,-1.13936 3.24375,-1.13936c2.62876,0 4.75979,1.9022 4.75979,4.24869c0,0.39932 -0.06172,0.78579 -0.1771,1.15219c1.86399,0.57581 3.20251,2.15641 3.20251,4.01608c0,2.34649 -2.13104,4.24869 -4.7598,4.24869c-1.03599,0 -1.99467,-0.29544 -2.77607,-0.79707c-0.73596,0.41634 -1.60868,0.65739 -2.54446,0.65739c-1.01327,0 -1.9526,-0.28263 -2.72443,-0.76438c-0.75711,0.45335 -1.66809,0.71781 -2.64827,0.71781c-2.62876,0 -4.7598,-1.90221 -4.7598,-4.24869c0,-1.67865 1.09063,-3.12993 2.67389,-3.82005c-0.00903,-0.1069 -0.01363,-0.21491 -0.01363,-0.32388z" fill="#e3e4e6" stroke="none" stroke-width="0.5" stroke-linecap="butt"/><path d="M165.21181,167.64515v-13.66565h13.66565v13.66565z" fill="#e3e4e6" stroke="none" stroke-width="0" stroke-linecap="butt"/></g></g></svg>