<svg version="1.1" xmlns="http://www.w3.org/2000/svg" xmlns:xlink="http://www.w3.org/1999/xlink" width="492.99943" height="58.96611" viewBox="0,0,492.99943,58.96611"><g transform="translate(20,0)"><g stroke-miterlimit="10"><path d="M9.50057,56.46611v-20.05776h146.80201v20.05776z" fill="#4d4d4d" stroke="#4d4d4d" stroke-width="5" stroke-linecap="butt" stroke-linejoin="round"/><path d="M166.599,56.46611v-20.05776h146.80201v20.05776z" fill="#4d4d4d" stroke="#4d4d4d" stroke-width="5" stroke-linecap="butt" stroke-linejoin="round"/><path d="M323.69742,56.46611v-20.05776h146.80201v20.05776z" fill="#4d4d4d" stroke="#4d4d4d" stroke-width="5" stroke-linecap="butt" stroke-linejoin="round"/><path d="M-20,4v-4h20v4z" fill="none" stroke="none" stroke-width="0" stroke-linecap="butt" stroke-linejoin="miter"/><text transform="translate(34.42865,51.45167) scale(0.41787,0.41787)" font-size="40" xml:space="preserve" fill="#e6e6e6" stroke="none" stroke-width="1" stroke-linecap="butt" stroke-linejoin="miter" font-family="Sans Serif" font-weight="normal" text-anchor="start"><tspan x="0" dy="0">ディスカバリー</tspan></text><text transform="translate(206.5704,51.45167) scale(0.41787,0.41787)" font-size="40" xml:space="preserve" fill="#e6e6e6" stroke="none" stroke-width="1" stroke-linecap="butt" stroke-linejoin="miter" font-family="Sans Serif" font-weight="normal" text-anchor="start"><tspan x="0" dy="0">ショップ</tspan></text><text transform="translate(356.98291,51.45167) scale(0.41787,0.41787)" font-size="40" xml:space="preserve" fill="#e6e6e6" stroke="none" stroke-width="1" stroke-linecap="butt" stroke-linejoin="miter" font-family="Sans Serif" font-weight="normal" text-anchor="start"><tspan x="0" dy="0">プロフィール</tspan></text><path d="M14.99189,54.21591v-7.77868h-3.24112l7.77868,-7.77869l7.77868,7.77869h-3.24112v7.77868h-9.07512" fill="none" stroke="#ffffff" stroke-width="2.5" stroke-linecap="round" stroke-linejoin="round"/><path d="M330.88195,41.5029c0,-1.57089 1.27346,-2.84435 2.84435,-2.84435c1.57089,0 2.84435,1.27346 2.84435,2.84435c0,1.57089 -1.27346,2.84435 -2.84435,2.84435c-1.57089,0 -2.84435,-1.27346 -2.84435,-2.84435z" fill="none" stroke="#ffffff" stroke-width="2.5" stroke-linecap="butt" stroke-linejoin="miter"/><path d="M327.27752,51.71567c0,-2.56428 2.88722,-4.64304 6.44878,-4.64304c3.56156,0 6.44878,2.07876 6.44878,4.64304c0,2.56428 -2.88722,2.5001 -6.44878,2.5001c-3.56156,0 -6.44878,0.06418 -6.44878,-2.5001z" fill="none" stroke="#ffffff" stroke-width="2.5" stroke-linecap="butt" stroke-linejoin="miter"/><g stroke-linejoin="miter"><path d="M169.93526,40.50482h14.0371l-0.86883,6.92352" fill="none" stroke="#ffffff" stroke-width="2.5" stroke-linecap="round"/><path d="M183.02209,47.6727l-11.67498,1.2218l-2.49791,-10.23595" fill="none" stroke="#ffffff" stroke-width="2.5" stroke-linecap="round"/><path d="M184.40656,51.85397l-13.01763,0.24437l0.06653,-3.09522" fill="none" stroke="#ffffff" stroke-width="2.5" stroke-linecap="round"/><path d="M172.17788,53.61981c0,-0.84171 0.68234,-1.52405 1.52407,-1.52405c0.84171,0 1.52405,0.68234 1.52405,1.52405c0,0.84171 -0.68233,1.52407 -1.52405,1.52407c-0.84171,0 -1.52407,-0.68235 -1.52407,-1.52407z" fill="#ffffff" stroke="none" stroke-width="0.5" stroke-linecap="butt"/><path d="M180.19656,53.51019c0,-0.84171 0.68234,-1.52405 1.52407,-1.52405c0.84171,0 1.52405,0.68234 1.52405,1.52405c0,0.84171 -0.68234,1.52408 -1.52405,1.52408c-0.84171,0 -1.52407,-0.68234 -1.52407,-1.52408z" fill="#ffffff" stroke="none" stroke-width="0.5" stroke-linecap="butt"/><path d="M182.30734,43.96262l-11.0706,0.66003" fill="none" stroke="#ffffff" stroke-width="2.5" stroke-linecap="round"/><path d="M173.9431,41.42749l1.14007,6.39035" fill="none" stroke="#ffffff" stroke-width="2.5" stroke-linecap="round"/><path d="M178.56257,41.03798l1.14006,6.39035" fill="none" stroke="#ffffff" stroke-width="2.5" stroke-linecap="round"/></g></g></g></svg>