<svg version="1.1" xmlns="http://www.w3.org/2000/svg" xmlns:xlink="http://www.w3.org/1999/xlink" width="56" height="38" viewBox="0,0,56,38"><g transform="translate(-212,-161)"><g stroke-miterlimit="10"><path d="M213,198v-36h54v36z" fill="#8fa8b3" fill-rule="nonzero" stroke="#666666" stroke-width="2" stroke-linecap="butt" stroke-linejoin="round"/><g stroke-width="0.25"><g fill-rule="evenodd"><g><path d="M258.99235,184.70619c0.4756,-0.09908 1.0503,-0.25762 1.5259,-0.69359c1.08993,-0.97103 1.42682,-2.5762 2.17986,-2.16004c0.77286,0.41616 0.75304,3.01217 -1.66462,3.80485c-0.83231,0.27744 -1.58535,0.27743 -2.19968,0.25762c-0.15853,0 -1.5259,-0.13872 -2.00151,-0.81249c-0.4756,-0.67377 -0.13872,-0.85213 0.01981,-0.9314c0.17836,-0.09908 1.46645,0.65396 2.14023,0.53506z" fill="#ffab19" stroke="#001026" stroke-linecap="round" stroke-linejoin="round"/><path d="M262.57921,181.89219c0.39634,0.1189 0.59451,0.95121 0.39634,1.6448c-0.19817,0.69359 -0.51524,1.0503 -0.77286,1.30792c0.03964,-0.13872 0.1189,-0.57469 -0.21799,-0.83231c-0.41616,-0.33689 -1.14938,-0.15853 -1.14938,-0.15853c0,0 0.61433,-0.75304 0.9314,-1.2881c0.31707,-0.45579 0.41615,-0.75304 0.81249,-0.67377z" fill="#ffffff" stroke="none" stroke-linecap="butt" stroke-linejoin="miter"/></g><path d="M253.74088,182.50652c0,0.51524 -0.41616,1.0503 -0.65396,1.36737c-0.2378,0.31707 -1.34755,1.48627 -2.71492,0.87195c-0.57469,-0.29725 -1.92224,-1.407 -1.20883,-2.06096c0.71341,-0.65396 1.36737,0.15853 1.84297,0.57469c0.39634,0.35671 1.60517,-1.07011 1.70425,-1.14938c0.33689,-0.29725 1.01066,-0.15854 1.03048,0.39634z" fill="#ffab19" stroke="#001026" stroke-linecap="round" stroke-linejoin="round"/><g><path d="M254.17685,185.28088c-0.2378,-0.17836 -0.47561,-0.4756 -0.79268,-0.93139c-0.25762,-0.37652 -0.53505,-1.10975 -0.53505,-1.10975c-0.17836,-0.49543 -0.29725,-1.44663 0.35671,-1.42682c0.43597,0.01981 0.83231,-0.03964 1.50608,-0.13872c1.18901,-0.2378 1.407,-0.39633 1.90242,0.41616c0.53506,0.95121 1.90242,1.6448 0.21799,3.28961c0,0 -0.97103,0.75304 -2.14023,1.90242c-0.79268,0.77286 -2.04114,1.8826 -2.47711,2.25912c-0.09908,0.07927 -0.21799,0.11891 -0.33689,0.13872c-1.92224,0.17836 -3.34905,-0.01982 -3.34905,-0.87195c0,-1.42682 2.83381,-0.9314 2.83381,-0.9314c0,0 0.91158,-0.77286 1.32773,-1.14938z" fill="#ffab19" stroke="#001026" stroke-linecap="round" stroke-linejoin="round"/><path d="M253.30491,183.95315c0,0 -0.37652,-0.49542 0.4756,-1.03048c0.89176,-0.57469 1.22865,0.05945 1.58535,0.53506c0.39634,0.61432 0,0.91158 -0.39634,1.26828c-0.31707,0.29725 -0.61432,0.53506 -0.61432,0.53506c0,0 -0.61433,-0.41616 -1.0503,-1.30792z" fill="#ffffff" stroke="none" stroke-linecap="butt" stroke-linejoin="miter"/></g><path d="M257.32774,183.31901c-0.21799,-0.13872 -0.51524,-0.37652 -0.81249,-0.59451c-0.49543,-0.35671 -1.20883,-1.14938 -0.21799,-1.50608c0.79268,-0.29725 1.50608,0.25762 2.35821,0.87195c0.43597,0.33689 0.95121,0.73323 0.77286,1.34755c-0.19817,0.69359 -1.1692,2.67528 -2.3384,2.02132c-0.85213,-0.57469 -0.17835,-1.26828 0.25762,-1.82316c0.05945,-0.09908 0.03964,-0.21799 -0.01981,-0.31707z" fill="#ffab19" stroke="#001026" stroke-linecap="round" stroke-linejoin="round"/><g><path d="M252.80949,171.86484c0.45579,-0.07927 0.93139,-0.1189 1.48627,-0.07927c0.9314,0.03964 1.82316,0.37652 1.82316,0.37652l2.39784,-1.56553c0.07927,-0.03964 0.17835,0.01982 0.15854,0.09909l-0.41616,3.54723c-0.1189,-0.15853 2.10059,2.53656 0.69359,4.79569c-1.407,2.25912 -4.39935,3.26979 -8.12493,2.53656c-3.72558,-0.73323 -4.59752,-2.87345 -4.35972,-4.00301c0.2378,-1.12956 1.6448,-1.54572 1.6448,-1.54572c0,0 0.01981,-0.89176 0.65396,-1.98169c0.37652,-0.65396 1.6448,-1.58535 1.6448,-1.58535l0.51524,-2.12041c0.01981,-0.07927 0.1189,-0.09909 0.17835,-0.05945z" fill="#ffab19" stroke="#001026" stroke-linecap="butt" stroke-linejoin="miter"/><path d="M251.44212,177.07669c1.66462,0.1189 3.94356,-1.68444 5.2713,0.43597c1.32773,2.10059 -0.95121,4.95422 -5.74691,3.96338c-3.68595,-0.71341 -4.63715,-2.75455 -4.39935,-3.88411c0.2378,-1.12956 1.60517,-1.48627 1.60517,-1.48627c1.68444,-0.37652 1.84297,0.87195 3.26979,0.97103z" fill="#ffffff" stroke="none" stroke-linecap="butt" stroke-linejoin="miter"/><path d="M252.49242,180.66355c-2.08077,0.1189 -2.83381,-1.36737 -3.01216,-1.90242c-0.03964,-0.09908 0.03963,-0.19816 0.13872,-0.17835c0.29725,0.05945 0.9314,0.1189 2.00151,0.05945c1.18901,-0.07927 2.25913,-0.39634 2.63565,-0.53506c0.07927,-0.01981 0.15853,0.03964 0.15853,0.11891c0.05945,0.97103 -0.11891,2.23931 -1.92224,2.43748z" fill="#ffffff" stroke="#001026" stroke-linecap="round" stroke-linejoin="round"/><path d="M246.88424,177.0965c0,0 -1.42682,-0.01982 -2.35821,-0.77286" fill="none" stroke="#001026" stroke-linecap="round" stroke-linejoin="round"/><path d="M246.80497,178.2657c0,0 -0.77286,0.37652 -2.02132,0.27743" fill="none" stroke="#001026" stroke-linecap="round" stroke-linejoin="round"/><path d="M252.43297,176.81907c0,0.31707 -0.83231,0.81249 -1.18901,0.77286c-0.31707,-0.01981 -0.61432,-0.57469 -0.59451,-0.85213c0.01981,-0.13872 0.45579,-0.17835 0.87195,-0.17835c0.39634,0 0.9314,0.01981 0.91158,0.25762z" fill="#001026" stroke="#001026" stroke-linecap="round" stroke-linejoin="round"/><path d="M258.04114,177.43339c0.69359,-0.61432 2.39785,-1.1692 2.39785,-1.1692" fill="none" stroke="#001026" stroke-linecap="round" stroke-linejoin="round"/><path d="M260.30028,178.24589c0,0 -1.46645,0.21799 -2.31857,-0.1189" fill="none" stroke="#001026" stroke-linecap="round" stroke-linejoin="round"/><g><path d="M251.24395,173.29166c0.55488,0.35671 0.53506,1.36737 -0.03963,2.25912c-0.59451,0.89176 -1.50608,1.30792 -2.06096,0.95121c-0.55488,-0.35671 -0.53505,-1.36737 0.03964,-2.25912c0.57469,-0.89176 1.50608,-1.32773 2.06096,-0.95121z" fill="#ffffff" stroke="#001026" stroke-linecap="round" stroke-linejoin="round"/><path d="M249.26226,175.37244c0,-0.21799 0.15853,-0.39634 0.35671,-0.39634c0.19817,0 0.35671,0.17835 0.35671,0.39634c0,0.21799 -0.15853,0.39634 -0.35671,0.39634c-0.19817,0 -0.35671,-0.17836 -0.35671,-0.39634" fill="#001026" stroke="none" stroke-linecap="butt" stroke-linejoin="miter"/></g><g><path d="M256.2378,173.90598c0.61432,0.43597 0.57469,1.56553 -0.03963,2.43748c-0.59451,0.87195 -1.46645,1.14938 -2.12041,0.77286c-0.53506,-0.37652 -0.57469,-1.44663 0.01982,-2.31857c0.59451,-0.87195 1.5259,-1.34755 2.14022,-0.89176z" fill="#ffffff" stroke="#001026" stroke-linecap="round" stroke-linejoin="round"/><path d="M254.21649,175.94712c0,-0.21799 0.15853,-0.37652 0.35671,-0.39633c0.19817,0 0.35671,0.17835 0.35671,0.39633c0,0.21799 -0.15853,0.39634 -0.35671,0.39634c-0.19817,0 -0.35671,-0.17836 -0.35671,-0.39634" fill="#001026" stroke="none" stroke-linecap="butt" stroke-linejoin="miter"/></g></g></g><path d="M248.96777,173.50704c0,0 0.22641,-0.6708 0.41371,-0.89353c0.29819,-0.35461 1.20312,-1.02918 1.20312,-1.02918c0,0 4.29911,0.31032 5.63332,0.5861c1.26994,0.2625 2.18863,1.03072 2.18863,1.03072c0,0 0.28274,0.75243 0.34604,1.0848c0.0501,0.26304 0.13463,0.79421 0.13463,0.79421c0,0 -1.27538,-0.78548 -3.00187,-1.23887c-1.09058,-0.2864 -2.75488,-0.32641 -3.4287,-0.40752c-1.08991,-0.13119 -3.48888,0.07326 -3.48888,0.07326z" fill="#e6e6e6" fill-rule="nonzero" stroke="none" stroke-linecap="butt" stroke-linejoin="miter"/></g><path d="M214,197.03315v-2h52v2z" fill="#cccccc" fill-rule="nonzero" stroke="none" stroke-width="0" stroke-linecap="butt" stroke-linejoin="miter"/><path d="M216.996,186.04016v-5.26166h27.57113v5.26166z" fill="#cfd8e6" fill-rule="nonzero" stroke="none" stroke-width="0" stroke-linecap="butt" stroke-linejoin="miter"/><path d="M244.56714,185.84729v9.18587h-27.57113v-9.18587z" fill="#b7c7e6" fill-rule="nonzero" stroke="none" stroke-width="0" stroke-linecap="butt" stroke-linejoin="miter"/><g fill-rule="nonzero" stroke="#4d4d4d" stroke-width="1" stroke-linecap="butt" stroke-linejoin="miter"><path d="M218.55383,163.39655v2.51355c0.07595,0.95027 -0.3136,1.86874 -1.00518,2.37124c-0.69159,0.5025 -1.56618,0.5025 -2.25822,0c-0.69159,-0.5025 -1.08114,-1.42097 -1.00518,-2.37124v-2.51355z" fill="#5c8ce6"/><path d="M227.12855,163.39655v2.51355c0.07595,0.95027 -0.3136,1.86874 -1.00518,2.37124c-0.69159,0.5025 -1.56618,0.5025 -2.25822,0c-0.69159,-0.5025 -1.08114,-1.42097 -1.00518,-2.37124v-2.51355z" fill="#5c8ce6"/><path d="M235.70326,163.39655v2.51355c0.07595,0.95027 -0.3136,1.86874 -1.00518,2.37124c-0.69159,0.5025 -1.56618,0.5025 -2.25822,0c-0.69159,-0.5025 -1.08114,-1.42097 -1.00518,-2.37124v-2.51355z" fill="#5c8ce6"/><path d="M244.27797,163.39655v2.51355c0.07595,0.95027 -0.3136,1.86874 -1.00518,2.37124c-0.69159,0.5025 -1.56618,0.5025 -2.25822,0c-0.69159,-0.5025 -1.08114,-1.42097 -1.00518,-2.37124v-2.51355z" fill="#5c8ce6"/><path d="M252.85268,163.39655v2.51355c0.07595,0.95027 -0.3136,1.86874 -1.00518,2.37124c-0.69159,0.5025 -1.56618,0.5025 -2.25822,0c-0.69159,-0.5025 -1.08114,-1.42097 -1.00518,-2.37124v-2.51355z" fill="#5c8ce6"/><path d="M261.4274,163.39655v2.51355c0.07595,0.95027 -0.3136,1.86874 -1.00518,2.37124c-0.69159,0.5025 -1.56618,0.5025 -2.25822,0c-0.69159,-0.5025 -1.08114,-1.42097 -1.00518,-2.37124v-2.51355z" fill="#5c8ce6"/><path d="M222.84119,163.39655v2.51355c0.07595,0.95027 -0.31359,1.86874 -1.00518,2.37124c-0.69159,0.5025 -1.56618,0.5025 -2.25822,0c-0.69159,-0.5025 -1.08114,-1.42097 -1.00518,-2.37124v-2.51355z" fill="#ffffff"/><path d="M231.4159,163.39655v2.51355c0.07595,0.95027 -0.31359,1.86874 -1.00518,2.37124c-0.69159,0.5025 -1.56618,0.5025 -2.25822,0c-0.69159,-0.5025 -1.08114,-1.42097 -1.00518,-2.37124v-2.51355z" fill="#ffffff"/><path d="M239.99062,163.39655v2.51355c0.07595,0.95027 -0.31359,1.86874 -1.00518,2.37124c-0.69159,0.5025 -1.56618,0.5025 -2.25822,0c-0.69159,-0.5025 -1.08114,-1.42097 -1.00518,-2.37124v-2.51355z" fill="#ffffff"/><path d="M248.56533,163.39655v2.51355c0.07595,0.95027 -0.31359,1.86874 -1.00518,2.37124c-0.69159,0.5025 -1.56618,0.5025 -2.25822,0c-0.69159,-0.5025 -1.08114,-1.42097 -1.00518,-2.37124v-2.51355z" fill="#ffffff"/><path d="M257.14004,163.39655v2.51355c0.07595,0.95027 -0.31359,1.86874 -1.00518,2.37124c-0.69159,0.5025 -1.56618,0.5025 -2.25822,0c-0.69159,-0.5025 -1.08114,-1.42097 -1.00518,-2.37124v-2.51355z" fill="#ffffff"/><path d="M265.71475,163.39655v2.51355c0.07595,0.95027 -0.31359,1.86874 -1.00518,2.37124c-0.69159,0.5025 -1.56618,0.5025 -2.25822,0c-0.69159,-0.5025 -1.08114,-1.42097 -1.00518,-2.37124v-2.51355z" fill="#ffffff"/></g><path d="M254.82708,186.04016v-5.26166h11.17292v5.26166z" fill="#cfd8e6" fill-rule="nonzero" stroke="none" stroke-width="0" stroke-linecap="butt" stroke-linejoin="miter"/><path d="M266,185.84729v9.18587h-11.17292v-9.18587z" fill="#b7c7e6" fill-rule="nonzero" stroke="none" stroke-width="0" stroke-linecap="butt" stroke-linejoin="miter"/><path d="M241.46024,181.27804c-0.20316,-0.0883 -0.40621,-0.29374 -0.57526,-0.55659c-0.01083,0.0359 -0.02248,0.07229 -0.03493,0.10919c-0.33819,1.00173 -5.01824,1.49241 -5.24996,0.31025c-0.38092,-0.44135 -0.52523,-1.06693 -0.32524,-1.65929c0.30093,-0.89138 1.26749,-1.37003 2.15887,-1.0691c0.09614,0.03246 0.18748,0.07266 0.27356,0.11968c1.08499,-0.1666 2.21446,-0.08041 2.8278,0.43952c0.098,-0.27555 0.30865,-0.48465 0.67244,-0.55596c0.22068,-0.19046 0.53346,-0.26261 0.82964,-0.16262c0.32781,0.11067 0.54398,0.40138 0.57553,0.72475c0.53469,1.15051 0.32828,2.94373 -1.15245,2.30018z" fill="#422609" fill-rule="nonzero" stroke="none" stroke-width="0.5" stroke-linecap="butt" stroke-linejoin="miter"/><path d="M242.52044,183.07432c-0.74949,0.42177 -1.32879,0.15873 -1.62419,-0.35661c-0.93,0.76363 -3.81169,0.884 -4.0847,-0.50883c-0.38092,-0.44135 -0.52523,-1.06692 -0.32524,-1.65929c0.30093,-0.89138 1.26749,-1.37003 2.15887,-1.0691c0.21473,0.07249 0.40551,0.18361 0.56721,0.32301c0.76168,0.09763 1.44507,0.43087 1.7963,0.99518c0.08845,-0.12499 0.19571,-0.24095 0.32292,-0.34351c0.00913,-0.00939 0.01847,-0.01854 0.02799,-0.02747c0.08104,-0.20226 0.22925,-0.25862 0.40499,-0.21189c0.14491,-0.03111 0.29983,-0.02478 0.45045,0.02607c0.4241,0.14318 0.66135,0.58772 0.55369,1.01446c0.33269,0.65594 0.41767,1.44321 -0.24829,1.81798z" fill="#844b13" fill-rule="nonzero" stroke="none" stroke-width="0.5" stroke-linecap="butt" stroke-linejoin="miter"/><path d="M240.79238,184.18634c-0.03588,-0.03349 -0.06863,-0.06979 -0.09838,-0.10859c-1.10041,1.10515 -4.54279,1.00995 -4.81598,0.17978l-0.47352,-1.81085c0.41431,-0.41668 1.3895,-0.80775 2.41395,-0.95937c1.14482,-0.16944 2.35117,-0.03986 2.90507,0.68715c0.29663,-0.59295 0.80937,-1.00792 1.37333,-0.7679c0.05332,0.00719 0.10673,0.01955 0.15961,0.0374c0.36707,0.12392 0.59416,0.47359 0.5788,0.84209c0.62355,1.53067 -0.38341,3.44938 -2.04288,1.9003z" fill="#b56719" fill-rule="nonzero" stroke="none" stroke-width="0.5" stroke-linecap="butt" stroke-linejoin="miter"/><path d="M234.02872,179.22957c0.04909,0.05772 0.09287,0.11866 0.13157,0.18224c0.20024,0.199 0.29423,0.4911 0.23374,0.77889c0.08115,1.265 -1.01611,2.67137 -2.10302,1.43693c-0.06486,-0.07367 -0.11787,-0.15351 -0.15995,-0.23791c-0.1739,0.15117 -0.39262,0.29506 -0.66149,0.42821c-0.36889,0.18268 -1.517,-0.18163 -2.17545,-0.35836c-0.09528,-0.01482 -0.1906,-0.03795 -0.28507,-0.06985c-0.89138,-0.30093 -1.37003,-1.26749 -1.0691,-2.15887c0.2562,-0.75888 0.99484,-1.21861 1.7588,-1.15283c1.09566,-0.04286 2.3047,0.6392 2.77887,1.4905c0.36291,-0.423 0.88541,-0.64127 1.39354,-0.34832z" fill="#4e1911" fill-rule="nonzero" stroke="none" stroke-width="0.5" stroke-linecap="butt" stroke-linejoin="miter"/><path d="M232.70914,183.34738c-0.06263,-0.04256 -0.12665,-0.10739 -0.18997,-0.1898c-1.25371,1.07346 -4.0598,0.00758 -4.05327,-1.69421l0.08964,-0.57811c0.3704,-0.85439 1.38975,-1.13291 2.36892,-0.98239c0.41587,0.06393 0.8245,0.20525 1.17308,0.41271c0.11334,-0.143 0.2764,-0.23265 0.50022,-0.24423c0.21026,-0.13484 0.47764,-0.1764 0.73271,-0.09028c0.4103,0.13852 0.6457,0.55908 0.56311,0.97273c0.55852,1.45401 0.63828,3.63212 -1.18443,2.39359z" fill="#a03423" fill-rule="nonzero" stroke="none" stroke-width="0.5" stroke-linecap="butt" stroke-linejoin="miter"/><path d="M233.99718,184.241c-0.20316,-0.0883 -0.4062,-0.29374 -0.57526,-0.55659c-0.01083,0.0359 -0.02248,0.07229 -0.03493,0.10919c-0.33819,1.00173 -5.01824,1.49241 -5.24996,0.31025c-0.38092,-0.44135 -0.52523,-1.06693 -0.32524,-1.65929c0.30093,-0.89138 1.26749,-1.37003 2.15887,-1.0691c0.09614,0.03246 0.18748,0.07266 0.27356,0.11968c1.08499,-0.1666 2.21446,-0.08041 2.82779,0.43952c0.098,-0.27555 0.30865,-0.48465 0.67244,-0.55596c0.22068,-0.19046 0.53346,-0.26261 0.82965,-0.16262c0.32781,0.11067 0.54397,0.40138 0.57553,0.72475c0.53469,1.15051 0.32828,2.94373 -1.15245,2.30018z" fill="#de4831" fill-rule="nonzero" stroke="none" stroke-width="0.5" stroke-linecap="butt" stroke-linejoin="miter"/><path d="M225.51304,181.32459c-0.20316,-0.0883 -0.40621,-0.29374 -0.57526,-0.55659c-0.01083,0.0359 -0.02247,0.07229 -0.03493,0.10919c-0.33819,1.00173 -5.01824,1.49241 -5.24996,0.31025c-0.38092,-0.44135 -0.52523,-1.06693 -0.32524,-1.65929c0.30093,-0.89138 1.26749,-1.37003 2.15887,-1.0691c0.09614,0.03246 0.18748,0.07266 0.27356,0.11968c1.08499,-0.1666 2.21446,-0.08041 2.8278,0.43952c0.098,-0.27555 0.30865,-0.48465 0.67244,-0.55596c0.22068,-0.19046 0.53346,-0.26261 0.82964,-0.16262c0.32781,0.11067 0.54398,0.40138 0.57553,0.72475c0.53469,1.15051 0.32828,2.94373 -1.15245,2.30018z" fill="#44648d" fill-rule="nonzero" stroke="none" stroke-width="0.5" stroke-linecap="butt" stroke-linejoin="miter"/><path d="M226.46289,182.85265c-0.72091,0.51436 -1.37792,0.29442 -1.79092,-0.22554c-0.84343,0.86762 -4.49943,1.00003 -4.76951,-0.37783c-0.38092,-0.44135 -0.52523,-1.06692 -0.32524,-1.65929c0.30093,-0.89138 1.26749,-1.37003 2.15887,-1.0691c0.14377,0.04854 0.27679,0.11439 0.39755,0.19444c0.91057,-0.05901 1.81588,0.10334 2.35558,0.58794c0.07941,-0.13061 0.17786,-0.25279 0.29692,-0.36279c0.07382,-0.10331 0.16899,-0.18727 0.27703,-0.2477c0.12388,-0.11663 0.27488,-0.14593 0.43682,-0.10846c0.08357,0.00207 0.16824,0.01658 0.2516,0.04472c0.27266,0.09205 0.46809,0.30866 0.54428,0.56502c0.60817,0.77748 0.98692,2.0736 0.16702,2.65859z" fill="#608dc7" fill-rule="nonzero" stroke="none" stroke-width="0.5" stroke-linecap="butt" stroke-linejoin="miter"/><path d="M225.89803,184.66496c-0.19323,-0.10832 -0.37454,-0.33318 -0.51624,-0.61173c-0.0144,0.03462 -0.02964,0.06966 -0.04576,0.10511c-0.43742,0.96256 -5.14309,0.97911 -5.2545,-0.22038c-0.33451,-0.4775 -0.41504,-1.11442 -0.15637,-1.68362c0.38922,-0.85652 1.3991,-1.23532 2.25561,-0.8461c0.09238,0.04198 0.1792,0.09118 0.26011,0.14663c1.09625,-0.05641 2.21129,0.14315 2.76911,0.72225c0.12527,-0.26428 0.35592,-0.45108 0.72504,-0.48537c0.23875,-0.16725 0.55721,-0.20752 0.84181,-0.07819c0.31499,0.14314 0.50076,0.45415 0.49957,0.77906c0.41603,1.19853 0.02996,2.96183 -1.37838,2.17233z" fill="#7bb5ff" fill-rule="nonzero" stroke="none" stroke-width="0.5" stroke-linecap="butt" stroke-linejoin="miter"/><path d="M263.80393,182.16959c-0.72091,0.51436 -1.37792,0.29442 -1.79092,-0.22554c-0.84343,0.86762 -4.49943,1.00003 -4.76951,-0.37783c-0.38092,-0.44135 -0.52523,-1.06693 -0.32524,-1.65929c0.30093,-0.89138 1.26749,-1.37003 2.15887,-1.0691c0.14377,0.04854 0.2768,0.11439 0.39755,0.19444c0.91057,-0.05901 1.81588,0.10334 2.35558,0.58794c0.07941,-0.13061 0.17786,-0.2528 0.29692,-0.3628c0.07382,-0.10331 0.16899,-0.18727 0.27703,-0.2477c0.12388,-0.11663 0.27488,-0.14593 0.43682,-0.10845c0.08357,0.00207 0.16824,0.01658 0.2516,0.04472c0.27266,0.09205 0.46809,0.30866 0.54428,0.56502c0.60817,0.77748 0.98693,2.0736 0.16703,2.65859z" fill="#155e5f" fill-rule="nonzero" stroke="none" stroke-width="0.5" stroke-linecap="butt" stroke-linejoin="miter"/><path d="M262.07135,183.36389c-0.07803,-0.03085 -0.14996,-0.06696 -0.21611,-0.1077c-0.81872,0.84344 -4.354,1.20169 -4.64378,-0.27669c-0.38092,-0.44135 -0.52523,-1.06693 -0.32524,-1.65929c0.30093,-0.89138 1.26749,-1.37003 2.15887,-1.0691c0.17073,0.05764 0.32633,0.1397 0.4642,0.24097c0.70766,0.01585 1.38859,0.192 1.87802,0.5278c0.20779,-0.51809 0.56883,-0.86104 0.9154,-0.68009c0.10077,-0.00389 0.20395,0.01017 0.30518,0.04435c0.1094,0.03693 0.20637,0.09392 0.28819,0.16548c1.13699,0.86092 0.9446,3.51369 -0.82473,2.81426z" fill="#239ea0" fill-rule="nonzero" stroke="none" stroke-width="0.5" stroke-linecap="butt" stroke-linejoin="miter"/><path d="M261.74769,185.07773c-0.06263,-0.04256 -0.12665,-0.10739 -0.18997,-0.1898c-1.25371,1.07346 -4.0598,0.00758 -4.05327,-1.69421l0.08964,-0.57811c0.3704,-0.85439 1.38975,-1.13291 2.36892,-0.98239c0.41587,0.06393 0.8245,0.20525 1.17308,0.41271c0.11334,-0.143 0.27639,-0.23266 0.50021,-0.24423c0.21026,-0.13484 0.47764,-0.1764 0.73271,-0.09028c0.4103,0.13852 0.6457,0.55908 0.56311,0.97273c0.55852,1.45401 0.63828,3.63212 -1.18443,2.39359z" fill="#2abcbe" fill-rule="nonzero" stroke="none" stroke-width="0.5" stroke-linecap="butt" stroke-linejoin="miter"/></g></g></svg>