<svg version="1.1" xmlns="http://www.w3.org/2000/svg" xmlns:xlink="http://www.w3.org/1999/xlink" width="18.68714" height="19.6005" viewBox="0,0,18.68714,19.6005"><g transform="translate(-230.65643,-176.55765)"><g data-paper-data="{&quot;isPaintingLayer&quot;:true}" fill-rule="evenodd" stroke-width="0.25" stroke-miterlimit="10" stroke-dasharray="" stroke-dashoffset="0" style="mix-blend-mode: normal"><g><path d="M237.01594,190.41414c0.15694,0.07847 0.49047,0.25504 0.01962,0.92207c-0.47084,0.66702 -1.82452,0.80435 -1.98146,0.80435c-0.60817,0.01961 -1.35366,0.01962 -2.17763,-0.25504c-2.39344,-0.78474 -2.41306,-3.35474 -1.64794,-3.76673c0.7455,-0.41199 1.07901,1.17711 2.15802,2.13841c0.47084,0.4316 1.03977,0.58854 1.51061,0.68663c0.66702,0.1177 1.94221,-0.62779 2.11878,-0.5297z" fill="#ffab19" stroke="#001026" stroke-linecap="round" stroke-linejoin="round"/><path d="M232.15059,188.82506c0.3139,0.5297 0.92207,1.27519 0.92207,1.27519c0,0 -0.72588,-0.17657 -1.13787,0.15695c-0.33352,0.25504 -0.25503,0.68664 -0.2158,0.82397c-0.25504,-0.25504 -0.56894,-0.60817 -0.76512,-1.29481c-0.19618,-0.68664 0,-1.51061 0.39237,-1.62832c0.39237,-0.07847 0.49045,0.21579 0.80435,0.66702z" fill="#ffffff" stroke="none" stroke-linecap="butt" stroke-linejoin="miter"/></g><path d="M237.99686,192.45446c-0.35313,0.23542 -1.56947,1.09864 -3.11932,1.58909l-0.07847,0.01962c-0.07847,0.01961 -0.11771,0.11771 -0.07847,0.19618c0.33352,0.47084 0.94169,1.41251 -0.13733,1.74603c-1.03977,0.33352 -2.98199,-2.43268 -2.15802,-3.15856c0.37275,-0.27466 0.70627,-0.13733 0.88282,-0.05885c0.09809,0.03923 0.19618,0.03924 0.29427,0.01962c0.23542,-0.07847 0.66702,-0.23542 1.00053,-0.41199c0.84359,-0.4316 1.03977,-0.60816 1.43214,-0.90244c0.39237,-0.29428 1.29481,-1.02015 2.02069,-0.39237c0.62778,0.5297 0.27466,1.11825 -0.05886,1.35367z" fill="#ffab19" stroke="#001026" stroke-linecap="round" stroke-linejoin="round"/><path d="M241.11619,188.37384c0.09809,0.07847 1.29481,1.49099 1.68718,1.13786c0.47084,-0.41199 1.11825,-1.21634 1.82451,-0.56893c0.70626,0.6474 -0.62779,1.74603 -1.19672,2.04031c-1.35367,0.60817 -2.45229,-0.54932 -2.68771,-0.86321c-0.23542,-0.3139 -0.6474,-0.84359 -0.6474,-1.35367c0.01961,-0.54931 0.68664,-0.68664 1.02015,-0.39237z" fill="#ffab19" stroke="#001026" stroke-linecap="round" stroke-linejoin="round"/><g><path d="M241.1358,192.94492c0.41199,0.37275 1.31444,1.13786 1.31444,1.13786c0,0 2.80542,-0.49044 2.80542,0.92208c0,0.84359 -1.41252,1.03977 -3.3155,0.8632c-0.1177,-0.01961 -0.23542,-0.05886 -0.33352,-0.13733c-0.4316,-0.37275 -1.66755,-1.47137 -2.45229,-2.23649c-1.15748,-1.13787 -2.1188,-1.88336 -2.1188,-1.88336c-1.66756,-1.62832 -0.31389,-2.31497 0.21581,-3.25665c0.49046,-0.80435 0.70627,-0.64741 1.88336,-0.41199c0.66702,0.09809 1.05939,0.15695 1.49099,0.13733c0.6474,-0.01961 0.5297,0.92207 0.35313,1.41252c0,0 -0.27465,0.72589 -0.5297,1.09863c-0.3139,0.45122 -0.54932,0.74549 -0.78474,0.92206z" fill="#ffab19" stroke="#001026" stroke-linecap="round" stroke-linejoin="round"/><path d="M239.48786,191.49315c0,0 -0.29427,-0.23542 -0.60817,-0.5297c-0.39237,-0.35313 -0.78474,-0.64741 -0.39237,-1.25558c0.35313,-0.47084 0.68665,-1.09862 1.56948,-0.52969c0.84359,0.5297 0.47084,1.02015 0.47084,1.02015c-0.4316,0.88282 -1.03977,1.29482 -1.03977,1.29482z" fill="#ffffff" stroke="none" stroke-linecap="butt" stroke-linejoin="miter"/></g><path d="M236.52548,189.88445c0.4316,0.54931 1.09864,1.23596 0.25505,1.80489c-1.15748,0.6474 -2.11879,-1.31444 -2.31497,-2.00108c-0.17657,-0.60817 0.33351,-1.00053 0.76512,-1.33405c0.84359,-0.60817 1.54985,-1.15749 2.33459,-0.86321c0.98092,0.35313 0.27466,1.13787 -0.2158,1.491c-0.29428,0.2158 -0.58856,0.45123 -0.80436,0.58855c-0.05885,0.09809 -0.07847,0.2158 -0.01961,0.31389z" fill="#ffab19" stroke="#001026" stroke-linecap="round" stroke-linejoin="round"/><g><path d="M242.70527,176.66166c0.05885,-0.03923 0.15695,-0.01962 0.17657,0.05886l0.51008,2.09916c0,0 1.25558,0.92207 1.62832,1.56947c0.62778,1.079 0.6474,1.96184 0.6474,1.96184c0,0 1.39291,0.41199 1.62833,1.53023c0.23542,1.11824 -0.62779,3.23704 -4.31604,3.96292c-3.68825,0.72588 -6.65062,-0.27466 -8.04353,-2.51115c-1.39291,-2.23649 0.80434,-4.9046 0.68663,-4.74765l-0.41198,-3.51168c-0.01961,-0.07847 0.07847,-0.13733 0.15694,-0.0981l2.37382,1.54986c0,0 0.88284,-0.33352 1.8049,-0.37275c0.54931,-0.03923 1.02015,0 1.47138,0.07847z" fill="#ffab19" stroke="#001026" stroke-linecap="butt" stroke-linejoin="miter"/><path d="M245.60879,182.42947c0,0 1.35367,0.35314 1.58909,1.47137c0.23542,1.11824 -0.70626,3.13894 -4.35528,3.8452c-4.74765,0.98092 -7.00377,-1.84413 -5.68933,-3.92368c1.31444,-2.09916 3.57055,-0.3139 5.21849,-0.4316c1.41252,-0.09809 1.56947,-1.33405 3.23703,-0.9613z" fill="#ffffff" stroke="none" stroke-linecap="butt" stroke-linejoin="miter"/><path d="M239.42901,184.52863c0,-0.07847 0.07848,-0.13733 0.15695,-0.11772c0.37275,0.13733 1.43214,0.45122 2.60924,0.5297c1.05939,0.05885 1.68718,0.00001 1.98145,-0.05885c0.09809,-0.01961 0.17656,0.07847 0.13733,0.17656c-0.17657,0.5297 -0.92206,2.00107 -2.98199,1.88336c-1.78528,-0.19618 -1.96183,-1.45175 -1.90298,-2.41306z" fill="#ffffff" stroke="#001026" stroke-linecap="round" stroke-linejoin="round"/><path d="M249.21857,182.64527c-0.92206,0.7455 -2.33458,0.76512 -2.33458,0.76512" fill="none" stroke="#001026" stroke-linecap="round" stroke-linejoin="round"/><path d="M248.96353,184.84253c-1.23596,0.09809 -2.00108,-0.27466 -2.00108,-0.27466" fill="none" stroke="#001026" stroke-linecap="round" stroke-linejoin="round"/><path d="M242.29329,182.8807c0.41199,0 0.84359,0.03923 0.8632,0.17656c0.01961,0.27466 -0.27466,0.82398 -0.58855,0.84359c-0.35313,0.03923 -1.1771,-0.45122 -1.1771,-0.76512c-0.01961,-0.23542 0.51008,-0.25503 0.90245,-0.25503z" fill="#001026" stroke="#001026" stroke-linecap="round" stroke-linejoin="round"/><path d="M233.46502,182.58641c0,0 1.68718,0.54932 2.37383,1.15749" fill="none" stroke="#001026" stroke-linecap="round" stroke-linejoin="round"/><path d="M235.89769,184.43054c-0.84359,0.33352 -2.29534,0.11771 -2.29534,0.11771" fill="none" stroke="#001026" stroke-linecap="round" stroke-linejoin="round"/><g><path d="M244.60826,180.58534c0.56893,0.88282 0.58855,1.88337 0.03923,2.2365c-0.54931,0.35313 -1.45176,-0.05886 -2.04031,-0.94168c-0.56893,-0.88282 -0.58856,-1.88336 -0.03924,-2.2365c0.54931,-0.37275 1.47139,0.05885 2.04032,0.94168z" fill="#ffffff" stroke="#001026" stroke-linecap="round" stroke-linejoin="round"/><path d="M244.52978,181.70359c0,0.2158 -0.15695,0.39237 -0.35313,0.39237c-0.19618,0 -0.35313,-0.17657 -0.35313,-0.39237c0,-0.2158 0.15695,-0.39237 0.35313,-0.39237c0.19618,0 0.35313,0.17657 0.35313,0.39237" fill="#001026" stroke="none" stroke-linecap="butt" stroke-linejoin="miter"/></g><g><path d="M239.7429,181.13466c0.58855,0.86321 0.54931,1.9226 0.01961,2.29534c-0.6474,0.37275 -1.51061,0.0981 -2.09916,-0.76512c-0.60817,-0.86321 -0.6474,-1.98146 -0.03924,-2.41306c0.60817,-0.45122 1.53024,0.01962 2.11879,0.88283z" fill="#ffffff" stroke="#001026" stroke-linecap="round" stroke-linejoin="round"/><path d="M239.62519,182.27252c0,0.2158 -0.15695,0.39237 -0.35313,0.39237c-0.19618,0 -0.35313,-0.17657 -0.35313,-0.39237c0,-0.2158 0.15695,-0.39237 0.35313,-0.39237c0.19618,0.01961 0.35313,0.17657 0.35313,0.39237" fill="#001026" stroke="none" stroke-linecap="butt" stroke-linejoin="miter"/></g></g></g></g></svg>