<svg version="1.1" xmlns="http://www.w3.org/2000/svg" xmlns:xlink="http://www.w3.org/1999/xlink" width="56" height="38.00596" viewBox="0,0,56,38.00596"><defs><radialGradient cx="239.92086" cy="169.68471" r="5.76077" gradientUnits="userSpaceOnUse" id="color-1"><stop offset="0" stop-color="#e0d475"/><stop offset="1" stop-color="#e0d475" stop-opacity="0"/></radialGradient></defs><g transform="translate(-212,-161.02281)"><g stroke-miterlimit="10"><path d="M230.05531,177.80659c0,-5.52285 4.52715,-10.05 10.05,-10.05c5.52285,0 10.05,4.52715 10.05,10.05c0,5.52285 -4.52715,10.05 -10.05,10.05c-5.52285,0 -10.05,-4.52715 -10.05,-10.05z" fill-opacity="0.70196" fill="#cccccc" stroke="none" stroke-width="0.5" stroke-linecap="butt" stroke-linejoin="miter"/><path d="M213,198.02877v-36h54v36zM240.10531,187.80659c5.52285,0 10,-4.47715 10,-10c0,-5.52285 -4.47715,-10 -10,-10c-5.52285,0 -10,4.47715 -10,10c0,5.52285 4.47715,10 10,10z" fill="#9d8e4b" stroke="#666666" stroke-width="2" stroke-linecap="butt" stroke-linejoin="round"/><path d="M236.55963,186.89992v-18.04511" fill="none" stroke="#666666" stroke-width="2" stroke-linecap="round" stroke-linejoin="miter"/><path d="M243.44037,168.85481v18.04511" fill="none" stroke="#666666" stroke-width="2" stroke-linecap="round" stroke-linejoin="miter"/><path d="M249.02256,181.31773h-18.04511" fill="none" stroke="#666666" stroke-width="2" stroke-linecap="round" stroke-linejoin="miter"/><path d="M230.97745,174.43699h18.04511" fill="none" stroke="#666666" stroke-width="2" stroke-linecap="round" stroke-linejoin="miter"/><path d="M222.92979,193.60991v-2.47312h15.92325v2.47312z" fill="#ccadad" stroke="#ccadad" stroke-width="1.5" stroke-linecap="butt" stroke-linejoin="round"/><path d="M230.20798,193.60991v-2.9072h2.4704v2.9072z" fill="#cc7777" stroke="#cc7777" stroke-width="1.5" stroke-linecap="butt" stroke-linejoin="round"/><path d="M217.01915,193.60991v-3.63067h5.91064v3.63067z" fill="#cccccc" stroke="#cccccc" stroke-width="1.5" stroke-linecap="butt" stroke-linejoin="round"/><path d="M216.44037,194.37678v-0.76687h23.55963v0.76687z" fill="none" stroke="#995d26" stroke-width="2" stroke-linecap="butt" stroke-linejoin="round"/><path d="M255.51038,194.7389h-7.65345c0,0 1.37815,-5.42688 -0.46036,-11.07737" fill="none" stroke="#995d26" stroke-width="2" stroke-linecap="round" stroke-linejoin="miter"/><path d="M249.69836,193.35783h5.5243" fill="none" stroke="#8f3d3d" stroke-width="1.5" stroke-linecap="round" stroke-linejoin="miter"/><path d="M265.01294,196.058l-7.00745,0.00443v-7.73977h-5.46505h12.48721z" fill="none" stroke="#72461c" stroke-width="2" stroke-linecap="butt" stroke-linejoin="miter"/><path d="M214,197.03315v-2h52v2z" fill="#cccccc" stroke="none" stroke-width="0" stroke-linecap="butt" stroke-linejoin="miter"/><path d="M240,162.02281v4.38362" fill="none" stroke="#666666" stroke-width="2" stroke-linecap="round" stroke-linejoin="miter"/><path d="M245.76077,171.91394c0,3.04172 -2.57918,5.50752 -5.76077,5.50752c-3.18159,0 -5.76077,-2.4658 -5.76077,-5.50752c0,-3.04172 2.57918,-5.50752 5.76077,-5.50752c3.18159,0 5.76077,2.4658 5.76077,5.50752z" fill="url(#color-1)" stroke="none" stroke-width="0" stroke-linecap="butt" stroke-linejoin="miter"/><path d="M237.05994,171.45509v-4.66523h5.88013v4.66523z" fill="#ffe281" stroke="none" stroke-width="0" stroke-linecap="butt" stroke-linejoin="miter"/><path d="M237.40544,167.1733v-0.76687h5.18911v0.76687z" fill="none" stroke="#666666" stroke-width="2" stroke-linecap="butt" stroke-linejoin="miter"/></g></g></svg>