<svg version="1.1" xmlns="http://www.w3.org/2000/svg" xmlns:xlink="http://www.w3.org/1999/xlink" width="480" height="385.85903" viewBox="0,0,480,385.85903"><g transform="translate(0,25.85903)"><g data-paper-data="{&quot;isPaintingLayer&quot;:true}" fill-rule="nonzero" stroke-miterlimit="10" stroke-dasharray="" stroke-dashoffset="0" style="mix-blend-mode: normal"><path d="M0,360v-385.85903h480v385.85903z" fill-opacity="0.6" fill="#000000" stroke="none" stroke-width="0" stroke-linecap="butt" stroke-linejoin="miter"/><path d="M460.18088,73.59528v212.81096c0,4.35428 -3.54033,7.89613 -7.89765,7.89613h-424.56797c-4.35276,0 -7.89613,-3.54185 -7.89613,-7.89613v-212.81248c0,-4.35428 3.54337,-7.89613 7.89613,-7.89613h424.56797c4.35733,0 7.89765,3.54337 7.89765,7.89765z" fill="#a7a7b2" stroke="#808080" stroke-width="4" stroke-linecap="butt" stroke-linejoin="miter"/><path d="M58.16807,294.30237h-30.45282c-4.35276,0 -7.89613,-3.54185 -7.89613,-7.89613v-212.81248c0,-4.35428 3.54337,-7.89613 7.89613,-7.89613h30.45282z" fill="#808080" stroke="none" stroke-width="0" stroke-linecap="butt" stroke-linejoin="miter"/><path d="M38.9936,204.92562v-49.85124" fill="none" stroke="#ffffff" stroke-width="3" stroke-linecap="round" stroke-linejoin="miter"/><path d="M438.59258,65.69763h13.69215c4.35276,0 7.89613,3.54185 7.89613,7.89613v212.81248c0,4.35428 -3.54337,7.89613 -7.89613,7.89613h-13.69215z" data-paper-data="{&quot;index&quot;:null}" fill="#808080" stroke="none" stroke-width="0" stroke-linecap="butt" stroke-linejoin="miter"/><path d="M94.3052,78.30249v18.66322c0,3.49985 -2.8456,6.34668 -6.3479,6.34668h-18.67784c-3.49863,0 -6.34668,-2.84684 -6.34668,-6.34668v-18.66445c0,-3.49985 2.84806,-6.34668 6.34668,-6.34668h18.67784c3.5023,0 6.3479,2.84807 6.3479,6.34791z" fill="#808080" stroke="none" stroke-width="1" stroke-linecap="butt" stroke-linejoin="miter"/><path d="M130.44028,78.30249v18.66322c0,3.49985 -2.8456,6.34668 -6.3479,6.34668h-18.67784c-3.49863,0 -6.34668,-2.84684 -6.34668,-6.34668v-18.66444c0,-3.49985 2.84807,-6.34668 6.34668,-6.34668h18.67784c3.5023,0 6.3479,2.84807 6.3479,6.34791z" fill="#808080" stroke="none" stroke-width="1" stroke-linecap="butt" stroke-linejoin="miter"/><path d="M166.56868,78.30252v18.66322c0,3.49985 -2.84561,6.34668 -6.3479,6.34668h-18.67783c-3.49863,0 -6.34668,-2.84684 -6.34668,-6.34668v-18.66444c0,-3.49985 2.84806,-6.34668 6.34668,-6.34668h18.67783c3.5023,0 6.3479,2.84806 6.3479,6.3479z" fill="#808080" stroke="none" stroke-width="1" stroke-linecap="butt" stroke-linejoin="miter"/><path d="M202.71049,78.3025v18.66322c0,3.49985 -2.84561,6.34668 -6.3479,6.34668h-18.67784c-3.49863,0 -6.34668,-2.84684 -6.34668,-6.34668v-18.66444c0,-3.49985 2.84806,-6.34668 6.34668,-6.34668h18.67784c3.5023,0 6.3479,2.84806 6.3479,6.3479z" fill="#808080" stroke="none" stroke-width="1" stroke-linecap="butt" stroke-linejoin="miter"/><path d="M397.7062,78.30249v18.66322c0,3.49985 -2.84561,6.34668 -6.34791,6.34668h-18.67783c-3.49863,0 -6.34668,-2.84684 -6.34668,-6.34668v-18.66445c0,-3.49985 2.84807,-6.34668 6.34668,-6.34668h18.67783c3.5023,0 6.34791,2.84806 6.34791,6.3479z" fill="#808080" stroke="none" stroke-width="1" stroke-linecap="butt" stroke-linejoin="miter"/><path d="M433.83462,78.3025v18.66322c0,3.49985 -2.84561,6.34668 -6.34791,6.34668h-18.67783c-3.49863,0 -6.34668,-2.84684 -6.34668,-6.34668v-18.66444c0,-3.49985 2.84807,-6.34668 6.34668,-6.34668h18.67783c3.5023,0 6.34791,2.84806 6.34791,6.3479z" fill="#808080" stroke="none" stroke-width="1" stroke-linecap="butt" stroke-linejoin="miter"/><path d="M109.65165,88.95059v4.94709" fill="none" stroke="#ffffff" stroke-width="4" stroke-linecap="round" stroke-linejoin="miter"/><path d="M114.74741,93.89768v-7.32426" fill="none" stroke="#ffffff" stroke-width="4" stroke-linecap="round" stroke-linejoin="miter"/><path d="M119.84315,93.89767v-12.52834" fill="none" stroke="#ffffff" stroke-width="4" stroke-linecap="round" stroke-linejoin="miter"/><path d="M158.72429,87.09284c0,2.90812 -3.51089,5.26561 -7.8418,5.26561c-1.36901,0 -2.65607,-0.23556 -3.77622,-0.64961c-0.66342,-0.24523 -2.96687,2.05143 -3.49552,1.69284c-0.59135,-0.40112 0.61125,-3.47024 0.23533,-3.98177c-0.51566,-0.70169 -0.80539,-1.49166 -0.80539,-2.32706c0,-2.90812 3.51089,-5.26561 7.8418,-5.26561c4.3309,0 7.8418,2.35749 7.8418,5.26561z" fill="none" stroke="#ffffff" stroke-width="3" stroke-linecap="butt" stroke-linejoin="miter"/><path d="M180.59129,94.48446v-10.92756h5.54871v10.92756z" fill="none" stroke="#ffffff" stroke-width="3" stroke-linecap="butt" stroke-linejoin="miter"/><path d="M186.14,94.48446v-13.70191h7.30391v13.70191z" fill="none" stroke="#ffffff" stroke-width="3" stroke-linecap="butt" stroke-linejoin="miter"/><path d="M424.26389,93.74898l-12.23096,-12.23096" fill="none" stroke="#ffffff" stroke-width="3" stroke-linecap="round" stroke-linejoin="miter"/><path d="M424.26389,81.51802l-12.23096,12.23096" fill="none" stroke="#ffffff" stroke-width="3" stroke-linecap="round" stroke-linejoin="miter"/><text transform="translate(377.54332,93.6335) scale(0.5,0.5)" font-size="40" xml:space="preserve" fill="#ffffff" fill-rule="nonzero" stroke="#ffffff" stroke-width="1" stroke-linecap="butt" stroke-linejoin="miter" stroke-miterlimit="10" stroke-dasharray="" stroke-dashoffset="0" font-family="Sans Serif" font-weight="normal" text-anchor="start" style="mix-blend-mode: normal"><tspan x="0" dy="0">?</tspan></text><path d="M73.69977,95.79982v-8.42155h-3.50898l8.42155,-8.42155l8.42155,8.42155h-3.50898v8.42155h-9.82514" fill="none" stroke="#ffffff" stroke-width="3" stroke-linecap="round" stroke-linejoin="round"/></g></g></svg>