<svg version="1.1" xmlns="http://www.w3.org/2000/svg" xmlns:xlink="http://www.w3.org/1999/xlink" width="480" height="385.85903" viewBox="0,0,480,385.85903"><defs><linearGradient x1="239.9642" y1="34.30069" x2="239.9642" y2="97.94284" gradientTransform="translate(-40.98459,-61.87055) scale(0.7541,0.7541)" gradientUnits="userSpaceOnUse" id="color-1"><stop offset="0" stop-color="#0044b0"/><stop offset="1" stop-color="#00b049"/></linearGradient><linearGradient x1="240.00005" y1="86.26619" x2="240.00005" y2="110.26619" gradientTransform="translate(-368.27157,-208.53236) scale(2,2)" gradientUnits="userSpaceOnUse" id="color-2"><stop offset="0" stop-color="#cc0ab9"/><stop offset="1" stop-color="#310acc"/></linearGradient><linearGradient x1="240.00005" y1="86.26619" x2="240.00005" y2="110.26619" gradientTransform="translate(-368.27157,-208.53236) scale(2,2)" gradientUnits="userSpaceOnUse" id="color-3"><stop offset="0" stop-color="#cc0ab9"/><stop offset="1" stop-color="#310acc"/></linearGradient></defs><g transform="translate(-0.00003,25.85903)"><g data-paper-data="{&quot;isPaintingLayer&quot;:true}" fill-rule="nonzero" stroke-linecap="butt" stroke-linejoin="miter" stroke-miterlimit="10" stroke-dasharray="" stroke-dashoffset="0" style="mix-blend-mode: normal"><path d="M0.00003,360v-385.85903h480v385.85903z" fill-opacity="0.8" fill="#000000" stroke="none" stroke-width="0"/><path d="M336.30662,126.69572v23.21956c0,4.35428 -3.54033,7.89613 -7.89765,7.89613h-176.81936c-4.35276,0 -7.89613,-3.54185 -7.89613,-7.89613v-23.22108c0,-4.35428 3.54337,-7.89613 7.89613,-7.89613h176.81936c4.35733,0 7.89765,3.54337 7.89765,7.89765z" fill-opacity="0.74902" fill="#77a5d9" stroke="none" stroke-width="1"/><path d="M336.30662,174.03677v23.21956c0,4.35428 -3.54033,7.89613 -7.89765,7.89613h-176.81936c-4.35276,0 -7.89613,-3.54185 -7.89613,-7.89613v-23.22108c0,-4.35428 3.54337,-7.89613 7.89613,-7.89613h176.81936c4.35733,0 7.89765,3.54337 7.89765,7.89765z" fill-opacity="0.74902" fill="#77a5d9" stroke="none" stroke-width="1"/><path d="M336.30662,221.37782v23.21956c0,4.35428 -3.54033,7.89613 -7.89765,7.89613h-176.81936c-4.35276,0 -7.89613,-3.54185 -7.89613,-7.89613v-23.22108c0,-4.35428 3.54337,-7.89613 7.89613,-7.89613h176.81936c4.35733,0 7.89765,3.54337 7.89765,7.89765z" fill-opacity="0.74902" fill="#77a5d9" stroke="none" stroke-width="1"/><text transform="translate(200.55605,193.53459) scale(0.6574,0.6574)" font-size="40" xml:space="preserve" fill="#ffffff" fill-rule="nonzero" stroke="none" stroke-width="1" stroke-linecap="butt" stroke-linejoin="miter" stroke-miterlimit="10" stroke-dasharray="" stroke-dashoffset="0" font-family="Sans Serif" font-weight="normal" text-anchor="start" style="mix-blend-mode: normal"><tspan x="0" dy="0">セーブ</tspan></text><text transform="translate(161.11205,146.19354) scale(0.6574,0.6574)" font-size="40" xml:space="preserve" fill="#ffffff" fill-rule="nonzero" stroke="none" stroke-width="1" stroke-linecap="butt" stroke-linejoin="miter" stroke-miterlimit="10" stroke-dasharray="" stroke-dashoffset="0" font-family="Sans Serif" font-weight="normal" text-anchor="start" style="mix-blend-mode: normal"><tspan x="0" dy="0">ゲームに戻る</tspan></text><text transform="translate(161.11205,240.87564) scale(0.6574,0.6574)" font-size="40" xml:space="preserve" fill="#ffffff" fill-rule="nonzero" stroke="none" stroke-width="1" stroke-linecap="butt" stroke-linejoin="miter" stroke-miterlimit="10" stroke-dasharray="" stroke-dashoffset="0" font-family="Sans Serif" font-weight="normal" text-anchor="start" style="mix-blend-mode: normal"><tspan x="0" dy="0">ワールド設定</tspan></text><path d="M336.30662,268.71886v23.21956c0,4.35428 -3.54033,7.89613 -7.89765,7.89613h-176.81936c-4.35276,0 -7.89613,-3.54185 -7.89613,-7.89613v-23.22108c0,-4.35428 3.54337,-7.89613 7.89613,-7.89613h176.81936c4.35733,0 7.89765,3.54337 7.89765,7.89765z" fill-opacity="0.74902" fill="#77a5d9" stroke="none" stroke-width="1"/><text transform="translate(213.70404,288.21668) scale(0.6574,0.6574)" font-size="40" xml:space="preserve" fill="#ffffff" fill-rule="nonzero" stroke="none" stroke-width="1" stroke-linecap="butt" stroke-linejoin="miter" stroke-miterlimit="10" stroke-dasharray="" stroke-dashoffset="0" font-family="Sans Serif" font-weight="normal" text-anchor="start" style="mix-blend-mode: normal"><tspan x="0" dy="0">設定</tspan></text><text transform="translate(54.34885,82.0453) scale(1.32608,1.32608)" font-size="40" xml:space="preserve" fill="#ffffff" fill-rule="nonzero" stroke="#000000" stroke-width="9" stroke-linecap="butt" stroke-linejoin="miter" stroke-miterlimit="10" stroke-dasharray="" stroke-dashoffset="0" font-family="&quot;Microsoft YaHei&quot;, &quot;微软雅黑&quot;, STXihei, &quot;华文细黑&quot;" font-weight="normal" text-anchor="start" style="mix-blend-mode: normal"><tspan x="0" dy="0">ビル経営ゲーム</tspan></text><text transform="translate(54.34885,82.0453) scale(1.32608,1.32608)" font-size="40" xml:space="preserve" fill="#ffffff" fill-rule="nonzero" stroke="#ffffff" stroke-width="4" stroke-linecap="butt" stroke-linejoin="miter" stroke-miterlimit="10" stroke-dasharray="" stroke-dashoffset="0" font-family="&quot;Microsoft YaHei&quot;, &quot;微软雅黑&quot;, STXihei, &quot;华文细黑&quot;" font-weight="normal" text-anchor="start" style="mix-blend-mode: normal"><tspan x="0" dy="0">ビル経営ゲーム</tspan></text><text transform="translate(54.34885,82.0453) scale(1.32608,1.32608)" font-size="40" xml:space="preserve" fill="url(#color-1)" fill-rule="nonzero" stroke="#ffffff" stroke-width="0" stroke-linecap="butt" stroke-linejoin="miter" stroke-miterlimit="10" stroke-dasharray="" stroke-dashoffset="0" font-family="&quot;Microsoft YaHei&quot;, &quot;微软雅黑&quot;, STXihei, &quot;华文细黑&quot;" font-weight="normal" text-anchor="start" style="mix-blend-mode: normal"><tspan x="0" dy="0">ビル経営ゲーム</tspan></text><g font-family="&quot;Microsoft YaHei&quot;, &quot;微软雅黑&quot;, STXihei, &quot;华文细黑&quot;" font-weight="normal" font-size="40" text-anchor="start"><text transform="translate(184.13579,104.26618) scale(0.5,0.5)" font-size="40" xml:space="preserve" fill="#ffffff" fill-rule="nonzero" stroke="#ffffff" stroke-width="5" stroke-linecap="butt" stroke-linejoin="miter" stroke-miterlimit="10" stroke-dasharray="" stroke-dashoffset="0" font-family="&quot;Microsoft YaHei&quot;, &quot;微软雅黑&quot;, STXihei, &quot;华文细黑&quot;" font-weight="normal" text-anchor="start" style="mix-blend-mode: normal"><tspan x="0" dy="0">バージョン8</tspan></text><text transform="translate(184.13579,104.26618) scale(0.5,0.5)" font-size="40" xml:space="preserve" fill="url(#color-2)" fill-rule="nonzero" stroke="url(#color-3)" stroke-width="1" stroke-linecap="butt" stroke-linejoin="miter" stroke-miterlimit="10" stroke-dasharray="" stroke-dashoffset="0" font-family="&quot;Microsoft YaHei&quot;, &quot;微软雅黑&quot;, STXihei, &quot;华文细黑&quot;" font-weight="normal" text-anchor="start" style="mix-blend-mode: normal"><tspan x="0" dy="0">バージョン8</tspan></text></g></g></g></svg>