<svg version="1.1" xmlns="http://www.w3.org/2000/svg" xmlns:xlink="http://www.w3.org/1999/xlink" width="56" height="38" viewBox="0,0,56,38"><g transform="translate(-212,-161)"><g stroke-miterlimit="10"><path d="M213,198v-36h54v36z" fill="#d4966a" fill-rule="nonzero" stroke="#666666" stroke-width="2" stroke-linecap="butt" stroke-linejoin="round"/><g fill-rule="evenodd" stroke-width="0.25"><path d="M250.35131,169.43432c0.49383,-0.08588 1.00912,-0.12882 1.61029,-0.08588c1.00911,0.04294 1.97528,0.40794 1.97528,0.40794l2.59793,-1.69617c0.08588,-0.04294 0.19323,0.02147 0.17176,0.10735l-0.45088,3.84321c-0.12882,-0.17177 2.27587,2.74822 0.75147,5.19585c-1.5244,2.44763 -4.76644,3.54263 -8.80289,2.74822c-4.03644,-0.79441 -4.98115,-3.11322 -4.7235,-4.33704c0.25765,-1.22382 1.78205,-1.6747 1.78205,-1.6747c0,0 0.02147,-0.96617 0.70853,-2.14705c0.40794,-0.70853 1.78205,-1.71764 1.78205,-1.71764l0.55823,-2.29734c0.02147,-0.08588 0.12882,-0.10735 0.19323,-0.06441z" fill="#ffab19" stroke="#001026" stroke-linecap="butt" stroke-linejoin="miter"/><path d="M245.32722,174.02899c1.82499,-0.40794 1.99676,0.9447 3.54263,1.05205c1.80352,0.12882 4.27263,-1.82499 5.71115,0.47235c1.43852,2.27587 -1.03059,5.36761 -6.22644,4.29409c-3.9935,-0.77293 -5.02409,-2.98439 -4.76644,-4.20821c0.25765,-1.22382 1.73911,-1.61029 1.73911,-1.61029z" fill="#ffffff" stroke="none" stroke-linecap="butt" stroke-linejoin="miter"/><path d="M252.09044,176.32634c0.06441,1.05206 -0.12883,2.42617 -2.08264,2.64087c-2.2544,0.12882 -3.07028,-1.48147 -3.26351,-2.06117c-0.04294,-0.10735 0.04294,-0.2147 0.15029,-0.19323c0.32206,0.06441 1.00911,0.12882 2.16852,0.06441c1.28823,-0.08588 2.44763,-0.42941 2.85557,-0.5797c0.08588,-0.02147 0.17176,0.04294 0.17176,0.12882z" fill="#ffffff" stroke="#001026" stroke-linecap="round" stroke-linejoin="round"/><path d="M243.93165,175.10253c0,0 -1.54588,-0.02147 -2.55499,-0.83735" fill="none" stroke="#001026" stroke-linecap="round" stroke-linejoin="round"/><path d="M243.84577,176.36925c0,0 -0.83735,0.40794 -2.18999,0.30059" fill="none" stroke="#001026" stroke-linecap="round" stroke-linejoin="round"/><path d="M248.95574,174.5228c0.42941,0 1.00911,0.02147 0.98764,0.27912c0,0.34353 -0.90176,0.88029 -1.28823,0.83735c-0.34352,-0.02147 -0.66558,-0.62264 -0.64411,-0.92323c0.02147,-0.15029 0.49382,-0.19323 0.9447,-0.19323z" fill="#001026" stroke="#001026" stroke-linecap="round" stroke-linejoin="round"/><path d="M256.01952,175.46751c0.75147,-0.66559 2.59793,-1.26676 2.59793,-1.26676" fill="none" stroke="#001026" stroke-linecap="round" stroke-linejoin="round"/><path d="M258.46716,176.34781c0,0 -1.58882,0.23618 -2.51205,-0.12882" fill="none" stroke="#001026" stroke-linecap="round" stroke-linejoin="round"/><g><path d="M248.65515,170.9802c0.60117,0.38646 0.5797,1.48146 -0.04294,2.44763c-0.64412,0.96617 -1.63176,1.41705 -2.23293,1.03058c-0.60117,-0.38646 -0.5797,-1.48146 0.04294,-2.44763c0.62264,-0.96617 1.63176,-1.43852 2.23293,-1.03058z" fill="#ffffff" stroke="#001026" stroke-linecap="round" stroke-linejoin="round"/><path d="M246.5081,173.23457c0,-0.23618 0.17177,-0.42941 0.38647,-0.42941c0.21471,0 0.38647,0.19323 0.38647,0.42941c0,0.23618 -0.17177,0.42941 -0.38647,0.42941c-0.21471,0 -0.38647,-0.19323 -0.38647,-0.42941" fill="#001026" stroke="none" stroke-linecap="butt" stroke-linejoin="miter"/></g><g><path d="M254.06571,171.64576c0.66559,0.47235 0.62264,1.69617 -0.04294,2.64087c-0.64411,0.9447 -1.58881,1.24529 -2.29734,0.83735c-0.5797,-0.40794 -0.62264,-1.56735 0.02147,-2.51205c0.64411,-0.9447 1.65323,-1.45999 2.31881,-0.96617z" fill="#ffffff" stroke="#001026" stroke-linecap="round" stroke-linejoin="round"/><path d="M251.87572,173.85724c0,-0.23618 0.17177,-0.40794 0.38647,-0.42941c0.21471,0 0.38647,0.19323 0.38647,0.42941c0,0.23618 -0.17177,0.42941 -0.38647,0.42941c-0.21471,0 -0.38647,-0.19323 -0.38647,-0.42941" fill="#001026" stroke="none" stroke-linecap="butt" stroke-linejoin="miter"/></g></g><path d="M214,197.03315v-2h52v2z" fill="#cccccc" fill-rule="nonzero" stroke="none" stroke-width="0" stroke-linecap="butt" stroke-linejoin="miter"/><path d="M266,182.77849v12.25466h-52v-12.25466z" fill="#b9a15d" fill-rule="nonzero" stroke="none" stroke-width="0" stroke-linecap="butt" stroke-linejoin="miter"/><path d="M214,182.77849v-3.36882h52v3.36882z" fill="#9d884f" fill-rule="nonzero" stroke="none" stroke-width="0" stroke-linecap="butt" stroke-linejoin="miter"/><path d="M253.60905,180.17907h11.42856v13.90454h-4.93247l-4.28862,-13.85189" fill="none" fill-rule="nonzero" stroke="#b37d50" stroke-width="2" stroke-linecap="butt" stroke-linejoin="round"/><path d="M243.80209,194.96534l-0.00047,-19.40733l-0.0167,11.02478h7.09163v8.45036" fill="none" fill-rule="nonzero" stroke="#a1724b" stroke-width="2" stroke-linecap="butt" stroke-linejoin="round"/><path d="M251.11758,184.66891h-5.84942" fill="none" fill-rule="nonzero" stroke="#5e5e5e" stroke-width="2" stroke-linecap="round" stroke-linejoin="miter"/><path d="M224.18348,180.23172l-4.28862,13.85189h-4.93247v-13.90454h11.42856" fill="none" fill-rule="nonzero" stroke="#b37d50" stroke-width="2" stroke-linecap="butt" stroke-linejoin="round"/><path d="M229.12345,195.03315v-8.45036h7.09163l-0.0167,-11.02478l-0.00047,19.40733" fill="none" fill-rule="nonzero" stroke="#a1724b" stroke-width="2" stroke-linecap="butt" stroke-linejoin="round"/><path d="M234.73184,184.66891h-5.84942" fill="none" fill-rule="nonzero" stroke="#5e5e5e" stroke-width="2" stroke-linecap="round" stroke-linejoin="miter"/><path d="M222.36519,169.24919c0.03017,0.09941 0.36406,0.79598 0.48703,0.73475c2.1538,-1.07242 0.85862,-4.33969 2.27366,-5.34808c2.69732,-1.92218 0.98258,11.4004 -4.05256,6.43794c-0.12424,-0.12245 -0.23343,-0.28303 -0.33075,-0.4634c-0.85741,1.26987 -2.04262,2.24761 -3.10364,2.33369c-3.11482,0.25271 -2.84168,-7.82404 -2.44574,-8.11799l0.79697,-0.59168c0.59521,0.25142 0.92543,0.67268 1.09955,1.19148c0.44883,1.3373 -0.13954,3.32267 0.10003,4.71764c0.02213,0.12884 0.2675,0.75804 0.46342,0.78449c1.16882,0.15778 1.56895,-2.30508 2.03549,-4.11363c-0.01717,-0.13333 -0.0334,-0.26565 -0.04909,-0.39636c-0.06937,-0.11645 -0.11606,-0.24898 -0.13325,-0.39223c-0.06583,-0.54835 0.32533,-1.04624 0.87367,-1.11207c0.41389,-0.04969 0.79904,0.16098 0.99134,0.50308c0.43067,0.52952 0.59664,1.20254 0.56689,1.9276c0.15228,0.69847 0.27738,1.41186 0.42698,1.90478z" fill="#ffe600" fill-rule="nonzero" stroke="none" stroke-width="0.5" stroke-linecap="butt" stroke-linejoin="miter"/></g></g></svg>