<svg version="1.1" xmlns="http://www.w3.org/2000/svg" xmlns:xlink="http://www.w3.org/1999/xlink" width="779.15656" height="168.79469" viewBox="0,0,779.15656,168.79469"><g transform="translate(184.75772,-162.71889)"><g stroke="none" stroke-miterlimit="10"><path d="M-184.75772,330.00003l283.9252,-118.21443l269.68063,118.21443z" fill="#56712e" stroke-width="0"/><path d="M65.62584,301.21055c0,-5.14568 1.92045,-8.55944 6.25,-10.9375c3.76748,-2.06934 17.30494,-3.25075 21.86022,-2.57615c2.33066,0 4.51235,0.63786 6.38001,1.74854c0.7333,0.33696 1.42904,0.73046 2.04714,1.19034c7.35076,-2.30189 15.13912,-4.34716 22.63723,-5.41832c0.64509,-0.10269 1.30663,-0.15604 1.98063,-0.15604c1.87761,0 3.65853,0.41398 5.25646,1.15563c1.47306,0.52323 2.84715,1.31814 4.16243,2.69888c3.08203,3.23543 3.79654,7.70178 2.74033,11.68206c2.46239,2.24932 3.58446,5.40894 3.58446,9.12723c0,13.04975 -14.92704,13.39204 -25.47138,12.40013c-4.7751,3.73228 -12.63993,3.72684 -18.14953,5.4425c-1.42166,0.4427 -4.64616,2.11238 -5.24541,2.12089c-10.54912,0.14983 -15.79738,-8.14899 -13.33844,-16.34821c-7.53687,0.24827 -14.69414,-1.18389 -14.69414,-12.12997z" fill-opacity="0.50196" fill="#ffbfe3" stroke-width="0.5"/><path d="M71.70775,248.65686c0,-5.6476 2.10777,-9.39435 6.85965,-12.00439c4.13497,-2.27119 18.99293,-3.56785 23.99255,-2.82744c2.55801,0 4.95251,0.70008 7.00234,1.91909c0.80483,0.36982 1.56844,0.80172 2.24683,1.30645c8.06778,-2.52642 16.61584,-4.77121 24.84534,-5.94685c0.70801,-0.11272 1.43409,-0.17126 2.17383,-0.17126c2.06076,0 4.01538,0.45435 5.76918,1.26835c1.61675,0.57428 3.12487,1.44671 4.56845,2.96214c3.38267,3.55102 4.16688,8.45304 3.00763,12.82157c2.70258,2.46873 3.93411,5.93654 3.93411,10.01754c0,14.32268 -16.38308,14.69836 -27.95596,13.60969c-5.24088,4.09634 -13.87288,4.09037 -19.91991,5.97337c-1.56033,0.48588 -5.09937,2.31843 -5.75707,2.32777c-11.57812,0.16445 -17.33832,-8.94387 -14.63952,-17.94287c-8.27205,0.27249 -16.12746,-1.29937 -16.12746,-13.31317z" fill-opacity="0.50196" fill="#ffbfe3" stroke-width="0.5"/><path d="M31.37486,263.60444c-9.69073,1.10881 -25.55439,3.89052 -25.55439,-11.25185c0,-2.49528 0.71512,-5.06006 1.95313,-7.22656c2.32819,-4.07433 6.53895,-4.43229 10.54688,-5.27344c5.42349,-1.13824 11.08175,-1.4001 16.5991,-2.21502c0.0309,-0.16165 0.06376,-0.32238 0.09926,-0.48185c0.22234,-0.99893 0.5477,-1.94911 1.13699,-2.77438c2.56537,-3.59272 5.63106,-5.00987 8.8612,-5.16075c0.5513,-0.07432 1.11401,-0.11269 1.68567,-0.11269c2.40337,0 4.64832,0.67828 6.55387,1.85386c2.54769,1.03587 5.02498,2.3794 7.27308,3.6008c5.88784,3.19887 17.46297,8.10772 16.31057,16.77639c-0.32883,2.47352 -0.71512,5.06005 -1.95312,7.22656c-0.60859,1.06504 -1.52231,1.95291 -2.55087,2.6763c-0.92209,1.23525 -2.06714,2.29431 -3.37554,3.11755c-5.27992,4.64061 -12.96137,8.89078 -17.26487,9.96666c-6.45191,1.61298 -15.37852,-4.53576 -14.97616,-11.46963c-2.10786,0.34487 -3.97683,0.59155 -5.34478,0.74807z" fill-opacity="0.50196" fill="#ffbfe3" stroke-width="0.5"/><path d="M386.03625,212.29022l0.36835,4.9113c0,0 0.2363,3.30753 0.2684,3.64138c0.10568,1.09909 0.40152,4.17609 0.40152,4.17609l0.05051,0.70683c0,0 0.2766,1.16065 0.37624,1.58587c0.06568,0.28027 0.16345,0.71718 0.16345,0.71718c0,0 0.14542,0.13926 0.18491,0.37608c0.05447,0.32674 0.01401,0.80359 0.07521,1.03547c0.12424,0.47081 0.38962,0.97537 0.44189,1.11222c0.15081,0.39485 0.57912,1.51629 0.57912,1.51629l0.89324,1.51359c0,0 0.73274,0.71706 1.03229,1.18274c0.31635,0.4918 0.81815,1.69397 0.81815,1.69397l0.46515,1.68267l0.39808,1.4939l0.38246,2.34018l0.39283,1.19739l0.98314,1.89268l1.38629,1.8312l1.77563,2.22055l1.25661,1.25661l0.02771,0.01387l0.03197,-0.00222c0,0 9.92416,4.79605 5.10033,4.67494c-5.50939,-0.13834 -33.10157,1.93394 -41.49259,0.29601c-5.16637,-1.00849 6.52742,-5.99202 6.65219,-6.12799c0.47662,-0.51943 1.2127,-1.61318 1.2127,-1.61318l0.63127,-1.02582l0.56779,-1.29519l0.19545,-0.45605l0.42373,-1.42802l0.18502,-0.74012l0.17795,-1.51264v-0.72136l0.26694,-1.92819v-6.25792l0.02345,-0.0938l-0.01486,-0.09553l0.0804,-0.88431v-3.125l-0.04316,-0.12946l-0.53555,-1.34425l-0.0045,-0.03946l-0.02132,-0.03351l-0.4168,-1.54325l-0.15121,-0.49686l0.01869,-0.03329l-0.00288,-0.01153l-0.03943,-0.80814l-0.22751,-0.97147v-1.77959l0.19873,-1.28163l0.16997,-1.5297l1.10476,-6.18433z" fill="#b87e48" stroke-width="0.5"/><path d="M397.11911,214.59974c-9.87847,3.13535 -14.91621,0.05174 -14.91621,0.05174c0,0 -1.11248,4.27591 -18.37245,3.24871c-7.91931,-0.4713 -9.8148,-6.19213 -9.8148,-6.19213c0,0 -11.55526,-1.04621 -12.75247,-15.91515c-1.52404,-9.60502 4.86207,-14.21974 4.86207,-14.21974c0,0 -0.65738,-12.02235 12.33709,-14.89267c3.71882,-2.3099 13.87984,1.37014 13.87984,1.37014c0,0 4.4337,-6.23855 10.84238,-5.21917c15.87381,2.52493 19.34446,8.14634 19.34446,8.14634c0,0 7.85917,-0.71587 12.04312,5.69941c2.29248,3.82968 3.34859,11.56592 1.49752,16.92081c-4.29323,12.41973 -10.7232,9.78687 -10.7232,9.78687c0,0 3.06598,7.63041 -8.22738,11.21484z" fill="#ffbfe3" stroke-width="0"/><path d="M30.32448,280.71482l1.27186,7.11969l0.19567,1.76106l0.22879,1.47547v2.04875l-0.26192,1.1184l-0.0454,0.93037l-0.00332,0.01327l0.02151,0.03833l-0.17408,0.572l-0.47983,1.77666l-0.02455,0.03858l-0.00519,0.04543l-0.61655,1.54756l-0.04968,0.14904v3.59765l0.09256,1.01806l-0.0171,0.10997l0.02699,0.10798v7.20442l0.30731,2.21983v0.83046l0.20487,1.74142l0.21301,0.85206l0.48782,1.644l0.22501,0.52503l0.65367,1.49109l0.72675,1.18097c0,0 0.84741,1.25917 1.39612,1.85716c0.14364,0.15653 13.60608,5.89381 7.65831,7.05483c-9.66014,1.88567 -41.42556,-0.50004 -47.76822,-0.34078c-5.55342,0.13943 5.87174,-5.38201 5.87174,-5.38201l0.03681,0.00255l0.0319,-0.01596l1.44667,-1.44667l2.04419,-2.5564l1.59596,-2.10816l1.13184,-2.17894l0.45225,-1.37849l0.44031,-2.69413l0.45829,-1.71985l0.5355,-1.93717c0,0 0.5777,-1.38398 0.9419,-1.95017c0.34485,-0.53611 1.18842,-1.36163 1.18842,-1.36163l1.02834,-1.74251c0,0 0.49308,-1.29105 0.6667,-1.74562c0.06018,-0.15755 0.3657,-0.73843 0.50873,-1.28044c0.07045,-0.26695 0.02388,-0.81593 0.08659,-1.19208c0.04545,-0.27264 0.21287,-0.43296 0.21287,-0.43296c0,0 0.11255,-0.50299 0.18817,-0.82565c0.11471,-0.48953 0.43315,-1.82572 0.43315,-1.82572l0.05815,-0.81373c0,0 0.34059,-3.5424 0.46225,-4.80772c0.03695,-0.38434 0.30899,-4.19212 0.30899,-4.19212l0.42406,-5.65412z" fill="#b87e48" stroke-width="0.5"/><path d="M2.3836,283.86269c-13.00145,-4.12656 -9.47175,-12.91105 -9.47175,-12.91105c0,0 -7.40248,3.03107 -12.34505,-11.2671c-2.13103,-6.1648 -0.91519,-15.07113 1.72402,-19.48003c4.81675,-7.38557 13.8646,-6.56142 13.8646,-6.56142c0,0 3.99558,-6.47163 22.27025,-9.37845c7.37798,-1.17356 12.48226,6.00856 12.48226,6.00856c0,0 11.69784,-4.23665 15.97912,-1.57738c14.95985,3.30445 14.20304,17.14515 14.20304,17.14515c0,0 7.35198,5.31268 5.59744,16.37043c-1.37829,17.11782 -14.68124,18.32227 -14.68124,18.32227c0,0 -2.18218,6.58608 -11.29926,7.12866c-19.87048,1.18257 -21.15123,-3.74006 -21.15123,-3.74006c0,0 -5.79968,3.54999 -17.17224,-0.05957z" fill="#ffbfe3" stroke-width="0"/><path d="M40.793,330.00003l354.32001,-84.21422l199.28583,84.21422z" fill="#80a845" stroke-width="0"/><path d="M232.12298,261.98921l1.10477,6.18433l0.16996,1.5297l0.19873,1.28163v1.77959l-0.22751,0.97147l-0.03943,0.80814l-0.00288,0.01153l0.01868,0.0333l-0.15121,0.49685l-0.41679,1.54325l-0.02132,0.03352l-0.0045,0.03946l-0.53555,1.34425l-0.04316,0.12946v3.12501l0.0804,0.88431l-0.01485,0.09553l0.02344,0.09379v6.25793l0.26694,1.9282v0.72136l0.17795,1.51263l0.18502,0.74012l0.42373,1.42802l0.19545,0.45605l0.56779,1.29519l0.63128,1.02582c0,0 0.73608,1.09374 1.2127,1.61317c0.12477,0.13596 11.81856,5.1195 6.65219,6.12799c-8.39103,1.63794 -35.98321,-0.43434 -41.4926,-0.296c-4.82383,0.12111 5.10033,-4.67494 5.10033,-4.67494l0.03197,0.00221l0.02771,-0.01387l1.25661,-1.25661l1.77563,-2.22055l1.38629,-1.8312l0.98314,-1.89267l0.39283,-1.19739l0.38246,-2.34019l0.39808,-1.4939l0.46515,-1.68267c0,0 0.5018,-1.20216 0.81815,-1.69396c0.29954,-0.46568 1.03229,-1.18275 1.03229,-1.18275l0.89324,-1.51359c0,0 0.4283,-1.12143 0.57911,-1.51628c0.05228,-0.13685 0.31766,-0.64141 0.4419,-1.11222c0.06119,-0.23188 0.02074,-0.70874 0.07521,-1.03547c0.03948,-0.23682 0.18491,-0.37608 0.18491,-0.37608c0,0 0.09776,-0.43691 0.16345,-0.71717c0.09964,-0.42521 0.37624,-1.58587 0.37624,-1.58587l0.05051,-0.70682c0,0 0.29585,-3.07701 0.40152,-4.1761c0.03209,-0.33384 0.26839,-3.64137 0.26839,-3.64137l0.36835,-4.9113z" fill="#b87e48" stroke-width="0.5"/><path d="M207.85287,264.72353c-11.29336,-3.58443 -8.22738,-11.21484 -8.22738,-11.21484c0,0 -6.42997,2.63286 -10.7232,-9.78687c-1.85107,-5.35489 -0.79496,-13.09113 1.49752,-16.92081c4.18394,-6.41528 12.04312,-5.69941 12.04312,-5.69941c0,0 3.47065,-5.62141 19.34446,-8.14634c6.40868,-1.01938 10.84238,5.21917 10.84238,5.21917c0,0 10.16102,-3.68005 13.87984,-1.37015c12.99448,2.87033 12.33709,14.89268 12.33709,14.89268c0,0 6.38611,4.61472 4.86207,14.21974c-1.19721,14.86894 -12.75247,15.91515 -12.75247,15.91515c0,0 -1.89549,5.72082 -9.8148,6.19212c-17.25996,1.02721 -18.37246,-3.2487 -18.37246,-3.2487c0,0 -5.03774,3.08361 -14.91621,-0.05174z" fill="#ffbfe3" stroke-width="0"/><path d="M514.65996,261.98921l1.10477,6.18433l0.16997,1.5297l0.19873,1.28163v1.77959l-0.22751,0.97147l-0.03943,0.80814l-0.00288,0.01153l0.01868,0.0333l-0.15121,0.49685l-0.41679,1.54325l-0.02132,0.03352l-0.0045,0.03946l-0.53555,1.34425l-0.04315,0.12946v3.12501l0.0804,0.88431l-0.01485,0.09553l0.02344,0.09379v6.25793l0.26693,1.9282v0.72136l0.17795,1.51263l0.18502,0.74012l0.42374,1.42802l0.19545,0.45605l0.56779,1.29519l0.63127,1.02582c0,0 0.73608,1.09374 1.2127,1.61317c0.12477,0.13596 11.81856,5.1195 6.65219,6.12799c-8.39103,1.63794 -35.98321,-0.43434 -41.4926,-0.296c-4.82383,0.12111 5.10033,-4.67494 5.10033,-4.67494l0.03197,0.00221l0.02771,-0.01387l1.25661,-1.25661l1.77563,-2.22055l1.38629,-1.8312l0.98314,-1.89267l0.39283,-1.19739l0.38246,-2.34019l0.39808,-1.4939l0.46515,-1.68267c0,0 0.5018,-1.20216 0.81815,-1.69396c0.29955,-0.46568 1.03229,-1.18275 1.03229,-1.18275l0.89324,-1.51359c0,0 0.4283,-1.12143 0.57911,-1.51628c0.05228,-0.13685 0.31766,-0.64141 0.44189,-1.11222c0.06119,-0.23188 0.02075,-0.70874 0.07522,-1.03547c0.03948,-0.23682 0.18491,-0.37608 0.18491,-0.37608c0,0 0.09776,-0.43691 0.16345,-0.71717c0.09964,-0.42521 0.37624,-1.58587 0.37624,-1.58587l0.05051,-0.70682c0,0 0.29584,-3.07701 0.40152,-4.1761c0.0321,-0.33384 0.26839,-3.64137 0.26839,-3.64137l0.36835,-4.9113z" fill="#b87e48" stroke-width="0.5"/><path d="M490.38986,264.72353c-11.29336,-3.58443 -8.22738,-11.21484 -8.22738,-11.21484c0,0 -6.42997,2.63286 -10.7232,-9.78687c-1.85107,-5.35489 -0.79496,-13.09113 1.49752,-16.92081c4.18394,-6.41528 12.04312,-5.69941 12.04312,-5.69941c0,0 3.47065,-5.62141 19.34446,-8.14634c6.40868,-1.01938 10.84238,5.21917 10.84238,5.21917c0,0 10.16102,-3.68005 13.87984,-1.37015c12.99447,2.87033 12.33709,14.89268 12.33709,14.89268c0,0 6.38611,4.61472 4.86207,14.21974c-1.19722,14.86894 -12.75247,15.91515 -12.75247,15.91515c0,0 -1.89549,5.72082 -9.8148,6.19212c-17.25997,1.02721 -18.37246,-3.2487 -18.37246,-3.2487c0,0 -5.03774,3.08361 -14.91621,-0.05174z" fill="#ffbfe3" stroke-width="0"/></g></g></svg>