<svg version="1.1" xmlns="http://www.w3.org/2000/svg" xmlns:xlink="http://www.w3.org/1999/xlink" width="480" height="385.85903" viewBox="0,0,480,385.85903"><g transform="translate(0,25.85903)"><g data-paper-data="{&quot;isPaintingLayer&quot;:true}" fill-rule="nonzero" stroke-linecap="butt" stroke-linejoin="miter" stroke-miterlimit="10" stroke-dasharray="" stroke-dashoffset="0" style="mix-blend-mode: normal"><path d="M0,360v-385.85903h480v385.85903z" fill-opacity="0.6" fill="#000000" stroke="none" stroke-width="0"/><path d="M356.88191,140.66223v78.67705c0,4.35428 -3.54033,7.89613 -7.89765,7.89613h-217.97005c-4.35276,0 -7.89613,-3.54185 -7.89613,-7.89613v-78.67857c0,-4.35428 3.54337,-7.89613 7.89613,-7.89613h217.97005c4.35733,0 7.89765,3.54337 7.89765,7.89765z" fill-opacity="0.70196" fill="#404040" stroke="#808080" stroke-width="4"/><path d="M356.88191,140.66223v23.0605h-233.76383v-23.06202c0,-4.35428 3.54337,-7.89613 7.89613,-7.89613h217.97005c4.35733,0 7.89765,3.54337 7.89765,7.89765z" fill="#808080" stroke="none" stroke-width="0"/><text transform="translate(128.03093,154.24367) scale(0.5,0.5)" font-size="40" xml:space="preserve" fill="#ffffff" fill-rule="nonzero" stroke="none" stroke-width="1" stroke-linecap="butt" stroke-linejoin="miter" stroke-miterlimit="10" stroke-dasharray="" stroke-dashoffset="0" font-family="Sans Serif" font-weight="normal" text-anchor="start" style="mix-blend-mode: normal"><tspan x="0" dy="0">ワールドを読み込み中</tspan></text><text transform="translate(128.28319,184.45737) scale(0.311,0.311)" font-size="40" xml:space="preserve" fill-opacity="0.85098" fill="#ffffff" fill-rule="nonzero" stroke="none" stroke-width="1" stroke-linecap="butt" stroke-linejoin="miter" stroke-miterlimit="10" stroke-dasharray="" stroke-dashoffset="0" font-family="Sans Serif" font-weight="normal" text-anchor="start" style="mix-blend-mode: normal"><tspan x="0" dy="0">ワールドを生成中</tspan></text></g></g></svg>