<svg version="1.1" xmlns="http://www.w3.org/2000/svg" xmlns:xlink="http://www.w3.org/1999/xlink" width="721.24996" height="72.79411" viewBox="0,0,721.24996,72.79411"><g transform="translate(123.77871,-146.0285)"><g stroke-miterlimit="10"><path d="M189.84441,169.4356v-2.92395h97.65037v2.92395z" fill="#f7f7f7" stroke="none" stroke-width="0" stroke-linecap="butt"/><path d="M293.78779,171.04159c0,0.52905 0.3039,14.23554 -0.0847,20.02759c-0.10843,1.61608 -1.09574,2.26246 -1.15546,2.26447c-10.24256,0.34371 -105.87076,0.89748 -106.15506,0.33011c-0.19356,-0.3863 -0.29343,-21.27563 -0.29343,-23.52676c0,-0.63522 1.05871,-1.30204 2.2549,-1.30204c13.55106,0 96.40063,0.10964 103.17727,0.10964c0.85704,0 2.2565,1.39472 2.2565,2.097z" fill="#f7f7f7" stroke="#000000" stroke-width="0" stroke-linecap="butt"/><path d="M186.33221,182.49751c0,0 0,-10.87483 0,-12.59764c0,-0.44462 0.70049,-0.83905 1.71415,-0.83905c7.2945,0 89.98561,0 103.72191,0c1.24927,0 1.9282,0.43512 1.9282,0.91561c0,0.87695 0.28728,12.52109 0.28728,12.52109z" fill="#1fec61" stroke="none" stroke-width="0" stroke-linecap="butt"/><path d="M288.30186,180.98577c-0.95557,0 -3.35442,0 -4.97141,0c-0.92273,0 -1.59084,-0.25258 -1.59084,-0.66695c0,-1.68489 0,-6.04478 0,-6.9775c0,-0.34323 1.0059,-0.66695 1.78971,-0.66695c0.9956,0 3.55787,0 5.17026,0c0.81831,0 1.39199,0.35614 1.39199,0.72561c0,0.92508 0,4.96647 0,6.74294c0,0.51755 -1.00591,0.84287 -1.78972,0.84287z" fill="#30f1d5" stroke="none" stroke-width="0" stroke-linecap="butt"/><path d="M274.78241,194.65217v-1.6447h14.89366v1.6447z" fill="#323232" stroke="none" stroke-width="0" stroke-linecap="butt"/><path d="M286.58413,193.16279c0.85788,0 1.55333,0.65454 1.55333,1.46197c0,0.80742 -0.69545,1.46196 -1.55333,1.46196c-0.85787,0 -1.55333,-0.65453 -1.55333,-1.46196c0,-0.80742 0.69545,-1.46197 1.55333,-1.46197z" fill="#323232" stroke="none" stroke-width="0" stroke-linecap="butt"/><path d="M277.99515,193.20145c0.85788,0 1.55333,0.65454 1.55333,1.46196c0,0.80742 -0.69545,1.46196 -1.55333,1.46196c-0.85787,0 -1.55333,-0.65454 -1.55333,-1.46196c0,-0.80742 0.69545,-1.46196 1.55333,-1.46196z" fill="#323232" stroke="none" stroke-width="0" stroke-linecap="butt"/><path d="M257.52776,195.2004c-2.10568,0 -5.76068,0 -9.41135,0c-5.58611,0 -11.16213,0 -11.16213,0v-1.6447h28.87361v1.6447c0,0 -4.91614,0 -8.30015,0z" fill="#323232" stroke="none" stroke-width="0" stroke-linecap="butt"/><path d="M243.5478,195.90395l-1.37058,-1.37057l17.08659,0.09137l-2.10155,1.2792z" fill="#323232" stroke="none" stroke-width="0" stroke-linecap="butt"/><path d="M190.62637,195.04573v-1.6447h14.89366v1.6447z" fill="#323232" stroke="none" stroke-width="0" stroke-linecap="butt"/><path d="M202.42807,193.55636c0.85788,0 1.55333,0.65453 1.55333,1.46196c0,0.80742 -0.69545,1.46197 -1.55333,1.46197c-0.85787,0 -1.55333,-0.65454 -1.55333,-1.46197c0,-0.80742 0.69545,-1.46196 1.55333,-1.46196z" fill="#323232" stroke="none" stroke-width="0" stroke-linecap="butt"/><path d="M193.68099,193.64773c0.85788,0 1.55332,0.65454 1.55332,1.46196c0,0.80742 -0.69544,1.46196 -1.55332,1.46196c-0.85787,0 -1.55334,-0.65454 -1.55334,-1.46196c0,-0.80742 0.69545,-1.46196 1.55334,-1.46196z" fill="#323232" stroke="none" stroke-width="0" stroke-linecap="butt"/><path d="M233.39329,195.01059c0,0 -3.54709,0 -5.98871,0c-1.51931,0 -4.15642,0 -6.79046,0c-4.03048,0 -8.05368,0 -8.05368,0v-1.6447h20.83285z" fill="#323232" stroke="none" stroke-width="0" stroke-linecap="butt"/><path d="M216.22614,195.71415l-1.27531,-1.37057l15.89876,0.09137l-1.95546,1.2792z" fill="#323232" stroke="none" stroke-width="0" stroke-linecap="butt"/><g><path d="M274.45008,190.94441v-18.79657" fill="none" stroke="#000000" stroke-width="0.5" stroke-linecap="round"/><path d="M270.20341,191.10105v-19.03151h8.61509v19.03151z" fill="none" stroke="#000000" stroke-width="0.5" stroke-linecap="round"/><path d="M278.30942,180.19631c0,0.52721 -0.41504,0.8586 -0.73844,0.8586c-0.39427,0 -1.38404,0 -2.0512,0c-0.38072,0 -0.6564,-0.25729 -0.6564,-0.67941c0,-1.71634 0,-6.15759 0,-7.10767c0,-0.34965 0.41505,-0.67941 0.73844,-0.67941c0.41077,0 1.46798,0 2.13326,0c0.33764,0 0.57433,0.36277 0.57433,0.73913c0,0.94236 0,5.05916 0,6.86876z" fill="#30f1d5" stroke="none" stroke-width="0" stroke-linecap="butt"/><path d="M274.09309,180.30171c0,0.52721 -0.41504,0.8586 -0.73844,0.8586c-0.39427,0 -1.38406,0 -2.0512,0c-0.38072,0 -0.65639,-0.25729 -0.65639,-0.67941c0,-1.71634 0,-6.1576 0,-7.10769c0,-0.34965 0.41504,-0.67941 0.73844,-0.67941c0.41077,0 1.46798,0 2.13326,0c0.33764,0 0.57435,0.36277 0.57435,0.73913c0,0.94236 0,5.05918 0,6.86877z" fill="#30f1d5" stroke="none" stroke-width="0" stroke-linecap="butt"/></g><path d="M266.00985,179.95447c0,0.51755 -1.0059,0.84287 -1.78971,0.84287c-0.95557,0 -3.35442,0 -4.97141,0c-0.92273,0 -1.59085,-0.25258 -1.59085,-0.66695c0,-1.68489 0,-6.04478 0,-6.9775c0,-0.34323 1.00591,-0.66695 1.78972,-0.66695c0.9956,0 3.55787,0 5.17025,0c0.81831,0 1.39199,0.35613 1.39199,0.7256c0,0.92508 0,4.96647 0,6.74294z" fill="#30f1d5" stroke="none" stroke-width="0" stroke-linecap="butt"/><g><path d="M250.57918,172.14784v18.79657" fill="none" stroke="#000000" stroke-width="0.5" stroke-linecap="round"/><path d="M246.33252,191.10105v-19.03151h8.61509v19.03151z" fill="none" stroke="#000000" stroke-width="0.5" stroke-linecap="round"/><path d="M254.43854,180.19631c0,0.52721 -0.41504,0.8586 -0.73844,0.8586c-0.39427,0 -1.38404,0 -2.0512,0c-0.38072,0 -0.65639,-0.25729 -0.65639,-0.67941c0,-1.71634 0,-6.15759 0,-7.10767c0,-0.34965 0.41504,-0.67941 0.73844,-0.67941c0.41077,0 1.46795,0 2.13325,0c0.33764,0 0.57433,0.36277 0.57433,0.73913c0,0.94236 0,5.05916 0,6.86876z" fill="#30f1d5" stroke="none" stroke-width="0" stroke-linecap="butt"/><path d="M250.2222,180.30171c0,0.52721 -0.41504,0.8586 -0.73844,0.8586c-0.39427,0 -1.38406,0 -2.05121,0c-0.38072,0 -0.65639,-0.25729 -0.65639,-0.67941c0,-1.71634 0,-6.1576 0,-7.10769c0,-0.34965 0.41504,-0.67941 0.73844,-0.67941c0.41077,0 1.46798,0 2.13326,0c0.33764,0 0.57433,0.36277 0.57433,0.73913c0,0.94236 0,5.05918 0,6.86877z" fill="#30f1d5" stroke="none" stroke-width="0" stroke-linecap="butt"/></g><path d="M243.41697,179.84908c0,0.51755 -1.0059,0.84286 -1.78971,0.84286c-0.95557,0 -3.35442,0 -4.97141,0c-0.92273,0 -1.59085,-0.25257 -1.59085,-0.66695c0,-1.68489 0,-6.04479 0,-6.9775c0,-0.34323 1.0059,-0.66695 1.78972,-0.66695c0.9956,0 3.55787,0 5.17026,0c0.81831,0 1.39199,0.35613 1.39199,0.7256c0,0.92508 0,4.96647 0,6.74294z" fill="#30f1d5" stroke="none" stroke-width="0" stroke-linecap="butt"/><path d="M198.05365,193.71447c0.85788,0 1.55333,0.65454 1.55333,1.46196c0,0.80742 -0.69545,1.46197 -1.55333,1.46197c-0.85787,0 -1.55333,-0.65454 -1.55333,-1.46197c0,-0.80742 0.69545,-1.46196 1.55333,-1.46196z" fill="#323232" stroke="none" stroke-width="0" stroke-linecap="butt"/><path d="M282.10606,193.25415c0.85788,0 1.55333,0.65454 1.55333,1.46197c0,0.80742 -0.69545,1.46197 -1.55333,1.46197c-0.85787,0 -1.55333,-0.65454 -1.55333,-1.46197c0,-0.80742 0.69545,-1.46197 1.55333,-1.46197z" fill="#323232" stroke="none" stroke-width="0" stroke-linecap="butt"/><g><path d="M227.35384,190.83899v-18.79657" fill="none" stroke="#000000" stroke-width="0.5" stroke-linecap="round"/><path d="M223.10719,190.99565v-19.03154h8.61509v19.03154z" fill="none" stroke="#000000" stroke-width="0.5" stroke-linecap="round"/><path d="M231.2132,180.09089c0,0.52721 -0.41504,0.8586 -0.73844,0.8586c-0.39427,0 -1.38404,0 -2.0512,0c-0.38072,0 -0.65639,-0.25729 -0.65639,-0.67941c0,-1.71634 0,-6.1576 0,-7.10769c0,-0.34965 0.41504,-0.67941 0.73844,-0.67941c0.41077,0 1.46798,0 2.13326,0c0.33764,0 0.57435,0.36277 0.57435,0.73913c0,0.94236 0,5.05918 0,6.86877z" fill="#30f1d5" stroke="none" stroke-width="0" stroke-linecap="butt"/><path d="M226.99687,180.19631c0,0.52721 -0.41504,0.8586 -0.73844,0.8586c-0.39427,0 -1.38406,0 -2.0512,0c-0.38072,0 -0.65639,-0.25729 -0.65639,-0.67941c0,-1.71634 0,-6.15759 0,-7.10767c0,-0.34965 0.41504,-0.67941 0.73844,-0.67941c0.41077,0 1.46798,0 2.13326,0c0.33764,0 0.57433,0.36277 0.57433,0.73913c0,0.94236 0,5.05916 0,6.86876z" fill="#30f1d5" stroke="none" stroke-width="0" stroke-linecap="butt"/></g><path d="M220.78587,179.63824c0,0.51755 -1.0059,0.84287 -1.78972,0.84287c-0.95557,0 -3.35442,0 -4.97139,0c-0.92273,0 -1.59085,-0.25258 -1.59085,-0.66695c0,-1.68489 0,-6.04478 0,-6.9775c0,-0.34323 1.00591,-0.66695 1.78972,-0.66695c0.9956,0 3.55787,0 5.17026,0c0.81831,0 1.39199,0.35613 1.39199,0.7256c0,0.92508 0,4.96647 0,6.74294z" fill="#30f1d5" stroke="none" stroke-width="0" stroke-linecap="butt"/><g><path d="M205.72271,172.04242v18.79657" fill="none" stroke="#000000" stroke-width="0.5" stroke-linecap="round"/><path d="M201.47607,190.99565v-19.03154h8.61509v19.03154z" fill="none" stroke="#000000" stroke-width="0.5" stroke-linecap="round"/><path d="M209.58207,180.09089c0,0.52721 -0.41504,0.8586 -0.73844,0.8586c-0.39427,0 -1.38406,0 -2.0512,0c-0.38072,0 -0.65639,-0.25729 -0.65639,-0.67941c0,-1.71634 0,-6.1576 0,-7.10769c0,-0.34965 0.41504,-0.67941 0.73844,-0.67941c0.41077,0 1.46798,0 2.13326,0c0.33764,0 0.57433,0.36277 0.57433,0.73913c0,0.94236 0,5.05918 0,6.86877z" fill="#30f1d5" stroke="none" stroke-width="0" stroke-linecap="butt"/><path d="M205.36574,180.19631c0,0.52721 -0.41504,0.8586 -0.73844,0.8586c-0.39427,0 -1.38404,0 -2.0512,0c-0.38072,0 -0.65639,-0.25729 -0.65639,-0.67941c0,-1.71634 0,-6.15759 0,-7.10767c0,-0.34965 0.41504,-0.67941 0.73844,-0.67941c0.41077,0 1.46798,0 2.13327,0c0.33764,0 0.57433,0.36277 0.57433,0.73913c0,0.94236 0,5.05916 0,6.86876z" fill="#30f1d5" stroke="none" stroke-width="0" stroke-linecap="butt"/></g><path d="M198.18367,179.84908c0,0.51755 -1.0059,0.84286 -1.78972,0.84286c-0.95557,0 -3.35442,0 -4.97141,0c-0.92273,0 -1.59085,-0.25257 -1.59085,-0.66695c0,-1.68489 0,-6.04479 0,-6.9775c0,-0.34323 1.0059,-0.66695 1.78971,-0.66695c0.9956,0 3.55787,0 5.17026,0c0.81831,0 1.39199,0.35613 1.39199,0.7256c0,0.92508 0,4.96647 0,6.74294z" fill="#30f1d5" stroke="none" stroke-width="0" stroke-linecap="butt"/><path d="M405.39503,171.04159c0,1.32425 0.98603,8.97221 0.94169,14.56307c-0.02533,3.19421 -1.62183,7.71018 -2.18189,7.72898c-10.24256,0.34371 -105.87077,0.89748 -106.15507,0.33011c-0.19356,-0.3863 -0.2934,-21.27563 -0.2934,-23.52676c0,-0.63522 1.05871,-1.30204 2.2549,-1.30204c13.55106,0 96.40063,0.10964 103.17727,0.10964c0.85704,0 2.2565,1.39472 2.2565,2.097z" fill="#f7f7f7" stroke="#000000" stroke-width="0" stroke-linecap="butt"/><path d="M297.93942,182.49752c0,0 0,-10.87483 0,-12.59764c0,-0.44462 0.70049,-0.83904 1.71415,-0.83904c7.2945,0 89.9856,0 103.72191,0c1.24927,0 1.9282,0.43512 1.9282,0.91561c0,0.87695 0.57298,3.86167 0.83307,6.73755c0.26688,2.95109 0.22101,5.78351 0.22101,5.78351z" fill="#1fec61" stroke="none" stroke-width="0" stroke-linecap="butt"/><path d="M394.54151,181.11355c-0.95557,0 -3.35442,0 -4.97141,0c-0.92273,0 -1.59085,-0.25258 -1.59085,-0.66695c0,-1.68489 0,-6.04478 0,-6.9775c0,-0.34323 1.00591,-0.66695 1.78972,-0.66695c0.9956,0 3.55787,0 5.17026,0c0.81831,0 1.39199,0.35613 1.39199,0.7256c0,0.92508 0,4.96647 0,6.74294c0,0.51755 -1.0059,0.84287 -1.78972,0.84287z" fill="#30f1d5" stroke="none" stroke-width="0" stroke-linecap="butt"/><path d="M402.60285,180.40712c0,0.52721 -0.41504,0.8586 -0.73844,0.8586c-0.39427,0 -1.38404,0 -2.0512,0c-0.38072,0 -0.65639,-0.25729 -0.65639,-0.67941c0,-1.71634 0,-6.1576 0,-7.10769c0,-0.34965 0.41504,-0.67941 0.73844,-0.67941c0.41077,0 1.46798,0 2.13326,0c0.33764,0 0.57435,0.36277 0.57435,0.73914c0,0.94236 0,5.05916 0,6.86877z" fill="#30f1d5" stroke="none" stroke-width="0" stroke-linecap="butt"/><path d="M398.60778,190.89023v-19.03151h4.60958v19.03151z" fill="none" stroke="#000000" stroke-width="0.5" stroke-linecap="round"/><path d="M386.38963,194.65217v-1.6447h14.89366v1.6447z" fill="#323232" stroke="none" stroke-width="0" stroke-linecap="butt"/><path d="M398.19136,193.16279c0.85788,0 1.55333,0.65454 1.55333,1.46197c0,0.80742 -0.69545,1.46196 -1.55333,1.46196c-0.85787,0 -1.55334,-0.65453 -1.55334,-1.46196c0,-0.80742 0.69545,-1.46197 1.55334,-1.46197z" fill="#323232" stroke="none" stroke-width="0" stroke-linecap="butt"/><path d="M389.60238,193.20145c0.85787,0 1.55334,0.65454 1.55334,1.46196c0,0.80742 -0.69546,1.46196 -1.55334,1.46196c-0.85787,0 -1.55333,-0.65454 -1.55333,-1.46196c0,-0.80742 0.69545,-1.46196 1.55333,-1.46196z" fill="#323232" stroke="none" stroke-width="0" stroke-linecap="butt"/><path d="M369.13501,195.2004c-2.10568,0 -5.76068,0 -9.41135,0c-5.58611,0 -11.16213,0 -11.16213,0v-1.6447h28.87361v1.6447c0,0 -4.91614,0 -8.30015,0z" fill="#323232" stroke="none" stroke-width="0" stroke-linecap="butt"/><path d="M355.15505,195.90396l-1.37057,-1.37057l17.08659,0.09137l-2.10155,1.2792z" fill="#323232" stroke="none" stroke-width="0" stroke-linecap="butt"/><path d="M302.23361,195.04573v-1.6447h14.89367v1.6447z" fill="#323232" stroke="none" stroke-width="0" stroke-linecap="butt"/><path d="M314.03535,193.55637c0.85787,0 1.55332,0.65453 1.55332,1.46196c0,0.80742 -0.69544,1.46197 -1.55332,1.46197c-0.85787,0 -1.55333,-0.65454 -1.55333,-1.46197c0,-0.80742 0.69545,-1.46196 1.55333,-1.46196z" fill="#323232" stroke="none" stroke-width="0" stroke-linecap="butt"/><path d="M305.28821,193.64775c0.85788,0 1.55333,0.65453 1.55333,1.46196c0,0.80742 -0.69545,1.46196 -1.55333,1.46196c-0.85787,0 -1.55333,-0.65454 -1.55333,-1.46196c0,-0.80742 0.69545,-1.46196 1.55333,-1.46196z" fill="#323232" stroke="none" stroke-width="0" stroke-linecap="butt"/><path d="M345.00054,195.01059c0,0 -3.54709,0 -5.98871,0c-1.51931,0 -4.15642,0 -6.79046,0c-4.03048,0 -8.05368,0 -8.05368,0v-1.6447h20.83285z" fill="#323232" stroke="none" stroke-width="0" stroke-linecap="butt"/><path d="M327.83337,195.71415l-1.27531,-1.37057l15.89876,0.09137l-1.95545,1.2792z" fill="#323232" stroke="none" stroke-width="0" stroke-linecap="butt"/><g><path d="M381.45649,172.14785v18.79657" fill="none" stroke="#000000" stroke-width="0.5" stroke-linecap="round"/><path d="M377.20987,191.10105v-19.03151h8.61509v19.03151z" fill="none" stroke="#000000" stroke-width="0.5" stroke-linecap="round"/><path d="M385.31587,180.19631c0,0.52721 -0.41505,0.8586 -0.73844,0.8586c-0.39427,0 -1.38404,0 -2.0512,0c-0.38072,0 -0.65639,-0.25729 -0.65639,-0.67941c0,-1.71634 0,-6.15759 0,-7.10767c0,-0.34965 0.41504,-0.67941 0.73844,-0.67941c0.41077,0 1.46795,0 2.13325,0c0.33764,0 0.57433,0.36277 0.57433,0.73913c0,0.94236 0,5.05916 0,6.86876z" fill="#30f1d5" stroke="none" stroke-width="0" stroke-linecap="butt"/><path d="M381.09953,180.30172c0,0.52721 -0.41504,0.8586 -0.73843,0.8586c-0.39427,0 -1.38406,0 -2.0512,0c-0.38072,0 -0.65639,-0.25729 -0.65639,-0.67941c0,-1.71634 0,-6.1576 0,-7.10769c0,-0.34965 0.41504,-0.67941 0.73843,-0.67941c0.41078,0 1.46801,0 2.13327,0c0.33764,0 0.57433,0.36277 0.57433,0.73913c0,0.94236 0,5.05918 0,6.86877z" fill="#30f1d5" stroke="none" stroke-width="0" stroke-linecap="butt"/></g><path d="M374.9333,179.95449c0,0.51755 -1.0059,0.84287 -1.78971,0.84287c-0.95556,0 -3.35442,0 -4.97139,0c-0.92273,0 -1.59085,-0.25258 -1.59085,-0.66695c0,-1.68489 0,-6.04478 0,-6.9775c0,-0.34323 1.0059,-0.66695 1.78972,-0.66695c0.9956,0 3.55787,0 5.17026,0c0.81831,0 1.39197,0.35613 1.39197,0.7256c0,0.92508 0,4.96647 0,6.74294z" fill="#30f1d5" stroke="none" stroke-width="0" stroke-linecap="butt"/><g><path d="M360.26941,172.14785v18.79657" fill="none" stroke="#000000" stroke-width="0.5" stroke-linecap="round"/><path d="M356.02278,191.10105v-19.03151h8.61509v19.03151z" fill="none" stroke="#000000" stroke-width="0.5" stroke-linecap="round"/><path d="M364.12876,180.19631c0,0.52721 -0.41504,0.8586 -0.73844,0.8586c-0.39427,0 -1.38406,0 -2.0512,0c-0.38072,0 -0.65639,-0.25729 -0.65639,-0.67941c0,-1.71634 0,-6.15759 0,-7.10767c0,-0.34965 0.41505,-0.67941 0.73844,-0.67941c0.41078,0 1.46798,0 2.13326,0c0.33764,0 0.57435,0.36277 0.57435,0.73913c0,0.94236 0,5.05916 0,6.86876z" fill="#30f1d5" stroke="none" stroke-width="0" stroke-linecap="butt"/><path d="M359.91244,180.30172c0,0.52721 -0.41504,0.8586 -0.73844,0.8586c-0.39427,0 -1.38406,0 -2.05121,0c-0.38072,0 -0.65639,-0.25729 -0.65639,-0.67941c0,-1.71634 0,-6.1576 0,-7.10769c0,-0.34965 0.41504,-0.67941 0.73844,-0.67941c0.41077,0 1.46798,0 2.13326,0c0.33764,0 0.57435,0.36277 0.57435,0.73913c0,0.94236 0,5.05918 0,6.86877z" fill="#30f1d5" stroke="none" stroke-width="0" stroke-linecap="butt"/></g><path d="M353.74622,179.84908c0,0.51755 -1.0059,0.84286 -1.78972,0.84286c-0.95557,0 -3.35442,0 -4.97139,0c-0.92273,0 -1.59085,-0.25257 -1.59085,-0.66695c0,-1.68489 0,-6.04479 0,-6.9775c0,-0.34323 1.0059,-0.66695 1.78972,-0.66695c0.99559,0 3.55787,0 5.17025,0c0.81831,0 1.39199,0.35613 1.39199,0.7256c0,0.92508 0,4.96647 0,6.74294z" fill="#30f1d5" stroke="none" stroke-width="0" stroke-linecap="butt"/><path d="M309.66087,193.71447c0.85788,0 1.55333,0.65454 1.55333,1.46196c0,0.80742 -0.69545,1.46197 -1.55333,1.46197c-0.85787,0 -1.55334,-0.65454 -1.55334,-1.46197c0,-0.80742 0.69545,-1.46196 1.55334,-1.46196z" fill="#323232" stroke="none" stroke-width="0" stroke-linecap="butt"/><path d="M393.71329,193.25415c0.85788,0 1.55333,0.65454 1.55333,1.46197c0,0.80742 -0.69545,1.46197 -1.55333,1.46197c-0.85787,0 -1.55333,-0.65454 -1.55333,-1.46197c0,-0.80742 0.69545,-1.46197 1.55333,-1.46197z" fill="#323232" stroke="none" stroke-width="0" stroke-linecap="butt"/><g><path d="M338.44985,190.83899v-18.79657" fill="none" stroke="#000000" stroke-width="0.5" stroke-linecap="round"/><path d="M334.20322,190.99565v-19.03154h8.61509v19.03151z" fill="none" stroke="#000000" stroke-width="0.5" stroke-linecap="round"/><path d="M342.30923,180.09089c0,0.52721 -0.41504,0.8586 -0.73844,0.8586c-0.39427,0 -1.38406,0 -2.0512,0c-0.38072,0 -0.65639,-0.25729 -0.65639,-0.67941c0,-1.71634 0,-6.1576 0,-7.10769c0,-0.34965 0.41504,-0.67941 0.73844,-0.67941c0.41077,0 1.46798,0 2.13326,0c0.33764,0 0.57433,0.36277 0.57433,0.73914c0,0.94236 0,5.05916 0,6.86877z" fill="#30f1d5" stroke="none" stroke-width="0" stroke-linecap="butt"/><path d="M338.09289,180.19631c0,0.52721 -0.41505,0.8586 -0.73844,0.8586c-0.39427,0 -1.38406,0 -2.0512,0c-0.38072,0 -0.65639,-0.25729 -0.65639,-0.67941c0,-1.71634 0,-6.15759 0,-7.10767c0,-0.34965 0.41504,-0.67941 0.73844,-0.67941c0.41077,0 1.46798,0 2.13326,0c0.33764,0 0.57435,0.36277 0.57435,0.73913c0,0.94236 0,5.05916 0,6.86876z" fill="#30f1d5" stroke="none" stroke-width="0" stroke-linecap="butt"/></g><path d="M332.13748,179.63824c0,0.51755 -1.0059,0.84287 -1.78971,0.84287c-0.95557,0 -3.35444,0 -4.97141,0c-0.92273,0 -1.59085,-0.25258 -1.59085,-0.66695c0,-1.68489 0,-6.04478 0,-6.9775c0,-0.34323 1.0059,-0.66695 1.78972,-0.66695c0.9956,0 3.55787,0 5.17026,0c0.81831,0 1.39199,0.35613 1.39199,0.7256c0,0.92508 0,4.96647 0,6.74294z" fill="#30f1d5" stroke="none" stroke-width="0" stroke-linecap="butt"/><g><path d="M316.94654,190.83899v-18.79657" fill="none" stroke="#000000" stroke-width="0.5" stroke-linecap="round"/><path d="M312.6999,190.99565v-19.03154h8.61509v19.03151z" fill="none" stroke="#000000" stroke-width="0.5" stroke-linecap="round"/><path d="M320.8059,180.09089c0,0.52721 -0.41505,0.8586 -0.73844,0.8586c-0.39427,0 -1.38404,0 -2.0512,0c-0.38072,0 -0.65639,-0.25729 -0.65639,-0.67941c0,-1.71634 0,-6.1576 0,-7.10769c0,-0.34965 0.41504,-0.67941 0.73844,-0.67941c0.41077,0 1.46798,0 2.13326,0c0.33764,0 0.57433,0.36277 0.57433,0.73914c0,0.94236 0,5.05916 0,6.86877z" fill="#30f1d5" stroke="none" stroke-width="0" stroke-linecap="butt"/><path d="M316.58955,180.19631c0,0.52721 -0.41504,0.8586 -0.73844,0.8586c-0.39427,0 -1.38404,0 -2.0512,0c-0.38072,0 -0.65639,-0.25729 -0.65639,-0.67941c0,-1.71634 0,-6.15759 0,-7.10767c0,-0.34965 0.41505,-0.67941 0.73844,-0.67941c0.41077,0 1.46798,0 2.13326,0c0.33764,0 0.57433,0.36277 0.57433,0.73913c0,0.94236 0,5.05916 0,6.86876z" fill="#30f1d5" stroke="none" stroke-width="0" stroke-linecap="butt"/></g><path d="M309.7909,179.84908c0,0.51755 -1.0059,0.84286 -1.78971,0.84286c-0.95557,0 -3.35444,0 -4.97141,0c-0.92273,0 -1.59085,-0.25257 -1.59085,-0.66695c0,-1.68489 0,-6.04479 0,-6.9775c0,-0.34323 1.0059,-0.66695 1.78971,-0.66695c0.9956,0 3.55787,0 5.17026,0c0.81831,0 1.39199,0.35613 1.39199,0.7256c0,0.92508 0,4.96647 0,6.74294z" fill="#30f1d5" stroke="none" stroke-width="0" stroke-linecap="butt"/><path d="M301.45166,169.70693v-2.92395h97.65037v2.92395z" fill="#f7f7f7" stroke="none" stroke-width="0" stroke-linecap="butt"/><path d="M74.605,171.0416c0,-0.70227 1.39945,-2.097 2.2565,-2.097c6.77663,0 89.62621,-0.10964 103.17727,-0.10964c1.19621,0 2.2549,0.66681 2.2549,1.30204c0,2.25114 -0.09983,23.14046 -0.2934,23.52676c-0.28431,0.56736 -95.91251,0.0136 -106.15507,-0.33011c-0.56004,-0.01881 -2.15655,-4.53477 -2.18189,-7.72898c-0.04432,-5.59088 0.94169,-13.23883 0.94169,-14.56307z" fill="#f7f7f7" stroke="#000000" stroke-width="0" stroke-linecap="butt"/><path d="M73.64227,182.49753c0,0 -0.04586,-2.83243 0.22101,-5.78351c0.26009,-2.87589 0.83307,-5.8606 0.83307,-6.73755c0,-0.48048 0.67893,-0.91561 1.9282,-0.91561c13.73631,0 96.42741,0 103.72191,0c1.01367,0 1.71415,0.39442 1.71415,0.83904c0,1.7228 0,12.59764 0,12.59764z" fill="#1fec61" stroke="none" stroke-width="0" stroke-linecap="butt"/><path d="M83.66879,180.27068c0,-1.77646 0,-5.81785 0,-6.74294c0,-0.36946 0.57368,-0.7256 1.39199,-0.7256c1.61241,0 4.17467,0 5.17026,0c0.7838,0 1.78972,0.32372 1.78972,0.66695c0,0.93269 0,5.29258 0,6.9775c0,0.41438 -0.66811,0.66695 -1.59085,0.66695c-1.61699,0 -4.01582,0 -4.97141,0c-0.78382,0 -1.78972,-0.32532 -1.78972,-0.84287z" fill="#30f1d5" stroke="none" stroke-width="0" stroke-linecap="butt"/><path d="M77.39715,180.40714c0,-1.80962 0,-5.92641 0,-6.86877c0,-0.37637 0.23671,-0.73914 0.57435,-0.73914c0.66528,0 1.72249,0 2.13326,0c0.3234,0 0.73844,0.32975 0.73844,0.67941c0,0.95009 0,5.39135 0,7.10769c0,0.42212 -0.27566,0.67941 -0.65639,0.67941c-0.66717,0 -1.65694,0 -2.0512,0c-0.3234,0 -0.73844,-0.3314 -0.73844,-0.8586z" fill="#30f1d5" stroke="none" stroke-width="0" stroke-linecap="butt"/><path d="M76.78268,190.89023v-19.03151h4.60958v19.03151z" fill="none" stroke="#000000" stroke-width="0.5" stroke-linecap="round"/><path d="M78.71674,194.65217v-1.6447h14.89366v1.6447z" fill="#323232" stroke="none" stroke-width="0" stroke-linecap="butt"/><path d="M83.36201,194.62476c0,0.80742 -0.69546,1.46196 -1.55334,1.46196c-0.85787,0 -1.55333,-0.65453 -1.55333,-1.46196c0,-0.80742 0.69544,-1.46197 1.55333,-1.46197c0.85788,0 1.55334,0.65454 1.55334,1.46197z" fill="#323232" stroke="none" stroke-width="0" stroke-linecap="butt"/><path d="M91.95098,194.66341c0,0.80741 -0.69545,1.46196 -1.55333,1.46196c-0.85787,0 -1.55334,-0.65453 -1.55334,-1.46196c0,-0.80741 0.69546,-1.46196 1.55334,-1.46196c0.85787,0 1.55333,0.65453 1.55333,1.46196z" fill="#323232" stroke="none" stroke-width="0" stroke-linecap="butt"/><path d="M102.56488,195.2004v-1.6447h28.87361v1.6447c0,0 -5.57601,0 -11.16213,0c-3.65067,0 -7.30565,0 -9.41135,0c-3.384,0 -8.30015,0 -8.30015,0z" fill="#323232" stroke="none" stroke-width="0" stroke-linecap="butt"/><path d="M111.2305,195.90397l-2.10155,-1.2792l17.08659,-0.09137l-1.37057,1.37057z" fill="#323232" stroke="none" stroke-width="0" stroke-linecap="butt"/><path d="M162.87275,195.04573v-1.6447h14.89367v1.6447z" fill="#323232" stroke="none" stroke-width="0" stroke-linecap="butt"/><path d="M167.51799,195.01833c0,0.80742 -0.69545,1.46197 -1.55333,1.46197c-0.85787,0 -1.55332,-0.65454 -1.55332,-1.46197c0,-0.80742 0.69544,-1.46196 1.55332,-1.46196c0.85787,0 1.55333,0.65453 1.55333,1.46196z" fill="#323232" stroke="none" stroke-width="0" stroke-linecap="butt"/><path d="M176.2651,195.10969c0,0.80741 -0.69545,1.46196 -1.55333,1.46196c-0.85787,0 -1.55333,-0.65453 -1.55333,-1.46196c0,-0.80742 0.69544,-1.46196 1.55333,-1.46196c0.85787,0 1.55333,0.65453 1.55333,1.46196z" fill="#323232" stroke="none" stroke-width="0" stroke-linecap="butt"/><path d="M134.99948,193.36588h20.83285v1.6447c0,0 -4.02321,0 -8.05368,0c-2.63404,0 -5.27116,0 -6.79046,0c-2.44165,0 -5.98871,0 -5.98871,0z" fill="#323232" stroke="none" stroke-width="0" stroke-linecap="butt"/><path d="M139.49866,195.71416l-1.95545,-1.2792l15.89876,-0.09137l-1.27531,1.37057z" fill="#323232" stroke="none" stroke-width="0" stroke-linecap="butt"/><g><path d="M98.54352,172.14785v18.79657" fill="none" stroke="#000000" stroke-width="0.5" stroke-linecap="round"/><path d="M94.17506,191.10105v-19.03151h8.61509v19.03151z" fill="none" stroke="#000000" stroke-width="0.5" stroke-linecap="round"/><path d="M94.68416,180.19631c0,-1.80961 0,-5.9264 0,-6.86876c0,-0.37635 0.23669,-0.73913 0.57433,-0.73913c0.66528,0 1.72248,0 2.13325,0c0.3234,0 0.73844,0.32975 0.73844,0.67941c0,0.95009 0,5.39133 0,7.10767c0,0.42212 -0.27566,0.67941 -0.65639,0.67941c-0.66717,0 -1.65694,0 -2.0512,0c-0.32339,0 -0.73844,-0.3314 -0.73844,-0.8586z" fill="#30f1d5" stroke="none" stroke-width="0" stroke-linecap="butt"/><path d="M98.90049,180.30172c0,-1.80961 0,-5.92641 0,-6.86877c0,-0.37635 0.23669,-0.73913 0.57433,-0.73913c0.66528,0 1.72249,0 2.13327,0c0.32339,0 0.73843,0.32975 0.73843,0.67941c0,0.95009 0,5.39135 0,7.10769c0,0.42212 -0.27566,0.67941 -0.65639,0.67941c-0.66716,0 -1.65694,0 -2.0512,0c-0.32339,0 -0.73843,-0.3314 -0.73843,-0.8586z" fill="#30f1d5" stroke="none" stroke-width="0" stroke-linecap="butt"/></g><path d="M105.0667,179.95449c0,-1.77646 0,-5.81785 0,-6.74294c0,-0.36946 0.57366,-0.7256 1.39197,-0.7256c1.61241,0 4.17467,0 5.17026,0c0.78382,0 1.78972,0.32372 1.78972,0.66695c0,0.93269 0,5.29258 0,6.9775c0,0.41438 -0.66811,0.66695 -1.59085,0.66695c-1.61697,0 -4.01582,0 -4.97139,0c-0.7838,0 -1.78971,-0.32532 -1.78971,-0.84287z" fill="#30f1d5" stroke="none" stroke-width="0" stroke-linecap="butt"/><g><path d="M119.73062,190.94442v-18.79657" fill="none" stroke="#000000" stroke-width="0.5" stroke-linecap="round"/><path d="M115.36217,191.10105v-19.03151h8.61509v19.03151z" fill="none" stroke="#000000" stroke-width="0.5" stroke-linecap="round"/><path d="M115.87123,180.19631c0,-1.80961 0,-5.9264 0,-6.86876c0,-0.37635 0.23671,-0.73913 0.57435,-0.73913c0.66528,0 1.72248,0 2.13326,0c0.32339,0 0.73844,0.32975 0.73844,0.67941c0,0.95009 0,5.39133 0,7.10767c0,0.42212 -0.27566,0.67941 -0.65639,0.67941c-0.66716,0 -1.65694,0 -2.0512,0c-0.3234,0 -0.73844,-0.3314 -0.73844,-0.8586z" fill="#30f1d5" stroke="none" stroke-width="0" stroke-linecap="butt"/><path d="M120.08756,173.43295c0,-0.37635 0.23671,-0.73913 0.57435,-0.73913c0.66528,0 1.72249,0 2.13326,0c0.3234,0 0.73844,0.32975 0.73844,0.67941c0,0.95009 0,5.39135 0,7.10769c0,0.42212 -0.27566,0.67941 -0.65639,0.67941c-0.66717,0 -1.65695,0 -2.05121,0c-0.3234,0 -0.73844,-0.3314 -0.73844,-0.8586c0,-1.80961 0,-5.92641 0,-6.86877z" fill="#30f1d5" stroke="none" stroke-width="0" stroke-linecap="butt"/></g><path d="M126.25381,179.84906c0,-1.77646 0,-5.81785 0,-6.74294c0,-0.36946 0.57368,-0.7256 1.39199,-0.7256c1.61239,0 4.17467,0 5.17025,0c0.78382,0 1.78972,0.32372 1.78972,0.66695c0,0.93268 0,5.29258 0,6.9775c0,0.41439 -0.66811,0.66695 -1.59085,0.66695c-1.61697,0 -4.01581,0 -4.97139,0c-0.78382,0 -1.78972,-0.32531 -1.78972,-0.84286z" fill="#30f1d5" stroke="none" stroke-width="0" stroke-linecap="butt"/><path d="M171.89248,195.17643c0,0.80742 -0.69546,1.46197 -1.55334,1.46197c-0.85787,0 -1.55333,-0.65454 -1.55333,-1.46197c0,-0.80741 0.69544,-1.46196 1.55333,-1.46196c0.85788,0 1.55334,0.65453 1.55334,1.46196z" fill="#323232" stroke="none" stroke-width="0" stroke-linecap="butt"/><path d="M87.84005,194.71613c0,0.80742 -0.69545,1.46197 -1.55333,1.46197c-0.85787,0 -1.55333,-0.65454 -1.55333,-1.46197c0,-0.80742 0.69544,-1.46197 1.55333,-1.46197c0.85787,0 1.55333,0.65454 1.55333,1.46197z" fill="#323232" stroke="none" stroke-width="0" stroke-linecap="butt"/><g><path d="M141.55014,190.83899v-18.79657" fill="none" stroke="#000000" stroke-width="0.5" stroke-linecap="round"/><path d="M137.1817,190.99563v-19.03151h8.61509v19.03154z" fill="none" stroke="#000000" stroke-width="0.5" stroke-linecap="round"/><path d="M137.69078,180.09092c0,-1.80962 0,-5.92641 0,-6.86877c0,-0.37637 0.23669,-0.73914 0.57433,-0.73914c0.66528,0 1.72249,0 2.13326,0c0.3234,0 0.73844,0.32975 0.73844,0.67941c0,0.95009 0,5.39135 0,7.10769c0,0.42212 -0.27566,0.67941 -0.65639,0.67941c-0.66716,0 -1.65694,0 -2.0512,0c-0.3234,0 -0.73844,-0.3314 -0.73844,-0.8586z" fill="#30f1d5" stroke="none" stroke-width="0" stroke-linecap="butt"/><path d="M141.90711,180.19631c0,-1.80961 0,-5.9264 0,-6.86876c0,-0.37635 0.23671,-0.73913 0.57435,-0.73913c0.66528,0 1.72249,0 2.13326,0c0.3234,0 0.73844,0.32975 0.73844,0.67941c0,0.95009 0,5.39133 0,7.10767c0,0.42212 -0.27566,0.67941 -0.65639,0.67941c-0.66716,0 -1.65694,0 -2.0512,0c-0.32339,0 -0.73844,-0.3314 -0.73844,-0.8586z" fill="#30f1d5" stroke="none" stroke-width="0" stroke-linecap="butt"/></g><path d="M147.86252,179.63824c0,-1.77646 0,-5.81785 0,-6.74294c0,-0.36946 0.57368,-0.7256 1.39199,-0.7256c1.61241,0 4.17467,0 5.17026,0c0.78382,0 1.78972,0.32372 1.78972,0.66695c0,0.93269 0,5.29258 0,6.9775c0,0.41438 -0.66811,0.66695 -1.59085,0.66695c-1.61697,0 -4.01582,0 -4.97141,0c-0.7838,0 -1.78971,-0.32532 -1.78971,-0.84287z" fill="#30f1d5" stroke="none" stroke-width="0" stroke-linecap="butt"/><g><path d="M163.05349,172.04242v18.79657" fill="none" stroke="#000000" stroke-width="0.5" stroke-linecap="round"/><path d="M158.68501,190.99563v-19.03151h8.61509v19.03154z" fill="none" stroke="#000000" stroke-width="0.5" stroke-linecap="round"/><path d="M159.1941,180.09092c0,-1.80962 0,-5.92641 0,-6.86877c0,-0.37637 0.23669,-0.73914 0.57433,-0.73914c0.66528,0 1.72249,0 2.13326,0c0.3234,0 0.73844,0.32975 0.73844,0.67941c0,0.95009 0,5.39135 0,7.10769c0,0.42212 -0.27566,0.67941 -0.65639,0.67941c-0.66717,0 -1.65694,0 -2.0512,0c-0.32339,0 -0.73844,-0.3314 -0.73844,-0.8586z" fill="#30f1d5" stroke="none" stroke-width="0" stroke-linecap="butt"/><path d="M163.41045,173.32755c0,-0.37635 0.23669,-0.73913 0.57433,-0.73913c0.66528,0 1.72249,0 2.13326,0c0.32339,0 0.73844,0.32975 0.73844,0.67941c0,0.95009 0,5.39133 0,7.10767c0,0.42212 -0.27566,0.67941 -0.65639,0.67941c-0.66717,0 -1.65694,0 -2.0512,0c-0.3234,0 -0.73844,-0.3314 -0.73844,-0.8586c0,-1.80961 0,-5.9264 0,-6.86876z" fill="#30f1d5" stroke="none" stroke-width="0" stroke-linecap="butt"/></g><path d="M170.20912,179.84906c0,-1.77646 0,-5.81785 0,-6.74294c0,-0.36946 0.57368,-0.7256 1.39199,-0.7256c1.61241,0 4.17467,0 5.17026,0c0.7838,0 1.78971,0.32372 1.78971,0.66695c0,0.93268 0,5.29258 0,6.9775c0,0.41439 -0.66811,0.66695 -1.59085,0.66695c-1.61697,0 -4.01582,0 -4.97141,0c-0.7838,0 -1.78971,-0.32531 -1.78971,-0.84286z" fill="#30f1d5" stroke="none" stroke-width="0" stroke-linecap="butt"/><path d="M80.89797,169.70693v-2.92395h97.65037v2.92395z" fill="#f7f7f7" stroke="none" stroke-width="0" stroke-linecap="butt"/><path d="M-123.7787,218.82261v-72.79411h721.24996v72.79411z" fill="none" stroke="none" stroke-width="0" stroke-linecap="butt"/></g></g></svg>