<svg version="1.1" xmlns="http://www.w3.org/2000/svg" xmlns:xlink="http://www.w3.org/1999/xlink" width="108.5" height="61.5" viewBox="0,0,108.5,61.5"><defs><linearGradient x1="217.905" y1="173.28955" x2="217.905" y2="187.46818" gradientUnits="userSpaceOnUse" id="color-1"><stop offset="0" stop-color="#9a8053"/><stop offset="1" stop-color="#af9260"/></linearGradient><linearGradient x1="217.905" y1="179.09637" x2="217.905" y2="181.66136" gradientUnits="userSpaceOnUse" id="color-2"><stop offset="0" stop-color="#7a5c43"/><stop offset="1" stop-color="#9e7357"/></linearGradient><linearGradient x1="217.905" y1="170.72455" x2="217.905" y2="173.28955" gradientUnits="userSpaceOnUse" id="color-3"><stop offset="0" stop-color="#7a5c43"/><stop offset="1" stop-color="#9e7357"/></linearGradient><linearGradient x1="218.10631" y1="170.99759" x2="218.10631" y2="179.09637" gradientUnits="userSpaceOnUse" id="color-4"><stop offset="0" stop-color="#636363"/><stop offset="1" stop-color="#232323"/></linearGradient><radialGradient cx="204.01127" cy="165.76269" r="8.80458" gradientUnits="userSpaceOnUse" id="color-5"><stop offset="0" stop-color="#d9d9d9" stop-opacity="0.34902"/><stop offset="1" stop-color="#d9d9d9" stop-opacity="0"/></radialGradient><radialGradient cx="222.27037" cy="162.86824" r="7.09777" gradientUnits="userSpaceOnUse" id="color-6"><stop offset="0" stop-color="#d9d9d9" stop-opacity="0.34902"/><stop offset="1" stop-color="#d9d9d9" stop-opacity="0"/></radialGradient><radialGradient cx="220.34688" cy="166.30875" r="10.64665" gradientUnits="userSpaceOnUse" id="color-7"><stop offset="0" stop-color="#d9d9d9" stop-opacity="0.34902"/><stop offset="1" stop-color="#d9d9d9" stop-opacity="0"/></radialGradient><radialGradient cx="200.58887" cy="169.76922" r="8.46566" gradientUnits="userSpaceOnUse" id="color-8"><stop offset="0" stop-color="#d9d9d9" stop-opacity="0.34902"/><stop offset="1" stop-color="#d9d9d9" stop-opacity="0"/></radialGradient><radialGradient cx="204.011" cy="176.30658" r="11.1616" gradientUnits="userSpaceOnUse" id="color-9"><stop offset="0" stop-color="#d9d9d9" stop-opacity="0.34902"/><stop offset="1" stop-color="#d9d9d9" stop-opacity="0"/></radialGradient><radialGradient cx="234.01581" cy="171.58681" r="9.8892" gradientUnits="userSpaceOnUse" id="color-10"><stop offset="0" stop-color="#d9d9d9" stop-opacity="0.34902"/><stop offset="1" stop-color="#d9d9d9" stop-opacity="0"/></radialGradient><radialGradient cx="229.93748" cy="175.90678" r="8.80458" gradientUnits="userSpaceOnUse" id="color-11"><stop offset="0" stop-color="#d9d9d9" stop-opacity="0.34902"/><stop offset="1" stop-color="#d9d9d9" stop-opacity="0"/></radialGradient><radialGradient cx="234.6195" cy="179.64566" r="7.09776" gradientUnits="userSpaceOnUse" id="color-12"><stop offset="0" stop-color="#d9d9d9" stop-opacity="0.34902"/><stop offset="1" stop-color="#d9d9d9" stop-opacity="0"/></radialGradient><linearGradient x1="217.905" y1="170.805" x2="217.905" y2="186.075" gradientUnits="userSpaceOnUse" id="color-13"><stop offset="0" stop-color="#666666" stop-opacity="0"/><stop offset="1" stop-color="#666666"/></linearGradient></defs><g transform="translate(-185.905,-149.125)"><g stroke-miterlimit="10"><path d="M290.655,152.875v54h-101v-54z" fill="#333333" fill-rule="nonzero" stroke="#333333" stroke-width="7.5" stroke-linecap="butt" stroke-linejoin="round"/><g fill-rule="nonzero" stroke-linecap="butt"><path d="M190.905,190.435v-36h54v36z" fill="#b96530" stroke="#666666" stroke-width="2" stroke-linejoin="round"/><path d="M243.905,173.28955v14.17863h-52v-14.17863z" fill="url(#color-1)" stroke="none" stroke-width="0" stroke-linejoin="miter"/><path d="M191.905,181.66136v-2.56499h52v2.56499z" fill="url(#color-2)" stroke="none" stroke-width="0" stroke-linejoin="miter"/><path d="M191.905,173.28955v-2.565h52v2.565z" fill="url(#color-3)" stroke="none" stroke-width="0" stroke-linejoin="miter"/><path d="M221.9456,176.41966c0,0.68235 1.58592,2.82868 -4.15705,2.66816c-4.08468,-0.11417 -4.10594,-2.1159 -4.10594,-2.81426c0,-0.9407 0.51956,-1.76004 1.28737,-2.18674c-0.04565,-0.18895 -0.06984,-0.38627 -0.06984,-0.58924c0,-1.38071 1.11929,-2.5 2.5,-2.5c0.87473,0 1.64453,0.44924 2.09127,1.12959c0.17347,-0.03809 0.35369,-0.05816 0.5386,-0.05816c1.38071,0 2.5,1.11929 2.5,2.5c0,0.61756 -0.22392,1.18282 -0.595,1.61902c0.00701,0.07627 0.01059,0.15353 0.01059,0.23163z" fill="url(#color-4)" stroke="none" stroke-width="0.5" stroke-linejoin="miter"/><path d="M213.27838,187.46818v-11.61364h9.25325v11.61364z" fill="#69391b" stroke="none" stroke-width="0" stroke-linejoin="miter"/><g stroke="none" stroke-width="0" stroke-linejoin="miter"><path d="M212.81585,165.76269c0,4.86263 -3.94195,8.80458 -8.80458,8.80458c-4.86263,0 -8.80457,-3.94195 -8.80457,-8.80457c0,-4.86263 3.94195,-8.80458 8.80458,-8.80458c4.86263,0 8.80458,3.94194 8.80458,8.80458z" fill="url(#color-5)"/><path d="M229.36813,162.86824c0,3.92 -3.17777,7.09776 -7.09776,7.09776c-3.91999,0 -7.09777,-3.17777 -7.09777,-7.09776c0,-3.91999 3.17777,-7.09776 7.09777,-7.09776c3.92,0 7.09776,3.17776 7.09776,7.09776z" fill="url(#color-6)"/><path d="M230.99352,166.30875c0,5.87998 -4.76666,10.64665 -10.64664,10.64665c-5.87998,0 -10.64665,-4.76667 -10.64665,-10.64665c0,-5.87998 4.76667,-10.64665 10.64665,-10.64665c5.87998,0 10.64664,4.76667 10.64664,10.64665z" fill="url(#color-7)"/><path d="M209.05453,169.76922c0,4.67545 -3.7902,8.46565 -8.46565,8.46565c-4.67545,0 -8.46566,-3.7902 -8.46566,-8.46565c0,-4.67545 3.79021,-8.46565 8.46566,-8.46565c4.67545,0 8.46565,3.7902 8.46565,8.46565z" fill="url(#color-8)"/><path d="M215.1726,176.30658c0,6.16439 -4.99721,11.1616 -11.1616,11.1616c-6.16439,0 -11.1616,-4.99721 -11.1616,-11.1616c0,-6.16439 4.99722,-11.1616 11.1616,-11.1616c6.16439,0 11.1616,4.99721 11.1616,11.1616z" fill="url(#color-9)"/><path d="M243.905,171.58681c0,5.46166 -4.42754,9.8892 -9.88919,9.8892c-5.46166,0 -9.8892,-4.42754 -9.8892,-9.8892c0,-5.46166 4.42754,-9.8892 9.8892,-9.8892c5.46166,0 9.88919,4.42754 9.88919,9.8892z" fill="url(#color-10)"/><path d="M238.74206,175.90678c0,4.86263 -3.94195,8.80458 -8.80458,8.80458c-4.86263,0 -8.80458,-3.94195 -8.80458,-8.80457c0,-4.86263 3.94195,-8.80458 8.80458,-8.80458c4.86263,0 8.80458,3.94194 8.80458,8.80458z" fill="url(#color-11)"/><path d="M241.71728,179.64566c0,3.92 -3.17777,7.09776 -7.09776,7.09776c-3.91999,0 -7.09776,-3.17776 -7.09776,-7.09776c0,-3.91999 3.17777,-7.09776 7.09776,-7.09776c3.91999,0 7.09776,3.17777 7.09776,7.09776z" fill="url(#color-12)"/></g></g><path d="M254.675,178.975l-1.96,2.07l-1.96,-2.07" fill="none" fill-rule="nonzero" stroke="#eeeeee" stroke-width="4" stroke-linecap="round" stroke-linejoin="miter"/><path d="M190.905,190.435v-19.62h54v19.62z" fill="url(#color-13)" fill-rule="nonzero" stroke="none" stroke-width="1" stroke-linecap="butt" stroke-linejoin="miter"/><text transform="translate(201.265,201.895) scale(0.23,0.23)" font-size="40" xml:space="preserve" fill="#ffffff" fill-rule="nonzero" stroke="none" stroke-width="1" stroke-linecap="butt" stroke-linejoin="miter" font-family="Sans Serif" font-weight="400" text-anchor="start"><tspan x="0" dy="0">150,000G</tspan></text><text transform="translate(259.725,161.015) scale(0.23,0.23)" font-size="40" xml:space="preserve" fill="#eeeeee" fill-rule="nonzero" stroke="none" stroke-width="1" stroke-linecap="butt" stroke-linejoin="miter" font-family="Sans Serif" font-weight="400" text-anchor="start"><tspan x="0" dy="0">4,000G</tspan></text><text transform="translate(259.725,171.865) scale(0.23,0.23)" font-size="40" xml:space="preserve" fill="#eeeeee" fill-rule="nonzero" stroke="none" stroke-width="1" stroke-linecap="butt" stroke-linejoin="miter" font-family="Sans Serif" font-weight="400" text-anchor="start"><tspan x="0" dy="0">480G</tspan></text><text transform="translate(259.725,182.715) scale(0.23,0.23)" font-size="40" xml:space="preserve" fill="#eeeeee" fill-rule="nonzero" stroke="none" stroke-width="1" stroke-linecap="butt" stroke-linejoin="miter" font-family="Sans Serif" font-weight="400" text-anchor="start"><tspan x="0" dy="0">9%</tspan></text><text transform="translate(259.725,193.565) scale(0.23,0.23)" font-size="40" xml:space="preserve" fill="#eeeeee" fill-rule="nonzero" stroke="none" stroke-width="1" stroke-linecap="butt" stroke-linejoin="miter" font-family="Sans Serif" font-weight="400" text-anchor="start"><tspan x="0" dy="0">-3</tspan></text><text transform="translate(259.725,204.415) scale(0.23,0.23)" font-size="40" xml:space="preserve" fill="#eeeeee" fill-rule="nonzero" stroke="none" stroke-width="1" stroke-linecap="butt" stroke-linejoin="miter" font-family="Sans Serif" font-weight="400" text-anchor="start"><tspan x="0" dy="0">-7</tspan></text><text transform="translate(191.905,186.975) scale(0.21,0.21)" font-size="40" xml:space="preserve" fill="#ffffff" fill-rule="nonzero" stroke="none" stroke-width="1" stroke-linecap="butt" stroke-linejoin="miter" font-family="Sans Serif" font-weight="400" text-anchor="start"><tspan x="0" dy="0">サウナ</tspan></text><path d="M254.295,186.785c0.32,-0.29 0.47,-0.2 0.33,0.21l-0.87,2.69c-0.13,0.42 0.09,0.86 0.51,0.99l0.32,0.1c0.41,0.13 0.49,0.48 0.17,0.77l-3.61,3.35c-0.32,0.29 -0.47,0.2 -0.33,-0.21l0.87,-2.69c0.13,-0.42 -0.09,-0.86 -0.51,-0.99l-0.31,-0.1c-0.41,-0.13 -0.49,-0.48 -0.17,-0.77zM250.055,203.115c0,-1.47 2.66,-5.49 2.66,-5.49c0,0 2.66,4.02 2.66,5.49c0,1.47 -1.19,2.66 -2.66,2.66c-1.47,0 -2.66,-1.19 -2.66,-2.66z" fill="#eeeeee" fill-rule="nonzero" stroke="#eeeeee" stroke-width="0.65" stroke-linecap="butt" stroke-linejoin="miter"/><path d="M191.855,200.155l-0.95,-2.39l5.74,-2.29l0.95,2.39zM255.835,159.085l-0.04,3.17l-0.94,-0.33l-0.55,-1.77l-1.56,1.03l-3.15,-1.11l1.97,-2.49z" fill="#ffffff" fill-rule="nonzero" stroke="#ffffff" stroke-width="1.25" stroke-linecap="butt" stroke-linejoin="round"/><path d="M194.725,199.015l1.55,3.88M255.115,154.335l-1.41,3.99" fill="none" fill-rule="nonzero" stroke="#ffffff" stroke-width="1.25" stroke-linecap="round" stroke-linejoin="miter"/><path d="M253.445,166.095c0.03,-0.02 0.09,-0.01 0.09,0.03l0.27,1.13c0,0 0.67,0.49 0.87,0.84c0.34,0.58 0.35,1.05 0.35,1.05c0,0 0.75,0.22 0.87,0.82c0.13,0.6 -0.34,1.73 -2.31,2.13c-1.98,0.39 -3.57,-0.15 -4.31,-1.35c-0.75,-1.2 0.43,-2.63 0.37,-2.55l-0.22,-1.89c-0.01,-0.04 0.04,-0.07 0.09,-0.05l1.27,0.83c0,0 0.47,-0.18 0.97,-0.2c0.29,-0.02 0.55,0 0.79,0.04z" fill="#eeeeee" fill-rule="nonzero" stroke="#eeeeee" stroke-width="0.65" stroke-linecap="butt" stroke-linejoin="miter"/><path d="M256.945,169.305c-0.49,0.4 -1.25,0.41 -1.25,0.41M256.805,170.485c-0.66,0.05 -1.07,-0.15 -1.07,-0.15M248.495,169.275c0,0 0.91,0.29 1.27,0.62M249.795,170.265c-0.45,0.18 -1.23,0.06 -1.23,0.06" fill="none" fill-rule="nonzero" stroke="#eeeeee" stroke-width="0.65" stroke-linecap="round" stroke-linejoin="miter"/><text transform="translate(196.51457,208.46654) scale(0.11803,0.11803)" font-size="40" xml:space="preserve" fill="#cccccc" fill-rule="nonzero" stroke="none" stroke-width="1" stroke-linecap="butt" stroke-linejoin="miter" font-family="Sans Serif" font-weight="400" text-anchor="start"><tspan x="0" dy="0">Lv.6</tspan></text><path d="M192.39673,206.48984c0.35371,-0.09488 0.62995,-0.37113 0.72483,-0.72484l0.2162,-0.80411c0.10269,-0.38013 0.64197,-0.38013 0.74406,0l0.21679,0.80411c0.09488,0.35371 0.37113,0.62996 0.72423,0.72484l0.80411,0.21619c0.38013,0.10269 0.38013,0.64196 0,0.74465l-0.80411,0.2162c-0.35311,0.09488 -0.62935,0.37113 -0.72423,0.72423l-0.21679,0.80411c-0.10209,0.38013 -0.64137,0.38013 -0.74406,0l-0.2162,-0.80411c-0.09488,-0.35311 -0.37112,-0.62935 -0.72483,-0.72423l-0.80411,-0.2162c-0.38013,-0.10269 -0.38013,-0.64196 0,-0.74465z" fill="#cccccc" fill-rule="evenodd" stroke="none" stroke-width="1" stroke-linecap="butt" stroke-linejoin="miter"/></g></g></svg>