<svg version="1.1" xmlns="http://www.w3.org/2000/svg" xmlns:xlink="http://www.w3.org/1999/xlink" width="56" height="38" viewBox="0,0,56,38"><g transform="translate(-212,-161)"><g stroke-miterlimit="10"><path d="M215.92208,196.05195v-31.32468h48.15584v31.32468z" fill="none" stroke="#cca366" stroke-width="4" stroke-linecap="butt" stroke-linejoin="miter"/><path d="M213,198v-11.01623h54v11.01623z" fill-opacity="0.70196" fill="#a3cccc" stroke="#666666" stroke-width="2" stroke-linecap="butt" stroke-linejoin="round"/><path d="M213,198v-36h54v36z" fill="none" stroke="#666666" stroke-width="2" stroke-linecap="butt" stroke-linejoin="round"/><g fill="none" stroke="#cd8f4e" stroke-width="1.5" stroke-linecap="round" stroke-linejoin="miter"><path d="M219.21945,184.88638h8.28326"/><path d="M223.36108,194.87395v-9.98757"/><path d="M217.41032,189.08213v5.79182"/><path d="M219.7435,189.08213h-4.66635v-8.46679"/><path d="M229.31184,189.08213v5.79182"/><path d="M231.64502,180.61535v8.46678h-4.66636"/><path d="M262.58968,194.87395v-5.79182"/><path d="M264.92286,180.61535v8.46678h-4.66636"/><path d="M250.68817,194.87395v-5.79182"/><path d="M253.02134,189.08213h-4.66636v-8.46678"/><path d="M252.49729,184.88638h8.28326"/><path d="M256.63892,194.87395v-9.98757"/></g><path d="M214,197.03315v-2h52v2z" fill="#cccccc" stroke="none" stroke-width="0" stroke-linecap="butt" stroke-linejoin="miter"/></g></g></svg>