<svg version="1.1" xmlns="http://www.w3.org/2000/svg" xmlns:xlink="http://www.w3.org/1999/xlink" width="108.5" height="61.5" viewBox="0,0,108.5,61.5"><defs><linearGradient x1="218.08217" y1="169.57036" x2="218.08217" y2="188.46815" gradientUnits="userSpaceOnUse" id="color-1"><stop offset="0" stop-color="#6b6b6b"/><stop offset="1" stop-color="#525252"/></linearGradient><linearGradient x1="217.94387" y1="175.3952" x2="217.94387" y2="182.685" gradientUnits="userSpaceOnUse" id="color-2"><stop offset="0" stop-color="#46ffff"/><stop offset="1" stop-color="#54908e"/></linearGradient><linearGradient x1="199.3724" y1="177.66914" x2="199.3724" y2="182.05287" gradientUnits="userSpaceOnUse" id="color-3"><stop offset="0" stop-color="#606060"/><stop offset="1" stop-color="#5b5b5b"/></linearGradient><radialGradient cx="227.34364" cy="172.89494" r="7.41598" gradientUnits="userSpaceOnUse" id="color-4"><stop offset="0" stop-color="#ffffff" stop-opacity="0.50196"/><stop offset="1" stop-color="#ffffff" stop-opacity="0"/></radialGradient><radialGradient cx="211.96424" cy="175.3329" r="5.97836" gradientUnits="userSpaceOnUse" id="color-5"><stop offset="0" stop-color="#ffffff" stop-opacity="0.50196"/><stop offset="1" stop-color="#ffffff" stop-opacity="0"/></radialGradient><radialGradient cx="213.58437" cy="172.435" r="8.96753" gradientUnits="userSpaceOnUse" id="color-6"><stop offset="0" stop-color="#ffffff" stop-opacity="0.50196"/><stop offset="1" stop-color="#ffffff" stop-opacity="0"/></radialGradient><radialGradient cx="230.22628" cy="169.52029" r="7.13051" gradientUnits="userSpaceOnUse" id="color-7"><stop offset="0" stop-color="#ffffff" stop-opacity="0.50196"/><stop offset="1" stop-color="#ffffff" stop-opacity="0"/></radialGradient><radialGradient cx="227.34387" cy="164.01396" r="9.40127" gradientUnits="userSpaceOnUse" id="color-8"><stop offset="0" stop-color="#ffffff" stop-opacity="0.50196"/><stop offset="1" stop-color="#ffffff" stop-opacity="0"/></radialGradient><radialGradient cx="202.07121" cy="167.98936" r="8.32954" gradientUnits="userSpaceOnUse" id="color-9"><stop offset="0" stop-color="#ffffff" stop-opacity="0.50196"/><stop offset="1" stop-color="#ffffff" stop-opacity="0"/></radialGradient><radialGradient cx="205.50633" cy="164.35071" r="7.41598" gradientUnits="userSpaceOnUse" id="color-10"><stop offset="0" stop-color="#ffffff" stop-opacity="0.50196"/><stop offset="1" stop-color="#ffffff" stop-opacity="0"/></radialGradient><radialGradient cx="201.56272" cy="161.2015" r="5.97835" gradientUnits="userSpaceOnUse" id="color-11"><stop offset="0" stop-color="#ffffff" stop-opacity="0.50196"/><stop offset="1" stop-color="#ffffff" stop-opacity="0"/></radialGradient><linearGradient x1="217.905" y1="170.805" x2="217.905" y2="186.075" gradientUnits="userSpaceOnUse" id="color-12"><stop offset="0" stop-color="#666666" stop-opacity="0"/><stop offset="1" stop-color="#666666"/></linearGradient></defs><g transform="translate(-185.905,-149.125)"><g stroke-miterlimit="10"><path d="M290.655,152.875v54h-101v-54z" fill="#333333" fill-rule="nonzero" stroke="#333333" stroke-width="7.5" stroke-linecap="butt" stroke-linejoin="round"/><g fill-rule="nonzero"><path d="M190.905,190.435v-36h54v36z" fill="#bfaa4e" stroke="#666666" stroke-width="2" stroke-linecap="butt" stroke-linejoin="round"/><path d="M213.00656,170.4947c0.77869,0 0.68839,0.31494 1.26341,0.64208c0.14709,-0.1146 1.50721,-1.06026 2.94494,-1.35683c2.35003,-0.48477 5.98587,-0.23047 6.06755,1.85357c0.2167,0.14871 0.40763,0.31801 0.56725,0.50376c0.2092,-0.09638 2.14778,-1.01077 4.02066,-1.01077c0.80291,0 1.54122,0.20652 2.12488,0.55229c1.13643,0.10708 3.121,1.85556 3.27924,2.1506c2.01989,-0.55696 4.01421,0.09239 5.13232,1.2469c1.06491,0.3593 2.87119,3.27307 3.03841,3.77254c0.07031,0.21001 0.08964,0.41338 0.06584,0.60823c0.30176,0.59575 0.16642,3.2448 -0.1278,3.62205c-0.29652,0.58598 0.11744,1.44505 -0.40102,2.10243c-1.12824,1.43055 -2.33739,0.3516 -4.2374,2.7069c-5.23557,0.77424 -34.56822,0.73404 -35.86322,0.11026c-0.5959,-0.13457 -1.12312,-0.38724 -1.53284,-0.72156c-0.34674,-0.22708 -2.63477,-1.34692 -3.44675,-2.57454c-1.3486,-2.03892 -1.32557,-4.63752 -1.41443,-5.8649c-0.12036,-1.66248 2.24655,-4.21515 3.18309,-4.86998c0.23666,-0.28726 6.71891,-2.05754 7.28594,-2.22128c0.7416,-0.81016 3.56515,-2.06523 5.71101,-2.16587c0.91506,-0.04292 2.19181,0.91414 2.33893,0.91414zM230.82576,177.40732c-4.82539,-0.36617 -7.49735,-1.8525 -12.51166,-1.9467c-2.90339,-0.05454 -9.72979,-0.08276 -13.35736,1.29752c-2.63743,1.00353 -2.67535,2.73095 -2.94184,3.08992c-0.71533,0.5921 1.4551,0.64182 3.45904,1.4136c2.00394,0.77178 3.17844,-1.20757 6.54165,-0.23416c1.82205,0.52735 1.10661,2.00342 2.39123,1.53145c1.24471,-0.4573 1.54348,-1.38028 3.35548,-1.80302c2.79562,-0.65222 4.95813,1.90337 5.61173,1.83528c0.72473,-0.0755 2.25122,-1.93006 2.25122,-1.93006c0,0 2.41831,-0.67523 2.9359,-0.57144c1.55313,0.31143 3.0722,1.33859 3.83254,1.44159c0.67949,0.09204 2.16396,-2.20264 1.4106,-2.75975c-0.84616,-0.62573 -1.59711,-1.2594 -2.97852,-1.36423z" fill="url(#color-1)" stroke="none" stroke-width="0.5" stroke-linecap="butt" stroke-linejoin="miter"/><path d="M233.85427,178.77068c0.75336,0.55711 -0.73183,2.86112 -1.41132,2.76908c-0.76033,-0.10299 -2.37843,-1.14352 -3.93157,-1.45495c-0.51759,-0.10378 -2.83721,0.58662 -2.83721,0.58662c0,0 -1.53356,1.8716 -2.25829,1.9471c-0.6536,0.06809 -2.86325,-2.46511 -5.65887,-1.81289c-1.812,0.42274 -2.14097,1.33122 -3.38568,1.78853c-1.28463,0.47197 -0.58113,-1.02348 -2.40318,-1.55083c-3.36321,-0.97341 -4.53952,0.99884 -6.54345,0.22706c-2.00394,-0.77178 -4.17507,-0.82774 -3.45974,-1.41984c0.26649,-0.35897 0.30512,-2.09758 2.94254,-3.10111c3.62757,-1.38028 10.50834,-1.39312 13.41173,-1.33857c5.01431,0.0942 7.73073,1.62394 12.55613,1.99012c1.38141,0.10483 2.13275,0.74394 2.97891,1.36968z" fill="url(#color-2)" stroke="none" stroke-width="0.5" stroke-linecap="butt" stroke-linejoin="miter"/><path d="M203.14599,178.93339l-1.07478,-4.03485" fill="none" stroke-opacity="0.61961" stroke="#48e8e8" stroke-width="1" stroke-linecap="round" stroke-linejoin="miter"/><path d="M197.11635,175.3952v-1.12512h5v1.12512z" fill="#8fa02f" stroke="none" stroke-width="0" stroke-linecap="butt" stroke-linejoin="miter"/><path d="M197.11635,180.46668v-7.35228h1.67189v7.35228z" fill="#8fa02f" stroke="none" stroke-width="0" stroke-linecap="butt" stroke-linejoin="miter"/><path d="M196.8724,179.86101c0,-1.21053 1.11929,-2.19187 2.5,-2.19187c1.38071,0 2.5,0.98134 2.5,2.19187c0,1.21053 -1.11929,2.19187 -2.5,2.19187c-1.38071,0 -2.5,-0.98133 -2.5,-2.19187z" fill="url(#color-3)" stroke="none" stroke-width="0.5" stroke-linecap="butt" stroke-linejoin="miter"/><path d="M219.92766,172.89494c0,-4.09573 3.32025,-7.41598 7.41598,-7.41598c4.09573,0 7.41598,3.32025 7.41598,7.41598c0,4.09573 -3.32025,7.41598 -7.41598,7.41598c-4.09573,0 -7.41598,-3.32024 -7.41598,-7.41598z" fill="url(#color-4)" stroke="none" stroke-width="0" stroke-linecap="butt" stroke-linejoin="miter"/><path d="M205.98589,175.3329c0,-3.30176 2.6766,-5.97835 5.97835,-5.97835c3.30176,0 5.97836,2.6766 5.97836,5.97835c0,3.30176 -2.6766,5.97835 -5.97836,5.97835c-3.30176,0 -5.97835,-2.67659 -5.97835,-5.97835z" fill="url(#color-5)" stroke="none" stroke-width="0" stroke-linecap="butt" stroke-linejoin="miter"/><path d="M204.61684,172.435c0,-4.95263 4.0149,-8.96753 8.96753,-8.96753c4.95263,0 8.96753,4.0149 8.96753,8.96753c0,4.95263 -4.0149,8.96753 -8.96753,8.96753c-4.95263,0 -8.96753,-4.0149 -8.96753,-8.96753z" fill="url(#color-6)" stroke="none" stroke-width="0" stroke-linecap="butt" stroke-linejoin="miter"/><path d="M223.09577,169.52029c0,-3.93807 3.19244,-7.13051 7.13051,-7.13051c3.93807,0 7.13051,3.19244 7.13051,7.13051c0,3.93807 -3.19244,7.13051 -7.13051,7.13051c-3.93807,0 -7.13051,-3.19244 -7.13051,-7.13051z" fill="url(#color-7)" stroke="none" stroke-width="0" stroke-linecap="butt" stroke-linejoin="miter"/><path d="M217.9426,164.01396c0,-5.19218 4.20909,-9.40127 9.40127,-9.40127c5.19218,0 9.40127,4.20909 9.40127,9.40127c0,5.19218 -4.20909,9.40127 -9.40127,9.40127c-5.19218,0 -9.40127,-4.20909 -9.40127,-9.40127z" fill="url(#color-8)" stroke="none" stroke-width="0" stroke-linecap="butt" stroke-linejoin="miter"/><path d="M193.74167,167.98936c0,-4.60028 3.72926,-8.32954 8.32954,-8.32954c4.60028,0 8.32954,3.72926 8.32954,8.32954c0,4.60028 -3.72926,8.32954 -8.32954,8.32954c-4.60028,0 -8.32954,-3.72926 -8.32954,-8.32954z" fill="url(#color-9)" stroke="none" stroke-width="0" stroke-linecap="butt" stroke-linejoin="miter"/><path d="M198.09035,164.35071c0,-4.09573 3.32025,-7.41598 7.41598,-7.41598c4.09573,0 7.41598,3.32025 7.41598,7.41598c0,4.09573 -3.32025,7.41598 -7.41598,7.41598c-4.09573,0 -7.41598,-3.32024 -7.41598,-7.41598z" fill="url(#color-10)" stroke="none" stroke-width="0" stroke-linecap="butt" stroke-linejoin="miter"/><path d="M195.58436,161.2015c0,-3.30176 2.6766,-5.97835 5.97835,-5.97835c3.30176,0 5.97835,2.67659 5.97835,5.97835c0,3.30176 -2.6766,5.97835 -5.97835,5.97835c-3.30176,0 -5.97835,-2.6766 -5.97835,-5.97835z" fill="url(#color-11)" stroke="none" stroke-width="0" stroke-linecap="butt" stroke-linejoin="miter"/></g><path d="M254.675,178.975l-1.96,2.07l-1.96,-2.07" fill="none" fill-rule="nonzero" stroke="#eeeeee" stroke-width="4" stroke-linecap="round" stroke-linejoin="miter"/><path d="M190.905,190.435v-19.62h54v19.62z" fill="url(#color-12)" fill-rule="nonzero" stroke="none" stroke-width="1" stroke-linecap="butt" stroke-linejoin="miter"/><text transform="translate(201.265,201.895) scale(0.23,0.23)" font-size="40" xml:space="preserve" fill="#ffffff" fill-rule="nonzero" stroke="none" stroke-width="1" stroke-linecap="butt" stroke-linejoin="miter" font-family="Sans Serif" font-weight="400" text-anchor="start"><tspan x="0" dy="0">85,000G</tspan></text><text transform="translate(259.725,161.015) scale(0.23,0.23)" font-size="40" xml:space="preserve" fill="#eeeeee" fill-rule="nonzero" stroke="none" stroke-width="1" stroke-linecap="butt" stroke-linejoin="miter" font-family="Sans Serif" font-weight="400" text-anchor="start"><tspan x="0" dy="0">4,200G</tspan></text><text transform="translate(259.725,171.865) scale(0.23,0.23)" font-size="40" xml:space="preserve" fill="#eeeeee" fill-rule="nonzero" stroke="none" stroke-width="1" stroke-linecap="butt" stroke-linejoin="miter" font-family="Sans Serif" font-weight="400" text-anchor="start"><tspan x="0" dy="0">350G</tspan></text><text transform="translate(259.725,182.715) scale(0.23,0.23)" font-size="40" xml:space="preserve" fill="#eeeeee" fill-rule="nonzero" stroke="none" stroke-width="1" stroke-linecap="butt" stroke-linejoin="miter" font-family="Sans Serif" font-weight="400" text-anchor="start"><tspan x="0" dy="0">10%</tspan></text><text transform="translate(259.725,193.565) scale(0.23,0.23)" font-size="40" xml:space="preserve" fill="#eeeeee" fill-rule="nonzero" stroke="none" stroke-width="1" stroke-linecap="butt" stroke-linejoin="miter" font-family="Sans Serif" font-weight="400" text-anchor="start"><tspan x="0" dy="0">-4</tspan></text><text transform="translate(259.725,204.415) scale(0.23,0.23)" font-size="40" xml:space="preserve" fill="#eeeeee" fill-rule="nonzero" stroke="none" stroke-width="1" stroke-linecap="butt" stroke-linejoin="miter" font-family="Sans Serif" font-weight="400" text-anchor="start"><tspan x="0" dy="0">-8</tspan></text><text transform="translate(191.905,186.975) scale(0.21,0.21)" font-size="40" xml:space="preserve" fill="#ffffff" fill-rule="nonzero" stroke="none" stroke-width="1" stroke-linecap="butt" stroke-linejoin="miter" font-family="Sans Serif" font-weight="400" text-anchor="start"><tspan x="0" dy="0">温泉</tspan></text><path d="M254.295,186.785c0.32,-0.29 0.47,-0.2 0.33,0.21l-0.87,2.69c-0.13,0.42 0.09,0.86 0.51,0.99l0.32,0.1c0.41,0.13 0.49,0.48 0.17,0.77l-3.61,3.35c-0.32,0.29 -0.47,0.2 -0.33,-0.21l0.87,-2.69c0.13,-0.42 -0.09,-0.86 -0.51,-0.99l-0.31,-0.1c-0.41,-0.13 -0.49,-0.48 -0.17,-0.77zM250.055,203.115c0,-1.47 2.66,-5.49 2.66,-5.49c0,0 2.66,4.02 2.66,5.49c0,1.47 -1.19,2.66 -2.66,2.66c-1.47,0 -2.66,-1.19 -2.66,-2.66z" fill="#eeeeee" fill-rule="nonzero" stroke="#eeeeee" stroke-width="0.65" stroke-linecap="butt" stroke-linejoin="miter"/><path d="M191.855,200.155l-0.95,-2.39l5.74,-2.29l0.95,2.39zM255.835,159.085l-0.04,3.17l-0.94,-0.33l-0.55,-1.77l-1.56,1.03l-3.15,-1.11l1.97,-2.49z" fill="#ffffff" fill-rule="nonzero" stroke="#ffffff" stroke-width="1.25" stroke-linecap="butt" stroke-linejoin="round"/><path d="M194.725,199.015l1.55,3.88M255.115,154.335l-1.41,3.99" fill="none" fill-rule="nonzero" stroke="#ffffff" stroke-width="1.25" stroke-linecap="round" stroke-linejoin="miter"/><path d="M253.445,166.095c0.03,-0.02 0.09,-0.01 0.09,0.03l0.27,1.13c0,0 0.67,0.49 0.87,0.84c0.34,0.58 0.35,1.05 0.35,1.05c0,0 0.75,0.22 0.87,0.82c0.13,0.6 -0.34,1.73 -2.31,2.13c-1.98,0.39 -3.57,-0.15 -4.31,-1.35c-0.75,-1.2 0.43,-2.63 0.37,-2.55l-0.22,-1.89c-0.01,-0.04 0.04,-0.07 0.09,-0.05l1.27,0.83c0,0 0.47,-0.18 0.97,-0.2c0.29,-0.02 0.55,0 0.79,0.04z" fill="#eeeeee" fill-rule="nonzero" stroke="#eeeeee" stroke-width="0.65" stroke-linecap="butt" stroke-linejoin="miter"/><path d="M256.945,169.305c-0.49,0.4 -1.25,0.41 -1.25,0.41M256.805,170.485c-0.66,0.05 -1.07,-0.15 -1.07,-0.15M248.495,169.275c0,0 0.91,0.29 1.27,0.62M249.795,170.265c-0.45,0.18 -1.23,0.06 -1.23,0.06" fill="none" fill-rule="nonzero" stroke="#eeeeee" stroke-width="0.65" stroke-linecap="round" stroke-linejoin="miter"/><text transform="translate(196.51457,208.46654) scale(0.11803,0.11803)" font-size="40" xml:space="preserve" fill="#cccccc" fill-rule="nonzero" stroke="none" stroke-width="1" stroke-linecap="butt" stroke-linejoin="miter" font-family="Sans Serif" font-weight="400" text-anchor="start"><tspan x="0" dy="0">Lv.3</tspan></text><path d="M192.39673,206.48984c0.35371,-0.09488 0.62995,-0.37113 0.72483,-0.72484l0.2162,-0.80411c0.10269,-0.38013 0.64197,-0.38013 0.74406,0l0.21679,0.80411c0.09488,0.35371 0.37113,0.62996 0.72423,0.72484l0.80411,0.21619c0.38013,0.10269 0.38013,0.64196 0,0.74465l-0.80411,0.2162c-0.35311,0.09488 -0.62935,0.37113 -0.72423,0.72423l-0.21679,0.80411c-0.10209,0.38013 -0.64137,0.38013 -0.74406,0l-0.2162,-0.80411c-0.09488,-0.35311 -0.37112,-0.62935 -0.72483,-0.72423l-0.80411,-0.2162c-0.38013,-0.10269 -0.38013,-0.64196 0,-0.74465z" fill="#cccccc" fill-rule="evenodd" stroke="none" stroke-width="1" stroke-linecap="butt" stroke-linejoin="miter"/></g></g></svg>