<svg version="1.1" xmlns="http://www.w3.org/2000/svg" xmlns:xlink="http://www.w3.org/1999/xlink" width="384.5632" height="92.9253" viewBox="0,0,384.5632,92.9253"><defs><linearGradient x1="239.96414" y1="33.23808" x2="239.96414" y2="96.88022" gradientTransform="translate(-40.98456,-61.06923) scale(0.7541,0.7541)" gradientUnits="userSpaceOnUse" id="color-1"><stop offset="0" stop-color="#0044b0"/><stop offset="1" stop-color="#00b049"/></linearGradient><linearGradient x1="240" y1="85.20357" x2="240" y2="109.20357" gradientTransform="translate(-368.27148,-206.40712) scale(2,2)" gradientUnits="userSpaceOnUse" id="color-2"><stop offset="0" stop-color="#cc0ab9"/><stop offset="1" stop-color="#310acc"/></linearGradient><linearGradient x1="240" y1="85.20357" x2="240" y2="109.20357" gradientTransform="translate(-368.27148,-206.40712) scale(2,2)" gradientUnits="userSpaceOnUse" id="color-3"><stop offset="0" stop-color="#cc0ab9"/><stop offset="1" stop-color="#310acc"/></linearGradient></defs><g transform="translate(-48.38144,-18.4359)"><g stroke-miterlimit="10"><text transform="translate(54.3488,80.98268) scale(1.32608,1.32608)" font-size="40" xml:space="preserve" fill="#ffffff" stroke="#000000" stroke-width="9" font-family="&quot;Microsoft YaHei&quot;, &quot;微软雅黑&quot;, STXihei, &quot;华文细黑&quot;" font-weight="normal" text-anchor="start"><tspan x="0" dy="0">ビル経営ゲーム</tspan></text><text transform="translate(54.3488,80.98268) scale(1.32608,1.32608)" font-size="40" xml:space="preserve" fill="#ffffff" stroke="#ffffff" stroke-width="4" font-family="&quot;Microsoft YaHei&quot;, &quot;微软雅黑&quot;, STXihei, &quot;华文细黑&quot;" font-weight="normal" text-anchor="start"><tspan x="0" dy="0">ビル経営ゲーム</tspan></text><text transform="translate(54.3488,80.98268) scale(1.32608,1.32608)" font-size="40" xml:space="preserve" fill="url(#color-1)" stroke="#ffffff" stroke-width="0" font-family="&quot;Microsoft YaHei&quot;, &quot;微软雅黑&quot;, STXihei, &quot;华文细黑&quot;" font-weight="normal" text-anchor="start"><tspan x="0" dy="0">ビル経営ゲーム</tspan></text><g font-family="&quot;Microsoft YaHei&quot;, &quot;微软雅黑&quot;, STXihei, &quot;华文细黑&quot;" font-weight="normal" font-size="40" text-anchor="start"><text transform="translate(184.13574,103.20356) scale(0.5,0.5)" font-size="40" xml:space="preserve" fill="#ffffff" stroke="#ffffff" stroke-width="5"><tspan x="0" dy="0">バージョン8</tspan></text><text transform="translate(184.13574,103.20356) scale(0.5,0.5)" font-size="40" xml:space="preserve" fill="url(#color-2)" stroke="url(#color-3)" stroke-width="1"><tspan x="0" dy="0">バージョン8</tspan></text></g><g stroke="none" stroke-width="0.5"><path d="M306.30202,82.63026c4.01315,-2.25744 9.68548,-0.86106 14.09503,-1.06233c8.31383,-0.37947 16.60748,-0.70269 24.92167,-1.05638c5.11162,-0.21745 10.0612,-1.0882 15.09504,0.17026c0.54366,0.13591 4.44183,6.23928 4.19484,6.79741c-0.2995,0.67678 -1.19811,1.19397 -1.10156,1.92774c0.15431,1.17278 1.32963,1.97952 1.76062,3.08109c0.10541,0.26944 -0.46212,0.83888 -0.17304,0.85053c8.338,0.33601 13.13935,-3.99727 17.99423,2.65621c0.54669,0.74922 2.60924,2.56177 2.2141,3.87467c-2.64442,8.7863 -7.42493,7.27641 -14.97663,9.33636c-1.90364,0.51927 -18.05417,-0.21363 -21.75545,-0.00259c-7.32256,0.41751 -15.54449,1.19057 -22.86786,1.54523c-6.37525,0.30875 -14.34705,1.19805 -20.78228,0.0199c-3.30012,-0.60417 -8.45612,-4.29257 -7.02882,-8.15469c0.70507,-1.90784 1.64065,-3.7451 2.76889,-5.43745c0.28759,-0.43139 1.24743,-0.24918 1.35965,-0.75535c0.31351,-1.41416 -1.0336,-3.83573 0.99115,-4.63719c-0.29726,-0.8075 -0.45956,-1.68025 -0.45956,-2.59092c0,-2.44071 1.16587,-4.60913 2.97108,-5.97871c0.2309,-0.22353 0.48835,-0.42034 0.77892,-0.58379z" fill="#9966ff"/><path d="M312.14811,87.85057c0,-0.68592 0.55248,-1.24281 1.23671,-1.24993l0.49781,-0.28446c0.19452,0.11115 0.36638,0.25286 0.51777,0.42138c2.35834,-0.56771 5.7856,-0.54696 6.6852,0.95237c0.6779,1.12983 0.35978,2.38797 -0.37632,3.43865c-0.36441,0.52014 -1.91088,1.24867 -1.29376,1.39865c3.22453,0.78364 5.13362,1.3752 4.54581,5.33257c-0.46517,3.1317 -4.33204,5.18372 -7.16392,5.72454c-1.19326,0.22788 -3.89093,0.82864 -3.89093,-1.04024c0,-0.13882 0.01557,-0.26292 0.04477,-0.3739c-1.42554,-0.99028 -0.57858,-6.4427 -0.49745,-7.6709c0.07367,-1.11526 -0.129,-4.00068 -0.03836,-5.87606c-0.16744,-0.21266 -0.26734,-0.48099 -0.26734,-0.77266zM316.33099,101.12816c2.72975,-0.54912 5.24809,-2.16123 5.15462,-5.09607c-0.05303,-1.66496 -4.10134,-1.0274 -6.33154,-1.27145c-0.17984,1.66205 -0.38974,3.20097 -0.40063,4.22857c-0.00577,0.54431 0.11814,1.49349 -0.04962,2.24047c0.58884,-0.03894 1.20067,-0.01573 1.62717,-0.10152zM317.51976,90.77392c0.04411,-0.02768 1.45993,-1.40836 1.35896,-1.43409c-0.68954,-0.17569 -2.19739,-0.05786 -3.54812,-0.021c0.08772,0.76734 0.09712,1.61932 0.06146,2.49955c0.84011,-0.44877 1.74103,-0.8018 2.1277,-1.04446z" fill="#ffffff"/><path d="M325.18891,96.88759l0.23699,-0.71098l0.0483,-0.0759l0.01952,-0.08783l0.52138,-1.04277l0.10982,-0.12812l0.0791,-0.14906l0.42659,-0.47398l0.08565,-0.05772l0.0626,-0.08216l0.47398,-0.37919l0.12089,-0.05541l0.10097,-0.08654l0.37919,-0.18959l0.22128,-0.04917l0.21335,-0.07659l0.47398,-0.0474l0.0628,0.00919l0.06158,-0.01539h0.52138l0.05607,0.01402l0.0571,-0.00888l0.52138,0.0474l0.06413,0.02237l0.06784,-0.00323l0.47398,0.0948l0.11252,0.0533l0.12311,0.01858l0.53891,0.22455l0.6331,0.22611l0.13966,0.09311l0.15675,0.06003l0.46235,0.32364l0.55696,0.37131l0.05586,0.06145l0.07389,0.03789l0.37919,0.33179l0.02427,0.03495l0.03648,0.02189l0.60591,0.60591l0.01377,0.00275l0.01927,0.03029l0.02463,0.02463l0.14777,0.24629l0.1542,0.24231l0.01101,0.03304l0.01847,0.03079l-0.00369,0.01355l0.1638,0.49141l0.04941,0.64234l-0.03291,0.03678l0.01299,0.04762l-0.19133,0.31889l-0.00077,0.00347l-0.0474,0.0948l-0.03597,0.04197l-0.03138,0.0523l-0.00253,0.04549l-0.18813,0.16125l-0.16125,0.18813l-0.06227,0.00346l-0.07749,0.06642l-0.18959,0.0948l-0.13438,0.02986l-0.12147,0.06478l-0.33262,0.08315l-0.38104,0.12701l-0.04887,0.00376l-0.04325,0.02306l-0.56878,0.1422l-0.06562,0l-0.06077,0.02476l-0.66358,0.0948l-0.01122,-0.00116l-0.01052,0.00407l-0.75838,0.0948l-0.03932,-0.00477l-0.03775,0.01198l-0.75838,0.0474l-0.03925,-0.00725l-0.03872,0.00968l-0.71379,0l-0.57508,0.04108l-0.61989,0.08856l-0.01122,-0.00116l-0.01052,0.00407l-0.35389,0.04424l-0.23516,0.03919l0.04977,0.12941l0.23385,0.40924l0.37504,0.34095l0.00468,0.00702l0.00738,0.00409l0.59901,0.55908l0.69555,0.38642l0.76396,0.38198l0.80756,0.14683l1.07728,0.08977l0.01672,0.00569l0.01751,-0.00237l0.69104,0.07678l0.67953,-0.10193l0.45001,-0.15l0.3926,-0.14276l0.13397,-0.08038l0.61632,-0.18758l1.09866,0.61632l0.0268,1.25944l-0.45554,0.45554l-0.23699,0.1422l-0.1157,0.03521l-0.10024,0.06766l-0.52138,0.18959l-0.01726,0.0018l-0.01464,0.00931l-0.56878,0.18959l-0.10895,0.00838l-0.10091,0.04194l-0.94797,0.1422l-0.16209,-0.01562l-0.16137,0.02181l-0.83608,-0.0929l-1.12042,-0.09337l-0.05832,-0.01985l-0.06148,0.00401l-1.04277,-0.18959l-0.16192,-0.07325l-0.17349,-0.03855l-0.94797,-0.47398l-0.02114,-0.01812l-0.02689,-0.00722l-0.85317,-0.47398l-0.11186,-0.10464l-0.13398,-0.07423l-0.70499,-0.65799l-0.51532,-0.46847l-0.10878,-0.16317l-0.13568,-0.14158l-0.37919,-0.66358l-0.02606,-0.09267l-0.05532,-0.07878l-0.23699,-0.61618l-0.02168,-0.17654l-0.05732,-0.16838l-0.0474,-0.56878l0.00855,-0.05235l-0.01286,-0.05146v-0.71098l0.01539,-0.06158l-0.00919,-0.0628l0.0474,-0.47398l0.03441,-0.09586l0.00159,-0.10184l0.18959,-0.71098l0.01894,-0.03421zM327.77299,97.13405l0.65272,-0.09325l0.04486,0.00464l0.04286,-0.01403l0.66358,-0.0474l0.04487,0.00787l0.04419,-0.01105h0.71935l0.68078,-0.04255l0.70907,-0.08863l0.55325,-0.07904l-0.01127,-0.00986l-0.50065,-0.33377l-0.00982,-0.0108l-0.01363,-0.00522l-0.33609,-0.23526l-0.50506,-0.18038l-0.02758,-0.01838l-0.03277,-0.00495l-0.45453,-0.18939l-0.28714,-0.05743l-0.39842,-0.03622l-0.40234,0l-0.18306,0.01831l-0.055,0.0275l-0.29073,0.23259l-0.24496,0.27218l-0.40596,0.81193l-0.02888,0.08664z" fill="#ffffff"/><path d="M343.40846,99.48503c-0.03036,0.87669 0.4353,2.98191 -1.25,2.98191c-1.75512,0 -1.40337,-3.90703 -0.9208,-6.7618c-0.988,-0.19121 -1.97055,-0.38003 -2.87108,-0.39537c-0.01024,-0.00017 -0.02068,-0.00029 -0.03127,-0.00038c-0.6759,-0.0166 -1.21873,-0.56972 -1.21873,-1.24962c0,-0.45799 0.24631,-0.85845 0.61368,-1.07614c0.1227,-0.09747 0.28814,-0.1554 0.54201,-0.17035c0.03113,-0.00232 0.06258,-0.0035 0.09431,-0.0035c1.14607,-0.01952 2.29236,-0.03118 3.43868,-0.03438c0.0582,-0.6632 0.06598,-2.12295 0.85136,-2.06879c0.16462,-0.07981 0.34939,-0.12456 0.54461,-0.12456c0.69036,0 1.25,0.55964 1.25,1.25c0,0.27601 -0.08946,0.53113 -0.24096,0.73794c0.01196,0.07 0.02231,0.14053 0.03114,0.21156c0.7277,0.00577 1.45536,0.01513 2.18292,0.02822c1.39318,0.02507 1.45395,1.5148 0.625,2.34375c-0.81847,0.81847 -1.90792,1.01526 -3.10581,0.95351c-0.22943,1.13769 -0.49744,2.29198 -0.53506,3.378z" fill="#ffffff"/><path d="M349.91417,94.05977c0,-0.02329 0.00064,-0.04643 0.00189,-0.0694l-0.00864,-0.01727l0.01262,-0.03534c0.02092,-0.21601 0.09683,-0.41592 0.21354,-0.58558l0.07616,-0.11424l0.00106,-0.01913l0.24552,-0.21044l0.23927,-0.21752l0.01912,0.00132l0.17483,-0.08741l0.11424,-0.02539l0.10137,-0.05848l0.33179,-0.0948l0.02137,-0.00071l0.01886,-0.01006l0.37919,-0.0948l0.0169,0l0.01511,-0.00756l0.42659,-0.0948l0.13761,0.00362l0.13355,-0.03339h1.80114l0.13842,0.0346l0.14266,-0.00259l0.61618,0.1422l0.09464,0.04829l0.10506,0.01586l0.56878,0.23699l0.0978,0.07278l0.11481,0.041l0.42659,0.28439l0.10814,0.11895l0.13275,0.09066l0.35478,0.39913l0.35321,0.35321l0.07083,0.11804l0.09987,0.09475l0.33179,0.52138l0.03979,0.11938l0.07231,0.10299l0.22235,0.57811l0.2673,0.57915l0.01819,0.09589l0.04877,0.08454l0.18959,0.66358l0.00127,0.03812l0.01706,0.03412l0.18959,0.85317l-0.00253,0.09631l0.02953,0.0917l0.04072,0.61084l0.11963,0.51839l-0.00157,0.08635l0.02845,0.08155l0.0474,0.52138l-0.00888,0.0571l0.01402,0.05607v0.25541l0.02312,0.11562l-0.01305,0.274l0,0.31221l-0.01558,0.01493l-0.00202,0.04237l-0.4628,0.40308l-0.42911,0.41123l-0.03254,-0.00915l-0.02549,0.0222l-0.56385,-0.18795l-0.59081,-0.16616l-0.01996,-0.03742l-0.02047,-0.00682l-0.13365,-0.28215l-0.07741,-0.14514l-0.28992,1.03082l-0.56844,0.30317l-0.18959,0.0474l-0.15388,0l-0.08953,0.02238l-0.13578,0.07242l-0.18959,0.0474h-0.14911l-0.0492,0.02109l-0.00125,0.00218l-0.00923,0.00231l-0.12337,0.05287l-0.24835,0.04006l-0.24405,0.06101h-0.13423l-0.00939,0.00151l-0.00201,-0.00151h-0.25054l-0.68115,0.08514l-0.07841,-0.0095l-0.07663,0.01916h-1.46935l-0.0938,-0.02345l-0.09627,0.00891l-0.61618,-0.0948l-0.0161,-0.00676l-0.01743,0.00114l-0.4157,-0.07558l-0.00922,0.00424l-0.0279,-0.01099l-0.06856,-0.01246l-0.24883,-0.11257l-0.25411,-0.1001l-0.0567,-0.0405l-0.02733,-0.01236l-0.00338,-0.00957l-0.24439,-0.17456l-0.06775,-0.07953l-0.08959,-0.05375l-0.42659,-0.42659l-0.05251,-0.08751l-0.05798,-0.02297l-0.09349,-0.22947l-0.12748,-0.21247l0.01641,-0.06017l-0.03851,-0.09451l-0.0474,-0.33179l0.00926,-0.08949l-0.02182,-0.08728v-0.75838l0.03732,-0.14929v-0.15388l0.06236,-0.24943l-0.00195,-0.00474l0.00722,-0.01634l0.02717,-0.10868l0.12157,-0.22795l0.10441,-0.2363l0.06878,-0.08843l0.00841,-0.01576l0.00493,-0.00139l0.24968,-0.32101l0.00693,-0.00543l0.00367,-0.00801l0.37919,-0.47398l0.1054,-0.0803l0.07914,-0.10627l0.51339,-0.42005l0.60829,-0.51471l0.13455,-0.06621l0.11386,-0.09759l0.56878,-0.28439l0.14533,-0.0323l0.13261,-0.06766l0.61618,-0.1422l0.14266,0.00259l0.13842,-0.0346h1.23236l0.13842,0.0346l0.14266,-0.00259l0.61618,0.1422l0.18068,0.09218l0.19337,0.06123l0.44278,0.27248l-0.13413,-0.34873l-0.19094,-0.30005l-0.28216,-0.28216l-0.01934,-0.03223l-0.03104,-0.0212l-0.27224,-0.30627l-0.19186,-0.1279l-0.35982,-0.14992l-0.37492,-0.08652l-1.52157,0l-0.27659,0.06146l-0.34303,0.08576l-0.06687,0.01911c-0.08351,0.08145 -0.17839,0.15131 -0.28202,0.20698l-0.0273,0.02482l-0.01876,-0.00129c-0.16462,0.07981 -0.34939,0.12456 -0.54461,0.12456c-0.69036,0 -1.25,-0.55964 -1.25,-1.25zM356.79983,100.57057l-0.02311,-0.02697l-0.19073,-0.38145l-0.2767,-0.38046l-0.37133,-0.40509l-0.44293,-0.29528l-0.02389,-0.02628l-0.03273,-0.01378l-0.52283,-0.39212l-0.3928,-0.24173l-0.27787,-0.06412h-0.94764l-0.33255,0.07674l-0.30173,0.15087l-0.50179,0.42459l-0.00953,0.00469l-0.00635,0.00852l-0.41927,0.34304l-0.29142,0.36427l-0.15802,0.20317l0,0.35342l0.03472,0.03472l0.01994,0.01424l0.22938,0.04171l0.50489,0.07768h1.29594l0.68115,-0.08514l0.07841,0.0095l0.07663,-0.01916l0.21741,0l0.09596,-0.04113l0.24835,-0.04006l0.13253,-0.03313l0.0079,-0.01382l0.27316,-0.06829l0.26517,-0.0947l0.03788,0.01894l0.04879,-0.0122h0.08311l0.04031,-0.01008l0.64424,0l0.51154,0.53378z" fill="#ffffff"/></g></g></g></svg>