<svg version="1.1" xmlns="http://www.w3.org/2000/svg" xmlns:xlink="http://www.w3.org/1999/xlink" width="192.61314" height="181.03648" viewBox="0,0,192.61314,181.03648"><g transform="translate(-143.69347,-118.79807)"><g data-paper-data="{&quot;isPaintingLayer&quot;:true}" fill-opacity="0.74902" fill="#77a5d9" fill-rule="nonzero" stroke="none" stroke-width="1" stroke-linecap="butt" stroke-linejoin="miter" stroke-miterlimit="10" stroke-dasharray="" stroke-dashoffset="0" style="mix-blend-mode: normal"><path d="M336.30661,126.69572v23.21956c0,4.35428 -3.54033,7.89613 -7.89765,7.89613h-176.81936c-4.35276,0 -7.89613,-3.54185 -7.89613,-7.89613v-23.22108c0,-4.35428 3.54337,-7.89613 7.89613,-7.89613h176.81936c4.35733,0 7.89765,3.54337 7.89765,7.89765z"/><path d="M336.30661,174.03677v23.21956c0,4.35428 -3.54033,7.89613 -7.89765,7.89613h-176.81936c-4.35276,0 -7.89613,-3.54185 -7.89613,-7.89613v-23.22108c0,-4.35428 3.54337,-7.89613 7.89613,-7.89613h176.81936c4.35733,0 7.89765,3.54337 7.89765,7.89765z"/><path d="M336.30661,221.37782v23.21956c0,4.35428 -3.54033,7.89613 -7.89765,7.89613h-176.81936c-4.35276,0 -7.89613,-3.54185 -7.89613,-7.89613v-23.22108c0,-4.35428 3.54337,-7.89613 7.89613,-7.89613h176.81936c4.35733,0 7.89765,3.54337 7.89765,7.89765z"/><path d="M336.30661,268.71886v23.21956c0,4.35428 -3.54033,7.89613 -7.89765,7.89613h-176.81936c-4.35276,0 -7.89613,-3.54185 -7.89613,-7.89613v-23.22108c0,-4.35428 3.54337,-7.89613 7.89613,-7.89613h176.81936c4.35733,0 7.89765,3.54337 7.89765,7.89765z"/></g></g></svg>