<svg version="1.1" xmlns="http://www.w3.org/2000/svg" xmlns:xlink="http://www.w3.org/1999/xlink" width="56" height="38" viewBox="0,0,56,38"><g transform="translate(-212,-161.00001)"><g data-paper-data="{&quot;isPaintingLayer&quot;:true}" stroke-miterlimit="10" stroke-dasharray="" stroke-dashoffset="0" style="mix-blend-mode: normal"><path d="M213,198.00002v-36h54v36z" fill="#b2a1dc" fill-rule="nonzero" stroke="#666666" stroke-width="2" stroke-linecap="butt" stroke-linejoin="round"/><path d="M214,197.03317v-2h52v2z" fill="#cccccc" fill-rule="nonzero" stroke="none" stroke-width="0" stroke-linecap="butt" stroke-linejoin="miter"/><g fill-rule="evenodd" stroke-width="0.25"><path d="M228.03604,169.2846c0.06441,-0.04294 0.17176,-0.02147 0.19323,0.06441l0.55823,2.29734c0,0 1.37411,1.00911 1.78205,1.71764c0.68706,1.18088 0.70853,2.14705 0.70853,2.14705c0,0 1.5244,0.45088 1.78205,1.6747c0.25765,1.22382 -0.68706,3.54263 -4.7235,4.33704c-4.03645,0.79441 -7.27849,-0.30059 -8.80289,-2.74822c-1.5244,-2.44763 0.88029,-5.36762 0.75147,-5.19585l-0.45088,-3.84321c-0.02147,-0.08588 0.08588,-0.15029 0.17176,-0.10735l2.59793,1.69617c0,0 0.96617,-0.365 1.97528,-0.40794c0.60117,-0.04294 1.11646,0 1.61029,0.08588z" fill="#ffab19" stroke="#001026" stroke-linecap="butt" stroke-linejoin="miter"/><path d="M231.21367,175.59692c0,0 1.48146,0.38647 1.73911,1.61029c0.25765,1.22382 -0.77294,3.43528 -4.76644,4.20821c-5.19585,1.07352 -7.66496,-2.01822 -6.22644,-4.29409c1.43852,-2.29734 3.90763,-0.34353 5.71115,-0.47235c1.54587,-0.10735 1.71764,-1.45999 3.54263,-1.05205z" fill="#ffffff" stroke="none" stroke-linecap="butt" stroke-linejoin="miter"/><path d="M224.45047,177.89426c0,-0.08588 0.08588,-0.15029 0.17176,-0.12882c0.40794,0.15029 1.56734,0.49382 2.85557,0.5797c1.15941,0.06441 1.84646,0 2.16852,-0.06441c0.10735,-0.02147 0.19323,0.08588 0.15029,0.19323c-0.19323,0.5797 -1.00911,2.18999 -3.26351,2.06117c-1.95381,-0.2147 -2.14705,-1.58881 -2.08264,-2.64087z" fill="#ffffff" stroke="#001026" stroke-linecap="round" stroke-linejoin="round"/><path d="M235.16424,175.8331c-1.00911,0.81588 -2.55499,0.83735 -2.55499,0.83735" fill="none" stroke="#001026" stroke-linecap="round" stroke-linejoin="round"/><path d="M234.88512,178.23779c-1.35264,0.10735 -2.18999,-0.30059 -2.18999,-0.30059" fill="none" stroke="#001026" stroke-linecap="round" stroke-linejoin="round"/><path d="M227.58516,176.09074c0.45088,0 0.92323,0.04294 0.9447,0.19323c0.02147,0.30059 -0.30059,0.90176 -0.64411,0.92323c-0.38647,0.04294 -1.28823,-0.49382 -1.28823,-0.83735c-0.02147,-0.25765 0.55823,-0.27912 0.98764,-0.27912z" fill="#001026" stroke="#001026" stroke-linecap="round" stroke-linejoin="round"/><path d="M217.92345,175.76869c0,0 1.84646,0.60117 2.59793,1.26676" fill="none" stroke="#001026" stroke-linecap="round" stroke-linejoin="round"/><path d="M220.58579,177.78691c-0.92323,0.365 -2.51205,0.12882 -2.51205,0.12882" fill="none" stroke="#001026" stroke-linecap="round" stroke-linejoin="round"/><g><path d="M230.11868,173.5787c0.62264,0.96617 0.64411,2.06117 0.04294,2.44763c-0.60117,0.38647 -1.58881,-0.06441 -2.23293,-1.03058c-0.62264,-0.96617 -0.64411,-2.06117 -0.04294,-2.44763c0.60117,-0.40794 1.61029,0.06441 2.23293,1.03058z" fill="#ffffff" stroke="#001026" stroke-linecap="round" stroke-linejoin="round"/><path d="M230.0328,174.80251c0,0.23618 -0.17176,0.42941 -0.38647,0.42941c-0.2147,0 -0.38647,-0.19323 -0.38647,-0.42941c0,-0.23618 0.17176,-0.42941 0.38647,-0.42941c0.2147,0 0.38647,0.19323 0.38647,0.42941" fill="#001026" stroke="none" stroke-linecap="butt" stroke-linejoin="miter"/></g><g><path d="M224.794,174.17987c0.64411,0.9447 0.60117,2.10411 0.02147,2.51205c-0.70853,0.40794 -1.65323,0.10735 -2.29734,-0.83735c-0.66558,-0.9447 -0.70853,-2.16852 -0.04294,-2.64087c0.66558,-0.49382 1.6747,0.02147 2.31881,0.96617z" fill="#ffffff" stroke="#001026" stroke-linecap="round" stroke-linejoin="round"/><path d="M224.66518,175.42516c0,0.23618 -0.17176,0.42941 -0.38647,0.42941c-0.2147,0 -0.38647,-0.19323 -0.38647,-0.42941c0,-0.23618 0.17176,-0.42941 0.38647,-0.42941c0.2147,0.02147 0.38647,0.19323 0.38647,0.42941" fill="#001026" stroke="none" stroke-linecap="butt" stroke-linejoin="miter"/></g></g><path d="M214,195.03318v-13.70433h21.79632v-6.92965h5.34898v20.63398z" data-paper-data="{&quot;index&quot;:null}" fill="#b98054" fill-rule="nonzero" stroke="none" stroke-width="0" stroke-linecap="butt" stroke-linejoin="round"/><path d="M241.14531,191.82226l6.08727,0.03401" fill="none" fill-rule="nonzero" stroke="#b98054" stroke-width="3.5" stroke-linecap="round" stroke-linejoin="miter"/><path d="M260.65102,195.03317v-20.63398h5.34898v20.63398z" fill="#b98054" fill-rule="nonzero" stroke="none" stroke-width="0" stroke-linecap="butt" stroke-linejoin="miter"/><path d="M242.20233,189.27079h4.81704" fill="none" fill-rule="nonzero" stroke="#e54b4b" stroke-width="2" stroke-linecap="round" stroke-linejoin="miter"/><path d="M241.14531,183.799l6.08727,0.03402" fill="none" fill-rule="nonzero" stroke="#b98054" stroke-width="3.5" stroke-linecap="round" stroke-linejoin="miter"/><path d="M247.01937,181.24753h-4.81704" fill="none" fill-rule="nonzero" stroke="#4cc8e6" stroke-width="2" stroke-linecap="round" stroke-linejoin="miter"/><path d="M254.56375,191.85626l6.08727,-0.03401" data-paper-data="{&quot;index&quot;:null}" fill="none" fill-rule="nonzero" stroke="#b98054" stroke-width="3.5" stroke-linecap="round" stroke-linejoin="miter"/><path d="M254.77696,189.27078h4.81704" data-paper-data="{&quot;index&quot;:null}" fill="none" fill-rule="nonzero" stroke="#57db66" stroke-width="2" stroke-linecap="round" stroke-linejoin="miter"/><path d="M260.65102,183.79899l-6.08727,0.03402" data-paper-data="{&quot;index&quot;:null}" fill="none" fill-rule="nonzero" stroke="#b98054" stroke-width="3.5" stroke-linecap="round" stroke-linejoin="miter"/><path d="M259.594,181.24752h-4.81704" data-paper-data="{&quot;index&quot;:null}" fill="none" fill-rule="nonzero" stroke="#ddc54e" stroke-width="2" stroke-linecap="round" stroke-linejoin="miter"/><path d="M262.87835,165.04466h-22.70331" fill="none" fill-rule="nonzero" stroke="#b98054" stroke-width="1" stroke-linecap="round" stroke-linejoin="miter"/><g fill-rule="nonzero" stroke-linejoin="miter"><path d="M248.36293,166.8536h5v6h-5z" fill="#57db66" stroke="none" stroke-width="0" stroke-linecap="butt"/><path d="M246.36293,168.8536l2,-2h5l2,2" fill="none" stroke="#57db66" stroke-width="1.5" stroke-linecap="round"/><path d="M249.36293,166.1036h3c0,0 -0.79644,0.88462 -1.5,0.88462c-0.70356,0 -1.5,-0.88462 -1.5,-0.88462z" fill="#43a84f" stroke="none" stroke-width="0" stroke-linecap="butt"/><path d="M250.11293,166.3536l0.75,-0.5l0.75,0.5M250.86293,165.8536v-1c0,0 -0.22404,-0.5 -0.5,-0.5" fill="none" stroke="#484848" stroke-width="0.5" stroke-linecap="round"/></g><g fill-rule="nonzero" stroke-linejoin="miter"><path d="M255.73362,166.8536h5v6h-5z" fill="#4cc8e6" stroke="none" stroke-width="0" stroke-linecap="butt"/><path d="M253.73362,168.8536l2,-2h5l2,2" fill="none" stroke="#4cc8e6" stroke-width="1.5" stroke-linecap="round"/><path d="M256.73362,166.1036h3c0,0 -0.79644,0.88462 -1.5,0.88462c-0.70356,0 -1.5,-0.88462 -1.5,-0.88462z" fill="#3b9bb3" stroke="none" stroke-width="0" stroke-linecap="butt"/><path d="M257.48362,166.3536l0.75,-0.5l0.75,0.5M258.23362,165.8536v-1c0,0 -0.22404,-0.5 -0.5,-0.5" fill="none" stroke="#484848" stroke-width="0.5" stroke-linecap="round"/></g><g fill-rule="nonzero" stroke-linejoin="miter"><path d="M240.99224,166.8536h5v6h-5z" fill="#e54b4b" stroke="none" stroke-width="0" stroke-linecap="butt"/><path d="M238.99224,168.8536l2,-2h5l2,2" fill="none" stroke="#e54b4b" stroke-width="1.5" stroke-linecap="round"/><path d="M241.99224,166.1036h3c0,0 -0.79644,0.88462 -1.5,0.88462c-0.70356,0 -1.5,-0.88462 -1.5,-0.88462z" fill="#b33b3b" stroke="none" stroke-width="0" stroke-linecap="butt"/><path d="M242.74224,166.3536l0.75,-0.5l0.75,0.5M243.49224,165.8536v-1c0,0 -0.22404,-0.5 -0.5,-0.5" fill="none" stroke="#484848" stroke-width="0.5" stroke-linecap="round"/></g></g></g></svg>