<svg version="1.1" xmlns="http://www.w3.org/2000/svg" xmlns:xlink="http://www.w3.org/1999/xlink" width="56" height="38" viewBox="0,0,56,38"><defs><linearGradient x1="234.05452" y1="173.11579" x2="234.05452" y2="182.7183" gradientUnits="userSpaceOnUse" id="color-1"><stop offset="0" stop-color="#aac8d6" stop-opacity="0.87059"/><stop offset="1" stop-color="#aac8d6" stop-opacity="0"/></linearGradient></defs><g transform="translate(-212,-161)"><g stroke-miterlimit="10"><path d="M213,198v-36h54v36z" fill="#b0c5ce" fill-rule="nonzero" stroke="#666666" stroke-width="2" stroke-linecap="butt" stroke-linejoin="round"/><g fill-rule="evenodd" stroke-width="0.25"><path d="M232.49966,166.40221c0.06441,-0.04294 0.17176,-0.02147 0.19323,0.06441l0.55823,2.29734c0,0 1.37411,1.00911 1.78205,1.71764c0.68706,1.18088 0.70853,2.14705 0.70853,2.14705c0,0 1.5244,0.45088 1.78205,1.6747c0.25765,1.22382 -0.68706,3.54263 -4.7235,4.33704c-4.03645,0.79441 -7.27849,-0.30059 -8.80289,-2.74822c-1.5244,-2.44763 0.88029,-5.36762 0.75147,-5.19585l-0.45088,-3.84321c-0.02147,-0.08588 0.08588,-0.15029 0.17176,-0.10735l2.59793,1.69617c0,0 0.96617,-0.365 1.97528,-0.40794c0.60117,-0.04294 1.11646,0 1.61029,0.08588z" fill="#ffab19" stroke="#001026" stroke-linecap="butt" stroke-linejoin="miter"/><path d="M235.67729,172.71453c0,0 1.48146,0.38647 1.73911,1.61029c0.25765,1.22382 -0.77294,3.43528 -4.76644,4.20821c-5.19585,1.07352 -7.66496,-2.01822 -6.22644,-4.29409c1.43852,-2.29734 3.90763,-0.34353 5.71115,-0.47235c1.54587,-0.10735 1.71764,-1.45999 3.54263,-1.05205z" fill="#ffffff" stroke="none" stroke-linecap="butt" stroke-linejoin="miter"/><path d="M228.91409,175.01189c0,-0.08588 0.08588,-0.15029 0.17176,-0.12882c0.40794,0.15029 1.56734,0.49382 2.85557,0.5797c1.15941,0.06441 1.84646,0 2.16852,-0.06441c0.10735,-0.02147 0.19323,0.08588 0.15029,0.19323c-0.19323,0.5797 -1.00911,2.18999 -3.26351,2.06117c-1.95381,-0.2147 -2.14705,-1.58881 -2.08264,-2.64087z" fill="#ffffff" stroke="#001026" stroke-linecap="round" stroke-linejoin="round"/><path d="M239.62786,172.95073c-1.00911,0.81588 -2.55499,0.83735 -2.55499,0.83735" fill="none" stroke="#001026" stroke-linecap="round" stroke-linejoin="round"/><path d="M239.34874,175.35539c-1.35264,0.10735 -2.18999,-0.30059 -2.18999,-0.30059" fill="none" stroke="#001026" stroke-linecap="round" stroke-linejoin="round"/><path d="M232.04878,173.20836c0.45088,0 0.92323,0.04294 0.9447,0.19323c0.02147,0.30059 -0.30059,0.90176 -0.64411,0.92323c-0.38647,0.04294 -1.28823,-0.49382 -1.28823,-0.83735c-0.02147,-0.25765 0.55823,-0.27912 0.98764,-0.27912z" fill="#001026" stroke="#001026" stroke-linecap="round" stroke-linejoin="round"/><path d="M222.38707,172.8863c0,0 1.84646,0.60117 2.59793,1.26676" fill="none" stroke="#001026" stroke-linecap="round" stroke-linejoin="round"/><path d="M225.04941,174.90454c-0.92323,0.365 -2.51205,0.12882 -2.51205,0.12882" fill="none" stroke="#001026" stroke-linecap="round" stroke-linejoin="round"/><g><path d="M234.5823,170.69633c0.62264,0.96617 0.64411,2.06117 0.04294,2.44763c-0.60117,0.38647 -1.58881,-0.06441 -2.23293,-1.03058c-0.62264,-0.96617 -0.64411,-2.06117 -0.04294,-2.44763c0.60117,-0.40794 1.61029,0.06441 2.23293,1.03058z" fill="#ffffff" stroke="#001026" stroke-linecap="round" stroke-linejoin="round"/><path d="M234.49642,171.92012c0,0.23618 -0.17176,0.42941 -0.38647,0.42941c-0.2147,0 -0.38647,-0.19323 -0.38647,-0.42941c0,-0.23618 0.17176,-0.42941 0.38647,-0.42941c0.2147,0 0.38647,0.19323 0.38647,0.42941" fill="#001026" stroke="none" stroke-linecap="butt" stroke-linejoin="miter"/></g><g><path d="M229.25762,171.29748c0.64411,0.9447 0.60117,2.10411 0.02147,2.51205c-0.70853,0.40794 -1.65323,0.10735 -2.29734,-0.83735c-0.66558,-0.9447 -0.70853,-2.16852 -0.04294,-2.64087c0.66558,-0.49382 1.6747,0.02147 2.31881,0.96617z" fill="#ffffff" stroke="#001026" stroke-linecap="round" stroke-linejoin="round"/><path d="M229.1288,172.54279c0,0.23618 -0.17176,0.42941 -0.38647,0.42941c-0.2147,0 -0.38647,-0.19323 -0.38647,-0.42941c0,-0.23618 0.17176,-0.42941 0.38647,-0.42941c0.2147,0.02147 0.38647,0.19323 0.38647,0.42941" fill="#001026" stroke="none" stroke-linecap="butt" stroke-linejoin="miter"/></g></g><path d="M252.76177,178.38775l0.84728,4.33055h-39.10905v-4.33055z" fill="#a6cbd2" fill-rule="nonzero" stroke="none" stroke-width="0" stroke-linecap="butt" stroke-linejoin="miter"/><g fill="#e3e1d9" fill-rule="nonzero" stroke="#666666" stroke-width="0.5" stroke-linecap="butt" stroke-linejoin="round"><path d="M215.5744,181.83336v-2.93724h8.10564v2.93724z"/><path d="M225.03569,181.83336v-2.93724h8.10565v2.93724z"/><path d="M234.49699,181.83336v-2.93724h8.10565v2.93724z"/><path d="M243.95829,181.83336v-2.93724h8.10565v2.93724z"/></g><g fill-rule="nonzero" stroke-width="1"><path d="M216.54851,180.72102v-1.70752l2.56128,0.24079v1.19919z" fill="#cccab8" stroke="#cccab8" stroke-linecap="butt" stroke-linejoin="round"/><path d="M217.20103,178.94431v-0.26755" fill="none" stroke="#e83a4f" stroke-linecap="round" stroke-linejoin="miter"/><path d="M220.24628,180.72102v-1.70752l2.56128,0.24079v1.19919z" fill="#cccab8" stroke="#cccab8" stroke-linecap="butt" stroke-linejoin="round"/><path d="M220.8988,178.94431v-0.26755" fill="none" stroke="#e83a4f" stroke-linecap="round" stroke-linejoin="miter"/><path d="M225.91828,180.72102v-1.70752l2.56128,0.24079v1.19919z" fill="#8c4828" stroke="#8c4828" stroke-linecap="butt" stroke-linejoin="round"/><path d="M229.61605,180.72102v-1.70752l2.56128,0.24079v1.19919z" fill="#8c4828" stroke="#8c4828" stroke-linecap="butt" stroke-linejoin="round"/><path d="M235.47608,180.72102v-1.70752l2.56128,0.24079v1.19919z" fill="#417127" stroke="#417127" stroke-linecap="butt" stroke-linejoin="round"/><path d="M239.17385,180.72102v-1.70752l2.56128,0.24079v1.19919z" fill="#417127" stroke="#417127" stroke-linecap="butt" stroke-linejoin="round"/><path d="M244.93987,180.72102v-1.70752l2.56128,0.24079v1.19919z" fill="#995586" stroke="#995586" stroke-linecap="butt" stroke-linejoin="round"/><path d="M248.63764,180.72102v-1.70752l2.56128,0.24079v1.19919z" fill="#995586" stroke="#995586" stroke-linecap="butt" stroke-linejoin="round"/></g><path d="M214.5,194.53315v-11.81485h39.10905v11.81485z" fill="#cccccc" fill-rule="nonzero" stroke="#666666" stroke-width="1" stroke-linecap="butt" stroke-linejoin="miter"/><path d="M251.91449,173.11579l1.69456,9.60251h-39.10905v-9.60251z" fill="url(#color-1)" fill-rule="nonzero" stroke="#666666" stroke-width="1" stroke-linecap="butt" stroke-linejoin="miter"/><path d="M214,197.03315v-2h52v2z" fill="#cccccc" fill-rule="nonzero" stroke="none" stroke-width="0" stroke-linecap="butt" stroke-linejoin="miter"/><path d="M253.60905,180.17907h11.42856v13.90454h-4.93247l-4.28862,-13.85189" fill="none" fill-rule="nonzero" stroke="#b37d50" stroke-width="2" stroke-linecap="butt" stroke-linejoin="round"/><path d="M243.80209,194.96534l-0.00047,-19.40733l-0.0167,11.02478h7.09163v8.45036" fill="none" fill-rule="nonzero" stroke="#a1724b" stroke-width="2" stroke-linecap="butt" stroke-linejoin="round"/><path d="M251.11758,184.66891h-5.84942" fill="none" fill-rule="nonzero" stroke="#5e5e5e" stroke-width="2" stroke-linecap="round" stroke-linejoin="miter"/></g></g></svg>