<svg version="1.1" xmlns="http://www.w3.org/2000/svg" xmlns:xlink="http://www.w3.org/1999/xlink" width="588.465" height="356.7672" viewBox="0,0,588.465,356.7672"><g transform="translate(54.15849,26.10543)"><g stroke="none" stroke-width="0" stroke-miterlimit="10"><path d="M-54.15849,330v-277.61028h73.45588v277.61028z" fill-opacity="0.50196" fill="#567b8c"/><path d="M437.0271,330.66177v-237.57352h97.27941v237.57352z" fill-opacity="0.50196" fill="#5c8497"/><path d="M-39.76511,87.33599v-21.17647h11.58088v21.17647z" fill-opacity="0.2" fill="#ffffff"/><path d="M-6.67688,87.33599v-21.17647h11.58089v21.17647z" fill-opacity="0.2" fill="#ffffff"/><path d="M-39.76511,114.33142v-21.17647h11.58088v21.17647z" fill-opacity="0.2" fill="#ffffff"/><path d="M-6.67688,141.32685v-21.17647h11.58089v21.17647z" fill-opacity="0.2" fill="#ffffff"/><path d="M-39.76511,168.32228v-21.17647h11.58088v21.17647z" fill-opacity="0.2" fill="#ffffff"/><path d="M-23.221,168.32228v-21.17647h11.58088v21.17647z" fill-opacity="0.2" fill="#ffffff"/><path d="M-23.221,195.31772v-21.17647h11.58088v21.17647z" fill-opacity="0.2" fill="#ffffff"/><path d="M-6.67688,222.31315v-21.17647h11.58089v21.17647z" fill-opacity="0.2" fill="#ffffff"/><path d="M-39.76511,276.30402v-21.17647h11.58088v21.17647z" fill-opacity="0.2" fill="#ffffff"/><path d="M-6.67688,276.30402v-21.17647h11.58089v21.17647z" fill-opacity="0.2" fill="#ffffff"/><path d="M73.93628,329.99999v-356.10542l112.68165,58.50023v297.6052z" fill-opacity="0.50196" fill="#84bed8"/><path d="M92.47997,28.49881v-25.12762h19.5985v25.12762z" fill-opacity="0.2" fill="#ffffff"/><path d="M148.47572,60.53111v-25.12762h19.59851v25.12762z" fill-opacity="0.2" fill="#ffffff"/><path d="M148.47572,92.5634v-25.12762h19.59851v25.12762z" fill-opacity="0.2" fill="#ffffff"/><path d="M92.47997,124.5957v-25.12762h19.5985v25.12762z" fill-opacity="0.2" fill="#ffffff"/><path d="M92.47997,188.66029v-25.12762h19.5985v25.12762z" fill-opacity="0.2" fill="#ffffff"/><path d="M148.47572,188.66029v-25.12762h19.59851v25.12762z" fill-opacity="0.2" fill="#ffffff"/><path d="M92.47997,252.72488v-25.12762h19.5985v25.12762z" fill-opacity="0.2" fill="#ffffff"/><path d="M448.93886,127.97921v-21.17647h19.04411v21.17647z" fill-opacity="0.2" fill="#ffffff"/><path d="M448.93886,181.97009v-21.17647h19.04411v21.17647z" fill-opacity="0.2" fill="#ffffff"/><path d="M503.35062,181.97009v-21.17647h19.04413v21.17647z" fill-opacity="0.2" fill="#ffffff"/><path d="M476.14474,208.96553v-21.17647h19.04412v21.17647z" fill-opacity="0.2" fill="#ffffff"/><path d="M448.93886,262.9564v-21.17647h19.04411v21.17647z" fill-opacity="0.2" fill="#ffffff"/><path d="M503.35062,262.9564v-21.17647h19.04413v21.17647z" fill-opacity="0.2" fill="#ffffff"/><path d="M476.14474,289.95183v-21.17647h19.04412v21.17647z" fill-opacity="0.2" fill="#ffffff"/><path d="M276.12468,330.66177v-330.66176h97.27941v330.66176z" fill-opacity="0.50196" fill="#4a6b7a"/><path d="M342.44822,48.56227v-29.47403h19.04411v29.47403z" fill-opacity="0.2" fill="#ffffff"/><path d="M342.44822,123.70834v-29.47403h19.04411v29.47403z" fill-opacity="0.2" fill="#ffffff"/><path d="M288.03644,123.70834v-29.47403h19.04413v29.47403z" fill-opacity="0.2" fill="#ffffff"/><path d="M315.24233,161.28138v-29.47403h19.04412v29.47403z" fill-opacity="0.2" fill="#ffffff"/><path d="M342.44822,236.42745v-29.47403h19.04411v29.47403z" fill-opacity="0.2" fill="#ffffff"/><path d="M288.03644,236.42745v-29.47403h19.04413v29.47403z" fill-opacity="0.2" fill="#ffffff"/><path d="M315.24233,274.00048v-29.47403h19.04412v29.47403z" fill-opacity="0.2" fill="#ffffff"/></g></g></svg>