<svg version="1.1" xmlns="http://www.w3.org/2000/svg" xmlns:xlink="http://www.w3.org/1999/xlink" width="488.19266" height="178.20937" viewBox="0,0,488.19266,178.20937"><g transform="translate(4.09633,-194.33377)"><g stroke-miterlimit="10"><path d="M-3.09633,371.54315v-47.54315h486.19266v47.54315z" fill="#666666" fill-rule="nonzero" stroke="#4d4d4d" stroke-width="2" stroke-linecap="butt" stroke-linejoin="round"/><path d="M368.57086,327.44443c0.47325,-0.44018 0.69255,-0.29451 0.49361,0.3218l-1.29442,4.01011c-0.20211,0.62615 0.13797,1.27714 0.75252,1.47597l0.47199,0.15271c0.61798,0.19995 0.7303,0.71546 0.25855,1.15391l-5.37308,4.99373c-0.47346,0.44003 -0.69293,0.29426 -0.49398,-0.32206l1.29442,-4.01011c0.20211,-0.62615 -0.13741,-1.27673 -0.75126,-1.47507l-0.47146,-0.15234c-0.61728,-0.19945 -0.7292,-0.71468 -0.25765,-1.15327z" fill="#ffffff" fill-rule="evenodd" stroke="#ffffff" stroke-width="1" stroke-linecap="butt" stroke-linejoin="miter"/><path d="M323.1731,350.2185c0.94421,-0.25328 1.68161,-0.9907 1.93489,-1.9349l0.57711,-2.1465c0.27413,-1.01473 1.71368,-1.01473 1.9862,0l0.57871,2.1465c0.25328,0.94421 0.99069,1.68162 1.93329,1.9349l2.1465,0.5771c1.01473,0.27413 1.01473,1.71366 0,1.98779l-2.1465,0.57711c-0.9426,0.25328 -1.68001,0.99069 -1.93329,1.93329l-0.57871,2.1465c-0.27252,1.01473 -1.71207,1.01473 -1.9862,0l-0.57711,-2.1465c-0.25328,-0.9426 -0.99068,-1.68001 -1.93489,-1.93329l-2.1465,-0.57711c-1.01473,-0.27413 -1.01473,-1.71366 0,-1.98779z" fill="#ffffff" fill-rule="evenodd" stroke="none" stroke-width="1" stroke-linecap="butt" stroke-linejoin="miter"/><path d="M362.26184,353.23773c0,-2.18967 3.96475,-8.17423 3.96475,-8.17423c0,0 3.96474,5.98456 3.96474,8.17423c0,2.18967 -1.77508,3.96475 -3.96474,3.96475c-2.18967,0 -3.96475,-1.77508 -3.96475,-3.96475z" fill="#ffffff" fill-rule="nonzero" stroke="#ffffff" stroke-width="1" stroke-linecap="butt" stroke-linejoin="miter"/><path d="M284.82502,349.67752l-2.95664,3.1235l-2.95664,-3.1235" fill="none" fill-rule="nonzero" stroke="#ffffff" stroke-width="7" stroke-linecap="round" stroke-linejoin="miter"/><text transform="translate(343.94087,340.86218) scale(0.39124,0.39124)" font-size="40" xml:space="preserve" fill="#ffffff" fill-rule="nonzero" stroke="none" stroke-width="1" stroke-linecap="butt" stroke-linejoin="miter" font-family="Sans Serif" font-weight="normal" text-anchor="start"><tspan x="0" dy="0">G</tspan></text><text transform="translate(433.19108,354.99502) scale(0.27791,0.27791)" font-size="40" xml:space="preserve" fill="#ffffff" fill-rule="nonzero" stroke="none" stroke-width="1" stroke-linecap="butt" stroke-linejoin="miter" font-family="Sans Serif" font-weight="normal" text-anchor="start"><tspan x="0" dy="0">day</tspan></text><text transform="translate(457.18897,337.22211) scale(0.27791,0.27791)" font-size="40" xml:space="preserve" fill="#ffffff" fill-rule="nonzero" stroke="none" stroke-width="1" stroke-linecap="butt" stroke-linejoin="miter" font-family="Sans Serif" font-weight="normal" text-anchor="start"><tspan x="0" dy="0">:</tspan></text><path d="M376.98239,351.90642h50" fill="none" fill-rule="nonzero" stroke="#145ecc" stroke-width="5" stroke-linecap="round" stroke-linejoin="miter"/><path d="M426.98239,333.6959h-50" fill="none" fill-rule="nonzero" stroke="#cc8314" stroke-width="5" stroke-linecap="round" stroke-linejoin="miter"/><text transform="translate(169.68589,215.91711) scale(0.5,0.5)" font-size="40" xml:space="preserve" fill="#ff0000" fill-rule="nonzero" stroke="none" stroke-width="1" stroke-linecap="butt" stroke-linejoin="miter" font-family="Sans Serif" font-weight="normal" text-anchor="start"><tspan x="0" dy="0"> </tspan></text></g></g></svg>