<svg version="1.1" xmlns="http://www.w3.org/2000/svg" xmlns:xlink="http://www.w3.org/1999/xlink" width="56" height="38" viewBox="0,0,56,38"><g transform="translate(-212,-161)"><g stroke-miterlimit="10"><path d="M213,198v-36h54v36z" fill="#bf8690" fill-rule="nonzero" stroke="#666666" stroke-width="2" stroke-linecap="butt" stroke-linejoin="round"/><path d="M264.53896,182.54477c0,6.44183 -4.73154,11.66396 -10.56818,11.66396c-5.83665,0 -10.56818,-5.22213 -10.56818,-11.66396c0,-6.44183 4.73154,-11.66396 10.56818,-11.66396c5.83665,0 10.56818,5.22213 10.56818,11.66396z" fill="#bf7143" fill-rule="nonzero" stroke="none" stroke-width="0" stroke-linecap="butt" stroke-linejoin="miter"/><path d="M250.24513,173.77854v-10.81169h7.4513v10.81169z" fill="#bf7143" fill-rule="nonzero" stroke="none" stroke-width="0" stroke-linecap="butt" stroke-linejoin="miter"/><path d="M248.3249,189.13163v-13.17372h11.29176v13.17372z" fill="#593636" fill-rule="nonzero" stroke="#925633" stroke-width="1.5" stroke-linecap="butt" stroke-linejoin="miter"/><g fill-rule="evenodd" stroke-width="0.25"><g><path d="M244.30998,179.31808c0.4756,-0.09908 1.0503,-0.25762 1.5259,-0.69359c1.08993,-0.97103 1.42682,-2.5762 2.17986,-2.16004c0.77286,0.41616 0.75304,3.01217 -1.66462,3.80485c-0.83231,0.27744 -1.58535,0.27743 -2.19968,0.25762c-0.15853,0 -1.5259,-0.13872 -2.00151,-0.81249c-0.4756,-0.67377 -0.13872,-0.85213 0.01981,-0.9314c0.17836,-0.09908 1.46645,0.65396 2.14023,0.53506z" fill="#ffab19" stroke="#001026" stroke-linecap="round" stroke-linejoin="round"/><path d="M247.89684,176.50408c0.39634,0.1189 0.59451,0.95121 0.39634,1.6448c-0.19817,0.69359 -0.51524,1.0503 -0.77286,1.30792c0.03964,-0.13872 0.1189,-0.57469 -0.21799,-0.83231c-0.41616,-0.33689 -1.14938,-0.15853 -1.14938,-0.15853c0,0 0.61433,-0.75304 0.9314,-1.2881c0.31707,-0.45579 0.41615,-0.75304 0.81249,-0.67377z" fill="#ffffff" stroke="none" stroke-linecap="butt" stroke-linejoin="miter"/></g><path d="M239.0585,177.11841c0,0.51524 -0.41616,1.0503 -0.65396,1.36737c-0.2378,0.31707 -1.34755,1.48627 -2.71492,0.87195c-0.57469,-0.29725 -1.92224,-1.407 -1.20883,-2.06096c0.71341,-0.65396 1.36737,0.15853 1.84297,0.57469c0.39634,0.35671 1.60517,-1.07011 1.70425,-1.14938c0.33689,-0.29725 1.01066,-0.15854 1.03048,0.39634z" fill="#ffab19" stroke="#001026" stroke-linecap="round" stroke-linejoin="round"/><g><path d="M239.49447,179.89277c-0.2378,-0.17836 -0.47561,-0.4756 -0.79268,-0.93139c-0.25762,-0.37652 -0.53505,-1.10975 -0.53505,-1.10975c-0.17836,-0.49543 -0.29725,-1.44663 0.35671,-1.42682c0.43597,0.01981 0.83231,-0.03964 1.50608,-0.13872c1.18901,-0.2378 1.407,-0.39633 1.90242,0.41616c0.53506,0.95121 1.90242,1.6448 0.21799,3.28961c0,0 -0.97103,0.75304 -2.14023,1.90242c-0.79268,0.77286 -2.04114,1.8826 -2.47711,2.25912c-0.09908,0.07927 -0.21799,0.11891 -0.33689,0.13872c-1.92224,0.17836 -3.34905,-0.01982 -3.34905,-0.87195c0,-1.42682 2.83381,-0.9314 2.83381,-0.9314c0,0 0.91158,-0.77286 1.32773,-1.14938z" fill="#ffab19" stroke="#001026" stroke-linecap="round" stroke-linejoin="round"/><path d="M238.62253,178.56504c0,0 -0.37652,-0.49542 0.4756,-1.03048c0.89176,-0.57469 1.22865,0.05945 1.58535,0.53506c0.39634,0.61432 0,0.91158 -0.39634,1.26828c-0.31707,0.29725 -0.61432,0.53506 -0.61432,0.53506c0,0 -0.61433,-0.41616 -1.0503,-1.30792z" fill="#ffffff" stroke="none" stroke-linecap="butt" stroke-linejoin="miter"/></g><path d="M242.64536,177.9309c-0.21799,-0.13872 -0.51524,-0.37652 -0.81249,-0.59451c-0.49543,-0.35671 -1.20883,-1.14938 -0.21799,-1.50608c0.79268,-0.29725 1.50608,0.25762 2.35821,0.87195c0.43597,0.33689 0.95121,0.73323 0.77286,1.34755c-0.19817,0.69359 -1.1692,2.67528 -2.3384,2.02132c-0.85213,-0.57469 -0.17835,-1.26828 0.25762,-1.82316c0.05945,-0.09908 0.03964,-0.21799 -0.01981,-0.31707z" fill="#ffab19" stroke="#001026" stroke-linecap="round" stroke-linejoin="round"/><g><path d="M238.12711,166.47673c0.45579,-0.07927 0.93139,-0.1189 1.48627,-0.07927c0.9314,0.03964 1.82316,0.37652 1.82316,0.37652l2.39784,-1.56553c0.07927,-0.03964 0.17835,0.01982 0.15854,0.09909l-0.41616,3.54723c-0.1189,-0.15853 2.10059,2.53656 0.69359,4.79569c-1.407,2.25912 -4.39935,3.26979 -8.12493,2.53656c-3.72558,-0.73323 -4.59752,-2.87345 -4.35972,-4.00301c0.2378,-1.12956 1.6448,-1.54572 1.6448,-1.54572c0,0 0.01981,-0.89176 0.65396,-1.98169c0.37652,-0.65396 1.6448,-1.58535 1.6448,-1.58535l0.51524,-2.12041c0.01981,-0.07927 0.1189,-0.09909 0.17835,-0.05945z" fill="#ffab19" stroke="#001026" stroke-linecap="butt" stroke-linejoin="miter"/><path d="M236.75974,171.68858c1.66462,0.1189 3.94356,-1.68444 5.2713,0.43597c1.32773,2.10059 -0.95121,4.95422 -5.74691,3.96338c-3.68595,-0.71341 -4.63715,-2.75455 -4.39935,-3.88411c0.2378,-1.12956 1.60517,-1.48627 1.60517,-1.48627c1.68444,-0.37652 1.84297,0.87195 3.26979,0.97103z" fill="#ffffff" stroke="none" stroke-linecap="butt" stroke-linejoin="miter"/><path d="M237.81004,175.27544c-2.08077,0.1189 -2.83381,-1.36737 -3.01216,-1.90242c-0.03964,-0.09908 0.03963,-0.19816 0.13872,-0.17835c0.29725,0.05945 0.9314,0.1189 2.00151,0.05945c1.18901,-0.07927 2.25913,-0.39634 2.63565,-0.53506c0.07927,-0.01981 0.15853,0.03964 0.15853,0.11891c0.05945,0.97103 -0.11891,2.23931 -1.92224,2.43748z" fill="#ffffff" stroke="#001026" stroke-linecap="round" stroke-linejoin="round"/><path d="M232.20186,171.70839c0,0 -1.42682,-0.01982 -2.35821,-0.77286" fill="none" stroke="#001026" stroke-linecap="round" stroke-linejoin="round"/><path d="M232.12259,172.87759c0,0 -0.77286,0.37652 -2.02132,0.27743" fill="none" stroke="#001026" stroke-linecap="round" stroke-linejoin="round"/><path d="M237.75059,171.43096c0,0.31707 -0.83231,0.81249 -1.18901,0.77286c-0.31707,-0.01981 -0.61432,-0.57469 -0.59451,-0.85213c0.01981,-0.13872 0.45579,-0.17835 0.87195,-0.17835c0.39634,0 0.9314,0.01981 0.91158,0.25762z" fill="#001026" stroke="#001026" stroke-linecap="round" stroke-linejoin="round"/><path d="M243.35877,172.04528c0.69359,-0.61432 2.39785,-1.1692 2.39785,-1.1692" fill="none" stroke="#001026" stroke-linecap="round" stroke-linejoin="round"/><path d="M245.6179,172.85778c0,0 -1.46645,0.21799 -2.31857,-0.1189" fill="none" stroke="#001026" stroke-linecap="round" stroke-linejoin="round"/><g><path d="M236.56157,167.90355c0.55488,0.35671 0.53506,1.36737 -0.03963,2.25912c-0.59451,0.89176 -1.50608,1.30792 -2.06096,0.95121c-0.55488,-0.35671 -0.53505,-1.36737 0.03964,-2.25912c0.57469,-0.89176 1.50608,-1.32773 2.06096,-0.95121z" fill="#ffffff" stroke="#001026" stroke-linecap="round" stroke-linejoin="round"/><path d="M234.57988,169.98433c0,-0.21799 0.15853,-0.39634 0.35671,-0.39634c0.19817,0 0.35671,0.17835 0.35671,0.39634c0,0.21799 -0.15853,0.39634 -0.35671,0.39634c-0.19817,0 -0.35671,-0.17836 -0.35671,-0.39634" fill="#001026" stroke="none" stroke-linecap="butt" stroke-linejoin="miter"/></g><g><path d="M241.55543,168.51787c0.61432,0.43597 0.57469,1.56553 -0.03963,2.43748c-0.59451,0.87195 -1.46645,1.14938 -2.12041,0.77286c-0.53506,-0.37652 -0.57469,-1.44663 0.01982,-2.31857c0.59451,-0.87195 1.5259,-1.34755 2.14022,-0.89176z" fill="#ffffff" stroke="#001026" stroke-linecap="round" stroke-linejoin="round"/><path d="M239.53411,170.55901c0,-0.21799 0.15853,-0.37652 0.35671,-0.39633c0.19817,0 0.35671,0.17835 0.35671,0.39633c0,0.21799 -0.15853,0.39634 -0.35671,0.39634c-0.19817,0 -0.35671,-0.17836 -0.35671,-0.39634" fill="#001026" stroke="none" stroke-linecap="butt" stroke-linejoin="miter"/></g></g></g><path d="M214,197.03315v-2h52v2z" fill="#cccccc" fill-rule="nonzero" stroke="none" stroke-width="0" stroke-linecap="butt" stroke-linejoin="miter"/><path d="M266,182.77849v12.25466h-46.82137v-12.25466z" fill="#b9a15d" fill-rule="nonzero" stroke="none" stroke-width="0" stroke-linecap="butt" stroke-linejoin="miter"/><path d="M218.61962,182.77849v-3.36882h47.38038v3.36882z" fill="#9d884f" fill-rule="nonzero" stroke="none" stroke-width="0" stroke-linecap="butt" stroke-linejoin="miter"/><path d="M234.40482,178.37537v1.07985h-11.29176v-1.07985z" fill="#bfb4b4" fill-rule="nonzero" stroke="none" stroke-width="0" stroke-linecap="butt" stroke-linejoin="miter"/><path d="M253.60905,180.17907h11.42856v13.90454h-4.93247l-4.28862,-13.85189" fill="none" fill-rule="nonzero" stroke="#b37d50" stroke-width="2" stroke-linecap="butt" stroke-linejoin="round"/><path d="M243.80209,194.96534l-0.00047,-19.40733l-0.0167,11.02478h7.09163v8.45036" fill="none" fill-rule="nonzero" stroke="#a1724b" stroke-width="2" stroke-linecap="butt" stroke-linejoin="round"/><path d="M251.11758,184.66891h-5.84942" fill="none" fill-rule="nonzero" stroke="#5e5e5e" stroke-width="2" stroke-linecap="round" stroke-linejoin="miter"/></g></g></svg>