<svg version="1.1" xmlns="http://www.w3.org/2000/svg" xmlns:xlink="http://www.w3.org/1999/xlink" width="56" height="38" viewBox="0,0,56,38"><g transform="translate(-212,-161)"><g stroke-miterlimit="10"><path d="M213,198v-36h54v36z" fill="#bfbdac" stroke="#666666" stroke-width="2" stroke-linecap="butt" stroke-linejoin="round"/><path d="M248.62129,180l4.53342,7.0754" fill="none" stroke="#59531f" stroke-width="1.5" stroke-linecap="round" stroke-linejoin="miter"/><path d="M248.62129,184.71696l4.53342,-2.92899" fill="none" stroke="#80772d" stroke-width="1.5" stroke-linecap="round" stroke-linejoin="miter"/><path d="M248.62129,191.37376l4.53342,-2.92899" fill="none" stroke="#a69b3a" stroke-width="1.5" stroke-linecap="round" stroke-linejoin="miter"/><path d="M214,197.03315v-2h52v2z" fill="#cccccc" stroke="none" stroke-width="0" stroke-linecap="butt" stroke-linejoin="miter"/><path d="M213,173.02723v-11.02723h11.02723v11.02723z" fill="#ccc0ad" stroke="#666666" stroke-width="2" stroke-linecap="butt" stroke-linejoin="round"/><path d="M253.15471,194.03315v-16.04924h10.33663v16.04924z" fill="#353535" stroke="#666666" stroke-width="2" stroke-linecap="butt" stroke-linejoin="round"/><path d="M227.92574,194.03315v-16.04924h20.69554v16.04924z" fill="#c0b3a8" stroke="#666666" stroke-width="2" stroke-linecap="butt" stroke-linejoin="round"/><path d="M230.96102,190.91434v-9.81162h5.71411v9.81162z" fill="#807773" stroke="#807773" stroke-width="2" stroke-linecap="butt" stroke-linejoin="round"/><path d="M239.87191,190.91434v-9.81162h5.71411v9.81162z" fill="#807773" stroke="#807773" stroke-width="2" stroke-linecap="butt" stroke-linejoin="round"/><path d="M258.91375,178.04924l-0.92975,-16.04924" fill="none" stroke="#666666" stroke-width="1.5" stroke-linecap="round" stroke-linejoin="miter"/><path d="M261.47057,178.04924v-16.04924" fill="none" stroke="#666666" stroke-width="1.5" stroke-linecap="round" stroke-linejoin="miter"/><path d="M219.82875,164.11688c0.26806,-0.24293 0.3937,-0.16754 0.27643,0.17591l-0.72877,2.25332c-0.10889,0.35182 0.07539,0.7204 0.42721,0.82929l0.26806,0.08376c0.34345,0.10889 0.41046,0.40207 0.1424,0.645l-3.02397,2.80618c-0.26806,0.24293 -0.39371,0.16754 -0.27643,-0.17591l0.72877,-2.25332c0.10889,-0.35182 -0.07539,-0.7204 -0.42721,-0.82929l-0.25968,-0.08376c-0.34345,-0.10889 -0.41046,-0.40207 -0.1424,-0.645z" fill="#fff599" stroke="#fff599" stroke-width="0.5" stroke-linecap="butt" stroke-linejoin="miter"/></g></g></svg>