<svg version="1.1" xmlns="http://www.w3.org/2000/svg" xmlns:xlink="http://www.w3.org/1999/xlink" width="56" height="38" viewBox="0,0,56,38"><g transform="translate(-212,-161)"><g stroke-miterlimit="10"><path d="M213,198v-36h54v36z" fill="#e6c8ac" fill-rule="nonzero" stroke="#666666" stroke-width="2" stroke-linecap="butt" stroke-linejoin="round"/><g fill-rule="evenodd" stroke-width="0.25"><g><path d="M232.17513,185.73825c0.67378,0.1189 1.96187,-0.63414 2.14023,-0.53506c0.15853,0.07927 0.49541,0.25763 0.01981,0.9314c-0.47561,0.67377 -1.84298,0.81249 -2.00151,0.81249c-0.61433,0.01981 -1.36737,0.01982 -2.19968,-0.25762c-2.41766,-0.79268 -2.43748,-3.38869 -1.66462,-3.80485c0.75304,-0.41616 1.08993,1.18901 2.17986,2.16004c0.4756,0.43597 1.0503,0.59451 1.5259,0.69359z" fill="#ffab19" stroke="#001026" stroke-linecap="round" stroke-linejoin="round"/><path d="M228.58826,182.92425c0.39634,-0.07927 0.49542,0.21798 0.81249,0.67377c0.31707,0.53506 0.9314,1.2881 0.9314,1.2881c0,0 -0.73322,-0.17836 -1.14938,0.15853c-0.33689,0.25762 -0.25763,0.69359 -0.21799,0.83231c-0.25762,-0.25762 -0.57469,-0.61433 -0.77286,-1.30792c-0.19817,-0.69359 0,-1.5259 0.39634,-1.6448z" fill="#ffffff" stroke="none" stroke-linecap="butt" stroke-linejoin="miter"/></g><path d="M237.42661,183.53858c0.01982,-0.55488 0.69359,-0.69359 1.03048,-0.39634c0.09908,0.07927 1.30791,1.50609 1.70425,1.14938c0.4756,-0.41616 1.12956,-1.22865 1.84297,-0.57469c0.71341,0.65396 -0.63414,1.76371 -1.20883,2.06096c-1.36737,0.61432 -2.47712,-0.55488 -2.71492,-0.87195c-0.2378,-0.31707 -0.65396,-0.85213 -0.65396,-1.36737z" fill="#ffab19" stroke="#001026" stroke-linecap="round" stroke-linejoin="round"/><g><path d="M238.4769,187.75955c0.41615,0.37652 1.32773,1.14938 1.32773,1.14938c0,0 2.83381,-0.49542 2.83381,0.9314c0,0.85213 -1.42681,1.05031 -3.34905,0.87195c-0.1189,-0.01981 -0.23781,-0.05945 -0.33689,-0.13872c-0.43597,-0.37652 -1.68443,-1.48626 -2.47711,-2.25912c-1.1692,-1.14938 -2.14023,-1.90242 -2.14023,-1.90242c-1.68443,-1.64481 -0.31707,-2.3384 0.21799,-3.28961c0.49542,-0.81249 0.71341,-0.65396 1.90242,-0.41616c0.67377,0.09908 1.07011,0.15853 1.50608,0.13872c0.65396,-0.01981 0.53507,0.93139 0.35671,1.42682c0,0 -0.27743,0.73323 -0.53505,1.10975c-0.31707,0.45579 -0.55488,0.75303 -0.79268,0.93139z" fill="#ffab19" stroke="#001026" stroke-linecap="round" stroke-linejoin="round"/><path d="M237.86258,184.9852c-0.43597,0.89176 -1.0503,1.30792 -1.0503,1.30792c0,0 -0.29725,-0.23781 -0.61432,-0.53506c-0.39634,-0.3567 -0.79268,-0.65396 -0.39634,-1.26828c0.3567,-0.47561 0.69359,-1.10975 1.58535,-0.53506c0.85212,0.53506 0.4756,1.03048 0.4756,1.03048z" fill="#ffffff" stroke="none" stroke-linecap="butt" stroke-linejoin="miter"/></g><path d="M233.81993,184.66813c0.43597,0.55488 1.10975,1.24847 0.25762,1.82316c-1.1692,0.65396 -2.14023,-1.32773 -2.3384,-2.02132c-0.17835,-0.61432 0.33689,-1.01066 0.77286,-1.34755c0.85213,-0.61433 1.56553,-1.1692 2.35821,-0.87195c0.99084,0.3567 0.27744,1.14937 -0.21799,1.50608c-0.29725,0.21799 -0.5945,0.45579 -0.81249,0.59451c-0.05945,0.09908 -0.07926,0.21799 -0.01981,0.31707z" fill="#ffab19" stroke="#001026" stroke-linecap="round" stroke-linejoin="round"/><g><path d="M240.06225,171.31155c0.05945,-0.03964 0.15854,-0.01982 0.17835,0.05945l0.51524,2.12041c0,0 1.26828,0.93139 1.6448,1.58535c0.63415,1.08993 0.65396,1.98169 0.65396,1.98169c0,0 1.407,0.41616 1.6448,1.54572c0.2378,1.12956 -0.63414,3.26978 -4.35972,4.00301c-3.72558,0.73323 -6.71793,-0.27744 -8.12493,-2.53656c-1.407,-2.25913 0.81249,-4.95422 0.69359,-4.79569l-0.41616,-3.54723c-0.01981,-0.07927 0.07927,-0.13873 0.15854,-0.09909l2.39784,1.56553c0,0 0.89176,-0.33688 1.82316,-0.37652c0.55488,-0.03963 1.03048,0 1.48627,0.07927z" fill="#ffab19" stroke="#001026" stroke-linecap="butt" stroke-linejoin="miter"/><path d="M242.99515,177.13771c0,0 1.36737,0.35671 1.60517,1.48627c0.2378,1.12956 -0.7134,3.1707 -4.39935,3.88411c-4.7957,0.99084 -7.07464,-1.86279 -5.74691,-3.96338c1.32774,-2.12041 3.60668,-0.31707 5.2713,-0.43597c1.42682,-0.09908 1.58535,-1.34755 3.26979,-0.97103z" fill="#ffffff" stroke="none" stroke-linecap="butt" stroke-linejoin="miter"/><path d="M238.67505,181.69561c-1.80333,-0.19817 -1.98169,-1.46645 -1.92224,-2.43748c0,-0.07927 0.07926,-0.13872 0.15853,-0.11891c0.37652,0.13872 1.44664,0.45579 2.63565,0.53506c1.07011,0.05945 1.70426,0 2.00151,-0.05945c0.09909,-0.01981 0.17836,0.07927 0.13872,0.17835c-0.17835,0.53505 -0.93139,2.02132 -3.01216,1.90242z" fill="#ffffff" stroke="#001026" stroke-linecap="round" stroke-linejoin="round"/><path d="M246.64145,177.35569c-0.93139,0.75304 -2.35821,0.77286 -2.35821,0.77286" fill="none" stroke="#001026" stroke-linecap="round" stroke-linejoin="round"/><path d="M246.38383,179.57518c-1.24846,0.09909 -2.02132,-0.27743 -2.02132,-0.27743" fill="none" stroke="#001026" stroke-linecap="round" stroke-linejoin="round"/><path d="M238.7345,177.85112c-0.01982,-0.23781 0.51524,-0.25762 0.91158,-0.25762c0.41616,0 0.85214,0.03963 0.87195,0.17835c0.01981,0.27744 -0.27744,0.83232 -0.59451,0.85213c-0.3567,0.03963 -1.18901,-0.45579 -1.18901,-0.77286z" fill="#001026" stroke="#001026" stroke-linecap="round" stroke-linejoin="round"/><path d="M230.72848,177.29624c0,0 1.70426,0.55488 2.39785,1.1692" fill="none" stroke="#001026" stroke-linecap="round" stroke-linejoin="round"/><path d="M233.18577,179.15904c-0.85212,0.33689 -2.31857,0.1189 -2.31857,0.1189" fill="none" stroke="#001026" stroke-linecap="round" stroke-linejoin="round"/><g><path d="M239.92352,174.32371c0.55488,-0.37652 1.48627,0.05945 2.06096,0.95121c0.57469,0.89175 0.59452,1.90241 0.03964,2.25912c-0.55488,0.35671 -1.46645,-0.05945 -2.06096,-0.95121c-0.57469,-0.89175 -0.59451,-1.90241 -0.03963,-2.25912z" fill="#ffffff" stroke="#001026" stroke-linecap="round" stroke-linejoin="round"/><path d="M241.90522,176.40449c0,0.21798 -0.15854,0.39634 -0.35671,0.39634c-0.19818,0 -0.35671,-0.17835 -0.35671,-0.39634c0,-0.21799 0.15854,-0.39634 0.35671,-0.39634c0.19818,0 0.35671,0.17835 0.35671,0.39634" fill="#001026" stroke="none" stroke-linecap="butt" stroke-linejoin="miter"/></g><g><path d="M234.92967,174.93804c0.61432,-0.45579 1.54571,0.01981 2.14022,0.89176c0.59451,0.87194 0.55488,1.94205 0.01982,2.31857c-0.65396,0.37652 -1.5259,0.09909 -2.12041,-0.77286c-0.61432,-0.87195 -0.65395,-2.00151 -0.03963,-2.43748z" fill="#ffffff" stroke="#001026" stroke-linecap="round" stroke-linejoin="round"/><path d="M236.95099,176.97917c0,0.21798 -0.15854,0.39634 -0.35671,0.39634c-0.19818,0 -0.35671,-0.17835 -0.35671,-0.39634c0,-0.21798 0.15854,-0.39633 0.35671,-0.39633c0.19818,0.01981 0.35671,0.17834 0.35671,0.39633" fill="#001026" stroke="none" stroke-linecap="butt" stroke-linejoin="miter"/></g></g></g><path d="M214,197.03315v-2h52v2z" fill="#cccccc" fill-rule="nonzero" stroke="none" stroke-width="0" stroke-linecap="butt" stroke-linejoin="miter"/><path d="M214,186.04016v-5.26166h21.29057v5.26166z" fill="#b9a15d" fill-rule="nonzero" stroke="none" stroke-width="0" stroke-linecap="butt" stroke-linejoin="miter"/><path d="M235.29058,185.84729v9.18587h-21.29057v-9.18587z" fill="#9d884f" fill-rule="nonzero" stroke="none" stroke-width="0" stroke-linecap="butt" stroke-linejoin="miter"/><g fill-rule="nonzero" stroke="#4d4d4d" stroke-width="1" stroke-linecap="butt" stroke-linejoin="miter"><path d="M218.55383,163.39655v2.51355c0.07595,0.95027 -0.3136,1.86874 -1.00518,2.37124c-0.69159,0.5025 -1.56618,0.5025 -2.25822,0c-0.69159,-0.5025 -1.08114,-1.42097 -1.00518,-2.37124v-2.51355z" fill="#7acc83"/><path d="M227.12855,163.39655v2.51355c0.07595,0.95027 -0.3136,1.86874 -1.00518,2.37124c-0.69159,0.5025 -1.56618,0.5025 -2.25822,0c-0.69159,-0.5025 -1.08114,-1.42097 -1.00518,-2.37124v-2.51355z" fill="#7acc83"/><path d="M235.70326,163.39655v2.51355c0.07595,0.95027 -0.3136,1.86874 -1.00518,2.37124c-0.69159,0.5025 -1.56618,0.5025 -2.25822,0c-0.69159,-0.5025 -1.08114,-1.42097 -1.00518,-2.37124v-2.51355z" fill="#7acc83"/><path d="M244.27797,163.39655v2.51355c0.07595,0.95027 -0.3136,1.86874 -1.00518,2.37124c-0.69159,0.5025 -1.56618,0.5025 -2.25822,0c-0.69159,-0.5025 -1.08114,-1.42097 -1.00518,-2.37124v-2.51355z" fill="#7acc83"/><path d="M252.85268,163.39655v2.51355c0.07595,0.95027 -0.3136,1.86874 -1.00518,2.37124c-0.69159,0.5025 -1.56618,0.5025 -2.25822,0c-0.69159,-0.5025 -1.08114,-1.42097 -1.00518,-2.37124v-2.51355z" fill="#7acc83"/><path d="M261.4274,163.39655v2.51355c0.07595,0.95027 -0.3136,1.86874 -1.00518,2.37124c-0.69159,0.5025 -1.56618,0.5025 -2.25822,0c-0.69159,-0.5025 -1.08114,-1.42097 -1.00518,-2.37124v-2.51355z" fill="#7acc83"/><path d="M222.84119,163.39655v2.51355c0.07595,0.95027 -0.31359,1.86874 -1.00518,2.37124c-0.69159,0.5025 -1.56618,0.5025 -2.25822,0c-0.69159,-0.5025 -1.08114,-1.42097 -1.00518,-2.37124v-2.51355z" fill="#3ca621"/><path d="M231.4159,163.39655v2.51355c0.07595,0.95027 -0.31359,1.86874 -1.00518,2.37124c-0.69159,0.5025 -1.56618,0.5025 -2.25822,0c-0.69159,-0.5025 -1.08114,-1.42097 -1.00518,-2.37124v-2.51355z" fill="#3ca621"/><path d="M239.99062,163.39655v2.51355c0.07595,0.95027 -0.31359,1.86874 -1.00518,2.37124c-0.69159,0.5025 -1.56618,0.5025 -2.25822,0c-0.69159,-0.5025 -1.08114,-1.42097 -1.00518,-2.37124v-2.51355z" fill="#3ca621"/><path d="M248.56533,163.39655v2.51355c0.07595,0.95027 -0.31359,1.86874 -1.00518,2.37124c-0.69159,0.5025 -1.56618,0.5025 -2.25822,0c-0.69159,-0.5025 -1.08114,-1.42097 -1.00518,-2.37124v-2.51355z" fill="#3ca621"/><path d="M257.14004,163.39655v2.51355c0.07595,0.95027 -0.31359,1.86874 -1.00518,2.37124c-0.69159,0.5025 -1.56618,0.5025 -2.25822,0c-0.69159,-0.5025 -1.08114,-1.42097 -1.00518,-2.37124v-2.51355z" fill="#3ca621"/><path d="M265.71475,163.39655v2.51355c0.07595,0.95027 -0.31359,1.86874 -1.00518,2.37124c-0.69159,0.5025 -1.56618,0.5025 -2.25822,0c-0.69159,-0.5025 -1.08114,-1.42097 -1.00518,-2.37124v-2.51355z" fill="#3ca621"/></g><path d="M244.70943,186.04016v-5.26166h21.29057v5.26166z" fill="#b9a15d" fill-rule="nonzero" stroke="none" stroke-width="0" stroke-linecap="butt" stroke-linejoin="miter"/><path d="M266,185.84729v9.18587h-21.29057v-9.18587z" fill="#9d884f" fill-rule="nonzero" stroke="none" stroke-width="0" stroke-linecap="butt" stroke-linejoin="miter"/><path d="M233.30146,182.87807c0,0.55229 -7.23018,0.85771 -7.23866,0.81681c-0.31394,-1.51449 0.15631,-2.38087 0.71688,-2.55828c0.55651,-0.72868 1.5048,-1.31479 2.05298,-1.15406c0.4148,-0.75427 1.04121,-1.19398 1.62296,-0.15165c0.04358,0.07808 0.0732,0.16172 0.09209,0.24977c0.22785,-0.06745 0.48899,-0.12108 0.78692,-0.1578c0.97343,-0.11998 1.07155,0.30718 0.85562,0.85664c0.80532,-0.15217 1.55503,0.07198 1.55503,0.99865c0,0.10879 -0.23732,0.35459 -0.57171,0.61025c0.08143,0.14473 0.12788,0.31177 0.12788,0.48967z" fill="#38b13e" fill-rule="nonzero" stroke="none" stroke-width="0.5" stroke-linecap="butt" stroke-linejoin="miter"/><path d="M223.13223,182.52574c0,0.44765 -0.52809,0.97467 -1.14993,1.34609c-0.1385,0.38613 -0.50777,0.66233 -0.94155,0.66233c-0.22484,0 -0.43236,-0.07421 -0.59939,-0.19947c-0.04239,-0.00668 -0.0824,-0.0164 -0.11968,-0.02936c-0.08353,0.05016 -0.16769,0.07777 -0.251,0.07777c-0.14629,0.08383 -0.31579,0.13176 -0.49648,0.13176c-0.19318,0 -0.37357,-0.05478 -0.52648,-0.14965c-0.1012,0.03447 -0.20971,0.05317 -0.32258,0.05317c-0.12969,0 -0.25362,-0.02469 -0.36733,-0.06963c-0.05009,0.00772 -0.10142,0.01174 -0.15368,0.01174c-0.09632,0.07458 -0.25172,0.02437 -0.43567,-0.09964c-0.14432,-0.06996 -0.26928,-0.17359 -0.36467,-0.3007c-0.56571,-0.53305 -1.204,-1.38178 -1.29614,-1.51348c-1.67049,-2.3878 -0.08222,-1.8509 1.31897,-0.97244c0.15397,-0.19601 0.3727,-0.38981 0.66859,-0.57685c1.14968,-0.72674 1.38994,-0.06676 1.45346,0.74478c0.44134,-0.68428 1.13312,-1.04605 1.78886,-0.49384c0.10545,0.0888 0.14758,0.28369 0.14054,0.53606c0.81003,-0.58184 1.65415,-0.65852 1.65415,0.84136z" fill="#df6734" fill-rule="nonzero" stroke="none" stroke-width="0.5" stroke-linecap="butt" stroke-linejoin="miter"/><path d="M249.0216,183.70747c-0.74535,0.23648 -3.26636,-1.45058 -2.57017,-2.27947c0.0331,-0.18365 0.11793,-0.36017 0.25521,-0.50632c0.37811,-0.40255 1.01097,-0.42237 1.41352,-0.04425c0.18571,0.17443 0.28996,0.40308 0.31127,0.63832c1.17814,0.65737 2.17504,1.68889 0.59018,2.19172z" fill="#8264c2" fill-rule="nonzero" stroke="none" stroke-width="0.5" stroke-linecap="butt" stroke-linejoin="miter"/><path d="M250.56403,184.30799c-1.23835,0.08541 -1.43939,-2.43339 -0.61881,-2.9023c0.17395,-0.29474 0.49479,-0.49247 0.86182,-0.49247c0.55229,0 1,0.44771 1,1c0,0.18559 -0.05056,0.35936 -0.13864,0.50831c0.14801,0.88583 -0.11756,1.8184 -1.10437,1.88645z" fill="#8264c2" fill-rule="nonzero" stroke="none" stroke-width="0.5" stroke-linecap="butt" stroke-linejoin="miter"/><path d="M252.07342,184.39221c-0.93093,-0.67649 -0.53697,-3.80311 0.66409,-3.65298c0.11854,-0.04951 0.24865,-0.07686 0.38514,-0.07686c0.55229,0 1,0.44771 1,1c0,0.37756 -0.20924,0.70624 -0.51808,0.87643c0.0065,1.3089 -0.45034,2.63881 -1.53114,1.85341z" fill="#8264c2" fill-rule="nonzero" stroke="none" stroke-width="0.5" stroke-linecap="butt" stroke-linejoin="miter"/><path d="M258.74151,184.27539c-1.13061,0.42585 -2.46676,-1.97661 -1.91603,-2.64196c0.0589,-0.33714 0.28945,-0.63526 0.63292,-0.76463c0.51684,-0.19467 1.09363,0.0665 1.2883,0.58334c0.0314,0.08336 0.05094,0.16828 0.05946,0.25291c0.78457,0.85342 1.1684,2.1059 -0.06465,2.57034z" fill="#cae5d0" fill-rule="nonzero" stroke="none" stroke-width="0.5" stroke-linecap="butt" stroke-linejoin="miter"/><path d="M259.21784,181.89348c0.20905,-0.18263 0.57678,-0.87833 0.70379,-0.95091c0.17395,-0.29474 0.49479,-0.49247 0.86181,-0.49247c0.55228,0 1,0.44771 1,1c0,0.0087 -0.00011,0.01739 -0.00033,0.02604c0.61723,2.0655 -6.38503,3.75419 -2.56527,0.41734z" fill="#cae5d0" fill-rule="nonzero" stroke="none" stroke-width="0.5" stroke-linecap="butt" stroke-linejoin="miter"/><path d="M264.79308,182.00979c-0.40681,1.45118 -4.30253,3.14606 -3.71251,0.58931c0.13186,-0.5714 1.50916,-0.97536 1.8764,-1.35857c0.01608,-0.0275 0.03344,-0.05416 0.05199,-0.07991c0.12629,-0.21049 0.31064,-0.32781 0.51409,-0.37092c0.09405,-0.0293 0.19406,-0.04508 0.29776,-0.04508c0.51866,0 0.94509,0.39486 0.9951,0.90036c0.01828,0.11562 0.01267,0.23819 -0.02283,0.3648z" fill="#cae5d0" fill-rule="nonzero" stroke="none" stroke-width="0.5" stroke-linecap="butt" stroke-linejoin="miter"/><path d="M246.17677,181.87537c-0.40255,-0.37811 -0.42237,-1.01097 -0.04425,-1.41352c0.37811,-0.40255 1.01097,-0.42237 1.41352,-0.04425c0.15047,0.14133 0.24746,0.31825 0.29019,0.50544c0.17357,0.53506 -0.17093,1.23146 -0.90957,1.22132c-0.26672,0.01738 -0.53969,-0.07156 -0.74988,-0.26899z" fill="#25933c" fill-rule="nonzero" stroke="none" stroke-width="0.5" stroke-linecap="butt" stroke-linejoin="miter"/><path d="M249.82633,181.02558c0,-0.29433 0.12715,-0.55895 0.32953,-0.74194c0.17737,-0.16038 0.41251,-0.25806 0.67047,-0.25806c0.07195,0 0.14213,0.0076 0.20978,0.02204c0.30756,0.02462 0.49338,0.16974 0.58769,0.3745c0.12711,0.16772 0.20253,0.37678 0.20253,0.60346c0,0.37194 -0.20306,0.69645 -0.50436,0.86872c-0.29387,0.37958 -0.70051,0.52275 -1.00318,-0.00691c-0.29474,-0.17395 -0.49247,-0.49479 -0.49247,-0.86182z" fill="#25933c" fill-rule="nonzero" stroke="none" stroke-width="0.5" stroke-linecap="butt" stroke-linejoin="miter"/><path d="M256.53152,181.33261c-0.0163,-0.0163 -0.14459,-0.5568 -0.17872,-0.72746c-0.01537,-0.06967 -0.02347,-0.14207 -0.02347,-0.21636c0,-0.1168 0.02003,-0.22893 0.05683,-0.33313c0.29582,-1.49892 0.87267,-1.30195 1.32656,-0.59074c0.36203,0.15041 0.61661,0.50741 0.61661,0.92387c0,0.13684 -0.02748,0.26725 -0.07723,0.38603c0.30166,1.22611 0.03695,2.31533 -1.72058,0.55779z" fill="#25933c" fill-rule="nonzero" stroke="none" stroke-width="0.5" stroke-linecap="butt" stroke-linejoin="miter"/><path d="M252.39738,180.89646c-0.00411,-0.0675 -0.01608,-0.15219 -0.02364,-0.24045c0.01182,-0.54202 0.4549,-0.97777 0.99976,-0.97777c0.52937,0 0.96266,0.41133 0.99771,0.93181c0.67042,1.35568 -1.84606,2.38284 -1.97383,0.28641z" fill="#25933c" fill-rule="nonzero" stroke="none" stroke-width="0.5" stroke-linecap="butt" stroke-linejoin="miter"/><path d="M260.3272,181.11725c-0.68798,-0.45865 0.10583,-2.16451 0.90821,-2.10917c0.13169,-0.06384 0.27951,-0.09965 0.43569,-0.09965c0.55228,0 1,0.44772 1,1c0,0.37311 -0.20434,0.6985 -0.50721,0.87035c-0.26258,0.60983 -0.97635,0.91203 -1.83669,0.33847z" fill="#25933c" fill-rule="nonzero" stroke="none" stroke-width="0.5" stroke-linecap="butt" stroke-linejoin="miter"/><path d="M264.1074,179.82689c0.02182,-0.01455 0.04353,-0.02826 0.06512,-0.04116c0.16804,-0.12799 0.37782,-0.20398 0.60536,-0.20398c0.55228,0 1,0.44772 1,1c0,0.38248 -0.21473,0.71481 -0.53021,0.883c-0.08172,0.08161 -0.1789,0.15703 -0.29273,0.22369c-1.4702,0.8609 -2.3958,-1.04133 -0.89223,-1.8124z" fill="#25933c" fill-rule="nonzero" stroke="none" stroke-width="0.5" stroke-linecap="butt" stroke-linejoin="miter"/><path d="M224.01826,183.32505c0,1.12276 -1.94416,2.03294 -4.34241,2.03294c-2.39825,0 -4.34242,-0.91018 -4.34242,-2.03294c0,-1.12276 1.94417,-1.12669 4.34242,-1.12669c2.39825,0 4.34241,0.00393 4.34241,1.12669z" fill="#986843" fill-rule="nonzero" stroke="none" stroke-width="0" stroke-linecap="butt" stroke-linejoin="miter"/><path d="M233.95715,183.32505c0,1.12276 -1.94416,2.03294 -4.34241,2.03294c-2.39825,0 -4.34242,-0.91018 -4.34242,-2.03294c0,-1.12276 1.94417,-1.12669 4.34242,-1.12669c2.39825,0 4.34241,0.00393 4.34241,1.12669z" fill="#986843" fill-rule="nonzero" stroke="none" stroke-width="0" stroke-linecap="butt" stroke-linejoin="miter"/><path d="M254.72769,183.32505c0,1.12276 -1.94417,2.03294 -4.34242,2.03294c-2.39825,0 -4.34241,-0.91018 -4.34241,-2.03294c0,-1.12276 1.94416,-1.12669 4.34241,-1.12669c2.39825,0 4.34242,0.00393 4.34242,1.12669z" fill="#986843" fill-rule="nonzero" stroke="none" stroke-width="0" stroke-linecap="butt" stroke-linejoin="miter"/><path d="M264.66657,183.32505c0,1.12276 -1.94416,2.03294 -4.34241,2.03294c-2.39825,0 -4.34242,-0.91018 -4.34242,-2.03294c0,-1.12276 1.94416,-1.12669 4.34242,-1.12669c2.39825,0 4.34241,0.00393 4.34241,1.12669z" fill="#986843" fill-rule="nonzero" stroke="none" stroke-width="0" stroke-linecap="butt" stroke-linejoin="miter"/></g></g></svg>