<svg version="1.1" xmlns="http://www.w3.org/2000/svg" xmlns:xlink="http://www.w3.org/1999/xlink" width="108.5" height="61.5" viewBox="0,0,108.5,61.5"><defs><linearGradient x1="217.905" y1="154.435" x2="217.905" y2="190.435" gradientUnits="userSpaceOnUse" id="color-1"><stop offset="0" stop-color="#dbc78b"/><stop offset="1" stop-color="#a8a28d"/></linearGradient><linearGradient x1="217.905" y1="170.805" x2="217.905" y2="186.075" gradientUnits="userSpaceOnUse" id="color-2"><stop offset="0" stop-color="#666666" stop-opacity="0"/><stop offset="1" stop-color="#666666"/></linearGradient></defs><g transform="translate(-185.905,-149.125)"><g stroke-miterlimit="10"><path d="M290.655,152.875v54h-101v-54z" fill="#333333" fill-rule="nonzero" stroke="#333333" stroke-width="7.5" stroke-linecap="butt" stroke-linejoin="round"/><g><path d="M190.905,190.435v-36h54v36z" fill="url(#color-1)" fill-rule="nonzero" stroke="#666666" stroke-width="2" stroke-linecap="butt" stroke-linejoin="round"/><path d="M238.47877,188.46818v-10.88115h4.42623v10.88115z" fill="none" fill-rule="nonzero" stroke="#b98054" stroke-width="2" stroke-linecap="butt" stroke-linejoin="miter"/><path d="M216.43984,188.46818v-10.88115h15.30738v10.88115z" fill="none" fill-rule="nonzero" stroke="#b98054" stroke-width="2" stroke-linecap="butt" stroke-linejoin="miter"/><g fill="#000000" fill-rule="evenodd" stroke="none" stroke-width="0.25" stroke-linecap="butt" stroke-linejoin="miter" font-family="&quot;Helvetica Neue&quot;, Helvetica, Arial, sans-serif" font-weight="400" font-size="16" text-anchor="start"><g/><g/></g><path d="M209.70346,173.76382v13.70433h-17.79846v-13.70433z" fill="#b98054" fill-rule="nonzero" stroke="none" stroke-width="0" stroke-linecap="butt" stroke-linejoin="miter"/><path d="M215.07689,184.39955v-9.31412h17.96023v9.31412z" fill="#d7c1ae" fill-rule="nonzero" stroke="none" stroke-width="0" stroke-linecap="butt" stroke-linejoin="miter"/><path d="M237.15235,184.39955v-9.31412h6.75266v9.31412z" fill="#d7c1ae" fill-rule="nonzero" stroke="none" stroke-width="0" stroke-linecap="butt" stroke-linejoin="miter"/><path d="M216.64592,172.10069l2.36272,1.33254" fill="none" fill-rule="nonzero" stroke="#a6734b" stroke-width="1" stroke-linecap="round" stroke-linejoin="miter"/><path d="M216.21103,171.85541c0.40019,-0.70958 1.44823,-0.87669 2.34086,-0.37326c0.89263,0.50343 1.29184,1.48677 0.89165,2.19635c0,0 -3.23252,-1.82307 -3.23251,-1.82309z" fill="#d6d19e" fill-rule="nonzero" stroke="none" stroke-width="0" stroke-linecap="butt" stroke-linejoin="miter"/><path d="M221.77052,173.88324l-1.83398,-1.99865" fill="none" fill-rule="nonzero" stroke="#a6734b" stroke-width="1" stroke-linecap="round" stroke-linejoin="miter"/><path d="M219.59897,171.5167c0.60024,-0.55079 1.64852,-0.38516 2.3414,0.36993c0.69287,0.75509 0.76797,1.81371 0.16773,2.3645c0,0 -2.50914,-2.73441 -2.50913,-2.73443z" fill="#d6d19e" fill-rule="nonzero" stroke="none" stroke-width="0" stroke-linecap="butt" stroke-linejoin="miter"/><path d="M232.13076,171.82848l-4.51531,1.95153l-2.14286,-1.95153" fill="none" fill-rule="nonzero" stroke="#a6734b" stroke-width="1" stroke-linecap="round" stroke-linejoin="miter"/><path d="M228.38075,171.23536l2.00893,2.65944l-0.53571,0.32526l-3.38648,-3.06122" fill="none" fill-rule="nonzero" stroke="#a6734b" stroke-width="1" stroke-linecap="round" stroke-linejoin="miter"/><path d="M238.72509,171.36955l0.49807,1.11115" fill="none" fill-rule="nonzero" stroke="#945137" stroke-width="0.5" stroke-linecap="round" stroke-linejoin="miter"/><path d="M238.2428,171.45788l0.45158,1.00744" fill="none" fill-rule="nonzero" stroke="#379454" stroke-width="0.5" stroke-linecap="round" stroke-linejoin="miter"/><path d="M239.0381,170.94457l0.7637,1.70376l-1.51116,0.67737l-0.7637,-1.70376" fill="none" fill-rule="nonzero" stroke="#cbac95" stroke-width="1" stroke-linecap="round" stroke-linejoin="miter"/><path d="M241.66416,171.40538l0.49807,1.11114" fill="none" fill-rule="nonzero" stroke="#945137" stroke-width="0.5" stroke-linecap="round" stroke-linejoin="miter"/><path d="M241.18187,171.4937l0.45158,1.00744" fill="none" fill-rule="nonzero" stroke="#379454" stroke-width="0.5" stroke-linecap="round" stroke-linejoin="miter"/><path d="M241.97717,170.9804l0.7637,1.70376l-1.51116,0.67737l-0.7637,-1.70377" fill="none" fill-rule="nonzero" stroke="#cbac95" stroke-width="1" stroke-linecap="round" stroke-linejoin="miter"/><path d="M237.87934,175.08543l-0.85231,-2.37459h6.87798l-0.85231,2.37459z" fill="#d1782f" fill-rule="nonzero" stroke="none" stroke-width="0" stroke-linecap="butt" stroke-linejoin="miter"/><path d="M225.97187,175.08543l-0.85232,-2.37459h6.87798l-0.85232,2.37459z" fill="#d1782f" fill-rule="nonzero" stroke="none" stroke-width="0" stroke-linecap="butt" stroke-linejoin="miter"/><path d="M216.96878,175.08543l-0.85232,-2.37459h6.87798l-0.85232,2.37459z" fill="#d1782f" fill-rule="nonzero" stroke="none" stroke-width="0" stroke-linecap="butt" stroke-linejoin="miter"/></g><path d="M254.675,178.975l-1.96,2.07l-1.96,-2.07" fill="none" fill-rule="nonzero" stroke="#eeeeee" stroke-width="4" stroke-linecap="round" stroke-linejoin="miter"/><path d="M190.905,190.435v-19.62h54v19.62z" fill="url(#color-2)" fill-rule="nonzero" stroke="none" stroke-width="1" stroke-linecap="butt" stroke-linejoin="miter"/><text transform="translate(201.265,201.895) scale(0.23,0.23)" font-size="40" xml:space="preserve" fill="#ffffff" fill-rule="nonzero" stroke="none" stroke-width="1" stroke-linecap="butt" stroke-linejoin="miter" font-family="Sans Serif" font-weight="400" text-anchor="start"><tspan x="0" dy="0">120,000G</tspan></text><text transform="translate(259.725,161.015) scale(0.23,0.23)" font-size="40" xml:space="preserve" fill="#eeeeee" fill-rule="nonzero" stroke="none" stroke-width="1" stroke-linecap="butt" stroke-linejoin="miter" font-family="Sans Serif" font-weight="400" text-anchor="start"><tspan x="0" dy="0">5,400G</tspan></text><text transform="translate(259.725,171.865) scale(0.23,0.23)" font-size="40" xml:space="preserve" fill="#eeeeee" fill-rule="nonzero" stroke="none" stroke-width="1" stroke-linecap="butt" stroke-linejoin="miter" font-family="Sans Serif" font-weight="400" text-anchor="start"><tspan x="0" dy="0">450G</tspan></text><text transform="translate(259.725,182.715) scale(0.23,0.23)" font-size="40" xml:space="preserve" fill="#eeeeee" fill-rule="nonzero" stroke="none" stroke-width="1" stroke-linecap="butt" stroke-linejoin="miter" font-family="Sans Serif" font-weight="400" text-anchor="start"><tspan x="0" dy="0">7%</tspan></text><text transform="translate(259.725,193.565) scale(0.23,0.23)" font-size="40" xml:space="preserve" fill="#eeeeee" fill-rule="nonzero" stroke="none" stroke-width="1" stroke-linecap="butt" stroke-linejoin="miter" font-family="Sans Serif" font-weight="400" text-anchor="start"><tspan x="0" dy="0">-5</tspan></text><text transform="translate(259.725,204.415) scale(0.23,0.23)" font-size="40" xml:space="preserve" fill="#eeeeee" fill-rule="nonzero" stroke="none" stroke-width="1" stroke-linecap="butt" stroke-linejoin="miter" font-family="Sans Serif" font-weight="400" text-anchor="start"><tspan x="0" dy="0">-3</tspan></text><text transform="translate(191.905,186.975) scale(0.21,0.21)" font-size="40" xml:space="preserve" fill="#ffffff" fill-rule="nonzero" stroke="none" stroke-width="1" stroke-linecap="butt" stroke-linejoin="miter" font-family="Sans Serif" font-weight="400" text-anchor="start"><tspan x="0" dy="0">パン屋</tspan></text><path d="M254.295,186.785c0.32,-0.29 0.47,-0.2 0.33,0.21l-0.87,2.69c-0.13,0.42 0.09,0.86 0.51,0.99l0.32,0.1c0.41,0.13 0.49,0.48 0.17,0.77l-3.61,3.35c-0.32,0.29 -0.47,0.2 -0.33,-0.21l0.87,-2.69c0.13,-0.42 -0.09,-0.86 -0.51,-0.99l-0.31,-0.1c-0.41,-0.13 -0.49,-0.48 -0.17,-0.77zM250.055,203.115c0,-1.47 2.66,-5.49 2.66,-5.49c0,0 2.66,4.02 2.66,5.49c0,1.47 -1.19,2.66 -2.66,2.66c-1.47,0 -2.66,-1.19 -2.66,-2.66z" fill="#eeeeee" fill-rule="nonzero" stroke="#eeeeee" stroke-width="0.65" stroke-linecap="butt" stroke-linejoin="miter"/><path d="M191.855,200.155l-0.95,-2.39l5.74,-2.29l0.95,2.39zM255.835,159.085l-0.04,3.17l-0.94,-0.33l-0.55,-1.77l-1.56,1.03l-3.15,-1.11l1.97,-2.49z" fill="#ffffff" fill-rule="nonzero" stroke="#ffffff" stroke-width="1.25" stroke-linecap="butt" stroke-linejoin="round"/><path d="M194.725,199.015l1.55,3.88M255.115,154.335l-1.41,3.99" fill="none" fill-rule="nonzero" stroke="#ffffff" stroke-width="1.25" stroke-linecap="round" stroke-linejoin="miter"/><path d="M253.445,166.095c0.03,-0.02 0.09,-0.01 0.09,0.03l0.27,1.13c0,0 0.67,0.49 0.87,0.84c0.34,0.58 0.35,1.05 0.35,1.05c0,0 0.75,0.22 0.87,0.82c0.13,0.6 -0.34,1.73 -2.31,2.13c-1.98,0.39 -3.57,-0.15 -4.31,-1.35c-0.75,-1.2 0.43,-2.63 0.37,-2.55l-0.22,-1.89c-0.01,-0.04 0.04,-0.07 0.09,-0.05l1.27,0.83c0,0 0.47,-0.18 0.97,-0.2c0.29,-0.02 0.55,0 0.79,0.04z" fill="#eeeeee" fill-rule="nonzero" stroke="#eeeeee" stroke-width="0.65" stroke-linecap="butt" stroke-linejoin="miter"/><path d="M256.945,169.305c-0.49,0.4 -1.25,0.41 -1.25,0.41M256.805,170.485c-0.66,0.05 -1.07,-0.15 -1.07,-0.15M248.495,169.275c0,0 0.91,0.29 1.27,0.62M249.795,170.265c-0.45,0.18 -1.23,0.06 -1.23,0.06" fill="none" fill-rule="nonzero" stroke="#eeeeee" stroke-width="0.65" stroke-linecap="round" stroke-linejoin="miter"/><text transform="translate(196.51457,208.46654) scale(0.11803,0.11803)" font-size="40" xml:space="preserve" fill="#cccccc" fill-rule="nonzero" stroke="none" stroke-width="1" stroke-linecap="butt" stroke-linejoin="miter" font-family="Sans Serif" font-weight="400" text-anchor="start"><tspan x="0" dy="0">Lv.5</tspan></text><path d="M192.39673,206.48984c0.35371,-0.09488 0.62995,-0.37113 0.72483,-0.72484l0.2162,-0.80411c0.10269,-0.38013 0.64197,-0.38013 0.74406,0l0.21679,0.80411c0.09488,0.35371 0.37113,0.62996 0.72423,0.72484l0.80411,0.21619c0.38013,0.10269 0.38013,0.64196 0,0.74465l-0.80411,0.2162c-0.35311,0.09488 -0.62935,0.37113 -0.72423,0.72423l-0.21679,0.80411c-0.10209,0.38013 -0.64137,0.38013 -0.74406,0l-0.2162,-0.80411c-0.09488,-0.35311 -0.37112,-0.62935 -0.72483,-0.72423l-0.80411,-0.2162c-0.38013,-0.10269 -0.38013,-0.64196 0,-0.74465z" fill="#cccccc" fill-rule="evenodd" stroke="none" stroke-width="1" stroke-linecap="butt" stroke-linejoin="miter"/><path d="" fill="#d6d19e" fill-rule="nonzero" stroke="none" stroke-width="0" stroke-linecap="butt" stroke-linejoin="miter"/></g></g></svg>