<svg version="1.1" xmlns="http://www.w3.org/2000/svg" xmlns:xlink="http://www.w3.org/1999/xlink" width="721.24996" height="72.79411" viewBox="0,0,721.24996,72.79411"><g transform="translate(123.77871,-146.0285)"><g stroke-miterlimit="10"><path d="M67.77246,166.71281c0,-0.76038 1.51526,-2.27051 2.44321,-2.27051c7.33737,0 97.04243,-0.11872 111.71478,-0.11872c1.29516,0 2.44149,0.72199 2.44149,1.40979c0,2.43741 -0.10811,25.05525 -0.31769,25.47351c-0.30783,0.61431 -103.84891,0.01473 -114.93899,-0.35743c-0.60639,-0.02035 -1.09261,-0.6019 -1.14234,-1.38388c-0.30033,-4.72263 -0.20045,-20.49974 -0.20045,-22.75276z" fill="#eaeaea" stroke="#000000" stroke-width="0" stroke-linecap="butt"/><path d="M67.76198,166.71725c0,-0.76038 0.52196,-2.27051 0.63489,-2.27051c0.82817,0 13.37605,-0.11872 13.5057,-0.11872c0.15763,0 0.03714,26.29844 0.01164,26.7167c-0.03746,0.61431 -12.30153,0.18133 -13.65126,-0.19083c-0.0738,-0.02035 -0.47052,-0.6019 -0.47657,-1.38388c-0.03655,-4.72263 -0.0244,-20.49974 -0.0244,-22.75276z" fill="#ffffff" stroke="#000000" stroke-width="0" stroke-linecap="butt"/><path d="M68.04592,179.48789c0,-2.3553 -0.41711,-10.52169 0.09279,-10.52169c1.0047,0 3.37586,0 3.99623,0c0.4884,0 1.11519,0.42919 1.11519,0.88428c0,1.23659 0,7.01709 0,9.25097c0,0.54941 -0.4163,0.88428 -0.99127,0.88428c-1.00756,0 -4.21293,0.18836 -4.21293,-0.49784z" fill="#30f1d5" stroke="#000000" stroke-width="0.5" stroke-linecap="butt"/><path d="M75.65344,179.90604c0,-2.46238 0,-8.06419 0,-9.34648c0,-0.51212 0.28281,-1.00577 0.68622,-1.00577c0.79487,0 2.05801,0 2.5488,0c0.3864,0 0.88228,0.4487 0.88228,0.92449c0,1.29282 0,7.33613 0,9.67157c0,0.57438 -0.32937,0.92449 -0.78425,0.92449c-0.79713,0 -1.97969,0 -2.45077,0c-0.3864,0 -0.88228,-0.45092 -0.88228,-1.16831z" fill="#30f1d5" stroke="none" stroke-width="0" stroke-linecap="butt"/><path d="M75.04519,189.0985v-20.60631h5.32958v20.60631z" fill="none" stroke="#000000" stroke-width="0.5" stroke-linecap="round"/><g><path d="M90.09255,179.35759c0,-2.56921 0,-8.41404 0,-9.75196c0,-0.53434 0.25628,-1.0494 0.62186,-1.0494c0.72033,0 1.86501,0 2.30978,0c0.35016,0 0.79954,0.46817 0.79954,0.9646c0,1.34891 0,7.65439 0,10.09115c0,0.5993 -0.29848,0.9646 -0.7107,0.9646c-0.72237,0 -1.79404,0 -2.22094,0c-0.35016,0 -0.79954,-0.47048 -0.79954,-1.21899z" fill="#30f1d5" stroke="none" stroke-width="0" stroke-linecap="butt"/><path d="M94.67171,179.35759c0,-2.56921 0,-8.41404 0,-9.75196c0,-0.53434 0.25628,-1.0494 0.62186,-1.0494c0.72033,0 1.86501,0 2.30978,0c0.35016,0 0.79954,0.46817 0.79954,0.9646c0,1.34891 0,7.65439 0,10.09115c0,0.5993 -0.29848,0.9646 -0.7107,0.9646c-0.72237,0 -1.79404,0 -2.22094,0c-0.35016,0 -0.79954,-0.47048 -0.79954,-1.21899z" fill="#30f1d5" stroke="none" stroke-width="0" stroke-linecap="butt"/><path d="M94.27127,168.07923v20.35191" fill="none" stroke="#000000" stroke-width="0.5" stroke-linecap="round"/><path d="M89.54134,188.60073v-20.60631h9.32796v20.60631z" fill="none" stroke="#000000" stroke-width="0.5" stroke-linecap="round"/></g><path d="M104.04163,177.99377c0,-2.21312 0,-7.24787 0,-8.40036c0,-0.28266 0.3496,-0.90396 1.07216,-0.90396c3.6893,0 14.43802,0 16.71597,0c0.84492,0 1.32188,0.80471 1.32188,1.03087c0,1.16195 0,6.32689 0,8.42592c0,0.2669 -0.13759,0.89756 -1.15731,0.89756c-3.69979,0 -14.57646,0 -16.76293,0c-0.96541,0 -1.18976,-0.75236 -1.18976,-1.05005z" fill="#30f1d5" stroke="none" stroke-width="0" stroke-linecap="butt"/><path d="M113.50822,168.82696v9.93172" fill="none" stroke="#000000" stroke-width="0.5" stroke-linecap="round"/><g><path d="M129.287,179.42505c0,-2.56921 0,-8.41404 0,-9.75196c0,-0.53434 0.25628,-1.0494 0.62186,-1.0494c0.72033,0 1.86501,0 2.30978,0c0.35016,0 0.79954,0.46817 0.79954,0.9646c0,1.34891 0,7.65439 0,10.09115c0,0.5993 -0.29848,0.9646 -0.7107,0.9646c-0.72237,0 -1.79404,0 -2.22094,0c-0.35016,0 -0.79954,-0.47048 -0.79954,-1.21899z" fill="#30f1d5" stroke="none" stroke-width="0" stroke-linecap="butt"/><path d="M133.86619,179.42505c0,-2.56921 0,-8.41404 0,-9.75196c0,-0.53434 0.25628,-1.0494 0.62186,-1.0494c0.72033,0 1.86501,0 2.30978,0c0.35016,0 0.79954,0.46817 0.79954,0.9646c0,1.34891 0,7.65439 0,10.09115c0,0.5993 -0.29848,0.9646 -0.7107,0.9646c-0.72237,0 -1.79404,0 -2.22094,0c-0.35016,0 -0.79954,-0.47048 -0.79954,-1.21899z" fill="#30f1d5" stroke="none" stroke-width="0" stroke-linecap="butt"/><path d="M133.46572,188.49859v-20.35191" fill="none" stroke="#000000" stroke-width="0.5" stroke-linecap="round"/><path d="M128.7358,188.66819v-20.60631h9.32796v20.60631z" fill="none" stroke="#000000" stroke-width="0.5" stroke-linecap="round"/></g><path d="M143.0361,178.66113c0,-2.21312 0,-7.24787 0,-8.40036c0,-0.28266 0.3496,-0.90396 1.07215,-0.90396c3.68931,0 14.43802,0 16.71597,0c0.84492,0 1.32188,0.80471 1.32188,1.03087c0,1.16195 0,6.32689 0,8.42592c0,0.2669 -0.13759,0.89756 -1.15731,0.89756c-3.6998,0 -14.57647,0 -16.76293,0c-0.96542,0 -1.18976,-0.75236 -1.18976,-1.05005z" fill="#30f1d5" stroke="none" stroke-width="0" stroke-linecap="butt"/><path d="M152.43604,169.56098v9.93173" fill="none" stroke="#000000" stroke-width="0.5" stroke-linecap="round"/><g><path d="M168.21484,179.3592c0,-2.56921 0,-8.41404 0,-9.75196c0,-0.53434 0.25628,-1.0494 0.62186,-1.0494c0.72033,0 1.86501,0 2.30978,0c0.35016,0 0.79954,0.46817 0.79954,0.9646c0,1.34891 0,7.65439 0,10.09115c0,0.5993 -0.29848,0.9646 -0.7107,0.9646c-0.72237,0 -1.79404,0 -2.22094,0c-0.35016,0 -0.79954,-0.47048 -0.79954,-1.21899z" fill="#30f1d5" stroke="none" stroke-width="0" stroke-linecap="butt"/><path d="M172.79402,179.3592c0,-2.56921 0,-8.41404 0,-9.75196c0,-0.53434 0.25628,-1.0494 0.62186,-1.0494c0.72033,0 1.86501,0 2.30978,0c0.35016,0 0.79954,0.46817 0.79954,0.9646c0,1.34891 0,7.65439 0,10.09115c0,0.5993 -0.29848,0.9646 -0.7107,0.9646c-0.72237,0 -1.79404,0 -2.22094,0c-0.35016,0 -0.79954,-0.47048 -0.79954,-1.21899z" fill="#30f1d5" stroke="none" stroke-width="0" stroke-linecap="butt"/><path d="M172.39356,168.08084v20.35191" fill="none" stroke="#000000" stroke-width="0.5" stroke-linecap="round"/><path d="M167.66363,188.60234v-20.60631h9.32796v20.60631z" fill="none" stroke="#000000" stroke-width="0.5" stroke-linecap="round"/></g><path d="M82.04146,184.95768v-2.53292h7.26549v2.53292z" fill="#ffac0e" stroke="none" stroke-width="NaN" stroke-linecap="butt"/><path d="M99.10618,184.95849v-2.53292h29.39523v2.53292z" fill="#ffac0e" stroke="none" stroke-width="NaN" stroke-linecap="butt"/><path d="M138.30061,184.75933v-2.53292h29.12861v2.53292z" fill="#ffac0e" stroke="none" stroke-width="NaN" stroke-linecap="butt"/><path d="M177.22846,184.49352v-2.53292h6.93221v2.53292z" fill="#ffac0e" stroke="none" stroke-width="NaN" stroke-linecap="butt"/><g fill="#323232" stroke="none" stroke-width="0" stroke-linecap="butt"><path d="M86.79922,192.19066v-1.00345h5.25119v1.00345z"/><path d="M80.64264,193.95239v-2.26344h17.65487v2.26344z"/><path d="M86.61814,194.61036v-0.83906h5.43227v0.94393c0,0 -1.03564,0.39954 -2.08178,0.37933c-0.701,-0.01354 -1.40673,-0.02716 -1.80875,-0.03492c-0.63075,-0.01218 -1.54174,-0.44929 -1.54174,-0.44929z"/><path d="M86.07492,194.76722c0,1.10006 -0.89177,1.99183 -1.99183,1.99183c-1.10006,0 -1.99184,-0.89177 -1.99184,-1.99183c0,-1.10006 0.89177,-1.99183 1.99184,-1.99183c1.10006,0 1.99183,0.89177 1.99183,1.99183z"/><path d="M97.30271,194.67778c0,1.10005 -0.89178,1.99183 -1.99184,1.99183c-1.10005,0 -1.99183,-0.89178 -1.99183,-1.99183c0,-1.10005 0.89178,-1.99183 1.99183,-1.99183c1.10005,0 1.99184,0.89178 1.99184,1.99183z"/></g><path d="M104.97689,195.35597v-4.06601h4.19932v4.06601z" fill="#323232" stroke="none" stroke-width="0" stroke-linecap="butt"/><path d="M112.30986,195.42343v-4.06601h4.19932v4.06601z" fill="#323232" stroke="none" stroke-width="0" stroke-linecap="butt"/><path d="M119.17621,195.42424v-4.06601h14.53097v4.06601z" fill="#323232" stroke="none" stroke-width="0" stroke-linecap="butt"/><path d="M136.24093,195.55837v-4.06601h5.79906v4.06601z" fill="#323232" stroke="none" stroke-width="0" stroke-linecap="butt"/><path d="M67.77805,195.28931v-5.39912h4.86588l-3.53276,5.39912z" fill="#ffffff" stroke="none" stroke-width="0" stroke-linecap="butt"/><path d="M144.57371,195.49253v-4.06601h5.79906v4.06601z" fill="#323232" stroke="none" stroke-width="0" stroke-linecap="butt"/><g fill="#323232" stroke="none" stroke-width="0" stroke-linecap="butt"><path d="M162.72105,192.4581v-1.00346h5.25119v1.00346z"/><path d="M156.56448,194.21981v-2.26344h17.65487v2.26344z"/><path d="M162.53997,194.87779v-0.83905h5.43227v0.94393c0,0 -1.03564,0.39954 -2.08178,0.37934c-0.701,-0.01354 -1.40673,-0.02716 -1.80875,-0.03492c-0.63075,-0.01217 -1.54174,-0.44929 -1.54174,-0.44929z"/><path d="M161.99674,195.03464c0,1.10006 -0.89177,1.99183 -1.99183,1.99183c-1.10006,0 -1.99183,-0.89177 -1.99183,-1.99183c0,-1.10006 0.89177,-1.99183 1.99183,-1.99183c1.10006,0 1.99183,0.89177 1.99183,1.99183z"/><path d="M173.22454,194.94521c0,1.10005 -0.89179,1.99183 -1.99184,1.99183c-1.10005,0 -1.99183,-0.89178 -1.99183,-1.99183c0,-1.10005 0.89178,-1.99184 1.99183,-1.99184c1.10005,0 1.99184,0.89179 1.99184,1.99184z"/></g><path d="M82.02319,167.3902v-3c0,0 94.11597,0 101.01667,0c0.78784,0 1.31667,0.57318 1.31667,0.95c0,0.55354 0,2.05 0,2.05z" fill="#f3f3f3" stroke="none" stroke-width="0" stroke-linecap="butt"/><path d="M187.29761,166.7128c0,-0.76038 1.36997,-2.27051 2.20894,-2.27051c6.63382,0 87.73739,-0.11872 101.00287,-0.11872c1.17097,0 2.20739,0.72199 2.20739,1.40979c0,2.43741 -0.09775,25.05525 -0.28723,25.47351c-0.27832,0.61431 -93.89122,0.01473 -103.91792,-0.35743c-0.54825,-0.02035 -0.98784,-0.6019 -1.0328,-1.38388c-0.27153,-4.72263 -0.18123,-20.49974 -0.18123,-22.75276z" fill="#eaeaea" stroke="#000000" stroke-width="0" stroke-linecap="butt"/><g><path d="M198.43742,179.35758c0,-2.56921 0,-8.41404 0,-9.75196c0,-0.53434 0.25628,-1.0494 0.62186,-1.0494c0.72033,0 1.86501,0 2.30978,0c0.35016,0 0.79954,0.46817 0.79954,0.9646c0,1.34891 0,7.65439 0,10.09115c0,0.5993 -0.29848,0.9646 -0.7107,0.9646c-0.72237,0 -1.79404,0 -2.22094,0c-0.35016,0 -0.79954,-0.47048 -0.79954,-1.21899z" fill="#30f1d5" stroke="none" stroke-width="0" stroke-linecap="butt"/><path d="M203.01659,179.35758c0,-2.56921 0,-8.41404 0,-9.75196c0,-0.53434 0.25628,-1.0494 0.62186,-1.0494c0.72033,0 1.86501,0 2.30978,0c0.35016,0 0.79954,0.46817 0.79954,0.9646c0,1.34891 0,7.65439 0,10.09115c0,0.5993 -0.29848,0.9646 -0.7107,0.9646c-0.72237,0 -1.79404,0 -2.22094,0c-0.35016,0 -0.79954,-0.47048 -0.79954,-1.21899z" fill="#30f1d5" stroke="none" stroke-width="0" stroke-linecap="butt"/><path d="M202.61614,168.07922v20.35191" fill="none" stroke="#000000" stroke-width="0.5" stroke-linecap="round"/><path d="M197.88621,188.60072v-20.60631h9.32796v20.60631z" fill="none" stroke="#000000" stroke-width="0.5" stroke-linecap="round"/></g><path d="M212.3865,177.99376c0,-2.21312 0,-7.24787 0,-8.40036c0,-0.28266 0.3496,-0.90396 1.07216,-0.90396c3.6893,0 14.43802,0 16.71597,0c0.84492,0 1.32188,0.80471 1.32188,1.03087c0,1.16195 0,6.32689 0,8.42592c0,0.2669 -0.13759,0.89756 -1.15731,0.89756c-3.69979,0 -14.57646,0 -16.76293,0c-0.96541,0 -1.18976,-0.75236 -1.18976,-1.05005z" fill="#30f1d5" stroke="none" stroke-width="0" stroke-linecap="butt"/><path d="M221.85309,178.75867v-9.93172" fill="none" stroke="#000000" stroke-width="0.5" stroke-linecap="round"/><g><path d="M237.63187,179.42504c0,-2.56921 0,-8.41404 0,-9.75196c0,-0.53434 0.25628,-1.0494 0.62186,-1.0494c0.72033,0 1.86501,0 2.30978,0c0.35016,0 0.79954,0.46817 0.79954,0.9646c0,1.34891 0,7.65439 0,10.09115c0,0.5993 -0.29848,0.9646 -0.7107,0.9646c-0.72237,0 -1.79404,0 -2.22094,0c-0.35016,0 -0.79954,-0.47048 -0.79954,-1.21899z" fill="#30f1d5" stroke="none" stroke-width="0" stroke-linecap="butt"/><path d="M242.21106,179.42504c0,-2.56921 0,-8.41404 0,-9.75196c0,-0.53434 0.25628,-1.0494 0.62186,-1.0494c0.72033,0 1.86501,0 2.30978,0c0.35016,0 0.79954,0.46817 0.79954,0.9646c0,1.34891 0,7.65439 0,10.09115c0,0.5993 -0.29848,0.9646 -0.7107,0.9646c-0.72237,0 -1.79404,0 -2.22094,0c-0.35016,0 -0.79954,-0.47048 -0.79954,-1.21899z" fill="#30f1d5" stroke="none" stroke-width="0" stroke-linecap="butt"/><path d="M241.81059,168.14667v20.35191" fill="none" stroke="#000000" stroke-width="0.5" stroke-linecap="round"/><path d="M237.08066,188.66818v-20.60631h9.32796v20.60631z" fill="none" stroke="#000000" stroke-width="0.5" stroke-linecap="round"/></g><path d="M251.38097,178.66112c0,-2.21312 0,-7.24787 0,-8.40036c0,-0.28266 0.3496,-0.90396 1.07215,-0.90396c3.68931,0 14.43802,0 16.71597,0c0.84492,0 1.32188,0.80471 1.32188,1.03087c0,1.16195 0,6.32689 0,8.42592c0,0.2669 -0.13759,0.89756 -1.15731,0.89756c-3.6998,0 -14.57647,0 -16.76293,0c-0.96542,0 -1.18976,-0.75236 -1.18976,-1.05005z" fill="#30f1d5" stroke="none" stroke-width="0" stroke-linecap="butt"/><path d="M260.78091,179.4927v-9.93173" fill="none" stroke="#000000" stroke-width="0.5" stroke-linecap="round"/><g><path d="M276.55969,179.35919c0,-2.56921 0,-8.41404 0,-9.75196c0,-0.53434 0.25628,-1.0494 0.62186,-1.0494c0.72033,0 1.86501,0 2.30978,0c0.35016,0 0.79954,0.46817 0.79954,0.9646c0,1.34891 0,7.65439 0,10.09115c0,0.5993 -0.29848,0.9646 -0.7107,0.9646c-0.72237,0 -1.79404,0 -2.22094,0c-0.35016,0 -0.79954,-0.47048 -0.79954,-1.21899z" fill="#30f1d5" stroke="none" stroke-width="0" stroke-linecap="butt"/><path d="M281.13889,179.35919c0,-2.56921 0,-8.41404 0,-9.75196c0,-0.53434 0.25628,-1.0494 0.62186,-1.0494c0.72033,0 1.86501,0 2.30978,0c0.35016,0 0.79954,0.46817 0.79954,0.9646c0,1.34891 0,7.65439 0,10.09115c0,0.5993 -0.29848,0.9646 -0.7107,0.9646c-0.72237,0 -1.79404,0 -2.22094,0c-0.35016,0 -0.79954,-0.47048 -0.79954,-1.21899z" fill="#30f1d5" stroke="none" stroke-width="0" stroke-linecap="butt"/><path d="M280.73841,168.08083v20.35191" fill="none" stroke="#000000" stroke-width="0.5" stroke-linecap="round"/><path d="M276.0085,188.60233v-20.60631h9.32796v20.60631z" fill="none" stroke="#000000" stroke-width="0.5" stroke-linecap="round"/></g><path d="M187.47724,184.95767v-2.53292h10.17458v2.53292z" fill="#ffac0e" stroke="none" stroke-width="NaN" stroke-linecap="butt"/><path d="M207.45105,184.95848v-2.53292h29.39523v2.53292z" fill="#ffac0e" stroke="none" stroke-width="NaN" stroke-linecap="butt"/><path d="M246.64547,184.75932v-2.53292h29.12861v2.53292z" fill="#ffac0e" stroke="none" stroke-width="NaN" stroke-linecap="butt"/><path d="M285.57332,184.49351v-2.53292h6.93221v2.53292z" fill="#ffac0e" stroke="none" stroke-width="NaN" stroke-linecap="butt"/><g fill="#323232" stroke="none" stroke-width="0" stroke-linecap="butt"><path d="M195.14409,192.19065v-1.00345h5.25119v1.00345z"/><path d="M188.98751,193.95238v-2.26344h17.65486v2.26344z"/><path d="M194.963,194.61035v-0.83906h5.43226v0.94393c0,0 -1.03564,0.39954 -2.08178,0.37933c-0.70099,-0.01354 -1.40673,-0.02716 -1.80874,-0.03492c-0.63075,-0.01218 -1.54174,-0.44929 -1.54174,-0.44929z"/><path d="M194.41979,194.76721c0,1.10006 -0.89177,1.99183 -1.99183,1.99183c-1.10006,0 -1.99184,-0.89177 -1.99184,-1.99183c0,-1.10006 0.89178,-1.99183 1.99184,-1.99183c1.10006,0 1.99183,0.89177 1.99183,1.99183z"/><path d="M205.64758,194.67777c0,1.10005 -0.89178,1.99183 -1.99183,1.99183c-1.10005,0 -1.99183,-0.89178 -1.99183,-1.99183c0,-1.10005 0.89178,-1.99183 1.99183,-1.99183c1.10005,0 1.99183,0.89178 1.99183,1.99183z"/></g><path d="M213.32177,195.35596v-4.06601h4.19932v4.06601z" fill="#323232" stroke="none" stroke-width="0" stroke-linecap="butt"/><path d="M220.65473,195.42343v-4.06601h4.19932v4.06601z" fill="#323232" stroke="none" stroke-width="0" stroke-linecap="butt"/><path d="M227.52109,195.42424v-4.06601h14.53097v4.06601z" fill="#323232" stroke="none" stroke-width="0" stroke-linecap="butt"/><path d="M244.5858,195.55836v-4.06601h5.79906v4.06601z" fill="#323232" stroke="none" stroke-width="0" stroke-linecap="butt"/><path d="M252.91857,195.49252v-4.06601h5.79906v4.06601z" fill="#323232" stroke="none" stroke-width="0" stroke-linecap="butt"/><g fill="#323232" stroke="none" stroke-width="0" stroke-linecap="butt"><path d="M271.06591,192.45809v-1.00346h5.2512v1.00346z"/><path d="M264.90934,194.21981v-2.26344h17.65486v2.26344z"/><path d="M270.88485,194.87778v-0.83905h5.43227v0.94393c0,0 -1.03564,0.39954 -2.08179,0.37934c-0.70099,-0.01354 -1.40673,-0.02716 -1.80874,-0.03492c-0.63075,-0.01217 -1.54174,-0.44929 -1.54174,-0.44929z"/><path d="M270.34162,195.03464c0,1.10006 -0.89177,1.99183 -1.99183,1.99183c-1.10006,0 -1.99184,-0.89177 -1.99184,-1.99183c0,-1.10006 0.89178,-1.99183 1.99184,-1.99183c1.10006,0 1.99183,0.89177 1.99183,1.99183z"/><path d="M281.56941,194.94521c0,1.10005 -0.89179,1.99183 -1.99184,1.99183c-1.10005,0 -1.99183,-0.89178 -1.99183,-1.99183c0,-1.10005 0.89178,-1.99184 1.99183,-1.99184c1.10005,0 1.99184,0.89179 1.99184,1.99184z"/></g><path d="M187.52716,167.39019c0,0 0,-1.09096 0,-1.33747c0,-0.44224 0.95371,-1.66253 1.78276,-1.66253c11.41534,0 95.33529,0 101.94736,0c0.80971,0 1.44413,0.6641 1.44413,1.04091c0,0.55354 0,1.95909 0,1.95909z" fill="#f3f3f3" stroke="none" stroke-width="0" stroke-linecap="butt"/><g><path d="M412.22757,166.71279c0,2.25302 0.09988,18.03013 -0.20045,22.75276c-0.04973,0.78198 -0.53595,1.36353 -1.14234,1.38388c-11.09008,0.37216 -114.63116,0.97174 -114.93899,0.35743c-0.20958,-0.41826 -0.31769,-23.0361 -0.31769,-25.47351c0,-0.6878 1.14633,-1.40979 2.44149,-1.40979c14.67235,0 104.37741,0.11872 111.71478,0.11872c0.92795,0 2.44321,1.51013 2.44321,2.27051z" fill="#eaeaea" stroke="#000000" stroke-width="0" stroke-linecap="butt"/><path d="M412.21365,189.47001c-0.00605,0.78198 -0.40277,1.36353 -0.47657,1.38388c-1.34973,0.37216 -13.6138,0.80514 -13.65126,0.19083c-0.0255,-0.41826 -0.14599,-26.7167 0.01164,-26.7167c0.12965,0 12.67753,0.11872 13.5057,0.11872c0.11293,0 0.63489,1.51013 0.63489,2.27051c0,2.25302 0.01215,18.03013 -0.0244,22.75276z" fill="#ffffff" stroke="#000000" stroke-width="0" stroke-linecap="butt"/><path d="M411.95411,179.48788c0,0.6862 -3.20537,0.49784 -4.21293,0.49784c-0.57497,0 -0.99127,-0.33487 -0.99127,-0.88428c0,-2.23388 0,-8.01438 0,-9.25097c0,-0.45509 0.62679,-0.88428 1.11519,-0.88428c0.62037,0 2.99153,0 3.99623,0c0.5099,0 0.09279,8.16639 0.09279,10.52169z" fill="#30f1d5" stroke="#000000" stroke-width="0.5" stroke-linecap="butt"/><path d="M404.3466,179.90602c0,0.71739 -0.49588,1.16831 -0.88228,1.16831c-0.47108,0 -1.65364,0 -2.45077,0c-0.45488,0 -0.78425,-0.35011 -0.78425,-0.92449c0,-2.33544 0,-8.37875 0,-9.67157c0,-0.47579 0.49588,-0.92449 0.88228,-0.92449c0.49079,0 1.75393,0 2.5488,0c0.40341,0 0.68622,0.49365 0.68622,1.00577c0,1.28229 0,6.8841 0,9.34648z" fill="#30f1d5" stroke="none" stroke-width="0" stroke-linecap="butt"/><path d="M399.62527,189.09849v-20.60631h5.32958v20.60631z" fill="none" stroke="#000000" stroke-width="0.5" stroke-linecap="round"/><g><path d="M389.10795,180.57657c-0.4269,0 -1.49857,0 -2.22094,0c-0.41222,0 -0.7107,-0.3653 -0.7107,-0.9646c0,-2.43676 0,-8.74224 0,-10.09115c0,-0.49643 0.44938,-0.9646 0.79954,-0.9646c0.44477,0 1.58945,0 2.30978,0c0.36558,0 0.62186,0.51506 0.62186,1.0494c0,1.33792 0,7.18275 0,9.75196c0,0.74851 -0.44938,1.21899 -0.79954,1.21899z" fill="#30f1d5" stroke="none" stroke-width="0" stroke-linecap="butt"/><path d="M384.52878,180.57657c-0.4269,0 -1.49857,0 -2.22094,0c-0.41222,0 -0.7107,-0.3653 -0.7107,-0.9646c0,-2.43676 0,-8.74224 0,-10.09115c0,-0.49643 0.44938,-0.9646 0.79954,-0.9646c0.44477,0 1.58945,0 2.30978,0c0.36558,0 0.62186,0.51506 0.62186,1.0494c0,1.33792 0,7.18275 0,9.75196c0,0.74851 -0.44938,1.21899 -0.79954,1.21899z" fill="#30f1d5" stroke="none" stroke-width="0" stroke-linecap="butt"/><path d="M385.72877,188.43113v-20.35191" fill="none" stroke="#000000" stroke-width="0.5" stroke-linecap="round"/><path d="M381.13074,188.60072v-20.60631h9.32796v20.60631z" fill="none" stroke="#000000" stroke-width="0.5" stroke-linecap="round"/></g><path d="M375.9584,177.99374c0,0.29769 -0.22435,1.05005 -1.18976,1.05005c-2.18647,0 -13.06314,0 -16.76293,0c-1.01972,0 -1.15731,-0.63066 -1.15731,-0.89756c0,-2.09903 0,-7.26397 0,-8.42592c0,-0.22616 0.47696,-1.03087 1.32188,-1.03087c2.27795,0 13.02667,0 16.71597,0c0.72256,0 1.07216,0.6213 1.07216,0.90396c0,1.15249 0,6.18724 0,8.40036z" fill="#30f1d5" stroke="none" stroke-width="0" stroke-linecap="butt"/><path d="M366.49182,168.82695v9.93172" fill="none" stroke="#000000" stroke-width="0.5" stroke-linecap="round"/><g><path d="M349.91349,180.64402c-0.4269,0 -1.49857,0 -2.22094,0c-0.41222,0 -0.7107,-0.3653 -0.7107,-0.9646c0,-2.43676 0,-8.74224 0,-10.09115c0,-0.49643 0.44938,-0.9646 0.79954,-0.9646c0.44477,0 1.58945,0 2.30978,0c0.36558,0 0.62186,0.51506 0.62186,1.0494c0,1.33792 0,7.18275 0,9.75196c0,0.74851 -0.44938,1.21899 -0.79954,1.21899z" fill="#30f1d5" stroke="none" stroke-width="0" stroke-linecap="butt"/><path d="M345.33431,180.64402c-0.4269,0 -1.49857,0 -2.22094,0c-0.41222,0 -0.7107,-0.3653 -0.7107,-0.9646c0,-2.43676 0,-8.74224 0,-10.09115c0,-0.49643 0.44938,-0.9646 0.79954,-0.9646c0.44477,0 1.58945,0 2.30978,0c0.36558,0 0.62186,0.51506 0.62186,1.0494c0,1.33792 0,7.18275 0,9.75196c0,0.74851 -0.44938,1.21899 -0.79954,1.21899z" fill="#30f1d5" stroke="none" stroke-width="0" stroke-linecap="butt"/><path d="M346.5343,168.14668v20.35191" fill="none" stroke="#000000" stroke-width="0.5" stroke-linecap="round"/><path d="M341.93628,188.66818v-20.60631h9.32796v20.60631z" fill="none" stroke="#000000" stroke-width="0.5" stroke-linecap="round"/></g><path d="M336.96392,178.66109c0,0.29769 -0.22434,1.05005 -1.18976,1.05005c-2.18646,0 -13.06313,0 -16.76293,0c-1.01972,0 -1.15731,-0.63066 -1.15731,-0.89756c0,-2.09903 0,-7.26397 0,-8.42592c0,-0.22616 0.47696,-1.03087 1.32188,-1.03087c2.27795,0 13.02666,0 16.71597,0c0.72255,0 1.07215,0.6213 1.07215,0.90396c0,1.15249 0,6.18724 0,8.40036z" fill="#30f1d5" stroke="none" stroke-width="0" stroke-linecap="butt"/><path d="M327.56399,179.4927v-9.93173" fill="none" stroke="#000000" stroke-width="0.5" stroke-linecap="round"/><g><path d="M310.98565,180.57818c-0.4269,0 -1.49857,0 -2.22094,0c-0.41222,0 -0.7107,-0.3653 -0.7107,-0.9646c0,-2.43676 0,-8.74224 0,-10.09115c0,-0.49643 0.44938,-0.9646 0.79954,-0.9646c0.44477,0 1.58945,0 2.30978,0c0.36558,0 0.62186,0.51506 0.62186,1.0494c0,1.33792 0,7.18275 0,9.75196c0,0.74851 -0.44938,1.21899 -0.79954,1.21899z" fill="#30f1d5" stroke="none" stroke-width="0" stroke-linecap="butt"/><path d="M306.40648,180.57818c-0.4269,0 -1.49857,0 -2.22094,0c-0.41222,0 -0.7107,-0.3653 -0.7107,-0.9646c0,-2.43676 0,-8.74224 0,-10.09115c0,-0.49643 0.44938,-0.9646 0.79954,-0.9646c0.44477,0 1.58945,0 2.30978,0c0.36558,0 0.62186,0.51506 0.62186,1.0494c0,1.33792 0,7.18275 0,9.75196c0,0.74851 -0.44938,1.21899 -0.79954,1.21899z" fill="#30f1d5" stroke="none" stroke-width="0" stroke-linecap="butt"/><path d="M307.60648,188.43274v-20.35191" fill="none" stroke="#000000" stroke-width="0.5" stroke-linecap="round"/><path d="M303.00844,188.60233v-20.60631h9.32796v20.60631z" fill="none" stroke="#000000" stroke-width="0.5" stroke-linecap="round"/></g><path d="M390.69308,184.95767v-2.53292h7.26549v2.53292z" fill="#ffac0e" stroke="none" stroke-width="NaN" stroke-linecap="butt"/><path d="M351.49863,184.95848v-2.53292h29.39523v2.53292z" fill="#ffac0e" stroke="none" stroke-width="NaN" stroke-linecap="butt"/><path d="M312.5708,184.75932v-2.53292h29.12861v2.53292z" fill="#ffac0e" stroke="none" stroke-width="NaN" stroke-linecap="butt"/><path d="M295.83935,184.49351v-2.53292h6.93221v2.53292z" fill="#ffac0e" stroke="none" stroke-width="NaN" stroke-linecap="butt"/><g fill="#323232" stroke="none" stroke-width="0" stroke-linecap="butt"><path d="M387.94962,192.19065v-1.00345h5.2512v1.00345z"/><path d="M381.70251,193.95238v-2.26344h17.65486v2.26344z"/><path d="M391.84016,195.05964c-0.40202,0.00776 -1.10775,0.02138 -1.80875,0.03492c-1.04615,0.0202 -2.08179,-0.37933 -2.08179,-0.37933v-0.94393h5.43227v0.83906c0,0 -0.91098,0.43711 -1.54174,0.44929z"/><path d="M395.91695,192.77537c1.10006,0 1.99183,0.89177 1.99183,1.99183c0,1.10006 -0.89177,1.99183 -1.99183,1.99183c-1.10006,0 -1.99183,-0.89177 -1.99183,-1.99183c0,-1.10006 0.89177,-1.99183 1.99183,-1.99183z"/><path d="M384.68916,192.68594c1.10005,0 1.99183,0.89178 1.99183,1.99183c0,1.10005 -0.89178,1.99183 -1.99183,1.99183c-1.10005,0 -1.99184,-0.89178 -1.99184,-1.99183c0,-1.10005 0.89179,-1.99183 1.99184,-1.99183z"/></g><path d="M370.82381,195.35596v-4.06601h4.19932v4.06601z" fill="#323232" stroke="none" stroke-width="0" stroke-linecap="butt"/><path d="M363.49086,195.42343v-4.06601h4.19932v4.06601z" fill="#323232" stroke="none" stroke-width="0" stroke-linecap="butt"/><path d="M346.29284,195.42424v-4.06601h14.53097v4.06601z" fill="#323232" stroke="none" stroke-width="0" stroke-linecap="butt"/><path d="M337.96004,195.55836v-4.06601h5.79906v4.06601z" fill="#323232" stroke="none" stroke-width="0" stroke-linecap="butt"/><path d="M410.88885,195.28931l-3.53276,-5.39912h4.86588v5.39912z" fill="#ffffff" stroke="none" stroke-width="0" stroke-linecap="butt"/><path d="M329.62724,195.49253v-4.06601h5.79906v4.06601z" fill="#323232" stroke="none" stroke-width="0" stroke-linecap="butt"/><g fill="#323232" stroke="none" stroke-width="0" stroke-linecap="butt"><path d="M312.02777,192.45809v-1.00346h5.2512v1.00346z"/><path d="M305.78068,194.21981v-2.26344h17.65486v2.26344z"/><path d="M315.91832,195.32709c-0.40202,0.00776 -1.10775,0.02138 -1.80875,0.03492c-1.04615,0.0202 -2.08178,-0.37934 -2.08178,-0.37934v-0.94393h5.43227v0.83905c0,0 -0.91098,0.43712 -1.54174,0.44929z"/><path d="M319.99511,193.04282c1.10006,0 1.99183,0.89177 1.99183,1.99183c0,1.10006 -0.89177,1.99183 -1.99183,1.99183c-1.10006,0 -1.99183,-0.89177 -1.99183,-1.99183c0,-1.10006 0.89177,-1.99183 1.99183,-1.99183z"/><path d="M308.76732,192.95337c1.10005,0 1.99183,0.89179 1.99183,1.99184c0,1.10005 -0.89178,1.99183 -1.99183,1.99183c-1.10005,0 -1.99184,-0.89178 -1.99184,-1.99183c0,-1.10005 0.89179,-1.99184 1.99184,-1.99184z"/></g><path d="M295.64349,167.39019c0,0 0,-1.49647 0,-2.05c0,-0.37681 0.52883,-0.95 1.31667,-0.95c6.90069,0 101.01666,0 101.01666,0v3z" fill="#f3f3f3" stroke="none" stroke-width="0" stroke-linecap="butt"/></g><path d="M-123.77871,218.82261v-72.79411h721.24996v72.79411z" fill="none" stroke="none" stroke-width="0" stroke-linecap="butt"/></g></g></svg>