<svg version="1.1" xmlns="http://www.w3.org/2000/svg" xmlns:xlink="http://www.w3.org/1999/xlink" width="108.5" height="61.5" viewBox="0,0,108.5,61.5"><defs><linearGradient x1="217.905" y1="170.805" x2="217.905" y2="186.075" gradientUnits="userSpaceOnUse" id="color-1"><stop offset="0" stop-color="#666666" stop-opacity="0"/><stop offset="1" stop-color="#666666"/></linearGradient></defs><g transform="translate(-185.905,-149.125)"><g stroke-miterlimit="10"><path d="M290.655,152.875v54h-101v-54z" fill="#333333" stroke="#333333" stroke-width="7.5" stroke-linecap="butt" stroke-linejoin="round"/><g><path d="M190.905,190.435v-36h54v36z" fill="#bfbdac" stroke="#666666" stroke-width="2" stroke-linecap="butt" stroke-linejoin="round"/><path d="M231.05971,179.5104l-4.53342,-7.0754" fill="none" stroke="#59531f" stroke-width="1.5" stroke-linecap="round" stroke-linejoin="miter"/><path d="M226.52629,177.15196l4.53342,-2.92899" fill="none" stroke="#80772d" stroke-width="1.5" stroke-linecap="round" stroke-linejoin="miter"/><path d="M226.52629,183.80876l4.53342,-2.92899" fill="none" stroke="#a69b3a" stroke-width="1.5" stroke-linecap="round" stroke-linejoin="miter"/><path d="M190.905,165.46223v-11.02723h11.02723v11.02723z" fill="#ccc0ad" stroke="#666666" stroke-width="2" stroke-linecap="butt" stroke-linejoin="round"/><path d="M231.05971,186.46815v-16.04924h10.33663v16.04924z" fill="#353535" stroke="#666666" stroke-width="2" stroke-linecap="butt" stroke-linejoin="round"/><path d="M205.83074,186.46815v-16.04924h20.69554v16.04924z" fill="#c0b3a8" stroke="#666666" stroke-width="2" stroke-linecap="butt" stroke-linejoin="round"/><path d="M208.86602,183.34934v-9.81162h5.71411v9.81162z" fill="#807773" stroke="#807773" stroke-width="2" stroke-linecap="butt" stroke-linejoin="round"/><path d="M217.77691,183.34934v-9.81162h5.71411v9.81162z" fill="#807773" stroke="#807773" stroke-width="2" stroke-linecap="butt" stroke-linejoin="round"/><path d="M236.81875,170.48424l-0.92975,-16.04924" fill="none" stroke="#666666" stroke-width="1.5" stroke-linecap="round" stroke-linejoin="miter"/><path d="M239.37557,170.48424v-16.04924" fill="none" stroke="#666666" stroke-width="1.5" stroke-linecap="round" stroke-linejoin="miter"/><path d="M197.73375,156.55188c0.26806,-0.24293 0.3937,-0.16754 0.27643,0.17591l-0.72877,2.25332c-0.10889,0.35182 0.07539,0.7204 0.42721,0.82929l0.26806,0.08376c0.34345,0.10889 0.41046,0.40207 0.1424,0.645l-3.02397,2.80618c-0.26806,0.24293 -0.39371,0.16754 -0.27643,-0.17591l0.72877,-2.25332c0.10889,-0.35182 -0.07539,-0.7204 -0.42721,-0.82929l-0.25968,-0.08376c-0.34345,-0.10889 -0.41046,-0.40207 -0.1424,-0.645z" fill="#fff599" stroke="#fff599" stroke-width="0.5" stroke-linecap="butt" stroke-linejoin="miter"/></g><path d="M190.905,190.435v-19.62h54v19.62z" fill="url(#color-1)" stroke="none" stroke-width="1" stroke-linecap="butt" stroke-linejoin="miter"/><text transform="translate(201.265,201.895) scale(0.23,0.23)" font-size="40" xml:space="preserve" fill="#ffffff" stroke="none" stroke-width="1" stroke-linecap="butt" stroke-linejoin="miter" font-family="Sans Serif" font-weight="400" text-anchor="start"><tspan x="0" dy="0">35,000G</tspan></text><text transform="translate(259.725,161.015) scale(0.23,0.23)" font-size="40" xml:space="preserve" fill="#eeeeee" stroke="none" stroke-width="1" stroke-linecap="butt" stroke-linejoin="miter" font-family="Sans Serif" font-weight="400" text-anchor="start"><tspan x="0" dy="0">400G</tspan></text><text transform="translate(259.725,193.565) scale(0.23,0.23)" font-size="40" xml:space="preserve" fill="#eeeeee" stroke="none" stroke-width="1" stroke-linecap="butt" stroke-linejoin="miter" font-family="Sans Serif" font-weight="400" text-anchor="start"><tspan x="0" dy="0">+25</tspan></text><text transform="translate(191.905,186.975) scale(0.21,0.21)" font-size="40" xml:space="preserve" fill="#ffffff" stroke="none" stroke-width="1" stroke-linecap="butt" stroke-linejoin="miter" font-family="Sans Serif" font-weight="400" text-anchor="start"><tspan x="0" dy="0">小さな配電室</tspan></text><path d="M254.295,186.785c0.32,-0.29 0.47,-0.2 0.33,0.21l-0.87,2.69c-0.13,0.42 0.09,0.86 0.51,0.99l0.32,0.1c0.41,0.13 0.49,0.48 0.17,0.77l-3.61,3.35c-0.32,0.29 -0.47,0.2 -0.33,-0.21l0.87,-2.69c0.13,-0.42 -0.09,-0.86 -0.51,-0.99l-0.31,-0.1c-0.41,-0.13 -0.49,-0.48 -0.17,-0.77z" fill="#eeeeee" stroke="#eeeeee" stroke-width="0.65" stroke-linecap="butt" stroke-linejoin="miter"/><path d="M191.855,200.155l-0.95,-2.39l5.74,-2.29l0.95,2.39zM255.835,159.085l-0.04,3.17l-0.94,-0.33l-0.55,-1.77l-1.56,1.03l-3.15,-1.11l1.97,-2.49z" fill="#ffffff" stroke="#ffffff" stroke-width="1.25" stroke-linecap="butt" stroke-linejoin="round"/><path d="M194.725,199.015l1.55,3.88M255.115,154.335l-1.41,3.99" fill="none" stroke="#ffffff" stroke-width="1.25" stroke-linecap="round" stroke-linejoin="miter"/></g></g></svg>