<svg version="1.1" xmlns="http://www.w3.org/2000/svg" xmlns:xlink="http://www.w3.org/1999/xlink" width="108.5" height="61.5" viewBox="0,0,108.5,61.5"><defs><linearGradient x1="217.905" y1="170.805" x2="217.905" y2="186.075" gradientUnits="userSpaceOnUse" id="color-1"><stop offset="0" stop-color="#666666" stop-opacity="0"/><stop offset="1" stop-color="#666666"/></linearGradient></defs><g transform="translate(-185.905,-149.125)"><g stroke-miterlimit="10"><path d="M290.655,152.875v54h-101v-54z" fill="#333333" fill-rule="nonzero" stroke="#333333" stroke-width="7.5" stroke-linecap="butt" stroke-linejoin="round"/><g fill-rule="nonzero"><path d="M190.905,190.435v-36h54v36z" fill="#59422d" stroke="#666666" stroke-width="2" stroke-linecap="butt" stroke-linejoin="round"/><path d="M243.905,175.21349v12.25466h-16.89244v-12.25466z" fill="#b9a15d" stroke="none" stroke-width="0" stroke-linecap="butt" stroke-linejoin="miter"/><path d="M226.45355,175.21349v-2h17.45145v2z" fill="#9d884f" stroke="none" stroke-width="0" stroke-linecap="butt" stroke-linejoin="miter"/><path d="M203.21605,163.29515v24.173h-11.31105v-24.173z" fill="#d94141" stroke="none" stroke-width="0" stroke-linecap="butt" stroke-linejoin="miter"/><path d="M202.47366,166.72627v15.00267h-9.82627v-15.00267z" fill="#9ccccc" stroke="#808080" stroke-width="1.5" stroke-linecap="butt" stroke-linejoin="miter"/><path d="M192.64739,174.2276h9.82627" fill="none" stroke="#808080" stroke-width="1.5" stroke-linecap="round" stroke-linejoin="miter"/><path d="M193.71711,180.99049l0.45687,-4.26403h1.44836l0.45686,4.26403z" fill="#80460d" stroke="none" stroke-width="0" stroke-linecap="butt" stroke-linejoin="miter"/><path d="M194.07476,177.61218c0.25349,0.03805 1.35824,0.03368 1.63681,-0.01259l0.11927,1.1131c-0.33077,-0.06627 -1.59623,-0.0778 -1.87045,-0.03303z" fill="#800d0d" stroke="none" stroke-width="0" stroke-linecap="butt" stroke-linejoin="miter"/><path d="M196.37948,180.99049l0.45687,-4.26403h1.44836l0.45686,4.26403z" fill="#80460d" stroke="none" stroke-width="0" stroke-linecap="butt" stroke-linejoin="miter"/><path d="M196.73713,177.61218c0.25349,0.03805 1.35824,0.03368 1.63681,-0.01259l0.11927,1.1131c-0.33077,-0.06627 -1.59623,-0.0778 -1.87045,-0.03303z" fill="#800d0d" stroke="none" stroke-width="0" stroke-linecap="butt" stroke-linejoin="miter"/><path d="M199.04184,180.99049l0.45687,-4.26403h1.44836l0.45686,4.26403z" fill="#80460d" stroke="none" stroke-width="0" stroke-linecap="butt" stroke-linejoin="miter"/><path d="M199.39949,177.61218c0.25349,0.03805 1.35824,0.03368 1.63681,-0.01259l0.11926,1.1131c-0.33077,-0.06627 -1.59623,-0.0778 -1.87045,-0.03303z" fill="#800d0d" stroke="none" stroke-width="0" stroke-linecap="butt" stroke-linejoin="miter"/><path d="M193.71711,173.4736l0.45687,-4.26403h1.44836l0.45686,4.26403z" fill="#27632b" stroke="none" stroke-width="0" stroke-linecap="butt" stroke-linejoin="miter"/><path d="M194.07476,170.09529c0.25349,0.03805 1.35824,0.03368 1.63681,-0.01259l0.11927,1.11309c-0.33077,-0.06627 -1.59623,-0.0778 -1.87045,-0.03303z" fill="#22ad99" stroke="none" stroke-width="0" stroke-linecap="butt" stroke-linejoin="miter"/><path d="M196.37948,173.4736l0.45687,-4.26403h1.44836l0.45686,4.26403z" fill="#27632b" stroke="none" stroke-width="0" stroke-linecap="butt" stroke-linejoin="miter"/><path d="M196.73713,170.09529c0.25349,0.03805 1.35824,0.03368 1.63681,-0.01259l0.11927,1.11309c-0.33077,-0.06627 -1.59623,-0.0778 -1.87045,-0.03303z" fill="#22ad99" stroke="none" stroke-width="0" stroke-linecap="butt" stroke-linejoin="miter"/><path d="M199.04184,173.4736l0.45687,-4.26403h1.44836l0.45686,4.26403z" fill="#27632b" stroke="none" stroke-width="0" stroke-linecap="butt" stroke-linejoin="miter"/><path d="M199.39949,170.09529c0.25349,0.03805 1.35824,0.03368 1.63681,-0.01259l0.11926,1.11309c-0.33077,-0.06627 -1.59623,-0.0778 -1.87045,-0.03303z" fill="#22ad99" stroke="none" stroke-width="0" stroke-linecap="butt" stroke-linejoin="miter"/><path d="M220.10848,180.88498v6.58317h-16.89244v-6.58317z" fill="#b9a15d" stroke="none" stroke-width="0" stroke-linecap="butt" stroke-linejoin="miter"/><path d="M203.21605,180.88498v-2h17.45145v2z" fill="#9d884f" stroke="none" stroke-width="0" stroke-linecap="butt" stroke-linejoin="miter"/><path d="M216.32075,175.1544l-0.72479,1.13445l-1.16597,-0.91387" fill="none" stroke="#9d7a21" stroke-width="1.5" stroke-linecap="round" stroke-linejoin="miter"/><path d="M217.64428,175.78464l-3.78151,1.33929l-0.55147,-1.30777" fill="none" stroke="#9d7a21" stroke-width="1.5" stroke-linecap="round" stroke-linejoin="miter"/><path d="M213.28748,178.88498l-0.93401,-2.56435h6.00915l-0.93401,2.56435z" fill="#915d35" stroke="none" stroke-width="0" stroke-linecap="butt" stroke-linejoin="miter"/><path d="M208.73292,177.40818l-0.43118,-2.05075l2.38997,-0.50251l0.43118,2.05075z" fill="#611c1c" stroke="none" stroke-width="0" stroke-linecap="butt" stroke-linejoin="miter"/><path d="M207.27817,177.81449l0.60663,-2.7705l2.15483,0.47182l-0.60663,2.7705z" fill="#782323" stroke="none" stroke-width="0" stroke-linecap="butt" stroke-linejoin="miter"/><path d="M206.15016,177.77342l-0.62543,-2.76632l2.15158,-0.48644l0.62543,2.76632z" fill="#a22f2f" stroke="none" stroke-width="0" stroke-linecap="butt" stroke-linejoin="miter"/><path d="M206.23118,178.88498l-0.93401,-2.56436h6.00915l-0.93401,2.56436z" fill="#915d35" stroke="none" stroke-width="0" stroke-linecap="butt" stroke-linejoin="miter"/></g><path d="M254.675,178.975l-1.96,2.07l-1.96,-2.07" fill="none" fill-rule="nonzero" stroke="#eeeeee" stroke-width="4" stroke-linecap="round" stroke-linejoin="miter"/><path d="M190.905,190.435v-19.62h54v19.62z" fill="url(#color-1)" fill-rule="nonzero" stroke="none" stroke-width="1" stroke-linecap="butt" stroke-linejoin="miter"/><text transform="translate(201.265,201.895) scale(0.23,0.23)" font-size="40" xml:space="preserve" fill="#ffffff" fill-rule="nonzero" stroke="none" stroke-width="1" stroke-linecap="butt" stroke-linejoin="miter" font-family="Sans Serif" font-weight="400" text-anchor="start"><tspan x="0" dy="0">110,000G</tspan></text><text transform="translate(259.725,161.015) scale(0.23,0.23)" font-size="40" xml:space="preserve" fill="#eeeeee" fill-rule="nonzero" stroke="none" stroke-width="1" stroke-linecap="butt" stroke-linejoin="miter" font-family="Sans Serif" font-weight="400" text-anchor="start"><tspan x="0" dy="0">6,200G</tspan></text><text transform="translate(259.725,171.865) scale(0.23,0.23)" font-size="40" xml:space="preserve" fill="#eeeeee" fill-rule="nonzero" stroke="none" stroke-width="1" stroke-linecap="butt" stroke-linejoin="miter" font-family="Sans Serif" font-weight="400" text-anchor="start"><tspan x="0" dy="0">350G</tspan></text><text transform="translate(259.725,182.715) scale(0.23,0.23)" font-size="40" xml:space="preserve" fill="#eeeeee" fill-rule="nonzero" stroke="none" stroke-width="1" stroke-linecap="butt" stroke-linejoin="miter" font-family="Sans Serif" font-weight="400" text-anchor="start"><tspan x="0" dy="0">7%</tspan></text><text transform="translate(259.725,193.565) scale(0.23,0.23)" font-size="40" xml:space="preserve" fill="#eeeeee" fill-rule="nonzero" stroke="none" stroke-width="1" stroke-linecap="butt" stroke-linejoin="miter" font-family="Sans Serif" font-weight="400" text-anchor="start"><tspan x="0" dy="0">-2</tspan></text><text transform="translate(191.905,186.975) scale(0.21,0.21)" font-size="40" xml:space="preserve" fill="#ffffff" fill-rule="nonzero" stroke="none" stroke-width="1" stroke-linecap="butt" stroke-linejoin="miter" font-family="Sans Serif" font-weight="400" text-anchor="start"><tspan x="0" dy="0">駄菓子屋</tspan></text><path d="M254.295,186.785c0.32,-0.29 0.47,-0.2 0.33,0.21l-0.87,2.69c-0.13,0.42 0.09,0.86 0.51,0.99l0.32,0.1c0.41,0.13 0.49,0.48 0.17,0.77l-3.61,3.35c-0.32,0.29 -0.47,0.2 -0.33,-0.21l0.87,-2.69c0.13,-0.42 -0.09,-0.86 -0.51,-0.99l-0.31,-0.1c-0.41,-0.13 -0.49,-0.48 -0.17,-0.77z" fill="#eeeeee" fill-rule="nonzero" stroke="#eeeeee" stroke-width="0.65" stroke-linecap="butt" stroke-linejoin="miter"/><path d="M191.855,200.155l-0.95,-2.39l5.74,-2.29l0.95,2.39zM255.835,159.085l-0.04,3.17l-0.94,-0.33l-0.55,-1.77l-1.56,1.03l-3.15,-1.11l1.97,-2.49z" fill="#ffffff" fill-rule="nonzero" stroke="#ffffff" stroke-width="1.25" stroke-linecap="butt" stroke-linejoin="round"/><path d="M194.725,199.015l1.55,3.88M255.115,154.335l-1.41,3.99" fill="none" fill-rule="nonzero" stroke="#ffffff" stroke-width="1.25" stroke-linecap="round" stroke-linejoin="miter"/><path d="M253.445,166.095c0.03,-0.02 0.09,-0.01 0.09,0.03l0.27,1.13c0,0 0.67,0.49 0.87,0.84c0.34,0.58 0.35,1.05 0.35,1.05c0,0 0.75,0.22 0.87,0.82c0.13,0.6 -0.34,1.73 -2.31,2.13c-1.98,0.39 -3.57,-0.15 -4.31,-1.35c-0.75,-1.2 0.43,-2.63 0.37,-2.55l-0.22,-1.89c-0.01,-0.04 0.04,-0.07 0.09,-0.05l1.27,0.83c0,0 0.47,-0.18 0.97,-0.2c0.29,-0.02 0.55,0 0.79,0.04z" fill="#eeeeee" fill-rule="nonzero" stroke="#eeeeee" stroke-width="0.65" stroke-linecap="butt" stroke-linejoin="miter"/><path d="M256.945,169.305c-0.49,0.4 -1.25,0.41 -1.25,0.41M256.805,170.485c-0.66,0.05 -1.07,-0.15 -1.07,-0.15M248.495,169.275c0,0 0.91,0.29 1.27,0.62M249.795,170.265c-0.45,0.18 -1.23,0.06 -1.23,0.06" fill="none" fill-rule="nonzero" stroke="#eeeeee" stroke-width="0.65" stroke-linecap="round" stroke-linejoin="miter"/><text transform="translate(196.51457,208.46654) scale(0.11803,0.11803)" font-size="40" xml:space="preserve" fill="#cccccc" fill-rule="nonzero" stroke="none" stroke-width="1" stroke-linecap="butt" stroke-linejoin="miter" font-family="Sans Serif" font-weight="400" text-anchor="start"><tspan x="0" dy="0">Lv.5</tspan></text><path d="M192.39673,206.48984c0.35371,-0.09488 0.62995,-0.37113 0.72483,-0.72484l0.2162,-0.80411c0.10269,-0.38013 0.64197,-0.38013 0.74406,0l0.21679,0.80411c0.09488,0.35371 0.37113,0.62996 0.72423,0.72484l0.80411,0.21619c0.38013,0.10269 0.38013,0.64196 0,0.74465l-0.80411,0.2162c-0.35311,0.09488 -0.62935,0.37113 -0.72423,0.72423l-0.21679,0.80411c-0.10209,0.38013 -0.64137,0.38013 -0.74406,0l-0.2162,-0.80411c-0.09488,-0.35311 -0.37112,-0.62935 -0.72483,-0.72423l-0.80411,-0.2162c-0.38013,-0.10269 -0.38013,-0.64196 0,-0.74465z" fill="#cccccc" fill-rule="evenodd" stroke="none" stroke-width="1" stroke-linecap="butt" stroke-linejoin="miter"/></g></g></svg>