<svg version="1.1" xmlns="http://www.w3.org/2000/svg" xmlns:xlink="http://www.w3.org/1999/xlink" width="56" height="38" viewBox="0,0,56,38"><g transform="translate(-212,-161)"><g stroke-miterlimit="10"><path d="M213,198v-36h54v36z" fill="#88b570" fill-rule="nonzero" stroke="#666666" stroke-width="2" stroke-linecap="butt" stroke-linejoin="round"/><path d="M214,197.03315v-2h52v2z" fill="#cccccc" fill-rule="nonzero" stroke="none" stroke-width="0" stroke-linecap="butt" stroke-linejoin="miter"/><g fill-rule="evenodd" stroke-width="0.25"><path d="M230.23588,169.28461c0.06441,-0.04294 0.17176,-0.02147 0.19323,0.06441l0.55823,2.29734c0,0 1.37411,1.00911 1.78205,1.71764c0.68706,1.18088 0.70853,2.14705 0.70853,2.14705c0,0 1.5244,0.45088 1.78205,1.6747c0.25765,1.22382 -0.68706,3.54263 -4.7235,4.33704c-4.03645,0.79441 -7.27849,-0.30059 -8.80289,-2.74822c-1.5244,-2.44763 0.88029,-5.36762 0.75147,-5.19585l-0.45088,-3.84321c-0.02147,-0.08588 0.08588,-0.15029 0.17176,-0.10735l2.59793,1.69617c0,0 0.96617,-0.365 1.97528,-0.40794c0.60117,-0.04294 1.11646,0 1.61029,0.08588z" fill="#ffab19" stroke="#001026" stroke-linecap="butt" stroke-linejoin="miter"/><path d="M233.41351,175.59693c0,0 1.48146,0.38647 1.73911,1.61029c0.25765,1.22382 -0.77294,3.43528 -4.76644,4.20821c-5.19585,1.07352 -7.66496,-2.01822 -6.22644,-4.29409c1.43852,-2.29734 3.90763,-0.34353 5.71115,-0.47235c1.54587,-0.10735 1.71764,-1.45999 3.54263,-1.05205z" fill="#ffffff" stroke="none" stroke-linecap="butt" stroke-linejoin="miter"/><path d="M226.65031,177.89428c0,-0.08588 0.08588,-0.15029 0.17176,-0.12882c0.40794,0.15029 1.56734,0.49382 2.85557,0.5797c1.15941,0.06441 1.84646,0 2.16852,-0.06441c0.10735,-0.02147 0.19323,0.08588 0.15029,0.19323c-0.19323,0.5797 -1.00911,2.18999 -3.26351,2.06117c-1.95381,-0.2147 -2.14705,-1.58881 -2.08264,-2.64087z" fill="#ffffff" stroke="#001026" stroke-linecap="round" stroke-linejoin="round"/><path d="M237.36408,175.83312c-1.00911,0.81588 -2.55499,0.83735 -2.55499,0.83735" fill="none" stroke="#001026" stroke-linecap="round" stroke-linejoin="round"/><path d="M237.08496,178.23779c-1.35264,0.10735 -2.18999,-0.30059 -2.18999,-0.30059" fill="none" stroke="#001026" stroke-linecap="round" stroke-linejoin="round"/><path d="M229.785,176.09076c0.45088,0 0.92323,0.04294 0.9447,0.19323c0.02147,0.30059 -0.30059,0.90176 -0.64411,0.92323c-0.38647,0.04294 -1.28823,-0.49382 -1.28823,-0.83735c-0.02147,-0.25765 0.55823,-0.27912 0.98764,-0.27912z" fill="#001026" stroke="#001026" stroke-linecap="round" stroke-linejoin="round"/><path d="M220.12329,175.76869c0,0 1.84646,0.60117 2.59793,1.26676" fill="none" stroke="#001026" stroke-linecap="round" stroke-linejoin="round"/><path d="M222.78563,177.78693c-0.92323,0.365 -2.51205,0.12882 -2.51205,0.12882" fill="none" stroke="#001026" stroke-linecap="round" stroke-linejoin="round"/><g><path d="M232.31852,173.57872c0.62264,0.96617 0.64411,2.06117 0.04294,2.44763c-0.60117,0.38647 -1.58881,-0.06441 -2.23293,-1.03058c-0.62264,-0.96617 -0.64411,-2.06117 -0.04294,-2.44763c0.60117,-0.40794 1.61029,0.06441 2.23293,1.03058z" fill="#ffffff" stroke="#001026" stroke-linecap="round" stroke-linejoin="round"/><path d="M232.23264,174.80252c0,0.23618 -0.17176,0.42941 -0.38647,0.42941c-0.2147,0 -0.38647,-0.19323 -0.38647,-0.42941c0,-0.23618 0.17176,-0.42941 0.38647,-0.42941c0.2147,0 0.38647,0.19323 0.38647,0.42941" fill="#001026" stroke="none" stroke-linecap="butt" stroke-linejoin="miter"/></g><g><path d="M226.99384,174.17987c0.64411,0.9447 0.60117,2.10411 0.02147,2.51205c-0.70853,0.40794 -1.65323,0.10735 -2.29734,-0.83735c-0.66558,-0.9447 -0.70853,-2.16852 -0.04294,-2.64087c0.66558,-0.49382 1.6747,0.02147 2.31881,0.96617z" fill="#ffffff" stroke="#001026" stroke-linecap="round" stroke-linejoin="round"/><path d="M226.86502,175.42518c0,0.23618 -0.17176,0.42941 -0.38647,0.42941c-0.2147,0 -0.38647,-0.19323 -0.38647,-0.42941c0,-0.23618 0.17176,-0.42941 0.38647,-0.42941c0.2147,0.02147 0.38647,0.19323 0.38647,0.42941" fill="#001026" stroke="none" stroke-linecap="butt" stroke-linejoin="miter"/></g></g><path d="M237.4139,181.32882v13.70433h-23.41389v-13.70433z" fill="#b98054" fill-rule="nonzero" stroke="none" stroke-width="0" stroke-linecap="butt" stroke-linejoin="miter"/><path d="M215.07945,174.80808c1.3983,0.09287 2.36527,2.70182 2.36527,2.70182c0,0 0.48576,-2.80711 1.87604,-3.16198" fill="none" fill-rule="nonzero" stroke="#3f7934" stroke-width="1" stroke-linecap="round" stroke-linejoin="miter"/><path d="M217.22446,177.86289l-0.10369,-4.60665" fill="none" fill-rule="nonzero" stroke="#3f7934" stroke-width="1" stroke-linecap="round" stroke-linejoin="miter"/><path d="M216.952,169.6148c0.28049,-0.08392 0.55396,0.14606 0.7784,0.5069c0.1154,-0.27917 0.4309,-0.37262 1.22742,-0.03341c1.42558,0.60711 -0.34406,3.36545 -1.73353,3.48333c-1.87178,0.15879 -3.00642,-2.24117 -2.20875,-3.11536c0.05631,-0.25043 0.2398,-0.46543 0.50178,-0.54993c0.32793,-0.10577 0.67554,0.02626 0.85636,0.30058c0.07539,-0.27876 0.25491,-0.49534 0.57833,-0.59211z" fill="#e88742" fill-rule="nonzero" stroke="none" stroke-width="0.5" stroke-linecap="butt" stroke-linejoin="miter"/><path d="M219.64676,176.09315c0.01266,0.33227 -0.02753,0.63591 -0.50352,0.88598c0.28111,0.50243 0.4459,1.11291 0.4459,1.77121c0,1.71569 -1.11929,2.57849 -2.5,2.57849c-1.38071,0 -2.5,-0.86281 -2.5,-2.57849c0,-0.47105 0.28972,-1.29896 0.44071,-1.69897c-0.25501,-0.1902 -0.35415,-0.46923 -0.35415,-0.92801c0,-0.69036 4.94173,-0.79968 4.97107,-0.0302z" fill="#e8cd90" fill-rule="nonzero" stroke="none" stroke-width="0.5" stroke-linecap="butt" stroke-linejoin="miter"/><path d="M247.6224,194.0206v-28.23434h17.39741v28.23434z" fill="#a6a6a6" fill-rule="nonzero" stroke="#808080" stroke-width="2" stroke-linecap="butt" stroke-linejoin="miter"/><path d="M250.15843,180.77241l1.19823,2.11116l0.76077,-2.37743" fill="none" fill-rule="nonzero" stroke="#3f7934" stroke-width="1" stroke-linecap="round" stroke-linejoin="miter"/><path d="M250.67449,178.67076c0,-0.41422 0.33578,-0.75 0.75,-0.75c0.26808,0 0.5033,0.14064 0.63591,0.35217c0.13753,-0.16851 0.34687,-0.27609 0.58133,-0.27609c0.41422,0 0.75,0.33578 0.75,0.75c0,0.05408 -0.00572,0.10681 -0.0166,0.15764c0.30693,0.09398 0.53012,0.37955 0.53012,0.71725c0,0.41422 -0.33578,0.75 -0.75,0.75c-0.09067,0 -0.17758,-0.01609 -0.25804,-0.04557c-0.00038,0.41388 -0.33603,0.74929 -0.75,0.74929c-0.33187,0 -0.61339,-0.21555 -0.71221,-0.51429c-0.075,0.02517 -0.15529,0.0388 -0.23876,0.0388c-0.41422,0 -0.75,-0.33578 -0.75,-0.75c0,-0.29695 0.17258,-0.5536 0.42291,-0.67511c-0.12096,-0.13317 -0.19467,-0.31002 -0.19467,-0.5041z" fill="#d84141" fill-rule="nonzero" stroke="none" stroke-width="0.5" stroke-linecap="butt" stroke-linejoin="miter"/><path d="M251.39723,179.50761c0,-0.41422 0.33578,-0.75 0.75,-0.75c0.41422,0 0.75,0.33578 0.75,0.75c0,0.41422 -0.33578,0.75 -0.75,0.75c-0.41422,0 -0.75,-0.33578 -0.75,-0.75z" fill="#ffc159" fill-rule="nonzero" stroke="none" stroke-width="0.5" stroke-linecap="butt" stroke-linejoin="miter"/><path d="M254.05741,180.90554l-1.10313,2.43449" fill="none" fill-rule="nonzero" stroke="#3f7934" stroke-width="1" stroke-linecap="round" stroke-linejoin="miter"/><path d="M248.65716,179.67879c0,-0.41422 0.33578,-0.75 0.75,-0.75c0.26808,0 0.50331,0.14065 0.63592,0.35217c0.13753,-0.16851 0.34687,-0.27609 0.58133,-0.27609c0.41422,0 0.75,0.33578 0.75,0.75c0,0.05408 -0.00572,0.10682 -0.01659,0.15765c0.30693,0.09398 0.53012,0.37954 0.53012,0.71725c0,0.41422 -0.33578,0.75 -0.75,0.75c-0.09067,0 -0.17757,-0.01608 -0.25803,-0.04556c-0.00038,0.41388 -0.33603,0.74928 -0.75,0.74928c-0.33187,0 -0.61339,-0.21555 -0.71221,-0.51429c-0.075,0.02517 -0.15529,0.0388 -0.23876,0.0388c-0.41422,0 -0.75,-0.33578 -0.75,-0.75c0,-0.29695 0.17258,-0.5536 0.42291,-0.67511c-0.12096,-0.13317 -0.19468,-0.31002 -0.19468,-0.5041z" fill="#ff4d4d" fill-rule="nonzero" stroke="none" stroke-width="0.5" stroke-linecap="butt" stroke-linejoin="miter"/><path d="M253.18252,179.48859c0,-0.41422 0.33578,-0.75 0.75,-0.75c0.26808,0 0.5033,0.14065 0.63591,0.35217c0.13753,-0.16851 0.34687,-0.27609 0.58133,-0.27609c0.41422,0 0.75,0.33578 0.75,0.75c0,0.05408 -0.00572,0.10681 -0.0166,0.15764c0.30693,0.09398 0.53012,0.37955 0.53012,0.71725c0,0.41422 -0.33578,0.75 -0.75,0.75c-0.09067,0 -0.17758,-0.01609 -0.25804,-0.04557c-0.00038,0.41388 -0.33603,0.74929 -0.75,0.74929c-0.33187,0 -0.61339,-0.21555 -0.71221,-0.51429c-0.075,0.02517 -0.15528,0.03881 -0.23876,0.03881c-0.41422,0 -0.75,-0.33578 -0.75,-0.75c0,-0.29695 0.17257,-0.5536 0.4229,-0.67511c-0.12096,-0.13317 -0.19467,-0.31003 -0.19467,-0.5041z" fill="#ff4d4d" fill-rule="nonzero" stroke="none" stroke-width="0.5" stroke-linecap="butt" stroke-linejoin="miter"/><path d="M249.3799,180.51564c0,-0.41422 0.33578,-0.75 0.75,-0.75c0.41422,0 0.75,0.33578 0.75,0.75c0,0.41422 -0.33578,0.75 -0.75,0.75c-0.41422,0 -0.75,-0.33578 -0.75,-0.75z" fill="#ffc159" fill-rule="nonzero" stroke="none" stroke-width="0.5" stroke-linecap="butt" stroke-linejoin="miter"/><path d="M253.90526,180.32545c0,-0.41422 0.33578,-0.75 0.75,-0.75c0.41422,0 0.75,0.33578 0.75,0.75c0,0.41422 -0.33578,0.75 -0.75,0.75c-0.41422,0 -0.75,-0.33578 -0.75,-0.75z" fill="#ffc159" fill-rule="nonzero" stroke="none" stroke-width="0.5" stroke-linecap="butt" stroke-linejoin="miter"/><path d="M257.9099,180.71958l1.84489,3.06213l3.08115,-2.16822" fill="none" fill-rule="nonzero" stroke="#3f7934" stroke-width="1" stroke-linecap="round" stroke-linejoin="miter"/><path d="M261.71379,180.6435l-1.14117,2.43449l-0.91294,-2.28234" fill="none" fill-rule="nonzero" stroke="#3f7934" stroke-width="1" stroke-linecap="round" stroke-linejoin="miter"/><path d="M258.25648,170.83792l0.77979,1.92096l3.27134,-1.69273" fill="none" fill-rule="nonzero" stroke="#3f7934" stroke-width="1" stroke-linecap="round" stroke-linejoin="miter"/><path d="M259.53078,170.51459l1.10313,2.45351l0.45646,-2.28234" fill="none" fill-rule="nonzero" stroke="#3f7934" stroke-width="1" stroke-linecap="round" stroke-linejoin="miter"/><path d="M250.19224,170.85694l1.52155,2.0541l3.13821,-2.58665" fill="none" fill-rule="nonzero" stroke="#3f7934" stroke-width="1" stroke-linecap="round" stroke-linejoin="miter"/><path d="M253.93907,169.24029l-0.7798,3.59467l-1.44548,-2.54861" fill="none" fill-rule="nonzero" stroke="#3f7934" stroke-width="1" stroke-linecap="round" stroke-linejoin="miter"/><path d="M254.01515,168.23226l-0.0951,1.23626" fill="none" fill-rule="nonzero" stroke="#4f58b8" stroke-width="1.25" stroke-linecap="round" stroke-linejoin="miter"/><path d="M255.80297,169.52558l-1.06509,0.8749" fill="none" fill-rule="nonzero" stroke="#4f58b8" stroke-width="1.25" stroke-linecap="round" stroke-linejoin="miter"/><path d="M251.08615,169.41146l0.8749,1.14117" fill="none" fill-rule="nonzero" stroke="#4f58b8" stroke-width="1.25" stroke-linecap="round" stroke-linejoin="miter"/><path d="M249.20323,170.09616l1.12214,0.83686" fill="none" fill-rule="nonzero" stroke="#4f58b8" stroke-width="1.25" stroke-linecap="round" stroke-linejoin="miter"/><path d="M258.66548,170.81351c-0.41364,0.41365 -2.33326,-0.11275 -1.89962,-0.98003c-0.00076,-0.01379 -0.00113,-0.02767 -0.00113,-0.04164c0,-0.41422 0.33578,-0.75 0.75,-0.75c0.31095,0 0.5777,0.18924 0.69138,0.45883c0.53183,0.28611 0.81846,0.95376 0.45938,1.31284z" fill="#8246a3" fill-rule="nonzero" stroke="none" stroke-width="0.5" stroke-linecap="butt" stroke-linejoin="miter"/><path d="M259.8565,169.29898c0.20286,0.23539 0.23375,0.56072 0.10404,0.82274c0.0299,1.01509 -0.51387,0.83526 -0.97974,0.3511c-0.09713,-0.04359 -0.18648,-0.10864 -0.26057,-0.19462c-0.09973,-0.11572 -0.15789,-0.25319 -0.17585,-0.39417c-0.33162,-0.59236 -0.35022,-1.17375 0.61038,-0.83356c0.25262,-0.04548 0.52205,0.03999 0.70174,0.24851z" fill="#8246a3" fill-rule="nonzero" stroke="none" stroke-width="0.5" stroke-linecap="butt" stroke-linejoin="miter"/><path d="M260.47351,170.24831c-0.00337,-0.03197 -0.01961,-0.32539 0.00202,-0.56902c0.00091,-0.01251 0.00214,-0.02493 0.00366,-0.03726c0.04569,-0.37045 0.36151,-0.65725 0.74432,-0.65725c0.41421,0 0.75,0.33579 0.75,0.75c0,0.08335 -0.0136,0.16353 -0.03869,0.23843c-0.06638,0.75768 -1.35855,1.24898 -1.46131,0.2751z" fill="#8246a3" fill-rule="nonzero" stroke="none" stroke-width="0.5" stroke-linecap="butt" stroke-linejoin="miter"/><path d="M263.33467,169.72655c0.35855,0 0.65834,0.2516 0.73243,0.58788c0.97316,1.37616 -4.4912,1.62591 -1.35549,-0.25552c0.13463,-0.20045 0.36344,-0.33236 0.62305,-0.33236z" fill="#8246a3" fill-rule="nonzero" stroke="none" stroke-width="0.5" stroke-linecap="butt" stroke-linejoin="miter"/><path d="M256.78374,180.50613c0,-0.29825 0.17409,-0.55583 0.42619,-0.67669c1.87704,-2.63812 1.1699,3.46983 -0.05684,1.32305c-0.22106,-0.13046 -0.36935,-0.37109 -0.36935,-0.64636z" fill="#b5cea7" fill-rule="nonzero" stroke="none" stroke-width="0.5" stroke-linecap="butt" stroke-linejoin="miter"/><path d="M259.58972,180.97084c-0.20227,-0.02254 -0.86116,-0.19838 -0.87866,-0.51334c-0.07621,-0.11739 -0.12047,-0.25744 -0.12047,-0.40783c0,-0.41421 0.33579,-0.75 0.75,-0.75c0.1347,0 0.26111,0.03551 0.37037,0.09768c0.87494,0.02094 0.95836,1.69382 -0.12124,1.5735z" fill="#b5cea7" fill-rule="nonzero" stroke="none" stroke-width="0.5" stroke-linecap="butt" stroke-linejoin="miter"/><path d="M261.07043,180.32619c0.01469,-0.18885 -0.04715,-1.02772 0.32212,-1.07924c0.12679,-0.09811 0.28587,-0.1565 0.4586,-0.1565c0.41421,0 0.75,0.33579 0.75,0.75c0,0.0606 -0.00719,0.11953 -0.02076,0.17597c0.37858,1.0874 -1.58558,1.28183 -1.50996,0.30978z" fill="#b5cea7" fill-rule="nonzero" stroke="none" stroke-width="0.5" stroke-linecap="butt" stroke-linejoin="miter"/><path d="M262.82845,180.47763c0.03538,-0.02251 0.07047,-0.04252 0.10522,-0.06015c0.13436,-0.12701 0.31564,-0.20488 0.51512,-0.20488c0.41421,0 0.75,0.33579 0.75,0.75c0,0.04532 -0.00402,0.08971 -0.01172,0.13282c0.06814,0.31144 0.00804,0.65488 -0.23337,0.90678c-0.95854,1.00022 -1.91143,-0.62544 -1.13404,-1.48057z" fill="#b5cea7" fill-rule="nonzero" stroke="none" stroke-width="0.5" stroke-linecap="butt" stroke-linejoin="miter"/><path d="M255.18201,171.71586c0.01484,0.22931 -0.03224,0.43887 -0.58974,0.61146c0.32925,0.34676 0.52226,0.76806 0.52226,1.22239c0,1.18408 -1.31097,1.77954 -2.92812,1.77954c-1.61715,0 -2.92812,-0.59546 -2.92812,-1.77954c0,-0.32509 0.33933,-0.89648 0.51617,-1.17254c-0.29868,-0.13127 -0.4148,-0.32384 -0.4148,-0.64046c0,-0.47645 5.78799,-0.5519 5.82235,-0.02085z" fill="#e8cd90" fill-rule="nonzero" stroke="none" stroke-width="0.5" stroke-linecap="butt" stroke-linejoin="miter"/><path d="M263.28255,171.73671c0,0.31662 -0.11613,0.50919 -0.4148,0.64046c0.17685,0.27606 0.51617,0.84745 0.51617,1.17254c0,1.18408 -1.31096,1.77954 -2.92812,1.77954c-1.61716,0 -2.92812,-0.59546 -2.92812,-1.77954c0,-0.45433 0.193,-0.87563 0.52225,-1.22239c-0.5575,-0.17258 -0.60458,-0.38215 -0.58974,-0.61146c0.03436,-0.53106 5.82236,-0.4556 5.82236,0.02085z" fill="#e8cd90" fill-rule="nonzero" stroke="none" stroke-width="0.5" stroke-linecap="butt" stroke-linejoin="miter"/><path d="M255.18201,182.21459c0.01484,0.22931 -0.03224,0.43887 -0.58974,0.61146c0.32925,0.34676 0.52226,0.76807 0.52226,1.22239c0,1.18408 -1.31097,1.77953 -2.92812,1.77953c-1.61715,0 -2.92812,-0.59546 -2.92812,-1.77953c0,-0.32509 0.33933,-0.89648 0.51617,-1.17254c-0.29868,-0.13127 -0.4148,-0.32384 -0.4148,-0.64046c0,-0.47645 5.78799,-0.5519 5.82235,-0.02085z" fill="#e8cd90" fill-rule="nonzero" stroke="none" stroke-width="0.5" stroke-linecap="butt" stroke-linejoin="miter"/><path d="M263.28255,182.23544c0,0.31662 -0.11613,0.50919 -0.4148,0.64046c0.17685,0.27606 0.51617,0.84745 0.51617,1.17254c0,1.18408 -1.31096,1.77953 -2.92812,1.77953c-1.61716,0 -2.92812,-0.59546 -2.92812,-1.77953c0,-0.45433 0.193,-0.87564 0.52225,-1.22239c-0.5575,-0.17258 -0.60458,-0.38215 -0.58974,-0.61146c0.03436,-0.53106 5.82236,-0.4556 5.82236,0.02085z" fill="#e8cd90" fill-rule="nonzero" stroke="none" stroke-width="0.5" stroke-linecap="butt" stroke-linejoin="miter"/><path d="M247.6224,176.06434h17.39741" fill="none" fill-rule="nonzero" stroke="#808080" stroke-width="2" stroke-linecap="round" stroke-linejoin="miter"/><path d="M247.6224,194.0206v-7.67819h17.39741v7.67819z" fill="#bfbfbf" fill-rule="nonzero" stroke="#808080" stroke-width="2" stroke-linecap="butt" stroke-linejoin="miter"/></g></g></svg>