<svg version="1.1" xmlns="http://www.w3.org/2000/svg" xmlns:xlink="http://www.w3.org/1999/xlink" width="108.5" height="61.5" viewBox="0,0,108.5,61.5"><defs><linearGradient x1="217.90502" y1="170.805" x2="217.90502" y2="186.075" gradientUnits="userSpaceOnUse" id="color-1"><stop offset="0" stop-color="#666666" stop-opacity="0"/><stop offset="1" stop-color="#666666"/></linearGradient></defs><g transform="translate(-185.905,-149.125)"><g stroke-miterlimit="10"><path d="M290.655,152.875v54h-101v-54z" fill="#333333" stroke="#333333" stroke-width="7.5" stroke-linecap="butt" stroke-linejoin="round"/><g stroke="#666666" stroke-width="2"><path d="M190.90502,190.435v-36h54v36z" fill="#b89c6d" stroke-linecap="butt" stroke-linejoin="round"/><path d="M209.47874,187.15955v-20.53875h16.85252v20.53875z" fill="#a0a0a0" stroke-linecap="butt" stroke-linejoin="round"/><path d="M217.90502,166.6208v20.53875" fill="none" stroke-linecap="round" stroke-linejoin="miter"/><path d="M226.33127,159.38883v3.50158h-16.85252v-3.50158z" fill="#303030" stroke-linecap="butt" stroke-linejoin="round"/><path d="M206.10321,172.60526v6.18372" fill="none" stroke-linecap="round" stroke-linejoin="miter"/></g><path d="M190.90502,190.435v-19.62h54v19.62z" fill="url(#color-1)" stroke="none" stroke-width="1" stroke-linecap="butt" stroke-linejoin="miter"/><text transform="translate(201.26501,201.895) scale(0.23,0.23)" font-size="40" xml:space="preserve" fill="#ffffff" stroke="none" stroke-width="1" stroke-linecap="butt" stroke-linejoin="miter" font-family="Sans Serif" font-weight="400" text-anchor="start"><tspan x="0" dy="0">5,000G</tspan></text><text transform="translate(259.72502,161.015) scale(0.23,0.23)" font-size="40" xml:space="preserve" fill="#eeeeee" stroke="none" stroke-width="1" stroke-linecap="butt" stroke-linejoin="miter" font-family="Sans Serif" font-weight="400" text-anchor="start"><tspan x="0" dy="0">250G</tspan></text><text transform="translate(259.72502,193.565) scale(0.23,0.23)" font-size="40" xml:space="preserve" fill="#eeeeee" stroke="none" stroke-width="1" stroke-linecap="butt" stroke-linejoin="miter" font-family="Sans Serif" font-weight="400" text-anchor="start"><tspan x="0" dy="0">-2</tspan></text><text transform="translate(191.90502,186.975) scale(0.21,0.21)" font-size="40" xml:space="preserve" fill="#ffffff" stroke="none" stroke-width="1" stroke-linecap="butt" stroke-linejoin="miter" font-family="Sans Serif" font-weight="400" text-anchor="start"><tspan x="0" dy="0">エレベーター</tspan></text><path d="M254.29501,186.785c0.32,-0.29 0.47,-0.2 0.33,0.21l-0.87,2.69c-0.13,0.42 0.09,0.86 0.51,0.99l0.32,0.1c0.41,0.13 0.49,0.48 0.17,0.77l-3.61,3.35c-0.32,0.29 -0.47,0.2 -0.33,-0.21l0.87,-2.69c0.13,-0.42 -0.09,-0.86 -0.51,-0.99l-0.31,-0.1c-0.41,-0.13 -0.49,-0.48 -0.17,-0.77z" fill="#eeeeee" stroke="#eeeeee" stroke-width="0.65" stroke-linecap="butt" stroke-linejoin="miter"/><path d="M191.85501,200.155l-0.95,-2.39l5.74,-2.29l0.95,2.39zM255.83502,159.085l-0.04,3.17l-0.94,-0.33l-0.55,-1.77l-1.56,1.03l-3.15,-1.11l1.97,-2.49z" fill="#ffffff" stroke="#ffffff" stroke-width="1.25" stroke-linecap="butt" stroke-linejoin="round"/><path d="M194.72502,199.015l1.55,3.88M255.11502,154.335l-1.41,3.99" fill="none" stroke="#ffffff" stroke-width="1.25" stroke-linecap="round" stroke-linejoin="miter"/></g></g></svg>