<svg version="1.1" xmlns="http://www.w3.org/2000/svg" xmlns:xlink="http://www.w3.org/1999/xlink" width="56" height="38" viewBox="0,0,56,38"><g transform="translate(-212,-161)"><g data-paper-data="{&quot;isPaintingLayer&quot;:true}" stroke-miterlimit="10" stroke-dasharray="" stroke-dashoffset="0" style="mix-blend-mode: normal"><path d="M213,198v-36h54v36z" fill="#dbc78b" fill-rule="nonzero" stroke="#666666" stroke-width="2" stroke-linecap="butt" stroke-linejoin="round"/><path d="M249.36701,194.03318v-30.06317h15.6786v30.06318z" fill="#ba8f54" fill-rule="nonzero" stroke="#8e6d40" stroke-width="2" stroke-linecap="butt" stroke-linejoin="miter"/><path d="M251.41359,168.59602v4.27378" fill="none" fill-rule="nonzero" stroke="#517d67" stroke-width="2" stroke-linecap="butt" stroke-linejoin="miter"/><path d="M253.45201,167.69292v5.17688" fill="none" fill-rule="nonzero" stroke="#5f7d51" stroke-width="2" stroke-linecap="butt" stroke-linejoin="miter"/><path d="M255.51623,167.66712v5.20268" fill="none" fill-rule="nonzero" stroke="#7d5170" stroke-width="2" stroke-linecap="butt" stroke-linejoin="miter"/><path d="M260.8574,168.59602v4.27378" fill="none" fill-rule="nonzero" stroke="#7d5451" stroke-width="2" stroke-linecap="butt" stroke-linejoin="miter"/><path d="M262.94742,168.59602v4.27378" fill="none" fill-rule="nonzero" stroke="#51587d" stroke-width="2" stroke-linecap="butt" stroke-linejoin="miter"/><path d="M256.92248,177.07541l-2.2232,5.53955" fill="none" fill-rule="nonzero" stroke="#76b099" stroke-width="2" stroke-linecap="butt" stroke-linejoin="miter"/><path d="M259.16759,175.44878l-1.16166,7.4086" fill="none" fill-rule="nonzero" stroke="#767bb0" stroke-width="2" stroke-linecap="butt" stroke-linejoin="miter"/><path d="M260.93481,176.95803v6.02837" fill="none" fill-rule="nonzero" stroke="#49abd1" stroke-width="2" stroke-linecap="butt" stroke-linejoin="miter"/><path d="M262.92162,175.48728v7.49912" fill="none" fill-rule="nonzero" stroke="#d1b01d" stroke-width="2" stroke-linecap="butt" stroke-linejoin="miter"/><path d="M251.74903,185.53406v7.49912" fill="none" fill-rule="nonzero" stroke="#d14a4a" stroke-width="2" stroke-linecap="butt" stroke-linejoin="miter"/><path d="M253.69845,185.52913l1.21012,7.40085" fill="none" fill-rule="nonzero" stroke="#9cc360" stroke-width="2" stroke-linecap="butt" stroke-linejoin="miter"/><path d="M255.9497,186.98858l0.97148,5.9414" fill="none" fill-rule="nonzero" stroke="#5fc2ae" stroke-width="2" stroke-linecap="butt" stroke-linejoin="miter"/><path d="M263.02484,186.07592v6.95726" fill="none" fill-rule="nonzero" stroke="#83dfa0" stroke-width="2" stroke-linecap="butt" stroke-linejoin="miter"/><path d="M249.36701,173.8698h15.6786" fill="none" fill-rule="nonzero" stroke="#8e6d40" stroke-width="2" stroke-linecap="butt" stroke-linejoin="miter"/><path d="M249.36701,183.9864h15.6786" fill="none" fill-rule="nonzero" stroke="#8e6d40" stroke-width="2" stroke-linecap="butt" stroke-linejoin="miter"/><path d="M214,197.03318v-2h52v2z" fill="#cccccc" fill-rule="nonzero" stroke="none" stroke-width="0" stroke-linecap="butt" stroke-linejoin="miter"/><g fill-rule="evenodd" stroke-width="0.25"><path d="M228.03604,169.28461c0.06441,-0.04294 0.17176,-0.02147 0.19323,0.06441l0.55823,2.29734c0,0 1.37411,1.00911 1.78205,1.71764c0.68706,1.18088 0.70853,2.14705 0.70853,2.14705c0,0 1.5244,0.45088 1.78205,1.6747c0.25765,1.22382 -0.68706,3.54263 -4.7235,4.33704c-4.03645,0.79441 -7.27849,-0.30059 -8.80289,-2.74822c-1.5244,-2.44763 0.88029,-5.36762 0.75147,-5.19585l-0.45088,-3.84321c-0.02147,-0.08588 0.08588,-0.15029 0.17176,-0.10735l2.59793,1.69617c0,0 0.96617,-0.365 1.97528,-0.40794c0.60117,-0.04294 1.11646,0 1.61029,0.08588z" fill="#ffab19" stroke="#001026" stroke-linecap="butt" stroke-linejoin="miter"/><path d="M231.21367,175.59693c0,0 1.48146,0.38647 1.73911,1.61029c0.25765,1.22382 -0.77294,3.43528 -4.76644,4.20821c-5.19585,1.07352 -7.66496,-2.01822 -6.22644,-4.29409c1.43852,-2.29734 3.90763,-0.34353 5.71115,-0.47235c1.54587,-0.10735 1.71764,-1.45999 3.54263,-1.05205z" fill="#ffffff" stroke="none" stroke-linecap="butt" stroke-linejoin="miter"/><path d="M224.45047,177.89428c0,-0.08588 0.08588,-0.15029 0.17176,-0.12882c0.40794,0.15029 1.56734,0.49382 2.85557,0.5797c1.15941,0.06441 1.84646,0 2.16852,-0.06441c0.10735,-0.02147 0.19323,0.08588 0.15029,0.19323c-0.19323,0.5797 -1.00911,2.18999 -3.26351,2.06117c-1.95381,-0.2147 -2.14705,-1.58881 -2.08264,-2.64087z" fill="#ffffff" stroke="#001026" stroke-linecap="round" stroke-linejoin="round"/><path d="M235.16424,175.83312c-1.00911,0.81588 -2.55499,0.83735 -2.55499,0.83735" fill="none" stroke="#001026" stroke-linecap="round" stroke-linejoin="round"/><path d="M234.88512,178.23779c-1.35264,0.10735 -2.18999,-0.30059 -2.18999,-0.30059" fill="none" stroke="#001026" stroke-linecap="round" stroke-linejoin="round"/><path d="M227.58516,176.09076c0.45088,0 0.92323,0.04294 0.9447,0.19323c0.02147,0.30059 -0.30059,0.90176 -0.64411,0.92323c-0.38647,0.04294 -1.28823,-0.49382 -1.28823,-0.83735c-0.02147,-0.25765 0.55823,-0.27912 0.98764,-0.27912z" fill="#001026" stroke="#001026" stroke-linecap="round" stroke-linejoin="round"/><path d="M217.92345,175.76869c0,0 1.84646,0.60117 2.59793,1.26676" fill="none" stroke="#001026" stroke-linecap="round" stroke-linejoin="round"/><path d="M220.58579,177.78693c-0.92323,0.365 -2.51205,0.12882 -2.51205,0.12882" fill="none" stroke="#001026" stroke-linecap="round" stroke-linejoin="round"/><g><path d="M230.11868,173.57872c0.62264,0.96617 0.64411,2.06117 0.04294,2.44763c-0.60117,0.38647 -1.58881,-0.06441 -2.23293,-1.03058c-0.62264,-0.96617 -0.64411,-2.06117 -0.04294,-2.44763c0.60117,-0.40794 1.61029,0.06441 2.23293,1.03058z" fill="#ffffff" stroke="#001026" stroke-linecap="round" stroke-linejoin="round"/><path d="M230.0328,174.80252c0,0.23618 -0.17176,0.42941 -0.38647,0.42941c-0.2147,0 -0.38647,-0.19323 -0.38647,-0.42941c0,-0.23618 0.17176,-0.42941 0.38647,-0.42941c0.2147,0 0.38647,0.19323 0.38647,0.42941" fill="#001026" stroke="none" stroke-linecap="butt" stroke-linejoin="miter"/></g><g><path d="M224.794,174.17987c0.64411,0.9447 0.60117,2.10411 0.02147,2.51205c-0.70853,0.40794 -1.65323,0.10735 -2.29734,-0.83735c-0.66558,-0.9447 -0.70853,-2.16852 -0.04294,-2.64087c0.66558,-0.49382 1.6747,0.02147 2.31881,0.96617z" fill="#ffffff" stroke="#001026" stroke-linecap="round" stroke-linejoin="round"/><path d="M224.66518,175.42518c0,0.23618 -0.17176,0.42941 -0.38647,0.42941c-0.2147,0 -0.38647,-0.19323 -0.38647,-0.42941c0,-0.23618 0.17176,-0.42941 0.38647,-0.42941c0.2147,0.02147 0.38647,0.19323 0.38647,0.42941" fill="#001026" stroke="none" stroke-linecap="butt" stroke-linejoin="miter"/></g></g><path d="M240,181.32882v13.70433h-26v-13.70433z" fill="#b98054" fill-rule="nonzero" stroke="none" stroke-width="0" stroke-linecap="butt" stroke-linejoin="miter"/><path d="M215.52666,193.20584v-9.41447h9.97697v9.41447z" fill="#459141" fill-rule="nonzero" stroke="#936542" stroke-width="0.5" stroke-linecap="butt" stroke-linejoin="miter"/></g></g></svg>