<svg version="1.1" xmlns="http://www.w3.org/2000/svg" xmlns:xlink="http://www.w3.org/1999/xlink" width="108.5" height="61.5" viewBox="0,0,108.5,61.5"><defs><linearGradient x1="205.1025" y1="176.99972" x2="205.1025" y2="187.06743" gradientUnits="userSpaceOnUse" id="color-1"><stop offset="0" stop-color="#8494ac"/><stop offset="1" stop-color="#636f81"/></linearGradient><linearGradient x1="197.08" y1="163.32815" x2="213.125" y2="163.32815" gradientUnits="userSpaceOnUse" id="color-2"><stop offset="0" stop-color="#894b4b"/><stop offset="1" stop-color="#7d4b89"/></linearGradient><linearGradient x1="205.1025" y1="167.22461" x2="205.1025" y2="172.54663" gradientUnits="userSpaceOnUse" id="color-3"><stop offset="0" stop-color="#c22d82"/><stop offset="1" stop-color="#4f2dc2"/></linearGradient><linearGradient x1="230.7075" y1="176.99972" x2="230.7075" y2="187.06743" gradientUnits="userSpaceOnUse" id="color-4"><stop offset="0" stop-color="#62806e"/><stop offset="1" stop-color="#43574b"/></linearGradient><linearGradient x1="230.7075" y1="165.38565" x2="230.7075" y2="176.97065" gradientUnits="userSpaceOnUse" id="color-5"><stop offset="0" stop-color="#478dd1"/><stop offset="1" stop-color="#7aa2d1"/></linearGradient><linearGradient x1="230.7075" y1="161.36065" x2="230.7075" y2="165.38565" gradientUnits="userSpaceOnUse" id="color-6"><stop offset="0" stop-color="#768eb0"/><stop offset="1" stop-color="#76b08c"/></linearGradient><linearGradient x1="230.7075" y1="173.24376" x2="230.7075" y2="176.97065" gradientUnits="userSpaceOnUse" id="color-7"><stop offset="0" stop-color="#31a447"/><stop offset="1" stop-color="#91672b"/></linearGradient><linearGradient x1="217.905" y1="170.805" x2="217.905" y2="186.075" gradientUnits="userSpaceOnUse" id="color-8"><stop offset="0" stop-color="#666666" stop-opacity="0"/><stop offset="1" stop-color="#666666"/></linearGradient></defs><g transform="translate(-185.905,-149.125)"><g stroke-miterlimit="10"><path d="M290.655,152.875v54h-101v-54z" fill="#333333" fill-rule="nonzero" stroke="#333333" stroke-width="7.5" stroke-linecap="butt" stroke-linejoin="round"/><g fill-rule="nonzero"><path d="M190.905,190.435v-36h54v36z" fill="#66859c" stroke="#666666" stroke-width="2" stroke-linecap="butt" stroke-linejoin="round"/><path d="M198.98643,187.06742v-4.79458l-2.0907,-0.945v-4.32812h16.41354v4.32813l-2.0907,0.945v4.79458z" fill="url(#color-1)" stroke="#4d4d4d" stroke-width="1" stroke-linecap="butt" stroke-linejoin="miter"/><path d="M211.46607,165.38565v11.585h-12.72714v-11.585z" fill="#695699" stroke="#4d4d4d" stroke-width="1" stroke-linecap="butt" stroke-linejoin="miter"/><path d="M197.08,165.34065v-4.025h16.045v4.025z" fill="url(#color-2)" stroke="#4d4d4d" stroke-width="1" stroke-linecap="butt" stroke-linejoin="miter"/><path d="M199.005,163.22565h8.325" fill="none" stroke="#bdbdbd" stroke-width="1.5" stroke-linecap="round" stroke-linejoin="miter"/><path d="M209.355,163.22565h1.845" fill="none" stroke="#bdbdbd" stroke-width="1.5" stroke-linecap="round" stroke-linejoin="miter"/><path d="M209.49511,167.22461v5.32202h-5.52016v-0.92941h-3.26506v-4.39261z" fill="url(#color-3)" stroke="#000000" stroke-width="0.5" stroke-linecap="butt" stroke-linejoin="round"/><path d="M201.59221,175.74213h4.36337" fill="none" stroke="#ffffff" stroke-width="0.5" stroke-linecap="round" stroke-linejoin="miter"/><path d="M205.1025,174.06092c0,-0.12779 0.1036,-0.23139 0.23139,-0.23139c0.12779,0 0.23139,0.1036 0.23139,0.23139c0,0.12779 -0.1036,0.23139 -0.23139,0.23139c-0.12779,0 -0.23139,-0.1036 -0.23139,-0.23139z" fill="none" stroke="#ffffff" stroke-width="0.5" stroke-linecap="butt" stroke-linejoin="miter"/><path d="M224.59143,187.06743v-4.79458l-2.0907,-0.945v-4.32813h16.41354v4.32812l-2.0907,0.945v4.79458z" fill="url(#color-4)" stroke="#4d4d4d" stroke-width="1" stroke-linecap="butt" stroke-linejoin="miter"/><path d="M237.07107,165.38565v11.585h-12.72714v-11.585z" fill="url(#color-5)" stroke="#4d4d4d" stroke-width="1" stroke-linecap="butt" stroke-linejoin="miter"/><path d="M222.685,165.38565v-4.025h16.045v4.025z" fill="url(#color-6)" stroke="#4d4d4d" stroke-width="1" stroke-linecap="butt" stroke-linejoin="miter"/><path d="M237.07107,173.24376v3.72689h-12.72714v-3.72689z" fill="url(#color-7)" stroke="#4d4d4d" stroke-width="1" stroke-linecap="butt" stroke-linejoin="miter"/><path d="M233.04803,167.48982v5.55178h-4.68106v-5.55178z" fill="#cdbeb2" stroke="#4d4d4d" stroke-width="1" stroke-linecap="butt" stroke-linejoin="miter"/><path d="M227.46997,172.56307v-0.72581" fill="none" stroke="#ffab19" stroke-width="0.5" stroke-linecap="round" stroke-linejoin="miter"/><path d="M235.32942,167.64832v0.72581" fill="none" stroke="#ffab19" stroke-width="0.5" stroke-linecap="round" stroke-linejoin="miter"/><path d="M235.72343,167.19209h-0.82949" fill="none" stroke="#e61717" stroke-width="0.5" stroke-linecap="round" stroke-linejoin="miter"/><path d="M225.98129,163.37315h9.45242" fill="none" stroke="#bdbdbd" stroke-width="1.5" stroke-linecap="round" stroke-linejoin="miter"/></g><path d="M254.675,178.975l-1.96,2.07l-1.96,-2.07" fill="none" fill-rule="nonzero" stroke="#eeeeee" stroke-width="4" stroke-linecap="round" stroke-linejoin="miter"/><path d="M190.905,190.435v-19.62h54v19.62z" fill="url(#color-8)" fill-rule="nonzero" stroke="none" stroke-width="1" stroke-linecap="butt" stroke-linejoin="miter"/><text transform="translate(201.265,201.895) scale(0.23,0.23)" font-size="40" xml:space="preserve" fill="#ffffff" fill-rule="nonzero" stroke="none" stroke-width="1" stroke-linecap="butt" stroke-linejoin="miter" font-family="Sans Serif" font-weight="400" text-anchor="start"><tspan x="0" dy="0">90,000G</tspan></text><text transform="translate(259.725,161.015) scale(0.23,0.23)" font-size="40" xml:space="preserve" fill="#eeeeee" fill-rule="nonzero" stroke="none" stroke-width="1" stroke-linecap="butt" stroke-linejoin="miter" font-family="Sans Serif" font-weight="400" text-anchor="start"><tspan x="0" dy="0">4,500G</tspan></text><text transform="translate(259.725,171.865) scale(0.23,0.23)" font-size="40" xml:space="preserve" fill="#eeeeee" fill-rule="nonzero" stroke="none" stroke-width="1" stroke-linecap="butt" stroke-linejoin="miter" font-family="Sans Serif" font-weight="400" text-anchor="start"><tspan x="0" dy="0">400G</tspan></text><text transform="translate(259.725,182.715) scale(0.23,0.23)" font-size="40" xml:space="preserve" fill="#eeeeee" fill-rule="nonzero" stroke="none" stroke-width="1" stroke-linecap="butt" stroke-linejoin="miter" font-family="Sans Serif" font-weight="400" text-anchor="start"><tspan x="0" dy="0">7%</tspan></text><text transform="translate(259.725,193.565) scale(0.23,0.23)" font-size="40" xml:space="preserve" fill="#eeeeee" fill-rule="nonzero" stroke="none" stroke-width="1" stroke-linecap="butt" stroke-linejoin="miter" font-family="Sans Serif" font-weight="400" text-anchor="start"><tspan x="0" dy="0">-7</tspan></text><text transform="translate(191.905,186.975) scale(0.18565,0.21)" font-size="40" xml:space="preserve" fill="#ffffff" fill-rule="nonzero" stroke="none" stroke-width="1" stroke-linecap="butt" stroke-linejoin="miter" font-family="Sans Serif" font-weight="400" text-anchor="start"><tspan x="0" dy="0">ゲームセンター</tspan></text><path d="M254.295,186.785c0.32,-0.29 0.47,-0.2 0.33,0.21l-0.87,2.69c-0.13,0.42 0.09,0.86 0.51,0.99l0.32,0.1c0.41,0.13 0.49,0.48 0.17,0.77l-3.61,3.35c-0.32,0.29 -0.47,0.2 -0.33,-0.21l0.87,-2.69c0.13,-0.42 -0.09,-0.86 -0.51,-0.99l-0.31,-0.1c-0.41,-0.13 -0.49,-0.48 -0.17,-0.77z" fill="#eeeeee" fill-rule="nonzero" stroke="#eeeeee" stroke-width="0.65" stroke-linecap="butt" stroke-linejoin="miter"/><path d="M191.855,200.155l-0.95,-2.39l5.74,-2.29l0.95,2.39zM255.835,159.085l-0.04,3.17l-0.94,-0.33l-0.55,-1.77l-1.56,1.03l-3.15,-1.11l1.97,-2.49z" fill="#ffffff" fill-rule="nonzero" stroke="#ffffff" stroke-width="1.25" stroke-linecap="butt" stroke-linejoin="round"/><path d="M194.725,199.015l1.55,3.88M255.115,154.335l-1.41,3.99" fill="none" fill-rule="nonzero" stroke="#ffffff" stroke-width="1.25" stroke-linecap="round" stroke-linejoin="miter"/><path d="M253.445,166.095c0.03,-0.02 0.09,-0.01 0.09,0.03l0.27,1.13c0,0 0.67,0.49 0.87,0.84c0.34,0.58 0.35,1.05 0.35,1.05c0,0 0.75,0.22 0.87,0.82c0.13,0.6 -0.34,1.73 -2.31,2.13c-1.98,0.39 -3.57,-0.15 -4.31,-1.35c-0.75,-1.2 0.43,-2.63 0.37,-2.55l-0.22,-1.89c-0.01,-0.04 0.04,-0.07 0.09,-0.05l1.27,0.83c0,0 0.47,-0.18 0.97,-0.2c0.29,-0.02 0.55,0 0.79,0.04z" fill="#eeeeee" fill-rule="nonzero" stroke="#eeeeee" stroke-width="0.65" stroke-linecap="butt" stroke-linejoin="miter"/><path d="M256.945,169.305c-0.49,0.4 -1.25,0.41 -1.25,0.41M256.805,170.485c-0.66,0.05 -1.07,-0.15 -1.07,-0.15M248.495,169.275c0,0 0.91,0.29 1.27,0.62M249.795,170.265c-0.45,0.18 -1.23,0.06 -1.23,0.06" fill="none" fill-rule="nonzero" stroke="#eeeeee" stroke-width="0.65" stroke-linecap="round" stroke-linejoin="miter"/><text transform="translate(196.51457,208.46654) scale(0.11803,0.11803)" font-size="40" xml:space="preserve" fill="#cccccc" fill-rule="nonzero" stroke="none" stroke-width="1" stroke-linecap="butt" stroke-linejoin="miter" font-family="Sans Serif" font-weight="400" text-anchor="start"><tspan x="0" dy="0">Lv.2</tspan></text><path d="M192.39673,206.48984c0.35371,-0.09488 0.62995,-0.37113 0.72483,-0.72484l0.2162,-0.80411c0.10269,-0.38013 0.64197,-0.38013 0.74406,0l0.21679,0.80411c0.09488,0.35371 0.37113,0.62996 0.72423,0.72484l0.80411,0.21619c0.38013,0.10269 0.38013,0.64196 0,0.74465l-0.80411,0.2162c-0.35311,0.09488 -0.62935,0.37113 -0.72423,0.72423l-0.21679,0.80411c-0.10209,0.38013 -0.64137,0.38013 -0.74406,0l-0.2162,-0.80411c-0.09488,-0.35311 -0.37112,-0.62935 -0.72483,-0.72423l-0.80411,-0.2162c-0.38013,-0.10269 -0.38013,-0.64196 0,-0.74465z" fill="#cccccc" fill-rule="evenodd" stroke="none" stroke-width="1" stroke-linecap="butt" stroke-linejoin="miter"/></g></g></svg>