<svg version="1.1" xmlns="http://www.w3.org/2000/svg" xmlns:xlink="http://www.w3.org/1999/xlink" width="171.49779" height="184.20264" viewBox="0,0,171.49779,184.20264"><g transform="translate(20,0)"><g stroke-miterlimit="10"><path d="M9.50057,181.70264v-141.24393h139.49722v141.24393z" fill="#4d4d4d" stroke="#4d4d4d" stroke-width="5" stroke-linecap="butt" stroke-linejoin="round"/><path d="M-20,4v-4h20v4z" fill="none" stroke="none" stroke-width="0" stroke-linecap="butt" stroke-linejoin="miter"/><text transform="translate(45.61846,61.40159) scale(0.41787,0.41787)" font-size="40" xml:space="preserve" fill="#e6e6e6" stroke="none" stroke-width="1" stroke-linecap="butt" stroke-linejoin="miter" font-family="Sans Serif" font-weight="normal" text-anchor="start"><tspan x="0" dy="0">ゲーム設定</tspan></text><text transform="translate(45.61846,87.35891) scale(0.41787,0.41787)" font-size="40" xml:space="preserve" fill="#e6e6e6" stroke="none" stroke-width="1" stroke-linecap="butt" stroke-linejoin="miter" font-family="Sans Serif" font-weight="normal" text-anchor="start"><tspan x="0" dy="0">キーボード</tspan></text><text transform="translate(45.61846,113.31623) scale(0.41787,0.41787)" font-size="40" xml:space="preserve" fill="#e6e6e6" stroke="none" stroke-width="1" stroke-linecap="butt" stroke-linejoin="miter" font-family="Sans Serif" font-weight="normal" text-anchor="start"><tspan x="0" dy="0">アカウント</tspan></text><text transform="translate(45.61846,165.23087) scale(0.41787,0.41787)" font-size="40" xml:space="preserve" fill="#e6e6e6" stroke="none" stroke-width="1" stroke-linecap="butt" stroke-linejoin="miter" font-family="Sans Serif" font-weight="normal" text-anchor="start"><tspan x="0" dy="0">クレジット</tspan></text><text transform="translate(67.04684,139.27355) scale(0.41787,0.41787)" font-size="40" xml:space="preserve" fill="#e6e6e6" stroke="none" stroke-width="1" stroke-linecap="butt" stroke-linejoin="miter" font-family="Sans Serif" font-weight="normal" text-anchor="start"><tspan x="0" dy="0">MOD</tspan></text><path d="M18.41355,61.94159v-11.10888h11.0769v11.10888z" fill="#6dd0f2" stroke="#6dd0f2" stroke-width="7.5" stroke-linecap="butt" stroke-linejoin="round"/><path d="M21.03712,53.71842l-1.9055,5.33746" fill="none" stroke="#ffffff" stroke-width="5" stroke-linecap="round" stroke-linejoin="miter"/><path d="M21.90235,56.38715h4.0845" fill="none" stroke="#ffffff" stroke-width="7.5" stroke-linecap="round" stroke-linejoin="miter"/><path d="M28.77237,59.05588l-1.9055,-5.33746" fill="none" stroke="#ffffff" stroke-width="5" stroke-linecap="round" stroke-linejoin="miter"/><path d="M18.41355,87.89891v-11.10888h11.0769v11.10888z" fill="#e06df2" stroke="#e06df2" stroke-width="7.5" stroke-linecap="butt" stroke-linejoin="round"/><path d="M18.41355,113.85623v-11.10888h11.0769v11.10888z" fill="#f2b56d" stroke="#f2b56d" stroke-width="7.5" stroke-linecap="butt" stroke-linejoin="round"/><path d="M18.41355,139.81355v-11.10888h11.0769v11.10888z" fill="#92c363" stroke="#92c363" stroke-width="7.5" stroke-linecap="butt" stroke-linejoin="round"/><path d="M18.41355,165.77087v-11.10888h11.0769v11.10888z" fill="#6da1f2" stroke="#6da1f2" stroke-width="7.5" stroke-linecap="butt" stroke-linejoin="round"/><path d="M28.02933,132.24492c0.12839,0.77249 -0.1054,1.59346 -0.70134,2.1894c-0.98064,0.98064 -2.57057,0.98064 -3.55121,0c-0.98064,-0.98064 -0.98064,-2.57057 0,-3.55121c0.60012,-0.60012 1.42843,-0.83299 2.20563,-0.6986" fill="none" stroke="#f2f2f2" stroke-width="4" stroke-linecap="butt" stroke-linejoin="miter"/><path d="M23.77678,134.43433l-3.93626,3.93625" fill="none" stroke="#f2f2f2" stroke-width="4" stroke-linecap="round" stroke-linejoin="miter"/><path d="M18.41355,85.4044v-6.11985h11.0769v6.11985z" fill="#ffffff" stroke="#ffffff" stroke-width="4" stroke-linecap="butt" stroke-linejoin="round"/><path d="M28.8691,80.21925v-0.62314h0.62134v0.62314z" fill="#e06df2" stroke="#e06df2" stroke-width="1.5" stroke-linecap="butt" stroke-linejoin="round"/><path d="M26.25521,80.21925v-0.62314h0.62134v0.62314z" fill="#e06df2" stroke="#e06df2" stroke-width="1.5" stroke-linecap="butt" stroke-linejoin="round"/><path d="M23.64132,80.21925v-0.62314h0.62134v0.62314z" fill="#e06df2" stroke="#e06df2" stroke-width="1.5" stroke-linecap="butt" stroke-linejoin="round"/><path d="M21.02744,80.21925v-0.62314h0.62134v0.62314z" fill="#e06df2" stroke="#e06df2" stroke-width="1.5" stroke-linecap="butt" stroke-linejoin="round"/><path d="M18.41355,80.21925v-0.62314h0.62134v0.62314z" fill="#e06df2" stroke="#e06df2" stroke-width="1.5" stroke-linecap="butt" stroke-linejoin="round"/><path d="M27.56216,82.65604v-0.62314h0.62134v0.62314z" fill="#e06df2" stroke="#e06df2" stroke-width="1.5" stroke-linecap="butt" stroke-linejoin="round"/><path d="M24.94827,82.65604v-0.62314h0.62135v0.62314z" fill="#e06df2" stroke="#e06df2" stroke-width="1.5" stroke-linecap="butt" stroke-linejoin="round"/><path d="M22.33438,82.65604v-0.62314h0.62134v0.62314z" fill="#e06df2" stroke="#e06df2" stroke-width="1.5" stroke-linecap="butt" stroke-linejoin="round"/><path d="M19.72049,82.65604v-0.62314h0.62134v0.62314z" fill="#e06df2" stroke="#e06df2" stroke-width="1.5" stroke-linecap="butt" stroke-linejoin="round"/><path d="M21.44092,85.09283v-0.62314h5.02216v0.62314z" fill="#e06df2" stroke="#e06df2" stroke-width="1.5" stroke-linecap="butt" stroke-linejoin="round"/><path d="M21.44092,104.59945c0,-1.38683 1.12424,-2.51109 2.51107,-2.51109c1.38683,0 2.51109,1.12426 2.51109,2.51109c0,1.38683 -1.12426,2.51108 -2.51109,2.51108c-1.38683,0 -2.51107,-1.12425 -2.51107,-2.51108z" fill="#ffffff" stroke="none" stroke-width="0" stroke-linecap="butt" stroke-linejoin="miter"/><path d="M19.06702,112.4918c0,-2.6979 2.18708,-4.88497 4.88498,-4.88497c2.69789,0 4.88498,2.18708 4.88498,4.88497c0,2.6979 -9.76995,2.6979 -9.76995,0z" fill="#ffffff" stroke="none" stroke-width="0" stroke-linecap="butt" stroke-linejoin="miter"/><path d="" fill="none" stroke="#ffffff" stroke-width="0.5" stroke-linecap="butt" stroke-linejoin="miter"/><path d="" fill="none" stroke="#ffffff" stroke-width="0.5" stroke-linecap="butt" stroke-linejoin="miter"/><path d="" fill="none" stroke="#ffffff" stroke-width="0.5" stroke-linecap="butt" stroke-linejoin="miter"/><path d="" fill="none" stroke="#ffffff" stroke-width="0.5" stroke-linecap="butt" stroke-linejoin="miter"/><path d="M19.09074,157.85149h9.72251" fill="none" stroke="#ffffff" stroke-width="2.5" stroke-linecap="round" stroke-linejoin="miter"/><path d="M19.09074,162.58137h4.62476" fill="none" stroke="#ffffff" stroke-width="2.5" stroke-linecap="round" stroke-linejoin="miter"/></g></g></svg>