<svg version="1.1" xmlns="http://www.w3.org/2000/svg" xmlns:xlink="http://www.w3.org/1999/xlink" width="56" height="38" viewBox="0,0,56,38"><defs><linearGradient x1="223.13476" y1="168.49528" x2="223.13476" y2="181.15193" gradientUnits="userSpaceOnUse" id="color-1"><stop offset="0" stop-color="#ffef62" stop-opacity="0"/><stop offset="1" stop-color="#ffef62"/></linearGradient></defs><g transform="translate(-212,-161)"><g stroke-miterlimit="10"><path d="M237.15484,194.01702v-25.52174h17.64586v25.52174z" fill-opacity="0.70196" fill="#a3cccc" stroke="none" stroke-width="0" stroke-linecap="butt" stroke-linejoin="round"/><path d="M248.9861,194.01702l-6.15967,-25.52174h4.47731l6.15965,25.52174z" fill-opacity="0.40392" fill="#cccccc" stroke="none" stroke-width="0" stroke-linecap="butt" stroke-linejoin="miter"/><path d="M244.24285,194.01702l-6.15967,-25.52174h2.49163l6.15966,25.52174z" fill-opacity="0.40392" fill="#cccccc" stroke="none" stroke-width="0" stroke-linecap="butt" stroke-linejoin="miter"/><path d="M213,198v-36h54v36zM254.8007,194.01702v-25.52174h-17.64586v25.52174z" fill="#cdbeb2" stroke="#666666" stroke-width="2" stroke-linecap="butt" stroke-linejoin="round"/><path d="M216.04766,185.96986l3.42568,-1.74622l2.67419,5.24615l-3.42568,1.74622z" fill="#a9a3bf" stroke="#a9a3bf" stroke-width="1.5" stroke-linecap="butt" stroke-linejoin="round"/><path d="M221.68564,188.66728v-1.53055h16.98161v1.53055z" fill="#8a7a99" stroke="#897a99" stroke-width="1.5" stroke-linecap="butt" stroke-linejoin="round"/><path d="M229.36856,188.66728v-2h5.41802v2z" fill="#959199" stroke="#959199" stroke-width="1.5" stroke-linecap="butt" stroke-linejoin="round"/><path d="M214,195.03315v-11.01504h3.48747v4.96992h22.51253v6.04512z" fill="#bf8956" stroke="none" stroke-width="1" stroke-linecap="butt" stroke-linejoin="miter"/><path d="M217.84417,192.51235v-3.84507h21.48946v3.84507z" fill="#cccccc" stroke="#cccccc" stroke-width="1.5" stroke-linecap="butt" stroke-linejoin="round"/><path d="M260.07498,195.03315v-5.79182" fill="none" stroke="#bf8956" stroke-width="1.5" stroke-linecap="round" stroke-linejoin="miter"/><path d="M248.79141,185.04558h8.28326" fill="none" stroke="#bf8956" stroke-width="1.5" stroke-linecap="round" stroke-linejoin="miter"/><path d="M252.93304,195.03315v-9.98757" fill="none" stroke="#bf8956" stroke-width="1.5" stroke-linecap="round" stroke-linejoin="miter"/><path d="M254.96448,191.68009c0,0 1.20323,-1.3097 2.89721,-2.06218c1.7398,-0.77284 3.98272,-0.99904 4.85393,-1.7811c1.35424,-1.21567 2.48415,-4.892 2.48415,-4.892" fill="none" stroke="#bf8956" stroke-width="1.5" stroke-linecap="round" stroke-linejoin="miter"/><path d="M254.69977,191.41538c0,0 1.20323,-1.3097 2.8972,-2.06218c1.7398,-0.77284 3.98272,-0.99904 4.85393,-1.7811c1.35424,-1.21567 2.48415,-4.892 2.48415,-4.892" fill="none" stroke="#b3b3b3" stroke-width="1.5" stroke-linecap="round" stroke-linejoin="miter"/><path d="M214,197.03315v-2h52v2z" fill="#cccccc" stroke="none" stroke-width="0" stroke-linecap="butt" stroke-linejoin="miter"/><path d="M225.46653,174.82361c0,3.49504 -1.04397,2.90662 -2.33176,2.90662c-1.2878,0 -2.33176,0.58842 -2.33176,-2.90662c0,-3.49504 1.04397,-6.32833 2.33176,-6.32833c1.2878,0 2.33176,2.83329 2.33176,6.32833z" fill="url(#color-1)" stroke="none" stroke-width="0" stroke-linecap="butt" stroke-linejoin="miter"/><path d="M225.46653,176.68394c0,1.56097 -1.04397,2.82638 -2.33176,2.82638c-1.2878,0 -2.33176,-1.26541 -2.33176,-2.82638c0,-1.56097 1.04397,-1.88425 2.33176,-1.88425c1.2878,0 2.33176,0.32329 2.33176,1.88425z" fill="#90867e" stroke="none" stroke-width="0" stroke-linecap="butt" stroke-linejoin="miter"/></g></g></svg>