<svg version="1.1" xmlns="http://www.w3.org/2000/svg" xmlns:xlink="http://www.w3.org/1999/xlink" width="56" height="38" viewBox="0,0,56,38"><g transform="translate(-212,-161)"><g stroke-miterlimit="10"><path d="M213,198v-36h54v36z" fill="#dbd58e" fill-rule="nonzero" stroke="#666666" stroke-width="2" stroke-linecap="butt" stroke-linejoin="round"/><path d="M214,197.03315v-2h52v2z" fill="#cccccc" fill-rule="nonzero" stroke="none" stroke-width="0" stroke-linecap="butt" stroke-linejoin="miter"/><path d="M266,172.62375v22.4094h-8.08371v-22.4094z" fill="#7e5733" fill-rule="nonzero" stroke="none" stroke-width="0" stroke-linecap="butt" stroke-linejoin="miter"/><g fill-rule="evenodd" stroke-width="0.25"><path d="M224.92511,170.47355c0.06441,-0.04294 0.17176,-0.02147 0.19323,0.06441l0.55823,2.29734c0,0 1.37411,1.00911 1.78205,1.71764c0.68706,1.18088 0.70853,2.14705 0.70853,2.14705c0,0 1.5244,0.45088 1.78205,1.6747c0.25765,1.22382 -0.68706,3.54263 -4.7235,4.33704c-4.03645,0.79441 -7.27849,-0.30059 -8.80289,-2.74822c-1.5244,-2.44763 0.88029,-5.36762 0.75147,-5.19585l-0.45088,-3.84321c-0.02147,-0.08588 0.08588,-0.15029 0.17176,-0.10735l2.59793,1.69617c0,0 0.96617,-0.365 1.97528,-0.40794c0.60117,-0.04294 1.11646,0 1.61029,0.08588z" fill="#ffab19" stroke="#001026" stroke-linecap="butt" stroke-linejoin="miter"/><path d="M228.10274,176.78587c0,0 1.48146,0.38647 1.73911,1.61029c0.25765,1.22382 -0.77294,3.43528 -4.76644,4.20821c-5.19585,1.07352 -7.66496,-2.01822 -6.22644,-4.29409c1.43852,-2.29734 3.90763,-0.34353 5.71115,-0.47235c1.54587,-0.10735 1.71764,-1.45999 3.54263,-1.05205z" fill="#ffffff" stroke="none" stroke-linecap="butt" stroke-linejoin="miter"/><path d="M221.33954,179.08323c0,-0.08588 0.08588,-0.15029 0.17176,-0.12882c0.40794,0.15029 1.56734,0.49382 2.85557,0.5797c1.15941,0.06441 1.84646,0 2.16852,-0.06441c0.10735,-0.02147 0.19323,0.08588 0.15029,0.19323c-0.19323,0.5797 -1.00911,2.18999 -3.26351,2.06117c-1.95381,-0.2147 -2.14705,-1.58881 -2.08264,-2.64087z" fill="#ffffff" stroke="#001026" stroke-linecap="round" stroke-linejoin="round"/><path d="M232.05331,177.02207c-1.00911,0.81588 -2.55499,0.83735 -2.55499,0.83735" fill="none" stroke="#001026" stroke-linecap="round" stroke-linejoin="round"/><path d="M231.77419,179.42673c-1.35264,0.10735 -2.18999,-0.30059 -2.18999,-0.30059" fill="none" stroke="#001026" stroke-linecap="round" stroke-linejoin="round"/><path d="M224.47423,177.2797c0.45088,0 0.92323,0.04294 0.9447,0.19323c0.02147,0.30059 -0.30059,0.90176 -0.64411,0.92323c-0.38647,0.04294 -1.28823,-0.49382 -1.28823,-0.83735c-0.02147,-0.25765 0.55823,-0.27912 0.98764,-0.27912z" fill="#001026" stroke="#001026" stroke-linecap="round" stroke-linejoin="round"/><path d="M214.81252,176.95764c0,0 1.84646,0.60117 2.59793,1.26676" fill="none" stroke="#001026" stroke-linecap="round" stroke-linejoin="round"/><path d="M217.47486,178.97588c-0.92323,0.365 -2.51205,0.12882 -2.51205,0.12882" fill="none" stroke="#001026" stroke-linecap="round" stroke-linejoin="round"/><g><path d="M227.00775,174.76767c0.62264,0.96617 0.64411,2.06117 0.04294,2.44763c-0.60117,0.38647 -1.58881,-0.06441 -2.23293,-1.03058c-0.62264,-0.96617 -0.64411,-2.06117 -0.04294,-2.44763c0.60117,-0.40794 1.61029,0.06441 2.23293,1.03058z" fill="#ffffff" stroke="#001026" stroke-linecap="round" stroke-linejoin="round"/><path d="M226.92187,175.99146c0,0.23618 -0.17176,0.42941 -0.38647,0.42941c-0.2147,0 -0.38647,-0.19323 -0.38647,-0.42941c0,-0.23618 0.17176,-0.42941 0.38647,-0.42941c0.2147,0 0.38647,0.19323 0.38647,0.42941" fill="#001026" stroke="none" stroke-linecap="butt" stroke-linejoin="miter"/></g><g><path d="M221.68307,175.36882c0.64411,0.9447 0.60117,2.10411 0.02147,2.51205c-0.70853,0.40794 -1.65323,0.10735 -2.29734,-0.83735c-0.66558,-0.9447 -0.70853,-2.16852 -0.04294,-2.64087c0.66558,-0.49382 1.6747,0.02147 2.31881,0.96617z" fill="#ffffff" stroke="#001026" stroke-linecap="round" stroke-linejoin="round"/><path d="M221.55425,176.61413c0,0.23618 -0.17176,0.42941 -0.38647,0.42941c-0.2147,0 -0.38647,-0.19323 -0.38647,-0.42941c0,-0.23618 0.17176,-0.42941 0.38647,-0.42941c0.2147,0.02147 0.38647,0.19323 0.38647,0.42941" fill="#001026" stroke="none" stroke-linecap="butt" stroke-linejoin="miter"/></g></g><path d="M244.67533,182.51777v12.51539h-30.67532v-12.51539z" fill="#8c8c8c" fill-rule="nonzero" stroke="none" stroke-width="0" stroke-linecap="butt" stroke-linejoin="miter"/><path d="M233.24446,182.30072v-12.51539h10.05627v12.51539z" fill="#c3c0a2" fill-rule="nonzero" stroke="#808080" stroke-width="1" stroke-linecap="butt" stroke-linejoin="miter"/><path d="M233.24446,178.15872h10.05627" fill="none" fill-rule="nonzero" stroke="#808080" stroke-width="1" stroke-linecap="round" stroke-linejoin="miter"/><path d="M233.24446,173.92734h10.05627" fill="none" fill-rule="nonzero" stroke="#808080" stroke-width="1" stroke-linecap="round" stroke-linejoin="miter"/><path d="M234.82892,181.07228l1.07496,-0.64868" fill="none" fill-rule="nonzero" stroke="#9a6427" stroke-width="1.5" stroke-linecap="round" stroke-linejoin="miter"/><path d="M236.61246,181.07228l1.07496,-0.64868" fill="none" fill-rule="nonzero" stroke="#ab6f2b" stroke-width="1.5" stroke-linecap="round" stroke-linejoin="miter"/><path d="M238.83066,181.12788l1.07496,-0.64868" fill="none" fill-rule="nonzero" stroke="#a56b29" stroke-width="1.5" stroke-linecap="round" stroke-linejoin="miter"/><path d="M240.6314,181.12788l1.07496,-0.64868" fill="none" fill-rule="nonzero" stroke="#915e24" stroke-width="1.5" stroke-linecap="round" stroke-linejoin="miter"/><path d="M234.61773,175.44079l0.58041,1.3831l1.29665,-1.17316" fill="none" fill-rule="nonzero" stroke="#da922e" stroke-width="0.5" stroke-linecap="round" stroke-linejoin="miter"/><path d="M236.00082,175.25556v1.44484l-1.02497,-1.67947" fill="none" fill-rule="nonzero" stroke="#da922e" stroke-width="0.5" stroke-linecap="round" stroke-linejoin="miter"/><path d="M235.5933,174.90978l-0.27168,1.67947" fill="none" fill-rule="nonzero" stroke="#da922e" stroke-width="0.5" stroke-linecap="round" stroke-linejoin="miter"/><path d="M234.86706,177.67032l-0.24698,-1.65198h1.94599l-0.24698,1.65198z" fill="#f5d4c3" fill-rule="nonzero" stroke="none" stroke-width="0" stroke-linecap="butt" stroke-linejoin="miter"/><path d="M237.14928,175.44079l0.58041,1.38309l1.29665,-1.17316" fill="none" fill-rule="nonzero" stroke="#da922e" stroke-width="0.5" stroke-linecap="round" stroke-linejoin="miter"/><path d="M238.53238,175.25556v1.44485l-1.02497,-1.67948" fill="none" fill-rule="nonzero" stroke="#da922e" stroke-width="0.5" stroke-linecap="round" stroke-linejoin="miter"/><path d="M238.12486,174.90979l-0.27168,1.67947" fill="none" fill-rule="nonzero" stroke="#da922e" stroke-width="0.5" stroke-linecap="round" stroke-linejoin="miter"/><path d="M237.39862,177.67032l-0.24698,-1.65199h1.94599l-0.24698,1.65199z" fill="#f5d4c3" fill-rule="nonzero" stroke="none" stroke-width="0" stroke-linecap="butt" stroke-linejoin="miter"/><path d="M239.76729,175.44079l0.58041,1.38309l1.29665,-1.17316" fill="none" fill-rule="nonzero" stroke="#da922e" stroke-width="0.5" stroke-linecap="round" stroke-linejoin="miter"/><path d="M241.15039,175.25556v1.44485l-1.02498,-1.67948" fill="none" fill-rule="nonzero" stroke="#da922e" stroke-width="0.5" stroke-linecap="round" stroke-linejoin="miter"/><path d="M240.74287,174.90979l-0.27168,1.67947" fill="none" fill-rule="nonzero" stroke="#da922e" stroke-width="0.5" stroke-linecap="round" stroke-linejoin="miter"/><path d="M240.01662,177.67032l-0.24698,-1.65199h1.94599l-0.24698,1.65199z" fill="#f5d4c3" fill-rule="nonzero" stroke="none" stroke-width="0" stroke-linecap="butt" stroke-linejoin="miter"/><path d="M234.90152,172.43311l0.69155,-0.13584" fill="none" fill-rule="nonzero" stroke="#a96b2f" stroke-width="2" stroke-linecap="round" stroke-linejoin="miter"/><path d="M236.54395,172.43311l0.69155,-0.13584" fill="none" fill-rule="nonzero" stroke="#835425" stroke-width="2" stroke-linecap="round" stroke-linejoin="miter"/><path d="M238.17403,172.43311l0.69154,-0.13584" fill="none" fill-rule="nonzero" stroke="#a77e56" stroke-width="2" stroke-linecap="round" stroke-linejoin="miter"/><path d="M239.68061,172.43311l0.69155,-0.13584" fill="none" fill-rule="nonzero" stroke="#a96b2f" stroke-width="2" stroke-linecap="round" stroke-linejoin="miter"/><path d="M241.08841,172.43311l0.69155,-0.13584" fill="none" fill-rule="nonzero" stroke="#cb8d4e" stroke-width="2" stroke-linecap="round" stroke-linejoin="miter"/><path d="M266,162.96685v1.65199h-52v-1.65199z" fill="#ffe14c" fill-rule="nonzero" stroke="none" stroke-width="0" stroke-linecap="butt" stroke-linejoin="miter"/><path d="M266,164.61884v1.65198h-52v-1.65198z" fill="#f0f0f0" fill-rule="nonzero" stroke="none" stroke-width="0" stroke-linecap="butt" stroke-linejoin="miter"/><path d="M266,166.27082v1.65198h-52v-1.65198z" fill="#53c2e5" fill-rule="nonzero" stroke="none" stroke-width="0" stroke-linecap="butt" stroke-linejoin="miter"/></g></g></svg>