<svg version="1.1" xmlns="http://www.w3.org/2000/svg" xmlns:xlink="http://www.w3.org/1999/xlink" width="492.99943" height="352.99943" viewBox="0,0,492.99943,352.99943"><g transform="translate(20,0)"><g stroke-miterlimit="10"><path d="M-20,4v-4h20v4z" fill="none" stroke="none" stroke-width="0" stroke-linejoin="miter"/><path d="M161.55661,350.49943v-310.04072h308.94282v310.04072z" fill="#4d4d4d" stroke="#4d4d4d" stroke-width="5" stroke-linejoin="round"/><path d="M146.4045,50.8615v11.05252c0,3.45524 -2.80935,6.26579 -6.267,6.26579h-121.77883c-3.45403,0 -6.26579,-2.81055 -6.26579,-6.26579v-11.05373c0,-3.45524 2.81176,-6.26579 6.26579,-6.26579h121.77883c3.45766,0 6.267,2.81176 6.267,6.267z" fill-opacity="0.30196" fill="#ffffff" stroke="none" stroke-width="1" stroke-linejoin="miter"/><path d="M171.7784,56.0918c0.74709,2.87775 -0.84237,7.21208 -0.90285,9.90482c-0.02766,1.2316 0.57927,4.10638 -1.75,4.10638c-3.1483,0 -1.1109,-10.18387 -0.91959,-12.11592c0.02393,-0.24173 0.00279,-0.95404 0.02923,-1.65871c-0.92913,0.78321 -1.8637,1.53559 -2.72808,2.26467c-0.73628,0.62103 -3.13993,2.70474 -4.25151,2.40159c-1.59178,-0.43412 -1.95355,-1.06721 -1.51943,-2.65899c0.20558,-0.7538 1.82271,-1.13863 2.38123,-1.49857c2.64391,-1.70387 4.83532,-4.30262 7.14462,-6.39537c0.31456,-0.28507 1.95659,-3.2903 2.67737,-3.20021c0.20745,-0.08664 0.43512,-0.1345 0.67398,-0.1345c0.9665,0 1.75,0.7835 1.75,1.75c0.36919,0.41266 -1.37609,2.58686 -1.65781,2.97104c-0.59866,0.8164 -1.30811,1.59769 -2.07487,2.34922c0.59187,0.49931 0.95089,1.15638 1.14771,1.91454z" fill="#ffffff" stroke="none" stroke-width="0.5" stroke-linejoin="miter"/><path d="" fill="#ffffff" stroke="none" stroke-width="0.5" stroke-linejoin="miter"/><path d="M187.9596,65.03857c1.9993,1.15152 7.4774,5.93468 1.33751,4.7067c-1.78645,-0.35729 -3.5912,-1.54189 -5.26111,-2.8064c-0.8647,1.00942 -1.73847,1.94091 -2.52022,2.76368c-1.31437,1.38333 -3.71769,1.7987 -3.71769,-1.00871c0,-0.84078 1.56981,-2.37499 3.26453,-4.06514c-0.05528,-0.04098 -0.11021,-0.08137 -0.16479,-0.12114c-0.51173,-0.37287 -3.2593,-1.81986 -3.12346,-2.68582c-0.07381,-0.19361 -0.11423,-0.40371 -0.11423,-0.62324c0,-0.9665 0.7835,-1.75 1.75,-1.75c0.50574,0 0.96139,0.21454 1.28088,0.55757c0.85282,0.32914 1.64806,1.22265 2.7397,2.13916c1.22266,-1.4162 2.05773,-2.76279 1.69295,-3.73759c-0.16364,-0.4373 -4.66654,-0.54233 -7.1466,-0.61876c-0.21785,0.09735 -0.45924,0.15148 -0.71327,0.15148c-0.02824,0 -0.05633,-0.00067 -0.08424,-0.002c-0.75431,1.80126 -1.79475,3.34568 -3.24153,2.86342c-2.66267,-0.88755 0.77198,-6.82664 1.4583,-8.45226c0.23488,-0.55635 0.74639,-2.99107 1.87593,-2.68301c0.14019,-0.03619 0.28719,-0.05543 0.43868,-0.05543c0.11549,0 0.22836,0.01118 0.3376,0.03253c0.36463,-0.23214 0.77002,-0.38587 1.20469,-0.47809c2.29401,-0.48672 5.40397,0.73941 7.6453,1.19252c1.17507,0.23755 2.93643,-0.03417 2.93643,1.89735c0,3.33395 -7.42208,0.8189 -8.55567,0.63495c-0.18882,-0.03064 -1.26157,-0.10508 -2.16704,-0.22466c-0.21582,0.48855 -0.45147,0.94862 -0.49646,1.05778c-0.07062,0.17135 -0.14914,0.40293 -0.23671,0.67804c4.108,-1.03773 10.71372,0.42622 10.46143,3.41302c-0.17959,2.12614 -1.22278,4.26466 -2.57561,6.24676c0.56212,0.33052 1.12986,0.65198 1.6947,0.9773z" fill="#ffffff" stroke="none" stroke-width="0.5" stroke-linejoin="miter"/><path d="M200.74201,52.28628c-0.90194,2.3702 -5.56163,0.20687 -5.14385,-1.32498c-0.03619,-0.14019 -0.05544,-0.28719 -0.05544,-0.43868c0,-0.9665 0.7835,-1.75 1.75,-1.75c0.86689,-0.67118 3.84498,2.47386 3.44929,3.51367z" fill="#ffffff" stroke="none" stroke-width="0.5" stroke-linejoin="miter"/><path d="M205.25194,62.3096c0,2.16523 -5.53473,2.83262 -6.32162,1.45556c-0.51579,-0.30441 -0.86182,-0.86589 -0.86182,-1.50818c0,-0.38257 0.12276,-0.73647 0.33104,-1.02445c-0.03656,-0.04737 -0.07019,-0.09768 -0.10067,-0.15102c-0.51579,-0.30441 -0.86182,-0.86588 -0.86182,-1.50818c0,-0.80331 0.54127,-1.48021 1.279,-1.68588c-1.76045,-0.14272 -3.2346,-0.65458 -3.70952,-1.6044l-0.2005,-0.81412c0.00747,-0.57857 1.2113,-1.04877 2.81134,-1.39154c2.64473,-0.56656 6.37198,-0.78492 7.56842,-0.56894c0.69841,0.12608 1.98315,1.05056 1.75,1.75c-0.42902,1.28708 -2.60142,2.17484 -4.98908,2.51573c1.43308,-0.03695 2.5772,0.44032 2.30544,1.79915c-0.04354,0.21772 -0.15962,0.43487 -0.33082,0.64391c0.7891,0.28159 1.33061,0.92736 1.33061,2.09236zM200.07467,58.06483c0.25145,-0.0687 0.50823,-0.12697 0.76477,-0.17298c-0.35236,0.02475 -0.70433,0.0374 -1.05116,0.03751c0.10005,0.0366 0.19584,0.08208 0.28639,0.13547z" fill="#ffffff" stroke="none" stroke-width="0.5" stroke-linejoin="miter"/><path d="M198.328,65.29904l0.00688,-0.01506l0.04353,-0.01519l0.06614,-0.03968l0.3734,-0.11365l0.36853,-0.12856l0.07682,-0.00699l0.04411,-0.01342l0.01444,0.0081l0.24119,-0.02192l0.2809,-0.09364l0.28048,-0.02157l0.27291,-0.06823h2.26268l0.00965,0.00241l0.02786,-0.01563l0.41582,0.12655l0.42167,0.10541l0.01585,0.02775l0.00951,0.00289l0.16126,0.09676l0.25918,0.11107l0.18856,0.1433l0.2153,0.09868l0.2631,0.21048l0.10769,0.14135l0.14348,0.10485l0.21228,0.25474l0.25959,0.25959l0.08968,0.14947l0.12897,0.11724l0.21049,0.31573l0.02071,0.05801l0.04262,0.04447l0.21049,0.36835l0.06512,0.23156l0.1132,0.21224l0.10524,0.42096v0.21543l0.05225,0.20901v0.7893l-0.02682,0.10728l0.01331,0.10978l-0.05262,0.42096l-0.03206,0.08284l0.02137,0.06342l-0.17699,0.33857l-0.13791,0.35627l-0.06178,0.02574l-0.04115,0.07873l-0.42096,0.47358l-0.21163,0.14453l-0.17916,0.18323l-0.68407,0.42096l-0.27734,0.08782l-0.2602,0.1301l-0.94717,0.21048l-0.15327,-0.00403l-0.1469,0.0439l-1.15766,0.05262l-0.03993,-0.00807l-0.03952,0.00988h-1.21028l-0.04345,-0.01086l-0.04394,0.00867l-1.05241,-0.05262l-0.25039,-0.07606l-0.26027,-0.02711l-0.57882,-0.21049l-0.1534,-0.10354l-0.17605,-0.0571l-0.31077,-0.19423l-0.01745,0.00069l-0.03417,-0.03295l-0.05858,-0.03661l-0.27319,-0.28331l-0.28331,-0.27319l-0.03661,-0.05858l-0.03295,-0.03417l0.00069,-0.01745l-0.19423,-0.31077l-0.05442,-0.16781l-0.10016,-0.14522l-0.15787,-0.42096l-0.03553,-0.3109l-0.07589,-0.30357v-0.94716l0.04674,-0.18697l-0.00507,-0.19266l0.06357,-0.28606v-0.64982l0.05225,-0.209v-0.21543l0.04374,-0.17497c0.0675,-0.29742 0.21073,-0.56606 0.40838,-0.78457l0.02495,-0.04676l0.02612,-0.00735c0.31364,-0.31861 0.74842,-0.5176 1.22971,-0.52231l0.37154,-0.19816zM199.52725,68.74059l-0.06356,0.28606v0.32819l0.02124,0.00773l0.74565,0.03728h1.12679l0.96613,-0.04391l0.51174,-0.11372l0.07436,-0.04576v-0.18658l-0.05524,-0.09668l-0.08093,-0.12139l-0.19319,-0.19319l-0.04163,-0.06938l-0.06532,-0.04774l-0.12086,-0.14503l-0.11866,-0.05085l-0.02154,-0.01637h-1.5309l-0.20417,0.06806l-0.20286,0.01561l-0.1921,0.06701l-0.2912,0.02647l-0.05638,0.01716l-0.21167,0.11289z" fill="#ffffff" stroke="none" stroke-width="0.5" stroke-linejoin="miter"/><path d="M217.4468,62.40607c0.08602,1.33906 -0.65948,2.89535 -0.5365,4.68063c0.02422,0.35159 0.65302,0.28047 0.99958,0.34447c1.43841,0.26567 6.73563,-0.07765 6.73563,2.24529c0,3.06045 -6.77305,1.41522 -8.42498,0.97578c-3.35691,-0.89301 -2.73927,-3.94775 -2.49451,-6.59314c0.03474,-0.37546 0.17963,-2.89532 0.55755,-3.11127l0.53255,-0.30432l-0.14404,-0.00554l-0.08313,-0.02421l-0.08606,0.00946l-1.05545,-0.14393c0.19282,0.28124 0.30563,0.62163 0.30563,0.98838c0,0.4025 -0.13588,0.77326 -0.36427,1.06891c0.27219,2.86305 -1.02509,6.68393 -2.60554,6.68393c-1.70161,0 -2.11382,-0.5156 -2.16551,-2.16551c-0.0185,-0.59063 1.0175,-2.33001 1.18659,-2.91419c0.09919,-0.34268 0.27183,-1.88216 0.45508,-2.82315c0.01449,-0.17064 0.05346,-0.33431 0.1134,-0.48746c0.11337,-0.2897 0.30173,-0.54181 0.5412,-0.73244l-0.27342,-0.08413l-0.47657,-0.08665l-0.14419,-0.06523l-0.15723,-0.01797l-0.42096,-0.15786l-0.13223,-0.09119l-0.15367,-0.04677l-0.20547,-0.12328l-0.15037,-0.07518l-0.6848,-0.58697l-0.00383,-0.069l-0.06,-0.03428l-0.21875,-0.875v-1.57862l0.0239,-0.0956l-0.0132,-0.09765l0.10524,-0.94717l0.02696,-0.07259l-0.00368,-0.07735l0.07126,-0.35629l0,-0.45816l0.0239,-0.0956l-0.0132,-0.09765l0.04192,-0.37725l0,-0.69238c0,-0.29828 0.07463,-0.57913 0.20623,-0.8249l0.01252,-0.0501l0.02307,-0.01318c0.26387,-0.4471 0.72089,-0.76664 1.25627,-0.84382c-0.57018,-0.49406 -0.98541,-1.02188 -1.06773,-1.43346c-0.26803,-0.30747 -0.43037,-0.70949 -0.43037,-1.14942c0,-0.9665 0.7835,-1.75 1.75,-1.75c0.57174,0 1.07943,0.27417 1.39879,0.69822c1.60946,0.472 2.97487,2.17299 2.87243,3.75856l0.25473,0.02316l0.00766,0.00267l0.00803,-0.00118l0.43936,0.04394h1.17561l0.1419,0.03547l0.1458,-0.01166l0.55039,0.09173l0.65472,0.04677l0.00468,0.00153l0.00486,-0.00082l0.51085,0.0393c0.16354,-1.8157 1.81609,-4.02352 2.80097,-4.02352c0.25601,-0.14671 0.55263,-0.23057 0.86884,-0.23057c0.89329,0 1.63025,0.6693 1.73677,1.53378c0.01803,0.06834 0.02743,0.14023 0.02684,0.21622c-0.00049,0.06279 -0.00951,0.13406 -0.0264,0.21259c-0.03595,0.29685 -0.14622,0.57079 -0.31165,0.80267c-0.39451,0.77719 -1.09004,1.74813 -1.84713,2.47883l0.06915,-0.00864l0.21175,0.17204l0.24657,0.11679l0.03819,0.11457l0.2035,0.16534l0.04962,0.06616l0.10354,0.06212l0.2631,0.2631l0.11084,0.18473l0.15234,0.15234l0.15786,0.2631l0.01998,0.06565l0.04466,0.0521l0.00156,0.00311l0.01707,0.00975l0.01219,0.04876l0.02181,0.04361l0.08723,0.39253l0.09752,0.3901l0,0.0372l0.01864,0.09318l-0.00829,0.17411l0.04227,0.1691v1.05241l-0.03055,0.1222l0.01296,0.12529l-0.04875,0.34128l-0.0389,0.35008v0.32404l-0.0592,0.2368l-0.00813,0.24396l-0.09723,0.34031l-0.09817,0.39268l-0.00468,0.00878l0.00841,0.03083l-0.1406,0.23434l-0.03926,0.10992l-0.09561,0.38243l-0.05148,0.02942l-0.02368,0.06631l-0.10524,0.15786l-0.40686,0.36988l-0.08373,0.13158l-0.06406,0.01281l-0.02643,0.04626l-0.01304,0.00326l-0.01427,0.03425l-0.84111,0.32559l-0.42096,0.05262l-0.10978,-0.01331l-0.10728,0.02682h-0.63145l-0.04572,-0.01143l-0.04626,0.00901l-0.99979,-0.05262l-0.02625,-0.00805l-0.0271,0.00442l-1.26289,-0.10524l-0.0639,-0.02175l-0.06725,0.00582l-0.38783,-0.06205c0.46552,0.49075 0.65165,1.0197 0.68814,1.58773zM211.54301,54.73225l-0.04227,0.1691l0.00829,0.17411l-0.09035,0.45174l-0.08615,0.77536l0,0.2795l0.03642,0.00662l0.09618,0.04351l0.10542,0.00565l0.54496,0.16768l0.61652,0.0822l1.02378,0.10238l0.03031,0.01088l0.03201,-0.00352l1.07341,0.14637l1.28318,0.04935l0.10268,0.02991l0.10655,-0.00922l1.25024,0.20004l1.17037,0.09753l0.81496,0.04289v-0.13843l0.0239,-0.0956l-0.0132,-0.09765l0.05262,-0.47358l0.00977,-0.02631l-0.00289,-0.02792l0.03503,-0.24522v-0.75476l-0.00681,-0.03404l-0.00683,-0.00683l-0.01116,-0.0186l-0.04128,-0.0454l-0.00606,-0.00287l-0.37611,-0.17238l-0.01769,-0.01415l-0.0474,-0.02245l-0.00703,-0.02109l-0.0054,-0.00432l-0.31392,-0.06976l-0.03817,-0.01908l-0.04266,-0.00091l-0.56087,-0.15296l-0.47026,-0.11757l-0.5322,-0.04094l-0.73192,-0.05228l-0.07956,-0.02604l-0.08345,0.00668l-0.48858,-0.08143h-1.11806l-0.08621,-0.02155l-0.08792,0.01287l-0.51836,-0.05184l-0.57098,-0.05191l-0.07517,-0.02622l-0.07944,0.00518l-0.4955,-0.09009l-0.47451,-0.03954l-0.80823,0z" fill="#ffffff" stroke="none" stroke-width="0.5" stroke-linejoin="miter"/><path d="M230.93475,70.32144c-0.82161,-0.46949 -1.20454,-1.55559 -1.26465,-2.95961c0.31859,-0.333 0.7674,-0.54039 1.26465,-0.54039c0.9665,0 1.75,0.7835 1.75,1.75c0,0.9665 -0.7835,1.75 -1.75,1.75c-0.9665,0 -1.75,-0.7835 -1.75,-1.75c0,-0.46925 0.18469,-0.89537 0.48535,-1.20961c-0.20347,-4.75264 3.29209,-13.14813 5.99308,-13.60117c1.34762,-0.22604 5.6878,9.34566 6.70354,10.99309c0.42968,0.6969 2.6973,2.41155 2.13702,3.53212c-2.27398,4.54796 -6.31193,-3.69674 -7.15991,-5.10139c-0.48912,-0.81021 -0.92794,-1.82423 -1.37028,-2.67241c-0.20668,-0.3963 -0.30418,-1.62822 -0.51906,-1.23631c-0.36133,0.65902 -2.54289,9.91605 -3.01157,10.18387z" fill="#ffffff" stroke="none" stroke-width="0.5" stroke-linejoin="miter"/><path d="M251.829,56.04943c0.31944,1.96716 -0.39538,14.79871 -4.58281,14.25138c-2.98342,-0.38996 1.07464,-8.31421 1.12166,-9.46175c0.06493,-1.58463 0.22109,-3.20583 -0.11122,-4.75658c-0.0305,-0.1294 -0.04664,-0.26435 -0.04664,-0.40306c0,-0.9665 0.7835,-1.75 1.75,-1.75c0.93305,0 1.69555,0.73021 1.74721,1.65033c0.05374,0.14819 0.09507,0.30505 0.12181,0.46968z" fill="#ffffff" stroke="none" stroke-width="0.5" stroke-linejoin="miter"/><path d="M255.85256,65.68248c-0.04422,0.60692 1.17108,-0.33161 1.75938,-0.48723c1.26507,-0.33464 3.30878,-1.50538 4.17429,0.22564c1.34351,2.68702 -7.57191,4.85909 -7.96557,4.63414c-2.67366,-1.5278 -1.43172,-6.11521 -1.16273,-8.81177c0.12785,-1.28166 -0.6493,-4.50037 0.37186,-5.08389c0.30441,-0.5158 0.86589,-0.86182 1.50818,-0.86182c0.9665,0 1.75,0.7835 1.75,1.75c0,0.16294 -0.02227,0.32067 -0.06392,0.47033c0.70543,2.39343 -0.19792,5.78251 -0.37149,8.1646z" fill="#ffffff" stroke="none" stroke-width="0.5" stroke-linejoin="miter"/><path d="M277.24664,52.50866c0.49666,0 0.94499,0.2069 1.26352,0.5392l0.26248,-0.06562h0.15786l0.06831,0.01708l0.05303,-0.02652l0.37123,0.13258l0.38243,0.09561l0.02894,0.05065l0.00376,0.00201l0.06302,0.02251l0.01946,0.01297l0.16078,0.03573l0.10524,0.05262l0.06506,0.05577l0.02143,0.00714l0.03567,0.0227l0.06594,0.02355l0.1067,0.07114l0.13866,0.0422l0.14286,0.08572l0.13291,0.05316l0.1484,0.10718l0.17239,0.06157l0.94717,0.63145l0.16181,0.17799l0.19617,0.13921l0.63145,0.73669l0.12824,0.25648l0.16789,0.23247l0.10524,0.2631l0.00264,0.01937l0.0111,0.0161l0.15786,0.42096l0.03553,0.31089l0.07589,0.30357v0.68407l-0.01708,0.06831l0.02652,0.05303l-0.13258,0.37123l-0.09561,0.38243l-0.05148,0.02942l-0.02368,0.06631l-0.42096,0.63145l-0.25424,0.23113l-0.23113,0.25424l-0.47358,0.31572l-0.19822,0.07079l-0.17446,0.11776l-0.57883,0.21048l-0.30275,0.03154l-0.2953,0.07383h-0.68407l-0.10728,-0.02682l-0.10978,0.01331l-0.84193,-0.10524l-0.17973,-0.06957l-0.1918,-0.01887l-0.73669,-0.2631l-0.19552,-0.13035l-0.21945,-0.08404l-0.52621,-0.36834l-0.01537,-0.0177c-0.38556,2.60683 -1.57871,5.68276 -2.31086,7.42162c-0.39405,0.93588 -1.32021,2.94525 -2.64351,2.18907c-2.31392,-1.32224 -0.25637,-5.05619 0.37405,-6.86663c0.03863,-0.11092 0.90991,-3.24835 0.83211,-3.25194c-1.77187,-0.08179 -6.08739,0.47114 -6.43466,-0.13658l-0.86182,-1.50818c0.73333,-1.28333 1.13311,-1.63679 1.88872,-1.74458c0.49527,-0.07065 1.1434,-0.03576 2.13854,-0.08799c0.71907,-0.03774 3.47098,-0.51081 5.31548,-0.10315l0.03441,-0.30973l0.02155,-0.05803l-0.00403,-0.06177l0.09441,-0.51923l0.04593,-0.41338l0.10724,-0.28872l0.06681,-0.30065l0.19353,-0.38705c0.12907,-0.27227 0.32635,-0.50592 0.56977,-0.67886l0.03415,-0.03984l0.02668,-0.00148c0.27392,-0.17782 0.6007,-0.2811 0.9516,-0.2811zM278.60891,56.53162l0.04588,0.16824l0.17533,0.27552l0.20484,0.25605l0.12722,0.08906l0.33386,0.11923l0.5432,0.0679l0.14546,0l-0.16311,-0.19029l-0.59469,-0.39646l-0.09392,-0.03757l-0.11487,-0.08296l-0.13556,-0.04126l-0.2631,-0.15786l-0.02433,-0.02433l-0.08253,-0.02947l-0.04866,-0.01217l-0.02959,-0.01578l-0.02724,-0.00973z" fill="#ffffff" stroke="none" stroke-width="0.5" stroke-linejoin="miter"/><text transform="translate(161.55661,95.72423) scale(0.38618,0.38618)" font-size="40" xml:space="preserve" fill="#ffffff" stroke="none" stroke-width="1" stroke-linejoin="miter" font-family="Sans Serif" font-weight="normal" text-anchor="start"><tspan x="0" dy="0">v8では部屋を押しても建築はできません。</tspan><tspan x="0" dy="46.15px">下のバーにある建築ボタンを押して</tspan><tspan x="0" dy="46.15px">建築メニューを開くことで建築ができます！</tspan><tspan x="0" dy="46.15px"> </tspan><tspan x="0" dy="46.15px">さらに、下に行くと地下鉄を建築できます！</tspan><tspan x="0" dy="46.15px"> </tspan><tspan x="0" dy="46.15px">サーバーは現在使えませんが、</tspan><tspan x="0" dy="46.15px">次の更新で対応する予定です。</tspan></text></g></g></svg>